<?xml version="1.0" standalone="no"?>
 <!DOCTYPE svg PUBLIC "-//W3C//DTD SVG 1.1//EN" 
 "http://www.w3.org/Graphics/SVG/1.1/DTD/svg11.dtd"> 
<svg xmlns="http://www.w3.org/2000/svg" version="1.1" 
    width="29.7002cm" height="21.0007cm" viewBox="0 0 116930 82680 ">
<title>SVG Picture created as the_mvp-F_Fab.svg date 2020/08/23 07:04:14 </title>
  <desc>Picture generated by PCBNEW </desc>
<g style="fill:#000000; fill-opacity:1;stroke:#000000; stroke-opacity:1;
stroke-linecap:round; stroke-linejoin:round; "
 transform="translate(0 0) scale(1 1)">
</g>
<g style="fill:#000000; fill-opacity:0.0; 
stroke:#000000; stroke-width:-0.000393701; stroke-opacity:1; 
stroke-linecap:round; stroke-linejoin:round;">
</g>
<g style="fill:#000000; fill-opacity:0.0; 
stroke:#000000; stroke-width:39.3701; stroke-opacity:1; 
stroke-linecap:round; stroke-linejoin:round;">
</g>
<g style="fill:#000000; fill-opacity:0.0; 
stroke:#000000; stroke-width:59.0551; stroke-opacity:1; 
stroke-linecap:round; stroke-linejoin:round;">
<rect x="69685.9" y="65357.2" width="42519.7" height="12598.4" rx="0" />
</g>
<g style="fill:#000000; fill-opacity:0.0; 
stroke:#000000; stroke-width:39.3701; stroke-opacity:1; 
stroke-linecap:round; stroke-linejoin:round;">
</g>
<g style="fill:#000000; fill-opacity:0.0; 
stroke:#000000; stroke-width:59.0551; stroke-opacity:1; 
stroke-linecap:round; stroke-linejoin:round;">
<rect x="3937.01" y="3937.01" width="109056" height="74806" rx="0" />
</g>
<g style="fill:#000000; fill-opacity:0.0; 
stroke:#000000; stroke-width:39.3701; stroke-opacity:1; 
stroke-linecap:round; stroke-linejoin:round;">
</g>
<g style="fill:#000000; fill-opacity:0.0; 
stroke:#000000; stroke-width:59.0551; stroke-opacity:1; 
stroke-linecap:round; stroke-linejoin:round;">
<rect x="4724.41" y="4724.41" width="107481" height="73231.2" rx="0" />
</g>
<g style="fill:#000000; fill-opacity:0.0; 
stroke:#000000; stroke-width:39.3701; stroke-opacity:1; 
stroke-linecap:round; stroke-linejoin:round;">
</g>
<g style="fill:#000000; fill-opacity:0.0; 
stroke:#000000; stroke-width:59.0551; stroke-opacity:1; 
stroke-linecap:round; stroke-linejoin:round;">
<path d="M23622 4724
L23622 3937
" />
</g>
<g style="fill:#000000; fill-opacity:0.0; 
stroke:#000000; stroke-width:39.3701; stroke-opacity:1; 
stroke-linecap:round; stroke-linejoin:round;">
</g>
<g style="fill:#000000; fill-opacity:0.0; 
stroke:#000000; stroke-width:59.0551; stroke-opacity:1; 
stroke-linecap:round; stroke-linejoin:round;">
<path d="M43307 4724
L43307 3937
" />
</g>
<g style="fill:#000000; fill-opacity:0.0; 
stroke:#000000; stroke-width:39.3701; stroke-opacity:1; 
stroke-linecap:round; stroke-linejoin:round;">
</g>
<g style="fill:#000000; fill-opacity:0.0; 
stroke:#000000; stroke-width:59.0551; stroke-opacity:1; 
stroke-linecap:round; stroke-linejoin:round;">
<path d="M62992 4724
L62992 3937
" />
</g>
<g style="fill:#000000; fill-opacity:0.0; 
stroke:#000000; stroke-width:39.3701; stroke-opacity:1; 
stroke-linecap:round; stroke-linejoin:round;">
</g>
<g style="fill:#000000; fill-opacity:0.0; 
stroke:#000000; stroke-width:59.0551; stroke-opacity:1; 
stroke-linecap:round; stroke-linejoin:round;">
<path d="M82677 4724
L82677 3937
" />
</g>
<g style="fill:#000000; fill-opacity:0.0; 
stroke:#000000; stroke-width:39.3701; stroke-opacity:1; 
stroke-linecap:round; stroke-linejoin:round;">
</g>
<g style="fill:#000000; fill-opacity:0.0; 
stroke:#000000; stroke-width:59.0551; stroke-opacity:1; 
stroke-linecap:round; stroke-linejoin:round;">
<path d="M102362 4724
L102362 3937
" />
</g>
<g style="fill:#000000; fill-opacity:0.0; 
stroke:#000000; stroke-width:39.3701; stroke-opacity:1; 
stroke-linecap:round; stroke-linejoin:round;">
</g>
<g style="fill:#000000; fill-opacity:0.0; 
stroke:#000000; stroke-width:59.0551; stroke-opacity:1; 
stroke-linecap:round; stroke-linejoin:round;">
<path d="M14199 4562
L13906 4562
" />
<path d="M14052 4562
L14052 4050
L14004 4123
L13955 4172
L13906 4196
" />
</g>
<g style="fill:#000000; fill-opacity:0.0; 
stroke:#000000; stroke-width:39.3701; stroke-opacity:1; 
stroke-linecap:round; stroke-linejoin:round;">
</g>
<g style="fill:#000000; fill-opacity:0.0; 
stroke:#000000; stroke-width:59.0551; stroke-opacity:1; 
stroke-linecap:round; stroke-linejoin:round;">
<path d="M33591 4099
L33615 4074
L33664 4050
L33786 4050
L33835 4074
L33859 4099
L33884 4147
L33884 4196
L33859 4269
L33567 4562
L33884 4562
" />
</g>
<g style="fill:#000000; fill-opacity:0.0; 
stroke:#000000; stroke-width:39.3701; stroke-opacity:1; 
stroke-linecap:round; stroke-linejoin:round;">
</g>
<g style="fill:#000000; fill-opacity:0.0; 
stroke:#000000; stroke-width:59.0551; stroke-opacity:1; 
stroke-linecap:round; stroke-linejoin:round;">
<path d="M53252 4050
L53569 4050
L53398 4245
L53471 4245
L53520 4269
L53544 4294
L53569 4342
L53569 4464
L53544 4513
L53520 4537
L53471 4562
L53325 4562
L53276 4537
L53252 4513
" />
</g>
<g style="fill:#000000; fill-opacity:0.0; 
stroke:#000000; stroke-width:39.3701; stroke-opacity:1; 
stroke-linecap:round; stroke-linejoin:round;">
</g>
<g style="fill:#000000; fill-opacity:0.0; 
stroke:#000000; stroke-width:59.0551; stroke-opacity:1; 
stroke-linecap:round; stroke-linejoin:round;">
<path d="M73205 4221
L73205 4562
" />
<path d="M73083 4026
L72961 4391
L73278 4391
" />
</g>
<g style="fill:#000000; fill-opacity:0.0; 
stroke:#000000; stroke-width:39.3701; stroke-opacity:1; 
stroke-linecap:round; stroke-linejoin:round;">
</g>
<g style="fill:#000000; fill-opacity:0.0; 
stroke:#000000; stroke-width:59.0551; stroke-opacity:1; 
stroke-linecap:round; stroke-linejoin:round;">
<path d="M92914 4050
L92671 4050
L92646 4294
L92671 4269
L92719 4245
L92841 4245
L92890 4269
L92914 4294
L92939 4342
L92939 4464
L92914 4513
L92890 4537
L92841 4562
L92719 4562
L92671 4537
L92646 4513
" />
</g>
<g style="fill:#000000; fill-opacity:0.0; 
stroke:#000000; stroke-width:39.3701; stroke-opacity:1; 
stroke-linecap:round; stroke-linejoin:round;">
</g>
<g style="fill:#000000; fill-opacity:0.0; 
stroke:#000000; stroke-width:59.0551; stroke-opacity:1; 
stroke-linecap:round; stroke-linejoin:round;">
<path d="M112575 4050
L112477 4050
L112429 4074
L112404 4099
L112356 4172
L112331 4269
L112331 4464
L112356 4513
L112380 4537
L112429 4562
L112526 4562
L112575 4537
L112599 4513
L112624 4464
L112624 4342
L112599 4294
L112575 4269
L112526 4245
L112429 4245
L112380 4269
L112356 4294
L112331 4342
" />
</g>
<g style="fill:#000000; fill-opacity:0.0; 
stroke:#000000; stroke-width:39.3701; stroke-opacity:1; 
stroke-linecap:round; stroke-linejoin:round;">
</g>
<g style="fill:#000000; fill-opacity:0.0; 
stroke:#000000; stroke-width:59.0551; stroke-opacity:1; 
stroke-linecap:round; stroke-linejoin:round;">
<path d="M23622 77955
L23622 78742
" />
</g>
<g style="fill:#000000; fill-opacity:0.0; 
stroke:#000000; stroke-width:39.3701; stroke-opacity:1; 
stroke-linecap:round; stroke-linejoin:round;">
</g>
<g style="fill:#000000; fill-opacity:0.0; 
stroke:#000000; stroke-width:59.0551; stroke-opacity:1; 
stroke-linecap:round; stroke-linejoin:round;">
<path d="M43307 77955
L43307 78742
" />
</g>
<g style="fill:#000000; fill-opacity:0.0; 
stroke:#000000; stroke-width:39.3701; stroke-opacity:1; 
stroke-linecap:round; stroke-linejoin:round;">
</g>
<g style="fill:#000000; fill-opacity:0.0; 
stroke:#000000; stroke-width:59.0551; stroke-opacity:1; 
stroke-linecap:round; stroke-linejoin:round;">
<path d="M62992 77955
L62992 78742
" />
</g>
<g style="fill:#000000; fill-opacity:0.0; 
stroke:#000000; stroke-width:39.3701; stroke-opacity:1; 
stroke-linecap:round; stroke-linejoin:round;">
</g>
<g style="fill:#000000; fill-opacity:0.0; 
stroke:#000000; stroke-width:59.0551; stroke-opacity:1; 
stroke-linecap:round; stroke-linejoin:round;">
<path d="M82677 77955
L82677 78742
" />
</g>
<g style="fill:#000000; fill-opacity:0.0; 
stroke:#000000; stroke-width:39.3701; stroke-opacity:1; 
stroke-linecap:round; stroke-linejoin:round;">
</g>
<g style="fill:#000000; fill-opacity:0.0; 
stroke:#000000; stroke-width:59.0551; stroke-opacity:1; 
stroke-linecap:round; stroke-linejoin:round;">
<path d="M102362 77955
L102362 78742
" />
</g>
<g style="fill:#000000; fill-opacity:0.0; 
stroke:#000000; stroke-width:39.3701; stroke-opacity:1; 
stroke-linecap:round; stroke-linejoin:round;">
</g>
<g style="fill:#000000; fill-opacity:0.0; 
stroke:#000000; stroke-width:59.0551; stroke-opacity:1; 
stroke-linecap:round; stroke-linejoin:round;">
<path d="M14199 78580
L13906 78580
" />
<path d="M14052 78580
L14052 78069
L14004 78142
L13955 78190
L13906 78215
" />
</g>
<g style="fill:#000000; fill-opacity:0.0; 
stroke:#000000; stroke-width:39.3701; stroke-opacity:1; 
stroke-linecap:round; stroke-linejoin:round;">
</g>
<g style="fill:#000000; fill-opacity:0.0; 
stroke:#000000; stroke-width:59.0551; stroke-opacity:1; 
stroke-linecap:round; stroke-linejoin:round;">
<path d="M33591 78117
L33615 78093
L33664 78069
L33786 78069
L33835 78093
L33859 78117
L33884 78166
L33884 78215
L33859 78288
L33567 78580
L33884 78580
" />
</g>
<g style="fill:#000000; fill-opacity:0.0; 
stroke:#000000; stroke-width:39.3701; stroke-opacity:1; 
stroke-linecap:round; stroke-linejoin:round;">
</g>
<g style="fill:#000000; fill-opacity:0.0; 
stroke:#000000; stroke-width:59.0551; stroke-opacity:1; 
stroke-linecap:round; stroke-linejoin:round;">
<path d="M53252 78069
L53569 78069
L53398 78263
L53471 78263
L53520 78288
L53544 78312
L53569 78361
L53569 78483
L53544 78532
L53520 78556
L53471 78580
L53325 78580
L53276 78556
L53252 78532
" />
</g>
<g style="fill:#000000; fill-opacity:0.0; 
stroke:#000000; stroke-width:39.3701; stroke-opacity:1; 
stroke-linecap:round; stroke-linejoin:round;">
</g>
<g style="fill:#000000; fill-opacity:0.0; 
stroke:#000000; stroke-width:59.0551; stroke-opacity:1; 
stroke-linecap:round; stroke-linejoin:round;">
<path d="M73205 78239
L73205 78580
" />
<path d="M73083 78044
L72961 78410
L73278 78410
" />
</g>
<g style="fill:#000000; fill-opacity:0.0; 
stroke:#000000; stroke-width:39.3701; stroke-opacity:1; 
stroke-linecap:round; stroke-linejoin:round;">
</g>
<g style="fill:#000000; fill-opacity:0.0; 
stroke:#000000; stroke-width:59.0551; stroke-opacity:1; 
stroke-linecap:round; stroke-linejoin:round;">
<path d="M92914 78069
L92671 78069
L92646 78312
L92671 78288
L92719 78263
L92841 78263
L92890 78288
L92914 78312
L92939 78361
L92939 78483
L92914 78532
L92890 78556
L92841 78580
L92719 78580
L92671 78556
L92646 78532
" />
</g>
<g style="fill:#000000; fill-opacity:0.0; 
stroke:#000000; stroke-width:39.3701; stroke-opacity:1; 
stroke-linecap:round; stroke-linejoin:round;">
</g>
<g style="fill:#000000; fill-opacity:0.0; 
stroke:#000000; stroke-width:59.0551; stroke-opacity:1; 
stroke-linecap:round; stroke-linejoin:round;">
<path d="M112575 78069
L112477 78069
L112429 78093
L112404 78117
L112356 78190
L112331 78288
L112331 78483
L112356 78532
L112380 78556
L112429 78580
L112526 78580
L112575 78556
L112599 78532
L112624 78483
L112624 78361
L112599 78312
L112575 78288
L112526 78263
L112429 78263
L112380 78288
L112356 78312
L112331 78361
" />
</g>
<g style="fill:#000000; fill-opacity:0.0; 
stroke:#000000; stroke-width:39.3701; stroke-opacity:1; 
stroke-linecap:round; stroke-linejoin:round;">
</g>
<g style="fill:#000000; fill-opacity:0.0; 
stroke:#000000; stroke-width:59.0551; stroke-opacity:1; 
stroke-linecap:round; stroke-linejoin:round;">
<path d="M3937 23622
L4724 23622
" />
</g>
<g style="fill:#000000; fill-opacity:0.0; 
stroke:#000000; stroke-width:39.3701; stroke-opacity:1; 
stroke-linecap:round; stroke-linejoin:round;">
</g>
<g style="fill:#000000; fill-opacity:0.0; 
stroke:#000000; stroke-width:59.0551; stroke-opacity:1; 
stroke-linecap:round; stroke-linejoin:round;">
<path d="M3937 43307
L4724 43307
" />
</g>
<g style="fill:#000000; fill-opacity:0.0; 
stroke:#000000; stroke-width:39.3701; stroke-opacity:1; 
stroke-linecap:round; stroke-linejoin:round;">
</g>
<g style="fill:#000000; fill-opacity:0.0; 
stroke:#000000; stroke-width:59.0551; stroke-opacity:1; 
stroke-linecap:round; stroke-linejoin:round;">
<path d="M3937 62992
L4724 62992
" />
</g>
<g style="fill:#000000; fill-opacity:0.0; 
stroke:#000000; stroke-width:39.3701; stroke-opacity:1; 
stroke-linecap:round; stroke-linejoin:round;">
</g>
<g style="fill:#000000; fill-opacity:0.0; 
stroke:#000000; stroke-width:59.0551; stroke-opacity:1; 
stroke-linecap:round; stroke-linejoin:round;">
<path d="M4208 13864
L4452 13864
" />
<path d="M4160 14011
L4330 13499
L4501 14011
" />
</g>
<g style="fill:#000000; fill-opacity:0.0; 
stroke:#000000; stroke-width:39.3701; stroke-opacity:1; 
stroke-linecap:round; stroke-linejoin:round;">
</g>
<g style="fill:#000000; fill-opacity:0.0; 
stroke:#000000; stroke-width:59.0551; stroke-opacity:1; 
stroke-linecap:round; stroke-linejoin:round;">
<path d="M4367 33428
L4440 33452
L4464 33476
L4489 33525
L4489 33598
L4464 33647
L4440 33671
L4391 33696
L4196 33696
L4196 33184
L4367 33184
L4416 33208
L4440 33233
L4464 33281
L4464 33330
L4440 33379
L4416 33403
L4367 33428
L4196 33428
" />
</g>
<g style="fill:#000000; fill-opacity:0.0; 
stroke:#000000; stroke-width:39.3701; stroke-opacity:1; 
stroke-linecap:round; stroke-linejoin:round;">
</g>
<g style="fill:#000000; fill-opacity:0.0; 
stroke:#000000; stroke-width:59.0551; stroke-opacity:1; 
stroke-linecap:round; stroke-linejoin:round;">
<path d="M4489 53332
L4464 53356
L4391 53381
L4342 53381
L4269 53356
L4221 53308
L4196 53259
L4172 53161
L4172 53088
L4196 52991
L4221 52942
L4269 52893
L4342 52869
L4391 52869
L4464 52893
L4489 52918
" />
</g>
<g style="fill:#000000; fill-opacity:0.0; 
stroke:#000000; stroke-width:39.3701; stroke-opacity:1; 
stroke-linecap:round; stroke-linejoin:round;">
</g>
<g style="fill:#000000; fill-opacity:0.0; 
stroke:#000000; stroke-width:59.0551; stroke-opacity:1; 
stroke-linecap:round; stroke-linejoin:round;">
<path d="M4196 73066
L4196 72554
L4318 72554
L4391 72578
L4440 72627
L4464 72676
L4489 72773
L4489 72846
L4464 72944
L4440 72993
L4391 73041
L4318 73066
L4196 73066
" />
</g>
<g style="fill:#000000; fill-opacity:0.0; 
stroke:#000000; stroke-width:39.3701; stroke-opacity:1; 
stroke-linecap:round; stroke-linejoin:round;">
</g>
<g style="fill:#000000; fill-opacity:0.0; 
stroke:#000000; stroke-width:59.0551; stroke-opacity:1; 
stroke-linecap:round; stroke-linejoin:round;">
<path d="M112992 23622
L112205 23622
" />
</g>
<g style="fill:#000000; fill-opacity:0.0; 
stroke:#000000; stroke-width:39.3701; stroke-opacity:1; 
stroke-linecap:round; stroke-linejoin:round;">
</g>
<g style="fill:#000000; fill-opacity:0.0; 
stroke:#000000; stroke-width:59.0551; stroke-opacity:1; 
stroke-linecap:round; stroke-linejoin:round;">
<path d="M112992 43307
L112205 43307
" />
</g>
<g style="fill:#000000; fill-opacity:0.0; 
stroke:#000000; stroke-width:39.3701; stroke-opacity:1; 
stroke-linecap:round; stroke-linejoin:round;">
</g>
<g style="fill:#000000; fill-opacity:0.0; 
stroke:#000000; stroke-width:59.0551; stroke-opacity:1; 
stroke-linecap:round; stroke-linejoin:round;">
<path d="M112992 62992
L112205 62992
" />
</g>
<g style="fill:#000000; fill-opacity:0.0; 
stroke:#000000; stroke-width:39.3701; stroke-opacity:1; 
stroke-linecap:round; stroke-linejoin:round;">
</g>
<g style="fill:#000000; fill-opacity:0.0; 
stroke:#000000; stroke-width:59.0551; stroke-opacity:1; 
stroke-linecap:round; stroke-linejoin:round;">
<path d="M112477 13864
L112721 13864
" />
<path d="M112428 14011
L112599 13499
L112769 14011
" />
</g>
<g style="fill:#000000; fill-opacity:0.0; 
stroke:#000000; stroke-width:39.3701; stroke-opacity:1; 
stroke-linecap:round; stroke-linejoin:round;">
</g>
<g style="fill:#000000; fill-opacity:0.0; 
stroke:#000000; stroke-width:59.0551; stroke-opacity:1; 
stroke-linecap:round; stroke-linejoin:round;">
<path d="M112635 33428
L112708 33452
L112733 33476
L112757 33525
L112757 33598
L112733 33647
L112708 33671
L112660 33696
L112465 33696
L112465 33184
L112635 33184
L112684 33208
L112708 33233
L112733 33281
L112733 33330
L112708 33379
L112684 33403
L112635 33428
L112465 33428
" />
</g>
<g style="fill:#000000; fill-opacity:0.0; 
stroke:#000000; stroke-width:39.3701; stroke-opacity:1; 
stroke-linecap:round; stroke-linejoin:round;">
</g>
<g style="fill:#000000; fill-opacity:0.0; 
stroke:#000000; stroke-width:59.0551; stroke-opacity:1; 
stroke-linecap:round; stroke-linejoin:round;">
<path d="M112757 53332
L112733 53356
L112660 53381
L112611 53381
L112538 53356
L112489 53308
L112465 53259
L112440 53161
L112440 53088
L112465 52991
L112489 52942
L112538 52893
L112611 52869
L112660 52869
L112733 52893
L112757 52918
" />
</g>
<g style="fill:#000000; fill-opacity:0.0; 
stroke:#000000; stroke-width:39.3701; stroke-opacity:1; 
stroke-linecap:round; stroke-linejoin:round;">
</g>
<g style="fill:#000000; fill-opacity:0.0; 
stroke:#000000; stroke-width:59.0551; stroke-opacity:1; 
stroke-linecap:round; stroke-linejoin:round;">
<path d="M112465 73066
L112465 72554
L112587 72554
L112660 72578
L112708 72627
L112733 72676
L112757 72773
L112757 72846
L112733 72944
L112708 72993
L112660 73041
L112587 73066
L112465 73066
" />
</g>
<g style="fill:#000000; fill-opacity:0.0; 
stroke:#000000; stroke-width:39.3701; stroke-opacity:1; 
stroke-linecap:round; stroke-linejoin:round;">
</g>
<g style="fill:#000000; fill-opacity:0.0; 
stroke:#000000; stroke-width:59.0551; stroke-opacity:1; 
stroke-linecap:round; stroke-linejoin:round;">
<path d="M78911 76293
L78911 75703
L79051 75703
L79136 75731
L79192 75787
L79220 75843
L79248 75956
L79248 76040
L79220 76153
L79192 76209
L79136 76265
L79051 76293
L78911 76293
" />
<path d="M79754 76293
L79754 75984
L79726 75928
L79670 75899
L79557 75899
L79501 75928
" />
<path d="M79754 76265
L79698 76293
L79557 76293
L79501 76265
L79473 76209
L79473 76153
L79501 76096
L79557 76068
L79698 76068
L79754 76040
" />
<path d="M79951 75899
L80176 75899
" />
<path d="M80036 75703
L80036 76209
L80064 76265
L80120 76293
L80176 76293
" />
<path d="M80598 76265
L80542 76293
L80429 76293
L80373 76265
L80345 76209
L80345 75984
L80373 75928
L80429 75899
L80542 75899
L80598 75928
L80626 75984
L80626 76040
L80345 76096
" />
<path d="M80879 76237
L80907 76265
L80879 76293
L80851 76265
L80879 76237
L80879 76293
" />
<path d="M80879 75928
L80907 75956
L80879 75984
L80851 75956
L80879 75928
L80879 75984
" />
<path d="M81582 75759
L81610 75731
L81667 75703
L81807 75703
L81863 75731
L81892 75759
L81920 75815
L81920 75871
L81892 75956
L81554 76293
L81920 76293
" />
<path d="M82285 75703
L82341 75703
L82398 75731
L82426 75759
L82454 75815
L82482 75928
L82482 76068
L82454 76181
L82426 76237
L82398 76265
L82341 76293
L82285 76293
L82229 76265
L82201 76237
L82173 76181
L82145 76068
L82145 75928
L82173 75815
L82201 75759
L82229 75731
L82285 75703
" />
<path d="M82707 75759
L82735 75731
L82791 75703
L82932 75703
L82988 75731
L83016 75759
L83045 75815
L83045 75871
L83016 75956
L82679 76293
L83045 76293
" />
<path d="M83410 75703
L83466 75703
L83523 75731
L83551 75759
L83579 75815
L83607 75928
L83607 76068
L83579 76181
L83551 76237
L83523 76265
L83466 76293
L83410 76293
L83354 76265
L83326 76237
L83298 76181
L83269 76068
L83269 75928
L83298 75815
L83326 75759
L83354 75731
L83410 75703
" />
<path d="M83860 76068
L84310 76068
" />
<path d="M84704 75703
L84760 75703
L84816 75731
L84844 75759
L84872 75815
L84901 75928
L84901 76068
L84872 76181
L84844 76237
L84816 76265
L84760 76293
L84704 76293
L84647 76265
L84619 76237
L84591 76181
L84563 76068
L84563 75928
L84591 75815
L84619 75759
L84647 75731
L84704 75703
" />
<path d="M85238 75956
L85182 75928
L85154 75899
L85126 75843
L85126 75815
L85154 75759
L85182 75731
L85238 75703
L85350 75703
L85407 75731
L85435 75759
L85463 75815
L85463 75843
L85435 75899
L85407 75928
L85350 75956
L85238 75956
L85182 75984
L85154 76012
L85126 76068
L85126 76181
L85154 76237
L85182 76265
L85238 76293
L85350 76293
L85407 76265
L85435 76237
L85463 76181
L85463 76068
L85435 76012
L85407 75984
L85350 75956
" />
<path d="M85716 76068
L86166 76068
" />
<path d="M86419 75759
L86447 75731
L86503 75703
L86644 75703
L86700 75731
L86728 75759
L86757 75815
L86757 75871
L86728 75956
L86391 76293
L86757 76293
" />
<path d="M86953 75703
L87319 75703
L87122 75928
L87206 75928
L87263 75956
L87291 75984
L87319 76040
L87319 76181
L87291 76237
L87263 76265
L87206 76293
L87038 76293
L86982 76265
L86953 76237
" />
</g>
<g style="fill:#000000; fill-opacity:0.0; 
stroke:#000000; stroke-width:39.3701; stroke-opacity:1; 
stroke-linecap:round; stroke-linejoin:round;">
</g>
<g style="fill:#000000; fill-opacity:0.0; 
stroke:#000000; stroke-width:59.0551; stroke-opacity:1; 
stroke-linecap:round; stroke-linejoin:round;">
<path d="M69685 76577
L112205 76577
" />
</g>
<g style="fill:#000000; fill-opacity:0.0; 
stroke:#000000; stroke-width:39.3701; stroke-opacity:1; 
stroke-linecap:round; stroke-linejoin:round;">
</g>
<g style="fill:#000000; fill-opacity:0.0; 
stroke:#000000; stroke-width:59.0551; stroke-opacity:1; 
stroke-linecap:round; stroke-linejoin:round;">
<path d="M70249 77395
L70249 76805
" />
<path d="M70587 77395
L70334 77058
" />
<path d="M70587 76805
L70249 77142
" />
<path d="M70840 77395
L70840 77002
" />
<path d="M70840 76805
L70812 76833
L70840 76861
L70868 76833
L70840 76805
L70840 76861
" />
<path d="M71458 77339
L71430 77367
L71346 77395
L71290 77395
L71205 77367
L71149 77311
L71121 77255
L71093 77142
L71093 77058
L71121 76946
L71149 76889
L71205 76833
L71290 76805
L71346 76805
L71430 76833
L71458 76861
" />
<path d="M71965 77395
L71965 77086
L71937 77030
L71880 77002
L71768 77002
L71712 77030
" />
<path d="M71965 77367
L71908 77395
L71768 77395
L71712 77367
L71683 77311
L71683 77255
L71712 77199
L71768 77171
L71908 77171
L71965 77142
" />
<path d="M72499 77395
L72499 76805
" />
<path d="M72499 77367
L72443 77395
L72330 77395
L72274 77367
L72246 77339
L72218 77283
L72218 77114
L72246 77058
L72274 77030
L72330 77002
L72443 77002
L72499 77030
" />
<path d="M73230 77086
L73427 77086
" />
<path d="M73511 77395
L73230 77395
L73230 76805
L73511 76805
" />
<path d="M73764 77339
L73793 77367
L73764 77395
L73736 77367
L73764 77339
L73764 77395
" />
<path d="M74046 77395
L74046 76805
L74186 76805
L74271 76833
L74327 76889
L74355 76946
L74383 77058
L74383 77142
L74355 77255
L74327 77311
L74271 77367
L74186 77395
L74046 77395
" />
<path d="M74636 77339
L74664 77367
L74636 77395
L74608 77367
L74636 77339
L74636 77395
" />
<path d="M74889 77227
L75171 77227
" />
<path d="M74833 77395
L75030 76805
L75227 77395
" />
<path d="M75424 77339
L75452 77367
L75424 77395
L75395 77367
L75424 77339
L75424 77395
" />
<path d="M76605 77395
L76605 76805
" />
<path d="M76661 77171
L76830 77395
" />
<path d="M76830 77002
L76605 77227
" />
<path d="M77083 77395
L77083 77002
" />
<path d="M77083 76805
L77055 76833
L77083 76861
L77111 76833
L77083 76805
L77083 76861
" />
<path d="M77617 77367
L77561 77395
L77448 77395
L77392 77367
L77364 77339
L77336 77283
L77336 77114
L77364 77058
L77392 77030
L77448 77002
L77561 77002
L77617 77030
" />
<path d="M78123 77395
L78123 77086
L78095 77030
L78039 77002
L77926 77002
L77870 77030
" />
<path d="M78123 77367
L78067 77395
L77926 77395
L77870 77367
L77842 77311
L77842 77255
L77870 77199
L77926 77171
L78067 77171
L78123 77142
" />
<path d="M78658 77395
L78658 76805
" />
<path d="M78658 77367
L78601 77395
L78489 77395
L78433 77367
L78404 77339
L78376 77283
L78376 77114
L78404 77058
L78433 77030
L78489 77002
L78601 77002
L78658 77030
" />
<path d="M79557 77620
L79529 77592
L79473 77508
L79445 77452
L79417 77367
L79389 77227
L79389 77114
L79417 76974
L79445 76889
L79473 76833
L79529 76749
L79557 76721
" />
<path d="M80064 76805
L79782 76805
L79754 77086
L79782 77058
L79839 77030
L79979 77030
L80036 77058
L80064 77086
L80092 77142
L80092 77283
L80064 77339
L80036 77367
L79979 77395
L79839 77395
L79782 77367
L79754 77339
" />
<path d="M80345 77339
L80373 77367
L80345 77395
L80317 77367
L80345 77339
L80345 77395
" />
<path d="M80935 77395
L80598 77395
" />
<path d="M80767 77395
L80767 76805
L80710 76889
L80654 76946
L80598 76974
" />
<path d="M81188 77339
L81217 77367
L81188 77395
L81160 77367
L81188 77339
L81188 77395
" />
<path d="M81723 77002
L81723 77395
" />
<path d="M81582 76777
L81442 77199
L81807 77199
" />
<path d="M82032 77171
L82482 77171
" />
<path d="M82876 76805
L82932 76805
L82988 76833
L83016 76861
L83045 76917
L83073 77030
L83073 77171
L83045 77283
L83016 77339
L82988 77367
L82932 77395
L82876 77395
L82820 77367
L82791 77339
L82763 77283
L82735 77171
L82735 77030
L82763 76917
L82791 76861
L82820 76833
L82876 76805
" />
<path d="M83326 77171
L83776 77171
" />
<path d="M84366 77395
L84029 77395
" />
<path d="M84197 77395
L84197 76805
L84141 76889
L84085 76946
L84029 76974
" />
<path d="M84732 76805
L84788 76805
L84844 76833
L84872 76861
L84901 76917
L84929 77030
L84929 77171
L84901 77283
L84872 77339
L84844 77367
L84788 77395
L84732 77395
L84676 77367
L84647 77339
L84619 77283
L84591 77171
L84591 77030
L84619 76917
L84647 76861
L84676 76833
L84732 76805
" />
<path d="M85041 77452
L85491 77452
" />
<path d="M85941 77395
L85604 77395
" />
<path d="M85772 77395
L85772 76805
L85716 76889
L85660 76946
L85604 76974
" />
<path d="M86447 77002
L86447 77395
" />
<path d="M86307 76777
L86166 77199
L86532 77199
" />
<path d="M86700 77620
L86728 77592
L86785 77508
L86813 77452
L86841 77367
L86869 77227
L86869 77114
L86841 76974
L86813 76889
L86785 76833
L86728 76749
L86700 76721
" />
</g>
<g style="fill:#000000; fill-opacity:0.0; 
stroke:#000000; stroke-width:39.3701; stroke-opacity:1; 
stroke-linecap:round; stroke-linejoin:round;">
</g>
<g style="fill:#000000; fill-opacity:0.0; 
stroke:#000000; stroke-width:59.0551; stroke-opacity:1; 
stroke-linecap:round; stroke-linejoin:round;">
<path d="M69685 75396
L112205 75396
" />
</g>
<g style="fill:#000000; fill-opacity:0.0; 
stroke:#000000; stroke-width:39.3701; stroke-opacity:1; 
stroke-linecap:round; stroke-linejoin:round;">
</g>
<g style="fill:#000000; fill-opacity:0.0; 
stroke:#000000; stroke-width:118.11; stroke-opacity:1; 
stroke-linecap:round; stroke-linejoin:round;">
<path d="M104099 76293
L103902 76012
" />
<path d="M103761 76293
L103761 75703
L103986 75703
L104042 75731
L104070 75759
L104099 75815
L104099 75899
L104070 75956
L104042 75984
L103986 76012
L103761 76012
" />
<path d="M104577 76265
L104520 76293
L104408 76293
L104352 76265
L104323 76209
L104323 75984
L104352 75928
L104408 75899
L104520 75899
L104577 75928
L104605 75984
L104605 76040
L104323 76096
" />
<path d="M104802 75899
L104942 76293
L105083 75899
" />
<path d="M105308 76237
L105336 76265
L105308 76293
L105280 76265
L105308 76237
L105308 76293
" />
<path d="M105308 75928
L105336 75956
L105308 75984
L105280 75956
L105308 75928
L105308 75984
" />
<path d="M106348 76293
L106011 76293
" />
<path d="M106180 76293
L106180 75703
L106123 75787
L106067 75843
L106011 75871
" />
<path d="M106601 76237
L106629 76265
L106601 76293
L106573 76265
L106601 76237
L106601 76293
" />
<path d="M106995 75703
L107051 75703
L107108 75731
L107136 75759
L107164 75815
L107192 75928
L107192 76068
L107164 76181
L107136 76237
L107108 76265
L107051 76293
L106995 76293
L106939 76265
L106911 76237
L106883 76181
L106854 76068
L106854 75928
L106883 75815
L106911 75759
L106939 75731
L106995 75703
" />
</g>
<g style="fill:#000000; fill-opacity:0.0; 
stroke:#000000; stroke-width:39.3701; stroke-opacity:1; 
stroke-linecap:round; stroke-linejoin:round;">
</g>
<g style="fill:#000000; fill-opacity:0.0; 
stroke:#000000; stroke-width:59.0551; stroke-opacity:1; 
stroke-linecap:round; stroke-linejoin:round;">
<path d="M70221 76265
L70305 76293
L70446 76293
L70502 76265
L70530 76237
L70559 76181
L70559 76124
L70530 76068
L70502 76040
L70446 76012
L70334 75984
L70277 75956
L70249 75928
L70221 75871
L70221 75815
L70249 75759
L70277 75731
L70334 75703
L70474 75703
L70559 75731
" />
<path d="M70812 76293
L70812 75899
" />
<path d="M70812 75703
L70784 75731
L70812 75759
L70840 75731
L70812 75703
L70812 75759
" />
<path d="M71037 75899
L71346 75899
L71037 76293
L71346 76293
" />
<path d="M71796 76265
L71740 76293
L71627 76293
L71571 76265
L71543 76209
L71543 75984
L71571 75928
L71627 75899
L71740 75899
L71796 75928
L71824 75984
L71824 76040
L71543 76096
" />
<path d="M72077 76237
L72105 76265
L72077 76293
L72049 76265
L72077 76237
L72077 76293
" />
<path d="M72077 75928
L72105 75956
L72077 75984
L72049 75956
L72077 75928
L72077 75984
" />
<path d="M72780 76124
L73061 76124
" />
<path d="M72724 76293
L72921 75703
L73118 76293
" />
<path d="M73568 75899
L73568 76293
" />
<path d="M73427 75674
L73286 76096
L73652 76096
" />
</g>
<g style="fill:#000000; fill-opacity:0.0; 
stroke:#000000; stroke-width:39.3701; stroke-opacity:1; 
stroke-linecap:round; stroke-linejoin:round;">
</g>
<g style="fill:#000000; fill-opacity:0.0; 
stroke:#000000; stroke-width:59.0551; stroke-opacity:1; 
stroke-linecap:round; stroke-linejoin:round;">
<path d="M103714 77395
L103714 76805
" />
<path d="M104248 77395
L104248 76805
" />
<path d="M104248 77367
L104192 77395
L104079 77395
L104023 77367
L103995 77339
L103967 77283
L103967 77114
L103995 77058
L104023 77030
L104079 77002
L104192 77002
L104248 77030
" />
<path d="M104529 77339
L104557 77367
L104529 77395
L104501 77367
L104529 77339
L104529 77395
" />
<path d="M104529 77030
L104557 77058
L104529 77086
L104501 77058
L104529 77030
L104529 77086
" />
<path d="M105570 77395
L105232 77395
" />
<path d="M105401 77395
L105401 76805
L105345 76889
L105289 76946
L105232 76974
" />
<path d="M106245 76777
L105739 77536
" />
<path d="M106751 77395
L106413 77395
" />
<path d="M106582 77395
L106582 76805
L106526 76889
L106470 76946
L106413 76974
" />
</g>
<g style="fill:#000000; fill-opacity:0.0; 
stroke:#000000; stroke-width:39.3701; stroke-opacity:1; 
stroke-linecap:round; stroke-linejoin:round;">
</g>
<g style="fill:#000000; fill-opacity:0.0; 
stroke:#000000; stroke-width:59.0551; stroke-opacity:1; 
stroke-linecap:round; stroke-linejoin:round;">
<path d="M69685 73821
L112205 73821
" />
</g>
<g style="fill:#000000; fill-opacity:0.0; 
stroke:#000000; stroke-width:39.3701; stroke-opacity:1; 
stroke-linecap:round; stroke-linejoin:round;">
</g>
<g style="fill:#000000; fill-opacity:0.0; 
stroke:#000000; stroke-width:157.48; stroke-opacity:1; 
stroke-linecap:round; stroke-linejoin:round;">
<path d="M70360 74099
L70810 74099
" />
<path d="M70486 74886
L70585 74099
" />
<path d="M70974 74886
L71039 74361
" />
<path d="M71072 74099
L71030 74136
L71063 74174
L71105 74136
L71072 74099
L71063 74174
" />
<path d="M71302 74361
L71602 74361
" />
<path d="M71447 74099
L71363 74774
L71391 74849
L71461 74886
L71536 74886
" />
<path d="M71911 74886
L71841 74849
L71813 74774
L71897 74099
" />
<path d="M72516 74849
L72436 74886
L72286 74886
L72216 74849
L72187 74774
L72225 74474
L72272 74399
L72352 74361
L72501 74361
L72572 74399
L72600 74474
L72591 74549
L72206 74624
" />
<path d="M72895 74811
L72928 74849
L72886 74886
L72853 74849
L72895 74811
L72886 74886
" />
<path d="M72947 74399
L72980 74436
L72937 74474
L72905 74436
L72947 74399
L72937 74474
" />
<path d="M73828 74849
L73936 74886
L74123 74886
L74203 74849
L74245 74811
L74292 74736
L74301 74661
L74273 74586
L74240 74549
L74170 74511
L74025 74474
L73954 74436
L73922 74399
L73894 74324
L73903 74249
L73950 74174
L73992 74136
L74072 74099
L74259 74099
L74367 74136
" />
<path d="M74953 74849
L74873 74886
L74723 74886
L74653 74849
L74620 74811
L74592 74736
L74620 74511
L74667 74436
L74709 74399
L74789 74361
L74939 74361
L75009 74399
" />
<path d="M75286 74886
L75384 74099
" />
<path d="M75623 74886
L75675 74474
L75646 74399
L75576 74361
L75464 74361
L75384 74399
L75342 74436
" />
<path d="M75989 74361
L76073 74886
L76270 74511
L76373 74886
L76588 74361
" />
<path d="M77226 74361
L77160 74886
" />
<path d="M76888 74361
L76837 74774
L76865 74849
L76935 74886
L77048 74886
L77127 74849
L77170 74811
" />
<path d="M77535 74886
L77601 74361
" />
<path d="M77582 74511
L77629 74436
L77671 74399
L77751 74361
L77826 74361
" />
<path d="M78023 74886
L78121 74099
" />
<path d="M78084 74399
L78163 74361
L78313 74361
L78384 74399
L78416 74436
L78444 74511
L78416 74736
L78370 74811
L78327 74849
L78248 74886
L78098 74886
L78027 74849
" />
<path d="M78848 74886
L78777 74849
L78749 74774
L78834 74099
" />
<path d="M79452 74849
L79373 74886
L79223 74886
L79152 74849
L79124 74774
L79162 74474
L79208 74399
L79288 74361
L79438 74361
L79508 74399
L79537 74474
L79527 74549
L79143 74624
" />
<path d="M79822 74886
L79888 74361
" />
<path d="M79869 74511
L79916 74436
L79958 74399
L80038 74361
L80113 74361
" />
<path d="M80947 74586
L81547 74586
" />
<path d="M82485 74886
L82583 74099
L82775 74661
L83108 74099
L83010 74886
" />
<path d="M83370 74099
L83534 74886
L83895 74099
" />
<path d="M84059 74886
L84158 74099
L84458 74099
L84528 74136
L84561 74174
L84589 74249
L84575 74361
L84528 74436
L84486 74474
L84406 74511
L84106 74511
" />
</g>
<g style="fill:#000000; fill-opacity:0.0; 
stroke:#000000; stroke-width:39.3701; stroke-opacity:1; 
stroke-linecap:round; stroke-linejoin:round;">
</g>
<g style="fill:#000000; fill-opacity:0.0; 
stroke:#000000; stroke-width:59.0551; stroke-opacity:1; 
stroke-linecap:round; stroke-linejoin:round;">
<path d="M70446 73070
L70249 73070
" />
<path d="M70249 73380
L70249 72789
L70530 72789
" />
<path d="M70755 73380
L70755 72986
" />
<path d="M70755 72789
L70727 72817
L70755 72845
L70784 72817
L70755 72789
L70755 72845
" />
<path d="M71121 73380
L71065 73352
L71037 73295
L71037 72789
" />
<path d="M71571 73352
L71515 73380
L71402 73380
L71346 73352
L71318 73295
L71318 73070
L71346 73014
L71402 72986
L71515 72986
L71571 73014
L71599 73070
L71599 73127
L71318 73183
" />
<path d="M71852 73323
L71880 73352
L71852 73380
L71824 73352
L71852 73323
L71852 73380
" />
<path d="M71852 73014
L71880 73042
L71852 73070
L71824 73042
L71852 73014
L71852 73070
" />
<path d="M72499 72986
L72724 72986
" />
<path d="M72583 72789
L72583 73295
L72611 73352
L72668 73380
L72724 73380
" />
<path d="M72921 73380
L72921 72789
" />
<path d="M73174 73380
L73174 73070
L73146 73014
L73090 72986
L73005 72986
L72949 73014
L72921 73042
" />
<path d="M73680 73352
L73624 73380
L73511 73380
L73455 73352
L73427 73295
L73427 73070
L73455 73014
L73511 72986
L73624 72986
L73680 73014
L73708 73070
L73708 73127
L73427 73183
" />
<path d="M73821 73436
L74271 73436
" />
<path d="M74411 73380
L74411 72986
" />
<path d="M74411 73042
L74439 73014
L74496 72986
L74580 72986
L74636 73014
L74664 73070
L74664 73380
" />
<path d="M74664 73070
L74692 73014
L74749 72986
L74833 72986
L74889 73014
L74917 73070
L74917 73380
" />
<path d="M75142 72986
L75283 73380
L75424 72986
" />
<path d="M75649 72986
L75649 73577
" />
<path d="M75649 73014
L75705 72986
L75817 72986
L75874 73014
L75902 73042
L75930 73099
L75930 73267
L75902 73323
L75874 73352
L75817 73380
L75705 73380
L75649 73352
" />
<path d="M76183 73323
L76211 73352
L76183 73380
L76155 73352
L76183 73323
L76183 73380
" />
<path d="M76464 73380
L76464 72789
" />
<path d="M76520 73155
L76689 73380
" />
<path d="M76689 72986
L76464 73211
" />
<path d="M76942 73380
L76942 72986
" />
<path d="M76942 72789
L76914 72817
L76942 72845
L76970 72817
L76942 72789
L76942 72845
" />
<path d="M77476 73352
L77420 73380
L77308 73380
L77251 73352
L77223 73323
L77195 73267
L77195 73099
L77223 73042
L77251 73014
L77308 72986
L77420 72986
L77476 73014
" />
<path d="M77983 73380
L77983 73070
L77955 73014
L77898 72986
L77786 72986
L77730 73014
" />
<path d="M77983 73352
L77926 73380
L77786 73380
L77730 73352
L77701 73295
L77701 73239
L77730 73183
L77786 73155
L77926 73155
L77983 73127
" />
<path d="M78517 73380
L78517 72789
" />
<path d="M78517 73352
L78461 73380
L78348 73380
L78292 73352
L78264 73323
L78236 73267
L78236 73099
L78264 73042
L78292 73014
L78348 72986
L78461 72986
L78517 73014
" />
<path d="M78658 73436
L79108 73436
" />
<path d="M79248 72986
L79248 73577
" />
<path d="M79248 73014
L79304 72986
L79417 72986
L79473 73014
L79501 73042
L79529 73099
L79529 73267
L79501 73323
L79473 73352
L79417 73380
L79304 73380
L79248 73352
" />
<path d="M80036 73352
L79979 73380
L79867 73380
L79811 73352
L79782 73323
L79754 73267
L79754 73099
L79782 73042
L79811 73014
L79867 72986
L79979 72986
L80036 73014
" />
<path d="M80289 73380
L80289 72789
" />
<path d="M80289 73014
L80345 72986
L80457 72986
L80514 73014
L80542 73042
L80570 73099
L80570 73267
L80542 73323
L80514 73352
L80457 73380
L80345 73380
L80289 73352
" />
</g>
<g style="fill:#000000; fill-opacity:0.0; 
stroke:#000000; stroke-width:39.3701; stroke-opacity:1; 
stroke-linecap:round; stroke-linejoin:round;">
</g>
<g style="fill:#000000; fill-opacity:0.0; 
stroke:#000000; stroke-width:59.0551; stroke-opacity:1; 
stroke-linecap:round; stroke-linejoin:round;">
<path d="M69685 71459
L112205 71459
" />
</g>
<g style="fill:#000000; fill-opacity:0.0; 
stroke:#000000; stroke-width:39.3701; stroke-opacity:1; 
stroke-linecap:round; stroke-linejoin:round;">
</g>
<g style="fill:#000000; fill-opacity:0.0; 
stroke:#000000; stroke-width:59.0551; stroke-opacity:1; 
stroke-linecap:round; stroke-linejoin:round;">
<path d="M70221 72289
L70305 72317
L70446 72317
L70502 72289
L70530 72260
L70559 72204
L70559 72148
L70530 72092
L70502 72064
L70446 72036
L70334 72007
L70277 71979
L70249 71951
L70221 71895
L70221 71839
L70249 71782
L70277 71754
L70334 71726
L70474 71726
L70559 71754
" />
<path d="M70812 72317
L70812 71726
" />
<path d="M71065 72317
L71065 72007
L71037 71951
L70980 71923
L70896 71923
L70840 71951
L70812 71979
" />
<path d="M71571 72289
L71515 72317
L71402 72317
L71346 72289
L71318 72232
L71318 72007
L71346 71951
L71402 71923
L71515 71923
L71571 71951
L71599 72007
L71599 72064
L71318 72120
" />
<path d="M72077 72289
L72021 72317
L71908 72317
L71852 72289
L71824 72232
L71824 72007
L71852 71951
L71908 71923
L72021 71923
L72077 71951
L72105 72007
L72105 72064
L71824 72120
" />
<path d="M72274 71923
L72499 71923
" />
<path d="M72358 71726
L72358 72232
L72386 72289
L72443 72317
L72499 72317
" />
<path d="M72696 72260
L72724 72289
L72696 72317
L72668 72289
L72696 72260
L72696 72317
" />
<path d="M72696 71951
L72724 71979
L72696 72007
L72668 71979
L72696 71951
L72696 72007
" />
</g>
<g style="fill:#000000; fill-opacity:0.0; 
stroke:#000000; stroke-width:39.3701; stroke-opacity:1; 
stroke-linecap:round; stroke-linejoin:round;">
</g>
<g style="fill:#000000; fill-opacity:0.0; 
stroke:#000000; stroke-width:118.11; stroke-opacity:1; 
stroke-linecap:round; stroke-linejoin:round;">
<path d="M70296 71136
L70296 70545
" />
<path d="M70296 70826
L70634 70826
" />
<path d="M70634 71136
L70634 70545
" />
<path d="M71168 71136
L71168 70826
L71140 70770
L71084 70742
L70971 70742
L70915 70770
" />
<path d="M71168 71108
L71112 71136
L70971 71136
L70915 71108
L70887 71051
L70887 70995
L70915 70939
L70971 70911
L71112 70911
L71168 70883
" />
<path d="M71449 70742
L71449 71332
" />
<path d="M71449 70770
L71506 70742
L71618 70742
L71674 70770
L71703 70798
L71731 70854
L71731 71023
L71703 71079
L71674 71108
L71618 71136
L71506 71136
L71449 71108
" />
<path d="M71984 70742
L71984 71332
" />
<path d="M71984 70770
L72040 70742
L72153 70742
L72209 70770
L72237 70798
L72265 70854
L72265 71023
L72237 71079
L72209 71108
L72153 71136
L72040 71136
L71984 71108
" />
<path d="M72462 70742
L72602 71136
" />
<path d="M72743 70742
L72602 71136
L72546 71276
L72518 71304
L72462 71332
" />
<path d="M73390 71108
L73474 71136
L73615 71136
L73671 71108
L73699 71079
L73727 71023
L73727 70967
L73699 70911
L73671 70883
L73615 70854
L73502 70826
L73446 70798
L73418 70770
L73390 70714
L73390 70658
L73418 70601
L73446 70573
L73502 70545
L73643 70545
L73727 70573
" />
<path d="M73980 71136
L73980 70545
" />
<path d="M74233 71136
L74233 70826
L74205 70770
L74149 70742
L74065 70742
L74009 70770
L73980 70798
" />
<path d="M74599 71136
L74543 71108
L74515 71079
L74487 71023
L74487 70854
L74515 70798
L74543 70770
L74599 70742
L74683 70742
L74740 70770
L74768 70798
L74796 70854
L74796 71023
L74768 71079
L74740 71108
L74683 71136
L74599 71136
" />
<path d="M75133 71136
L75077 71108
L75049 71079
L75021 71023
L75021 70854
L75049 70798
L75077 70770
L75133 70742
L75218 70742
L75274 70770
L75302 70798
L75330 70854
L75330 71023
L75302 71079
L75274 71108
L75218 71136
L75133 71136
" />
<path d="M75499 70742
L75724 70742
" />
<path d="M75583 70545
L75583 71051
L75611 71108
L75668 71136
L75724 71136
" />
<path d="M75921 71136
L75921 70742
" />
<path d="M75921 70545
L75893 70573
L75921 70601
L75949 70573
L75921 70545
L75921 70601
" />
<path d="M76202 70742
L76202 71136
" />
<path d="M76202 70798
L76230 70770
L76286 70742
L76371 70742
L76427 70770
L76455 70826
L76455 71136
" />
<path d="M76989 70742
L76989 71220
L76961 71276
L76933 71304
L76877 71332
L76793 71332
L76736 71304
" />
<path d="M76989 71108
L76933 71136
L76821 71136
L76764 71108
L76736 71079
L76708 71023
L76708 70854
L76736 70798
L76764 70770
L76821 70742
L76933 70742
L76989 70770
" />
<path d="M78058 71079
L78030 71108
L77946 71136
L77889 71136
L77805 71108
L77749 71051
L77721 70995
L77692 70883
L77692 70798
L77721 70686
L77749 70629
L77805 70573
L77889 70545
L77946 70545
L78030 70573
L78058 70601
" />
<path d="M78395 71136
L78339 71108
L78311 71079
L78283 71023
L78283 70854
L78311 70798
L78339 70770
L78395 70742
L78480 70742
L78536 70770
L78564 70798
L78592 70854
L78592 71023
L78564 71079
L78536 71108
L78480 71136
L78395 71136
" />
<path d="M78845 71136
L78845 70742
" />
<path d="M78845 70798
L78874 70770
L78930 70742
L79014 70742
L79070 70770
L79099 70826
L79099 71136
" />
<path d="M79099 70826
L79127 70770
L79183 70742
L79267 70742
L79323 70770
L79352 70826
L79352 71136
" />
<path d="M79633 71136
L79633 70742
" />
<path d="M79633 70798
L79661 70770
L79717 70742
L79802 70742
L79858 70770
L79886 70826
L79886 71136
" />
<path d="M79886 70826
L79914 70770
L79970 70742
L80055 70742
L80111 70770
L80139 70826
L80139 71136
" />
<path d="M80673 70742
L80673 71136
" />
<path d="M80420 70742
L80420 71051
L80448 71108
L80505 71136
L80589 71136
L80645 71108
L80673 71079
" />
<path d="M80955 70742
L80955 71136
" />
<path d="M80955 70798
L80983 70770
L81039 70742
L81123 70742
L81180 70770
L81208 70826
L81208 71136
" />
<path d="M81489 71136
L81489 70742
" />
<path d="M81489 70545
L81461 70573
L81489 70601
L81517 70573
L81489 70545
L81489 70601
" />
<path d="M81686 70742
L81911 70742
" />
<path d="M81770 70545
L81770 71051
L81798 71108
L81854 71136
L81911 71136
" />
<path d="M82051 70742
L82192 71136
" />
<path d="M82332 70742
L82192 71136
L82136 71276
L82108 71304
L82051 71332
" />
</g>
<g style="fill:#000000; fill-opacity:0.0; 
stroke:#000000; stroke-width:39.3701; stroke-opacity:1; 
stroke-linecap:round; stroke-linejoin:round;">
</g>
<g style="fill:#000000; fill-opacity:0.0; 
stroke:#000000; stroke-width:59.0551; stroke-opacity:1; 
stroke-linecap:round; stroke-linejoin:round;">
<path d="M77559 75396
L77559 76577
" />
</g>
<g style="fill:#000000; fill-opacity:0.0; 
stroke:#000000; stroke-width:39.3701; stroke-opacity:1; 
stroke-linecap:round; stroke-linejoin:round;">
</g>
<g style="fill:#000000; fill-opacity:0.0; 
stroke:#000000; stroke-width:59.0551; stroke-opacity:1; 
stroke-linecap:round; stroke-linejoin:round;">
<path d="M102756 75396
L102756 77955
" />
</g>
<g style="fill:#000000; fill-opacity:0.0; 
stroke:#000000; stroke-width:39.3701; stroke-opacity:1; 
stroke-linecap:round; stroke-linejoin:round;">
<circle cx="55450.5" cy="20785.8" r="793.529" /> 
<path d="M56631 19604
L55450 19604
" />
<path d="M56631 21966
L56631 19604
" />
<path d="M54269 21966
L56631 21966
" />
<path d="M54269 19604
L54269 21966
" />
<path d="M55450 19604
L54269 19604
" />
<circle cx="55450.5" cy="16585.8" r="793.529" /> 
<path d="M56631 15404
L55450 15404
" />
<path d="M56631 17766
L56631 15404
" />
<path d="M54269 17766
L56631 17766
" />
<path d="M54269 15404
L54269 17766
" />
<path d="M55450 15404
L54269 15404
" />
<circle cx="62350.5" cy="16585.8" r="793.529" /> 
<path d="M63531 15404
L62350 15404
" />
<path d="M63531 17766
L63531 15404
" />
<path d="M61169 17766
L63531 17766
" />
<path d="M61169 15404
L61169 17766
" />
<path d="M62350 15404
L61169 15404
" />
<path d="M51318 26041
L55570 26041
" />
<path d="M51318 32695
L51318 26041
" />
<path d="M55570 32695
L51318 32695
" />
<circle cx="55570.9" cy="29368.5" r="787.402" /> 
<circle cx="55570.9" cy="29368.5" r="3326.77" /> 
<path d="M71018 31841
L75270 31841
" />
<path d="M71018 38495
L71018 31841
" />
<path d="M75270 38495
L71018 38495
" />
<circle cx="75270.9" cy="35168.5" r="787.402" /> 
<circle cx="75270.9" cy="35168.5" r="3326.77" /> 
<path d="M71018 24641
L75270 24641
" />
<path d="M71018 31295
L71018 24641
" />
<path d="M75270 31295
L71018 31295
" />
<circle cx="75270.9" cy="27968.5" r="787.402" /> 
<circle cx="75270.9" cy="27968.5" r="3326.77" /> 
<path d="M71018 17341
L75270 17341
" />
<path d="M71018 23995
L71018 17341
" />
<path d="M75270 23995
L71018 23995
" />
<circle cx="75270.9" cy="20668.5" r="787.402" /> 
<circle cx="75270.9" cy="20668.5" r="3326.77" /> 
<path d="M71018 10041
L75270 10041
" />
<path d="M71018 16695
L71018 10041
" />
<path d="M75270 16695
L71018 16695
" />
<circle cx="75270.9" cy="13368.5" r="787.402" /> 
<circle cx="75270.9" cy="13368.5" r="3326.77" /> 
<path d="M87741 38608
L83489 38608
" />
<path d="M87741 31954
L87741 38608
" />
<path d="M83489 31954
L87741 31954
" />
<circle cx="83489.1" cy="35281.5" r="787.402" /> 
<circle cx="83489.1" cy="35281.5" r="3326.77" /> 
<path d="M87741 31108
L83489 31108
" />
<path d="M87741 24454
L87741 31108
" />
<path d="M83489 24454
L87741 24454
" />
<circle cx="83489.1" cy="27781.5" r="787.402" /> 
<circle cx="83489.1" cy="27781.5" r="3326.77" /> 
<path d="M87741 23858
L83489 23858
" />
<path d="M87741 17204
L87741 23858
" />
<path d="M83489 17204
L87741 17204
" />
<circle cx="83489.1" cy="20531.5" r="787.402" /> 
<circle cx="83489.1" cy="20531.5" r="3326.77" /> 
<path d="M87741 16608
L83489 16608
" />
<path d="M87741 9954
L87741 16608
" />
<path d="M83489 9954
L87741 9954
" />
<circle cx="83489.1" cy="13281.5" r="787.402" /> 
<circle cx="83489.1" cy="13281.5" r="3326.77" /> 
<circle cx="93209.5" cy="34985.8" r="793.529" /> 
<path d="M94390 33804
L93209 33804
" />
<path d="M94390 36166
L94390 33804
" />
<path d="M92028 36166
L94390 36166
" />
<path d="M92028 33804
L92028 36166
" />
<path d="M93209 33804
L92028 33804
" />
<circle cx="93209.5" cy="27614.2" r="793.529" /> 
<path d="M92028 28795
L93209 28795
" />
<path d="M92028 26433
L92028 28795
" />
<path d="M94390 26433
L92028 26433
" />
<path d="M94390 28795
L94390 26433
" />
<path d="M93209 28795
L94390 28795
" />
<circle cx="93250.5" cy="20385.8" r="793.529" /> 
<path d="M94431 19204
L93250 19204
" />
<path d="M94431 21566
L94431 19204
" />
<path d="M92069 21566
L94431 21566
" />
<path d="M92069 19204
L92069 21566
" />
<path d="M93250 19204
L92069 19204
" />
<circle cx="93209.5" cy="12914.2" r="793.529" /> 
<path d="M92028 14095
L93209 14095
" />
<path d="M92028 11733
L92028 14095
" />
<path d="M94390 11733
L92028 11733
" />
<path d="M94390 14095
L94390 11733
" />
<path d="M93209 14095
L94390 14095
" />
<circle cx="43950.5" cy="30385.8" r="793.529" /> 
<path d="M45131 29204
L43950 29204
" />
<path d="M45131 31566
L45131 29204
" />
<path d="M42769 31566
L45131 31566
" />
<path d="M42769 29204
L42769 31566
" />
<path d="M43950 29204
L42769 29204
" />
<circle cx="48650.5" cy="20785.8" r="793.529" /> 
<path d="M49831 19604
L48650 19604
" />
<path d="M49831 21966
L49831 19604
" />
<path d="M47469 21966
L49831 21966
" />
<path d="M47469 19604
L47469 21966
" />
<path d="M48650 19604
L47469 19604
" />
<circle cx="48550.5" cy="16585.8" r="793.529" /> 
<path d="M49731 15404
L48550 15404
" />
<path d="M49731 17766
L49731 15404
" />
<path d="M47369 17766
L49731 17766
" />
<path d="M47369 15404
L47369 17766
" />
<path d="M48550 15404
L47369 15404
" />
<circle cx="48550.5" cy="12185.8" r="793.529" /> 
<path d="M49731 11004
L48550 11004
" />
<path d="M49731 13366
L49731 11004
" />
<path d="M47369 13366
L49731 13366
" />
<path d="M47369 11004
L47369 13366
" />
<path d="M48550 11004
L47369 11004
" />
<circle cx="55450.5" cy="12185.8" r="793.529" /> 
<path d="M56631 11004
L55450 11004
" />
<path d="M56631 13366
L56631 11004
" />
<path d="M54269 13366
L56631 13366
" />
<path d="M54269 11004
L54269 13366
" />
<path d="M55450 11004
L54269 11004
" />
<circle cx="62450.5" cy="20785.8" r="793.529" /> 
<path d="M63631 19604
L62450 19604
" />
<path d="M63631 21966
L63631 19604
" />
<path d="M61269 21966
L63631 21966
" />
<path d="M61269 19604
L61269 21966
" />
<path d="M62450 19604
L61269 19604
" />
<circle cx="62250.5" cy="12185.8" r="793.529" /> 
<path d="M63431 11004
L62250 11004
" />
<path d="M63431 13366
L63431 11004
" />
<path d="M61069 13366
L63431 13366
" />
<path d="M61069 11004
L61069 13366
" />
<path d="M62250 11004
L61069 11004
" />
<g >
</g>
<g >
</g>
<g >
</g>
<g >
</g>
<g >
</g>
<g >
</g>
<g >
</g>
<g >
</g>
<g >
</g>
<g >
</g>
<g >
</g>
<g >
</g>
<g >
</g>
<g >
</g>
<g >
</g>
<g >
</g>
<g >
</g>
<g >
</g>
<g >
</g>
<g >
</g>
<g >
</g>
<g >
</g>
<g >
</g>
<g >
</g>
<g >
</g>
<g >
</g>
<g >
</g>
<g >
</g>
</g>
<g style="fill:#000000; fill-opacity:0.0; 
stroke:#000000; stroke-width:39.3701; stroke-opacity:1; 
stroke-linecap:round; stroke-linejoin:round;">
</g>
<g style="fill:#000000; fill-opacity:0.0; 
stroke:#000000; stroke-width:59.0551; stroke-opacity:1; 
stroke-linecap:round; stroke-linejoin:round;">
<path d="M30445 27105
L30445 26881
" />
<path d="M30051 26993
L30445 26993
" />
<path d="M30070 26599
L30051 26637
L30051 26712
L30070 26749
L30108 26768
L30258 26768
L30295 26749
L30314 26712
L30314 26637
L30295 26599
L30258 26581
L30220 26581
L30183 26768
" />
<path d="M30070 26262
L30051 26299
L30051 26374
L30070 26412
L30108 26431
L30258 26431
L30295 26412
L30314 26374
L30314 26299
L30295 26262
L30258 26243
L30220 26243
L30183 26431
" />
<path d="M30314 26074
L30051 26074
" />
<path d="M30276 26074
L30295 26056
L30314 26018
L30314 25962
L30295 25924
L30258 25906
L30051 25906
" />
<path d="M30070 25737
L30051 25699
L30051 25624
L30070 25587
L30108 25568
L30126 25568
L30164 25587
L30183 25624
L30183 25681
L30201 25718
L30239 25737
L30258 25737
L30295 25718
L30314 25681
L30314 25624
L30295 25587
" />
<path d="M30314 25437
L30051 25343
" />
<path d="M30314 25249
L30051 25343
L29958 25381
L29939 25399
L29920 25437
" />
<path d="M30051 24912
L30051 25100
L30445 25100
" />
<path d="M30089 24556
L30070 24575
L30051 24631
L30051 24668
L30070 24725
L30108 24762
L30145 24781
L30220 24800
L30276 24800
L30351 24781
L30389 24762
L30426 24725
L30445 24668
L30445 24631
L30426 24575
L30408 24556
" />
<path d="M30201 24387
L30201 24087
" />
<path d="M30314 23731
L30051 23731
" />
<path d="M30464 23825
L30183 23918
L30183 23675
" />
<path d="M30089 23525
L30070 23506
L30051 23525
L30070 23543
L30089 23525
L30051 23525
" />
<path d="M30051 23131
L30051 23356
" />
<path d="M30051 23243
L30445 23243
L30389 23281
L30351 23318
L30333 23356
" />
<path d="M55609 20757
L55553 20776
L55534 20795
L55516 20832
L55516 20888
L55534 20926
L55553 20945
L55591 20963
L55741 20963
L55741 20570
L55609 20570
L55572 20588
L55553 20607
L55534 20645
L55534 20682
L55553 20720
L55572 20738
L55609 20757
L55741 20757
" />
<path d="M55178 20570
L55253 20570
L55291 20588
L55309 20607
L55347 20663
L55366 20738
L55366 20888
L55347 20926
L55328 20945
L55291 20963
L55216 20963
L55178 20945
L55159 20926
L55141 20888
L55141 20795
L55159 20757
L55178 20738
L55216 20720
L55291 20720
L55328 20738
L55347 20757
L55366 20795
" />
<path d="M55609 16557
L55553 16576
L55534 16595
L55516 16632
L55516 16688
L55534 16726
L55553 16745
L55591 16763
L55741 16763
L55741 16370
L55609 16370
L55572 16388
L55553 16407
L55534 16445
L55534 16482
L55553 16520
L55572 16538
L55609 16557
L55741 16557
" />
<path d="M55159 16370
L55347 16370
L55366 16557
L55347 16538
L55309 16520
L55216 16520
L55178 16538
L55159 16557
L55141 16595
L55141 16688
L55159 16726
L55178 16745
L55216 16763
L55309 16763
L55347 16745
L55366 16726
" />
<path d="M62509 16557
L62453 16576
L62434 16595
L62416 16632
L62416 16688
L62434 16726
L62453 16745
L62491 16763
L62641 16763
L62641 16370
L62509 16370
L62472 16388
L62453 16407
L62434 16445
L62434 16482
L62453 16520
L62472 16538
L62509 16557
L62641 16557
" />
<path d="M62266 16407
L62247 16388
L62209 16370
L62116 16370
L62078 16388
L62059 16407
L62041 16445
L62041 16482
L62059 16538
L62284 16763
L62041 16763
" />
<path d="M27548 11331
L27548 10937
L27417 11219
L27286 10937
L27286 11331
" />
<path d="M27136 10937
L26892 10937
L27023 11087
L26967 11087
L26930 11106
L26911 11125
L26892 11162
L26892 11256
L26911 11294
L26930 11312
L26967 11331
L27080 11331
L27117 11312
L27136 11294
" />
<path d="M53964 28578
L54189 28578
" />
<path d="M54076 28578
L54076 28184
L54114 28240
L54151 28278
L54189 28296
" />
<path d="M53720 28184
L53683 28184
L53645 28203
L53626 28221
L53608 28259
L53589 28334
L53589 28428
L53608 28503
L53626 28540
L53645 28559
L53683 28578
L53720 28578
L53758 28559
L53776 28540
L53795 28503
L53814 28428
L53814 28334
L53795 28259
L53776 28221
L53758 28203
L53720 28184
" />
<path d="M53420 28578
L53420 28184
" />
<path d="M53383 28428
L53270 28578
" />
<path d="M53270 28315
L53420 28465
" />
<path d="M51534 29612
L51722 29743
" />
<path d="M51534 29837
L51928 29837
L51928 29687
L51909 29649
L51890 29630
L51853 29612
L51797 29612
L51759 29630
L51740 29649
L51722 29687
L51722 29837
" />
<path d="M51740 29443
L51740 29312
" />
<path d="M51534 29256
L51534 29443
L51928 29443
L51928 29256
" />
<path d="M51534 29068
L51534 28993
L51553 28956
L51572 28937
L51628 28899
L51703 28881
L51853 28881
L51890 28899
L51909 28918
L51928 28956
L51928 29031
L51909 29068
L51890 29087
L51853 29106
L51759 29106
L51722 29087
L51703 29068
L51684 29031
L51684 28956
L51703 28918
L51722 28899
L51759 28881
" />
<path d="M73064 35378
L73289 35378
" />
<path d="M73176 35378
L73176 34984
L73214 35040
L73251 35078
L73289 35096
" />
<path d="M72820 34984
L72783 34984
L72745 35003
L72726 35021
L72708 35059
L72689 35134
L72689 35228
L72708 35303
L72726 35340
L72745 35359
L72783 35378
L72820 35378
L72858 35359
L72876 35340
L72895 35303
L72914 35228
L72914 35134
L72895 35059
L72876 35021
L72858 35003
L72820 34984
" />
<path d="M72520 35378
L72520 34984
" />
<path d="M72483 35228
L72370 35378
" />
<path d="M72370 35115
L72520 35265
" />
<path d="M71234 35412
L71422 35543
" />
<path d="M71234 35637
L71628 35637
L71628 35487
L71609 35449
L71590 35430
L71553 35412
L71497 35412
L71459 35430
L71440 35449
L71422 35487
L71422 35637
" />
<path d="M71440 35243
L71440 35112
" />
<path d="M71234 35056
L71234 35243
L71628 35243
L71628 35056
" />
<path d="M71459 34831
L71478 34868
L71497 34887
L71534 34906
L71553 34906
L71590 34887
L71609 34868
L71628 34831
L71628 34756
L71609 34718
L71590 34699
L71553 34681
L71534 34681
L71497 34699
L71478 34718
L71459 34756
L71459 34831
L71440 34868
L71422 34887
L71384 34906
L71309 34906
L71272 34887
L71253 34868
L71234 34831
L71234 34756
L71253 34718
L71272 34699
L71309 34681
L71384 34681
L71422 34699
L71440 34718
L71459 34756
" />
<path d="M72964 27978
L73189 27978
" />
<path d="M73076 27978
L73076 27584
L73114 27640
L73151 27678
L73189 27696
" />
<path d="M72720 27584
L72683 27584
L72645 27603
L72626 27621
L72608 27659
L72589 27734
L72589 27828
L72608 27903
L72626 27940
L72645 27959
L72683 27978
L72720 27978
L72758 27959
L72776 27940
L72795 27903
L72814 27828
L72814 27734
L72795 27659
L72776 27621
L72758 27603
L72720 27584
" />
<path d="M72420 27978
L72420 27584
" />
<path d="M72383 27828
L72270 27978
" />
<path d="M72270 27715
L72420 27865
" />
<path d="M71234 28212
L71422 28343
" />
<path d="M71234 28437
L71628 28437
L71628 28287
L71609 28249
L71590 28230
L71553 28212
L71497 28212
L71459 28230
L71440 28249
L71422 28287
L71422 28437
" />
<path d="M71440 28043
L71440 27912
" />
<path d="M71234 27856
L71234 28043
L71628 28043
L71628 27856
" />
<path d="M71628 27724
L71628 27462
L71234 27631
" />
<path d="M73264 20978
L73489 20978
" />
<path d="M73376 20978
L73376 20584
L73414 20640
L73451 20678
L73489 20696
" />
<path d="M73020 20584
L72983 20584
L72945 20603
L72926 20621
L72908 20659
L72889 20734
L72889 20828
L72908 20903
L72926 20940
L72945 20959
L72983 20978
L73020 20978
L73058 20959
L73076 20940
L73095 20903
L73114 20828
L73114 20734
L73095 20659
L73076 20621
L73058 20603
L73020 20584
" />
<path d="M72720 20978
L72720 20584
" />
<path d="M72683 20828
L72570 20978
" />
<path d="M72570 20715
L72720 20865
" />
<path d="M71234 20912
L71422 21043
" />
<path d="M71234 21137
L71628 21137
L71628 20987
L71609 20949
L71590 20930
L71553 20912
L71497 20912
L71459 20930
L71440 20949
L71422 20987
L71422 21137
" />
<path d="M71440 20743
L71440 20612
" />
<path d="M71234 20556
L71234 20743
L71628 20743
L71628 20556
" />
<path d="M71628 20218
L71628 20293
L71609 20331
L71590 20349
L71534 20387
L71459 20406
L71309 20406
L71272 20387
L71253 20368
L71234 20331
L71234 20256
L71253 20218
L71272 20199
L71309 20181
L71403 20181
L71440 20199
L71459 20218
L71478 20256
L71478 20331
L71459 20368
L71440 20387
L71403 20406
" />
<path d="M73264 13578
L73489 13578
" />
<path d="M73376 13578
L73376 13184
L73414 13240
L73451 13278
L73489 13296
" />
<path d="M73020 13184
L72983 13184
L72945 13203
L72926 13221
L72908 13259
L72889 13334
L72889 13428
L72908 13503
L72926 13540
L72945 13559
L72983 13578
L73020 13578
L73058 13559
L73076 13540
L73095 13503
L73114 13428
L73114 13334
L73095 13259
L73076 13221
L73058 13203
L73020 13184
" />
<path d="M72720 13578
L72720 13184
" />
<path d="M72683 13428
L72570 13578
" />
<path d="M72570 13315
L72720 13465
" />
<path d="M71234 13612
L71422 13743
" />
<path d="M71234 13837
L71628 13837
L71628 13687
L71609 13649
L71590 13630
L71553 13612
L71497 13612
L71459 13630
L71440 13649
L71422 13687
L71422 13837
" />
<path d="M71440 13443
L71440 13312
" />
<path d="M71234 13256
L71234 13443
L71628 13443
L71628 13256
" />
<path d="M71628 12899
L71628 13087
L71440 13106
L71459 13087
L71478 13049
L71478 12956
L71459 12918
L71440 12899
L71403 12881
L71309 12881
L71272 12899
L71253 12918
L71234 12956
L71234 13049
L71253 13087
L71272 13106
" />
<path d="M82064 35578
L82289 35578
" />
<path d="M82176 35578
L82176 35184
L82214 35240
L82251 35278
L82289 35296
" />
<path d="M81820 35184
L81783 35184
L81745 35203
L81726 35221
L81708 35259
L81689 35334
L81689 35428
L81708 35503
L81726 35540
L81745 35559
L81783 35578
L81820 35578
L81858 35559
L81876 35540
L81895 35503
L81914 35428
L81914 35334
L81895 35259
L81876 35221
L81858 35203
L81820 35184
" />
<path d="M81520 35578
L81520 35184
" />
<path d="M81483 35428
L81370 35578
" />
<path d="M81370 35315
L81520 35465
" />
<path d="M87169 35525
L87356 35656
" />
<path d="M87169 35750
L87562 35750
L87562 35600
L87544 35562
L87525 35543
L87487 35525
L87431 35525
L87394 35543
L87375 35562
L87356 35600
L87356 35750
" />
<path d="M87375 35356
L87375 35225
" />
<path d="M87169 35169
L87169 35356
L87562 35356
L87562 35169
" />
<path d="M87431 34831
L87169 34831
" />
<path d="M87581 34925
L87300 35019
L87300 34775
" />
<path d="M82064 27778
L82289 27778
" />
<path d="M82176 27778
L82176 27384
L82214 27440
L82251 27478
L82289 27496
" />
<path d="M81820 27384
L81783 27384
L81745 27403
L81726 27421
L81708 27459
L81689 27534
L81689 27628
L81708 27703
L81726 27740
L81745 27759
L81783 27778
L81820 27778
L81858 27759
L81876 27740
L81895 27703
L81914 27628
L81914 27534
L81895 27459
L81876 27421
L81858 27403
L81820 27384
" />
<path d="M81520 27778
L81520 27384
" />
<path d="M81483 27628
L81370 27778
" />
<path d="M81370 27515
L81520 27665
" />
<path d="M87169 28025
L87356 28156
" />
<path d="M87169 28250
L87562 28250
L87562 28100
L87544 28062
L87525 28043
L87487 28025
L87431 28025
L87394 28043
L87375 28062
L87356 28100
L87356 28250
" />
<path d="M87375 27856
L87375 27725
" />
<path d="M87169 27669
L87169 27856
L87562 27856
L87562 27669
" />
<path d="M87562 27537
L87562 27294
L87412 27425
L87412 27369
L87394 27331
L87375 27312
L87337 27294
L87244 27294
L87206 27312
L87187 27331
L87169 27369
L87169 27481
L87187 27519
L87206 27537
" />
<path d="M82064 20578
L82289 20578
" />
<path d="M82176 20578
L82176 20184
L82214 20240
L82251 20278
L82289 20296
" />
<path d="M81820 20184
L81783 20184
L81745 20203
L81726 20221
L81708 20259
L81689 20334
L81689 20428
L81708 20503
L81726 20540
L81745 20559
L81783 20578
L81820 20578
L81858 20559
L81876 20540
L81895 20503
L81914 20428
L81914 20334
L81895 20259
L81876 20221
L81858 20203
L81820 20184
" />
<path d="M81520 20578
L81520 20184
" />
<path d="M81483 20428
L81370 20578
" />
<path d="M81370 20315
L81520 20465
" />
<path d="M87169 20775
L87356 20906
" />
<path d="M87169 21000
L87562 21000
L87562 20850
L87544 20812
L87525 20793
L87487 20775
L87431 20775
L87394 20793
L87375 20812
L87356 20850
L87356 21000
" />
<path d="M87375 20606
L87375 20475
" />
<path d="M87169 20419
L87169 20606
L87562 20606
L87562 20419
" />
<path d="M87525 20269
L87544 20250
L87562 20212
L87562 20119
L87544 20081
L87525 20062
L87487 20044
L87450 20044
L87394 20062
L87169 20287
L87169 20044
" />
<path d="M82064 13378
L82289 13378
" />
<path d="M82176 13378
L82176 12984
L82214 13040
L82251 13078
L82289 13096
" />
<path d="M81820 12984
L81783 12984
L81745 13003
L81726 13021
L81708 13059
L81689 13134
L81689 13228
L81708 13303
L81726 13340
L81745 13359
L81783 13378
L81820 13378
L81858 13359
L81876 13340
L81895 13303
L81914 13228
L81914 13134
L81895 13059
L81876 13021
L81858 13003
L81820 12984
" />
<path d="M81520 13378
L81520 12984
" />
<path d="M81483 13228
L81370 13378
" />
<path d="M81370 13115
L81520 13265
" />
<path d="M87169 13525
L87356 13656
" />
<path d="M87169 13750
L87562 13750
L87562 13600
L87544 13562
L87525 13543
L87487 13525
L87431 13525
L87394 13543
L87375 13562
L87356 13600
L87356 13750
" />
<path d="M87375 13356
L87375 13225
" />
<path d="M87169 13169
L87169 13356
L87562 13356
L87562 13169
" />
<path d="M87169 12794
L87169 13019
" />
<path d="M87169 12906
L87562 12906
L87506 12944
L87469 12981
L87450 13019
" />
<path d="M93631 34770
L93556 34770
L93518 34788
L93481 34826
L93462 34901
L93462 35032
L93481 35107
L93518 35145
L93556 35163
L93631 35163
L93668 35145
L93706 35107
L93725 35032
L93725 34901
L93706 34826
L93668 34788
L93631 34770
" />
<path d="M93162 34957
L93106 34976
L93087 34995
L93068 35032
L93068 35088
L93087 35126
L93106 35145
L93143 35163
L93293 35163
L93293 34770
L93162 34770
L93125 34788
L93106 34807
L93087 34845
L93087 34882
L93106 34920
L93125 34938
L93162 34957
L93293 34957
" />
<path d="M92731 34901
L92731 35163
" />
<path d="M92825 34751
L92918 35032
L92675 35032
" />
<path d="M93631 27398
L93556 27398
L93518 27417
L93481 27454
L93462 27529
L93462 27661
L93481 27736
L93518 27773
L93556 27792
L93631 27792
L93668 27773
L93706 27736
L93725 27661
L93725 27529
L93706 27454
L93668 27417
L93631 27398
" />
<path d="M93162 27586
L93106 27604
L93087 27623
L93068 27661
L93068 27717
L93087 27754
L93106 27773
L93143 27792
L93293 27792
L93293 27398
L93162 27398
L93125 27417
L93106 27436
L93087 27473
L93087 27511
L93106 27548
L93125 27567
L93162 27586
L93293 27586
" />
<path d="M92937 27398
L92693 27398
L92825 27548
L92768 27548
L92731 27567
L92712 27586
L92693 27623
L92693 27717
L92712 27754
L92731 27773
L92768 27792
L92881 27792
L92918 27773
L92937 27754
" />
<path d="M93672 20170
L93597 20170
L93559 20188
L93522 20226
L93503 20301
L93503 20432
L93522 20507
L93559 20545
L93597 20563
L93672 20563
L93709 20545
L93747 20507
L93766 20432
L93766 20301
L93747 20226
L93709 20188
L93672 20170
" />
<path d="M93203 20357
L93147 20376
L93128 20395
L93109 20432
L93109 20488
L93128 20526
L93147 20545
L93184 20563
L93334 20563
L93334 20170
L93203 20170
L93166 20188
L93147 20207
L93128 20245
L93128 20282
L93147 20320
L93166 20338
L93203 20357
L93334 20357
" />
<path d="M92959 20207
L92941 20188
L92903 20170
L92809 20170
L92772 20188
L92753 20207
L92734 20245
L92734 20282
L92753 20338
L92978 20563
L92734 20563
" />
<path d="M93631 12698
L93556 12698
L93518 12717
L93481 12754
L93462 12829
L93462 12961
L93481 13036
L93518 13073
L93556 13092
L93631 13092
L93668 13073
L93706 13036
L93725 12961
L93725 12829
L93706 12754
L93668 12717
L93631 12698
" />
<path d="M93162 12886
L93106 12904
L93087 12923
L93068 12961
L93068 13017
L93087 13054
L93106 13073
L93143 13092
L93293 13092
L93293 12698
L93162 12698
L93125 12717
L93106 12736
L93087 12773
L93087 12811
L93106 12848
L93125 12867
L93162 12886
L93293 12886
" />
<path d="M92693 13092
L92918 13092
" />
<path d="M92806 13092
L92806 12698
L92843 12754
L92881 12792
L92918 12811
" />
<path d="M44297 30357
L44241 30376
L44222 30395
L44203 30432
L44203 30488
L44222 30526
L44241 30545
L44278 30563
L44428 30563
L44428 30170
L44297 30170
L44259 30188
L44241 30207
L44222 30245
L44222 30282
L44241 30320
L44259 30338
L44297 30357
L44428 30357
" />
<path d="M43828 30563
L44053 30563
" />
<path d="M43941 30563
L43941 30170
L43978 30226
L44016 30263
L44053 30282
" />
<path d="M43584 30170
L43547 30170
L43509 30188
L43491 30207
L43472 30245
L43453 30320
L43453 30413
L43472 30488
L43491 30526
L43509 30545
L43547 30563
L43584 30563
L43622 30545
L43641 30526
L43659 30488
L43678 30413
L43678 30320
L43659 30245
L43641 30207
L43622 30188
L43584 30170
" />
<path d="M48809 20757
L48753 20776
L48734 20795
L48716 20832
L48716 20888
L48734 20926
L48753 20945
L48791 20963
L48941 20963
L48941 20570
L48809 20570
L48772 20588
L48753 20607
L48734 20645
L48734 20682
L48753 20720
L48772 20738
L48809 20757
L48941 20757
" />
<path d="M48528 20963
L48453 20963
L48416 20945
L48397 20926
L48359 20870
L48341 20795
L48341 20645
L48359 20607
L48378 20588
L48416 20570
L48491 20570
L48528 20588
L48547 20607
L48566 20645
L48566 20738
L48547 20776
L48528 20795
L48491 20813
L48416 20813
L48378 20795
L48359 20776
L48341 20738
" />
<path d="M48709 16557
L48653 16576
L48634 16595
L48616 16632
L48616 16688
L48634 16726
L48653 16745
L48691 16763
L48841 16763
L48841 16370
L48709 16370
L48672 16388
L48653 16407
L48634 16445
L48634 16482
L48653 16520
L48672 16538
L48709 16557
L48841 16557
" />
<path d="M48391 16538
L48428 16520
L48447 16501
L48466 16463
L48466 16445
L48447 16407
L48428 16388
L48391 16370
L48316 16370
L48278 16388
L48259 16407
L48241 16445
L48241 16463
L48259 16501
L48278 16520
L48316 16538
L48391 16538
L48428 16557
L48447 16576
L48466 16613
L48466 16688
L48447 16726
L48428 16745
L48391 16763
L48316 16763
L48278 16745
L48259 16726
L48241 16688
L48241 16613
L48259 16576
L48278 16557
L48316 16538
" />
<path d="M48709 12157
L48653 12176
L48634 12195
L48616 12232
L48616 12288
L48634 12326
L48653 12345
L48691 12363
L48841 12363
L48841 11970
L48709 11970
L48672 11988
L48653 12007
L48634 12045
L48634 12082
L48653 12120
L48672 12138
L48709 12157
L48841 12157
" />
<path d="M48484 11970
L48222 11970
L48391 12363
" />
<path d="M55609 12157
L55553 12176
L55534 12195
L55516 12232
L55516 12288
L55534 12326
L55553 12345
L55591 12363
L55741 12363
L55741 11970
L55609 11970
L55572 11988
L55553 12007
L55534 12045
L55534 12082
L55553 12120
L55572 12138
L55609 12157
L55741 12157
" />
<path d="M55178 12101
L55178 12363
" />
<path d="M55272 11951
L55366 12232
L55122 12232
" />
<path d="M62609 20757
L62553 20776
L62534 20795
L62516 20832
L62516 20888
L62534 20926
L62553 20945
L62591 20963
L62741 20963
L62741 20570
L62609 20570
L62572 20588
L62553 20607
L62534 20645
L62534 20682
L62553 20720
L62572 20738
L62609 20757
L62741 20757
" />
<path d="M62384 20570
L62141 20570
L62272 20720
L62216 20720
L62178 20738
L62159 20757
L62141 20795
L62141 20888
L62159 20926
L62178 20945
L62216 20963
L62328 20963
L62366 20945
L62384 20926
" />
<path d="M62409 12157
L62353 12176
L62334 12195
L62316 12232
L62316 12288
L62334 12326
L62353 12345
L62391 12363
L62541 12363
L62541 11970
L62409 11970
L62372 11988
L62353 12007
L62334 12045
L62334 12082
L62353 12120
L62372 12138
L62409 12157
L62541 12157
" />
<path d="M61941 12363
L62166 12363
" />
<path d="M62053 12363
L62053 11970
L62091 12026
L62128 12063
L62166 12082
" />
<g >
</g>
</g>
<g style="fill:#000000; fill-opacity:0.0; 
stroke:#000000; stroke-width:59.0551; stroke-opacity:1; 
stroke-linecap:round; stroke-linejoin:round;">
</g>
<g style="fill:#000000; fill-opacity:0.0; 
stroke:#000000; stroke-width:39.3701; stroke-opacity:1; 
stroke-linecap:round; stroke-linejoin:round;">
<path d="M98130 7700
L98030 7500
" />
<path d="M98130 32700
L98130 7700
" />
<path d="M98130 41400
L98130 32700
" />
<path d="M25130 41400
L98130 41400
" />
<path d="M25130 7500
L25130 41400
" />
<path d="M98030 7500
L25130 7500
" />
<g >
</g>
<g >
</g>
<g >
</g>
<g >
</g>
<g >
</g>
<g >
</g>
<g >
</g>
<g >
</g>
<g >
</g>
<g >
</g>
<g >
</g>
<g >
</g>
<g >
</g>
<g >
</g>
<g >
</g>
<g >
</g>
<g >
</g>
<g >
</g>
<g >
</g>
<g >
</g>
<g >
</g>
<g >
</g>
<g >
</g>
<g >
</g>
<g >
</g>
<g >
</g>
<g >
</g>
<g >
</g>
<g >
</g>
</g> 
</svg>
