<?xml version="1.0" standalone="no"?>
 <!DOCTYPE svg PUBLIC "-//W3C//DTD SVG 1.1//EN" 
 "http://www.w3.org/Graphics/SVG/1.1/DTD/svg11.dtd"> 
<svg xmlns="http://www.w3.org/2000/svg" version="1.1" 
    width="29.7002cm" height="21.0007cm" viewBox="0 0 116930 82680 ">
<title>SVG Picture created as the_mvp-F_SilkS.svg date 2020/08/23 07:04:14 </title>
  <desc>Picture generated by PCBNEW </desc>
<g style="fill:#000000; fill-opacity:1;stroke:#000000; stroke-opacity:1;
stroke-linecap:round; stroke-linejoin:round; "
 transform="translate(0 0) scale(1 1)">
</g>
<g style="fill:#000000; fill-opacity:0.0; 
stroke:#000000; stroke-width:-0.000393701; stroke-opacity:1; 
stroke-linecap:round; stroke-linejoin:round;">
</g>
<g style="fill:#000000; fill-opacity:0.0; 
stroke:#000000; stroke-width:39.3701; stroke-opacity:1; 
stroke-linecap:round; stroke-linejoin:round;">
</g>
<g style="fill:#000000; fill-opacity:0.0; 
stroke:#000000; stroke-width:59.0551; stroke-opacity:1; 
stroke-linecap:round; stroke-linejoin:round;">
<rect x="69685.9" y="65357.2" width="42519.7" height="12598.4" rx="0" />
</g>
<g style="fill:#000000; fill-opacity:0.0; 
stroke:#000000; stroke-width:39.3701; stroke-opacity:1; 
stroke-linecap:round; stroke-linejoin:round;">
</g>
<g style="fill:#000000; fill-opacity:0.0; 
stroke:#000000; stroke-width:59.0551; stroke-opacity:1; 
stroke-linecap:round; stroke-linejoin:round;">
<rect x="3937.01" y="3937.01" width="109056" height="74806" rx="0" />
</g>
<g style="fill:#000000; fill-opacity:0.0; 
stroke:#000000; stroke-width:39.3701; stroke-opacity:1; 
stroke-linecap:round; stroke-linejoin:round;">
</g>
<g style="fill:#000000; fill-opacity:0.0; 
stroke:#000000; stroke-width:59.0551; stroke-opacity:1; 
stroke-linecap:round; stroke-linejoin:round;">
<rect x="4724.41" y="4724.41" width="107481" height="73231.2" rx="0" />
</g>
<g style="fill:#000000; fill-opacity:0.0; 
stroke:#000000; stroke-width:39.3701; stroke-opacity:1; 
stroke-linecap:round; stroke-linejoin:round;">
</g>
<g style="fill:#000000; fill-opacity:0.0; 
stroke:#000000; stroke-width:59.0551; stroke-opacity:1; 
stroke-linecap:round; stroke-linejoin:round;">
<path d="M23622 4724
L23622 3937
" />
</g>
<g style="fill:#000000; fill-opacity:0.0; 
stroke:#000000; stroke-width:39.3701; stroke-opacity:1; 
stroke-linecap:round; stroke-linejoin:round;">
</g>
<g style="fill:#000000; fill-opacity:0.0; 
stroke:#000000; stroke-width:59.0551; stroke-opacity:1; 
stroke-linecap:round; stroke-linejoin:round;">
<path d="M43307 4724
L43307 3937
" />
</g>
<g style="fill:#000000; fill-opacity:0.0; 
stroke:#000000; stroke-width:39.3701; stroke-opacity:1; 
stroke-linecap:round; stroke-linejoin:round;">
</g>
<g style="fill:#000000; fill-opacity:0.0; 
stroke:#000000; stroke-width:59.0551; stroke-opacity:1; 
stroke-linecap:round; stroke-linejoin:round;">
<path d="M62992 4724
L62992 3937
" />
</g>
<g style="fill:#000000; fill-opacity:0.0; 
stroke:#000000; stroke-width:39.3701; stroke-opacity:1; 
stroke-linecap:round; stroke-linejoin:round;">
</g>
<g style="fill:#000000; fill-opacity:0.0; 
stroke:#000000; stroke-width:59.0551; stroke-opacity:1; 
stroke-linecap:round; stroke-linejoin:round;">
<path d="M82677 4724
L82677 3937
" />
</g>
<g style="fill:#000000; fill-opacity:0.0; 
stroke:#000000; stroke-width:39.3701; stroke-opacity:1; 
stroke-linecap:round; stroke-linejoin:round;">
</g>
<g style="fill:#000000; fill-opacity:0.0; 
stroke:#000000; stroke-width:59.0551; stroke-opacity:1; 
stroke-linecap:round; stroke-linejoin:round;">
<path d="M102362 4724
L102362 3937
" />
</g>
<g style="fill:#000000; fill-opacity:0.0; 
stroke:#000000; stroke-width:39.3701; stroke-opacity:1; 
stroke-linecap:round; stroke-linejoin:round;">
</g>
<g style="fill:#000000; fill-opacity:0.0; 
stroke:#000000; stroke-width:59.0551; stroke-opacity:1; 
stroke-linecap:round; stroke-linejoin:round;">
<path d="M14199 4562
L13906 4562
" />
<path d="M14052 4562
L14052 4050
L14004 4123
L13955 4172
L13906 4196
" />
</g>
<g style="fill:#000000; fill-opacity:0.0; 
stroke:#000000; stroke-width:39.3701; stroke-opacity:1; 
stroke-linecap:round; stroke-linejoin:round;">
</g>
<g style="fill:#000000; fill-opacity:0.0; 
stroke:#000000; stroke-width:59.0551; stroke-opacity:1; 
stroke-linecap:round; stroke-linejoin:round;">
<path d="M33591 4099
L33615 4074
L33664 4050
L33786 4050
L33835 4074
L33859 4099
L33884 4147
L33884 4196
L33859 4269
L33567 4562
L33884 4562
" />
</g>
<g style="fill:#000000; fill-opacity:0.0; 
stroke:#000000; stroke-width:39.3701; stroke-opacity:1; 
stroke-linecap:round; stroke-linejoin:round;">
</g>
<g style="fill:#000000; fill-opacity:0.0; 
stroke:#000000; stroke-width:59.0551; stroke-opacity:1; 
stroke-linecap:round; stroke-linejoin:round;">
<path d="M53252 4050
L53569 4050
L53398 4245
L53471 4245
L53520 4269
L53544 4294
L53569 4342
L53569 4464
L53544 4513
L53520 4537
L53471 4562
L53325 4562
L53276 4537
L53252 4513
" />
</g>
<g style="fill:#000000; fill-opacity:0.0; 
stroke:#000000; stroke-width:39.3701; stroke-opacity:1; 
stroke-linecap:round; stroke-linejoin:round;">
</g>
<g style="fill:#000000; fill-opacity:0.0; 
stroke:#000000; stroke-width:59.0551; stroke-opacity:1; 
stroke-linecap:round; stroke-linejoin:round;">
<path d="M73205 4221
L73205 4562
" />
<path d="M73083 4026
L72961 4391
L73278 4391
" />
</g>
<g style="fill:#000000; fill-opacity:0.0; 
stroke:#000000; stroke-width:39.3701; stroke-opacity:1; 
stroke-linecap:round; stroke-linejoin:round;">
</g>
<g style="fill:#000000; fill-opacity:0.0; 
stroke:#000000; stroke-width:59.0551; stroke-opacity:1; 
stroke-linecap:round; stroke-linejoin:round;">
<path d="M92914 4050
L92671 4050
L92646 4294
L92671 4269
L92719 4245
L92841 4245
L92890 4269
L92914 4294
L92939 4342
L92939 4464
L92914 4513
L92890 4537
L92841 4562
L92719 4562
L92671 4537
L92646 4513
" />
</g>
<g style="fill:#000000; fill-opacity:0.0; 
stroke:#000000; stroke-width:39.3701; stroke-opacity:1; 
stroke-linecap:round; stroke-linejoin:round;">
</g>
<g style="fill:#000000; fill-opacity:0.0; 
stroke:#000000; stroke-width:59.0551; stroke-opacity:1; 
stroke-linecap:round; stroke-linejoin:round;">
<path d="M112575 4050
L112477 4050
L112429 4074
L112404 4099
L112356 4172
L112331 4269
L112331 4464
L112356 4513
L112380 4537
L112429 4562
L112526 4562
L112575 4537
L112599 4513
L112624 4464
L112624 4342
L112599 4294
L112575 4269
L112526 4245
L112429 4245
L112380 4269
L112356 4294
L112331 4342
" />
</g>
<g style="fill:#000000; fill-opacity:0.0; 
stroke:#000000; stroke-width:39.3701; stroke-opacity:1; 
stroke-linecap:round; stroke-linejoin:round;">
</g>
<g style="fill:#000000; fill-opacity:0.0; 
stroke:#000000; stroke-width:59.0551; stroke-opacity:1; 
stroke-linecap:round; stroke-linejoin:round;">
<path d="M23622 77955
L23622 78742
" />
</g>
<g style="fill:#000000; fill-opacity:0.0; 
stroke:#000000; stroke-width:39.3701; stroke-opacity:1; 
stroke-linecap:round; stroke-linejoin:round;">
</g>
<g style="fill:#000000; fill-opacity:0.0; 
stroke:#000000; stroke-width:59.0551; stroke-opacity:1; 
stroke-linecap:round; stroke-linejoin:round;">
<path d="M43307 77955
L43307 78742
" />
</g>
<g style="fill:#000000; fill-opacity:0.0; 
stroke:#000000; stroke-width:39.3701; stroke-opacity:1; 
stroke-linecap:round; stroke-linejoin:round;">
</g>
<g style="fill:#000000; fill-opacity:0.0; 
stroke:#000000; stroke-width:59.0551; stroke-opacity:1; 
stroke-linecap:round; stroke-linejoin:round;">
<path d="M62992 77955
L62992 78742
" />
</g>
<g style="fill:#000000; fill-opacity:0.0; 
stroke:#000000; stroke-width:39.3701; stroke-opacity:1; 
stroke-linecap:round; stroke-linejoin:round;">
</g>
<g style="fill:#000000; fill-opacity:0.0; 
stroke:#000000; stroke-width:59.0551; stroke-opacity:1; 
stroke-linecap:round; stroke-linejoin:round;">
<path d="M82677 77955
L82677 78742
" />
</g>
<g style="fill:#000000; fill-opacity:0.0; 
stroke:#000000; stroke-width:39.3701; stroke-opacity:1; 
stroke-linecap:round; stroke-linejoin:round;">
</g>
<g style="fill:#000000; fill-opacity:0.0; 
stroke:#000000; stroke-width:59.0551; stroke-opacity:1; 
stroke-linecap:round; stroke-linejoin:round;">
<path d="M102362 77955
L102362 78742
" />
</g>
<g style="fill:#000000; fill-opacity:0.0; 
stroke:#000000; stroke-width:39.3701; stroke-opacity:1; 
stroke-linecap:round; stroke-linejoin:round;">
</g>
<g style="fill:#000000; fill-opacity:0.0; 
stroke:#000000; stroke-width:59.0551; stroke-opacity:1; 
stroke-linecap:round; stroke-linejoin:round;">
<path d="M14199 78580
L13906 78580
" />
<path d="M14052 78580
L14052 78069
L14004 78142
L13955 78190
L13906 78215
" />
</g>
<g style="fill:#000000; fill-opacity:0.0; 
stroke:#000000; stroke-width:39.3701; stroke-opacity:1; 
stroke-linecap:round; stroke-linejoin:round;">
</g>
<g style="fill:#000000; fill-opacity:0.0; 
stroke:#000000; stroke-width:59.0551; stroke-opacity:1; 
stroke-linecap:round; stroke-linejoin:round;">
<path d="M33591 78117
L33615 78093
L33664 78069
L33786 78069
L33835 78093
L33859 78117
L33884 78166
L33884 78215
L33859 78288
L33567 78580
L33884 78580
" />
</g>
<g style="fill:#000000; fill-opacity:0.0; 
stroke:#000000; stroke-width:39.3701; stroke-opacity:1; 
stroke-linecap:round; stroke-linejoin:round;">
</g>
<g style="fill:#000000; fill-opacity:0.0; 
stroke:#000000; stroke-width:59.0551; stroke-opacity:1; 
stroke-linecap:round; stroke-linejoin:round;">
<path d="M53252 78069
L53569 78069
L53398 78263
L53471 78263
L53520 78288
L53544 78312
L53569 78361
L53569 78483
L53544 78532
L53520 78556
L53471 78580
L53325 78580
L53276 78556
L53252 78532
" />
</g>
<g style="fill:#000000; fill-opacity:0.0; 
stroke:#000000; stroke-width:39.3701; stroke-opacity:1; 
stroke-linecap:round; stroke-linejoin:round;">
</g>
<g style="fill:#000000; fill-opacity:0.0; 
stroke:#000000; stroke-width:59.0551; stroke-opacity:1; 
stroke-linecap:round; stroke-linejoin:round;">
<path d="M73205 78239
L73205 78580
" />
<path d="M73083 78044
L72961 78410
L73278 78410
" />
</g>
<g style="fill:#000000; fill-opacity:0.0; 
stroke:#000000; stroke-width:39.3701; stroke-opacity:1; 
stroke-linecap:round; stroke-linejoin:round;">
</g>
<g style="fill:#000000; fill-opacity:0.0; 
stroke:#000000; stroke-width:59.0551; stroke-opacity:1; 
stroke-linecap:round; stroke-linejoin:round;">
<path d="M92914 78069
L92671 78069
L92646 78312
L92671 78288
L92719 78263
L92841 78263
L92890 78288
L92914 78312
L92939 78361
L92939 78483
L92914 78532
L92890 78556
L92841 78580
L92719 78580
L92671 78556
L92646 78532
" />
</g>
<g style="fill:#000000; fill-opacity:0.0; 
stroke:#000000; stroke-width:39.3701; stroke-opacity:1; 
stroke-linecap:round; stroke-linejoin:round;">
</g>
<g style="fill:#000000; fill-opacity:0.0; 
stroke:#000000; stroke-width:59.0551; stroke-opacity:1; 
stroke-linecap:round; stroke-linejoin:round;">
<path d="M112575 78069
L112477 78069
L112429 78093
L112404 78117
L112356 78190
L112331 78288
L112331 78483
L112356 78532
L112380 78556
L112429 78580
L112526 78580
L112575 78556
L112599 78532
L112624 78483
L112624 78361
L112599 78312
L112575 78288
L112526 78263
L112429 78263
L112380 78288
L112356 78312
L112331 78361
" />
</g>
<g style="fill:#000000; fill-opacity:0.0; 
stroke:#000000; stroke-width:39.3701; stroke-opacity:1; 
stroke-linecap:round; stroke-linejoin:round;">
</g>
<g style="fill:#000000; fill-opacity:0.0; 
stroke:#000000; stroke-width:59.0551; stroke-opacity:1; 
stroke-linecap:round; stroke-linejoin:round;">
<path d="M3937 23622
L4724 23622
" />
</g>
<g style="fill:#000000; fill-opacity:0.0; 
stroke:#000000; stroke-width:39.3701; stroke-opacity:1; 
stroke-linecap:round; stroke-linejoin:round;">
</g>
<g style="fill:#000000; fill-opacity:0.0; 
stroke:#000000; stroke-width:59.0551; stroke-opacity:1; 
stroke-linecap:round; stroke-linejoin:round;">
<path d="M3937 43307
L4724 43307
" />
</g>
<g style="fill:#000000; fill-opacity:0.0; 
stroke:#000000; stroke-width:39.3701; stroke-opacity:1; 
stroke-linecap:round; stroke-linejoin:round;">
</g>
<g style="fill:#000000; fill-opacity:0.0; 
stroke:#000000; stroke-width:59.0551; stroke-opacity:1; 
stroke-linecap:round; stroke-linejoin:round;">
<path d="M3937 62992
L4724 62992
" />
</g>
<g style="fill:#000000; fill-opacity:0.0; 
stroke:#000000; stroke-width:39.3701; stroke-opacity:1; 
stroke-linecap:round; stroke-linejoin:round;">
</g>
<g style="fill:#000000; fill-opacity:0.0; 
stroke:#000000; stroke-width:59.0551; stroke-opacity:1; 
stroke-linecap:round; stroke-linejoin:round;">
<path d="M4208 13864
L4452 13864
" />
<path d="M4160 14011
L4330 13499
L4501 14011
" />
</g>
<g style="fill:#000000; fill-opacity:0.0; 
stroke:#000000; stroke-width:39.3701; stroke-opacity:1; 
stroke-linecap:round; stroke-linejoin:round;">
</g>
<g style="fill:#000000; fill-opacity:0.0; 
stroke:#000000; stroke-width:59.0551; stroke-opacity:1; 
stroke-linecap:round; stroke-linejoin:round;">
<path d="M4367 33428
L4440 33452
L4464 33476
L4489 33525
L4489 33598
L4464 33647
L4440 33671
L4391 33696
L4196 33696
L4196 33184
L4367 33184
L4416 33208
L4440 33233
L4464 33281
L4464 33330
L4440 33379
L4416 33403
L4367 33428
L4196 33428
" />
</g>
<g style="fill:#000000; fill-opacity:0.0; 
stroke:#000000; stroke-width:39.3701; stroke-opacity:1; 
stroke-linecap:round; stroke-linejoin:round;">
</g>
<g style="fill:#000000; fill-opacity:0.0; 
stroke:#000000; stroke-width:59.0551; stroke-opacity:1; 
stroke-linecap:round; stroke-linejoin:round;">
<path d="M4489 53332
L4464 53356
L4391 53381
L4342 53381
L4269 53356
L4221 53308
L4196 53259
L4172 53161
L4172 53088
L4196 52991
L4221 52942
L4269 52893
L4342 52869
L4391 52869
L4464 52893
L4489 52918
" />
</g>
<g style="fill:#000000; fill-opacity:0.0; 
stroke:#000000; stroke-width:39.3701; stroke-opacity:1; 
stroke-linecap:round; stroke-linejoin:round;">
</g>
<g style="fill:#000000; fill-opacity:0.0; 
stroke:#000000; stroke-width:59.0551; stroke-opacity:1; 
stroke-linecap:round; stroke-linejoin:round;">
<path d="M4196 73066
L4196 72554
L4318 72554
L4391 72578
L4440 72627
L4464 72676
L4489 72773
L4489 72846
L4464 72944
L4440 72993
L4391 73041
L4318 73066
L4196 73066
" />
</g>
<g style="fill:#000000; fill-opacity:0.0; 
stroke:#000000; stroke-width:39.3701; stroke-opacity:1; 
stroke-linecap:round; stroke-linejoin:round;">
</g>
<g style="fill:#000000; fill-opacity:0.0; 
stroke:#000000; stroke-width:59.0551; stroke-opacity:1; 
stroke-linecap:round; stroke-linejoin:round;">
<path d="M112992 23622
L112205 23622
" />
</g>
<g style="fill:#000000; fill-opacity:0.0; 
stroke:#000000; stroke-width:39.3701; stroke-opacity:1; 
stroke-linecap:round; stroke-linejoin:round;">
</g>
<g style="fill:#000000; fill-opacity:0.0; 
stroke:#000000; stroke-width:59.0551; stroke-opacity:1; 
stroke-linecap:round; stroke-linejoin:round;">
<path d="M112992 43307
L112205 43307
" />
</g>
<g style="fill:#000000; fill-opacity:0.0; 
stroke:#000000; stroke-width:39.3701; stroke-opacity:1; 
stroke-linecap:round; stroke-linejoin:round;">
</g>
<g style="fill:#000000; fill-opacity:0.0; 
stroke:#000000; stroke-width:59.0551; stroke-opacity:1; 
stroke-linecap:round; stroke-linejoin:round;">
<path d="M112992 62992
L112205 62992
" />
</g>
<g style="fill:#000000; fill-opacity:0.0; 
stroke:#000000; stroke-width:39.3701; stroke-opacity:1; 
stroke-linecap:round; stroke-linejoin:round;">
</g>
<g style="fill:#000000; fill-opacity:0.0; 
stroke:#000000; stroke-width:59.0551; stroke-opacity:1; 
stroke-linecap:round; stroke-linejoin:round;">
<path d="M112477 13864
L112721 13864
" />
<path d="M112428 14011
L112599 13499
L112769 14011
" />
</g>
<g style="fill:#000000; fill-opacity:0.0; 
stroke:#000000; stroke-width:39.3701; stroke-opacity:1; 
stroke-linecap:round; stroke-linejoin:round;">
</g>
<g style="fill:#000000; fill-opacity:0.0; 
stroke:#000000; stroke-width:59.0551; stroke-opacity:1; 
stroke-linecap:round; stroke-linejoin:round;">
<path d="M112635 33428
L112708 33452
L112733 33476
L112757 33525
L112757 33598
L112733 33647
L112708 33671
L112660 33696
L112465 33696
L112465 33184
L112635 33184
L112684 33208
L112708 33233
L112733 33281
L112733 33330
L112708 33379
L112684 33403
L112635 33428
L112465 33428
" />
</g>
<g style="fill:#000000; fill-opacity:0.0; 
stroke:#000000; stroke-width:39.3701; stroke-opacity:1; 
stroke-linecap:round; stroke-linejoin:round;">
</g>
<g style="fill:#000000; fill-opacity:0.0; 
stroke:#000000; stroke-width:59.0551; stroke-opacity:1; 
stroke-linecap:round; stroke-linejoin:round;">
<path d="M112757 53332
L112733 53356
L112660 53381
L112611 53381
L112538 53356
L112489 53308
L112465 53259
L112440 53161
L112440 53088
L112465 52991
L112489 52942
L112538 52893
L112611 52869
L112660 52869
L112733 52893
L112757 52918
" />
</g>
<g style="fill:#000000; fill-opacity:0.0; 
stroke:#000000; stroke-width:39.3701; stroke-opacity:1; 
stroke-linecap:round; stroke-linejoin:round;">
</g>
<g style="fill:#000000; fill-opacity:0.0; 
stroke:#000000; stroke-width:59.0551; stroke-opacity:1; 
stroke-linecap:round; stroke-linejoin:round;">
<path d="M112465 73066
L112465 72554
L112587 72554
L112660 72578
L112708 72627
L112733 72676
L112757 72773
L112757 72846
L112733 72944
L112708 72993
L112660 73041
L112587 73066
L112465 73066
" />
</g>
<g style="fill:#000000; fill-opacity:0.0; 
stroke:#000000; stroke-width:39.3701; stroke-opacity:1; 
stroke-linecap:round; stroke-linejoin:round;">
</g>
<g style="fill:#000000; fill-opacity:0.0; 
stroke:#000000; stroke-width:59.0551; stroke-opacity:1; 
stroke-linecap:round; stroke-linejoin:round;">
<path d="M78911 76293
L78911 75703
L79051 75703
L79136 75731
L79192 75787
L79220 75843
L79248 75956
L79248 76040
L79220 76153
L79192 76209
L79136 76265
L79051 76293
L78911 76293
" />
<path d="M79754 76293
L79754 75984
L79726 75928
L79670 75899
L79557 75899
L79501 75928
" />
<path d="M79754 76265
L79698 76293
L79557 76293
L79501 76265
L79473 76209
L79473 76153
L79501 76096
L79557 76068
L79698 76068
L79754 76040
" />
<path d="M79951 75899
L80176 75899
" />
<path d="M80036 75703
L80036 76209
L80064 76265
L80120 76293
L80176 76293
" />
<path d="M80598 76265
L80542 76293
L80429 76293
L80373 76265
L80345 76209
L80345 75984
L80373 75928
L80429 75899
L80542 75899
L80598 75928
L80626 75984
L80626 76040
L80345 76096
" />
<path d="M80879 76237
L80907 76265
L80879 76293
L80851 76265
L80879 76237
L80879 76293
" />
<path d="M80879 75928
L80907 75956
L80879 75984
L80851 75956
L80879 75928
L80879 75984
" />
<path d="M81582 75759
L81610 75731
L81667 75703
L81807 75703
L81863 75731
L81892 75759
L81920 75815
L81920 75871
L81892 75956
L81554 76293
L81920 76293
" />
<path d="M82285 75703
L82341 75703
L82398 75731
L82426 75759
L82454 75815
L82482 75928
L82482 76068
L82454 76181
L82426 76237
L82398 76265
L82341 76293
L82285 76293
L82229 76265
L82201 76237
L82173 76181
L82145 76068
L82145 75928
L82173 75815
L82201 75759
L82229 75731
L82285 75703
" />
<path d="M82707 75759
L82735 75731
L82791 75703
L82932 75703
L82988 75731
L83016 75759
L83045 75815
L83045 75871
L83016 75956
L82679 76293
L83045 76293
" />
<path d="M83410 75703
L83466 75703
L83523 75731
L83551 75759
L83579 75815
L83607 75928
L83607 76068
L83579 76181
L83551 76237
L83523 76265
L83466 76293
L83410 76293
L83354 76265
L83326 76237
L83298 76181
L83269 76068
L83269 75928
L83298 75815
L83326 75759
L83354 75731
L83410 75703
" />
<path d="M83860 76068
L84310 76068
" />
<path d="M84704 75703
L84760 75703
L84816 75731
L84844 75759
L84872 75815
L84901 75928
L84901 76068
L84872 76181
L84844 76237
L84816 76265
L84760 76293
L84704 76293
L84647 76265
L84619 76237
L84591 76181
L84563 76068
L84563 75928
L84591 75815
L84619 75759
L84647 75731
L84704 75703
" />
<path d="M85238 75956
L85182 75928
L85154 75899
L85126 75843
L85126 75815
L85154 75759
L85182 75731
L85238 75703
L85350 75703
L85407 75731
L85435 75759
L85463 75815
L85463 75843
L85435 75899
L85407 75928
L85350 75956
L85238 75956
L85182 75984
L85154 76012
L85126 76068
L85126 76181
L85154 76237
L85182 76265
L85238 76293
L85350 76293
L85407 76265
L85435 76237
L85463 76181
L85463 76068
L85435 76012
L85407 75984
L85350 75956
" />
<path d="M85716 76068
L86166 76068
" />
<path d="M86419 75759
L86447 75731
L86503 75703
L86644 75703
L86700 75731
L86728 75759
L86757 75815
L86757 75871
L86728 75956
L86391 76293
L86757 76293
" />
<path d="M86953 75703
L87319 75703
L87122 75928
L87206 75928
L87263 75956
L87291 75984
L87319 76040
L87319 76181
L87291 76237
L87263 76265
L87206 76293
L87038 76293
L86982 76265
L86953 76237
" />
</g>
<g style="fill:#000000; fill-opacity:0.0; 
stroke:#000000; stroke-width:39.3701; stroke-opacity:1; 
stroke-linecap:round; stroke-linejoin:round;">
</g>
<g style="fill:#000000; fill-opacity:0.0; 
stroke:#000000; stroke-width:59.0551; stroke-opacity:1; 
stroke-linecap:round; stroke-linejoin:round;">
<path d="M69685 76577
L112205 76577
" />
</g>
<g style="fill:#000000; fill-opacity:0.0; 
stroke:#000000; stroke-width:39.3701; stroke-opacity:1; 
stroke-linecap:round; stroke-linejoin:round;">
</g>
<g style="fill:#000000; fill-opacity:0.0; 
stroke:#000000; stroke-width:59.0551; stroke-opacity:1; 
stroke-linecap:round; stroke-linejoin:round;">
<path d="M70249 77395
L70249 76805
" />
<path d="M70587 77395
L70334 77058
" />
<path d="M70587 76805
L70249 77142
" />
<path d="M70840 77395
L70840 77002
" />
<path d="M70840 76805
L70812 76833
L70840 76861
L70868 76833
L70840 76805
L70840 76861
" />
<path d="M71458 77339
L71430 77367
L71346 77395
L71290 77395
L71205 77367
L71149 77311
L71121 77255
L71093 77142
L71093 77058
L71121 76946
L71149 76889
L71205 76833
L71290 76805
L71346 76805
L71430 76833
L71458 76861
" />
<path d="M71965 77395
L71965 77086
L71937 77030
L71880 77002
L71768 77002
L71712 77030
" />
<path d="M71965 77367
L71908 77395
L71768 77395
L71712 77367
L71683 77311
L71683 77255
L71712 77199
L71768 77171
L71908 77171
L71965 77142
" />
<path d="M72499 77395
L72499 76805
" />
<path d="M72499 77367
L72443 77395
L72330 77395
L72274 77367
L72246 77339
L72218 77283
L72218 77114
L72246 77058
L72274 77030
L72330 77002
L72443 77002
L72499 77030
" />
<path d="M73230 77086
L73427 77086
" />
<path d="M73511 77395
L73230 77395
L73230 76805
L73511 76805
" />
<path d="M73764 77339
L73793 77367
L73764 77395
L73736 77367
L73764 77339
L73764 77395
" />
<path d="M74046 77395
L74046 76805
L74186 76805
L74271 76833
L74327 76889
L74355 76946
L74383 77058
L74383 77142
L74355 77255
L74327 77311
L74271 77367
L74186 77395
L74046 77395
" />
<path d="M74636 77339
L74664 77367
L74636 77395
L74608 77367
L74636 77339
L74636 77395
" />
<path d="M74889 77227
L75171 77227
" />
<path d="M74833 77395
L75030 76805
L75227 77395
" />
<path d="M75424 77339
L75452 77367
L75424 77395
L75395 77367
L75424 77339
L75424 77395
" />
<path d="M76605 77395
L76605 76805
" />
<path d="M76661 77171
L76830 77395
" />
<path d="M76830 77002
L76605 77227
" />
<path d="M77083 77395
L77083 77002
" />
<path d="M77083 76805
L77055 76833
L77083 76861
L77111 76833
L77083 76805
L77083 76861
" />
<path d="M77617 77367
L77561 77395
L77448 77395
L77392 77367
L77364 77339
L77336 77283
L77336 77114
L77364 77058
L77392 77030
L77448 77002
L77561 77002
L77617 77030
" />
<path d="M78123 77395
L78123 77086
L78095 77030
L78039 77002
L77926 77002
L77870 77030
" />
<path d="M78123 77367
L78067 77395
L77926 77395
L77870 77367
L77842 77311
L77842 77255
L77870 77199
L77926 77171
L78067 77171
L78123 77142
" />
<path d="M78658 77395
L78658 76805
" />
<path d="M78658 77367
L78601 77395
L78489 77395
L78433 77367
L78404 77339
L78376 77283
L78376 77114
L78404 77058
L78433 77030
L78489 77002
L78601 77002
L78658 77030
" />
<path d="M79557 77620
L79529 77592
L79473 77508
L79445 77452
L79417 77367
L79389 77227
L79389 77114
L79417 76974
L79445 76889
L79473 76833
L79529 76749
L79557 76721
" />
<path d="M80064 76805
L79782 76805
L79754 77086
L79782 77058
L79839 77030
L79979 77030
L80036 77058
L80064 77086
L80092 77142
L80092 77283
L80064 77339
L80036 77367
L79979 77395
L79839 77395
L79782 77367
L79754 77339
" />
<path d="M80345 77339
L80373 77367
L80345 77395
L80317 77367
L80345 77339
L80345 77395
" />
<path d="M80935 77395
L80598 77395
" />
<path d="M80767 77395
L80767 76805
L80710 76889
L80654 76946
L80598 76974
" />
<path d="M81188 77339
L81217 77367
L81188 77395
L81160 77367
L81188 77339
L81188 77395
" />
<path d="M81723 77002
L81723 77395
" />
<path d="M81582 76777
L81442 77199
L81807 77199
" />
<path d="M82032 77171
L82482 77171
" />
<path d="M82876 76805
L82932 76805
L82988 76833
L83016 76861
L83045 76917
L83073 77030
L83073 77171
L83045 77283
L83016 77339
L82988 77367
L82932 77395
L82876 77395
L82820 77367
L82791 77339
L82763 77283
L82735 77171
L82735 77030
L82763 76917
L82791 76861
L82820 76833
L82876 76805
" />
<path d="M83326 77171
L83776 77171
" />
<path d="M84366 77395
L84029 77395
" />
<path d="M84197 77395
L84197 76805
L84141 76889
L84085 76946
L84029 76974
" />
<path d="M84732 76805
L84788 76805
L84844 76833
L84872 76861
L84901 76917
L84929 77030
L84929 77171
L84901 77283
L84872 77339
L84844 77367
L84788 77395
L84732 77395
L84676 77367
L84647 77339
L84619 77283
L84591 77171
L84591 77030
L84619 76917
L84647 76861
L84676 76833
L84732 76805
" />
<path d="M85041 77452
L85491 77452
" />
<path d="M85941 77395
L85604 77395
" />
<path d="M85772 77395
L85772 76805
L85716 76889
L85660 76946
L85604 76974
" />
<path d="M86447 77002
L86447 77395
" />
<path d="M86307 76777
L86166 77199
L86532 77199
" />
<path d="M86700 77620
L86728 77592
L86785 77508
L86813 77452
L86841 77367
L86869 77227
L86869 77114
L86841 76974
L86813 76889
L86785 76833
L86728 76749
L86700 76721
" />
</g>
<g style="fill:#000000; fill-opacity:0.0; 
stroke:#000000; stroke-width:39.3701; stroke-opacity:1; 
stroke-linecap:round; stroke-linejoin:round;">
</g>
<g style="fill:#000000; fill-opacity:0.0; 
stroke:#000000; stroke-width:59.0551; stroke-opacity:1; 
stroke-linecap:round; stroke-linejoin:round;">
<path d="M69685 75396
L112205 75396
" />
</g>
<g style="fill:#000000; fill-opacity:0.0; 
stroke:#000000; stroke-width:39.3701; stroke-opacity:1; 
stroke-linecap:round; stroke-linejoin:round;">
</g>
<g style="fill:#000000; fill-opacity:0.0; 
stroke:#000000; stroke-width:118.11; stroke-opacity:1; 
stroke-linecap:round; stroke-linejoin:round;">
<path d="M104099 76293
L103902 76012
" />
<path d="M103761 76293
L103761 75703
L103986 75703
L104042 75731
L104070 75759
L104099 75815
L104099 75899
L104070 75956
L104042 75984
L103986 76012
L103761 76012
" />
<path d="M104577 76265
L104520 76293
L104408 76293
L104352 76265
L104323 76209
L104323 75984
L104352 75928
L104408 75899
L104520 75899
L104577 75928
L104605 75984
L104605 76040
L104323 76096
" />
<path d="M104802 75899
L104942 76293
L105083 75899
" />
<path d="M105308 76237
L105336 76265
L105308 76293
L105280 76265
L105308 76237
L105308 76293
" />
<path d="M105308 75928
L105336 75956
L105308 75984
L105280 75956
L105308 75928
L105308 75984
" />
<path d="M106348 76293
L106011 76293
" />
<path d="M106180 76293
L106180 75703
L106123 75787
L106067 75843
L106011 75871
" />
<path d="M106601 76237
L106629 76265
L106601 76293
L106573 76265
L106601 76237
L106601 76293
" />
<path d="M106995 75703
L107051 75703
L107108 75731
L107136 75759
L107164 75815
L107192 75928
L107192 76068
L107164 76181
L107136 76237
L107108 76265
L107051 76293
L106995 76293
L106939 76265
L106911 76237
L106883 76181
L106854 76068
L106854 75928
L106883 75815
L106911 75759
L106939 75731
L106995 75703
" />
</g>
<g style="fill:#000000; fill-opacity:0.0; 
stroke:#000000; stroke-width:39.3701; stroke-opacity:1; 
stroke-linecap:round; stroke-linejoin:round;">
</g>
<g style="fill:#000000; fill-opacity:0.0; 
stroke:#000000; stroke-width:59.0551; stroke-opacity:1; 
stroke-linecap:round; stroke-linejoin:round;">
<path d="M70221 76265
L70305 76293
L70446 76293
L70502 76265
L70530 76237
L70559 76181
L70559 76124
L70530 76068
L70502 76040
L70446 76012
L70334 75984
L70277 75956
L70249 75928
L70221 75871
L70221 75815
L70249 75759
L70277 75731
L70334 75703
L70474 75703
L70559 75731
" />
<path d="M70812 76293
L70812 75899
" />
<path d="M70812 75703
L70784 75731
L70812 75759
L70840 75731
L70812 75703
L70812 75759
" />
<path d="M71037 75899
L71346 75899
L71037 76293
L71346 76293
" />
<path d="M71796 76265
L71740 76293
L71627 76293
L71571 76265
L71543 76209
L71543 75984
L71571 75928
L71627 75899
L71740 75899
L71796 75928
L71824 75984
L71824 76040
L71543 76096
" />
<path d="M72077 76237
L72105 76265
L72077 76293
L72049 76265
L72077 76237
L72077 76293
" />
<path d="M72077 75928
L72105 75956
L72077 75984
L72049 75956
L72077 75928
L72077 75984
" />
<path d="M72780 76124
L73061 76124
" />
<path d="M72724 76293
L72921 75703
L73118 76293
" />
<path d="M73568 75899
L73568 76293
" />
<path d="M73427 75674
L73286 76096
L73652 76096
" />
</g>
<g style="fill:#000000; fill-opacity:0.0; 
stroke:#000000; stroke-width:39.3701; stroke-opacity:1; 
stroke-linecap:round; stroke-linejoin:round;">
</g>
<g style="fill:#000000; fill-opacity:0.0; 
stroke:#000000; stroke-width:59.0551; stroke-opacity:1; 
stroke-linecap:round; stroke-linejoin:round;">
<path d="M103714 77395
L103714 76805
" />
<path d="M104248 77395
L104248 76805
" />
<path d="M104248 77367
L104192 77395
L104079 77395
L104023 77367
L103995 77339
L103967 77283
L103967 77114
L103995 77058
L104023 77030
L104079 77002
L104192 77002
L104248 77030
" />
<path d="M104529 77339
L104557 77367
L104529 77395
L104501 77367
L104529 77339
L104529 77395
" />
<path d="M104529 77030
L104557 77058
L104529 77086
L104501 77058
L104529 77030
L104529 77086
" />
<path d="M105570 77395
L105232 77395
" />
<path d="M105401 77395
L105401 76805
L105345 76889
L105289 76946
L105232 76974
" />
<path d="M106245 76777
L105739 77536
" />
<path d="M106751 77395
L106413 77395
" />
<path d="M106582 77395
L106582 76805
L106526 76889
L106470 76946
L106413 76974
" />
</g>
<g style="fill:#000000; fill-opacity:0.0; 
stroke:#000000; stroke-width:39.3701; stroke-opacity:1; 
stroke-linecap:round; stroke-linejoin:round;">
</g>
<g style="fill:#000000; fill-opacity:0.0; 
stroke:#000000; stroke-width:59.0551; stroke-opacity:1; 
stroke-linecap:round; stroke-linejoin:round;">
<path d="M69685 73821
L112205 73821
" />
</g>
<g style="fill:#000000; fill-opacity:0.0; 
stroke:#000000; stroke-width:39.3701; stroke-opacity:1; 
stroke-linecap:round; stroke-linejoin:round;">
</g>
<g style="fill:#000000; fill-opacity:0.0; 
stroke:#000000; stroke-width:157.48; stroke-opacity:1; 
stroke-linecap:round; stroke-linejoin:round;">
<path d="M70360 74099
L70810 74099
" />
<path d="M70486 74886
L70585 74099
" />
<path d="M70974 74886
L71039 74361
" />
<path d="M71072 74099
L71030 74136
L71063 74174
L71105 74136
L71072 74099
L71063 74174
" />
<path d="M71302 74361
L71602 74361
" />
<path d="M71447 74099
L71363 74774
L71391 74849
L71461 74886
L71536 74886
" />
<path d="M71911 74886
L71841 74849
L71813 74774
L71897 74099
" />
<path d="M72516 74849
L72436 74886
L72286 74886
L72216 74849
L72187 74774
L72225 74474
L72272 74399
L72352 74361
L72501 74361
L72572 74399
L72600 74474
L72591 74549
L72206 74624
" />
<path d="M72895 74811
L72928 74849
L72886 74886
L72853 74849
L72895 74811
L72886 74886
" />
<path d="M72947 74399
L72980 74436
L72937 74474
L72905 74436
L72947 74399
L72937 74474
" />
<path d="M73828 74849
L73936 74886
L74123 74886
L74203 74849
L74245 74811
L74292 74736
L74301 74661
L74273 74586
L74240 74549
L74170 74511
L74025 74474
L73954 74436
L73922 74399
L73894 74324
L73903 74249
L73950 74174
L73992 74136
L74072 74099
L74259 74099
L74367 74136
" />
<path d="M74953 74849
L74873 74886
L74723 74886
L74653 74849
L74620 74811
L74592 74736
L74620 74511
L74667 74436
L74709 74399
L74789 74361
L74939 74361
L75009 74399
" />
<path d="M75286 74886
L75384 74099
" />
<path d="M75623 74886
L75675 74474
L75646 74399
L75576 74361
L75464 74361
L75384 74399
L75342 74436
" />
<path d="M75989 74361
L76073 74886
L76270 74511
L76373 74886
L76588 74361
" />
<path d="M77226 74361
L77160 74886
" />
<path d="M76888 74361
L76837 74774
L76865 74849
L76935 74886
L77048 74886
L77127 74849
L77170 74811
" />
<path d="M77535 74886
L77601 74361
" />
<path d="M77582 74511
L77629 74436
L77671 74399
L77751 74361
L77826 74361
" />
<path d="M78023 74886
L78121 74099
" />
<path d="M78084 74399
L78163 74361
L78313 74361
L78384 74399
L78416 74436
L78444 74511
L78416 74736
L78370 74811
L78327 74849
L78248 74886
L78098 74886
L78027 74849
" />
<path d="M78848 74886
L78777 74849
L78749 74774
L78834 74099
" />
<path d="M79452 74849
L79373 74886
L79223 74886
L79152 74849
L79124 74774
L79162 74474
L79208 74399
L79288 74361
L79438 74361
L79508 74399
L79537 74474
L79527 74549
L79143 74624
" />
<path d="M79822 74886
L79888 74361
" />
<path d="M79869 74511
L79916 74436
L79958 74399
L80038 74361
L80113 74361
" />
<path d="M80947 74586
L81547 74586
" />
<path d="M82485 74886
L82583 74099
L82775 74661
L83108 74099
L83010 74886
" />
<path d="M83370 74099
L83534 74886
L83895 74099
" />
<path d="M84059 74886
L84158 74099
L84458 74099
L84528 74136
L84561 74174
L84589 74249
L84575 74361
L84528 74436
L84486 74474
L84406 74511
L84106 74511
" />
</g>
<g style="fill:#000000; fill-opacity:0.0; 
stroke:#000000; stroke-width:39.3701; stroke-opacity:1; 
stroke-linecap:round; stroke-linejoin:round;">
</g>
<g style="fill:#000000; fill-opacity:0.0; 
stroke:#000000; stroke-width:59.0551; stroke-opacity:1; 
stroke-linecap:round; stroke-linejoin:round;">
<path d="M70446 73070
L70249 73070
" />
<path d="M70249 73380
L70249 72789
L70530 72789
" />
<path d="M70755 73380
L70755 72986
" />
<path d="M70755 72789
L70727 72817
L70755 72845
L70784 72817
L70755 72789
L70755 72845
" />
<path d="M71121 73380
L71065 73352
L71037 73295
L71037 72789
" />
<path d="M71571 73352
L71515 73380
L71402 73380
L71346 73352
L71318 73295
L71318 73070
L71346 73014
L71402 72986
L71515 72986
L71571 73014
L71599 73070
L71599 73127
L71318 73183
" />
<path d="M71852 73323
L71880 73352
L71852 73380
L71824 73352
L71852 73323
L71852 73380
" />
<path d="M71852 73014
L71880 73042
L71852 73070
L71824 73042
L71852 73014
L71852 73070
" />
<path d="M72499 72986
L72724 72986
" />
<path d="M72583 72789
L72583 73295
L72611 73352
L72668 73380
L72724 73380
" />
<path d="M72921 73380
L72921 72789
" />
<path d="M73174 73380
L73174 73070
L73146 73014
L73090 72986
L73005 72986
L72949 73014
L72921 73042
" />
<path d="M73680 73352
L73624 73380
L73511 73380
L73455 73352
L73427 73295
L73427 73070
L73455 73014
L73511 72986
L73624 72986
L73680 73014
L73708 73070
L73708 73127
L73427 73183
" />
<path d="M73821 73436
L74271 73436
" />
<path d="M74411 73380
L74411 72986
" />
<path d="M74411 73042
L74439 73014
L74496 72986
L74580 72986
L74636 73014
L74664 73070
L74664 73380
" />
<path d="M74664 73070
L74692 73014
L74749 72986
L74833 72986
L74889 73014
L74917 73070
L74917 73380
" />
<path d="M75142 72986
L75283 73380
L75424 72986
" />
<path d="M75649 72986
L75649 73577
" />
<path d="M75649 73014
L75705 72986
L75817 72986
L75874 73014
L75902 73042
L75930 73099
L75930 73267
L75902 73323
L75874 73352
L75817 73380
L75705 73380
L75649 73352
" />
<path d="M76183 73323
L76211 73352
L76183 73380
L76155 73352
L76183 73323
L76183 73380
" />
<path d="M76464 73380
L76464 72789
" />
<path d="M76520 73155
L76689 73380
" />
<path d="M76689 72986
L76464 73211
" />
<path d="M76942 73380
L76942 72986
" />
<path d="M76942 72789
L76914 72817
L76942 72845
L76970 72817
L76942 72789
L76942 72845
" />
<path d="M77476 73352
L77420 73380
L77308 73380
L77251 73352
L77223 73323
L77195 73267
L77195 73099
L77223 73042
L77251 73014
L77308 72986
L77420 72986
L77476 73014
" />
<path d="M77983 73380
L77983 73070
L77955 73014
L77898 72986
L77786 72986
L77730 73014
" />
<path d="M77983 73352
L77926 73380
L77786 73380
L77730 73352
L77701 73295
L77701 73239
L77730 73183
L77786 73155
L77926 73155
L77983 73127
" />
<path d="M78517 73380
L78517 72789
" />
<path d="M78517 73352
L78461 73380
L78348 73380
L78292 73352
L78264 73323
L78236 73267
L78236 73099
L78264 73042
L78292 73014
L78348 72986
L78461 72986
L78517 73014
" />
<path d="M78658 73436
L79108 73436
" />
<path d="M79248 72986
L79248 73577
" />
<path d="M79248 73014
L79304 72986
L79417 72986
L79473 73014
L79501 73042
L79529 73099
L79529 73267
L79501 73323
L79473 73352
L79417 73380
L79304 73380
L79248 73352
" />
<path d="M80036 73352
L79979 73380
L79867 73380
L79811 73352
L79782 73323
L79754 73267
L79754 73099
L79782 73042
L79811 73014
L79867 72986
L79979 72986
L80036 73014
" />
<path d="M80289 73380
L80289 72789
" />
<path d="M80289 73014
L80345 72986
L80457 72986
L80514 73014
L80542 73042
L80570 73099
L80570 73267
L80542 73323
L80514 73352
L80457 73380
L80345 73380
L80289 73352
" />
</g>
<g style="fill:#000000; fill-opacity:0.0; 
stroke:#000000; stroke-width:39.3701; stroke-opacity:1; 
stroke-linecap:round; stroke-linejoin:round;">
</g>
<g style="fill:#000000; fill-opacity:0.0; 
stroke:#000000; stroke-width:59.0551; stroke-opacity:1; 
stroke-linecap:round; stroke-linejoin:round;">
<path d="M69685 71459
L112205 71459
" />
</g>
<g style="fill:#000000; fill-opacity:0.0; 
stroke:#000000; stroke-width:39.3701; stroke-opacity:1; 
stroke-linecap:round; stroke-linejoin:round;">
</g>
<g style="fill:#000000; fill-opacity:0.0; 
stroke:#000000; stroke-width:59.0551; stroke-opacity:1; 
stroke-linecap:round; stroke-linejoin:round;">
<path d="M70221 72289
L70305 72317
L70446 72317
L70502 72289
L70530 72260
L70559 72204
L70559 72148
L70530 72092
L70502 72064
L70446 72036
L70334 72007
L70277 71979
L70249 71951
L70221 71895
L70221 71839
L70249 71782
L70277 71754
L70334 71726
L70474 71726
L70559 71754
" />
<path d="M70812 72317
L70812 71726
" />
<path d="M71065 72317
L71065 72007
L71037 71951
L70980 71923
L70896 71923
L70840 71951
L70812 71979
" />
<path d="M71571 72289
L71515 72317
L71402 72317
L71346 72289
L71318 72232
L71318 72007
L71346 71951
L71402 71923
L71515 71923
L71571 71951
L71599 72007
L71599 72064
L71318 72120
" />
<path d="M72077 72289
L72021 72317
L71908 72317
L71852 72289
L71824 72232
L71824 72007
L71852 71951
L71908 71923
L72021 71923
L72077 71951
L72105 72007
L72105 72064
L71824 72120
" />
<path d="M72274 71923
L72499 71923
" />
<path d="M72358 71726
L72358 72232
L72386 72289
L72443 72317
L72499 72317
" />
<path d="M72696 72260
L72724 72289
L72696 72317
L72668 72289
L72696 72260
L72696 72317
" />
<path d="M72696 71951
L72724 71979
L72696 72007
L72668 71979
L72696 71951
L72696 72007
" />
</g>
<g style="fill:#000000; fill-opacity:0.0; 
stroke:#000000; stroke-width:39.3701; stroke-opacity:1; 
stroke-linecap:round; stroke-linejoin:round;">
</g>
<g style="fill:#000000; fill-opacity:0.0; 
stroke:#000000; stroke-width:118.11; stroke-opacity:1; 
stroke-linecap:round; stroke-linejoin:round;">
<path d="M70296 71136
L70296 70545
" />
<path d="M70296 70826
L70634 70826
" />
<path d="M70634 71136
L70634 70545
" />
<path d="M71168 71136
L71168 70826
L71140 70770
L71084 70742
L70971 70742
L70915 70770
" />
<path d="M71168 71108
L71112 71136
L70971 71136
L70915 71108
L70887 71051
L70887 70995
L70915 70939
L70971 70911
L71112 70911
L71168 70883
" />
<path d="M71449 70742
L71449 71332
" />
<path d="M71449 70770
L71506 70742
L71618 70742
L71674 70770
L71703 70798
L71731 70854
L71731 71023
L71703 71079
L71674 71108
L71618 71136
L71506 71136
L71449 71108
" />
<path d="M71984 70742
L71984 71332
" />
<path d="M71984 70770
L72040 70742
L72153 70742
L72209 70770
L72237 70798
L72265 70854
L72265 71023
L72237 71079
L72209 71108
L72153 71136
L72040 71136
L71984 71108
" />
<path d="M72462 70742
L72602 71136
" />
<path d="M72743 70742
L72602 71136
L72546 71276
L72518 71304
L72462 71332
" />
<path d="M73390 71108
L73474 71136
L73615 71136
L73671 71108
L73699 71079
L73727 71023
L73727 70967
L73699 70911
L73671 70883
L73615 70854
L73502 70826
L73446 70798
L73418 70770
L73390 70714
L73390 70658
L73418 70601
L73446 70573
L73502 70545
L73643 70545
L73727 70573
" />
<path d="M73980 71136
L73980 70545
" />
<path d="M74233 71136
L74233 70826
L74205 70770
L74149 70742
L74065 70742
L74009 70770
L73980 70798
" />
<path d="M74599 71136
L74543 71108
L74515 71079
L74487 71023
L74487 70854
L74515 70798
L74543 70770
L74599 70742
L74683 70742
L74740 70770
L74768 70798
L74796 70854
L74796 71023
L74768 71079
L74740 71108
L74683 71136
L74599 71136
" />
<path d="M75133 71136
L75077 71108
L75049 71079
L75021 71023
L75021 70854
L75049 70798
L75077 70770
L75133 70742
L75218 70742
L75274 70770
L75302 70798
L75330 70854
L75330 71023
L75302 71079
L75274 71108
L75218 71136
L75133 71136
" />
<path d="M75499 70742
L75724 70742
" />
<path d="M75583 70545
L75583 71051
L75611 71108
L75668 71136
L75724 71136
" />
<path d="M75921 71136
L75921 70742
" />
<path d="M75921 70545
L75893 70573
L75921 70601
L75949 70573
L75921 70545
L75921 70601
" />
<path d="M76202 70742
L76202 71136
" />
<path d="M76202 70798
L76230 70770
L76286 70742
L76371 70742
L76427 70770
L76455 70826
L76455 71136
" />
<path d="M76989 70742
L76989 71220
L76961 71276
L76933 71304
L76877 71332
L76793 71332
L76736 71304
" />
<path d="M76989 71108
L76933 71136
L76821 71136
L76764 71108
L76736 71079
L76708 71023
L76708 70854
L76736 70798
L76764 70770
L76821 70742
L76933 70742
L76989 70770
" />
<path d="M78058 71079
L78030 71108
L77946 71136
L77889 71136
L77805 71108
L77749 71051
L77721 70995
L77692 70883
L77692 70798
L77721 70686
L77749 70629
L77805 70573
L77889 70545
L77946 70545
L78030 70573
L78058 70601
" />
<path d="M78395 71136
L78339 71108
L78311 71079
L78283 71023
L78283 70854
L78311 70798
L78339 70770
L78395 70742
L78480 70742
L78536 70770
L78564 70798
L78592 70854
L78592 71023
L78564 71079
L78536 71108
L78480 71136
L78395 71136
" />
<path d="M78845 71136
L78845 70742
" />
<path d="M78845 70798
L78874 70770
L78930 70742
L79014 70742
L79070 70770
L79099 70826
L79099 71136
" />
<path d="M79099 70826
L79127 70770
L79183 70742
L79267 70742
L79323 70770
L79352 70826
L79352 71136
" />
<path d="M79633 71136
L79633 70742
" />
<path d="M79633 70798
L79661 70770
L79717 70742
L79802 70742
L79858 70770
L79886 70826
L79886 71136
" />
<path d="M79886 70826
L79914 70770
L79970 70742
L80055 70742
L80111 70770
L80139 70826
L80139 71136
" />
<path d="M80673 70742
L80673 71136
" />
<path d="M80420 70742
L80420 71051
L80448 71108
L80505 71136
L80589 71136
L80645 71108
L80673 71079
" />
<path d="M80955 70742
L80955 71136
" />
<path d="M80955 70798
L80983 70770
L81039 70742
L81123 70742
L81180 70770
L81208 70826
L81208 71136
" />
<path d="M81489 71136
L81489 70742
" />
<path d="M81489 70545
L81461 70573
L81489 70601
L81517 70573
L81489 70545
L81489 70601
" />
<path d="M81686 70742
L81911 70742
" />
<path d="M81770 70545
L81770 71051
L81798 71108
L81854 71136
L81911 71136
" />
<path d="M82051 70742
L82192 71136
" />
<path d="M82332 70742
L82192 71136
L82136 71276
L82108 71304
L82051 71332
" />
</g>
<g style="fill:#000000; fill-opacity:0.0; 
stroke:#000000; stroke-width:39.3701; stroke-opacity:1; 
stroke-linecap:round; stroke-linejoin:round;">
</g>
<g style="fill:#000000; fill-opacity:0.0; 
stroke:#000000; stroke-width:59.0551; stroke-opacity:1; 
stroke-linecap:round; stroke-linejoin:round;">
<path d="M77559 75396
L77559 76577
" />
</g>
<g style="fill:#000000; fill-opacity:0.0; 
stroke:#000000; stroke-width:39.3701; stroke-opacity:1; 
stroke-linecap:round; stroke-linejoin:round;">
</g>
<g style="fill:#000000; fill-opacity:0.0; 
stroke:#000000; stroke-width:59.0551; stroke-opacity:1; 
stroke-linecap:round; stroke-linejoin:round;">
<path d="M102756 75396
L102756 77955
" />
</g>
<g style="fill:#000000; fill-opacity:0.0; 
stroke:#000000; stroke-width:59.0551; stroke-opacity:1; 
stroke-linecap:round; stroke-linejoin:round;">
<circle cx="34230" cy="20350" r="353.554" /> 
<path d="M36730 28100
L31730 28100
" />
<path d="M36730 23100
L36730 28100
" />
<path d="M31730 23100
L36730 23100
" />
<path d="M31730 28100
L31730 23100
" />
<path d="M36730 31891
L36632 31891
" />
<path d="M36730 30316
L36730 31891
" />
<path d="M34270 30316
L36730 30316
" />
<path d="M34270 31891
L34270 30316
" />
<path d="M36632 31891
L34270 31891
" />
<path d="M32931 33620
L31931 33620
" />
<path d="M32931 34620
L32931 33620
" />
<path d="M31931 34620
L32931 34620
" />
<path d="M31931 29620
L31931 34620
" />
<path d="M32931 29620
L31931 29620
" />
<path d="M32931 34620
L32931 29620
" />
<path d="M34730 21100
L34730 19600
" />
<path d="M33730 21100
L34730 21100
" />
<path d="M33730 19600
L33730 21100
" />
<path d="M34730 19600
L33730 19600
" />
<path d="M32230 13600
L32230 13100
" />
<path d="M36230 13600
L32230 13600
" />
<path d="M36230 13100
L36230 13600
" />
<path d="M31730 18100
L31730 13100
" />
<path d="M36730 18100
L31730 18100
" />
<path d="M36730 13100
L36730 18100
" />
<path d="M32730 37100
L32730 37600
" />
<path d="M32730 37600
L35730 37600
" />
<path d="M35730 37600
L35730 37100
" />
<path d="M32730 35100
L35730 35100
" />
<path d="M35730 35100
L35730 37100
" />
<path d="M32730 35100
L32730 37100
" />
<path d="M37730 37100
L37730 13100
" />
<path d="M37730 13100
L30730 13100
" />
<path d="M30730 13100
L30730 37100
" />
<path d="M30730 37100
L37730 37100
" />
</g>
<g style="fill:#000000; fill-opacity:1.0; 
stroke:#000000; stroke-width:39.3701; stroke-opacity:1; 
stroke-linecap:round; stroke-linejoin:round;">
<path style="fill:#000000; fill-opacity:1.0; 
stroke:#000000; stroke-width:39.3701; stroke-opacity:1; 
stroke-linecap:round; stroke-linejoin:round;fill-rule:evenodd;"
d="M 34050,24141
33950,24241
34100,24341
34200,24241
Z" /> 
<path style="fill:#000000; fill-opacity:1.0; 
stroke:#000000; stroke-width:39.3701; stroke-opacity:1; 
stroke-linecap:round; stroke-linejoin:round;fill-rule:evenodd;"
d="M 34250,24291
34150,24391
34300,24491
34400,24391
Z" /> 
<path style="fill:#000000; fill-opacity:1.0; 
stroke:#000000; stroke-width:39.3701; stroke-opacity:1; 
stroke-linecap:round; stroke-linejoin:round;fill-rule:evenodd;"
d="M 34450,24441
34350,24541
34500,24641
34600,24541
Z" /> 
<path style="fill:#000000; fill-opacity:1.0; 
stroke:#000000; stroke-width:39.3701; stroke-opacity:1; 
stroke-linecap:round; stroke-linejoin:round;fill-rule:evenodd;"
d="M 34100,24441
34000,24541
34150,24641
34250,24541
Z" /> 
<path style="fill:#000000; fill-opacity:1.0; 
stroke:#000000; stroke-width:39.3701; stroke-opacity:1; 
stroke-linecap:round; stroke-linejoin:round;fill-rule:evenodd;"
d="M 34300,24591
34200,24691
34350,24791
34450,24691
Z" /> 
<path style="fill:#000000; fill-opacity:1.0; 
stroke:#000000; stroke-width:39.3701; stroke-opacity:1; 
stroke-linecap:round; stroke-linejoin:round;fill-rule:evenodd;"
d="M 34500,24741
34400,24841
34550,24941
34650,24841
Z" /> 
<path style="fill:#000000; fill-opacity:1.0; 
stroke:#000000; stroke-width:39.3701; stroke-opacity:1; 
stroke-linecap:round; stroke-linejoin:round;fill-rule:evenodd;"
d="M 34200,23991
34100,24091
34250,24191
34350,24091
Z" /> 
<path style="fill:#000000; fill-opacity:1.0; 
stroke:#000000; stroke-width:39.3701; stroke-opacity:1; 
stroke-linecap:round; stroke-linejoin:round;fill-rule:evenodd;"
d="M 34350,23841
34250,23941
34400,24041
34500,23941
Z" /> 
</g>
<g style="fill:#000000; fill-opacity:1.0; 
stroke:#000000; stroke-width:47.2441; stroke-opacity:1; 
stroke-linecap:round; stroke-linejoin:round;">
</g>
<g style="fill:#000000; fill-opacity:0.0; 
stroke:#000000; stroke-width:47.2441; stroke-opacity:1; 
stroke-linecap:round; stroke-linejoin:round;">
<path d="M54072 21081
L54072 20490
" />
<path d="M54564 19506
L56336 19506
" />
<path d="M56828 20490
L56828 21081
" />
<path d="M56336 22065
L54564 22065
" />
<path d="M54072 16881
L54072 16290
" />
<path d="M54564 15306
L56336 15306
" />
<path d="M56828 16290
L56828 16881
" />
<path d="M56336 17865
L54564 17865
" />
<path d="M60972 16881
L60972 16290
" />
<path d="M61464 15306
L63236 15306
" />
<path d="M63728 16290
L63728 16881
" />
<path d="M63236 17865
L61464 17865
" />
<path d="M51271 25994
L55570 25994
" />
<path d="M51271 32742
L51271 25994
" />
<path d="M51271 32742
L55570 32742
" />
<circle cx="55570.9" cy="29368.5" r="3374.02" /> 
<path d="M70971 31794
L75270 31794
" />
<path d="M70971 38542
L70971 31794
" />
<path d="M70971 38542
L75270 38542
" />
<circle cx="75270.9" cy="35168.5" r="3374.02" /> 
<path d="M70971 24594
L75270 24594
" />
<path d="M70971 31342
L70971 24594
" />
<path d="M70971 31342
L75270 31342
" />
<circle cx="75270.9" cy="27968.5" r="3374.02" /> 
<path d="M70971 17294
L75270 17294
" />
<path d="M70971 24042
L70971 17294
" />
<path d="M70971 24042
L75270 24042
" />
<circle cx="75270.9" cy="20668.5" r="3374.02" /> 
<path d="M70971 9994
L75270 9994
" />
<path d="M70971 16742
L70971 9994
" />
<path d="M70971 16742
L75270 16742
" />
<circle cx="75270.9" cy="13368.5" r="3374.02" /> 
<path d="M87788 38655
L83489 38655
" />
<path d="M87788 31907
L87788 38655
" />
<path d="M87788 31907
L83489 31907
" />
<circle cx="83489.1" cy="35281.5" r="3374.02" /> 
<path d="M87788 31155
L83489 31155
" />
<path d="M87788 24407
L87788 31155
" />
<path d="M87788 24407
L83489 24407
" />
<circle cx="83489.1" cy="27781.5" r="3374.02" /> 
<path d="M87788 23905
L83489 23905
" />
<path d="M87788 17157
L87788 23905
" />
<path d="M87788 17157
L83489 17157
" />
<circle cx="83489.1" cy="20531.5" r="3374.02" /> 
<path d="M87788 16655
L83489 16655
" />
<path d="M87788 9907
L87788 16655
" />
<path d="M87788 9907
L83489 9907
" />
<circle cx="83489.1" cy="13281.5" r="3374.02" /> 
<path d="M91831 35281
L91831 34690
" />
<path d="M92323 33706
L94095 33706
" />
<path d="M94587 34690
L94587 35281
" />
<path d="M94095 36265
L92323 36265
" />
<path d="M94587 27318
L94587 27909
" />
<path d="M94095 28893
L92323 28893
" />
<path d="M91831 27909
L91831 27318
" />
<path d="M92323 26334
L94095 26334
" />
<path d="M91872 20681
L91872 20090
" />
<path d="M92364 19106
L94136 19106
" />
<path d="M94628 20090
L94628 20681
" />
<path d="M94136 21665
L92364 21665
" />
<path d="M94587 12618
L94587 13209
" />
<path d="M94095 14193
L92323 14193
" />
<path d="M91831 13209
L91831 12618
" />
<path d="M92323 11634
L94095 11634
" />
<path d="M42572 30681
L42572 30090
" />
<path d="M43064 29106
L44836 29106
" />
<path d="M45328 30090
L45328 30681
" />
<path d="M44836 31665
L43064 31665
" />
<path d="M47272 21081
L47272 20490
" />
<path d="M47764 19506
L49536 19506
" />
<path d="M50028 20490
L50028 21081
" />
<path d="M49536 22065
L47764 22065
" />
<path d="M47172 16881
L47172 16290
" />
<path d="M47664 15306
L49436 15306
" />
<path d="M49928 16290
L49928 16881
" />
<path d="M49436 17865
L47664 17865
" />
<path d="M47172 12481
L47172 11890
" />
<path d="M47664 10906
L49436 10906
" />
<path d="M49928 11890
L49928 12481
" />
<path d="M49436 13465
L47664 13465
" />
<path d="M54072 12481
L54072 11890
" />
<path d="M54564 10906
L56336 10906
" />
<path d="M56828 11890
L56828 12481
" />
<path d="M56336 13465
L54564 13465
" />
<path d="M61072 21081
L61072 20490
" />
<path d="M61564 19506
L63336 19506
" />
<path d="M63828 20490
L63828 21081
" />
<path d="M63336 22065
L61564 22065
" />
<path d="M60872 12481
L60872 11890
" />
<path d="M61364 10906
L63136 10906
" />
<path d="M63628 11890
L63628 12481
" />
<path d="M63136 13465
L61364 13465
" />
</g>
<g style="fill:#000000; fill-opacity:0.0; 
stroke:#000000; stroke-width:59.0551; stroke-opacity:1; 
stroke-linecap:round; stroke-linejoin:round;">
<path d="M38051 25821
L38445 25821
L38164 25690
L38445 25559
L38051 25559
" />
<path d="M38089 25146
L38070 25165
L38051 25221
L38051 25259
L38070 25315
L38108 25353
L38145 25371
L38220 25390
L38276 25390
L38351 25371
L38389 25353
L38426 25315
L38445 25259
L38445 25221
L38426 25165
L38408 25146
" />
<path d="M38445 24978
L38126 24978
L38089 24959
L38070 24940
L38051 24903
L38051 24828
L38070 24790
L38089 24771
L38126 24753
L38445 24753
" />
<path d="M38051 24359
L38051 24584
" />
<path d="M38051 24471
L38445 24471
L38389 24509
L38351 24546
L38333 24584
" />
<path d="M33465 33672
L33146 33672
L33109 33654
L33090 33635
L33071 33597
L33071 33522
L33090 33485
L33109 33466
L33146 33447
L33465 33447
" />
<path d="M33090 33279
L33071 33223
L33071 33129
L33090 33091
L33109 33073
L33146 33054
L33184 33054
L33221 33073
L33240 33091
L33259 33129
L33278 33204
L33296 33241
L33315 33260
L33353 33279
L33390 33279
L33428 33260
L33446 33241
L33465 33204
L33465 33110
L33446 33054
" />
<path d="M33278 32754
L33259 32698
L33240 32679
L33203 32660
L33146 32660
L33109 32679
L33090 32698
L33071 32735
L33071 32885
L33465 32885
L33465 32754
L33446 32716
L33428 32698
L33390 32679
L33353 32679
L33315 32698
L33296 32716
L33278 32754
L33278 32885
" />
<path d="M33071 32191
L33465 32191
" />
<path d="M33278 32191
L33278 31966
" />
<path d="M33071 31966
L33465 31966
" />
<path d="M33071 31723
L33090 31760
L33109 31779
L33146 31798
L33259 31798
L33296 31779
L33315 31760
L33334 31723
L33334 31666
L33315 31629
L33296 31610
L33259 31591
L33146 31591
L33109 31610
L33090 31629
L33071 31666
L33071 31723
" />
<path d="M33090 31441
L33071 31404
L33071 31329
L33090 31292
L33128 31273
L33146 31273
L33184 31292
L33203 31329
L33203 31385
L33221 31423
L33259 31441
L33278 31441
L33315 31423
L33334 31385
L33334 31329
L33315 31292
" />
<path d="M33334 31160
L33334 31010
" />
<path d="M33465 31104
L33128 31104
L33090 31085
L33071 31048
L33071 31010
" />
<path d="M36644 29821
L36513 29821
" />
<path d="M36457 30028
L36644 30028
L36644 29634
L36457 29634
" />
<path d="M36344 29765
L36194 29765
" />
<path d="M36288 29634
L36288 29971
L36269 30009
L36232 30028
L36194 30028
" />
<path d="M36063 30028
L36063 29634
" />
<path d="M35894 30028
L35894 29821
L35913 29784
L35951 29765
L36007 29765
L36044 29784
L36063 29803
" />
<path d="M35557 30009
L35594 30028
L35669 30028
L35707 30009
L35726 29971
L35726 29821
L35707 29784
L35669 29765
L35594 29765
L35557 29784
L35538 29821
L35538 29859
L35726 29896
" />
<path d="M35370 30028
L35370 29765
" />
<path d="M35370 29840
L35351 29803
L35332 29784
L35295 29765
L35257 29765
" />
<path d="M35126 29765
L35126 30028
" />
<path d="M35126 29803
L35107 29784
L35070 29765
L35013 29765
L34976 29784
L34957 29821
L34957 30028
" />
<path d="M34620 30009
L34657 30028
L34732 30028
L34770 30009
L34788 29971
L34788 29821
L34770 29784
L34732 29765
L34657 29765
L34620 29784
L34601 29821
L34601 29859
L34788 29896
" />
<path d="M34488 29765
L34338 29765
" />
<path d="M34432 29634
L34432 29971
L34413 30009
L34376 30028
L34338 30028
" />
<path d="M34726 35384
L34726 35703
L34708 35740
L34689 35759
L34651 35778
L34576 35778
L34539 35759
L34520 35740
L34501 35703
L34501 35384
" />
<path d="M34333 35759
L34276 35778
L34183 35778
L34145 35759
L34126 35740
L34108 35703
L34108 35665
L34126 35628
L34145 35609
L34183 35590
L34258 35571
L34295 35553
L34314 35534
L34333 35496
L34333 35459
L34314 35421
L34295 35403
L34258 35384
L34164 35384
L34108 35403
" />
<path d="M33808 35571
L33751 35590
L33733 35609
L33714 35646
L33714 35703
L33733 35740
L33751 35759
L33789 35778
L33939 35778
L33939 35384
L33808 35384
L33770 35403
L33751 35421
L33733 35459
L33733 35496
L33751 35534
L33770 35553
L33808 35571
L33939 35571
" />
<path d="M34051 16827
L34445 16827
L34164 16696
L34445 16565
L34051 16565
" />
<path d="M34051 16378
L34314 16378
" />
<path d="M34445 16378
L34426 16396
L34408 16378
L34426 16359
L34445 16378
L34408 16378
" />
<path d="M34070 16021
L34051 16059
L34051 16134
L34070 16171
L34089 16190
L34126 16209
L34239 16209
L34276 16190
L34295 16171
L34314 16134
L34314 16059
L34295 16021
" />
<path d="M34051 15853
L34314 15853
" />
<path d="M34239 15853
L34276 15834
L34295 15815
L34314 15778
L34314 15740
" />
<path d="M34051 15553
L34070 15590
L34089 15609
L34126 15628
L34239 15628
L34276 15609
L34295 15590
L34314 15553
L34314 15496
L34295 15459
L34276 15440
L34239 15421
L34126 15421
L34089 15440
L34070 15459
L34051 15496
L34051 15553
" />
<path d="M34070 14971
L34051 14915
L34051 14821
L34070 14784
L34089 14765
L34126 14746
L34164 14746
L34201 14765
L34220 14784
L34239 14821
L34258 14896
L34276 14934
L34295 14953
L34333 14971
L34370 14971
L34408 14953
L34426 14934
L34445 14896
L34445 14803
L34426 14746
" />
<path d="M34051 14578
L34445 14578
L34445 14484
L34426 14428
L34389 14390
L34351 14372
L34276 14353
L34220 14353
L34145 14372
L34108 14390
L34070 14428
L34051 14484
L34051 14578
" />
<path d="M35443 25724
L35443 25449
L35352 25645
L35260 25449
L35260 25724
" />
<path d="M35128 25724
L35128 25449
" />
<path d="M34997 25724
L34997 25449
L34905 25645
L34813 25449
L34813 25724
" />
<path d="M34709 25449
L34525 25724
" />
<path d="M34525 25449
L34709 25724
" />
<path d="M34262 25724
L34354 25593
" />
<path d="M34420 25724
L34420 25449
L34315 25449
L34289 25462
L34275 25475
L34262 25501
L34262 25540
L34275 25567
L34289 25580
L34315 25593
L34420 25593
" />
<path d="M34184 25449
L34026 25449
" />
<path d="M34105 25724
L34105 25449
" />
<path d="M33790 25724
L33947 25724
" />
<path d="M33869 25724
L33869 25449
L33895 25488
L33921 25514
L33947 25527
" />
<path d="M33619 25449
L33593 25449
L33567 25462
L33554 25475
L33541 25501
L33527 25554
L33527 25619
L33541 25672
L33554 25698
L33567 25711
L33593 25724
L33619 25724
L33646 25711
L33659 25698
L33672 25672
L33685 25619
L33685 25554
L33672 25501
L33659 25475
L33646 25462
L33619 25449
" />
<path d="M33291 25449
L33344 25449
L33370 25462
L33383 25475
L33409 25514
L33422 25567
L33422 25672
L33409 25698
L33396 25711
L33370 25724
L33317 25724
L33291 25711
L33278 25698
L33265 25672
L33265 25606
L33278 25580
L33291 25567
L33317 25554
L33370 25554
L33396 25567
L33409 25580
L33422 25606
" />
<path d="M33160 25475
L33147 25462
L33121 25449
L33055 25449
L33029 25462
L33016 25475
L33002 25501
L33002 25527
L33016 25567
L33173 25724
L33002 25724
" />
<path d="M34845 26224
L34845 25949
L34779 25949
L34740 25962
L34714 25988
L34701 26014
L34688 26067
L34688 26106
L34701 26159
L34714 26185
L34740 26211
L34779 26224
L34845 26224
" />
<path d="M34609 25949
L34517 26224
L34425 25949
" />
<path d="M34254 25949
L34254 26145
L34268 26185
L34294 26211
L34333 26224
L34359 26224
" />
<path d="M34005 25949
L34058 25949
L34084 25962
L34097 25975
L34123 26014
L34136 26067
L34136 26172
L34123 26198
L34110 26211
L34084 26224
L34031 26224
L34005 26211
L33992 26198
L33979 26172
L33979 26106
L33992 26080
L34005 26067
L34031 26054
L34084 26054
L34110 26067
L34123 26080
L34136 26106
" />
<path d="M33874 26145
L33743 26145
" />
<path d="M33900 26224
L33808 25949
L33716 26224
" />
<path d="M55609 20671
L55553 20690
L55534 20709
L55516 20746
L55516 20803
L55534 20840
L55553 20859
L55591 20878
L55741 20878
L55741 20484
L55609 20484
L55572 20503
L55553 20521
L55534 20559
L55534 20596
L55553 20634
L55572 20653
L55609 20671
L55741 20671
" />
<path d="M55178 20484
L55253 20484
L55291 20503
L55309 20521
L55347 20578
L55366 20653
L55366 20803
L55347 20840
L55328 20859
L55291 20878
L55216 20878
L55178 20859
L55159 20840
L55141 20803
L55141 20709
L55159 20671
L55178 20653
L55216 20634
L55291 20634
L55328 20653
L55347 20671
L55366 20709
" />
<path d="M55609 16571
L55553 16590
L55534 16609
L55516 16646
L55516 16703
L55534 16740
L55553 16759
L55591 16778
L55741 16778
L55741 16384
L55609 16384
L55572 16403
L55553 16421
L55534 16459
L55534 16496
L55553 16534
L55572 16553
L55609 16571
L55741 16571
" />
<path d="M55159 16384
L55347 16384
L55366 16571
L55347 16553
L55309 16534
L55216 16534
L55178 16553
L55159 16571
L55141 16609
L55141 16703
L55159 16740
L55178 16759
L55216 16778
L55309 16778
L55347 16759
L55366 16740
" />
<path d="M62509 16571
L62453 16590
L62434 16609
L62416 16646
L62416 16703
L62434 16740
L62453 16759
L62491 16778
L62641 16778
L62641 16384
L62509 16384
L62472 16403
L62453 16421
L62434 16459
L62434 16496
L62453 16534
L62472 16553
L62509 16571
L62641 16571
" />
<path d="M62266 16421
L62247 16403
L62209 16384
L62116 16384
L62078 16403
L62059 16421
L62041 16459
L62041 16496
L62059 16553
L62284 16778
L62041 16778
" />
<path d="M52273 32578
L52404 32390
" />
<path d="M52498 32578
L52498 32184
L52348 32184
L52311 32203
L52292 32221
L52273 32259
L52273 32315
L52292 32353
L52311 32371
L52348 32390
L52498 32390
" />
<path d="M52104 32371
L51973 32371
" />
<path d="M51917 32578
L52104 32578
L52104 32184
L51917 32184
" />
<path d="M51730 32578
L51655 32578
L51617 32559
L51598 32540
L51561 32484
L51542 32409
L51542 32259
L51561 32221
L51580 32203
L51617 32184
L51692 32184
L51730 32203
L51748 32221
L51767 32259
L51767 32353
L51748 32390
L51730 32409
L51692 32428
L51617 32428
L51580 32409
L51561 32390
L51542 32353
" />
<path d="M72073 38278
L72204 38090
" />
<path d="M72298 38278
L72298 37884
L72148 37884
L72111 37903
L72092 37921
L72073 37959
L72073 38015
L72092 38053
L72111 38071
L72148 38090
L72298 38090
" />
<path d="M71904 38071
L71773 38071
" />
<path d="M71717 38278
L71904 38278
L71904 37884
L71717 37884
" />
<path d="M71492 38053
L71530 38034
L71548 38015
L71567 37978
L71567 37959
L71548 37921
L71530 37903
L71492 37884
L71417 37884
L71380 37903
L71361 37921
L71342 37959
L71342 37978
L71361 38015
L71380 38034
L71417 38053
L71492 38053
L71530 38071
L71548 38090
L71567 38128
L71567 38203
L71548 38240
L71530 38259
L71492 38278
L71417 38278
L71380 38259
L71361 38240
L71342 38203
L71342 38128
L71361 38090
L71380 38071
L71417 38053
" />
<path d="M71973 31078
L72104 30890
" />
<path d="M72198 31078
L72198 30684
L72048 30684
L72011 30703
L71992 30721
L71973 30759
L71973 30815
L71992 30853
L72011 30871
L72048 30890
L72198 30890
" />
<path d="M71804 30871
L71673 30871
" />
<path d="M71617 31078
L71804 31078
L71804 30684
L71617 30684
" />
<path d="M71486 30684
L71223 30684
L71392 31078
" />
<path d="M72073 23878
L72204 23690
" />
<path d="M72298 23878
L72298 23484
L72148 23484
L72111 23503
L72092 23521
L72073 23559
L72073 23615
L72092 23653
L72111 23671
L72148 23690
L72298 23690
" />
<path d="M71904 23671
L71773 23671
" />
<path d="M71717 23878
L71904 23878
L71904 23484
L71717 23484
" />
<path d="M71380 23484
L71455 23484
L71492 23503
L71511 23521
L71548 23578
L71567 23653
L71567 23803
L71548 23840
L71530 23859
L71492 23878
L71417 23878
L71380 23859
L71361 23840
L71342 23803
L71342 23709
L71361 23671
L71380 23653
L71417 23634
L71492 23634
L71530 23653
L71548 23671
L71567 23709
" />
<path d="M72073 16678
L72204 16490
" />
<path d="M72298 16678
L72298 16284
L72148 16284
L72111 16303
L72092 16321
L72073 16359
L72073 16415
L72092 16453
L72111 16471
L72148 16490
L72298 16490
" />
<path d="M71904 16471
L71773 16471
" />
<path d="M71717 16678
L71904 16678
L71904 16284
L71717 16284
" />
<path d="M71361 16284
L71548 16284
L71567 16471
L71548 16453
L71511 16434
L71417 16434
L71380 16453
L71361 16471
L71342 16509
L71342 16603
L71361 16640
L71380 16659
L71417 16678
L71511 16678
L71548 16659
L71567 16640
" />
<path d="M81073 38478
L81204 38290
" />
<path d="M81298 38478
L81298 38084
L81148 38084
L81111 38103
L81092 38121
L81073 38159
L81073 38215
L81092 38253
L81111 38271
L81148 38290
L81298 38290
" />
<path d="M80904 38271
L80773 38271
" />
<path d="M80717 38478
L80904 38478
L80904 38084
L80717 38084
" />
<path d="M80380 38215
L80380 38478
" />
<path d="M80473 38065
L80567 38346
L80323 38346
" />
<path d="M81073 30978
L81204 30790
" />
<path d="M81298 30978
L81298 30584
L81148 30584
L81111 30603
L81092 30621
L81073 30659
L81073 30715
L81092 30753
L81111 30771
L81148 30790
L81298 30790
" />
<path d="M80904 30771
L80773 30771
" />
<path d="M80717 30978
L80904 30978
L80904 30584
L80717 30584
" />
<path d="M80586 30584
L80342 30584
L80473 30734
L80417 30734
L80380 30753
L80361 30771
L80342 30809
L80342 30903
L80361 30940
L80380 30959
L80417 30978
L80530 30978
L80567 30959
L80586 30940
" />
<path d="M80973 23778
L81104 23590
" />
<path d="M81198 23778
L81198 23384
L81048 23384
L81011 23403
L80992 23421
L80973 23459
L80973 23515
L80992 23553
L81011 23571
L81048 23590
L81198 23590
" />
<path d="M80804 23571
L80673 23571
" />
<path d="M80617 23778
L80804 23778
L80804 23384
L80617 23384
" />
<path d="M80467 23421
L80448 23403
L80411 23384
L80317 23384
L80280 23403
L80261 23421
L80242 23459
L80242 23496
L80261 23553
L80486 23778
L80242 23778
" />
<path d="M80973 16578
L81104 16390
" />
<path d="M81198 16578
L81198 16184
L81048 16184
L81011 16203
L80992 16221
L80973 16259
L80973 16315
L80992 16353
L81011 16371
L81048 16390
L81198 16390
" />
<path d="M80804 16371
L80673 16371
" />
<path d="M80617 16578
L80804 16578
L80804 16184
L80617 16184
" />
<path d="M80242 16578
L80467 16578
" />
<path d="M80355 16578
L80355 16184
L80392 16240
L80430 16278
L80467 16296
" />
<path d="M93631 34784
L93556 34784
L93518 34803
L93481 34840
L93462 34915
L93462 35046
L93481 35121
L93518 35159
L93556 35178
L93631 35178
L93668 35159
L93706 35121
L93725 35046
L93725 34915
L93706 34840
L93668 34803
L93631 34784
" />
<path d="M93162 34971
L93106 34990
L93087 35009
L93068 35046
L93068 35103
L93087 35140
L93106 35159
L93143 35178
L93293 35178
L93293 34784
L93162 34784
L93125 34803
L93106 34821
L93087 34859
L93087 34896
L93106 34934
L93125 34953
L93162 34971
L93293 34971
" />
<path d="M92731 34915
L92731 35178
" />
<path d="M92825 34765
L92918 35046
L92675 35046
" />
<path d="M93651 27384
L93576 27384
L93539 27403
L93501 27440
L93483 27515
L93483 27646
L93501 27721
L93539 27759
L93576 27778
L93651 27778
L93689 27759
L93726 27721
L93745 27646
L93745 27515
L93726 27440
L93689 27403
L93651 27384
" />
<path d="M93183 27571
L93126 27590
L93108 27609
L93089 27646
L93089 27703
L93108 27740
L93126 27759
L93164 27778
L93314 27778
L93314 27384
L93183 27384
L93145 27403
L93126 27421
L93108 27459
L93108 27496
L93126 27534
L93145 27553
L93183 27571
L93314 27571
" />
<path d="M92958 27384
L92714 27384
L92845 27534
L92789 27534
L92751 27553
L92733 27571
L92714 27609
L92714 27703
L92733 27740
L92751 27759
L92789 27778
L92901 27778
L92939 27759
L92958 27740
" />
<path d="M93651 20184
L93576 20184
L93539 20203
L93501 20240
L93483 20315
L93483 20446
L93501 20521
L93539 20559
L93576 20578
L93651 20578
L93689 20559
L93726 20521
L93745 20446
L93745 20315
L93726 20240
L93689 20203
L93651 20184
" />
<path d="M93183 20371
L93126 20390
L93108 20409
L93089 20446
L93089 20503
L93108 20540
L93126 20559
L93164 20578
L93314 20578
L93314 20184
L93183 20184
L93145 20203
L93126 20221
L93108 20259
L93108 20296
L93126 20334
L93145 20353
L93183 20371
L93314 20371
" />
<path d="M92939 20221
L92920 20203
L92883 20184
L92789 20184
L92751 20203
L92733 20221
L92714 20259
L92714 20296
L92733 20353
L92958 20578
L92714 20578
" />
<path d="M93651 12684
L93576 12684
L93539 12703
L93501 12740
L93483 12815
L93483 12946
L93501 13021
L93539 13059
L93576 13078
L93651 13078
L93689 13059
L93726 13021
L93745 12946
L93745 12815
L93726 12740
L93689 12703
L93651 12684
" />
<path d="M93183 12871
L93126 12890
L93108 12909
L93089 12946
L93089 13003
L93108 13040
L93126 13059
L93164 13078
L93314 13078
L93314 12684
L93183 12684
L93145 12703
L93126 12721
L93108 12759
L93108 12796
L93126 12834
L93145 12853
L93183 12871
L93314 12871
" />
<path d="M92714 13078
L92939 13078
" />
<path d="M92826 13078
L92826 12684
L92864 12740
L92901 12778
L92939 12796
" />
<path d="M44297 30371
L44241 30390
L44222 30409
L44203 30446
L44203 30503
L44222 30540
L44241 30559
L44278 30578
L44428 30578
L44428 30184
L44297 30184
L44259 30203
L44241 30221
L44222 30259
L44222 30296
L44241 30334
L44259 30353
L44297 30371
L44428 30371
" />
<path d="M43828 30578
L44053 30578
" />
<path d="M43941 30578
L43941 30184
L43978 30240
L44016 30278
L44053 30296
" />
<path d="M43584 30184
L43547 30184
L43509 30203
L43491 30221
L43472 30259
L43453 30334
L43453 30428
L43472 30503
L43491 30540
L43509 30559
L43547 30578
L43584 30578
L43622 30559
L43641 30540
L43659 30503
L43678 30428
L43678 30334
L43659 30259
L43641 30221
L43622 30203
L43584 30184
" />
<path d="M48789 20771
L48733 20790
L48714 20809
L48695 20846
L48695 20903
L48714 20940
L48733 20959
L48770 20978
L48920 20978
L48920 20584
L48789 20584
L48751 20603
L48733 20621
L48714 20659
L48714 20696
L48733 20734
L48751 20753
L48789 20771
L48920 20771
" />
<path d="M48508 20978
L48433 20978
L48395 20959
L48376 20940
L48339 20884
L48320 20809
L48320 20659
L48339 20621
L48358 20603
L48395 20584
L48470 20584
L48508 20603
L48526 20621
L48545 20659
L48545 20753
L48526 20790
L48508 20809
L48470 20828
L48395 20828
L48358 20809
L48339 20790
L48320 20753
" />
<path d="M48689 16571
L48633 16590
L48614 16609
L48595 16646
L48595 16703
L48614 16740
L48633 16759
L48670 16778
L48820 16778
L48820 16384
L48689 16384
L48651 16403
L48633 16421
L48614 16459
L48614 16496
L48633 16534
L48651 16553
L48689 16571
L48820 16571
" />
<path d="M48370 16553
L48408 16534
L48426 16515
L48445 16478
L48445 16459
L48426 16421
L48408 16403
L48370 16384
L48295 16384
L48258 16403
L48239 16421
L48220 16459
L48220 16478
L48239 16515
L48258 16534
L48295 16553
L48370 16553
L48408 16571
L48426 16590
L48445 16628
L48445 16703
L48426 16740
L48408 16759
L48370 16778
L48295 16778
L48258 16759
L48239 16740
L48220 16703
L48220 16628
L48239 16590
L48258 16571
L48295 16553
" />
<path d="M48689 12271
L48633 12290
L48614 12309
L48595 12346
L48595 12403
L48614 12440
L48633 12459
L48670 12478
L48820 12478
L48820 12084
L48689 12084
L48651 12103
L48633 12121
L48614 12159
L48614 12196
L48633 12234
L48651 12253
L48689 12271
L48820 12271
" />
<path d="M48464 12084
L48201 12084
L48370 12478
" />
<path d="M55609 12071
L55553 12090
L55534 12109
L55516 12146
L55516 12203
L55534 12240
L55553 12259
L55591 12278
L55741 12278
L55741 11884
L55609 11884
L55572 11903
L55553 11921
L55534 11959
L55534 11996
L55553 12034
L55572 12053
L55609 12071
L55741 12071
" />
<path d="M55178 12015
L55178 12278
" />
<path d="M55272 11865
L55366 12146
L55122 12146
" />
<path d="M62589 20771
L62533 20790
L62514 20809
L62495 20846
L62495 20903
L62514 20940
L62533 20959
L62570 20978
L62720 20978
L62720 20584
L62589 20584
L62551 20603
L62533 20621
L62514 20659
L62514 20696
L62533 20734
L62551 20753
L62589 20771
L62720 20771
" />
<path d="M62364 20584
L62120 20584
L62251 20734
L62195 20734
L62158 20753
L62139 20771
L62120 20809
L62120 20903
L62139 20940
L62158 20959
L62195 20978
L62308 20978
L62345 20959
L62364 20940
" />
<path d="M62409 12171
L62353 12190
L62334 12209
L62316 12246
L62316 12303
L62334 12340
L62353 12359
L62391 12378
L62541 12378
L62541 11984
L62409 11984
L62372 12003
L62353 12021
L62334 12059
L62334 12096
L62353 12134
L62372 12153
L62409 12171
L62541 12171
" />
<path d="M61941 12378
L62166 12378
" />
<path d="M62053 12378
L62053 11984
L62091 12040
L62128 12078
L62166 12096
" />
<g >
</g>
</g>
<g style="fill:#000000; fill-opacity:0.0; 
stroke:#000000; stroke-width:59.0551; stroke-opacity:1; 
stroke-linecap:round; stroke-linejoin:round;">
</g>
<g style="fill:#000000; fill-opacity:0.0; 
stroke:#000000; stroke-width:39.3701; stroke-opacity:1; 
stroke-linecap:round; stroke-linejoin:round;">
<path d="M98130 7700
L98030 7500
" />
<path d="M98130 32700
L98130 7700
" />
<path d="M98130 41400
L98130 32700
" />
<path d="M25130 41400
L98130 41400
" />
<path d="M25130 7500
L25130 41400
" />
<path d="M98030 7500
L25130 7500
" />
<g >
</g>
<g >
</g>
<g >
</g>
<g >
</g>
<g >
</g>
<g >
</g>
<g >
</g>
<g >
</g>
<g >
</g>
<g >
</g>
<g >
</g>
<g >
</g>
<g >
</g>
<g >
</g>
<g >
</g>
<g >
</g>
<g >
</g>
<g >
</g>
<g >
</g>
<g >
</g>
<g >
</g>
<g >
</g>
<g >
</g>
<g >
</g>
<g >
</g>
<g >
</g>
<g >
</g>
<g >
</g>
<g >
</g>
</g> 
</svg>
