  0
SECTION
  2
HEADER
  9
$ANGBASE
  50
0.0
  9
$ANGDIR
  70
1
  9
$MEASUREMENT
  70
1
  0
ENDSEC
  0
SECTION
  2
TABLES
  0
TABLE
  2
LTYPE
  70
4
  0
LTYPE
  5
40F
  2
CONTINUOUS
  70
0
  3
Solid line
  72
65
  73
0
  40
0.0
  0
LTYPE
  5
410
  2
DASHDOT
 70
0
  3
Dash Dot ____ _ ____ _
 72
65
 73
4
 40
2.0
 49
1.25
 49
-0.25
 49
0.25
 49
-0.25
  0
LTYPE
  5
411
  2
DASHED
 70
0
  3
Dashed __ __ __ __ __
 72
65
 73
2
 40
0.75
 49
0.5
 49
-0.25
  0
LTYPE
  5
43B
  2
DOTTED
 70
0
  3
Dotted .  .  .  .
 72
65
 73
2
 40
0.2
 49
0.0
 49
-0.2
  0
ENDTAB
  0
TABLE
  2
STYLE
  70
4
  0
STYLE
  2
KICAD
  70
0
  40
0
  41
1
  42
1
  50
0
  71
0
  3
isocp.shx
  0
STYLE
  2
KICADB
  70
0
  40
0
  41
1
  42
1
  50
0
  71
0
  3
isocp.shx
  0
STYLE
  2
KICADI
  70
0
  40
0
  41
1
  42
1
  50
15
  71
0
  3
isocp.shx
  0
STYLE
  2
KICADBI
  70
0
  40
0
  41
1
  42
1
  50
15
  71
0
  3
isocp.shx
  0
ENDTAB
  0
TABLE
  2
LAYER
  70
1
  0
LAYER
  2
BLACK
  70
0
  62
7
  6
CONTINUOUS
  0
ENDTAB
  0
ENDSEC
  0
SECTION
  2
ENTITIES
0
LINE
8
BLACK
6
CONTINUOUS
10
229.682
20
-62.2435
11
229.689
21
-62.2442
0
LINE
8
BLACK
6
CONTINUOUS
10
229.689
20
-62.2442
11
229.699
21
-62.2471
0
LINE
8
BLACK
6
CONTINUOUS
10
229.699
20
-62.2471
11
229.707
21
-62.2517
0
LINE
8
BLACK
6
CONTINUOUS
10
229.707
20
-62.2517
11
229.715
21
-62.258
0
LINE
8
BLACK
6
CONTINUOUS
10
229.715
20
-62.258
11
229.721
21
-62.2656
0
LINE
8
BLACK
6
CONTINUOUS
10
229.721
20
-62.2656
11
229.726
21
-62.2743
0
LINE
8
BLACK
6
CONTINUOUS
10
229.726
20
-62.2743
11
229.729
21
-62.2837
0
LINE
8
BLACK
6
CONTINUOUS
10
229.729
20
-62.2837
11
229.73
21
-62.2935
0
LINE
8
BLACK
6
CONTINUOUS
10
229.73
20
-62.2935
11
229.73
21
-62.2959
0
LINE
8
BLACK
6
CONTINUOUS
10
229.73
20
-62.2959
11
229.73
21
-160.78
0
LINE
8
BLACK
6
CONTINUOUS
10
229.73
20
-160.78
11
229.73
21
-160.782
0
LINE
8
BLACK
6
CONTINUOUS
10
229.73
20
-160.782
11
229.73
21
-160.784
0
LINE
8
BLACK
6
CONTINUOUS
10
229.73
20
-160.784
11
229.73
21
-160.784
0
LINE
8
BLACK
6
CONTINUOUS
10
229.73
20
-160.784
11
229.729
21
-160.792
0
LINE
8
BLACK
6
CONTINUOUS
10
229.729
20
-160.792
11
229.726
21
-160.801
0
LINE
8
BLACK
6
CONTINUOUS
10
229.726
20
-160.801
11
229.721
21
-160.81
0
LINE
8
BLACK
6
CONTINUOUS
10
229.721
20
-160.81
11
229.715
21
-160.818
0
LINE
8
BLACK
6
CONTINUOUS
10
229.715
20
-160.818
11
229.707
21
-160.824
0
LINE
8
BLACK
6
CONTINUOUS
10
229.707
20
-160.824
11
229.699
21
-160.828
0
LINE
8
BLACK
6
CONTINUOUS
10
229.699
20
-160.828
11
229.689
21
-160.831
0
LINE
8
BLACK
6
CONTINUOUS
10
229.689
20
-160.831
11
229.679
21
-160.832
0
LINE
8
BLACK
6
CONTINUOUS
10
229.679
20
-160.832
11
229.677
21
-160.832
0
LINE
8
BLACK
6
CONTINUOUS
10
229.677
20
-160.832
11
76.3294
21
-160.832
0
LINE
8
BLACK
6
CONTINUOUS
10
76.3294
20
-160.832
11
76.327
21
-160.832
0
LINE
8
BLACK
6
CONTINUOUS
10
76.327
20
-160.832
11
76.3172
21
-160.831
0
LINE
8
BLACK
6
CONTINUOUS
10
76.3172
20
-160.831
11
76.3078
21
-160.828
0
LINE
8
BLACK
6
CONTINUOUS
10
76.3078
20
-160.828
11
76.2991
21
-160.824
0
LINE
8
BLACK
6
CONTINUOUS
10
76.2991
20
-160.824
11
76.2915
21
-160.818
0
LINE
8
BLACK
6
CONTINUOUS
10
76.2915
20
-160.818
11
76.2852
21
-160.81
0
LINE
8
BLACK
6
CONTINUOUS
10
76.2852
20
-160.81
11
76.2806
21
-160.801
0
LINE
8
BLACK
6
CONTINUOUS
10
76.2806
20
-160.801
11
76.2777
21
-160.792
0
LINE
8
BLACK
6
CONTINUOUS
10
76.2777
20
-160.792
11
76.2768
21
-160.782
0
LINE
8
BLACK
6
CONTINUOUS
10
76.2768
20
-160.782
11
76.277
21
-160.78
0
LINE
8
BLACK
6
CONTINUOUS
10
76.277
20
-160.78
11
76.277
21
-62.296
0
LINE
8
BLACK
6
CONTINUOUS
10
76.277
20
-62.296
11
76.2768
21
-62.2935
0
LINE
8
BLACK
6
CONTINUOUS
10
76.2768
20
-62.2935
11
76.2777
21
-62.2837
0
LINE
8
BLACK
6
CONTINUOUS
10
76.2777
20
-62.2837
11
76.2806
21
-62.2743
0
LINE
8
BLACK
6
CONTINUOUS
10
76.2806
20
-62.2743
11
76.2852
21
-62.2656
0
LINE
8
BLACK
6
CONTINUOUS
10
76.2852
20
-62.2656
11
76.2915
21
-62.258
0
LINE
8
BLACK
6
CONTINUOUS
10
76.2915
20
-62.258
11
76.2991
21
-62.2517
0
LINE
8
BLACK
6
CONTINUOUS
10
76.2991
20
-62.2517
11
76.3078
21
-62.2471
0
LINE
8
BLACK
6
CONTINUOUS
10
76.3078
20
-62.2471
11
76.3172
21
-62.2442
0
LINE
8
BLACK
6
CONTINUOUS
10
76.3172
20
-62.2442
11
76.3246
21
-62.2435
0
LINE
8
BLACK
6
CONTINUOUS
10
76.3246
20
-62.2435
11
76.327
21
-62.2433
0
LINE
8
BLACK
6
CONTINUOUS
10
76.327
20
-62.2433
11
76.3294
21
-62.2435
0
LINE
8
BLACK
6
CONTINUOUS
10
76.3294
20
-62.2435
11
229.677
21
-62.2435
0
LINE
8
BLACK
6
CONTINUOUS
10
229.677
20
-62.2435
11
229.679
21
-62.2433
0
LINE
8
BLACK
6
CONTINUOUS
10
229.679
20
-62.2433
11
229.682
21
-62.2435
0
LINE
8
BLACK
6
CONTINUOUS
10
76.377
20
-62.3435
11
76.377
21
-160.732
0
LINE
8
BLACK
6
CONTINUOUS
10
76.377
20
-160.732
11
229.63
21
-160.732
0
LINE
8
BLACK
6
CONTINUOUS
10
229.63
20
-160.732
11
229.629
21
-62.3435
0
LINE
8
BLACK
6
CONTINUOUS
10
229.629
20
-62.3435
11
76.377
21
-62.3435
  0
ENDSEC
  0
EOF
