  0
SECTION
  2
HEADER
  9
$ANGBASE
  50
0.0
  9
$ANGDIR
  70
1
  9
$MEASUREMENT
  70
0
  0
ENDSEC
  0
SECTION
  2
TABLES
  0
TABLE
  2
LTYPE
  70
4
  0
LTYPE
  5
40F
  2
CONTINUOUS
  70
0
  3
Solid line
  72
65
  73
0
  40
0.0
  0
LTYPE
  5
410
  2
DASHDOT
 70
0
  3
Dash Dot ____ _ ____ _
 72
65
 73
4
 40
2.0
 49
1.25
 49
-0.25
 49
0.25
 49
-0.25
  0
LTYPE
  5
411
  2
DASHED
 70
0
  3
Dashed __ __ __ __ __
 72
65
 73
2
 40
0.75
 49
0.5
 49
-0.25
  0
LTYPE
  5
43B
  2
DOTTED
 70
0
  3
Dotted .  .  .  .
 72
65
 73
2
 40
0.2
 49
0.0
 49
-0.2
  0
ENDTAB
  0
TABLE
  2
STYLE
  70
4
  0
STYLE
  2
KICAD
  70
0
  40
0
  41
1
  42
1
  50
0
  71
0
  3
isocp.shx
  0
STYLE
  2
KICADB
  70
0
  40
0
  41
1
  42
1
  50
0
  71
0
  3
isocp.shx
  0
STYLE
  2
KICADI
  70
0
  40
0
  41
1
  42
1
  50
15
  71
0
  3
isocp.shx
  0
STYLE
  2
KICADBI
  70
0
  40
0
  41
1
  42
1
  50
15
  71
0
  3
isocp.shx
  0
ENDTAB
  0
TABLE
  2
LAYER
  70
1
  0
LAYER
  2
BLACK
  70
0
  62
7
  6
CONTINUOUS
  0
ENDTAB
  0
ENDSEC
  0
SECTION
  2
ENTITIES
0
LINE
8
BLACK
6
CONTINUOUS
10
9.0426
20
-2.45053
11
9.04289
21
-2.45056
0
LINE
8
BLACK
6
CONTINUOUS
10
9.04289
20
-2.45056
11
9.04326
21
-2.45067
0
LINE
8
BLACK
6
CONTINUOUS
10
9.04326
20
-2.45067
11
9.0436
21
-2.45086
0
LINE
8
BLACK
6
CONTINUOUS
10
9.0436
20
-2.45086
11
9.0439
21
-2.4511
0
LINE
8
BLACK
6
CONTINUOUS
10
9.0439
20
-2.4511
11
9.04414
21
-2.4514
0
LINE
8
BLACK
6
CONTINUOUS
10
9.04414
20
-2.4514
11
9.04433
21
-2.45174
0
LINE
8
BLACK
6
CONTINUOUS
10
9.04433
20
-2.45174
11
9.04444
21
-2.45211
0
LINE
8
BLACK
6
CONTINUOUS
10
9.04444
20
-2.45211
11
9.04448
21
-2.4525
0
LINE
8
BLACK
6
CONTINUOUS
10
9.04448
20
-2.4525
11
9.04447
21
-2.4526
0
LINE
8
BLACK
6
CONTINUOUS
10
9.04447
20
-2.4526
11
9.04447
21
-6.3299
0
LINE
8
BLACK
6
CONTINUOUS
10
9.04447
20
-6.3299
11
9.04448
21
-6.33
0
LINE
8
BLACK
6
CONTINUOUS
10
9.04448
20
-6.33
11
9.04447
21
-6.3301
0
LINE
8
BLACK
6
CONTINUOUS
10
9.04447
20
-6.3301
11
9.04447
21
-6.3301
0
LINE
8
BLACK
6
CONTINUOUS
10
9.04447
20
-6.3301
11
9.04444
21
-6.33039
0
LINE
8
BLACK
6
CONTINUOUS
10
9.04444
20
-6.33039
11
9.04433
21
-6.33076
0
LINE
8
BLACK
6
CONTINUOUS
10
9.04433
20
-6.33076
11
9.04414
21
-6.3311
0
LINE
8
BLACK
6
CONTINUOUS
10
9.04414
20
-6.3311
11
9.0439
21
-6.3314
0
LINE
8
BLACK
6
CONTINUOUS
10
9.0439
20
-6.3314
11
9.0436
21
-6.33164
0
LINE
8
BLACK
6
CONTINUOUS
10
9.0436
20
-6.33164
11
9.04326
21
-6.33183
0
LINE
8
BLACK
6
CONTINUOUS
10
9.04326
20
-6.33183
11
9.04289
21
-6.33194
0
LINE
8
BLACK
6
CONTINUOUS
10
9.04289
20
-6.33194
11
9.0425
21
-6.33198
0
LINE
8
BLACK
6
CONTINUOUS
10
9.0425
20
-6.33198
11
9.0424
21
-6.33197
0
LINE
8
BLACK
6
CONTINUOUS
10
9.0424
20
-6.33197
11
3.0051
21
-6.33197
0
LINE
8
BLACK
6
CONTINUOUS
10
3.0051
20
-6.33197
11
3.005
21
-6.33198
0
LINE
8
BLACK
6
CONTINUOUS
10
3.005
20
-6.33198
11
3.00461
21
-6.33194
0
LINE
8
BLACK
6
CONTINUOUS
10
3.00461
20
-6.33194
11
3.00424
21
-6.33183
0
LINE
8
BLACK
6
CONTINUOUS
10
3.00424
20
-6.33183
11
3.0039
21
-6.33164
0
LINE
8
BLACK
6
CONTINUOUS
10
3.0039
20
-6.33164
11
3.0036
21
-6.3314
0
LINE
8
BLACK
6
CONTINUOUS
10
3.0036
20
-6.3314
11
3.00336
21
-6.3311
0
LINE
8
BLACK
6
CONTINUOUS
10
3.00336
20
-6.3311
11
3.00317
21
-6.33076
0
LINE
8
BLACK
6
CONTINUOUS
10
3.00317
20
-6.33076
11
3.00306
21
-6.33039
0
LINE
8
BLACK
6
CONTINUOUS
10
3.00306
20
-6.33039
11
3.00302
21
-6.33
0
LINE
8
BLACK
6
CONTINUOUS
10
3.00302
20
-6.33
11
3.00303
21
-6.3299
0
LINE
8
BLACK
6
CONTINUOUS
10
3.00303
20
-6.3299
11
3.00303
21
-2.4526
0
LINE
8
BLACK
6
CONTINUOUS
10
3.00303
20
-2.4526
11
3.00302
21
-2.4525
0
LINE
8
BLACK
6
CONTINUOUS
10
3.00302
20
-2.4525
11
3.00306
21
-2.45211
0
LINE
8
BLACK
6
CONTINUOUS
10
3.00306
20
-2.45211
11
3.00317
21
-2.45174
0
LINE
8
BLACK
6
CONTINUOUS
10
3.00317
20
-2.45174
11
3.00336
21
-2.4514
0
LINE
8
BLACK
6
CONTINUOUS
10
3.00336
20
-2.4514
11
3.0036
21
-2.4511
0
LINE
8
BLACK
6
CONTINUOUS
10
3.0036
20
-2.4511
11
3.0039
21
-2.45086
0
LINE
8
BLACK
6
CONTINUOUS
10
3.0039
20
-2.45086
11
3.00424
21
-2.45067
0
LINE
8
BLACK
6
CONTINUOUS
10
3.00424
20
-2.45067
11
3.00461
21
-2.45056
0
LINE
8
BLACK
6
CONTINUOUS
10
3.00461
20
-2.45056
11
3.0049
21
-2.45053
0
LINE
8
BLACK
6
CONTINUOUS
10
3.0049
20
-2.45053
11
3.005
21
-2.45052
0
LINE
8
BLACK
6
CONTINUOUS
10
3.005
20
-2.45052
11
3.0051
21
-2.45053
0
LINE
8
BLACK
6
CONTINUOUS
10
3.0051
20
-2.45053
11
9.0424
21
-2.45053
0
LINE
8
BLACK
6
CONTINUOUS
10
9.0424
20
-2.45053
11
9.0425
21
-2.45052
0
LINE
8
BLACK
6
CONTINUOUS
10
9.0425
20
-2.45052
11
9.0426
21
-2.45053
0
LINE
8
BLACK
6
CONTINUOUS
10
3.00697
20
-2.45447
11
3.00697
21
-6.32803
0
LINE
8
BLACK
6
CONTINUOUS
10
3.00697
20
-6.32803
11
9.04053
21
-6.32803
0
LINE
8
BLACK
6
CONTINUOUS
10
9.04053
20
-6.32803
11
9.04053
21
-2.45447
0
LINE
8
BLACK
6
CONTINUOUS
10
9.04053
20
-2.45447
11
3.00697
21
-2.45447
  0
ENDSEC
  0
EOF
