  0
SECTION
  2
HEADER
  9
$ANGBASE
  50
0.0
  9
$ANGDIR
  70
1
  9
$MEASUREMENT
  70
0
  0
ENDSEC
  0
SECTION
  2
TABLES
  0
TABLE
  2
LTYPE
  70
4
  0
LTYPE
  5
40F
  2
CONTINUOUS
  70
0
  3
Solid line
  72
65
  73
0
  40
0.0
  0
LTYPE
  5
410
  2
DASHDOT
 70
0
  3
Dash Dot ____ _ ____ _
 72
65
 73
4
 40
2.0
 49
1.25
 49
-0.25
 49
0.25
 49
-0.25
  0
LTYPE
  5
411
  2
DASHED
 70
0
  3
Dashed __ __ __ __ __
 72
65
 73
2
 40
0.75
 49
0.5
 49
-0.25
  0
LTYPE
  5
43B
  2
DOTTED
 70
0
  3
Dotted .  .  .  .
 72
65
 73
2
 40
0.2
 49
0.0
 49
-0.2
  0
ENDTAB
  0
TABLE
  2
STYLE
  70
4
  0
STYLE
  2
KICAD
  70
0
  40
0
  41
1
  42
1
  50
0
  71
0
  3
isocp.shx
  0
STYLE
  2
KICADB
  70
0
  40
0
  41
1
  42
1
  50
0
  71
0
  3
isocp.shx
  0
STYLE
  2
KICADI
  70
0
  40
0
  41
1
  42
1
  50
15
  71
0
  3
isocp.shx
  0
STYLE
  2
KICADBI
  70
0
  40
0
  41
1
  42
1
  50
15
  71
0
  3
isocp.shx
  0
ENDTAB
  0
TABLE
  2
LAYER
  70
1
  0
LAYER
  2
BLACK
  70
0
  62
7
  6
CONTINUOUS
  0
ENDTAB
  0
ENDSEC
  0
SECTION
  2
ENTITIES
0
LINE
8
BLACK
6
CONTINUOUS
10
8.20746
20
-2.51413
11
8.21212
21
-2.51606
0
LINE
8
BLACK
6
CONTINUOUS
10
8.21212
20
-2.51606
11
8.21631
21
-2.51886
0
LINE
8
BLACK
6
CONTINUOUS
10
8.21631
20
-2.51886
11
8.21988
21
-2.52243
0
LINE
8
BLACK
6
CONTINUOUS
10
8.21988
20
-2.52243
11
8.22268
21
-2.52662
0
LINE
8
BLACK
6
CONTINUOUS
10
8.22268
20
-2.52662
11
8.22461
21
-2.53128
0
LINE
8
BLACK
6
CONTINUOUS
10
8.22461
20
-2.53128
11
8.22559
21
-2.53622
0
LINE
8
BLACK
6
CONTINUOUS
10
8.22559
20
-2.53622
11
8.22559
21
-2.54126
0
LINE
8
BLACK
6
CONTINUOUS
10
8.22559
20
-2.54126
11
8.22461
21
-2.5462
0
LINE
8
BLACK
6
CONTINUOUS
10
8.22461
20
-2.5462
11
8.22268
21
-2.55086
0
LINE
8
BLACK
6
CONTINUOUS
10
8.22268
20
-2.55086
11
8.21988
21
-2.55505
0
LINE
8
BLACK
6
CONTINUOUS
10
8.21988
20
-2.55505
11
8.21631
21
-2.55862
0
LINE
8
BLACK
6
CONTINUOUS
10
8.21631
20
-2.55862
11
8.21212
21
-2.56142
0
LINE
8
BLACK
6
CONTINUOUS
10
8.21212
20
-2.56142
11
8.20746
21
-2.56335
0
LINE
8
BLACK
6
CONTINUOUS
10
8.20746
20
-2.56335
11
8.20252
21
-2.56433
0
LINE
8
BLACK
6
CONTINUOUS
10
8.20252
20
-2.56433
11
8.19748
21
-2.56433
0
LINE
8
BLACK
6
CONTINUOUS
10
8.19748
20
-2.56433
11
8.19254
21
-2.56335
0
LINE
8
BLACK
6
CONTINUOUS
10
8.19254
20
-2.56335
11
8.18788
21
-2.56142
0
LINE
8
BLACK
6
CONTINUOUS
10
8.18788
20
-2.56142
11
8.18369
21
-2.55862
0
LINE
8
BLACK
6
CONTINUOUS
10
8.18369
20
-2.55862
11
8.18012
21
-2.55505
0
LINE
8
BLACK
6
CONTINUOUS
10
8.18012
20
-2.55505
11
8.17732
21
-2.55086
0
LINE
8
BLACK
6
CONTINUOUS
10
8.17732
20
-2.55086
11
8.17539
21
-2.5462
0
LINE
8
BLACK
6
CONTINUOUS
10
8.17539
20
-2.5462
11
8.17441
21
-2.54126
0
LINE
8
BLACK
6
CONTINUOUS
10
8.17441
20
-2.54126
11
8.17441
21
-2.53622
0
LINE
8
BLACK
6
CONTINUOUS
10
8.17441
20
-2.53622
11
8.17539
21
-2.53128
0
LINE
8
BLACK
6
CONTINUOUS
10
8.17539
20
-2.53128
11
8.17732
21
-2.52662
0
LINE
8
BLACK
6
CONTINUOUS
10
8.17732
20
-2.52662
11
8.18012
21
-2.52243
0
LINE
8
BLACK
6
CONTINUOUS
10
8.18012
20
-2.52243
11
8.18369
21
-2.51886
0
LINE
8
BLACK
6
CONTINUOUS
10
8.18369
20
-2.51886
11
8.18788
21
-2.51606
0
LINE
8
BLACK
6
CONTINUOUS
10
8.18788
20
-2.51606
11
8.19254
21
-2.51413
0
LINE
8
BLACK
6
CONTINUOUS
10
8.19254
20
-2.51413
11
8.19748
21
-2.51315
0
LINE
8
BLACK
6
CONTINUOUS
10
8.19748
20
-2.51315
11
8.20252
21
-2.51315
0
LINE
8
BLACK
6
CONTINUOUS
10
8.20252
20
-2.51315
11
8.20746
21
-2.51413
  0
ENDSEC
  0
EOF
