%TF.GenerationSoftware,KiCad,Pcbnew,(5.1.4-0-10_14)*%
%TF.CreationDate,2020-09-10T02:34:38+02:00*%
%TF.ProjectId,the_mvp_v1.2,7468655f-6d76-4705-9f76-312e322e6b69,1.1*%
%TF.SameCoordinates,Original*%
%TF.FileFunction,Soldermask,Bot*%
%TF.FilePolarity,Negative*%
%FSLAX46Y46*%
G04 Gerber Fmt 4.6, Leading zero omitted, Abs format (unit mm)*
G04 Created by KiCad (PCBNEW (5.1.4-0-10_14)) date 2020-09-10 02:34:38*
%MOMM*%
%LPD*%
G04 APERTURE LIST*
%ADD10C,1.600000*%
%ADD11R,1.600000X1.600000*%
%ADD12C,2.000000*%
%ADD13C,4.300000*%
%ADD14O,1.400000X1.400000*%
%ADD15C,1.400000*%
%ADD16C,1.800000*%
%ADD17R,1.800000X1.800000*%
%ADD18R,2.000000X2.000000*%
%ADD19C,4.000000*%
G04 APERTURE END LIST*
D10*
X214630000Y-109474000D03*
X212090000Y-109474000D03*
X209550000Y-109474000D03*
X207010000Y-109474000D03*
X204470000Y-109474000D03*
X201930000Y-104394000D03*
X201930000Y-106934000D03*
X201930000Y-109474000D03*
X201930000Y-112014000D03*
X201930000Y-101854000D03*
X201930000Y-99314000D03*
X201930000Y-96774000D03*
X201930000Y-114554000D03*
X201930000Y-117094000D03*
X201930000Y-119634000D03*
X201930000Y-122174000D03*
X217170000Y-122174000D03*
X217170000Y-119634000D03*
X217170000Y-117094000D03*
X217170000Y-114554000D03*
X217170000Y-112014000D03*
X217170000Y-109474000D03*
X217170000Y-106934000D03*
X217170000Y-104394000D03*
X217170000Y-101854000D03*
X217170000Y-99314000D03*
X201930000Y-94234000D03*
X201930000Y-91694000D03*
X201930000Y-89154000D03*
X201930000Y-86614000D03*
X201930000Y-84074000D03*
X201930000Y-81534000D03*
X201930000Y-78994000D03*
X201930000Y-76454000D03*
X201930000Y-73914000D03*
X201930000Y-71374000D03*
X201930000Y-68834000D03*
X201930000Y-66294000D03*
D11*
X201930000Y-63754000D03*
D10*
X217170000Y-96774000D03*
X217170000Y-94234000D03*
X217170000Y-91694000D03*
X217170000Y-89154000D03*
X217170000Y-86614000D03*
X217170000Y-84074000D03*
X217170000Y-81534000D03*
X217170000Y-78994000D03*
X217170000Y-76454000D03*
X217170000Y-73914000D03*
X217170000Y-71374000D03*
X217170000Y-68834000D03*
X217170000Y-66294000D03*
X217170000Y-63754000D03*
D12*
X94130000Y-70612000D03*
X94130000Y-75112000D03*
X87630000Y-70612000D03*
X87630000Y-75112000D03*
X94003000Y-94488000D03*
X94003000Y-98988000D03*
X87503000Y-94488000D03*
X87503000Y-98988000D03*
X94003000Y-119507000D03*
X94003000Y-124007000D03*
X87503000Y-119507000D03*
X87503000Y-124007000D03*
D13*
X82042000Y-154940000D03*
X82042000Y-110998000D03*
X81788000Y-67564000D03*
X150368000Y-67564000D03*
X150368000Y-111000000D03*
X150368000Y-154940000D03*
X224282000Y-111000000D03*
X224282000Y-154940000D03*
X224282000Y-67564000D03*
D12*
X195032000Y-70421500D03*
X195032000Y-74921500D03*
X188532000Y-70421500D03*
X188532000Y-74921500D03*
X180172000Y-95885000D03*
X180172000Y-100385000D03*
X173672000Y-95885000D03*
X173672000Y-100385000D03*
D14*
X227076000Y-94610000D03*
D15*
X227076000Y-92710000D03*
D14*
X200533000Y-150236000D03*
D15*
X200533000Y-148336000D03*
D14*
X185674000Y-100960000D03*
D15*
X185674000Y-99060000D03*
D14*
X185420000Y-90800000D03*
D15*
X185420000Y-88900000D03*
D14*
X185928000Y-75306000D03*
D15*
X185928000Y-73406000D03*
D14*
X171069000Y-100452000D03*
D15*
X171069000Y-98552000D03*
D14*
X170307000Y-90673000D03*
D15*
X170307000Y-88773000D03*
D14*
X170307000Y-75560000D03*
D15*
X170307000Y-73660000D03*
D14*
X155956000Y-100579000D03*
D15*
X155956000Y-98679000D03*
D14*
X155829000Y-87625000D03*
D15*
X155829000Y-85725000D03*
D14*
X155829000Y-75433000D03*
D15*
X155829000Y-73533000D03*
D14*
X94361000Y-156078000D03*
D15*
X94361000Y-154178000D03*
D14*
X94107000Y-131826000D03*
D15*
X94107000Y-129926000D03*
D14*
X97536000Y-100706000D03*
D15*
X97536000Y-98806000D03*
D14*
X94234000Y-82291000D03*
D15*
X94234000Y-80391000D03*
D16*
X226568000Y-87884000D03*
D17*
X224028000Y-87884000D03*
D12*
X224790000Y-78938000D03*
D18*
X224790000Y-75438000D03*
D12*
X165504000Y-95885000D03*
X165504000Y-100385000D03*
X159004000Y-95885000D03*
X159004000Y-100385000D03*
X209954000Y-145478000D03*
X209954000Y-149978000D03*
X203454000Y-145478000D03*
X203454000Y-149978000D03*
D19*
X114890000Y-122032000D03*
X106090000Y-122032000D03*
D16*
X112990000Y-129032000D03*
X110490000Y-129032000D03*
X107990000Y-129032000D03*
D19*
X139250000Y-97521000D03*
X130450000Y-97521000D03*
D16*
X137350000Y-104521000D03*
X134850000Y-104521000D03*
X132350000Y-104521000D03*
D19*
X114930000Y-146670000D03*
X106130000Y-146670000D03*
D16*
X113030000Y-153670000D03*
X110530000Y-153670000D03*
X108030000Y-153670000D03*
D19*
X181224000Y-132128000D03*
X172424000Y-132128000D03*
D16*
X179324000Y-139128000D03*
X176824000Y-139128000D03*
X174324000Y-139128000D03*
D19*
X139886000Y-146670000D03*
X131086000Y-146670000D03*
D16*
X137986000Y-153670000D03*
X135486000Y-153670000D03*
X132986000Y-153670000D03*
D19*
X139632000Y-122032000D03*
X130832000Y-122032000D03*
D16*
X137732000Y-129032000D03*
X135232000Y-129032000D03*
X132732000Y-129032000D03*
D19*
X139758000Y-73010000D03*
X130958000Y-73010000D03*
D16*
X137858000Y-80010000D03*
X135358000Y-80010000D03*
X132858000Y-80010000D03*
D19*
X114890000Y-97521000D03*
X106090000Y-97521000D03*
D16*
X112990000Y-104521000D03*
X110490000Y-104521000D03*
X107990000Y-104521000D03*
D19*
X114930000Y-73010000D03*
X106130000Y-73010000D03*
D16*
X113030000Y-80010000D03*
X110530000Y-80010000D03*
X108030000Y-80010000D03*
D12*
X94003000Y-144018000D03*
X94003000Y-148518000D03*
X87503000Y-144018000D03*
X87503000Y-148518000D03*
X194841000Y-95885000D03*
X194841000Y-100385000D03*
X188341000Y-95885000D03*
X188341000Y-100385000D03*
X194968000Y-83185000D03*
X194968000Y-87685000D03*
X188468000Y-83185000D03*
X188468000Y-87685000D03*
X180236000Y-83185000D03*
X180236000Y-87685000D03*
X173736000Y-83185000D03*
X173736000Y-87685000D03*
X180300000Y-70421500D03*
X180300000Y-74921500D03*
X173800000Y-70421500D03*
X173800000Y-74921500D03*
X165504000Y-83185000D03*
X165504000Y-87685000D03*
X159004000Y-83185000D03*
X159004000Y-87685000D03*
X165504000Y-70485000D03*
X165504000Y-74985000D03*
X159004000Y-70485000D03*
X159004000Y-74985000D03*
M02*
