%TF.GenerationSoftware,KiCad,Pcbnew,(5.1.4-0-10_14)*%
%TF.CreationDate,2020-09-10T02:34:38+02:00*%
%TF.ProjectId,the_mvp_v1.2,7468655f-6d76-4705-9f76-312e322e6b69,1.1*%
%TF.SameCoordinates,Original*%
%TF.FileFunction,Copper,L1,Top*%
%TF.FilePolarity,Positive*%
%FSLAX46Y46*%
G04 Gerber Fmt 4.6, Leading zero omitted, Abs format (unit mm)*
G04 Created by KiCad (PCBNEW (5.1.4-0-10_14)) date 2020-09-10 02:34:38*
%MOMM*%
%LPD*%
G04 APERTURE LIST*
%ADD10C,1.600000*%
%ADD11R,1.600000X1.600000*%
%ADD12C,2.000000*%
%ADD13O,1.400000X1.400000*%
%ADD14C,1.400000*%
%ADD15C,1.800000*%
%ADD16R,1.800000X1.800000*%
%ADD17R,2.000000X2.000000*%
%ADD18C,4.000000*%
%ADD19C,0.800000*%
%ADD20C,0.500000*%
%ADD21C,0.250000*%
%ADD22C,0.254000*%
G04 APERTURE END LIST*
D10*
X214630000Y-109474000D03*
X212090000Y-109474000D03*
X209550000Y-109474000D03*
X207010000Y-109474000D03*
X204470000Y-109474000D03*
X201930000Y-104394000D03*
X201930000Y-106934000D03*
X201930000Y-109474000D03*
X201930000Y-112014000D03*
X201930000Y-101854000D03*
X201930000Y-99314000D03*
X201930000Y-96774000D03*
X201930000Y-114554000D03*
X201930000Y-117094000D03*
X201930000Y-119634000D03*
X201930000Y-122174000D03*
X217170000Y-122174000D03*
X217170000Y-119634000D03*
X217170000Y-117094000D03*
X217170000Y-114554000D03*
X217170000Y-112014000D03*
X217170000Y-109474000D03*
X217170000Y-106934000D03*
X217170000Y-104394000D03*
X217170000Y-101854000D03*
X217170000Y-99314000D03*
X201930000Y-94234000D03*
X201930000Y-91694000D03*
X201930000Y-89154000D03*
X201930000Y-86614000D03*
X201930000Y-84074000D03*
X201930000Y-81534000D03*
X201930000Y-78994000D03*
X201930000Y-76454000D03*
X201930000Y-73914000D03*
X201930000Y-71374000D03*
X201930000Y-68834000D03*
X201930000Y-66294000D03*
D11*
X201930000Y-63754000D03*
D10*
X217170000Y-96774000D03*
X217170000Y-94234000D03*
X217170000Y-91694000D03*
X217170000Y-89154000D03*
X217170000Y-86614000D03*
X217170000Y-84074000D03*
X217170000Y-81534000D03*
X217170000Y-78994000D03*
X217170000Y-76454000D03*
X217170000Y-73914000D03*
X217170000Y-71374000D03*
X217170000Y-68834000D03*
X217170000Y-66294000D03*
X217170000Y-63754000D03*
X209550000Y-96774000D03*
X212090000Y-96774000D03*
X214630000Y-96774000D03*
X207010000Y-96774000D03*
X204470000Y-96774000D03*
D12*
X94130000Y-70612000D03*
X94130000Y-75112000D03*
X87630000Y-70612000D03*
X87630000Y-75112000D03*
X94003000Y-94488000D03*
X94003000Y-98988000D03*
X87503000Y-94488000D03*
X87503000Y-98988000D03*
X94003000Y-119507000D03*
X94003000Y-124007000D03*
X87503000Y-119507000D03*
X87503000Y-124007000D03*
X195032000Y-70421500D03*
X195032000Y-74921500D03*
X188532000Y-70421500D03*
X188532000Y-74921500D03*
X180172000Y-95885000D03*
X180172000Y-100385000D03*
X173672000Y-95885000D03*
X173672000Y-100385000D03*
D13*
X227076000Y-94610000D03*
D14*
X227076000Y-92710000D03*
D13*
X200533000Y-150236000D03*
D14*
X200533000Y-148336000D03*
D13*
X185674000Y-100960000D03*
D14*
X185674000Y-99060000D03*
D13*
X185420000Y-90800000D03*
D14*
X185420000Y-88900000D03*
D13*
X185928000Y-75306000D03*
D14*
X185928000Y-73406000D03*
D13*
X171069000Y-100452000D03*
D14*
X171069000Y-98552000D03*
D13*
X170307000Y-90673000D03*
D14*
X170307000Y-88773000D03*
D13*
X170307000Y-75560000D03*
D14*
X170307000Y-73660000D03*
D13*
X155956000Y-100579000D03*
D14*
X155956000Y-98679000D03*
D13*
X155829000Y-87625000D03*
D14*
X155829000Y-85725000D03*
D13*
X155829000Y-75433000D03*
D14*
X155829000Y-73533000D03*
D13*
X94361000Y-156078000D03*
D14*
X94361000Y-154178000D03*
D13*
X94107000Y-131826000D03*
D14*
X94107000Y-129926000D03*
D13*
X97536000Y-100706000D03*
D14*
X97536000Y-98806000D03*
D13*
X94234000Y-82291000D03*
D14*
X94234000Y-80391000D03*
D15*
X226568000Y-87884000D03*
D16*
X224028000Y-87884000D03*
D12*
X224790000Y-78938000D03*
D17*
X224790000Y-75438000D03*
D12*
X165504000Y-95885000D03*
X165504000Y-100385000D03*
X159004000Y-95885000D03*
X159004000Y-100385000D03*
X209954000Y-145478000D03*
X209954000Y-149978000D03*
X203454000Y-145478000D03*
X203454000Y-149978000D03*
D18*
X114890000Y-122032000D03*
X106090000Y-122032000D03*
D15*
X112990000Y-129032000D03*
X110490000Y-129032000D03*
X107990000Y-129032000D03*
D18*
X139250000Y-97521000D03*
X130450000Y-97521000D03*
D15*
X137350000Y-104521000D03*
X134850000Y-104521000D03*
X132350000Y-104521000D03*
D18*
X114930000Y-146670000D03*
X106130000Y-146670000D03*
D15*
X113030000Y-153670000D03*
X110530000Y-153670000D03*
X108030000Y-153670000D03*
D18*
X181224000Y-132128000D03*
X172424000Y-132128000D03*
D15*
X179324000Y-139128000D03*
X176824000Y-139128000D03*
X174324000Y-139128000D03*
D18*
X139886000Y-146670000D03*
X131086000Y-146670000D03*
D15*
X137986000Y-153670000D03*
X135486000Y-153670000D03*
X132986000Y-153670000D03*
D18*
X139632000Y-122032000D03*
X130832000Y-122032000D03*
D15*
X137732000Y-129032000D03*
X135232000Y-129032000D03*
X132732000Y-129032000D03*
D18*
X139758000Y-73010000D03*
X130958000Y-73010000D03*
D15*
X137858000Y-80010000D03*
X135358000Y-80010000D03*
X132858000Y-80010000D03*
D18*
X114890000Y-97521000D03*
X106090000Y-97521000D03*
D15*
X112990000Y-104521000D03*
X110490000Y-104521000D03*
X107990000Y-104521000D03*
D18*
X114930000Y-73010000D03*
X106130000Y-73010000D03*
D15*
X113030000Y-80010000D03*
X110530000Y-80010000D03*
X108030000Y-80010000D03*
D12*
X94003000Y-144018000D03*
X94003000Y-148518000D03*
X87503000Y-144018000D03*
X87503000Y-148518000D03*
X194841000Y-95885000D03*
X194841000Y-100385000D03*
X188341000Y-95885000D03*
X188341000Y-100385000D03*
X194968000Y-83185000D03*
X194968000Y-87685000D03*
X188468000Y-83185000D03*
X188468000Y-87685000D03*
X180236000Y-83185000D03*
X180236000Y-87685000D03*
X173736000Y-83185000D03*
X173736000Y-87685000D03*
X180300000Y-70421500D03*
X180300000Y-74921500D03*
X173800000Y-70421500D03*
X173800000Y-74921500D03*
X165504000Y-83185000D03*
X165504000Y-87685000D03*
X159004000Y-83185000D03*
X159004000Y-87685000D03*
X165504000Y-70485000D03*
X165504000Y-74985000D03*
X159004000Y-70485000D03*
X159004000Y-74985000D03*
D19*
X216629001Y-135291999D03*
X95312400Y-81314400D03*
X94107000Y-128021000D03*
X94361000Y-152278000D03*
X120650000Y-93472000D03*
X121412000Y-99187000D03*
X131699000Y-101219000D03*
X136289999Y-100819001D03*
X146285001Y-100819001D03*
X102997000Y-131826000D03*
X104008000Y-134742000D03*
D20*
X165504000Y-70485000D02*
X165568000Y-70421500D01*
X165568000Y-70421500D02*
X173800000Y-70421500D01*
X173800000Y-70421500D02*
X180300000Y-70421500D01*
X173736000Y-83185000D02*
X180236000Y-83185000D01*
X188212000Y-82928600D02*
X188468000Y-83185000D01*
X180236000Y-83185000D02*
X180492000Y-82928600D01*
X180172000Y-95885000D02*
X188341000Y-95885000D01*
X188341000Y-95885000D02*
X194841000Y-95885000D01*
X180172000Y-95885000D02*
X173672000Y-95885000D01*
X195032000Y-70421500D02*
X188532000Y-70421500D01*
X188532000Y-70421500D02*
X188466000Y-70355600D01*
X188466000Y-70355600D02*
X180366000Y-70355600D01*
X180366000Y-70355600D02*
X180300000Y-70421500D01*
X165504000Y-95885000D02*
X159004000Y-95885000D01*
X165504000Y-95885000D02*
X165908000Y-95481100D01*
X165908000Y-95481100D02*
X173268000Y-95481100D01*
X173268000Y-95481100D02*
X173672000Y-95885000D01*
X194968000Y-83185000D02*
X195349000Y-82804000D01*
X195349000Y-82804000D02*
X218427000Y-82804000D01*
X159004000Y-83185000D02*
X158484000Y-82665300D01*
X158484000Y-82665300D02*
X105826000Y-82665300D01*
X105826000Y-82665300D02*
X94003000Y-94488000D01*
X218427000Y-82804000D02*
X218427000Y-137005000D01*
X218427000Y-137005000D02*
X209954000Y-145478000D01*
X209954000Y-145478000D02*
X203454000Y-145478000D01*
X224028000Y-86484000D02*
X224028000Y-87884000D01*
X220348000Y-82804000D02*
X224028000Y-86484000D01*
X218427000Y-82804000D02*
X220348000Y-82804000D01*
D21*
X155829000Y-75433000D02*
X156854300Y-75433000D01*
X159004000Y-74985000D02*
X157302300Y-74985000D01*
X157302300Y-74985000D02*
X156854300Y-75433000D01*
X159004000Y-74985000D02*
X165504000Y-74985000D01*
X165504000Y-87685000D02*
X174195000Y-78994000D01*
X174195000Y-78994000D02*
X201930000Y-78994000D01*
X155956000Y-100579000D02*
X156981300Y-100579000D01*
X159004000Y-100385000D02*
X157175300Y-100385000D01*
X157175300Y-100385000D02*
X156981300Y-100579000D01*
X165504000Y-100385000D02*
X159004000Y-100385000D01*
X180300000Y-74921500D02*
X173800000Y-74921500D01*
X176986000Y-87685000D02*
X173998000Y-90673000D01*
X173998000Y-90673000D02*
X170307000Y-90673000D01*
X176986000Y-87685000D02*
X180236000Y-87685000D01*
X173736000Y-87685000D02*
X176986000Y-87685000D01*
X183007000Y-84201000D02*
X183007000Y-84328000D01*
X183007000Y-84201000D02*
X183007000Y-84328000D01*
X183007000Y-84328000D02*
X183007000Y-87249000D01*
X183007000Y-87249000D02*
X182571000Y-87685000D01*
X182571000Y-87685000D02*
X180236000Y-87685000D01*
X201930000Y-86614000D02*
X201669000Y-86352900D01*
X201669000Y-86352900D02*
X193414000Y-86352900D01*
X193414000Y-86352900D02*
X193414000Y-85209900D01*
X193414000Y-85209900D02*
X189611000Y-81407000D01*
X189611000Y-81407000D02*
X184404000Y-81407000D01*
X184404000Y-81407000D02*
X183007000Y-82804000D01*
X183007000Y-82804000D02*
X183007000Y-84201000D01*
X180172000Y-100385000D02*
X173672000Y-100385000D01*
X171069000Y-96652000D02*
X172094000Y-96652000D01*
X172094000Y-96652000D02*
X173672000Y-98229700D01*
X173672000Y-98229700D02*
X173672000Y-100385000D01*
X173605000Y-100452000D02*
X173672000Y-100385000D01*
X171069000Y-100452000D02*
X173605000Y-100452000D01*
X185928000Y-75306000D02*
X186953300Y-75306000D01*
X188532000Y-74921500D02*
X187337800Y-74921500D01*
X187337800Y-74921500D02*
X186953300Y-75306000D01*
X195032000Y-74921500D02*
X188532000Y-74921500D01*
X194968000Y-87685000D02*
X201517000Y-94234000D01*
X201517000Y-94234000D02*
X201930000Y-94234000D01*
X194968000Y-87685000D02*
X188468000Y-87685000D01*
X201930000Y-96774000D02*
X198319000Y-100385000D01*
X198319000Y-100385000D02*
X194841000Y-100385000D01*
X194841000Y-100385000D02*
X188341000Y-100385000D01*
X217170000Y-94234000D02*
X215900000Y-95504000D01*
X215900000Y-95504000D02*
X215900000Y-130044000D01*
X203196000Y-150236000D02*
X203454000Y-149978000D01*
X216629001Y-130773001D02*
X215900000Y-130044000D01*
X216629001Y-135291999D02*
X216629001Y-130773001D01*
X87503000Y-148518000D02*
X92668200Y-148518000D01*
X92668200Y-148518000D02*
X93335600Y-149185000D01*
X94003000Y-148518000D02*
X93335600Y-149185000D01*
X93335600Y-149185000D02*
X93335600Y-153153000D01*
X93335600Y-153153000D02*
X94361000Y-154178000D01*
X201930000Y-73914000D02*
X198225000Y-77618700D01*
X198225000Y-77618700D02*
X173696000Y-77618700D01*
X173696000Y-77618700D02*
X157229000Y-94085400D01*
X157229000Y-94085400D02*
X145974000Y-94085400D01*
X145974000Y-94085400D02*
X137682000Y-102377000D01*
X137682000Y-102377000D02*
X135237000Y-102377000D01*
X135237000Y-102377000D02*
X133600000Y-104015000D01*
X133600000Y-104015000D02*
X133600000Y-106645000D01*
X133600000Y-106645000D02*
X115888000Y-124357000D01*
X115888000Y-124357000D02*
X113355000Y-124357000D01*
X113355000Y-124357000D02*
X109240000Y-128473000D01*
X109240000Y-131806000D02*
X105176000Y-131806000D01*
X109240000Y-128473000D02*
X109240000Y-131806000D01*
X105176000Y-131806000D02*
X101321500Y-135660500D01*
X101321500Y-135660500D02*
X101321500Y-141199500D01*
X101321500Y-141199500D02*
X94003000Y-148518000D01*
X94107000Y-129921000D02*
X94299100Y-129729000D01*
X87503000Y-124007000D02*
X92160200Y-124007000D01*
X92160200Y-124007000D02*
X93081600Y-124928000D01*
X94299100Y-129729000D02*
X93081600Y-128511000D01*
X93081600Y-128511000D02*
X93081600Y-124928000D01*
X93081600Y-124928000D02*
X94003000Y-124007000D01*
X162052000Y-82550000D02*
X161801774Y-82299774D01*
X162052000Y-86868000D02*
X162052000Y-82550000D01*
X158873413Y-90046587D02*
X162052000Y-86868000D01*
X161801774Y-82299774D02*
X166988000Y-77113800D01*
X94299100Y-129729000D02*
X130393000Y-93635000D01*
X154054587Y-90046587D02*
X158873413Y-90046587D01*
X196190000Y-77113800D02*
X201930000Y-71374000D01*
X166988000Y-77113800D02*
X196190000Y-77113800D01*
X150466000Y-93635000D02*
X154054587Y-90046587D01*
X130393000Y-93635000D02*
X150466000Y-93635000D01*
X141259000Y-81235400D02*
X143688200Y-81235400D01*
X143688200Y-81235400D02*
X156089600Y-68834000D01*
X156089600Y-68834000D02*
X201930000Y-68834000D01*
X141259000Y-81235400D02*
X105355000Y-81235400D01*
X105355000Y-81235400D02*
X92656600Y-93933700D01*
X92656600Y-93933700D02*
X92656600Y-97641600D01*
X94003000Y-98988000D02*
X93980000Y-99011000D01*
X87503000Y-98988000D02*
X91310200Y-98988000D01*
X91310200Y-98988000D02*
X92656600Y-97641600D01*
X92656600Y-97641600D02*
X94003000Y-98988000D01*
X94185000Y-98806000D02*
X94003000Y-98988000D01*
X97536000Y-98806000D02*
X94185000Y-98806000D01*
X102821000Y-66294000D02*
X104058800Y-65056200D01*
X104058800Y-65056200D02*
X200692200Y-65056200D01*
X200692200Y-65056200D02*
X201930000Y-66294000D01*
X102821000Y-66294000D02*
X94003000Y-75112000D01*
X87503000Y-75112000D02*
X92414200Y-75112000D01*
X92414200Y-75112000D02*
X93208600Y-75906400D01*
X94003000Y-75112000D02*
X93208600Y-75906400D01*
X93208600Y-75906400D02*
X93208600Y-79365600D01*
X93208600Y-79365600D02*
X94234000Y-80391000D01*
X176824000Y-139128000D02*
X176824000Y-132982000D01*
X176824000Y-132982000D02*
X201458000Y-108349000D01*
X201458000Y-108349000D02*
X202168000Y-108349000D01*
X202168000Y-108349000D02*
X213360000Y-97156500D01*
X213360000Y-97156500D02*
X213360000Y-95504000D01*
X213360000Y-95504000D02*
X217170000Y-91694000D01*
X135232000Y-129032000D02*
X139085000Y-125179000D01*
X139085000Y-125179000D02*
X161022000Y-125179000D01*
X161022000Y-125179000D02*
X181137000Y-105064000D01*
X208280000Y-95504000D02*
X217170000Y-86614000D01*
X199755000Y-95504000D02*
X208280000Y-95504000D01*
X187015999Y-99748999D02*
X188629998Y-98135000D01*
X188991998Y-102997000D02*
X187015999Y-101021001D01*
X190119000Y-102997000D02*
X188991998Y-102997000D01*
X197124000Y-98135000D02*
X199755000Y-95504000D01*
X188629998Y-98135000D02*
X197124000Y-98135000D01*
X187015999Y-101021001D02*
X187015999Y-99748999D01*
X188052000Y-105064000D02*
X190119000Y-102997000D01*
X181137000Y-105064000D02*
X188052000Y-105064000D01*
X110490000Y-129032000D02*
X112960000Y-126562000D01*
X112960000Y-126562000D02*
X114606000Y-126562000D01*
X114606000Y-126562000D02*
X136100000Y-105068000D01*
X136100000Y-105068000D02*
X136100000Y-103959000D01*
X136100000Y-103959000D02*
X136909000Y-103151000D01*
X136909000Y-103151000D02*
X137546000Y-103151000D01*
X137546000Y-103151000D02*
X144943000Y-95753600D01*
X144943000Y-95753600D02*
X157261000Y-95753600D01*
X157261000Y-95753600D02*
X163014000Y-90001000D01*
X163014000Y-90001000D02*
X165087000Y-90001000D01*
X165087000Y-90001000D02*
X167720000Y-87368800D01*
X167720000Y-87368800D02*
X167720000Y-86601200D01*
X167720000Y-86601200D02*
X174057000Y-80264000D01*
X174057000Y-80264000D02*
X213360000Y-80264000D01*
X213360000Y-80264000D02*
X217170000Y-76454000D01*
X110490000Y-104521000D02*
X111193000Y-104521000D01*
D20*
X141810000Y-76785900D02*
X147324000Y-76785900D01*
X147324000Y-76785900D02*
X156545800Y-67564100D01*
X156545800Y-67564100D02*
X215899900Y-67564100D01*
X215899900Y-67564100D02*
X215920000Y-67544000D01*
X132858000Y-80010000D02*
X136082000Y-76785900D01*
X136082000Y-76785900D02*
X141810000Y-76785900D01*
X133886000Y-130186000D02*
X142828000Y-139128000D01*
X142828000Y-139128000D02*
X174324000Y-139128000D01*
X133632000Y-129932000D02*
X133886000Y-130186000D01*
X132732000Y-129032000D02*
X133632000Y-129932000D01*
X132986000Y-153670000D02*
X133886000Y-152770000D01*
X133886000Y-152770000D02*
X133886000Y-130186000D01*
X133632000Y-129932000D02*
X132732000Y-129032000D01*
X133886000Y-130186000D02*
X133632000Y-129932000D01*
X215920000Y-67544000D02*
X217170000Y-66294000D01*
D21*
X108457000Y-153243000D02*
X108030000Y-153670000D01*
X107990000Y-129032000D02*
X108457000Y-129499000D01*
X132986000Y-148970000D02*
X132986000Y-153670000D01*
X95312400Y-81314400D02*
X98135800Y-78491000D01*
X113030000Y-80010000D02*
X111511000Y-78491000D01*
X111511000Y-78491000D02*
X98135800Y-78491000D01*
X99645400Y-152278000D02*
X95845400Y-156078000D01*
X95845400Y-156078000D02*
X94361000Y-156078000D01*
X111638000Y-152278000D02*
X99645400Y-152278000D01*
X99645400Y-152278000D02*
X94361000Y-152278000D01*
X217170000Y-68929000D02*
X217170000Y-68834000D01*
X112990000Y-104521000D02*
X111760000Y-105751000D01*
X111760000Y-105751000D02*
X96367000Y-105751000D01*
X182988000Y-101746000D02*
X185674000Y-99060000D01*
X197503000Y-70249000D02*
X197351000Y-70249000D01*
X170307000Y-73660000D02*
X173100000Y-73660000D01*
X173100000Y-73660000D02*
X173354000Y-73406000D01*
X173354000Y-73406000D02*
X185928000Y-73406000D01*
X155829000Y-73533000D02*
X170180000Y-73533000D01*
X170180000Y-73533000D02*
X170307000Y-73660000D01*
X137294000Y-128594000D02*
X137732000Y-129032000D01*
X137350000Y-104521000D02*
X137294000Y-104577000D01*
X137986000Y-153670000D02*
X137468000Y-153152000D01*
X170942000Y-98679000D02*
X171069000Y-98552000D01*
X94107000Y-128021000D02*
X94107000Y-128021000D01*
X94107000Y-126996000D02*
X96367000Y-124736000D01*
X96367000Y-124736000D02*
X96367000Y-105751000D01*
X185801000Y-73533000D02*
X185928000Y-73406000D01*
X112990000Y-129032000D02*
X111638000Y-130384000D01*
X113030000Y-153670000D02*
X111638000Y-152278000D01*
X137350000Y-104521000D02*
X143192000Y-98679000D01*
X143192000Y-98679000D02*
X155956000Y-98679000D01*
X96367000Y-101875000D02*
X97536000Y-100706000D01*
X96367000Y-105751000D02*
X96367000Y-101875000D01*
X169545000Y-98679000D02*
X169545000Y-101981000D01*
X155956000Y-98679000D02*
X169545000Y-98679000D01*
X169545000Y-98679000D02*
X170942000Y-98679000D01*
X173195999Y-102432001D02*
X173882000Y-101746000D01*
X173882000Y-101746000D02*
X182988000Y-101746000D01*
X169996001Y-102432001D02*
X173195999Y-102432001D01*
X169545000Y-101981000D02*
X169996001Y-102432001D01*
X218301370Y-68834000D02*
X217170000Y-68834000D01*
X219436000Y-68834000D02*
X218301370Y-68834000D01*
X224790000Y-74188000D02*
X219436000Y-68834000D01*
X224790000Y-75438000D02*
X224790000Y-74188000D01*
X197086000Y-70249000D02*
X193929000Y-73406000D01*
X217710000Y-70249000D02*
X197086000Y-70249000D01*
X222899000Y-75438000D02*
X217710000Y-70249000D01*
X193929000Y-73406000D02*
X185928000Y-73406000D01*
X224790000Y-75438000D02*
X222899000Y-75438000D01*
X94107000Y-128021000D02*
X94107000Y-126996000D01*
X94361000Y-152278000D02*
X94361000Y-152278000D01*
X113889999Y-129931999D02*
X121274001Y-129931999D01*
X112990000Y-129032000D02*
X113889999Y-129931999D01*
X121274001Y-129931999D02*
X121793000Y-130450998D01*
X121793000Y-144907000D02*
X113030000Y-153670000D01*
X121793000Y-130450998D02*
X121793000Y-144907000D01*
X121049999Y-93871999D02*
X121049999Y-97681999D01*
X120650000Y-93472000D02*
X121049999Y-93871999D01*
X121049999Y-97681999D02*
X121412000Y-98044000D01*
X121412000Y-98044000D02*
X121412000Y-99187000D01*
X121412000Y-99187000D02*
X121412000Y-99187000D01*
X132098999Y-100819001D02*
X136289999Y-100819001D01*
X131699000Y-101219000D02*
X132098999Y-100819001D01*
X136289999Y-100819001D02*
X136289999Y-100819001D01*
X142583002Y-104521000D02*
X137350000Y-104521000D01*
X146285001Y-100819001D02*
X142583002Y-104521000D01*
X76702010Y-160406990D02*
X229304490Y-160406990D01*
X229304490Y-160406990D02*
X229304490Y-80968490D01*
X105744999Y-78784999D02*
X76702010Y-107827988D01*
X229304490Y-80968490D02*
X217170000Y-68834000D01*
X86530021Y-118181999D02*
X76702010Y-128010010D01*
X99329001Y-118181999D02*
X86530021Y-118181999D01*
X112990000Y-104521000D02*
X99329001Y-118181999D01*
X76702010Y-128010010D02*
X76702010Y-160406990D01*
X76702010Y-107827988D02*
X76702010Y-128010010D01*
X188532000Y-148336000D02*
X179324000Y-139128000D01*
X200533000Y-148336000D02*
X188532000Y-148336000D01*
X178424001Y-140027999D02*
X179324000Y-139128000D01*
X170116000Y-148336000D02*
X178424001Y-140027999D01*
X143320000Y-148336000D02*
X170116000Y-148336000D01*
X137986000Y-153670000D02*
X143320000Y-148336000D01*
X94107000Y-131826000D02*
X102997000Y-131826000D01*
X102997000Y-131826000D02*
X102997000Y-131826000D01*
X111638000Y-134742000D02*
X104008000Y-134742000D01*
X111638000Y-130384000D02*
X111638000Y-134742000D01*
X111638000Y-134742000D02*
X111638000Y-152278000D01*
X104008000Y-134742000D02*
X104008000Y-134742000D01*
X137350000Y-111722000D02*
X137350000Y-105793792D01*
X95386001Y-153685999D02*
X137350000Y-111722000D01*
X137350000Y-105793792D02*
X137350000Y-104521000D01*
X137350000Y-118955002D02*
X137350000Y-105793792D01*
X128760999Y-127544003D02*
X137350000Y-118955002D01*
X128760999Y-151258001D02*
X128760999Y-127544003D01*
X132397999Y-154895001D02*
X128760999Y-151258001D01*
X138631999Y-129931999D02*
X137732000Y-129032000D01*
X174912001Y-137902999D02*
X146602999Y-137902999D01*
X175549001Y-138539999D02*
X174912001Y-137902999D01*
X175549001Y-139716001D02*
X175549001Y-138539999D01*
X146602999Y-137902999D02*
X138631999Y-129931999D01*
X174912001Y-140353001D02*
X175549001Y-139716001D01*
X150616001Y-140353001D02*
X174912001Y-140353001D01*
X132397999Y-154895001D02*
X136074001Y-154895001D01*
X136074001Y-154895001D02*
X150616001Y-140353001D01*
X112990000Y-135487002D02*
X132397999Y-154895001D01*
X112990000Y-129032000D02*
X112990000Y-135487002D01*
X136760999Y-154895001D02*
X137086001Y-154569999D01*
X137086001Y-154569999D02*
X137986000Y-153670000D01*
X114255001Y-154895001D02*
X136760999Y-154895001D01*
X113030000Y-153670000D02*
X114255001Y-154895001D01*
X112090001Y-105420999D02*
X112990000Y-104521000D01*
X86177999Y-123370999D02*
X102701998Y-106847000D01*
X86177999Y-124643001D02*
X86177999Y-123370999D01*
X92485999Y-130951001D02*
X86177999Y-124643001D01*
X86177999Y-149154001D02*
X86177999Y-147302999D01*
X110664000Y-106847000D02*
X112090001Y-105420999D01*
X86177999Y-147302999D02*
X102529997Y-130951001D01*
X92226999Y-155203001D02*
X86177999Y-149154001D01*
X94853001Y-155203001D02*
X92226999Y-155203001D01*
X102701998Y-106847000D02*
X110664000Y-106847000D01*
X95386001Y-154670001D02*
X94853001Y-155203001D01*
X95386001Y-153685999D02*
X95386001Y-154670001D01*
X112990000Y-136082000D02*
X95386001Y-153685999D01*
X102529997Y-130951001D02*
X92485999Y-130951001D01*
X112990000Y-129032000D02*
X112990000Y-136082000D01*
X111804999Y-78784999D02*
X112130001Y-79110001D01*
X105744999Y-78784999D02*
X111804999Y-78784999D01*
X86177999Y-99624001D02*
X86177999Y-98351999D01*
X86866999Y-100313001D02*
X86177999Y-99624001D01*
X112130001Y-79110001D02*
X113030000Y-80010000D01*
X86177999Y-98351999D02*
X105744999Y-78784999D01*
X108782001Y-100313001D02*
X86866999Y-100313001D01*
X112990000Y-104521000D02*
X108782001Y-100313001D01*
X113030000Y-80010000D02*
X131632999Y-80010000D01*
D22*
G36*
X87696748Y-119492858D02*
G01*
X87682605Y-119507000D01*
X87696748Y-119521143D01*
X87517143Y-119700748D01*
X87503000Y-119686605D01*
X86547192Y-120642413D01*
X86642956Y-120906814D01*
X86932571Y-121047704D01*
X87244108Y-121129384D01*
X87339100Y-121135097D01*
X85666997Y-122807200D01*
X85637999Y-122830998D01*
X85614201Y-122859996D01*
X85614200Y-122859997D01*
X85543025Y-122946723D01*
X85472453Y-123078753D01*
X85469418Y-123088759D01*
X85428997Y-123222013D01*
X85421166Y-123301518D01*
X85414323Y-123370999D01*
X85418000Y-123408331D01*
X85417999Y-124605678D01*
X85414323Y-124643001D01*
X85417999Y-124680323D01*
X85417999Y-124680333D01*
X85428996Y-124791986D01*
X85468070Y-124920799D01*
X85472453Y-124935247D01*
X85543025Y-125067277D01*
X85574806Y-125106002D01*
X85637998Y-125183002D01*
X85667002Y-125206805D01*
X91922200Y-131462004D01*
X91945998Y-131491002D01*
X91974996Y-131514800D01*
X92061722Y-131585975D01*
X92193752Y-131656547D01*
X92337013Y-131700004D01*
X92448666Y-131711001D01*
X92448675Y-131711001D01*
X92485998Y-131714677D01*
X92523321Y-131711001D01*
X92776868Y-131711001D01*
X92765541Y-131826000D01*
X92791317Y-132087706D01*
X92867653Y-132339354D01*
X92991618Y-132571275D01*
X93158445Y-132774555D01*
X93361725Y-132941382D01*
X93593646Y-133065347D01*
X93845294Y-133141683D01*
X94041421Y-133161000D01*
X94172579Y-133161000D01*
X94368706Y-133141683D01*
X94620354Y-133065347D01*
X94852275Y-132941382D01*
X95055555Y-132774555D01*
X95210298Y-132586000D01*
X99820196Y-132586000D01*
X89015949Y-143390248D01*
X88995795Y-143331912D01*
X88902814Y-143157956D01*
X88638413Y-143062192D01*
X87682605Y-144018000D01*
X87696748Y-144032143D01*
X87517143Y-144211748D01*
X87503000Y-144197605D01*
X86547192Y-145153413D01*
X86642956Y-145417814D01*
X86875336Y-145530861D01*
X85666997Y-146739200D01*
X85637999Y-146762998D01*
X85614201Y-146791996D01*
X85614200Y-146791997D01*
X85543025Y-146878723D01*
X85472453Y-147010753D01*
X85428997Y-147154014D01*
X85414323Y-147302999D01*
X85418000Y-147340331D01*
X85417999Y-149116678D01*
X85414323Y-149154001D01*
X85417999Y-149191323D01*
X85417999Y-149191333D01*
X85428996Y-149302986D01*
X85450223Y-149372962D01*
X85472453Y-149446247D01*
X85543025Y-149578277D01*
X85568309Y-149609085D01*
X85637998Y-149694002D01*
X85667002Y-149717805D01*
X91663200Y-155714004D01*
X91686998Y-155743002D01*
X91802723Y-155837975D01*
X91934752Y-155908547D01*
X92078013Y-155952004D01*
X92189666Y-155963001D01*
X92189676Y-155963001D01*
X92226999Y-155966677D01*
X92264322Y-155963001D01*
X93030868Y-155963001D01*
X93019541Y-156078000D01*
X93045317Y-156339706D01*
X93121653Y-156591354D01*
X93245618Y-156823275D01*
X93412445Y-157026555D01*
X93615725Y-157193382D01*
X93847646Y-157317347D01*
X94099294Y-157393683D01*
X94295421Y-157413000D01*
X94426579Y-157413000D01*
X94622706Y-157393683D01*
X94874354Y-157317347D01*
X95106275Y-157193382D01*
X95309555Y-157026555D01*
X95464298Y-156838000D01*
X95808078Y-156838000D01*
X95845400Y-156841676D01*
X95882722Y-156838000D01*
X95882733Y-156838000D01*
X95994386Y-156827003D01*
X96137647Y-156783546D01*
X96269676Y-156712974D01*
X96385401Y-156618001D01*
X96409204Y-156588997D01*
X99960202Y-153038000D01*
X106630311Y-153038000D01*
X106553989Y-153222257D01*
X106495000Y-153518816D01*
X106495000Y-153821184D01*
X106553989Y-154117743D01*
X106669701Y-154397095D01*
X106837688Y-154648505D01*
X107051495Y-154862312D01*
X107302905Y-155030299D01*
X107582257Y-155146011D01*
X107878816Y-155205000D01*
X108181184Y-155205000D01*
X108477743Y-155146011D01*
X108757095Y-155030299D01*
X109008505Y-154862312D01*
X109222312Y-154648505D01*
X109280000Y-154562169D01*
X109337688Y-154648505D01*
X109551495Y-154862312D01*
X109802905Y-155030299D01*
X110082257Y-155146011D01*
X110378816Y-155205000D01*
X110681184Y-155205000D01*
X110977743Y-155146011D01*
X111257095Y-155030299D01*
X111508505Y-154862312D01*
X111722312Y-154648505D01*
X111780000Y-154562169D01*
X111837688Y-154648505D01*
X112051495Y-154862312D01*
X112302905Y-155030299D01*
X112582257Y-155146011D01*
X112878816Y-155205000D01*
X113181184Y-155205000D01*
X113438930Y-155153731D01*
X113691202Y-155406004D01*
X113715000Y-155435002D01*
X113743998Y-155458800D01*
X113830724Y-155529975D01*
X113899989Y-155566998D01*
X113962754Y-155600547D01*
X114106015Y-155644004D01*
X114217668Y-155655001D01*
X114217677Y-155655001D01*
X114255000Y-155658677D01*
X114292323Y-155655001D01*
X132360674Y-155655001D01*
X132383325Y-155657232D01*
X132397998Y-155658677D01*
X132397999Y-155658677D01*
X132435324Y-155655001D01*
X136036679Y-155655001D01*
X136074001Y-155658677D01*
X136111323Y-155655001D01*
X136723677Y-155655001D01*
X136760999Y-155658677D01*
X136798321Y-155655001D01*
X136798332Y-155655001D01*
X136909985Y-155644004D01*
X137053246Y-155600547D01*
X137185275Y-155529975D01*
X137301000Y-155435002D01*
X137324803Y-155405998D01*
X137577070Y-155153731D01*
X137834816Y-155205000D01*
X138137184Y-155205000D01*
X138433743Y-155146011D01*
X138713095Y-155030299D01*
X138964505Y-154862312D01*
X139161116Y-154665701D01*
X147583000Y-154665701D01*
X147583000Y-155214299D01*
X147690026Y-155752354D01*
X147899965Y-156259192D01*
X148204750Y-156715334D01*
X148592666Y-157103250D01*
X149048808Y-157408035D01*
X149555646Y-157617974D01*
X150093701Y-157725000D01*
X150642299Y-157725000D01*
X151180354Y-157617974D01*
X151687192Y-157408035D01*
X152143334Y-157103250D01*
X152531250Y-156715334D01*
X152836035Y-156259192D01*
X153045974Y-155752354D01*
X153153000Y-155214299D01*
X153153000Y-154665701D01*
X153045974Y-154127646D01*
X152836035Y-153620808D01*
X152531250Y-153164666D01*
X152143334Y-152776750D01*
X151687192Y-152471965D01*
X151180354Y-152262026D01*
X150642299Y-152155000D01*
X150093701Y-152155000D01*
X149555646Y-152262026D01*
X149048808Y-152471965D01*
X148592666Y-152776750D01*
X148204750Y-153164666D01*
X147899965Y-153620808D01*
X147690026Y-154127646D01*
X147583000Y-154665701D01*
X139161116Y-154665701D01*
X139178312Y-154648505D01*
X139346299Y-154397095D01*
X139462011Y-154117743D01*
X139521000Y-153821184D01*
X139521000Y-153518816D01*
X139469731Y-153261070D01*
X143634802Y-149096000D01*
X170078678Y-149096000D01*
X170116000Y-149099676D01*
X170153322Y-149096000D01*
X170153333Y-149096000D01*
X170264986Y-149085003D01*
X170408247Y-149041546D01*
X170540276Y-148970974D01*
X170656001Y-148876001D01*
X170679804Y-148846997D01*
X178915071Y-140611731D01*
X179172816Y-140663000D01*
X179475184Y-140663000D01*
X179732930Y-140611731D01*
X187968205Y-148847008D01*
X187991999Y-148876001D01*
X188020992Y-148899795D01*
X188020996Y-148899799D01*
X188061048Y-148932668D01*
X188107724Y-148970974D01*
X188239753Y-149041546D01*
X188383014Y-149085003D01*
X188494667Y-149096000D01*
X188494676Y-149096000D01*
X188531999Y-149099676D01*
X188569322Y-149096000D01*
X199435225Y-149096000D01*
X199496038Y-149187013D01*
X199591050Y-149282025D01*
X199584445Y-149287445D01*
X199417618Y-149490725D01*
X199293653Y-149722646D01*
X199217317Y-149974294D01*
X199191541Y-150236000D01*
X199217317Y-150497706D01*
X199293653Y-150749354D01*
X199417618Y-150981275D01*
X199584445Y-151184555D01*
X199644000Y-151233430D01*
X199644000Y-159646990D01*
X77462010Y-159646990D01*
X77462010Y-154665701D01*
X79257000Y-154665701D01*
X79257000Y-155214299D01*
X79364026Y-155752354D01*
X79573965Y-156259192D01*
X79878750Y-156715334D01*
X80266666Y-157103250D01*
X80722808Y-157408035D01*
X81229646Y-157617974D01*
X81767701Y-157725000D01*
X82316299Y-157725000D01*
X82854354Y-157617974D01*
X83361192Y-157408035D01*
X83817334Y-157103250D01*
X84205250Y-156715334D01*
X84510035Y-156259192D01*
X84719974Y-155752354D01*
X84827000Y-155214299D01*
X84827000Y-154665701D01*
X84719974Y-154127646D01*
X84510035Y-153620808D01*
X84205250Y-153164666D01*
X83817334Y-152776750D01*
X83361192Y-152471965D01*
X82854354Y-152262026D01*
X82316299Y-152155000D01*
X81767701Y-152155000D01*
X81229646Y-152262026D01*
X80722808Y-152471965D01*
X80266666Y-152776750D01*
X79878750Y-153164666D01*
X79573965Y-153620808D01*
X79364026Y-154127646D01*
X79257000Y-154665701D01*
X77462010Y-154665701D01*
X77462010Y-144080595D01*
X85861282Y-144080595D01*
X85905039Y-144399675D01*
X86010205Y-144704088D01*
X86103186Y-144878044D01*
X86367587Y-144973808D01*
X87323395Y-144018000D01*
X86367587Y-143062192D01*
X86103186Y-143157956D01*
X85962296Y-143447571D01*
X85880616Y-143759108D01*
X85861282Y-144080595D01*
X77462010Y-144080595D01*
X77462010Y-142882587D01*
X86547192Y-142882587D01*
X87503000Y-143838395D01*
X88458808Y-142882587D01*
X88363044Y-142618186D01*
X88073429Y-142477296D01*
X87761892Y-142395616D01*
X87440405Y-142376282D01*
X87121325Y-142420039D01*
X86816912Y-142525205D01*
X86642956Y-142618186D01*
X86547192Y-142882587D01*
X77462010Y-142882587D01*
X77462010Y-128324811D01*
X85904208Y-119882615D01*
X85905039Y-119888675D01*
X86010205Y-120193088D01*
X86103186Y-120367044D01*
X86367587Y-120462808D01*
X87323395Y-119507000D01*
X87309253Y-119492858D01*
X87488858Y-119313253D01*
X87503000Y-119327395D01*
X87517143Y-119313253D01*
X87696748Y-119492858D01*
X87696748Y-119492858D01*
G37*
X87696748Y-119492858D02*
X87682605Y-119507000D01*
X87696748Y-119521143D01*
X87517143Y-119700748D01*
X87503000Y-119686605D01*
X86547192Y-120642413D01*
X86642956Y-120906814D01*
X86932571Y-121047704D01*
X87244108Y-121129384D01*
X87339100Y-121135097D01*
X85666997Y-122807200D01*
X85637999Y-122830998D01*
X85614201Y-122859996D01*
X85614200Y-122859997D01*
X85543025Y-122946723D01*
X85472453Y-123078753D01*
X85469418Y-123088759D01*
X85428997Y-123222013D01*
X85421166Y-123301518D01*
X85414323Y-123370999D01*
X85418000Y-123408331D01*
X85417999Y-124605678D01*
X85414323Y-124643001D01*
X85417999Y-124680323D01*
X85417999Y-124680333D01*
X85428996Y-124791986D01*
X85468070Y-124920799D01*
X85472453Y-124935247D01*
X85543025Y-125067277D01*
X85574806Y-125106002D01*
X85637998Y-125183002D01*
X85667002Y-125206805D01*
X91922200Y-131462004D01*
X91945998Y-131491002D01*
X91974996Y-131514800D01*
X92061722Y-131585975D01*
X92193752Y-131656547D01*
X92337013Y-131700004D01*
X92448666Y-131711001D01*
X92448675Y-131711001D01*
X92485998Y-131714677D01*
X92523321Y-131711001D01*
X92776868Y-131711001D01*
X92765541Y-131826000D01*
X92791317Y-132087706D01*
X92867653Y-132339354D01*
X92991618Y-132571275D01*
X93158445Y-132774555D01*
X93361725Y-132941382D01*
X93593646Y-133065347D01*
X93845294Y-133141683D01*
X94041421Y-133161000D01*
X94172579Y-133161000D01*
X94368706Y-133141683D01*
X94620354Y-133065347D01*
X94852275Y-132941382D01*
X95055555Y-132774555D01*
X95210298Y-132586000D01*
X99820196Y-132586000D01*
X89015949Y-143390248D01*
X88995795Y-143331912D01*
X88902814Y-143157956D01*
X88638413Y-143062192D01*
X87682605Y-144018000D01*
X87696748Y-144032143D01*
X87517143Y-144211748D01*
X87503000Y-144197605D01*
X86547192Y-145153413D01*
X86642956Y-145417814D01*
X86875336Y-145530861D01*
X85666997Y-146739200D01*
X85637999Y-146762998D01*
X85614201Y-146791996D01*
X85614200Y-146791997D01*
X85543025Y-146878723D01*
X85472453Y-147010753D01*
X85428997Y-147154014D01*
X85414323Y-147302999D01*
X85418000Y-147340331D01*
X85417999Y-149116678D01*
X85414323Y-149154001D01*
X85417999Y-149191323D01*
X85417999Y-149191333D01*
X85428996Y-149302986D01*
X85450223Y-149372962D01*
X85472453Y-149446247D01*
X85543025Y-149578277D01*
X85568309Y-149609085D01*
X85637998Y-149694002D01*
X85667002Y-149717805D01*
X91663200Y-155714004D01*
X91686998Y-155743002D01*
X91802723Y-155837975D01*
X91934752Y-155908547D01*
X92078013Y-155952004D01*
X92189666Y-155963001D01*
X92189676Y-155963001D01*
X92226999Y-155966677D01*
X92264322Y-155963001D01*
X93030868Y-155963001D01*
X93019541Y-156078000D01*
X93045317Y-156339706D01*
X93121653Y-156591354D01*
X93245618Y-156823275D01*
X93412445Y-157026555D01*
X93615725Y-157193382D01*
X93847646Y-157317347D01*
X94099294Y-157393683D01*
X94295421Y-157413000D01*
X94426579Y-157413000D01*
X94622706Y-157393683D01*
X94874354Y-157317347D01*
X95106275Y-157193382D01*
X95309555Y-157026555D01*
X95464298Y-156838000D01*
X95808078Y-156838000D01*
X95845400Y-156841676D01*
X95882722Y-156838000D01*
X95882733Y-156838000D01*
X95994386Y-156827003D01*
X96137647Y-156783546D01*
X96269676Y-156712974D01*
X96385401Y-156618001D01*
X96409204Y-156588997D01*
X99960202Y-153038000D01*
X106630311Y-153038000D01*
X106553989Y-153222257D01*
X106495000Y-153518816D01*
X106495000Y-153821184D01*
X106553989Y-154117743D01*
X106669701Y-154397095D01*
X106837688Y-154648505D01*
X107051495Y-154862312D01*
X107302905Y-155030299D01*
X107582257Y-155146011D01*
X107878816Y-155205000D01*
X108181184Y-155205000D01*
X108477743Y-155146011D01*
X108757095Y-155030299D01*
X109008505Y-154862312D01*
X109222312Y-154648505D01*
X109280000Y-154562169D01*
X109337688Y-154648505D01*
X109551495Y-154862312D01*
X109802905Y-155030299D01*
X110082257Y-155146011D01*
X110378816Y-155205000D01*
X110681184Y-155205000D01*
X110977743Y-155146011D01*
X111257095Y-155030299D01*
X111508505Y-154862312D01*
X111722312Y-154648505D01*
X111780000Y-154562169D01*
X111837688Y-154648505D01*
X112051495Y-154862312D01*
X112302905Y-155030299D01*
X112582257Y-155146011D01*
X112878816Y-155205000D01*
X113181184Y-155205000D01*
X113438930Y-155153731D01*
X113691202Y-155406004D01*
X113715000Y-155435002D01*
X113743998Y-155458800D01*
X113830724Y-155529975D01*
X113899989Y-155566998D01*
X113962754Y-155600547D01*
X114106015Y-155644004D01*
X114217668Y-155655001D01*
X114217677Y-155655001D01*
X114255000Y-155658677D01*
X114292323Y-155655001D01*
X132360674Y-155655001D01*
X132383325Y-155657232D01*
X132397998Y-155658677D01*
X132397999Y-155658677D01*
X132435324Y-155655001D01*
X136036679Y-155655001D01*
X136074001Y-155658677D01*
X136111323Y-155655001D01*
X136723677Y-155655001D01*
X136760999Y-155658677D01*
X136798321Y-155655001D01*
X136798332Y-155655001D01*
X136909985Y-155644004D01*
X137053246Y-155600547D01*
X137185275Y-155529975D01*
X137301000Y-155435002D01*
X137324803Y-155405998D01*
X137577070Y-155153731D01*
X137834816Y-155205000D01*
X138137184Y-155205000D01*
X138433743Y-155146011D01*
X138713095Y-155030299D01*
X138964505Y-154862312D01*
X139161116Y-154665701D01*
X147583000Y-154665701D01*
X147583000Y-155214299D01*
X147690026Y-155752354D01*
X147899965Y-156259192D01*
X148204750Y-156715334D01*
X148592666Y-157103250D01*
X149048808Y-157408035D01*
X149555646Y-157617974D01*
X150093701Y-157725000D01*
X150642299Y-157725000D01*
X151180354Y-157617974D01*
X151687192Y-157408035D01*
X152143334Y-157103250D01*
X152531250Y-156715334D01*
X152836035Y-156259192D01*
X153045974Y-155752354D01*
X153153000Y-155214299D01*
X153153000Y-154665701D01*
X153045974Y-154127646D01*
X152836035Y-153620808D01*
X152531250Y-153164666D01*
X152143334Y-152776750D01*
X151687192Y-152471965D01*
X151180354Y-152262026D01*
X150642299Y-152155000D01*
X150093701Y-152155000D01*
X149555646Y-152262026D01*
X149048808Y-152471965D01*
X148592666Y-152776750D01*
X148204750Y-153164666D01*
X147899965Y-153620808D01*
X147690026Y-154127646D01*
X147583000Y-154665701D01*
X139161116Y-154665701D01*
X139178312Y-154648505D01*
X139346299Y-154397095D01*
X139462011Y-154117743D01*
X139521000Y-153821184D01*
X139521000Y-153518816D01*
X139469731Y-153261070D01*
X143634802Y-149096000D01*
X170078678Y-149096000D01*
X170116000Y-149099676D01*
X170153322Y-149096000D01*
X170153333Y-149096000D01*
X170264986Y-149085003D01*
X170408247Y-149041546D01*
X170540276Y-148970974D01*
X170656001Y-148876001D01*
X170679804Y-148846997D01*
X178915071Y-140611731D01*
X179172816Y-140663000D01*
X179475184Y-140663000D01*
X179732930Y-140611731D01*
X187968205Y-148847008D01*
X187991999Y-148876001D01*
X188020992Y-148899795D01*
X188020996Y-148899799D01*
X188061048Y-148932668D01*
X188107724Y-148970974D01*
X188239753Y-149041546D01*
X188383014Y-149085003D01*
X188494667Y-149096000D01*
X188494676Y-149096000D01*
X188531999Y-149099676D01*
X188569322Y-149096000D01*
X199435225Y-149096000D01*
X199496038Y-149187013D01*
X199591050Y-149282025D01*
X199584445Y-149287445D01*
X199417618Y-149490725D01*
X199293653Y-149722646D01*
X199217317Y-149974294D01*
X199191541Y-150236000D01*
X199217317Y-150497706D01*
X199293653Y-150749354D01*
X199417618Y-150981275D01*
X199584445Y-151184555D01*
X199644000Y-151233430D01*
X199644000Y-159646990D01*
X77462010Y-159646990D01*
X77462010Y-154665701D01*
X79257000Y-154665701D01*
X79257000Y-155214299D01*
X79364026Y-155752354D01*
X79573965Y-156259192D01*
X79878750Y-156715334D01*
X80266666Y-157103250D01*
X80722808Y-157408035D01*
X81229646Y-157617974D01*
X81767701Y-157725000D01*
X82316299Y-157725000D01*
X82854354Y-157617974D01*
X83361192Y-157408035D01*
X83817334Y-157103250D01*
X84205250Y-156715334D01*
X84510035Y-156259192D01*
X84719974Y-155752354D01*
X84827000Y-155214299D01*
X84827000Y-154665701D01*
X84719974Y-154127646D01*
X84510035Y-153620808D01*
X84205250Y-153164666D01*
X83817334Y-152776750D01*
X83361192Y-152471965D01*
X82854354Y-152262026D01*
X82316299Y-152155000D01*
X81767701Y-152155000D01*
X81229646Y-152262026D01*
X80722808Y-152471965D01*
X80266666Y-152776750D01*
X79878750Y-153164666D01*
X79573965Y-153620808D01*
X79364026Y-154127646D01*
X79257000Y-154665701D01*
X77462010Y-154665701D01*
X77462010Y-144080595D01*
X85861282Y-144080595D01*
X85905039Y-144399675D01*
X86010205Y-144704088D01*
X86103186Y-144878044D01*
X86367587Y-144973808D01*
X87323395Y-144018000D01*
X86367587Y-143062192D01*
X86103186Y-143157956D01*
X85962296Y-143447571D01*
X85880616Y-143759108D01*
X85861282Y-144080595D01*
X77462010Y-144080595D01*
X77462010Y-142882587D01*
X86547192Y-142882587D01*
X87503000Y-143838395D01*
X88458808Y-142882587D01*
X88363044Y-142618186D01*
X88073429Y-142477296D01*
X87761892Y-142395616D01*
X87440405Y-142376282D01*
X87121325Y-142420039D01*
X86816912Y-142525205D01*
X86642956Y-142618186D01*
X86547192Y-142882587D01*
X77462010Y-142882587D01*
X77462010Y-128324811D01*
X85904208Y-119882615D01*
X85905039Y-119888675D01*
X86010205Y-120193088D01*
X86103186Y-120367044D01*
X86367587Y-120462808D01*
X87323395Y-119507000D01*
X87309253Y-119492858D01*
X87488858Y-119313253D01*
X87503000Y-119327395D01*
X87517143Y-119313253D01*
X87696748Y-119492858D01*
G36*
X102337226Y-132629937D02*
G01*
X102506744Y-132743205D01*
X102695102Y-132821226D01*
X102895061Y-132861000D01*
X103046198Y-132861000D01*
X100810503Y-135096696D01*
X100781499Y-135120499D01*
X100743931Y-135166276D01*
X100686526Y-135236224D01*
X100634799Y-135332998D01*
X100615954Y-135368254D01*
X100572497Y-135511515D01*
X100561500Y-135623168D01*
X100561500Y-135623178D01*
X100557824Y-135660500D01*
X100561500Y-135697823D01*
X100561501Y-140884697D01*
X94494376Y-146951823D01*
X94479912Y-146945832D01*
X94164033Y-146883000D01*
X93841967Y-146883000D01*
X93526088Y-146945832D01*
X93228537Y-147069082D01*
X92960748Y-147248013D01*
X92733013Y-147475748D01*
X92554082Y-147743537D01*
X92548091Y-147758000D01*
X88957909Y-147758000D01*
X88951918Y-147743537D01*
X88772987Y-147475748D01*
X88545252Y-147248013D01*
X88277463Y-147069082D01*
X87979912Y-146945832D01*
X87671345Y-146884454D01*
X89402386Y-145153413D01*
X93047192Y-145153413D01*
X93142956Y-145417814D01*
X93432571Y-145558704D01*
X93744108Y-145640384D01*
X94065595Y-145659718D01*
X94384675Y-145615961D01*
X94689088Y-145510795D01*
X94863044Y-145417814D01*
X94958808Y-145153413D01*
X94003000Y-144197605D01*
X93047192Y-145153413D01*
X89402386Y-145153413D01*
X90475204Y-144080595D01*
X92361282Y-144080595D01*
X92405039Y-144399675D01*
X92510205Y-144704088D01*
X92603186Y-144878044D01*
X92867587Y-144973808D01*
X93823395Y-144018000D01*
X94182605Y-144018000D01*
X95138413Y-144973808D01*
X95402814Y-144878044D01*
X95543704Y-144588429D01*
X95625384Y-144276892D01*
X95644718Y-143955405D01*
X95600961Y-143636325D01*
X95495795Y-143331912D01*
X95402814Y-143157956D01*
X95138413Y-143062192D01*
X94182605Y-144018000D01*
X93823395Y-144018000D01*
X92867587Y-143062192D01*
X92603186Y-143157956D01*
X92462296Y-143447571D01*
X92380616Y-143759108D01*
X92361282Y-144080595D01*
X90475204Y-144080595D01*
X91673212Y-142882587D01*
X93047192Y-142882587D01*
X94003000Y-143838395D01*
X94958808Y-142882587D01*
X94863044Y-142618186D01*
X94573429Y-142477296D01*
X94261892Y-142395616D01*
X93940405Y-142376282D01*
X93621325Y-142420039D01*
X93316912Y-142525205D01*
X93142956Y-142618186D01*
X93047192Y-142882587D01*
X91673212Y-142882587D01*
X101969800Y-132586000D01*
X102293289Y-132586000D01*
X102337226Y-132629937D01*
X102337226Y-132629937D01*
G37*
X102337226Y-132629937D02*
X102506744Y-132743205D01*
X102695102Y-132821226D01*
X102895061Y-132861000D01*
X103046198Y-132861000D01*
X100810503Y-135096696D01*
X100781499Y-135120499D01*
X100743931Y-135166276D01*
X100686526Y-135236224D01*
X100634799Y-135332998D01*
X100615954Y-135368254D01*
X100572497Y-135511515D01*
X100561500Y-135623168D01*
X100561500Y-135623178D01*
X100557824Y-135660500D01*
X100561500Y-135697823D01*
X100561501Y-140884697D01*
X94494376Y-146951823D01*
X94479912Y-146945832D01*
X94164033Y-146883000D01*
X93841967Y-146883000D01*
X93526088Y-146945832D01*
X93228537Y-147069082D01*
X92960748Y-147248013D01*
X92733013Y-147475748D01*
X92554082Y-147743537D01*
X92548091Y-147758000D01*
X88957909Y-147758000D01*
X88951918Y-147743537D01*
X88772987Y-147475748D01*
X88545252Y-147248013D01*
X88277463Y-147069082D01*
X87979912Y-146945832D01*
X87671345Y-146884454D01*
X89402386Y-145153413D01*
X93047192Y-145153413D01*
X93142956Y-145417814D01*
X93432571Y-145558704D01*
X93744108Y-145640384D01*
X94065595Y-145659718D01*
X94384675Y-145615961D01*
X94689088Y-145510795D01*
X94863044Y-145417814D01*
X94958808Y-145153413D01*
X94003000Y-144197605D01*
X93047192Y-145153413D01*
X89402386Y-145153413D01*
X90475204Y-144080595D01*
X92361282Y-144080595D01*
X92405039Y-144399675D01*
X92510205Y-144704088D01*
X92603186Y-144878044D01*
X92867587Y-144973808D01*
X93823395Y-144018000D01*
X94182605Y-144018000D01*
X95138413Y-144973808D01*
X95402814Y-144878044D01*
X95543704Y-144588429D01*
X95625384Y-144276892D01*
X95644718Y-143955405D01*
X95600961Y-143636325D01*
X95495795Y-143331912D01*
X95402814Y-143157956D01*
X95138413Y-143062192D01*
X94182605Y-144018000D01*
X93823395Y-144018000D01*
X92867587Y-143062192D01*
X92603186Y-143157956D01*
X92462296Y-143447571D01*
X92380616Y-143759108D01*
X92361282Y-144080595D01*
X90475204Y-144080595D01*
X91673212Y-142882587D01*
X93047192Y-142882587D01*
X94003000Y-143838395D01*
X94958808Y-142882587D01*
X94863044Y-142618186D01*
X94573429Y-142477296D01*
X94261892Y-142395616D01*
X93940405Y-142376282D01*
X93621325Y-142420039D01*
X93316912Y-142525205D01*
X93142956Y-142618186D01*
X93047192Y-142882587D01*
X91673212Y-142882587D01*
X101969800Y-132586000D01*
X102293289Y-132586000D01*
X102337226Y-132629937D01*
G36*
X157604186Y-69624956D02*
G01*
X157463296Y-69914571D01*
X157381616Y-70226108D01*
X157362282Y-70547595D01*
X157406039Y-70866675D01*
X157511205Y-71171088D01*
X157604186Y-71345044D01*
X157868587Y-71440808D01*
X158824395Y-70485000D01*
X158810253Y-70470858D01*
X158989858Y-70291253D01*
X159004000Y-70305395D01*
X159018143Y-70291253D01*
X159197748Y-70470858D01*
X159183605Y-70485000D01*
X160139413Y-71440808D01*
X160403814Y-71345044D01*
X160544704Y-71055429D01*
X160626384Y-70743892D01*
X160645718Y-70422405D01*
X160601961Y-70103325D01*
X160496795Y-69798912D01*
X160403814Y-69624956D01*
X160318346Y-69594000D01*
X164189654Y-69594000D01*
X164104186Y-69624956D01*
X163963296Y-69914571D01*
X163881616Y-70226108D01*
X163862282Y-70547595D01*
X163906039Y-70866675D01*
X164011205Y-71171088D01*
X164104186Y-71345044D01*
X164368587Y-71440808D01*
X165324395Y-70485000D01*
X165310253Y-70470858D01*
X165489858Y-70291253D01*
X165504000Y-70305395D01*
X165518143Y-70291253D01*
X165697748Y-70470858D01*
X165683605Y-70485000D01*
X166639413Y-71440808D01*
X166903814Y-71345044D01*
X167044704Y-71055429D01*
X167126384Y-70743892D01*
X167145718Y-70422405D01*
X167101961Y-70103325D01*
X166996795Y-69798912D01*
X166903814Y-69624956D01*
X166818346Y-69594000D01*
X172384354Y-69594000D01*
X172259296Y-69851071D01*
X172177616Y-70162608D01*
X172158282Y-70484095D01*
X172202039Y-70803175D01*
X172307205Y-71107588D01*
X172400186Y-71281544D01*
X172664587Y-71377308D01*
X173620395Y-70421500D01*
X173606253Y-70407358D01*
X173785858Y-70227753D01*
X173800000Y-70241895D01*
X173814143Y-70227753D01*
X173993748Y-70407358D01*
X173979605Y-70421500D01*
X174935413Y-71377308D01*
X175199814Y-71281544D01*
X175340704Y-70991929D01*
X175422384Y-70680392D01*
X175441718Y-70358905D01*
X175397961Y-70039825D01*
X175292795Y-69735412D01*
X175217209Y-69594000D01*
X178884354Y-69594000D01*
X178759296Y-69851071D01*
X178677616Y-70162608D01*
X178658282Y-70484095D01*
X178702039Y-70803175D01*
X178807205Y-71107588D01*
X178900186Y-71281544D01*
X179164587Y-71377308D01*
X180120395Y-70421500D01*
X180106253Y-70407358D01*
X180285858Y-70227753D01*
X180300000Y-70241895D01*
X180314143Y-70227753D01*
X180493748Y-70407358D01*
X180479605Y-70421500D01*
X181435413Y-71377308D01*
X181699814Y-71281544D01*
X181840704Y-70991929D01*
X181922384Y-70680392D01*
X181941718Y-70358905D01*
X181897961Y-70039825D01*
X181792795Y-69735412D01*
X181717209Y-69594000D01*
X187116354Y-69594000D01*
X186991296Y-69851071D01*
X186909616Y-70162608D01*
X186890282Y-70484095D01*
X186934039Y-70803175D01*
X187039205Y-71107588D01*
X187132186Y-71281544D01*
X187396587Y-71377308D01*
X188352395Y-70421500D01*
X188338253Y-70407358D01*
X188517858Y-70227753D01*
X188532000Y-70241895D01*
X188546143Y-70227753D01*
X188725748Y-70407358D01*
X188711605Y-70421500D01*
X189667413Y-71377308D01*
X189931814Y-71281544D01*
X190072704Y-70991929D01*
X190154384Y-70680392D01*
X190173718Y-70358905D01*
X190129961Y-70039825D01*
X190024795Y-69735412D01*
X189949209Y-69594000D01*
X193616354Y-69594000D01*
X193491296Y-69851071D01*
X193409616Y-70162608D01*
X193390282Y-70484095D01*
X193434039Y-70803175D01*
X193539205Y-71107588D01*
X193632186Y-71281544D01*
X193896587Y-71377308D01*
X194852395Y-70421500D01*
X194838253Y-70407358D01*
X195017858Y-70227753D01*
X195032000Y-70241895D01*
X195046143Y-70227753D01*
X195225748Y-70407358D01*
X195211605Y-70421500D01*
X195225748Y-70435643D01*
X195046143Y-70615248D01*
X195032000Y-70601105D01*
X194076192Y-71556913D01*
X194171956Y-71821314D01*
X194351528Y-71908671D01*
X193614199Y-72646000D01*
X187025775Y-72646000D01*
X186964962Y-72554987D01*
X186779013Y-72369038D01*
X186560359Y-72222939D01*
X186317405Y-72122304D01*
X186059486Y-72071000D01*
X185796514Y-72071000D01*
X185538595Y-72122304D01*
X185295641Y-72222939D01*
X185076987Y-72369038D01*
X184891038Y-72554987D01*
X184830225Y-72646000D01*
X173391322Y-72646000D01*
X173353999Y-72642324D01*
X173316676Y-72646000D01*
X173316667Y-72646000D01*
X173205014Y-72656997D01*
X173061753Y-72700454D01*
X172929724Y-72771026D01*
X172813999Y-72865999D01*
X172790196Y-72895003D01*
X172785199Y-72900000D01*
X171404775Y-72900000D01*
X171343962Y-72808987D01*
X171158013Y-72623038D01*
X170939359Y-72476939D01*
X170696405Y-72376304D01*
X170438486Y-72325000D01*
X170175514Y-72325000D01*
X169917595Y-72376304D01*
X169674641Y-72476939D01*
X169455987Y-72623038D01*
X169306025Y-72773000D01*
X156926775Y-72773000D01*
X156865962Y-72681987D01*
X156680013Y-72496038D01*
X156461359Y-72349939D01*
X156218405Y-72249304D01*
X155960486Y-72198000D01*
X155697514Y-72198000D01*
X155439595Y-72249304D01*
X155196641Y-72349939D01*
X154977987Y-72496038D01*
X154792038Y-72681987D01*
X154645939Y-72900641D01*
X154545304Y-73143595D01*
X154494000Y-73401514D01*
X154494000Y-73664486D01*
X154545304Y-73922405D01*
X154645939Y-74165359D01*
X154792038Y-74384013D01*
X154887050Y-74479025D01*
X154880445Y-74484445D01*
X154713618Y-74687725D01*
X154589653Y-74919646D01*
X154513317Y-75171294D01*
X154487541Y-75433000D01*
X154513317Y-75694706D01*
X154589653Y-75946354D01*
X154713618Y-76178275D01*
X154880445Y-76381555D01*
X155083725Y-76548382D01*
X155315646Y-76672347D01*
X155567294Y-76748683D01*
X155763421Y-76768000D01*
X155894579Y-76768000D01*
X156090706Y-76748683D01*
X156342354Y-76672347D01*
X156574275Y-76548382D01*
X156777555Y-76381555D01*
X156935874Y-76188643D01*
X157003286Y-76182003D01*
X157146547Y-76138546D01*
X157278576Y-76067974D01*
X157394301Y-75973001D01*
X157418104Y-75943997D01*
X157574130Y-75787971D01*
X157734013Y-76027252D01*
X157961748Y-76254987D01*
X158229537Y-76433918D01*
X158527088Y-76557168D01*
X158842967Y-76620000D01*
X159165033Y-76620000D01*
X159480912Y-76557168D01*
X159778463Y-76433918D01*
X160046252Y-76254987D01*
X160273987Y-76027252D01*
X160452918Y-75759463D01*
X160458909Y-75745000D01*
X164049091Y-75745000D01*
X164055082Y-75759463D01*
X164234013Y-76027252D01*
X164461748Y-76254987D01*
X164729537Y-76433918D01*
X165027088Y-76557168D01*
X165342967Y-76620000D01*
X165665033Y-76620000D01*
X165980912Y-76557168D01*
X166278463Y-76433918D01*
X166546252Y-76254987D01*
X166773987Y-76027252D01*
X166952918Y-75759463D01*
X167076168Y-75461912D01*
X167139000Y-75146033D01*
X167139000Y-74823967D01*
X167076168Y-74508088D01*
X166987075Y-74293000D01*
X169124367Y-74293000D01*
X169270038Y-74511013D01*
X169365050Y-74606025D01*
X169358445Y-74611445D01*
X169191618Y-74814725D01*
X169067653Y-75046646D01*
X168991317Y-75298294D01*
X168965541Y-75560000D01*
X168991317Y-75821706D01*
X169067653Y-76073354D01*
X169191618Y-76305275D01*
X169231441Y-76353800D01*
X167025333Y-76353800D01*
X166988018Y-76350124D01*
X166950685Y-76353800D01*
X166950667Y-76353800D01*
X166884441Y-76360323D01*
X166839032Y-76364794D01*
X166839026Y-76364796D01*
X166839014Y-76364797D01*
X166757132Y-76389635D01*
X166695770Y-76408247D01*
X166695762Y-76408251D01*
X166695753Y-76408254D01*
X166628057Y-76444439D01*
X166563739Y-76478816D01*
X166563732Y-76478822D01*
X166563724Y-76478826D01*
X166520287Y-76514474D01*
X166477010Y-76549988D01*
X166476997Y-76550001D01*
X166447999Y-76573799D01*
X166424212Y-76602783D01*
X161290780Y-81735968D01*
X161261773Y-81759773D01*
X161201716Y-81832953D01*
X161166811Y-81875483D01*
X161166809Y-81875488D01*
X161166800Y-81875498D01*
X161128581Y-81947001D01*
X161096235Y-82007511D01*
X161096232Y-82007520D01*
X161096228Y-82007528D01*
X161078845Y-82064835D01*
X161052775Y-82150770D01*
X161052774Y-82150783D01*
X161052772Y-82150789D01*
X161047066Y-82208723D01*
X161038098Y-82299756D01*
X161038099Y-82299765D01*
X161038098Y-82299774D01*
X161042986Y-82349400D01*
X161052768Y-82448741D01*
X161052771Y-82448752D01*
X161052772Y-82448759D01*
X161067985Y-82498912D01*
X161096221Y-82592003D01*
X161096225Y-82592011D01*
X161096228Y-82592020D01*
X161129900Y-82655015D01*
X161166790Y-82724034D01*
X161166794Y-82724039D01*
X161166800Y-82724050D01*
X161211860Y-82778955D01*
X161261760Y-82839762D01*
X161290769Y-82863570D01*
X161292001Y-82864802D01*
X161292000Y-86553198D01*
X160586279Y-87258919D01*
X160576168Y-87208088D01*
X160452918Y-86910537D01*
X160273987Y-86642748D01*
X160046252Y-86415013D01*
X159778463Y-86236082D01*
X159480912Y-86112832D01*
X159165033Y-86050000D01*
X158842967Y-86050000D01*
X158527088Y-86112832D01*
X158229537Y-86236082D01*
X157961748Y-86415013D01*
X157734013Y-86642748D01*
X157555082Y-86910537D01*
X157431832Y-87208088D01*
X157369000Y-87523967D01*
X157369000Y-87846033D01*
X157431832Y-88161912D01*
X157555082Y-88459463D01*
X157734013Y-88727252D01*
X157961748Y-88954987D01*
X158229537Y-89133918D01*
X158527088Y-89257168D01*
X158577920Y-89267279D01*
X158558612Y-89286587D01*
X154091917Y-89286587D01*
X154054605Y-89282911D01*
X154017272Y-89286587D01*
X154017254Y-89286587D01*
X153953501Y-89292866D01*
X153905618Y-89297581D01*
X153905612Y-89297583D01*
X153905601Y-89297584D01*
X153831704Y-89320000D01*
X153762357Y-89341034D01*
X153762349Y-89341038D01*
X153762340Y-89341041D01*
X153694644Y-89377226D01*
X153630326Y-89411603D01*
X153630319Y-89411609D01*
X153630311Y-89411613D01*
X153574841Y-89457136D01*
X153543597Y-89482776D01*
X153543590Y-89482783D01*
X153514586Y-89506586D01*
X153490795Y-89535576D01*
X150151209Y-92875000D01*
X130430332Y-92875000D01*
X130392999Y-92871323D01*
X130355669Y-92875000D01*
X130355667Y-92875000D01*
X130244014Y-92885997D01*
X130144209Y-92916272D01*
X130100752Y-92929454D01*
X130067373Y-92947296D01*
X129968724Y-93000026D01*
X129968722Y-93000027D01*
X129968723Y-93000027D01*
X129881996Y-93071201D01*
X129881992Y-93071205D01*
X129852999Y-93094999D01*
X129829205Y-93123992D01*
X95124121Y-127829174D01*
X95102226Y-127719102D01*
X95024205Y-127530744D01*
X94910937Y-127361226D01*
X94867000Y-127317289D01*
X94867000Y-127310801D01*
X96878004Y-125299798D01*
X96907001Y-125276001D01*
X97001974Y-125160276D01*
X97072546Y-125028247D01*
X97116003Y-124884986D01*
X97127000Y-124773333D01*
X97127000Y-124773325D01*
X97130676Y-124736000D01*
X97127000Y-124698675D01*
X97127000Y-118941999D01*
X99291679Y-118941999D01*
X99329001Y-118945675D01*
X99366323Y-118941999D01*
X99366334Y-118941999D01*
X99477987Y-118931002D01*
X99621248Y-118887545D01*
X99753277Y-118816973D01*
X99869002Y-118722000D01*
X99892805Y-118692996D01*
X111175003Y-107410799D01*
X111204001Y-107387001D01*
X111227800Y-107358002D01*
X112271003Y-106314799D01*
X112300001Y-106291001D01*
X112323800Y-106262002D01*
X112581070Y-106004731D01*
X112838816Y-106056000D01*
X113141184Y-106056000D01*
X113437743Y-105997011D01*
X113717095Y-105881299D01*
X113968505Y-105713312D01*
X114182312Y-105499505D01*
X114350299Y-105248095D01*
X114466011Y-104968743D01*
X114525000Y-104672184D01*
X114525000Y-104369816D01*
X114466011Y-104073257D01*
X114350299Y-103793905D01*
X114182312Y-103542495D01*
X113968505Y-103328688D01*
X113717095Y-103160701D01*
X113437743Y-103044989D01*
X113141184Y-102986000D01*
X112838816Y-102986000D01*
X112581070Y-103037269D01*
X109345805Y-99802004D01*
X109322002Y-99773000D01*
X109206277Y-99678027D01*
X109074248Y-99607455D01*
X108930987Y-99563998D01*
X108819334Y-99553001D01*
X108819323Y-99553001D01*
X108782001Y-99549325D01*
X108744679Y-99553001D01*
X107784452Y-99553001D01*
X108136738Y-99200715D01*
X108425107Y-98769141D01*
X108623739Y-98289601D01*
X108725000Y-97780525D01*
X108725000Y-97261475D01*
X112255000Y-97261475D01*
X112255000Y-97780525D01*
X112356261Y-98289601D01*
X112554893Y-98769141D01*
X112843262Y-99200715D01*
X113210285Y-99567738D01*
X113641859Y-99856107D01*
X114121399Y-100054739D01*
X114630475Y-100156000D01*
X115149525Y-100156000D01*
X115658601Y-100054739D01*
X116138141Y-99856107D01*
X116569715Y-99567738D01*
X116936738Y-99200715D01*
X117225107Y-98769141D01*
X117423739Y-98289601D01*
X117525000Y-97780525D01*
X117525000Y-97261475D01*
X117423739Y-96752399D01*
X117225107Y-96272859D01*
X116936738Y-95841285D01*
X116569715Y-95474262D01*
X116138141Y-95185893D01*
X115658601Y-94987261D01*
X115149525Y-94886000D01*
X114630475Y-94886000D01*
X114121399Y-94987261D01*
X113641859Y-95185893D01*
X113210285Y-95474262D01*
X112843262Y-95841285D01*
X112554893Y-96272859D01*
X112356261Y-96752399D01*
X112255000Y-97261475D01*
X108725000Y-97261475D01*
X108623739Y-96752399D01*
X108425107Y-96272859D01*
X108136738Y-95841285D01*
X107769715Y-95474262D01*
X107338141Y-95185893D01*
X106858601Y-94987261D01*
X106349525Y-94886000D01*
X105830475Y-94886000D01*
X105321399Y-94987261D01*
X104841859Y-95185893D01*
X104410285Y-95474262D01*
X104043262Y-95841285D01*
X103754893Y-96272859D01*
X103556261Y-96752399D01*
X103455000Y-97261475D01*
X103455000Y-97780525D01*
X103556261Y-98289601D01*
X103754893Y-98769141D01*
X104043262Y-99200715D01*
X104395548Y-99553001D01*
X98642460Y-99553001D01*
X98719061Y-99438359D01*
X98819696Y-99195405D01*
X98871000Y-98937486D01*
X98871000Y-98674514D01*
X98819696Y-98416595D01*
X98719061Y-98173641D01*
X98572962Y-97954987D01*
X98387013Y-97769038D01*
X98168359Y-97622939D01*
X97925405Y-97522304D01*
X97667486Y-97471000D01*
X97404514Y-97471000D01*
X97146595Y-97522304D01*
X96903641Y-97622939D01*
X96684987Y-97769038D01*
X96499038Y-97954987D01*
X96438225Y-98046000D01*
X95339973Y-98046000D01*
X95272987Y-97945748D01*
X95045252Y-97718013D01*
X94777463Y-97539082D01*
X94479912Y-97415832D01*
X94164033Y-97353000D01*
X93841967Y-97353000D01*
X93526088Y-97415832D01*
X93511624Y-97421823D01*
X93416600Y-97326799D01*
X93416600Y-96020935D01*
X93432571Y-96028704D01*
X93744108Y-96110384D01*
X94065595Y-96129718D01*
X94384675Y-96085961D01*
X94689088Y-95980795D01*
X94863044Y-95887814D01*
X94958808Y-95623413D01*
X94003000Y-94667605D01*
X93988858Y-94681748D01*
X93809253Y-94502143D01*
X93823395Y-94488000D01*
X94182605Y-94488000D01*
X95138413Y-95443808D01*
X95402814Y-95348044D01*
X95543704Y-95058429D01*
X95625384Y-94746892D01*
X95644718Y-94425405D01*
X95600961Y-94106325D01*
X95495795Y-93801912D01*
X95402814Y-93627956D01*
X95138413Y-93532192D01*
X94182605Y-94488000D01*
X93823395Y-94488000D01*
X93809253Y-94473858D01*
X93988858Y-94294253D01*
X94003000Y-94308395D01*
X94941334Y-93370061D01*
X119615000Y-93370061D01*
X119615000Y-93573939D01*
X119654774Y-93773898D01*
X119732795Y-93962256D01*
X119846063Y-94131774D01*
X119990226Y-94275937D01*
X120159744Y-94389205D01*
X120289999Y-94443159D01*
X120290000Y-97644667D01*
X120286323Y-97681999D01*
X120290000Y-97719332D01*
X120300997Y-97830985D01*
X120314179Y-97874441D01*
X120344453Y-97974245D01*
X120415025Y-98106275D01*
X120476844Y-98181601D01*
X120509999Y-98222000D01*
X120538997Y-98245798D01*
X120652000Y-98358801D01*
X120652000Y-98483289D01*
X120608063Y-98527226D01*
X120494795Y-98696744D01*
X120416774Y-98885102D01*
X120377000Y-99085061D01*
X120377000Y-99288939D01*
X120416774Y-99488898D01*
X120494795Y-99677256D01*
X120608063Y-99846774D01*
X120752226Y-99990937D01*
X120921744Y-100104205D01*
X121110102Y-100182226D01*
X121310061Y-100222000D01*
X121513939Y-100222000D01*
X121713898Y-100182226D01*
X121902256Y-100104205D01*
X122071774Y-99990937D01*
X122215937Y-99846774D01*
X122329205Y-99677256D01*
X122407226Y-99488898D01*
X122447000Y-99288939D01*
X122447000Y-99085061D01*
X122407226Y-98885102D01*
X122329205Y-98696744D01*
X122215937Y-98527226D01*
X122172000Y-98483289D01*
X122172000Y-98081325D01*
X122175676Y-98044000D01*
X122172000Y-98006675D01*
X122172000Y-98006667D01*
X122161003Y-97895014D01*
X122117546Y-97751753D01*
X122046974Y-97619724D01*
X121952001Y-97503999D01*
X121922998Y-97480197D01*
X121809999Y-97367198D01*
X121809999Y-93909321D01*
X121813675Y-93871998D01*
X121809999Y-93834676D01*
X121809999Y-93834666D01*
X121799002Y-93723013D01*
X121755545Y-93579752D01*
X121685000Y-93447774D01*
X121685000Y-93370061D01*
X121645226Y-93170102D01*
X121567205Y-92981744D01*
X121453937Y-92812226D01*
X121309774Y-92668063D01*
X121140256Y-92554795D01*
X120951898Y-92476774D01*
X120751939Y-92437000D01*
X120548061Y-92437000D01*
X120348102Y-92476774D01*
X120159744Y-92554795D01*
X119990226Y-92668063D01*
X119846063Y-92812226D01*
X119732795Y-92981744D01*
X119654774Y-93170102D01*
X119615000Y-93370061D01*
X94941334Y-93370061D01*
X94958808Y-93352587D01*
X94863044Y-93088186D01*
X94670564Y-92994549D01*
X100040155Y-87625000D01*
X154487541Y-87625000D01*
X154513317Y-87886706D01*
X154589653Y-88138354D01*
X154713618Y-88370275D01*
X154880445Y-88573555D01*
X155083725Y-88740382D01*
X155315646Y-88864347D01*
X155567294Y-88940683D01*
X155763421Y-88960000D01*
X155894579Y-88960000D01*
X156090706Y-88940683D01*
X156342354Y-88864347D01*
X156574275Y-88740382D01*
X156777555Y-88573555D01*
X156944382Y-88370275D01*
X157068347Y-88138354D01*
X157144683Y-87886706D01*
X157170459Y-87625000D01*
X157144683Y-87363294D01*
X157068347Y-87111646D01*
X156944382Y-86879725D01*
X156777555Y-86676445D01*
X156770950Y-86671025D01*
X156865962Y-86576013D01*
X157012061Y-86357359D01*
X157112696Y-86114405D01*
X157164000Y-85856486D01*
X157164000Y-85593514D01*
X157112696Y-85335595D01*
X157012061Y-85092641D01*
X156865962Y-84873987D01*
X156680013Y-84688038D01*
X156461359Y-84541939D01*
X156218405Y-84441304D01*
X155960486Y-84390000D01*
X155697514Y-84390000D01*
X155439595Y-84441304D01*
X155196641Y-84541939D01*
X154977987Y-84688038D01*
X154792038Y-84873987D01*
X154645939Y-85092641D01*
X154545304Y-85335595D01*
X154494000Y-85593514D01*
X154494000Y-85856486D01*
X154545304Y-86114405D01*
X154645939Y-86357359D01*
X154792038Y-86576013D01*
X154887050Y-86671025D01*
X154880445Y-86676445D01*
X154713618Y-86879725D01*
X154589653Y-87111646D01*
X154513317Y-87363294D01*
X154487541Y-87625000D01*
X100040155Y-87625000D01*
X103344767Y-84320413D01*
X158048192Y-84320413D01*
X158143956Y-84584814D01*
X158433571Y-84725704D01*
X158745108Y-84807384D01*
X159066595Y-84826718D01*
X159385675Y-84782961D01*
X159690088Y-84677795D01*
X159864044Y-84584814D01*
X159959808Y-84320413D01*
X159004000Y-83364605D01*
X158048192Y-84320413D01*
X103344767Y-84320413D01*
X104417594Y-83247595D01*
X157362282Y-83247595D01*
X157406039Y-83566675D01*
X157511205Y-83871088D01*
X157604186Y-84045044D01*
X157868587Y-84140808D01*
X158824395Y-83185000D01*
X159183605Y-83185000D01*
X160139413Y-84140808D01*
X160403814Y-84045044D01*
X160544704Y-83755429D01*
X160626384Y-83443892D01*
X160645718Y-83122405D01*
X160601961Y-82803325D01*
X160496795Y-82498912D01*
X160403814Y-82324956D01*
X160139413Y-82229192D01*
X159183605Y-83185000D01*
X158824395Y-83185000D01*
X157868587Y-82229192D01*
X157604186Y-82324956D01*
X157463296Y-82614571D01*
X157381616Y-82926108D01*
X157362282Y-83247595D01*
X104417594Y-83247595D01*
X105615612Y-82049587D01*
X158048192Y-82049587D01*
X159004000Y-83005395D01*
X159959808Y-82049587D01*
X159864044Y-81785186D01*
X159574429Y-81644296D01*
X159262892Y-81562616D01*
X158941405Y-81543282D01*
X158622325Y-81587039D01*
X158317912Y-81692205D01*
X158143956Y-81785186D01*
X158048192Y-82049587D01*
X105615612Y-82049587D01*
X105669800Y-81995400D01*
X143650878Y-81995400D01*
X143688200Y-81999076D01*
X143725522Y-81995400D01*
X143725533Y-81995400D01*
X143837186Y-81984403D01*
X143980447Y-81940946D01*
X144112476Y-81870374D01*
X144228201Y-81775401D01*
X144252004Y-81746397D01*
X154377988Y-71620413D01*
X158048192Y-71620413D01*
X158143956Y-71884814D01*
X158433571Y-72025704D01*
X158745108Y-72107384D01*
X159066595Y-72126718D01*
X159385675Y-72082961D01*
X159690088Y-71977795D01*
X159864044Y-71884814D01*
X159959808Y-71620413D01*
X164548192Y-71620413D01*
X164643956Y-71884814D01*
X164933571Y-72025704D01*
X165245108Y-72107384D01*
X165566595Y-72126718D01*
X165885675Y-72082961D01*
X166190088Y-71977795D01*
X166364044Y-71884814D01*
X166459808Y-71620413D01*
X166396308Y-71556913D01*
X172844192Y-71556913D01*
X172939956Y-71821314D01*
X173229571Y-71962204D01*
X173541108Y-72043884D01*
X173862595Y-72063218D01*
X174181675Y-72019461D01*
X174486088Y-71914295D01*
X174660044Y-71821314D01*
X174755808Y-71556913D01*
X179344192Y-71556913D01*
X179439956Y-71821314D01*
X179729571Y-71962204D01*
X180041108Y-72043884D01*
X180362595Y-72063218D01*
X180681675Y-72019461D01*
X180986088Y-71914295D01*
X181160044Y-71821314D01*
X181255808Y-71556913D01*
X187576192Y-71556913D01*
X187671956Y-71821314D01*
X187961571Y-71962204D01*
X188273108Y-72043884D01*
X188594595Y-72063218D01*
X188913675Y-72019461D01*
X189218088Y-71914295D01*
X189392044Y-71821314D01*
X189487808Y-71556913D01*
X188532000Y-70601105D01*
X187576192Y-71556913D01*
X181255808Y-71556913D01*
X180300000Y-70601105D01*
X179344192Y-71556913D01*
X174755808Y-71556913D01*
X173800000Y-70601105D01*
X172844192Y-71556913D01*
X166396308Y-71556913D01*
X165504000Y-70664605D01*
X164548192Y-71620413D01*
X159959808Y-71620413D01*
X159004000Y-70664605D01*
X158048192Y-71620413D01*
X154377988Y-71620413D01*
X156404402Y-69594000D01*
X157689654Y-69594000D01*
X157604186Y-69624956D01*
X157604186Y-69624956D01*
G37*
X157604186Y-69624956D02*
X157463296Y-69914571D01*
X157381616Y-70226108D01*
X157362282Y-70547595D01*
X157406039Y-70866675D01*
X157511205Y-71171088D01*
X157604186Y-71345044D01*
X157868587Y-71440808D01*
X158824395Y-70485000D01*
X158810253Y-70470858D01*
X158989858Y-70291253D01*
X159004000Y-70305395D01*
X159018143Y-70291253D01*
X159197748Y-70470858D01*
X159183605Y-70485000D01*
X160139413Y-71440808D01*
X160403814Y-71345044D01*
X160544704Y-71055429D01*
X160626384Y-70743892D01*
X160645718Y-70422405D01*
X160601961Y-70103325D01*
X160496795Y-69798912D01*
X160403814Y-69624956D01*
X160318346Y-69594000D01*
X164189654Y-69594000D01*
X164104186Y-69624956D01*
X163963296Y-69914571D01*
X163881616Y-70226108D01*
X163862282Y-70547595D01*
X163906039Y-70866675D01*
X164011205Y-71171088D01*
X164104186Y-71345044D01*
X164368587Y-71440808D01*
X165324395Y-70485000D01*
X165310253Y-70470858D01*
X165489858Y-70291253D01*
X165504000Y-70305395D01*
X165518143Y-70291253D01*
X165697748Y-70470858D01*
X165683605Y-70485000D01*
X166639413Y-71440808D01*
X166903814Y-71345044D01*
X167044704Y-71055429D01*
X167126384Y-70743892D01*
X167145718Y-70422405D01*
X167101961Y-70103325D01*
X166996795Y-69798912D01*
X166903814Y-69624956D01*
X166818346Y-69594000D01*
X172384354Y-69594000D01*
X172259296Y-69851071D01*
X172177616Y-70162608D01*
X172158282Y-70484095D01*
X172202039Y-70803175D01*
X172307205Y-71107588D01*
X172400186Y-71281544D01*
X172664587Y-71377308D01*
X173620395Y-70421500D01*
X173606253Y-70407358D01*
X173785858Y-70227753D01*
X173800000Y-70241895D01*
X173814143Y-70227753D01*
X173993748Y-70407358D01*
X173979605Y-70421500D01*
X174935413Y-71377308D01*
X175199814Y-71281544D01*
X175340704Y-70991929D01*
X175422384Y-70680392D01*
X175441718Y-70358905D01*
X175397961Y-70039825D01*
X175292795Y-69735412D01*
X175217209Y-69594000D01*
X178884354Y-69594000D01*
X178759296Y-69851071D01*
X178677616Y-70162608D01*
X178658282Y-70484095D01*
X178702039Y-70803175D01*
X178807205Y-71107588D01*
X178900186Y-71281544D01*
X179164587Y-71377308D01*
X180120395Y-70421500D01*
X180106253Y-70407358D01*
X180285858Y-70227753D01*
X180300000Y-70241895D01*
X180314143Y-70227753D01*
X180493748Y-70407358D01*
X180479605Y-70421500D01*
X181435413Y-71377308D01*
X181699814Y-71281544D01*
X181840704Y-70991929D01*
X181922384Y-70680392D01*
X181941718Y-70358905D01*
X181897961Y-70039825D01*
X181792795Y-69735412D01*
X181717209Y-69594000D01*
X187116354Y-69594000D01*
X186991296Y-69851071D01*
X186909616Y-70162608D01*
X186890282Y-70484095D01*
X186934039Y-70803175D01*
X187039205Y-71107588D01*
X187132186Y-71281544D01*
X187396587Y-71377308D01*
X188352395Y-70421500D01*
X188338253Y-70407358D01*
X188517858Y-70227753D01*
X188532000Y-70241895D01*
X188546143Y-70227753D01*
X188725748Y-70407358D01*
X188711605Y-70421500D01*
X189667413Y-71377308D01*
X189931814Y-71281544D01*
X190072704Y-70991929D01*
X190154384Y-70680392D01*
X190173718Y-70358905D01*
X190129961Y-70039825D01*
X190024795Y-69735412D01*
X189949209Y-69594000D01*
X193616354Y-69594000D01*
X193491296Y-69851071D01*
X193409616Y-70162608D01*
X193390282Y-70484095D01*
X193434039Y-70803175D01*
X193539205Y-71107588D01*
X193632186Y-71281544D01*
X193896587Y-71377308D01*
X194852395Y-70421500D01*
X194838253Y-70407358D01*
X195017858Y-70227753D01*
X195032000Y-70241895D01*
X195046143Y-70227753D01*
X195225748Y-70407358D01*
X195211605Y-70421500D01*
X195225748Y-70435643D01*
X195046143Y-70615248D01*
X195032000Y-70601105D01*
X194076192Y-71556913D01*
X194171956Y-71821314D01*
X194351528Y-71908671D01*
X193614199Y-72646000D01*
X187025775Y-72646000D01*
X186964962Y-72554987D01*
X186779013Y-72369038D01*
X186560359Y-72222939D01*
X186317405Y-72122304D01*
X186059486Y-72071000D01*
X185796514Y-72071000D01*
X185538595Y-72122304D01*
X185295641Y-72222939D01*
X185076987Y-72369038D01*
X184891038Y-72554987D01*
X184830225Y-72646000D01*
X173391322Y-72646000D01*
X173353999Y-72642324D01*
X173316676Y-72646000D01*
X173316667Y-72646000D01*
X173205014Y-72656997D01*
X173061753Y-72700454D01*
X172929724Y-72771026D01*
X172813999Y-72865999D01*
X172790196Y-72895003D01*
X172785199Y-72900000D01*
X171404775Y-72900000D01*
X171343962Y-72808987D01*
X171158013Y-72623038D01*
X170939359Y-72476939D01*
X170696405Y-72376304D01*
X170438486Y-72325000D01*
X170175514Y-72325000D01*
X169917595Y-72376304D01*
X169674641Y-72476939D01*
X169455987Y-72623038D01*
X169306025Y-72773000D01*
X156926775Y-72773000D01*
X156865962Y-72681987D01*
X156680013Y-72496038D01*
X156461359Y-72349939D01*
X156218405Y-72249304D01*
X155960486Y-72198000D01*
X155697514Y-72198000D01*
X155439595Y-72249304D01*
X155196641Y-72349939D01*
X154977987Y-72496038D01*
X154792038Y-72681987D01*
X154645939Y-72900641D01*
X154545304Y-73143595D01*
X154494000Y-73401514D01*
X154494000Y-73664486D01*
X154545304Y-73922405D01*
X154645939Y-74165359D01*
X154792038Y-74384013D01*
X154887050Y-74479025D01*
X154880445Y-74484445D01*
X154713618Y-74687725D01*
X154589653Y-74919646D01*
X154513317Y-75171294D01*
X154487541Y-75433000D01*
X154513317Y-75694706D01*
X154589653Y-75946354D01*
X154713618Y-76178275D01*
X154880445Y-76381555D01*
X155083725Y-76548382D01*
X155315646Y-76672347D01*
X155567294Y-76748683D01*
X155763421Y-76768000D01*
X155894579Y-76768000D01*
X156090706Y-76748683D01*
X156342354Y-76672347D01*
X156574275Y-76548382D01*
X156777555Y-76381555D01*
X156935874Y-76188643D01*
X157003286Y-76182003D01*
X157146547Y-76138546D01*
X157278576Y-76067974D01*
X157394301Y-75973001D01*
X157418104Y-75943997D01*
X157574130Y-75787971D01*
X157734013Y-76027252D01*
X157961748Y-76254987D01*
X158229537Y-76433918D01*
X158527088Y-76557168D01*
X158842967Y-76620000D01*
X159165033Y-76620000D01*
X159480912Y-76557168D01*
X159778463Y-76433918D01*
X160046252Y-76254987D01*
X160273987Y-76027252D01*
X160452918Y-75759463D01*
X160458909Y-75745000D01*
X164049091Y-75745000D01*
X164055082Y-75759463D01*
X164234013Y-76027252D01*
X164461748Y-76254987D01*
X164729537Y-76433918D01*
X165027088Y-76557168D01*
X165342967Y-76620000D01*
X165665033Y-76620000D01*
X165980912Y-76557168D01*
X166278463Y-76433918D01*
X166546252Y-76254987D01*
X166773987Y-76027252D01*
X166952918Y-75759463D01*
X167076168Y-75461912D01*
X167139000Y-75146033D01*
X167139000Y-74823967D01*
X167076168Y-74508088D01*
X166987075Y-74293000D01*
X169124367Y-74293000D01*
X169270038Y-74511013D01*
X169365050Y-74606025D01*
X169358445Y-74611445D01*
X169191618Y-74814725D01*
X169067653Y-75046646D01*
X168991317Y-75298294D01*
X168965541Y-75560000D01*
X168991317Y-75821706D01*
X169067653Y-76073354D01*
X169191618Y-76305275D01*
X169231441Y-76353800D01*
X167025333Y-76353800D01*
X166988018Y-76350124D01*
X166950685Y-76353800D01*
X166950667Y-76353800D01*
X166884441Y-76360323D01*
X166839032Y-76364794D01*
X166839026Y-76364796D01*
X166839014Y-76364797D01*
X166757132Y-76389635D01*
X166695770Y-76408247D01*
X166695762Y-76408251D01*
X166695753Y-76408254D01*
X166628057Y-76444439D01*
X166563739Y-76478816D01*
X166563732Y-76478822D01*
X166563724Y-76478826D01*
X166520287Y-76514474D01*
X166477010Y-76549988D01*
X166476997Y-76550001D01*
X166447999Y-76573799D01*
X166424212Y-76602783D01*
X161290780Y-81735968D01*
X161261773Y-81759773D01*
X161201716Y-81832953D01*
X161166811Y-81875483D01*
X161166809Y-81875488D01*
X161166800Y-81875498D01*
X161128581Y-81947001D01*
X161096235Y-82007511D01*
X161096232Y-82007520D01*
X161096228Y-82007528D01*
X161078845Y-82064835D01*
X161052775Y-82150770D01*
X161052774Y-82150783D01*
X161052772Y-82150789D01*
X161047066Y-82208723D01*
X161038098Y-82299756D01*
X161038099Y-82299765D01*
X161038098Y-82299774D01*
X161042986Y-82349400D01*
X161052768Y-82448741D01*
X161052771Y-82448752D01*
X161052772Y-82448759D01*
X161067985Y-82498912D01*
X161096221Y-82592003D01*
X161096225Y-82592011D01*
X161096228Y-82592020D01*
X161129900Y-82655015D01*
X161166790Y-82724034D01*
X161166794Y-82724039D01*
X161166800Y-82724050D01*
X161211860Y-82778955D01*
X161261760Y-82839762D01*
X161290769Y-82863570D01*
X161292001Y-82864802D01*
X161292000Y-86553198D01*
X160586279Y-87258919D01*
X160576168Y-87208088D01*
X160452918Y-86910537D01*
X160273987Y-86642748D01*
X160046252Y-86415013D01*
X159778463Y-86236082D01*
X159480912Y-86112832D01*
X159165033Y-86050000D01*
X158842967Y-86050000D01*
X158527088Y-86112832D01*
X158229537Y-86236082D01*
X157961748Y-86415013D01*
X157734013Y-86642748D01*
X157555082Y-86910537D01*
X157431832Y-87208088D01*
X157369000Y-87523967D01*
X157369000Y-87846033D01*
X157431832Y-88161912D01*
X157555082Y-88459463D01*
X157734013Y-88727252D01*
X157961748Y-88954987D01*
X158229537Y-89133918D01*
X158527088Y-89257168D01*
X158577920Y-89267279D01*
X158558612Y-89286587D01*
X154091917Y-89286587D01*
X154054605Y-89282911D01*
X154017272Y-89286587D01*
X154017254Y-89286587D01*
X153953501Y-89292866D01*
X153905618Y-89297581D01*
X153905612Y-89297583D01*
X153905601Y-89297584D01*
X153831704Y-89320000D01*
X153762357Y-89341034D01*
X153762349Y-89341038D01*
X153762340Y-89341041D01*
X153694644Y-89377226D01*
X153630326Y-89411603D01*
X153630319Y-89411609D01*
X153630311Y-89411613D01*
X153574841Y-89457136D01*
X153543597Y-89482776D01*
X153543590Y-89482783D01*
X153514586Y-89506586D01*
X153490795Y-89535576D01*
X150151209Y-92875000D01*
X130430332Y-92875000D01*
X130392999Y-92871323D01*
X130355669Y-92875000D01*
X130355667Y-92875000D01*
X130244014Y-92885997D01*
X130144209Y-92916272D01*
X130100752Y-92929454D01*
X130067373Y-92947296D01*
X129968724Y-93000026D01*
X129968722Y-93000027D01*
X129968723Y-93000027D01*
X129881996Y-93071201D01*
X129881992Y-93071205D01*
X129852999Y-93094999D01*
X129829205Y-93123992D01*
X95124121Y-127829174D01*
X95102226Y-127719102D01*
X95024205Y-127530744D01*
X94910937Y-127361226D01*
X94867000Y-127317289D01*
X94867000Y-127310801D01*
X96878004Y-125299798D01*
X96907001Y-125276001D01*
X97001974Y-125160276D01*
X97072546Y-125028247D01*
X97116003Y-124884986D01*
X97127000Y-124773333D01*
X97127000Y-124773325D01*
X97130676Y-124736000D01*
X97127000Y-124698675D01*
X97127000Y-118941999D01*
X99291679Y-118941999D01*
X99329001Y-118945675D01*
X99366323Y-118941999D01*
X99366334Y-118941999D01*
X99477987Y-118931002D01*
X99621248Y-118887545D01*
X99753277Y-118816973D01*
X99869002Y-118722000D01*
X99892805Y-118692996D01*
X111175003Y-107410799D01*
X111204001Y-107387001D01*
X111227800Y-107358002D01*
X112271003Y-106314799D01*
X112300001Y-106291001D01*
X112323800Y-106262002D01*
X112581070Y-106004731D01*
X112838816Y-106056000D01*
X113141184Y-106056000D01*
X113437743Y-105997011D01*
X113717095Y-105881299D01*
X113968505Y-105713312D01*
X114182312Y-105499505D01*
X114350299Y-105248095D01*
X114466011Y-104968743D01*
X114525000Y-104672184D01*
X114525000Y-104369816D01*
X114466011Y-104073257D01*
X114350299Y-103793905D01*
X114182312Y-103542495D01*
X113968505Y-103328688D01*
X113717095Y-103160701D01*
X113437743Y-103044989D01*
X113141184Y-102986000D01*
X112838816Y-102986000D01*
X112581070Y-103037269D01*
X109345805Y-99802004D01*
X109322002Y-99773000D01*
X109206277Y-99678027D01*
X109074248Y-99607455D01*
X108930987Y-99563998D01*
X108819334Y-99553001D01*
X108819323Y-99553001D01*
X108782001Y-99549325D01*
X108744679Y-99553001D01*
X107784452Y-99553001D01*
X108136738Y-99200715D01*
X108425107Y-98769141D01*
X108623739Y-98289601D01*
X108725000Y-97780525D01*
X108725000Y-97261475D01*
X112255000Y-97261475D01*
X112255000Y-97780525D01*
X112356261Y-98289601D01*
X112554893Y-98769141D01*
X112843262Y-99200715D01*
X113210285Y-99567738D01*
X113641859Y-99856107D01*
X114121399Y-100054739D01*
X114630475Y-100156000D01*
X115149525Y-100156000D01*
X115658601Y-100054739D01*
X116138141Y-99856107D01*
X116569715Y-99567738D01*
X116936738Y-99200715D01*
X117225107Y-98769141D01*
X117423739Y-98289601D01*
X117525000Y-97780525D01*
X117525000Y-97261475D01*
X117423739Y-96752399D01*
X117225107Y-96272859D01*
X116936738Y-95841285D01*
X116569715Y-95474262D01*
X116138141Y-95185893D01*
X115658601Y-94987261D01*
X115149525Y-94886000D01*
X114630475Y-94886000D01*
X114121399Y-94987261D01*
X113641859Y-95185893D01*
X113210285Y-95474262D01*
X112843262Y-95841285D01*
X112554893Y-96272859D01*
X112356261Y-96752399D01*
X112255000Y-97261475D01*
X108725000Y-97261475D01*
X108623739Y-96752399D01*
X108425107Y-96272859D01*
X108136738Y-95841285D01*
X107769715Y-95474262D01*
X107338141Y-95185893D01*
X106858601Y-94987261D01*
X106349525Y-94886000D01*
X105830475Y-94886000D01*
X105321399Y-94987261D01*
X104841859Y-95185893D01*
X104410285Y-95474262D01*
X104043262Y-95841285D01*
X103754893Y-96272859D01*
X103556261Y-96752399D01*
X103455000Y-97261475D01*
X103455000Y-97780525D01*
X103556261Y-98289601D01*
X103754893Y-98769141D01*
X104043262Y-99200715D01*
X104395548Y-99553001D01*
X98642460Y-99553001D01*
X98719061Y-99438359D01*
X98819696Y-99195405D01*
X98871000Y-98937486D01*
X98871000Y-98674514D01*
X98819696Y-98416595D01*
X98719061Y-98173641D01*
X98572962Y-97954987D01*
X98387013Y-97769038D01*
X98168359Y-97622939D01*
X97925405Y-97522304D01*
X97667486Y-97471000D01*
X97404514Y-97471000D01*
X97146595Y-97522304D01*
X96903641Y-97622939D01*
X96684987Y-97769038D01*
X96499038Y-97954987D01*
X96438225Y-98046000D01*
X95339973Y-98046000D01*
X95272987Y-97945748D01*
X95045252Y-97718013D01*
X94777463Y-97539082D01*
X94479912Y-97415832D01*
X94164033Y-97353000D01*
X93841967Y-97353000D01*
X93526088Y-97415832D01*
X93511624Y-97421823D01*
X93416600Y-97326799D01*
X93416600Y-96020935D01*
X93432571Y-96028704D01*
X93744108Y-96110384D01*
X94065595Y-96129718D01*
X94384675Y-96085961D01*
X94689088Y-95980795D01*
X94863044Y-95887814D01*
X94958808Y-95623413D01*
X94003000Y-94667605D01*
X93988858Y-94681748D01*
X93809253Y-94502143D01*
X93823395Y-94488000D01*
X94182605Y-94488000D01*
X95138413Y-95443808D01*
X95402814Y-95348044D01*
X95543704Y-95058429D01*
X95625384Y-94746892D01*
X95644718Y-94425405D01*
X95600961Y-94106325D01*
X95495795Y-93801912D01*
X95402814Y-93627956D01*
X95138413Y-93532192D01*
X94182605Y-94488000D01*
X93823395Y-94488000D01*
X93809253Y-94473858D01*
X93988858Y-94294253D01*
X94003000Y-94308395D01*
X94941334Y-93370061D01*
X119615000Y-93370061D01*
X119615000Y-93573939D01*
X119654774Y-93773898D01*
X119732795Y-93962256D01*
X119846063Y-94131774D01*
X119990226Y-94275937D01*
X120159744Y-94389205D01*
X120289999Y-94443159D01*
X120290000Y-97644667D01*
X120286323Y-97681999D01*
X120290000Y-97719332D01*
X120300997Y-97830985D01*
X120314179Y-97874441D01*
X120344453Y-97974245D01*
X120415025Y-98106275D01*
X120476844Y-98181601D01*
X120509999Y-98222000D01*
X120538997Y-98245798D01*
X120652000Y-98358801D01*
X120652000Y-98483289D01*
X120608063Y-98527226D01*
X120494795Y-98696744D01*
X120416774Y-98885102D01*
X120377000Y-99085061D01*
X120377000Y-99288939D01*
X120416774Y-99488898D01*
X120494795Y-99677256D01*
X120608063Y-99846774D01*
X120752226Y-99990937D01*
X120921744Y-100104205D01*
X121110102Y-100182226D01*
X121310061Y-100222000D01*
X121513939Y-100222000D01*
X121713898Y-100182226D01*
X121902256Y-100104205D01*
X122071774Y-99990937D01*
X122215937Y-99846774D01*
X122329205Y-99677256D01*
X122407226Y-99488898D01*
X122447000Y-99288939D01*
X122447000Y-99085061D01*
X122407226Y-98885102D01*
X122329205Y-98696744D01*
X122215937Y-98527226D01*
X122172000Y-98483289D01*
X122172000Y-98081325D01*
X122175676Y-98044000D01*
X122172000Y-98006675D01*
X122172000Y-98006667D01*
X122161003Y-97895014D01*
X122117546Y-97751753D01*
X122046974Y-97619724D01*
X121952001Y-97503999D01*
X121922998Y-97480197D01*
X121809999Y-97367198D01*
X121809999Y-93909321D01*
X121813675Y-93871998D01*
X121809999Y-93834676D01*
X121809999Y-93834666D01*
X121799002Y-93723013D01*
X121755545Y-93579752D01*
X121685000Y-93447774D01*
X121685000Y-93370061D01*
X121645226Y-93170102D01*
X121567205Y-92981744D01*
X121453937Y-92812226D01*
X121309774Y-92668063D01*
X121140256Y-92554795D01*
X120951898Y-92476774D01*
X120751939Y-92437000D01*
X120548061Y-92437000D01*
X120348102Y-92476774D01*
X120159744Y-92554795D01*
X119990226Y-92668063D01*
X119846063Y-92812226D01*
X119732795Y-92981744D01*
X119654774Y-93170102D01*
X119615000Y-93370061D01*
X94941334Y-93370061D01*
X94958808Y-93352587D01*
X94863044Y-93088186D01*
X94670564Y-92994549D01*
X100040155Y-87625000D01*
X154487541Y-87625000D01*
X154513317Y-87886706D01*
X154589653Y-88138354D01*
X154713618Y-88370275D01*
X154880445Y-88573555D01*
X155083725Y-88740382D01*
X155315646Y-88864347D01*
X155567294Y-88940683D01*
X155763421Y-88960000D01*
X155894579Y-88960000D01*
X156090706Y-88940683D01*
X156342354Y-88864347D01*
X156574275Y-88740382D01*
X156777555Y-88573555D01*
X156944382Y-88370275D01*
X157068347Y-88138354D01*
X157144683Y-87886706D01*
X157170459Y-87625000D01*
X157144683Y-87363294D01*
X157068347Y-87111646D01*
X156944382Y-86879725D01*
X156777555Y-86676445D01*
X156770950Y-86671025D01*
X156865962Y-86576013D01*
X157012061Y-86357359D01*
X157112696Y-86114405D01*
X157164000Y-85856486D01*
X157164000Y-85593514D01*
X157112696Y-85335595D01*
X157012061Y-85092641D01*
X156865962Y-84873987D01*
X156680013Y-84688038D01*
X156461359Y-84541939D01*
X156218405Y-84441304D01*
X155960486Y-84390000D01*
X155697514Y-84390000D01*
X155439595Y-84441304D01*
X155196641Y-84541939D01*
X154977987Y-84688038D01*
X154792038Y-84873987D01*
X154645939Y-85092641D01*
X154545304Y-85335595D01*
X154494000Y-85593514D01*
X154494000Y-85856486D01*
X154545304Y-86114405D01*
X154645939Y-86357359D01*
X154792038Y-86576013D01*
X154887050Y-86671025D01*
X154880445Y-86676445D01*
X154713618Y-86879725D01*
X154589653Y-87111646D01*
X154513317Y-87363294D01*
X154487541Y-87625000D01*
X100040155Y-87625000D01*
X103344767Y-84320413D01*
X158048192Y-84320413D01*
X158143956Y-84584814D01*
X158433571Y-84725704D01*
X158745108Y-84807384D01*
X159066595Y-84826718D01*
X159385675Y-84782961D01*
X159690088Y-84677795D01*
X159864044Y-84584814D01*
X159959808Y-84320413D01*
X159004000Y-83364605D01*
X158048192Y-84320413D01*
X103344767Y-84320413D01*
X104417594Y-83247595D01*
X157362282Y-83247595D01*
X157406039Y-83566675D01*
X157511205Y-83871088D01*
X157604186Y-84045044D01*
X157868587Y-84140808D01*
X158824395Y-83185000D01*
X159183605Y-83185000D01*
X160139413Y-84140808D01*
X160403814Y-84045044D01*
X160544704Y-83755429D01*
X160626384Y-83443892D01*
X160645718Y-83122405D01*
X160601961Y-82803325D01*
X160496795Y-82498912D01*
X160403814Y-82324956D01*
X160139413Y-82229192D01*
X159183605Y-83185000D01*
X158824395Y-83185000D01*
X157868587Y-82229192D01*
X157604186Y-82324956D01*
X157463296Y-82614571D01*
X157381616Y-82926108D01*
X157362282Y-83247595D01*
X104417594Y-83247595D01*
X105615612Y-82049587D01*
X158048192Y-82049587D01*
X159004000Y-83005395D01*
X159959808Y-82049587D01*
X159864044Y-81785186D01*
X159574429Y-81644296D01*
X159262892Y-81562616D01*
X158941405Y-81543282D01*
X158622325Y-81587039D01*
X158317912Y-81692205D01*
X158143956Y-81785186D01*
X158048192Y-82049587D01*
X105615612Y-82049587D01*
X105669800Y-81995400D01*
X143650878Y-81995400D01*
X143688200Y-81999076D01*
X143725522Y-81995400D01*
X143725533Y-81995400D01*
X143837186Y-81984403D01*
X143980447Y-81940946D01*
X144112476Y-81870374D01*
X144228201Y-81775401D01*
X144252004Y-81746397D01*
X154377988Y-71620413D01*
X158048192Y-71620413D01*
X158143956Y-71884814D01*
X158433571Y-72025704D01*
X158745108Y-72107384D01*
X159066595Y-72126718D01*
X159385675Y-72082961D01*
X159690088Y-71977795D01*
X159864044Y-71884814D01*
X159959808Y-71620413D01*
X164548192Y-71620413D01*
X164643956Y-71884814D01*
X164933571Y-72025704D01*
X165245108Y-72107384D01*
X165566595Y-72126718D01*
X165885675Y-72082961D01*
X166190088Y-71977795D01*
X166364044Y-71884814D01*
X166459808Y-71620413D01*
X166396308Y-71556913D01*
X172844192Y-71556913D01*
X172939956Y-71821314D01*
X173229571Y-71962204D01*
X173541108Y-72043884D01*
X173862595Y-72063218D01*
X174181675Y-72019461D01*
X174486088Y-71914295D01*
X174660044Y-71821314D01*
X174755808Y-71556913D01*
X179344192Y-71556913D01*
X179439956Y-71821314D01*
X179729571Y-71962204D01*
X180041108Y-72043884D01*
X180362595Y-72063218D01*
X180681675Y-72019461D01*
X180986088Y-71914295D01*
X181160044Y-71821314D01*
X181255808Y-71556913D01*
X187576192Y-71556913D01*
X187671956Y-71821314D01*
X187961571Y-71962204D01*
X188273108Y-72043884D01*
X188594595Y-72063218D01*
X188913675Y-72019461D01*
X189218088Y-71914295D01*
X189392044Y-71821314D01*
X189487808Y-71556913D01*
X188532000Y-70601105D01*
X187576192Y-71556913D01*
X181255808Y-71556913D01*
X180300000Y-70601105D01*
X179344192Y-71556913D01*
X174755808Y-71556913D01*
X173800000Y-70601105D01*
X172844192Y-71556913D01*
X166396308Y-71556913D01*
X165504000Y-70664605D01*
X164548192Y-71620413D01*
X159959808Y-71620413D01*
X159004000Y-70664605D01*
X158048192Y-71620413D01*
X154377988Y-71620413D01*
X156404402Y-69594000D01*
X157689654Y-69594000D01*
X157604186Y-69624956D01*
G36*
X92380616Y-119248108D02*
G01*
X92361282Y-119569595D01*
X92405039Y-119888675D01*
X92510205Y-120193088D01*
X92603186Y-120367044D01*
X92867587Y-120462808D01*
X93823395Y-119507000D01*
X93809253Y-119492858D01*
X93988858Y-119313253D01*
X94003000Y-119327395D01*
X94017143Y-119313253D01*
X94196748Y-119492858D01*
X94182605Y-119507000D01*
X95138413Y-120462808D01*
X95402814Y-120367044D01*
X95543704Y-120077429D01*
X95607000Y-119836010D01*
X95607000Y-123690119D01*
X95575168Y-123530088D01*
X95451918Y-123232537D01*
X95272987Y-122964748D01*
X95045252Y-122737013D01*
X94777463Y-122558082D01*
X94479912Y-122434832D01*
X94164033Y-122372000D01*
X93841967Y-122372000D01*
X93526088Y-122434832D01*
X93228537Y-122558082D01*
X92960748Y-122737013D01*
X92733013Y-122964748D01*
X92554082Y-123232537D01*
X92512287Y-123333439D01*
X92452447Y-123301454D01*
X92452364Y-123301429D01*
X92452293Y-123301391D01*
X92382186Y-123280141D01*
X92309186Y-123257997D01*
X92309101Y-123257989D01*
X92309023Y-123257965D01*
X92237515Y-123250938D01*
X92197533Y-123247000D01*
X92197442Y-123247000D01*
X92160035Y-123243324D01*
X92122794Y-123247000D01*
X88957909Y-123247000D01*
X88951918Y-123232537D01*
X88772987Y-122964748D01*
X88545252Y-122737013D01*
X88277463Y-122558082D01*
X88127736Y-122496063D01*
X89981386Y-120642413D01*
X93047192Y-120642413D01*
X93142956Y-120906814D01*
X93432571Y-121047704D01*
X93744108Y-121129384D01*
X94065595Y-121148718D01*
X94384675Y-121104961D01*
X94689088Y-120999795D01*
X94863044Y-120906814D01*
X94958808Y-120642413D01*
X94003000Y-119686605D01*
X93047192Y-120642413D01*
X89981386Y-120642413D01*
X91681801Y-118941999D01*
X92460873Y-118941999D01*
X92380616Y-119248108D01*
X92380616Y-119248108D01*
G37*
X92380616Y-119248108D02*
X92361282Y-119569595D01*
X92405039Y-119888675D01*
X92510205Y-120193088D01*
X92603186Y-120367044D01*
X92867587Y-120462808D01*
X93823395Y-119507000D01*
X93809253Y-119492858D01*
X93988858Y-119313253D01*
X94003000Y-119327395D01*
X94017143Y-119313253D01*
X94196748Y-119492858D01*
X94182605Y-119507000D01*
X95138413Y-120462808D01*
X95402814Y-120367044D01*
X95543704Y-120077429D01*
X95607000Y-119836010D01*
X95607000Y-123690119D01*
X95575168Y-123530088D01*
X95451918Y-123232537D01*
X95272987Y-122964748D01*
X95045252Y-122737013D01*
X94777463Y-122558082D01*
X94479912Y-122434832D01*
X94164033Y-122372000D01*
X93841967Y-122372000D01*
X93526088Y-122434832D01*
X93228537Y-122558082D01*
X92960748Y-122737013D01*
X92733013Y-122964748D01*
X92554082Y-123232537D01*
X92512287Y-123333439D01*
X92452447Y-123301454D01*
X92452364Y-123301429D01*
X92452293Y-123301391D01*
X92382186Y-123280141D01*
X92309186Y-123257997D01*
X92309101Y-123257989D01*
X92309023Y-123257965D01*
X92237515Y-123250938D01*
X92197533Y-123247000D01*
X92197442Y-123247000D01*
X92160035Y-123243324D01*
X92122794Y-123247000D01*
X88957909Y-123247000D01*
X88951918Y-123232537D01*
X88772987Y-122964748D01*
X88545252Y-122737013D01*
X88277463Y-122558082D01*
X88127736Y-122496063D01*
X89981386Y-120642413D01*
X93047192Y-120642413D01*
X93142956Y-120906814D01*
X93432571Y-121047704D01*
X93744108Y-121129384D01*
X94065595Y-121148718D01*
X94384675Y-121104961D01*
X94689088Y-120999795D01*
X94863044Y-120906814D01*
X94958808Y-120642413D01*
X94003000Y-119686605D01*
X93047192Y-120642413D01*
X89981386Y-120642413D01*
X91681801Y-118941999D01*
X92460873Y-118941999D01*
X92380616Y-119248108D01*
G36*
X200495000Y-63468250D02*
G01*
X200653750Y-63627000D01*
X201803000Y-63627000D01*
X201803000Y-63607000D01*
X202057000Y-63607000D01*
X202057000Y-63627000D01*
X203206250Y-63627000D01*
X203365000Y-63468250D01*
X203367286Y-63085663D01*
X203446749Y-64516000D01*
X203367845Y-64516000D01*
X203365000Y-64039750D01*
X203206250Y-63881000D01*
X202057000Y-63881000D01*
X202057000Y-63901000D01*
X201803000Y-63901000D01*
X201803000Y-63881000D01*
X200653750Y-63881000D01*
X200495000Y-64039750D01*
X200493468Y-64296200D01*
X104096133Y-64296200D01*
X104058800Y-64292523D01*
X104021467Y-64296200D01*
X103909814Y-64307197D01*
X103766553Y-64350654D01*
X103634524Y-64421226D01*
X103518799Y-64516199D01*
X103495001Y-64545197D01*
X102310002Y-65730197D01*
X102309997Y-65730201D01*
X94518044Y-73522155D01*
X94291033Y-73477000D01*
X93968967Y-73477000D01*
X93653088Y-73539832D01*
X93355537Y-73663082D01*
X93087748Y-73842013D01*
X92860013Y-74069748D01*
X92681082Y-74337537D01*
X92658553Y-74391926D01*
X92563186Y-74362997D01*
X92451533Y-74352000D01*
X92451522Y-74352000D01*
X92414200Y-74348324D01*
X92376878Y-74352000D01*
X89084909Y-74352000D01*
X89078918Y-74337537D01*
X88899987Y-74069748D01*
X88672252Y-73842013D01*
X88404463Y-73663082D01*
X88106912Y-73539832D01*
X87791033Y-73477000D01*
X87468967Y-73477000D01*
X87153088Y-73539832D01*
X86855537Y-73663082D01*
X86587748Y-73842013D01*
X86360013Y-74069748D01*
X86181082Y-74337537D01*
X86057832Y-74635088D01*
X85995000Y-74950967D01*
X85995000Y-75273033D01*
X86057832Y-75588912D01*
X86181082Y-75886463D01*
X86360013Y-76154252D01*
X86587748Y-76381987D01*
X86855537Y-76560918D01*
X87153088Y-76684168D01*
X87468967Y-76747000D01*
X87791033Y-76747000D01*
X88106912Y-76684168D01*
X88404463Y-76560918D01*
X88672252Y-76381987D01*
X88899987Y-76154252D01*
X89078918Y-75886463D01*
X89084909Y-75872000D01*
X92099399Y-75872000D01*
X92448600Y-76221202D01*
X92448601Y-79328268D01*
X92444924Y-79365600D01*
X92448601Y-79402933D01*
X92459598Y-79514586D01*
X92465488Y-79534002D01*
X92503054Y-79657846D01*
X92573626Y-79789876D01*
X92644801Y-79876602D01*
X92668600Y-79905601D01*
X92697598Y-79929399D01*
X92920355Y-80152156D01*
X92899000Y-80259514D01*
X92899000Y-80522486D01*
X92950304Y-80780405D01*
X93050939Y-81023359D01*
X93197038Y-81242013D01*
X93292050Y-81337025D01*
X93285445Y-81342445D01*
X93118618Y-81545725D01*
X92994653Y-81777646D01*
X92918317Y-82029294D01*
X92892541Y-82291000D01*
X92918317Y-82552706D01*
X92994653Y-82804354D01*
X93118618Y-83036275D01*
X93285445Y-83239555D01*
X93488725Y-83406382D01*
X93720646Y-83530347D01*
X93972294Y-83606683D01*
X94168421Y-83626000D01*
X94299579Y-83626000D01*
X94495706Y-83606683D01*
X94747354Y-83530347D01*
X94979275Y-83406382D01*
X95182555Y-83239555D01*
X95349382Y-83036275D01*
X95473347Y-82804354D01*
X95549683Y-82552706D01*
X95572812Y-82317878D01*
X95614298Y-82309626D01*
X95802656Y-82231605D01*
X95972174Y-82118337D01*
X96116337Y-81974174D01*
X96229605Y-81804656D01*
X96307626Y-81616298D01*
X96347400Y-81416339D01*
X96347400Y-81354201D01*
X98450602Y-79251000D01*
X104204196Y-79251000D01*
X89130858Y-94324338D01*
X89100961Y-94106325D01*
X88995795Y-93801912D01*
X88902814Y-93627956D01*
X88638413Y-93532192D01*
X87682605Y-94488000D01*
X87696748Y-94502143D01*
X87517143Y-94681748D01*
X87503000Y-94667605D01*
X86547192Y-95623413D01*
X86642956Y-95887814D01*
X86932571Y-96028704D01*
X87244108Y-96110384D01*
X87339100Y-96116097D01*
X85666995Y-97788201D01*
X85637999Y-97811998D01*
X85614202Y-97840994D01*
X77012000Y-106443197D01*
X77012000Y-94550595D01*
X85861282Y-94550595D01*
X85905039Y-94869675D01*
X86010205Y-95174088D01*
X86103186Y-95348044D01*
X86367587Y-95443808D01*
X87323395Y-94488000D01*
X86367587Y-93532192D01*
X86103186Y-93627956D01*
X85962296Y-93917571D01*
X85880616Y-94229108D01*
X85861282Y-94550595D01*
X77012000Y-94550595D01*
X77012000Y-93352587D01*
X86547192Y-93352587D01*
X87503000Y-94308395D01*
X88458808Y-93352587D01*
X88363044Y-93088186D01*
X88073429Y-92947296D01*
X87761892Y-92865616D01*
X87440405Y-92846282D01*
X87121325Y-92890039D01*
X86816912Y-92995205D01*
X86642956Y-93088186D01*
X86547192Y-93352587D01*
X77012000Y-93352587D01*
X77012000Y-71747413D01*
X86674192Y-71747413D01*
X86769956Y-72011814D01*
X87059571Y-72152704D01*
X87371108Y-72234384D01*
X87692595Y-72253718D01*
X88011675Y-72209961D01*
X88316088Y-72104795D01*
X88490044Y-72011814D01*
X88585808Y-71747413D01*
X93174192Y-71747413D01*
X93269956Y-72011814D01*
X93559571Y-72152704D01*
X93871108Y-72234384D01*
X94192595Y-72253718D01*
X94511675Y-72209961D01*
X94816088Y-72104795D01*
X94990044Y-72011814D01*
X95085808Y-71747413D01*
X94130000Y-70791605D01*
X93174192Y-71747413D01*
X88585808Y-71747413D01*
X87630000Y-70791605D01*
X86674192Y-71747413D01*
X77012000Y-71747413D01*
X77012000Y-70674595D01*
X85988282Y-70674595D01*
X86032039Y-70993675D01*
X86137205Y-71298088D01*
X86230186Y-71472044D01*
X86494587Y-71567808D01*
X87450395Y-70612000D01*
X87809605Y-70612000D01*
X88765413Y-71567808D01*
X89029814Y-71472044D01*
X89170704Y-71182429D01*
X89252384Y-70870892D01*
X89264189Y-70674595D01*
X92488282Y-70674595D01*
X92532039Y-70993675D01*
X92637205Y-71298088D01*
X92730186Y-71472044D01*
X92994587Y-71567808D01*
X93950395Y-70612000D01*
X94309605Y-70612000D01*
X95265413Y-71567808D01*
X95529814Y-71472044D01*
X95670704Y-71182429D01*
X95752384Y-70870892D01*
X95771718Y-70549405D01*
X95727961Y-70230325D01*
X95622795Y-69925912D01*
X95529814Y-69751956D01*
X95265413Y-69656192D01*
X94309605Y-70612000D01*
X93950395Y-70612000D01*
X92994587Y-69656192D01*
X92730186Y-69751956D01*
X92589296Y-70041571D01*
X92507616Y-70353108D01*
X92488282Y-70674595D01*
X89264189Y-70674595D01*
X89271718Y-70549405D01*
X89227961Y-70230325D01*
X89122795Y-69925912D01*
X89029814Y-69751956D01*
X88765413Y-69656192D01*
X87809605Y-70612000D01*
X87450395Y-70612000D01*
X86494587Y-69656192D01*
X86230186Y-69751956D01*
X86089296Y-70041571D01*
X86007616Y-70353108D01*
X85988282Y-70674595D01*
X77012000Y-70674595D01*
X77012000Y-67289701D01*
X79003000Y-67289701D01*
X79003000Y-67838299D01*
X79110026Y-68376354D01*
X79319965Y-68883192D01*
X79624750Y-69339334D01*
X80012666Y-69727250D01*
X80468808Y-70032035D01*
X80975646Y-70241974D01*
X81513701Y-70349000D01*
X82062299Y-70349000D01*
X82600354Y-70241974D01*
X83107192Y-70032035D01*
X83563334Y-69727250D01*
X83813997Y-69476587D01*
X86674192Y-69476587D01*
X87630000Y-70432395D01*
X88585808Y-69476587D01*
X93174192Y-69476587D01*
X94130000Y-70432395D01*
X95085808Y-69476587D01*
X94990044Y-69212186D01*
X94700429Y-69071296D01*
X94388892Y-68989616D01*
X94067405Y-68970282D01*
X93748325Y-69014039D01*
X93443912Y-69119205D01*
X93269956Y-69212186D01*
X93174192Y-69476587D01*
X88585808Y-69476587D01*
X88490044Y-69212186D01*
X88200429Y-69071296D01*
X87888892Y-68989616D01*
X87567405Y-68970282D01*
X87248325Y-69014039D01*
X86943912Y-69119205D01*
X86769956Y-69212186D01*
X86674192Y-69476587D01*
X83813997Y-69476587D01*
X83951250Y-69339334D01*
X84256035Y-68883192D01*
X84465974Y-68376354D01*
X84573000Y-67838299D01*
X84573000Y-67289701D01*
X84465974Y-66751646D01*
X84256035Y-66244808D01*
X83951250Y-65788666D01*
X83563334Y-65400750D01*
X83107192Y-65095965D01*
X82600354Y-64886026D01*
X82062299Y-64779000D01*
X81513701Y-64779000D01*
X80975646Y-64886026D01*
X80468808Y-65095965D01*
X80012666Y-65400750D01*
X79624750Y-65788666D01*
X79319965Y-66244808D01*
X79110026Y-66751646D01*
X79003000Y-67289701D01*
X77012000Y-67289701D01*
X77012000Y-62978500D01*
X200492074Y-62978500D01*
X200495000Y-63468250D01*
X200495000Y-63468250D01*
G37*
X200495000Y-63468250D02*
X200653750Y-63627000D01*
X201803000Y-63627000D01*
X201803000Y-63607000D01*
X202057000Y-63607000D01*
X202057000Y-63627000D01*
X203206250Y-63627000D01*
X203365000Y-63468250D01*
X203367286Y-63085663D01*
X203446749Y-64516000D01*
X203367845Y-64516000D01*
X203365000Y-64039750D01*
X203206250Y-63881000D01*
X202057000Y-63881000D01*
X202057000Y-63901000D01*
X201803000Y-63901000D01*
X201803000Y-63881000D01*
X200653750Y-63881000D01*
X200495000Y-64039750D01*
X200493468Y-64296200D01*
X104096133Y-64296200D01*
X104058800Y-64292523D01*
X104021467Y-64296200D01*
X103909814Y-64307197D01*
X103766553Y-64350654D01*
X103634524Y-64421226D01*
X103518799Y-64516199D01*
X103495001Y-64545197D01*
X102310002Y-65730197D01*
X102309997Y-65730201D01*
X94518044Y-73522155D01*
X94291033Y-73477000D01*
X93968967Y-73477000D01*
X93653088Y-73539832D01*
X93355537Y-73663082D01*
X93087748Y-73842013D01*
X92860013Y-74069748D01*
X92681082Y-74337537D01*
X92658553Y-74391926D01*
X92563186Y-74362997D01*
X92451533Y-74352000D01*
X92451522Y-74352000D01*
X92414200Y-74348324D01*
X92376878Y-74352000D01*
X89084909Y-74352000D01*
X89078918Y-74337537D01*
X88899987Y-74069748D01*
X88672252Y-73842013D01*
X88404463Y-73663082D01*
X88106912Y-73539832D01*
X87791033Y-73477000D01*
X87468967Y-73477000D01*
X87153088Y-73539832D01*
X86855537Y-73663082D01*
X86587748Y-73842013D01*
X86360013Y-74069748D01*
X86181082Y-74337537D01*
X86057832Y-74635088D01*
X85995000Y-74950967D01*
X85995000Y-75273033D01*
X86057832Y-75588912D01*
X86181082Y-75886463D01*
X86360013Y-76154252D01*
X86587748Y-76381987D01*
X86855537Y-76560918D01*
X87153088Y-76684168D01*
X87468967Y-76747000D01*
X87791033Y-76747000D01*
X88106912Y-76684168D01*
X88404463Y-76560918D01*
X88672252Y-76381987D01*
X88899987Y-76154252D01*
X89078918Y-75886463D01*
X89084909Y-75872000D01*
X92099399Y-75872000D01*
X92448600Y-76221202D01*
X92448601Y-79328268D01*
X92444924Y-79365600D01*
X92448601Y-79402933D01*
X92459598Y-79514586D01*
X92465488Y-79534002D01*
X92503054Y-79657846D01*
X92573626Y-79789876D01*
X92644801Y-79876602D01*
X92668600Y-79905601D01*
X92697598Y-79929399D01*
X92920355Y-80152156D01*
X92899000Y-80259514D01*
X92899000Y-80522486D01*
X92950304Y-80780405D01*
X93050939Y-81023359D01*
X93197038Y-81242013D01*
X93292050Y-81337025D01*
X93285445Y-81342445D01*
X93118618Y-81545725D01*
X92994653Y-81777646D01*
X92918317Y-82029294D01*
X92892541Y-82291000D01*
X92918317Y-82552706D01*
X92994653Y-82804354D01*
X93118618Y-83036275D01*
X93285445Y-83239555D01*
X93488725Y-83406382D01*
X93720646Y-83530347D01*
X93972294Y-83606683D01*
X94168421Y-83626000D01*
X94299579Y-83626000D01*
X94495706Y-83606683D01*
X94747354Y-83530347D01*
X94979275Y-83406382D01*
X95182555Y-83239555D01*
X95349382Y-83036275D01*
X95473347Y-82804354D01*
X95549683Y-82552706D01*
X95572812Y-82317878D01*
X95614298Y-82309626D01*
X95802656Y-82231605D01*
X95972174Y-82118337D01*
X96116337Y-81974174D01*
X96229605Y-81804656D01*
X96307626Y-81616298D01*
X96347400Y-81416339D01*
X96347400Y-81354201D01*
X98450602Y-79251000D01*
X104204196Y-79251000D01*
X89130858Y-94324338D01*
X89100961Y-94106325D01*
X88995795Y-93801912D01*
X88902814Y-93627956D01*
X88638413Y-93532192D01*
X87682605Y-94488000D01*
X87696748Y-94502143D01*
X87517143Y-94681748D01*
X87503000Y-94667605D01*
X86547192Y-95623413D01*
X86642956Y-95887814D01*
X86932571Y-96028704D01*
X87244108Y-96110384D01*
X87339100Y-96116097D01*
X85666995Y-97788201D01*
X85637999Y-97811998D01*
X85614202Y-97840994D01*
X77012000Y-106443197D01*
X77012000Y-94550595D01*
X85861282Y-94550595D01*
X85905039Y-94869675D01*
X86010205Y-95174088D01*
X86103186Y-95348044D01*
X86367587Y-95443808D01*
X87323395Y-94488000D01*
X86367587Y-93532192D01*
X86103186Y-93627956D01*
X85962296Y-93917571D01*
X85880616Y-94229108D01*
X85861282Y-94550595D01*
X77012000Y-94550595D01*
X77012000Y-93352587D01*
X86547192Y-93352587D01*
X87503000Y-94308395D01*
X88458808Y-93352587D01*
X88363044Y-93088186D01*
X88073429Y-92947296D01*
X87761892Y-92865616D01*
X87440405Y-92846282D01*
X87121325Y-92890039D01*
X86816912Y-92995205D01*
X86642956Y-93088186D01*
X86547192Y-93352587D01*
X77012000Y-93352587D01*
X77012000Y-71747413D01*
X86674192Y-71747413D01*
X86769956Y-72011814D01*
X87059571Y-72152704D01*
X87371108Y-72234384D01*
X87692595Y-72253718D01*
X88011675Y-72209961D01*
X88316088Y-72104795D01*
X88490044Y-72011814D01*
X88585808Y-71747413D01*
X93174192Y-71747413D01*
X93269956Y-72011814D01*
X93559571Y-72152704D01*
X93871108Y-72234384D01*
X94192595Y-72253718D01*
X94511675Y-72209961D01*
X94816088Y-72104795D01*
X94990044Y-72011814D01*
X95085808Y-71747413D01*
X94130000Y-70791605D01*
X93174192Y-71747413D01*
X88585808Y-71747413D01*
X87630000Y-70791605D01*
X86674192Y-71747413D01*
X77012000Y-71747413D01*
X77012000Y-70674595D01*
X85988282Y-70674595D01*
X86032039Y-70993675D01*
X86137205Y-71298088D01*
X86230186Y-71472044D01*
X86494587Y-71567808D01*
X87450395Y-70612000D01*
X87809605Y-70612000D01*
X88765413Y-71567808D01*
X89029814Y-71472044D01*
X89170704Y-71182429D01*
X89252384Y-70870892D01*
X89264189Y-70674595D01*
X92488282Y-70674595D01*
X92532039Y-70993675D01*
X92637205Y-71298088D01*
X92730186Y-71472044D01*
X92994587Y-71567808D01*
X93950395Y-70612000D01*
X94309605Y-70612000D01*
X95265413Y-71567808D01*
X95529814Y-71472044D01*
X95670704Y-71182429D01*
X95752384Y-70870892D01*
X95771718Y-70549405D01*
X95727961Y-70230325D01*
X95622795Y-69925912D01*
X95529814Y-69751956D01*
X95265413Y-69656192D01*
X94309605Y-70612000D01*
X93950395Y-70612000D01*
X92994587Y-69656192D01*
X92730186Y-69751956D01*
X92589296Y-70041571D01*
X92507616Y-70353108D01*
X92488282Y-70674595D01*
X89264189Y-70674595D01*
X89271718Y-70549405D01*
X89227961Y-70230325D01*
X89122795Y-69925912D01*
X89029814Y-69751956D01*
X88765413Y-69656192D01*
X87809605Y-70612000D01*
X87450395Y-70612000D01*
X86494587Y-69656192D01*
X86230186Y-69751956D01*
X86089296Y-70041571D01*
X86007616Y-70353108D01*
X85988282Y-70674595D01*
X77012000Y-70674595D01*
X77012000Y-67289701D01*
X79003000Y-67289701D01*
X79003000Y-67838299D01*
X79110026Y-68376354D01*
X79319965Y-68883192D01*
X79624750Y-69339334D01*
X80012666Y-69727250D01*
X80468808Y-70032035D01*
X80975646Y-70241974D01*
X81513701Y-70349000D01*
X82062299Y-70349000D01*
X82600354Y-70241974D01*
X83107192Y-70032035D01*
X83563334Y-69727250D01*
X83813997Y-69476587D01*
X86674192Y-69476587D01*
X87630000Y-70432395D01*
X88585808Y-69476587D01*
X93174192Y-69476587D01*
X94130000Y-70432395D01*
X95085808Y-69476587D01*
X94990044Y-69212186D01*
X94700429Y-69071296D01*
X94388892Y-68989616D01*
X94067405Y-68970282D01*
X93748325Y-69014039D01*
X93443912Y-69119205D01*
X93269956Y-69212186D01*
X93174192Y-69476587D01*
X88585808Y-69476587D01*
X88490044Y-69212186D01*
X88200429Y-69071296D01*
X87888892Y-68989616D01*
X87567405Y-68970282D01*
X87248325Y-69014039D01*
X86943912Y-69119205D01*
X86769956Y-69212186D01*
X86674192Y-69476587D01*
X83813997Y-69476587D01*
X83951250Y-69339334D01*
X84256035Y-68883192D01*
X84465974Y-68376354D01*
X84573000Y-67838299D01*
X84573000Y-67289701D01*
X84465974Y-66751646D01*
X84256035Y-66244808D01*
X83951250Y-65788666D01*
X83563334Y-65400750D01*
X83107192Y-65095965D01*
X82600354Y-64886026D01*
X82062299Y-64779000D01*
X81513701Y-64779000D01*
X80975646Y-64886026D01*
X80468808Y-65095965D01*
X80012666Y-65400750D01*
X79624750Y-65788666D01*
X79319965Y-66244808D01*
X79110026Y-66751646D01*
X79003000Y-67289701D01*
X77012000Y-67289701D01*
X77012000Y-62978500D01*
X200492074Y-62978500D01*
X200495000Y-63468250D01*
G36*
X182496003Y-82240196D02*
G01*
X182466999Y-82263999D01*
X182416973Y-82324956D01*
X182372026Y-82379724D01*
X182335126Y-82448759D01*
X182301454Y-82511754D01*
X182257997Y-82655015D01*
X182247000Y-82766668D01*
X182247000Y-82766678D01*
X182243324Y-82804000D01*
X182247000Y-82841323D01*
X182247001Y-84163658D01*
X182247000Y-84163668D01*
X182247000Y-84290668D01*
X182247001Y-86925000D01*
X181690909Y-86925000D01*
X181684918Y-86910537D01*
X181505987Y-86642748D01*
X181278252Y-86415013D01*
X181010463Y-86236082D01*
X180712912Y-86112832D01*
X180397033Y-86050000D01*
X180074967Y-86050000D01*
X179759088Y-86112832D01*
X179461537Y-86236082D01*
X179193748Y-86415013D01*
X178966013Y-86642748D01*
X178787082Y-86910537D01*
X178781091Y-86925000D01*
X177023322Y-86925000D01*
X176985999Y-86921324D01*
X176948676Y-86925000D01*
X175190909Y-86925000D01*
X175184918Y-86910537D01*
X175005987Y-86642748D01*
X174778252Y-86415013D01*
X174510463Y-86236082D01*
X174212912Y-86112832D01*
X173897033Y-86050000D01*
X173574967Y-86050000D01*
X173259088Y-86112832D01*
X172961537Y-86236082D01*
X172693748Y-86415013D01*
X172466013Y-86642748D01*
X172287082Y-86910537D01*
X172163832Y-87208088D01*
X172101000Y-87523967D01*
X172101000Y-87846033D01*
X172163832Y-88161912D01*
X172287082Y-88459463D01*
X172466013Y-88727252D01*
X172693748Y-88954987D01*
X172961537Y-89133918D01*
X173259088Y-89257168D01*
X173574967Y-89320000D01*
X173897033Y-89320000D01*
X174212912Y-89257168D01*
X174428210Y-89167988D01*
X173683199Y-89913000D01*
X171410298Y-89913000D01*
X171255555Y-89724445D01*
X171248950Y-89719025D01*
X171343962Y-89624013D01*
X171490061Y-89405359D01*
X171590696Y-89162405D01*
X171642000Y-88904486D01*
X171642000Y-88641514D01*
X171590696Y-88383595D01*
X171490061Y-88140641D01*
X171343962Y-87921987D01*
X171158013Y-87736038D01*
X170939359Y-87589939D01*
X170696405Y-87489304D01*
X170438486Y-87438000D01*
X170175514Y-87438000D01*
X169917595Y-87489304D01*
X169674641Y-87589939D01*
X169455987Y-87736038D01*
X169270038Y-87921987D01*
X169123939Y-88140641D01*
X169023304Y-88383595D01*
X168972000Y-88641514D01*
X168972000Y-88904486D01*
X169023304Y-89162405D01*
X169123939Y-89405359D01*
X169270038Y-89624013D01*
X169365050Y-89719025D01*
X169358445Y-89724445D01*
X169191618Y-89927725D01*
X169067653Y-90159646D01*
X168991317Y-90411294D01*
X168965541Y-90673000D01*
X168991317Y-90934706D01*
X169067653Y-91186354D01*
X169191618Y-91418275D01*
X169358445Y-91621555D01*
X169561725Y-91788382D01*
X169793646Y-91912347D01*
X170045294Y-91988683D01*
X170241421Y-92008000D01*
X170372579Y-92008000D01*
X170568706Y-91988683D01*
X170820354Y-91912347D01*
X171052275Y-91788382D01*
X171255555Y-91621555D01*
X171410298Y-91433000D01*
X173960678Y-91433000D01*
X173998000Y-91436676D01*
X174035322Y-91433000D01*
X174035333Y-91433000D01*
X174146986Y-91422003D01*
X174290247Y-91378546D01*
X174422276Y-91307974D01*
X174538001Y-91213001D01*
X174561804Y-91183997D01*
X174945801Y-90800000D01*
X184078541Y-90800000D01*
X184104317Y-91061706D01*
X184180653Y-91313354D01*
X184304618Y-91545275D01*
X184471445Y-91748555D01*
X184674725Y-91915382D01*
X184906646Y-92039347D01*
X185158294Y-92115683D01*
X185354421Y-92135000D01*
X185485579Y-92135000D01*
X185681706Y-92115683D01*
X185933354Y-92039347D01*
X186165275Y-91915382D01*
X186368555Y-91748555D01*
X186535382Y-91545275D01*
X186659347Y-91313354D01*
X186735683Y-91061706D01*
X186761459Y-90800000D01*
X186735683Y-90538294D01*
X186659347Y-90286646D01*
X186535382Y-90054725D01*
X186368555Y-89851445D01*
X186361950Y-89846025D01*
X186456962Y-89751013D01*
X186603061Y-89532359D01*
X186703696Y-89289405D01*
X186755000Y-89031486D01*
X186755000Y-88768514D01*
X186703696Y-88510595D01*
X186603061Y-88267641D01*
X186456962Y-88048987D01*
X186271013Y-87863038D01*
X186052359Y-87716939D01*
X185809405Y-87616304D01*
X185551486Y-87565000D01*
X185288514Y-87565000D01*
X185030595Y-87616304D01*
X184787641Y-87716939D01*
X184568987Y-87863038D01*
X184383038Y-88048987D01*
X184236939Y-88267641D01*
X184136304Y-88510595D01*
X184085000Y-88768514D01*
X184085000Y-89031486D01*
X184136304Y-89289405D01*
X184236939Y-89532359D01*
X184383038Y-89751013D01*
X184478050Y-89846025D01*
X184471445Y-89851445D01*
X184304618Y-90054725D01*
X184180653Y-90286646D01*
X184104317Y-90538294D01*
X184078541Y-90800000D01*
X174945801Y-90800000D01*
X177300802Y-88445000D01*
X178781091Y-88445000D01*
X178787082Y-88459463D01*
X178966013Y-88727252D01*
X179193748Y-88954987D01*
X179461537Y-89133918D01*
X179759088Y-89257168D01*
X180074967Y-89320000D01*
X180397033Y-89320000D01*
X180712912Y-89257168D01*
X181010463Y-89133918D01*
X181278252Y-88954987D01*
X181505987Y-88727252D01*
X181684918Y-88459463D01*
X181690909Y-88445000D01*
X182533678Y-88445000D01*
X182571000Y-88448676D01*
X182608322Y-88445000D01*
X182608333Y-88445000D01*
X182719986Y-88434003D01*
X182863247Y-88390546D01*
X182995276Y-88319974D01*
X183111001Y-88225001D01*
X183134804Y-88195997D01*
X183517997Y-87812804D01*
X183547001Y-87789001D01*
X183632352Y-87685001D01*
X183641974Y-87673277D01*
X183712546Y-87541247D01*
X183743865Y-87438000D01*
X183756003Y-87397986D01*
X183767000Y-87286333D01*
X183767000Y-87286324D01*
X183770676Y-87249001D01*
X183767000Y-87211678D01*
X183767000Y-84320413D01*
X187512192Y-84320413D01*
X187607956Y-84584814D01*
X187897571Y-84725704D01*
X188209108Y-84807384D01*
X188530595Y-84826718D01*
X188849675Y-84782961D01*
X189154088Y-84677795D01*
X189328044Y-84584814D01*
X189423808Y-84320413D01*
X188468000Y-83364605D01*
X187512192Y-84320413D01*
X183767000Y-84320413D01*
X183767000Y-83118801D01*
X184718802Y-82167000D01*
X187270392Y-82167000D01*
X187332585Y-82229193D01*
X187068186Y-82324956D01*
X186927296Y-82614571D01*
X186845616Y-82926108D01*
X186826282Y-83247595D01*
X186870039Y-83566675D01*
X186975205Y-83871088D01*
X187068186Y-84045044D01*
X187332587Y-84140808D01*
X188288395Y-83185000D01*
X188274253Y-83170858D01*
X188453858Y-82991253D01*
X188468000Y-83005395D01*
X188482143Y-82991253D01*
X188661748Y-83170858D01*
X188647605Y-83185000D01*
X189603413Y-84140808D01*
X189867814Y-84045044D01*
X190008704Y-83755429D01*
X190090384Y-83443892D01*
X190109718Y-83122405D01*
X190087164Y-82957939D01*
X192654001Y-85524708D01*
X192654000Y-86315567D01*
X192650323Y-86352900D01*
X192664997Y-86501886D01*
X192708454Y-86645147D01*
X192779026Y-86777176D01*
X192850112Y-86863794D01*
X192873999Y-86892901D01*
X192913112Y-86925000D01*
X189922909Y-86925000D01*
X189916918Y-86910537D01*
X189737987Y-86642748D01*
X189510252Y-86415013D01*
X189242463Y-86236082D01*
X188944912Y-86112832D01*
X188629033Y-86050000D01*
X188306967Y-86050000D01*
X187991088Y-86112832D01*
X187693537Y-86236082D01*
X187425748Y-86415013D01*
X187198013Y-86642748D01*
X187019082Y-86910537D01*
X186895832Y-87208088D01*
X186833000Y-87523967D01*
X186833000Y-87846033D01*
X186895832Y-88161912D01*
X187019082Y-88459463D01*
X187198013Y-88727252D01*
X187425748Y-88954987D01*
X187693537Y-89133918D01*
X187991088Y-89257168D01*
X188306967Y-89320000D01*
X188629033Y-89320000D01*
X188944912Y-89257168D01*
X189242463Y-89133918D01*
X189510252Y-88954987D01*
X189737987Y-88727252D01*
X189916918Y-88459463D01*
X189922909Y-88445000D01*
X193513091Y-88445000D01*
X193519082Y-88459463D01*
X193698013Y-88727252D01*
X193925748Y-88954987D01*
X194193537Y-89133918D01*
X194491088Y-89257168D01*
X194806967Y-89320000D01*
X195129033Y-89320000D01*
X195444912Y-89257168D01*
X195459376Y-89251177D01*
X199644000Y-93435802D01*
X199644000Y-94751256D01*
X199606014Y-94754997D01*
X199464912Y-94797799D01*
X199462753Y-94798454D01*
X199330723Y-94869026D01*
X199257411Y-94929192D01*
X199214999Y-94963999D01*
X199191201Y-94992997D01*
X196809199Y-97375000D01*
X195532317Y-97375000D01*
X195701044Y-97284814D01*
X195796808Y-97020413D01*
X194841000Y-96064605D01*
X193885192Y-97020413D01*
X193980956Y-97284814D01*
X194166343Y-97375000D01*
X189032317Y-97375000D01*
X189201044Y-97284814D01*
X189296808Y-97020413D01*
X188341000Y-96064605D01*
X187385192Y-97020413D01*
X187480956Y-97284814D01*
X187770571Y-97425704D01*
X188082108Y-97507384D01*
X188188928Y-97513808D01*
X188089997Y-97594999D01*
X188066199Y-97623997D01*
X186967967Y-98722230D01*
X186957696Y-98670595D01*
X186857061Y-98427641D01*
X186710962Y-98208987D01*
X186525013Y-98023038D01*
X186306359Y-97876939D01*
X186063405Y-97776304D01*
X185805486Y-97725000D01*
X185542514Y-97725000D01*
X185284595Y-97776304D01*
X185041641Y-97876939D01*
X184822987Y-98023038D01*
X184637038Y-98208987D01*
X184490939Y-98427641D01*
X184390304Y-98670595D01*
X184339000Y-98928514D01*
X184339000Y-99191486D01*
X184360355Y-99298843D01*
X182673199Y-100986000D01*
X181692769Y-100986000D01*
X181744168Y-100861912D01*
X181807000Y-100546033D01*
X181807000Y-100223967D01*
X181744168Y-99908088D01*
X181620918Y-99610537D01*
X181441987Y-99342748D01*
X181214252Y-99115013D01*
X180946463Y-98936082D01*
X180648912Y-98812832D01*
X180333033Y-98750000D01*
X180010967Y-98750000D01*
X179695088Y-98812832D01*
X179397537Y-98936082D01*
X179129748Y-99115013D01*
X178902013Y-99342748D01*
X178723082Y-99610537D01*
X178717091Y-99625000D01*
X175126909Y-99625000D01*
X175120918Y-99610537D01*
X174941987Y-99342748D01*
X174714252Y-99115013D01*
X174446463Y-98936082D01*
X174432000Y-98930091D01*
X174432000Y-98266988D01*
X174435676Y-98229627D01*
X174429068Y-98162595D01*
X174421003Y-98080714D01*
X174420991Y-98080675D01*
X174420988Y-98080642D01*
X174400159Y-98011999D01*
X174377546Y-97937453D01*
X174377528Y-97937420D01*
X174377518Y-97937386D01*
X174343492Y-97873743D01*
X174306974Y-97805424D01*
X174306950Y-97805395D01*
X174306933Y-97805363D01*
X174256443Y-97743852D01*
X174212001Y-97689699D01*
X174182981Y-97665883D01*
X174006495Y-97489431D01*
X174053675Y-97482961D01*
X174358088Y-97377795D01*
X174532044Y-97284814D01*
X174627808Y-97020413D01*
X179216192Y-97020413D01*
X179311956Y-97284814D01*
X179601571Y-97425704D01*
X179913108Y-97507384D01*
X180234595Y-97526718D01*
X180553675Y-97482961D01*
X180858088Y-97377795D01*
X181032044Y-97284814D01*
X181127808Y-97020413D01*
X180172000Y-96064605D01*
X179216192Y-97020413D01*
X174627808Y-97020413D01*
X173672000Y-96064605D01*
X173657858Y-96078748D01*
X173478253Y-95899143D01*
X173492395Y-95885000D01*
X173851605Y-95885000D01*
X174807413Y-96840808D01*
X175071814Y-96745044D01*
X175212704Y-96455429D01*
X175294384Y-96143892D01*
X175306189Y-95947595D01*
X178530282Y-95947595D01*
X178574039Y-96266675D01*
X178679205Y-96571088D01*
X178772186Y-96745044D01*
X179036587Y-96840808D01*
X179992395Y-95885000D01*
X180351605Y-95885000D01*
X181307413Y-96840808D01*
X181571814Y-96745044D01*
X181712704Y-96455429D01*
X181794384Y-96143892D01*
X181806189Y-95947595D01*
X186699282Y-95947595D01*
X186743039Y-96266675D01*
X186848205Y-96571088D01*
X186941186Y-96745044D01*
X187205587Y-96840808D01*
X188161395Y-95885000D01*
X188520605Y-95885000D01*
X189476413Y-96840808D01*
X189740814Y-96745044D01*
X189881704Y-96455429D01*
X189963384Y-96143892D01*
X189975189Y-95947595D01*
X193199282Y-95947595D01*
X193243039Y-96266675D01*
X193348205Y-96571088D01*
X193441186Y-96745044D01*
X193705587Y-96840808D01*
X194661395Y-95885000D01*
X195020605Y-95885000D01*
X195976413Y-96840808D01*
X196240814Y-96745044D01*
X196381704Y-96455429D01*
X196463384Y-96143892D01*
X196482718Y-95822405D01*
X196438961Y-95503325D01*
X196333795Y-95198912D01*
X196240814Y-95024956D01*
X195976413Y-94929192D01*
X195020605Y-95885000D01*
X194661395Y-95885000D01*
X193705587Y-94929192D01*
X193441186Y-95024956D01*
X193300296Y-95314571D01*
X193218616Y-95626108D01*
X193199282Y-95947595D01*
X189975189Y-95947595D01*
X189982718Y-95822405D01*
X189938961Y-95503325D01*
X189833795Y-95198912D01*
X189740814Y-95024956D01*
X189476413Y-94929192D01*
X188520605Y-95885000D01*
X188161395Y-95885000D01*
X187205587Y-94929192D01*
X186941186Y-95024956D01*
X186800296Y-95314571D01*
X186718616Y-95626108D01*
X186699282Y-95947595D01*
X181806189Y-95947595D01*
X181813718Y-95822405D01*
X181769961Y-95503325D01*
X181664795Y-95198912D01*
X181571814Y-95024956D01*
X181307413Y-94929192D01*
X180351605Y-95885000D01*
X179992395Y-95885000D01*
X179036587Y-94929192D01*
X178772186Y-95024956D01*
X178631296Y-95314571D01*
X178549616Y-95626108D01*
X178530282Y-95947595D01*
X175306189Y-95947595D01*
X175313718Y-95822405D01*
X175269961Y-95503325D01*
X175164795Y-95198912D01*
X175071814Y-95024956D01*
X174807413Y-94929192D01*
X173851605Y-95885000D01*
X173492395Y-95885000D01*
X172536587Y-94929192D01*
X172272186Y-95024956D01*
X172131296Y-95314571D01*
X172049616Y-95626108D01*
X172033625Y-95892000D01*
X171031667Y-95892000D01*
X170920014Y-95902997D01*
X170776753Y-95946454D01*
X170644724Y-96017026D01*
X170528999Y-96111999D01*
X170434026Y-96227724D01*
X170363454Y-96359753D01*
X170319997Y-96503014D01*
X170305323Y-96652000D01*
X170319997Y-96800986D01*
X170363454Y-96944247D01*
X170434026Y-97076276D01*
X170528999Y-97192001D01*
X170641302Y-97284166D01*
X170436641Y-97368939D01*
X170217987Y-97515038D01*
X170032038Y-97700987D01*
X169886367Y-97919000D01*
X169582333Y-97919000D01*
X169545000Y-97915323D01*
X169507667Y-97919000D01*
X157053775Y-97919000D01*
X156992962Y-97827987D01*
X156807013Y-97642038D01*
X156588359Y-97495939D01*
X156345405Y-97395304D01*
X156087486Y-97344000D01*
X155824514Y-97344000D01*
X155566595Y-97395304D01*
X155323641Y-97495939D01*
X155104987Y-97642038D01*
X154919038Y-97827987D01*
X154858225Y-97919000D01*
X143852490Y-97919000D01*
X144751028Y-97020413D01*
X158048192Y-97020413D01*
X158143956Y-97284814D01*
X158433571Y-97425704D01*
X158745108Y-97507384D01*
X159066595Y-97526718D01*
X159385675Y-97482961D01*
X159690088Y-97377795D01*
X159864044Y-97284814D01*
X159959808Y-97020413D01*
X164548192Y-97020413D01*
X164643956Y-97284814D01*
X164933571Y-97425704D01*
X165245108Y-97507384D01*
X165566595Y-97526718D01*
X165885675Y-97482961D01*
X166190088Y-97377795D01*
X166364044Y-97284814D01*
X166459808Y-97020413D01*
X165504000Y-96064605D01*
X164548192Y-97020413D01*
X159959808Y-97020413D01*
X159004000Y-96064605D01*
X158048192Y-97020413D01*
X144751028Y-97020413D01*
X145257814Y-96513600D01*
X157223664Y-96513600D01*
X157260974Y-96517276D01*
X157298312Y-96513600D01*
X157298333Y-96513600D01*
X157351128Y-96508400D01*
X157409959Y-96502608D01*
X157409970Y-96502605D01*
X157409986Y-96502603D01*
X157480188Y-96481308D01*
X157511205Y-96571088D01*
X157604186Y-96745044D01*
X157868587Y-96840808D01*
X158824395Y-95885000D01*
X159183605Y-95885000D01*
X160139413Y-96840808D01*
X160403814Y-96745044D01*
X160544704Y-96455429D01*
X160626384Y-96143892D01*
X160638189Y-95947595D01*
X163862282Y-95947595D01*
X163906039Y-96266675D01*
X164011205Y-96571088D01*
X164104186Y-96745044D01*
X164368587Y-96840808D01*
X165324395Y-95885000D01*
X165683605Y-95885000D01*
X166639413Y-96840808D01*
X166903814Y-96745044D01*
X167044704Y-96455429D01*
X167126384Y-96143892D01*
X167145718Y-95822405D01*
X167101961Y-95503325D01*
X166996795Y-95198912D01*
X166903814Y-95024956D01*
X166639413Y-94929192D01*
X165683605Y-95885000D01*
X165324395Y-95885000D01*
X164368587Y-94929192D01*
X164104186Y-95024956D01*
X163963296Y-95314571D01*
X163881616Y-95626108D01*
X163862282Y-95947595D01*
X160638189Y-95947595D01*
X160645718Y-95822405D01*
X160601961Y-95503325D01*
X160496795Y-95198912D01*
X160403814Y-95024956D01*
X160139413Y-94929192D01*
X159183605Y-95885000D01*
X158824395Y-95885000D01*
X158810253Y-95870858D01*
X158989858Y-95691253D01*
X159004000Y-95705395D01*
X159959808Y-94749587D01*
X164548192Y-94749587D01*
X165504000Y-95705395D01*
X166459808Y-94749587D01*
X172716192Y-94749587D01*
X173672000Y-95705395D01*
X174627808Y-94749587D01*
X179216192Y-94749587D01*
X180172000Y-95705395D01*
X181127808Y-94749587D01*
X187385192Y-94749587D01*
X188341000Y-95705395D01*
X189296808Y-94749587D01*
X193885192Y-94749587D01*
X194841000Y-95705395D01*
X195796808Y-94749587D01*
X195701044Y-94485186D01*
X195411429Y-94344296D01*
X195099892Y-94262616D01*
X194778405Y-94243282D01*
X194459325Y-94287039D01*
X194154912Y-94392205D01*
X193980956Y-94485186D01*
X193885192Y-94749587D01*
X189296808Y-94749587D01*
X189201044Y-94485186D01*
X188911429Y-94344296D01*
X188599892Y-94262616D01*
X188278405Y-94243282D01*
X187959325Y-94287039D01*
X187654912Y-94392205D01*
X187480956Y-94485186D01*
X187385192Y-94749587D01*
X181127808Y-94749587D01*
X181032044Y-94485186D01*
X180742429Y-94344296D01*
X180430892Y-94262616D01*
X180109405Y-94243282D01*
X179790325Y-94287039D01*
X179485912Y-94392205D01*
X179311956Y-94485186D01*
X179216192Y-94749587D01*
X174627808Y-94749587D01*
X174532044Y-94485186D01*
X174242429Y-94344296D01*
X173930892Y-94262616D01*
X173609405Y-94243282D01*
X173290325Y-94287039D01*
X172985912Y-94392205D01*
X172811956Y-94485186D01*
X172716192Y-94749587D01*
X166459808Y-94749587D01*
X166364044Y-94485186D01*
X166074429Y-94344296D01*
X165762892Y-94262616D01*
X165441405Y-94243282D01*
X165122325Y-94287039D01*
X164817912Y-94392205D01*
X164643956Y-94485186D01*
X164548192Y-94749587D01*
X159959808Y-94749587D01*
X159864044Y-94485186D01*
X159689337Y-94400196D01*
X163328787Y-90761000D01*
X165049618Y-90761000D01*
X165086884Y-90764676D01*
X165124266Y-90761000D01*
X165124333Y-90761000D01*
X165166765Y-90756821D01*
X165235872Y-90750025D01*
X165235925Y-90750009D01*
X165235986Y-90750003D01*
X165311541Y-90727084D01*
X165379139Y-90706590D01*
X165379188Y-90706564D01*
X165379247Y-90706546D01*
X165449180Y-90669165D01*
X165511179Y-90636038D01*
X165511222Y-90636003D01*
X165511276Y-90635974D01*
X165570039Y-90587748D01*
X165597917Y-90564877D01*
X165597958Y-90564836D01*
X165627001Y-90541001D01*
X165650762Y-90512048D01*
X168230965Y-87932630D01*
X168260001Y-87908801D01*
X168305533Y-87853320D01*
X168354909Y-87793173D01*
X168354936Y-87793122D01*
X168354974Y-87793076D01*
X168390149Y-87727268D01*
X168425502Y-87661154D01*
X168425519Y-87661097D01*
X168425546Y-87661047D01*
X168447205Y-87589646D01*
X168468980Y-87517900D01*
X168468986Y-87517843D01*
X168469003Y-87517786D01*
X168476861Y-87438000D01*
X168483676Y-87368916D01*
X168480000Y-87331534D01*
X168480000Y-86915994D01*
X171075499Y-84320413D01*
X172780192Y-84320413D01*
X172875956Y-84584814D01*
X173165571Y-84725704D01*
X173477108Y-84807384D01*
X173798595Y-84826718D01*
X174117675Y-84782961D01*
X174422088Y-84677795D01*
X174596044Y-84584814D01*
X174691808Y-84320413D01*
X179280192Y-84320413D01*
X179375956Y-84584814D01*
X179665571Y-84725704D01*
X179977108Y-84807384D01*
X180298595Y-84826718D01*
X180617675Y-84782961D01*
X180922088Y-84677795D01*
X181096044Y-84584814D01*
X181191808Y-84320413D01*
X180236000Y-83364605D01*
X179280192Y-84320413D01*
X174691808Y-84320413D01*
X173736000Y-83364605D01*
X172780192Y-84320413D01*
X171075499Y-84320413D01*
X172100795Y-83295086D01*
X172138039Y-83566675D01*
X172243205Y-83871088D01*
X172336186Y-84045044D01*
X172600587Y-84140808D01*
X173556395Y-83185000D01*
X173915605Y-83185000D01*
X174871413Y-84140808D01*
X175135814Y-84045044D01*
X175276704Y-83755429D01*
X175358384Y-83443892D01*
X175370189Y-83247595D01*
X178594282Y-83247595D01*
X178638039Y-83566675D01*
X178743205Y-83871088D01*
X178836186Y-84045044D01*
X179100587Y-84140808D01*
X180056395Y-83185000D01*
X180415605Y-83185000D01*
X181371413Y-84140808D01*
X181635814Y-84045044D01*
X181776704Y-83755429D01*
X181858384Y-83443892D01*
X181877718Y-83122405D01*
X181833961Y-82803325D01*
X181728795Y-82498912D01*
X181635814Y-82324956D01*
X181371413Y-82229192D01*
X180415605Y-83185000D01*
X180056395Y-83185000D01*
X179100587Y-82229192D01*
X178836186Y-82324956D01*
X178695296Y-82614571D01*
X178613616Y-82926108D01*
X178594282Y-83247595D01*
X175370189Y-83247595D01*
X175377718Y-83122405D01*
X175333961Y-82803325D01*
X175228795Y-82498912D01*
X175135814Y-82324956D01*
X174871413Y-82229192D01*
X173915605Y-83185000D01*
X173556395Y-83185000D01*
X173542253Y-83170858D01*
X173721858Y-82991253D01*
X173736000Y-83005395D01*
X174691808Y-82049587D01*
X179280192Y-82049587D01*
X180236000Y-83005395D01*
X181191808Y-82049587D01*
X181096044Y-81785186D01*
X180806429Y-81644296D01*
X180494892Y-81562616D01*
X180173405Y-81543282D01*
X179854325Y-81587039D01*
X179549912Y-81692205D01*
X179375956Y-81785186D01*
X179280192Y-82049587D01*
X174691808Y-82049587D01*
X174596044Y-81785186D01*
X174306429Y-81644296D01*
X173994892Y-81562616D01*
X173842381Y-81553444D01*
X174371809Y-81024000D01*
X183712198Y-81024000D01*
X182496003Y-82240196D01*
X182496003Y-82240196D01*
G37*
X182496003Y-82240196D02*
X182466999Y-82263999D01*
X182416973Y-82324956D01*
X182372026Y-82379724D01*
X182335126Y-82448759D01*
X182301454Y-82511754D01*
X182257997Y-82655015D01*
X182247000Y-82766668D01*
X182247000Y-82766678D01*
X182243324Y-82804000D01*
X182247000Y-82841323D01*
X182247001Y-84163658D01*
X182247000Y-84163668D01*
X182247000Y-84290668D01*
X182247001Y-86925000D01*
X181690909Y-86925000D01*
X181684918Y-86910537D01*
X181505987Y-86642748D01*
X181278252Y-86415013D01*
X181010463Y-86236082D01*
X180712912Y-86112832D01*
X180397033Y-86050000D01*
X180074967Y-86050000D01*
X179759088Y-86112832D01*
X179461537Y-86236082D01*
X179193748Y-86415013D01*
X178966013Y-86642748D01*
X178787082Y-86910537D01*
X178781091Y-86925000D01*
X177023322Y-86925000D01*
X176985999Y-86921324D01*
X176948676Y-86925000D01*
X175190909Y-86925000D01*
X175184918Y-86910537D01*
X175005987Y-86642748D01*
X174778252Y-86415013D01*
X174510463Y-86236082D01*
X174212912Y-86112832D01*
X173897033Y-86050000D01*
X173574967Y-86050000D01*
X173259088Y-86112832D01*
X172961537Y-86236082D01*
X172693748Y-86415013D01*
X172466013Y-86642748D01*
X172287082Y-86910537D01*
X172163832Y-87208088D01*
X172101000Y-87523967D01*
X172101000Y-87846033D01*
X172163832Y-88161912D01*
X172287082Y-88459463D01*
X172466013Y-88727252D01*
X172693748Y-88954987D01*
X172961537Y-89133918D01*
X173259088Y-89257168D01*
X173574967Y-89320000D01*
X173897033Y-89320000D01*
X174212912Y-89257168D01*
X174428210Y-89167988D01*
X173683199Y-89913000D01*
X171410298Y-89913000D01*
X171255555Y-89724445D01*
X171248950Y-89719025D01*
X171343962Y-89624013D01*
X171490061Y-89405359D01*
X171590696Y-89162405D01*
X171642000Y-88904486D01*
X171642000Y-88641514D01*
X171590696Y-88383595D01*
X171490061Y-88140641D01*
X171343962Y-87921987D01*
X171158013Y-87736038D01*
X170939359Y-87589939D01*
X170696405Y-87489304D01*
X170438486Y-87438000D01*
X170175514Y-87438000D01*
X169917595Y-87489304D01*
X169674641Y-87589939D01*
X169455987Y-87736038D01*
X169270038Y-87921987D01*
X169123939Y-88140641D01*
X169023304Y-88383595D01*
X168972000Y-88641514D01*
X168972000Y-88904486D01*
X169023304Y-89162405D01*
X169123939Y-89405359D01*
X169270038Y-89624013D01*
X169365050Y-89719025D01*
X169358445Y-89724445D01*
X169191618Y-89927725D01*
X169067653Y-90159646D01*
X168991317Y-90411294D01*
X168965541Y-90673000D01*
X168991317Y-90934706D01*
X169067653Y-91186354D01*
X169191618Y-91418275D01*
X169358445Y-91621555D01*
X169561725Y-91788382D01*
X169793646Y-91912347D01*
X170045294Y-91988683D01*
X170241421Y-92008000D01*
X170372579Y-92008000D01*
X170568706Y-91988683D01*
X170820354Y-91912347D01*
X171052275Y-91788382D01*
X171255555Y-91621555D01*
X171410298Y-91433000D01*
X173960678Y-91433000D01*
X173998000Y-91436676D01*
X174035322Y-91433000D01*
X174035333Y-91433000D01*
X174146986Y-91422003D01*
X174290247Y-91378546D01*
X174422276Y-91307974D01*
X174538001Y-91213001D01*
X174561804Y-91183997D01*
X174945801Y-90800000D01*
X184078541Y-90800000D01*
X184104317Y-91061706D01*
X184180653Y-91313354D01*
X184304618Y-91545275D01*
X184471445Y-91748555D01*
X184674725Y-91915382D01*
X184906646Y-92039347D01*
X185158294Y-92115683D01*
X185354421Y-92135000D01*
X185485579Y-92135000D01*
X185681706Y-92115683D01*
X185933354Y-92039347D01*
X186165275Y-91915382D01*
X186368555Y-91748555D01*
X186535382Y-91545275D01*
X186659347Y-91313354D01*
X186735683Y-91061706D01*
X186761459Y-90800000D01*
X186735683Y-90538294D01*
X186659347Y-90286646D01*
X186535382Y-90054725D01*
X186368555Y-89851445D01*
X186361950Y-89846025D01*
X186456962Y-89751013D01*
X186603061Y-89532359D01*
X186703696Y-89289405D01*
X186755000Y-89031486D01*
X186755000Y-88768514D01*
X186703696Y-88510595D01*
X186603061Y-88267641D01*
X186456962Y-88048987D01*
X186271013Y-87863038D01*
X186052359Y-87716939D01*
X185809405Y-87616304D01*
X185551486Y-87565000D01*
X185288514Y-87565000D01*
X185030595Y-87616304D01*
X184787641Y-87716939D01*
X184568987Y-87863038D01*
X184383038Y-88048987D01*
X184236939Y-88267641D01*
X184136304Y-88510595D01*
X184085000Y-88768514D01*
X184085000Y-89031486D01*
X184136304Y-89289405D01*
X184236939Y-89532359D01*
X184383038Y-89751013D01*
X184478050Y-89846025D01*
X184471445Y-89851445D01*
X184304618Y-90054725D01*
X184180653Y-90286646D01*
X184104317Y-90538294D01*
X184078541Y-90800000D01*
X174945801Y-90800000D01*
X177300802Y-88445000D01*
X178781091Y-88445000D01*
X178787082Y-88459463D01*
X178966013Y-88727252D01*
X179193748Y-88954987D01*
X179461537Y-89133918D01*
X179759088Y-89257168D01*
X180074967Y-89320000D01*
X180397033Y-89320000D01*
X180712912Y-89257168D01*
X181010463Y-89133918D01*
X181278252Y-88954987D01*
X181505987Y-88727252D01*
X181684918Y-88459463D01*
X181690909Y-88445000D01*
X182533678Y-88445000D01*
X182571000Y-88448676D01*
X182608322Y-88445000D01*
X182608333Y-88445000D01*
X182719986Y-88434003D01*
X182863247Y-88390546D01*
X182995276Y-88319974D01*
X183111001Y-88225001D01*
X183134804Y-88195997D01*
X183517997Y-87812804D01*
X183547001Y-87789001D01*
X183632352Y-87685001D01*
X183641974Y-87673277D01*
X183712546Y-87541247D01*
X183743865Y-87438000D01*
X183756003Y-87397986D01*
X183767000Y-87286333D01*
X183767000Y-87286324D01*
X183770676Y-87249001D01*
X183767000Y-87211678D01*
X183767000Y-84320413D01*
X187512192Y-84320413D01*
X187607956Y-84584814D01*
X187897571Y-84725704D01*
X188209108Y-84807384D01*
X188530595Y-84826718D01*
X188849675Y-84782961D01*
X189154088Y-84677795D01*
X189328044Y-84584814D01*
X189423808Y-84320413D01*
X188468000Y-83364605D01*
X187512192Y-84320413D01*
X183767000Y-84320413D01*
X183767000Y-83118801D01*
X184718802Y-82167000D01*
X187270392Y-82167000D01*
X187332585Y-82229193D01*
X187068186Y-82324956D01*
X186927296Y-82614571D01*
X186845616Y-82926108D01*
X186826282Y-83247595D01*
X186870039Y-83566675D01*
X186975205Y-83871088D01*
X187068186Y-84045044D01*
X187332587Y-84140808D01*
X188288395Y-83185000D01*
X188274253Y-83170858D01*
X188453858Y-82991253D01*
X188468000Y-83005395D01*
X188482143Y-82991253D01*
X188661748Y-83170858D01*
X188647605Y-83185000D01*
X189603413Y-84140808D01*
X189867814Y-84045044D01*
X190008704Y-83755429D01*
X190090384Y-83443892D01*
X190109718Y-83122405D01*
X190087164Y-82957939D01*
X192654001Y-85524708D01*
X192654000Y-86315567D01*
X192650323Y-86352900D01*
X192664997Y-86501886D01*
X192708454Y-86645147D01*
X192779026Y-86777176D01*
X192850112Y-86863794D01*
X192873999Y-86892901D01*
X192913112Y-86925000D01*
X189922909Y-86925000D01*
X189916918Y-86910537D01*
X189737987Y-86642748D01*
X189510252Y-86415013D01*
X189242463Y-86236082D01*
X188944912Y-86112832D01*
X188629033Y-86050000D01*
X188306967Y-86050000D01*
X187991088Y-86112832D01*
X187693537Y-86236082D01*
X187425748Y-86415013D01*
X187198013Y-86642748D01*
X187019082Y-86910537D01*
X186895832Y-87208088D01*
X186833000Y-87523967D01*
X186833000Y-87846033D01*
X186895832Y-88161912D01*
X187019082Y-88459463D01*
X187198013Y-88727252D01*
X187425748Y-88954987D01*
X187693537Y-89133918D01*
X187991088Y-89257168D01*
X188306967Y-89320000D01*
X188629033Y-89320000D01*
X188944912Y-89257168D01*
X189242463Y-89133918D01*
X189510252Y-88954987D01*
X189737987Y-88727252D01*
X189916918Y-88459463D01*
X189922909Y-88445000D01*
X193513091Y-88445000D01*
X193519082Y-88459463D01*
X193698013Y-88727252D01*
X193925748Y-88954987D01*
X194193537Y-89133918D01*
X194491088Y-89257168D01*
X194806967Y-89320000D01*
X195129033Y-89320000D01*
X195444912Y-89257168D01*
X195459376Y-89251177D01*
X199644000Y-93435802D01*
X199644000Y-94751256D01*
X199606014Y-94754997D01*
X199464912Y-94797799D01*
X199462753Y-94798454D01*
X199330723Y-94869026D01*
X199257411Y-94929192D01*
X199214999Y-94963999D01*
X199191201Y-94992997D01*
X196809199Y-97375000D01*
X195532317Y-97375000D01*
X195701044Y-97284814D01*
X195796808Y-97020413D01*
X194841000Y-96064605D01*
X193885192Y-97020413D01*
X193980956Y-97284814D01*
X194166343Y-97375000D01*
X189032317Y-97375000D01*
X189201044Y-97284814D01*
X189296808Y-97020413D01*
X188341000Y-96064605D01*
X187385192Y-97020413D01*
X187480956Y-97284814D01*
X187770571Y-97425704D01*
X188082108Y-97507384D01*
X188188928Y-97513808D01*
X188089997Y-97594999D01*
X188066199Y-97623997D01*
X186967967Y-98722230D01*
X186957696Y-98670595D01*
X186857061Y-98427641D01*
X186710962Y-98208987D01*
X186525013Y-98023038D01*
X186306359Y-97876939D01*
X186063405Y-97776304D01*
X185805486Y-97725000D01*
X185542514Y-97725000D01*
X185284595Y-97776304D01*
X185041641Y-97876939D01*
X184822987Y-98023038D01*
X184637038Y-98208987D01*
X184490939Y-98427641D01*
X184390304Y-98670595D01*
X184339000Y-98928514D01*
X184339000Y-99191486D01*
X184360355Y-99298843D01*
X182673199Y-100986000D01*
X181692769Y-100986000D01*
X181744168Y-100861912D01*
X181807000Y-100546033D01*
X181807000Y-100223967D01*
X181744168Y-99908088D01*
X181620918Y-99610537D01*
X181441987Y-99342748D01*
X181214252Y-99115013D01*
X180946463Y-98936082D01*
X180648912Y-98812832D01*
X180333033Y-98750000D01*
X180010967Y-98750000D01*
X179695088Y-98812832D01*
X179397537Y-98936082D01*
X179129748Y-99115013D01*
X178902013Y-99342748D01*
X178723082Y-99610537D01*
X178717091Y-99625000D01*
X175126909Y-99625000D01*
X175120918Y-99610537D01*
X174941987Y-99342748D01*
X174714252Y-99115013D01*
X174446463Y-98936082D01*
X174432000Y-98930091D01*
X174432000Y-98266988D01*
X174435676Y-98229627D01*
X174429068Y-98162595D01*
X174421003Y-98080714D01*
X174420991Y-98080675D01*
X174420988Y-98080642D01*
X174400159Y-98011999D01*
X174377546Y-97937453D01*
X174377528Y-97937420D01*
X174377518Y-97937386D01*
X174343492Y-97873743D01*
X174306974Y-97805424D01*
X174306950Y-97805395D01*
X174306933Y-97805363D01*
X174256443Y-97743852D01*
X174212001Y-97689699D01*
X174182981Y-97665883D01*
X174006495Y-97489431D01*
X174053675Y-97482961D01*
X174358088Y-97377795D01*
X174532044Y-97284814D01*
X174627808Y-97020413D01*
X179216192Y-97020413D01*
X179311956Y-97284814D01*
X179601571Y-97425704D01*
X179913108Y-97507384D01*
X180234595Y-97526718D01*
X180553675Y-97482961D01*
X180858088Y-97377795D01*
X181032044Y-97284814D01*
X181127808Y-97020413D01*
X180172000Y-96064605D01*
X179216192Y-97020413D01*
X174627808Y-97020413D01*
X173672000Y-96064605D01*
X173657858Y-96078748D01*
X173478253Y-95899143D01*
X173492395Y-95885000D01*
X173851605Y-95885000D01*
X174807413Y-96840808D01*
X175071814Y-96745044D01*
X175212704Y-96455429D01*
X175294384Y-96143892D01*
X175306189Y-95947595D01*
X178530282Y-95947595D01*
X178574039Y-96266675D01*
X178679205Y-96571088D01*
X178772186Y-96745044D01*
X179036587Y-96840808D01*
X179992395Y-95885000D01*
X180351605Y-95885000D01*
X181307413Y-96840808D01*
X181571814Y-96745044D01*
X181712704Y-96455429D01*
X181794384Y-96143892D01*
X181806189Y-95947595D01*
X186699282Y-95947595D01*
X186743039Y-96266675D01*
X186848205Y-96571088D01*
X186941186Y-96745044D01*
X187205587Y-96840808D01*
X188161395Y-95885000D01*
X188520605Y-95885000D01*
X189476413Y-96840808D01*
X189740814Y-96745044D01*
X189881704Y-96455429D01*
X189963384Y-96143892D01*
X189975189Y-95947595D01*
X193199282Y-95947595D01*
X193243039Y-96266675D01*
X193348205Y-96571088D01*
X193441186Y-96745044D01*
X193705587Y-96840808D01*
X194661395Y-95885000D01*
X195020605Y-95885000D01*
X195976413Y-96840808D01*
X196240814Y-96745044D01*
X196381704Y-96455429D01*
X196463384Y-96143892D01*
X196482718Y-95822405D01*
X196438961Y-95503325D01*
X196333795Y-95198912D01*
X196240814Y-95024956D01*
X195976413Y-94929192D01*
X195020605Y-95885000D01*
X194661395Y-95885000D01*
X193705587Y-94929192D01*
X193441186Y-95024956D01*
X193300296Y-95314571D01*
X193218616Y-95626108D01*
X193199282Y-95947595D01*
X189975189Y-95947595D01*
X189982718Y-95822405D01*
X189938961Y-95503325D01*
X189833795Y-95198912D01*
X189740814Y-95024956D01*
X189476413Y-94929192D01*
X188520605Y-95885000D01*
X188161395Y-95885000D01*
X187205587Y-94929192D01*
X186941186Y-95024956D01*
X186800296Y-95314571D01*
X186718616Y-95626108D01*
X186699282Y-95947595D01*
X181806189Y-95947595D01*
X181813718Y-95822405D01*
X181769961Y-95503325D01*
X181664795Y-95198912D01*
X181571814Y-95024956D01*
X181307413Y-94929192D01*
X180351605Y-95885000D01*
X179992395Y-95885000D01*
X179036587Y-94929192D01*
X178772186Y-95024956D01*
X178631296Y-95314571D01*
X178549616Y-95626108D01*
X178530282Y-95947595D01*
X175306189Y-95947595D01*
X175313718Y-95822405D01*
X175269961Y-95503325D01*
X175164795Y-95198912D01*
X175071814Y-95024956D01*
X174807413Y-94929192D01*
X173851605Y-95885000D01*
X173492395Y-95885000D01*
X172536587Y-94929192D01*
X172272186Y-95024956D01*
X172131296Y-95314571D01*
X172049616Y-95626108D01*
X172033625Y-95892000D01*
X171031667Y-95892000D01*
X170920014Y-95902997D01*
X170776753Y-95946454D01*
X170644724Y-96017026D01*
X170528999Y-96111999D01*
X170434026Y-96227724D01*
X170363454Y-96359753D01*
X170319997Y-96503014D01*
X170305323Y-96652000D01*
X170319997Y-96800986D01*
X170363454Y-96944247D01*
X170434026Y-97076276D01*
X170528999Y-97192001D01*
X170641302Y-97284166D01*
X170436641Y-97368939D01*
X170217987Y-97515038D01*
X170032038Y-97700987D01*
X169886367Y-97919000D01*
X169582333Y-97919000D01*
X169545000Y-97915323D01*
X169507667Y-97919000D01*
X157053775Y-97919000D01*
X156992962Y-97827987D01*
X156807013Y-97642038D01*
X156588359Y-97495939D01*
X156345405Y-97395304D01*
X156087486Y-97344000D01*
X155824514Y-97344000D01*
X155566595Y-97395304D01*
X155323641Y-97495939D01*
X155104987Y-97642038D01*
X154919038Y-97827987D01*
X154858225Y-97919000D01*
X143852490Y-97919000D01*
X144751028Y-97020413D01*
X158048192Y-97020413D01*
X158143956Y-97284814D01*
X158433571Y-97425704D01*
X158745108Y-97507384D01*
X159066595Y-97526718D01*
X159385675Y-97482961D01*
X159690088Y-97377795D01*
X159864044Y-97284814D01*
X159959808Y-97020413D01*
X164548192Y-97020413D01*
X164643956Y-97284814D01*
X164933571Y-97425704D01*
X165245108Y-97507384D01*
X165566595Y-97526718D01*
X165885675Y-97482961D01*
X166190088Y-97377795D01*
X166364044Y-97284814D01*
X166459808Y-97020413D01*
X165504000Y-96064605D01*
X164548192Y-97020413D01*
X159959808Y-97020413D01*
X159004000Y-96064605D01*
X158048192Y-97020413D01*
X144751028Y-97020413D01*
X145257814Y-96513600D01*
X157223664Y-96513600D01*
X157260974Y-96517276D01*
X157298312Y-96513600D01*
X157298333Y-96513600D01*
X157351128Y-96508400D01*
X157409959Y-96502608D01*
X157409970Y-96502605D01*
X157409986Y-96502603D01*
X157480188Y-96481308D01*
X157511205Y-96571088D01*
X157604186Y-96745044D01*
X157868587Y-96840808D01*
X158824395Y-95885000D01*
X159183605Y-95885000D01*
X160139413Y-96840808D01*
X160403814Y-96745044D01*
X160544704Y-96455429D01*
X160626384Y-96143892D01*
X160638189Y-95947595D01*
X163862282Y-95947595D01*
X163906039Y-96266675D01*
X164011205Y-96571088D01*
X164104186Y-96745044D01*
X164368587Y-96840808D01*
X165324395Y-95885000D01*
X165683605Y-95885000D01*
X166639413Y-96840808D01*
X166903814Y-96745044D01*
X167044704Y-96455429D01*
X167126384Y-96143892D01*
X167145718Y-95822405D01*
X167101961Y-95503325D01*
X166996795Y-95198912D01*
X166903814Y-95024956D01*
X166639413Y-94929192D01*
X165683605Y-95885000D01*
X165324395Y-95885000D01*
X164368587Y-94929192D01*
X164104186Y-95024956D01*
X163963296Y-95314571D01*
X163881616Y-95626108D01*
X163862282Y-95947595D01*
X160638189Y-95947595D01*
X160645718Y-95822405D01*
X160601961Y-95503325D01*
X160496795Y-95198912D01*
X160403814Y-95024956D01*
X160139413Y-94929192D01*
X159183605Y-95885000D01*
X158824395Y-95885000D01*
X158810253Y-95870858D01*
X158989858Y-95691253D01*
X159004000Y-95705395D01*
X159959808Y-94749587D01*
X164548192Y-94749587D01*
X165504000Y-95705395D01*
X166459808Y-94749587D01*
X172716192Y-94749587D01*
X173672000Y-95705395D01*
X174627808Y-94749587D01*
X179216192Y-94749587D01*
X180172000Y-95705395D01*
X181127808Y-94749587D01*
X187385192Y-94749587D01*
X188341000Y-95705395D01*
X189296808Y-94749587D01*
X193885192Y-94749587D01*
X194841000Y-95705395D01*
X195796808Y-94749587D01*
X195701044Y-94485186D01*
X195411429Y-94344296D01*
X195099892Y-94262616D01*
X194778405Y-94243282D01*
X194459325Y-94287039D01*
X194154912Y-94392205D01*
X193980956Y-94485186D01*
X193885192Y-94749587D01*
X189296808Y-94749587D01*
X189201044Y-94485186D01*
X188911429Y-94344296D01*
X188599892Y-94262616D01*
X188278405Y-94243282D01*
X187959325Y-94287039D01*
X187654912Y-94392205D01*
X187480956Y-94485186D01*
X187385192Y-94749587D01*
X181127808Y-94749587D01*
X181032044Y-94485186D01*
X180742429Y-94344296D01*
X180430892Y-94262616D01*
X180109405Y-94243282D01*
X179790325Y-94287039D01*
X179485912Y-94392205D01*
X179311956Y-94485186D01*
X179216192Y-94749587D01*
X174627808Y-94749587D01*
X174532044Y-94485186D01*
X174242429Y-94344296D01*
X173930892Y-94262616D01*
X173609405Y-94243282D01*
X173290325Y-94287039D01*
X172985912Y-94392205D01*
X172811956Y-94485186D01*
X172716192Y-94749587D01*
X166459808Y-94749587D01*
X166364044Y-94485186D01*
X166074429Y-94344296D01*
X165762892Y-94262616D01*
X165441405Y-94243282D01*
X165122325Y-94287039D01*
X164817912Y-94392205D01*
X164643956Y-94485186D01*
X164548192Y-94749587D01*
X159959808Y-94749587D01*
X159864044Y-94485186D01*
X159689337Y-94400196D01*
X163328787Y-90761000D01*
X165049618Y-90761000D01*
X165086884Y-90764676D01*
X165124266Y-90761000D01*
X165124333Y-90761000D01*
X165166765Y-90756821D01*
X165235872Y-90750025D01*
X165235925Y-90750009D01*
X165235986Y-90750003D01*
X165311541Y-90727084D01*
X165379139Y-90706590D01*
X165379188Y-90706564D01*
X165379247Y-90706546D01*
X165449180Y-90669165D01*
X165511179Y-90636038D01*
X165511222Y-90636003D01*
X165511276Y-90635974D01*
X165570039Y-90587748D01*
X165597917Y-90564877D01*
X165597958Y-90564836D01*
X165627001Y-90541001D01*
X165650762Y-90512048D01*
X168230965Y-87932630D01*
X168260001Y-87908801D01*
X168305533Y-87853320D01*
X168354909Y-87793173D01*
X168354936Y-87793122D01*
X168354974Y-87793076D01*
X168390149Y-87727268D01*
X168425502Y-87661154D01*
X168425519Y-87661097D01*
X168425546Y-87661047D01*
X168447205Y-87589646D01*
X168468980Y-87517900D01*
X168468986Y-87517843D01*
X168469003Y-87517786D01*
X168476861Y-87438000D01*
X168483676Y-87368916D01*
X168480000Y-87331534D01*
X168480000Y-86915994D01*
X171075499Y-84320413D01*
X172780192Y-84320413D01*
X172875956Y-84584814D01*
X173165571Y-84725704D01*
X173477108Y-84807384D01*
X173798595Y-84826718D01*
X174117675Y-84782961D01*
X174422088Y-84677795D01*
X174596044Y-84584814D01*
X174691808Y-84320413D01*
X179280192Y-84320413D01*
X179375956Y-84584814D01*
X179665571Y-84725704D01*
X179977108Y-84807384D01*
X180298595Y-84826718D01*
X180617675Y-84782961D01*
X180922088Y-84677795D01*
X181096044Y-84584814D01*
X181191808Y-84320413D01*
X180236000Y-83364605D01*
X179280192Y-84320413D01*
X174691808Y-84320413D01*
X173736000Y-83364605D01*
X172780192Y-84320413D01*
X171075499Y-84320413D01*
X172100795Y-83295086D01*
X172138039Y-83566675D01*
X172243205Y-83871088D01*
X172336186Y-84045044D01*
X172600587Y-84140808D01*
X173556395Y-83185000D01*
X173915605Y-83185000D01*
X174871413Y-84140808D01*
X175135814Y-84045044D01*
X175276704Y-83755429D01*
X175358384Y-83443892D01*
X175370189Y-83247595D01*
X178594282Y-83247595D01*
X178638039Y-83566675D01*
X178743205Y-83871088D01*
X178836186Y-84045044D01*
X179100587Y-84140808D01*
X180056395Y-83185000D01*
X180415605Y-83185000D01*
X181371413Y-84140808D01*
X181635814Y-84045044D01*
X181776704Y-83755429D01*
X181858384Y-83443892D01*
X181877718Y-83122405D01*
X181833961Y-82803325D01*
X181728795Y-82498912D01*
X181635814Y-82324956D01*
X181371413Y-82229192D01*
X180415605Y-83185000D01*
X180056395Y-83185000D01*
X179100587Y-82229192D01*
X178836186Y-82324956D01*
X178695296Y-82614571D01*
X178613616Y-82926108D01*
X178594282Y-83247595D01*
X175370189Y-83247595D01*
X175377718Y-83122405D01*
X175333961Y-82803325D01*
X175228795Y-82498912D01*
X175135814Y-82324956D01*
X174871413Y-82229192D01*
X173915605Y-83185000D01*
X173556395Y-83185000D01*
X173542253Y-83170858D01*
X173721858Y-82991253D01*
X173736000Y-83005395D01*
X174691808Y-82049587D01*
X179280192Y-82049587D01*
X180236000Y-83005395D01*
X181191808Y-82049587D01*
X181096044Y-81785186D01*
X180806429Y-81644296D01*
X180494892Y-81562616D01*
X180173405Y-81543282D01*
X179854325Y-81587039D01*
X179549912Y-81692205D01*
X179375956Y-81785186D01*
X179280192Y-82049587D01*
X174691808Y-82049587D01*
X174596044Y-81785186D01*
X174306429Y-81644296D01*
X173994892Y-81562616D01*
X173842381Y-81553444D01*
X174371809Y-81024000D01*
X183712198Y-81024000D01*
X182496003Y-82240196D01*
G36*
X167142301Y-83097488D02*
G01*
X167101961Y-82803325D01*
X166996795Y-82498912D01*
X166903814Y-82324956D01*
X166639413Y-82229192D01*
X165683605Y-83185000D01*
X165697748Y-83199143D01*
X165518143Y-83378748D01*
X165504000Y-83364605D01*
X164548192Y-84320413D01*
X164643956Y-84584814D01*
X164933571Y-84725704D01*
X165245108Y-84807384D01*
X165421750Y-84818007D01*
X156914204Y-93325400D01*
X151850442Y-93325400D01*
X154369378Y-90806587D01*
X158836091Y-90806587D01*
X158873413Y-90810263D01*
X158910735Y-90806587D01*
X158910746Y-90806587D01*
X159022399Y-90795590D01*
X159165660Y-90752133D01*
X159297689Y-90681561D01*
X159413414Y-90586588D01*
X159437217Y-90557584D01*
X162563004Y-87431798D01*
X162592001Y-87408001D01*
X162686974Y-87292276D01*
X162757546Y-87160247D01*
X162801003Y-87016986D01*
X162812000Y-86905333D01*
X162812000Y-86905323D01*
X162815676Y-86868000D01*
X162812000Y-86830677D01*
X162812000Y-83247595D01*
X163862282Y-83247595D01*
X163906039Y-83566675D01*
X164011205Y-83871088D01*
X164104186Y-84045044D01*
X164368587Y-84140808D01*
X165324395Y-83185000D01*
X164368587Y-82229192D01*
X164104186Y-82324956D01*
X163963296Y-82614571D01*
X163881616Y-82926108D01*
X163862282Y-83247595D01*
X162812000Y-83247595D01*
X162812000Y-82587322D01*
X162815676Y-82549999D01*
X162812000Y-82512677D01*
X162812000Y-82512667D01*
X162801003Y-82401014D01*
X162795034Y-82381337D01*
X163126800Y-82049587D01*
X164548192Y-82049587D01*
X165504000Y-83005395D01*
X166459808Y-82049587D01*
X166364044Y-81785186D01*
X166074429Y-81644296D01*
X165762892Y-81562616D01*
X165441405Y-81543282D01*
X165122325Y-81587039D01*
X164817912Y-81692205D01*
X164643956Y-81785186D01*
X164548192Y-82049587D01*
X163126800Y-82049587D01*
X167302792Y-77873800D01*
X172366083Y-77873800D01*
X167142301Y-83097488D01*
X167142301Y-83097488D01*
G37*
X167142301Y-83097488D02*
X167101961Y-82803325D01*
X166996795Y-82498912D01*
X166903814Y-82324956D01*
X166639413Y-82229192D01*
X165683605Y-83185000D01*
X165697748Y-83199143D01*
X165518143Y-83378748D01*
X165504000Y-83364605D01*
X164548192Y-84320413D01*
X164643956Y-84584814D01*
X164933571Y-84725704D01*
X165245108Y-84807384D01*
X165421750Y-84818007D01*
X156914204Y-93325400D01*
X151850442Y-93325400D01*
X154369378Y-90806587D01*
X158836091Y-90806587D01*
X158873413Y-90810263D01*
X158910735Y-90806587D01*
X158910746Y-90806587D01*
X159022399Y-90795590D01*
X159165660Y-90752133D01*
X159297689Y-90681561D01*
X159413414Y-90586588D01*
X159437217Y-90557584D01*
X162563004Y-87431798D01*
X162592001Y-87408001D01*
X162686974Y-87292276D01*
X162757546Y-87160247D01*
X162801003Y-87016986D01*
X162812000Y-86905333D01*
X162812000Y-86905323D01*
X162815676Y-86868000D01*
X162812000Y-86830677D01*
X162812000Y-83247595D01*
X163862282Y-83247595D01*
X163906039Y-83566675D01*
X164011205Y-83871088D01*
X164104186Y-84045044D01*
X164368587Y-84140808D01*
X165324395Y-83185000D01*
X164368587Y-82229192D01*
X164104186Y-82324956D01*
X163963296Y-82614571D01*
X163881616Y-82926108D01*
X163862282Y-83247595D01*
X162812000Y-83247595D01*
X162812000Y-82587322D01*
X162815676Y-82549999D01*
X162812000Y-82512677D01*
X162812000Y-82512667D01*
X162801003Y-82401014D01*
X162795034Y-82381337D01*
X163126800Y-82049587D01*
X164548192Y-82049587D01*
X165504000Y-83005395D01*
X166459808Y-82049587D01*
X166364044Y-81785186D01*
X166074429Y-81644296D01*
X165762892Y-81562616D01*
X165441405Y-81543282D01*
X165122325Y-81587039D01*
X164817912Y-81692205D01*
X164643956Y-81785186D01*
X164548192Y-82049587D01*
X163126800Y-82049587D01*
X167302792Y-77873800D01*
X172366083Y-77873800D01*
X167142301Y-83097488D01*
G36*
X199644000Y-85592900D02*
G01*
X194174000Y-85592900D01*
X194174000Y-85247217D01*
X194177676Y-85209889D01*
X194174000Y-85172567D01*
X194163003Y-85060914D01*
X194119546Y-84917653D01*
X194119544Y-84917649D01*
X194119542Y-84917643D01*
X194075887Y-84835974D01*
X194048974Y-84785624D01*
X194048971Y-84785620D01*
X194048968Y-84785615D01*
X193977792Y-84698889D01*
X193954001Y-84669899D01*
X193925001Y-84646099D01*
X193599307Y-84320413D01*
X194012192Y-84320413D01*
X194107956Y-84584814D01*
X194397571Y-84725704D01*
X194709108Y-84807384D01*
X195030595Y-84826718D01*
X195349675Y-84782961D01*
X195654088Y-84677795D01*
X195828044Y-84584814D01*
X195923808Y-84320413D01*
X194968000Y-83364605D01*
X194012192Y-84320413D01*
X193599307Y-84320413D01*
X192526460Y-83247595D01*
X193326282Y-83247595D01*
X193370039Y-83566675D01*
X193475205Y-83871088D01*
X193568186Y-84045044D01*
X193832587Y-84140808D01*
X194788395Y-83185000D01*
X195147605Y-83185000D01*
X196103413Y-84140808D01*
X196367814Y-84045044D01*
X196508704Y-83755429D01*
X196590384Y-83443892D01*
X196609718Y-83122405D01*
X196565961Y-82803325D01*
X196460795Y-82498912D01*
X196367814Y-82324956D01*
X196103413Y-82229192D01*
X195147605Y-83185000D01*
X194788395Y-83185000D01*
X193832587Y-82229192D01*
X193568186Y-82324956D01*
X193427296Y-82614571D01*
X193345616Y-82926108D01*
X193326282Y-83247595D01*
X192526460Y-83247595D01*
X191328421Y-82049587D01*
X194012192Y-82049587D01*
X194968000Y-83005395D01*
X195923808Y-82049587D01*
X195828044Y-81785186D01*
X195538429Y-81644296D01*
X195226892Y-81562616D01*
X194905405Y-81543282D01*
X194586325Y-81587039D01*
X194281912Y-81692205D01*
X194107956Y-81785186D01*
X194012192Y-82049587D01*
X191328421Y-82049587D01*
X190302806Y-81024000D01*
X199644000Y-81024000D01*
X199644000Y-85592900D01*
X199644000Y-85592900D01*
G37*
X199644000Y-85592900D02*
X194174000Y-85592900D01*
X194174000Y-85247217D01*
X194177676Y-85209889D01*
X194174000Y-85172567D01*
X194163003Y-85060914D01*
X194119546Y-84917653D01*
X194119544Y-84917649D01*
X194119542Y-84917643D01*
X194075887Y-84835974D01*
X194048974Y-84785624D01*
X194048971Y-84785620D01*
X194048968Y-84785615D01*
X193977792Y-84698889D01*
X193954001Y-84669899D01*
X193925001Y-84646099D01*
X193599307Y-84320413D01*
X194012192Y-84320413D01*
X194107956Y-84584814D01*
X194397571Y-84725704D01*
X194709108Y-84807384D01*
X195030595Y-84826718D01*
X195349675Y-84782961D01*
X195654088Y-84677795D01*
X195828044Y-84584814D01*
X195923808Y-84320413D01*
X194968000Y-83364605D01*
X194012192Y-84320413D01*
X193599307Y-84320413D01*
X192526460Y-83247595D01*
X193326282Y-83247595D01*
X193370039Y-83566675D01*
X193475205Y-83871088D01*
X193568186Y-84045044D01*
X193832587Y-84140808D01*
X194788395Y-83185000D01*
X195147605Y-83185000D01*
X196103413Y-84140808D01*
X196367814Y-84045044D01*
X196508704Y-83755429D01*
X196590384Y-83443892D01*
X196609718Y-83122405D01*
X196565961Y-82803325D01*
X196460795Y-82498912D01*
X196367814Y-82324956D01*
X196103413Y-82229192D01*
X195147605Y-83185000D01*
X194788395Y-83185000D01*
X193832587Y-82229192D01*
X193568186Y-82324956D01*
X193427296Y-82614571D01*
X193345616Y-82926108D01*
X193326282Y-83247595D01*
X192526460Y-83247595D01*
X191328421Y-82049587D01*
X194012192Y-82049587D01*
X194968000Y-83005395D01*
X195923808Y-82049587D01*
X195828044Y-81785186D01*
X195538429Y-81644296D01*
X195226892Y-81562616D01*
X194905405Y-81543282D01*
X194586325Y-81587039D01*
X194281912Y-81692205D01*
X194107956Y-81785186D01*
X194012192Y-82049587D01*
X191328421Y-82049587D01*
X190302806Y-81024000D01*
X199644000Y-81024000D01*
X199644000Y-85592900D01*
M02*
