M48
; DRILL file {KiCad (5.1.4-0-10_14)} date Donnerstag, 10. September 2020 um 02:35:32
; FORMAT={-:-/ absolute / inch / decimal}
; #@! TF.CreationDate,2020-09-10T02:35:32+02:00
; #@! TF.GenerationSoftware,Kicad,Pcbnew,(5.1.4-0-10_14)
FMAT,2
INCH
T1C0.0157
T2C0.0276
T3C0.0354
T4C0.0394
T5C0.0433
T6C0.0787
T7C0.1693
%
G90
G05
T1
X3.705Y-5.0402
X3.715Y-5.9952
X3.7525Y-3.2014
X4.055Y-5.19
X4.0948Y-5.3048
X4.75Y-3.68
X4.78Y-3.905
X5.185Y-3.985
X5.3657Y-3.9693
X5.7593Y-3.9693
X8.5287Y-5.3265
T2
X3.715Y-6.07
X3.715Y-6.1448
X6.705Y-3.495
X6.705Y-3.5698
X3.84Y-3.89
X3.84Y-3.9648
X6.135Y-2.895
X6.135Y-2.9698
X6.705Y-2.9
X6.705Y-2.9748
X7.31Y-3.9
X7.31Y-3.9748
X7.3Y-3.5
X7.3Y-3.5748
X7.895Y-5.84
X7.895Y-5.9148
X3.705Y-5.1152
X3.705Y-5.19
X7.32Y-2.89
X7.32Y-2.9648
X6.14Y-3.885
X8.94Y-3.65
X8.94Y-3.7248
X6.735Y-3.88
X6.735Y-3.9548
X6.14Y-3.9598
X6.135Y-3.375
X6.135Y-3.4498
X3.71Y-3.165
X3.71Y-3.2398
T3
X8.82Y-3.46
X8.92Y-3.46
T4
X4.2516Y-5.08
X4.35Y-5.08
X4.4484Y-5.08
X5.2306Y-3.15
X5.3291Y-3.15
X5.4275Y-3.15
X4.2516Y-4.115
X4.35Y-4.115
X4.4484Y-4.115
X5.2106Y-4.115
X5.3091Y-4.115
X5.4075Y-4.115
X4.2531Y-6.05
X4.3516Y-6.05
X4.45Y-6.05
X4.2531Y-3.15
X4.3516Y-3.15
X4.45Y-3.15
X6.8631Y-5.4775
X6.9616Y-5.4775
X7.06Y-5.4775
X8.85Y-2.97
X8.85Y-3.1078
X5.2357Y-6.05
X5.3341Y-6.05
X5.4325Y-6.05
X5.2257Y-5.08
X5.3241Y-5.08
X5.4225Y-5.08
T5
X3.45Y-2.78
X3.45Y-2.9572
X3.7059Y-2.78
X3.7059Y-2.9572
X3.445Y-4.705
X3.445Y-4.8822
X3.7009Y-4.705
X3.7009Y-4.8822
X3.445Y-5.67
X3.445Y-5.8472
X3.7009Y-5.67
X3.7009Y-5.8472
X7.6709Y-3.775
X7.415Y-3.775
X7.415Y-3.9522
X7.6709Y-3.9522
X3.445Y-3.72
X3.445Y-3.8972
X7.4225Y-2.7725
X7.4225Y-2.9497
X7.6784Y-2.7725
X7.6784Y-2.9497
X3.7009Y-3.72
X3.7009Y-3.8972
X6.26Y-3.775
X6.26Y-3.9522
X6.5159Y-3.775
X6.5159Y-3.9522
X7.95Y-2.51
X7.95Y-2.61
X7.95Y-2.71
X7.95Y-2.81
X7.95Y-2.91
X7.95Y-3.01
X7.95Y-3.11
X7.95Y-3.21
X7.95Y-3.31
X7.95Y-3.41
X7.95Y-3.51
X7.95Y-3.61
X7.95Y-3.71
X7.95Y-3.81
X7.95Y-3.91
X7.95Y-4.01
X7.95Y-4.11
X7.95Y-4.21
X7.95Y-4.31
X7.95Y-4.41
X7.95Y-4.51
X7.95Y-4.61
X7.95Y-4.71
X7.95Y-4.81
X8.05Y-3.81
X8.05Y-4.31
X8.15Y-3.81
X8.15Y-4.31
X8.25Y-3.81
X8.25Y-4.31
X8.35Y-3.81
X8.35Y-4.31
X8.45Y-3.81
X8.45Y-4.31
X8.55Y-2.51
X8.55Y-2.61
X8.55Y-2.71
X8.55Y-2.81
X8.55Y-2.91
X8.55Y-3.01
X8.55Y-3.11
X8.55Y-3.21
X8.55Y-3.31
X8.55Y-3.41
X8.55Y-3.51
X8.55Y-3.61
X8.55Y-3.71
X8.55Y-3.81
X8.55Y-3.91
X8.55Y-4.01
X8.55Y-4.11
X8.55Y-4.21
X8.55Y-4.31
X8.55Y-4.41
X7.42Y-3.275
X7.42Y-3.4522
X7.6759Y-3.275
X7.6759Y-3.4522
X6.84Y-3.275
X6.84Y-3.4522
X7.0959Y-3.275
X7.0959Y-3.4522
X6.8425Y-2.7725
X6.8425Y-2.9497
X7.0984Y-2.7725
X7.0984Y-2.9497
X6.26Y-3.275
X6.26Y-3.4522
X6.5159Y-3.275
X6.5159Y-3.4522
X6.26Y-2.775
X6.26Y-2.9522
X6.5159Y-2.775
X6.5159Y-2.9522
X6.8375Y-3.775
X6.8375Y-3.9522
X7.0934Y-3.775
X8.55Y-4.61
X8.55Y-4.71
X7.0934Y-3.9522
X8.55Y-4.51
X8.55Y-4.81
X8.01Y-5.7275
X8.01Y-5.9046
X8.2659Y-5.7275
X8.2659Y-5.9046
T6
X6.7883Y-5.2019
X7.1348Y-5.2019
X5.1609Y-5.7744
X5.5073Y-5.7744
X5.1509Y-4.8044
X5.4973Y-4.8044
X5.1558Y-2.8744
X5.5023Y-2.8744
X4.1768Y-4.8044
X4.5232Y-4.8044
X4.1768Y-3.8394
X4.5232Y-3.8394
X4.1783Y-5.7744
X4.1783Y-2.8744
X5.1358Y-3.8394
X5.4823Y-3.8394
X4.5248Y-2.8744
X4.5248Y-5.7744
T7
X3.23Y-4.37
X3.23Y-6.1
X8.83Y-4.3701
X8.83Y-6.1
X3.22Y-2.66
X5.92Y-2.66
X8.83Y-2.66
X5.92Y-4.3701
X5.92Y-6.1
T0
M30
