%FSLAX45Y45*%
G04 Gerber Fmt 4.5, Leading zero omitted, Abs format (unit mm)*
G04 Created by KiCad (PCBNEW (5.1.4-0-10_14)) date 2020-08-27 08:40:02*
%MOMM*%
%LPD*%
G04 APERTURE LIST*
%ADD10C,0.100000*%
%ADD11C,0.200000*%
%ADD12C,0.300000*%
G04 APERTURE END LIST*
D10*
X7632700Y-16078200D02*
X7632700Y-6229350D01*
X22967950Y-16078200D02*
X7632700Y-16078200D01*
X22967950Y-6229350D02*
X22967950Y-16078200D01*
X7632700Y-6229350D02*
X22967950Y-6229350D01*
D11*
X9511240Y-8111440D02*
X9551240Y-8151440D01*
X9551240Y-8111440D02*
X9511240Y-8151440D01*
X15617900Y-8572500D02*
G75*
G03X15617900Y-8572500I-35000J0D01*
G01*
X15617900Y-8762500D02*
G75*
G03X15617900Y-8762500I-35000J0D01*
G01*
X17141900Y-9855200D02*
G75*
G03X17141900Y-9855200I-35000J0D01*
G01*
X17141900Y-10045200D02*
G75*
G03X17141900Y-10045200I-35000J0D01*
G01*
X17065700Y-8877300D02*
G75*
G03X17065700Y-8877300I-35000J0D01*
G01*
X17065700Y-9067300D02*
G75*
G03X17065700Y-9067300I-35000J0D01*
G01*
X17065700Y-7366000D02*
G75*
G03X17065700Y-7366000I-35000J0D01*
G01*
X17065700Y-7556000D02*
G75*
G03X17065700Y-7556000I-35000J0D01*
G01*
X18602400Y-9906000D02*
G75*
G03X18602400Y-9906000I-35000J0D01*
G01*
X18602400Y-10096000D02*
G75*
G03X18602400Y-10096000I-35000J0D01*
G01*
X15630600Y-9867900D02*
G75*
G03X15630600Y-9867900I-35000J0D01*
G01*
X15630600Y-10057900D02*
G75*
G03X15630600Y-10057900I-35000J0D01*
G01*
X20088300Y-14833600D02*
G75*
G03X20088300Y-14833600I-35000J0D01*
G01*
X20088300Y-15023600D02*
G75*
G03X20088300Y-15023600I-35000J0D01*
G01*
X18577000Y-8890000D02*
G75*
G03X18577000Y-8890000I-35000J0D01*
G01*
X18577000Y-9080000D02*
G75*
G03X18577000Y-9080000I-35000J0D01*
G01*
X15617900Y-7353300D02*
G75*
G03X15617900Y-7353300I-35000J0D01*
G01*
X9458400Y-8039100D02*
G75*
G03X9458400Y-8039100I-35000J0D01*
G01*
X9458400Y-8229100D02*
G75*
G03X9458400Y-8229100I-35000J0D01*
G01*
X15617900Y-7543300D02*
G75*
G03X15617900Y-7543300I-35000J0D01*
G01*
X18627800Y-7340600D02*
G75*
G03X18627800Y-7340600I-35000J0D01*
G01*
X18627800Y-7530600D02*
G75*
G03X18627800Y-7530600I-35000J0D01*
G01*
X9471100Y-15417800D02*
G75*
G03X9471100Y-15417800I-35000J0D01*
G01*
X9471100Y-15607800D02*
G75*
G03X9471100Y-15607800I-35000J0D01*
G01*
X9445700Y-12992100D02*
G75*
G03X9445700Y-12992100I-35000J0D01*
G01*
X9445700Y-13182100D02*
G75*
G03X9445700Y-13182100I-35000J0D01*
G01*
X9788600Y-9880600D02*
G75*
G03X9788600Y-9880600I-35000J0D01*
G01*
X9788600Y-10070600D02*
G75*
G03X9788600Y-10070600I-35000J0D01*
G01*
X22742600Y-9271000D02*
G75*
G03X22742600Y-9271000I-35000J0D01*
G01*
X22742600Y-9461000D02*
G75*
G03X22742600Y-9461000I-35000J0D01*
G01*
X20828000Y-6408400D02*
X20828000Y-6488400D01*
X20788000Y-6448400D02*
X20868000Y-6448400D01*
X21082000Y-6408400D02*
X21082000Y-6488400D01*
X21042000Y-6448400D02*
X21122000Y-6448400D01*
X22434620Y-8820220D02*
X22434620Y-8756580D01*
X22370980Y-8756580D01*
X22370980Y-8820220D01*
X22434620Y-8820220D01*
X22688620Y-8820220D02*
X22688620Y-8756580D01*
X22624980Y-8756580D01*
X22624980Y-8820220D01*
X22688620Y-8820220D01*
X13298600Y-15417000D02*
X13348600Y-15367000D01*
X13298600Y-15317000D01*
X13248600Y-15367000D01*
X13298600Y-15417000D01*
X13548600Y-15417000D02*
X13598600Y-15367000D01*
X13548600Y-15317000D01*
X13498600Y-15367000D01*
X13548600Y-15417000D01*
X11049000Y-12953200D02*
X11099000Y-12903200D01*
X11049000Y-12853200D01*
X10999000Y-12903200D01*
X11049000Y-12953200D01*
X11299000Y-12953200D02*
X11349000Y-12903200D01*
X11299000Y-12853200D01*
X11249000Y-12903200D01*
X11299000Y-12953200D01*
X13798600Y-15417000D02*
X13848600Y-15367000D01*
X13798600Y-15317000D01*
X13748600Y-15367000D01*
X13798600Y-15417000D01*
X22479000Y-7593800D02*
X22529000Y-7543800D01*
X22479000Y-7493800D01*
X22429000Y-7543800D01*
X22479000Y-7593800D01*
X22479000Y-7943800D02*
X22529000Y-7893800D01*
X22479000Y-7843800D01*
X22429000Y-7893800D01*
X22479000Y-7943800D01*
X13273200Y-12953200D02*
X13323200Y-12903200D01*
X13273200Y-12853200D01*
X13223200Y-12903200D01*
X13273200Y-12953200D01*
X13523200Y-12953200D02*
X13573200Y-12903200D01*
X13523200Y-12853200D01*
X13473200Y-12903200D01*
X13523200Y-12953200D01*
X13773200Y-12953200D02*
X13823200Y-12903200D01*
X13773200Y-12853200D01*
X13723200Y-12903200D01*
X13773200Y-12953200D01*
X13235000Y-10502100D02*
X13285000Y-10452100D01*
X13235000Y-10402100D01*
X13185000Y-10452100D01*
X13235000Y-10502100D01*
X13485000Y-10502100D02*
X13535000Y-10452100D01*
X13485000Y-10402100D01*
X13435000Y-10452100D01*
X13485000Y-10502100D01*
X13285800Y-8051000D02*
X13335800Y-8001000D01*
X13285800Y-7951000D01*
X13235800Y-8001000D01*
X13285800Y-8051000D01*
X13535800Y-8051000D02*
X13585800Y-8001000D01*
X13535800Y-7951000D01*
X13485800Y-8001000D01*
X13535800Y-8051000D01*
X13785800Y-8051000D02*
X13835800Y-8001000D01*
X13785800Y-7951000D01*
X13735800Y-8001000D01*
X13785800Y-8051000D01*
X10799000Y-12953200D02*
X10849000Y-12903200D01*
X10799000Y-12853200D01*
X10749000Y-12903200D01*
X10799000Y-12953200D01*
X13735000Y-10502100D02*
X13785000Y-10452100D01*
X13735000Y-10402100D01*
X13685000Y-10452100D01*
X13735000Y-10502100D01*
X10799000Y-10502100D02*
X10849000Y-10452100D01*
X10799000Y-10402100D01*
X10749000Y-10452100D01*
X10799000Y-10502100D01*
X11049000Y-10502100D02*
X11099000Y-10452100D01*
X11049000Y-10402100D01*
X10999000Y-10452100D01*
X11049000Y-10502100D01*
X11053000Y-15417000D02*
X11103000Y-15367000D01*
X11053000Y-15317000D01*
X11003000Y-15367000D01*
X11053000Y-15417000D01*
X11303000Y-15417000D02*
X11353000Y-15367000D01*
X11303000Y-15317000D01*
X11253000Y-15367000D01*
X11303000Y-15417000D01*
X11299000Y-10502100D02*
X11349000Y-10452100D01*
X11299000Y-10402100D01*
X11249000Y-10452100D01*
X11299000Y-10502100D01*
X10803000Y-15417000D02*
X10853000Y-15367000D01*
X10803000Y-15317000D01*
X10753000Y-15367000D01*
X10803000Y-15417000D01*
X10803000Y-8051000D02*
X10853000Y-8001000D01*
X10803000Y-7951000D01*
X10753000Y-8001000D01*
X10803000Y-8051000D01*
X11053000Y-8051000D02*
X11103000Y-8001000D01*
X11053000Y-7951000D01*
X11003000Y-8001000D01*
X11053000Y-8051000D01*
X11303000Y-8051000D02*
X11353000Y-8001000D01*
X11303000Y-7951000D01*
X11253000Y-8001000D01*
X11303000Y-8051000D01*
X17432400Y-13962800D02*
X17482400Y-13912800D01*
X17432400Y-13862800D01*
X17382400Y-13912800D01*
X17432400Y-13962800D01*
X17682400Y-13962800D02*
X17732400Y-13912800D01*
X17682400Y-13862800D01*
X17632400Y-13912800D01*
X17682400Y-13962800D01*
X17932400Y-13962800D02*
X17982400Y-13912800D01*
X17932400Y-13862800D01*
X17882400Y-13912800D01*
X17932400Y-13962800D01*
X16495400Y-8263500D02*
X16605400Y-8373500D01*
X16605400Y-8263500D02*
X16495400Y-8373500D01*
X16605400Y-8318500D02*
G75*
G03X16605400Y-8318500I-55000J0D01*
G01*
X18791800Y-8713500D02*
X18901800Y-8823500D01*
X18901800Y-8713500D02*
X18791800Y-8823500D01*
X18901800Y-8768500D02*
G75*
G03X18901800Y-8768500I-55000J0D01*
G01*
X19441800Y-8263500D02*
X19551800Y-8373500D01*
X19551800Y-8263500D02*
X19441800Y-8373500D01*
X19551800Y-8318500D02*
G75*
G03X19551800Y-8318500I-55000J0D01*
G01*
X19441800Y-8713500D02*
X19551800Y-8823500D01*
X19551800Y-8713500D02*
X19441800Y-8823500D01*
X19551800Y-8768500D02*
G75*
G03X19551800Y-8768500I-55000J0D01*
G01*
X15845400Y-8263500D02*
X15955400Y-8373500D01*
X15955400Y-8263500D02*
X15845400Y-8373500D01*
X15955400Y-8318500D02*
G75*
G03X15955400Y-8318500I-55000J0D01*
G01*
X15845400Y-8713500D02*
X15955400Y-8823500D01*
X15955400Y-8713500D02*
X15845400Y-8823500D01*
X15955400Y-8768500D02*
G75*
G03X15955400Y-8768500I-55000J0D01*
G01*
X16495400Y-8713500D02*
X16605400Y-8823500D01*
X16605400Y-8713500D02*
X16495400Y-8823500D01*
X16605400Y-8768500D02*
G75*
G03X16605400Y-8768500I-55000J0D01*
G01*
X8708000Y-7006200D02*
X8818000Y-7116200D01*
X8818000Y-7006200D02*
X8708000Y-7116200D01*
X8818000Y-7061200D02*
G75*
G03X8818000Y-7061200I-55000J0D01*
G01*
X8708000Y-7456200D02*
X8818000Y-7566200D01*
X8818000Y-7456200D02*
X8708000Y-7566200D01*
X8818000Y-7511200D02*
G75*
G03X8818000Y-7511200I-55000J0D01*
G01*
X9358000Y-7006200D02*
X9468000Y-7116200D01*
X9468000Y-7006200D02*
X9358000Y-7116200D01*
X9468000Y-7061200D02*
G75*
G03X9468000Y-7061200I-55000J0D01*
G01*
X9358000Y-7456200D02*
X9468000Y-7566200D01*
X9468000Y-7456200D02*
X9358000Y-7566200D01*
X9468000Y-7511200D02*
G75*
G03X9468000Y-7511200I-55000J0D01*
G01*
X18798200Y-6987150D02*
X18908200Y-7097150D01*
X18908200Y-6987150D02*
X18798200Y-7097150D01*
X18908200Y-7042150D02*
G75*
G03X18908200Y-7042150I-55000J0D01*
G01*
X18798200Y-7437150D02*
X18908200Y-7547150D01*
X18908200Y-7437150D02*
X18798200Y-7547150D01*
X18908200Y-7492150D02*
G75*
G03X18908200Y-7492150I-55000J0D01*
G01*
X19448200Y-6987150D02*
X19558200Y-7097150D01*
X19558200Y-6987150D02*
X19448200Y-7097150D01*
X19558200Y-7042150D02*
G75*
G03X19558200Y-7042150I-55000J0D01*
G01*
X19448200Y-7437150D02*
X19558200Y-7547150D01*
X19558200Y-7437150D02*
X19448200Y-7547150D01*
X19558200Y-7492150D02*
G75*
G03X19558200Y-7492150I-55000J0D01*
G01*
X8695300Y-9393800D02*
X8805300Y-9503800D01*
X8805300Y-9393800D02*
X8695300Y-9503800D01*
X8805300Y-9448800D02*
G75*
G03X8805300Y-9448800I-55000J0D01*
G01*
X8695300Y-9843800D02*
X8805300Y-9953800D01*
X8805300Y-9843800D02*
X8695300Y-9953800D01*
X8805300Y-9898800D02*
G75*
G03X8805300Y-9898800I-55000J0D01*
G01*
X9345300Y-9393800D02*
X9455300Y-9503800D01*
X9455300Y-9393800D02*
X9345300Y-9503800D01*
X9455300Y-9448800D02*
G75*
G03X9455300Y-9448800I-55000J0D01*
G01*
X9345300Y-9843800D02*
X9455300Y-9953800D01*
X9455300Y-9843800D02*
X9345300Y-9953800D01*
X9455300Y-9898800D02*
G75*
G03X9455300Y-9898800I-55000J0D01*
G01*
X18779100Y-9533500D02*
X18889100Y-9643500D01*
X18889100Y-9533500D02*
X18779100Y-9643500D01*
X18889100Y-9588500D02*
G75*
G03X18889100Y-9588500I-55000J0D01*
G01*
X18779100Y-9983500D02*
X18889100Y-10093500D01*
X18889100Y-9983500D02*
X18779100Y-10093500D01*
X18889100Y-10038500D02*
G75*
G03X18889100Y-10038500I-55000J0D01*
G01*
X19429100Y-9533500D02*
X19539100Y-9643500D01*
X19539100Y-9533500D02*
X19429100Y-9643500D01*
X19539100Y-9588500D02*
G75*
G03X19539100Y-9588500I-55000J0D01*
G01*
X19429100Y-9983500D02*
X19539100Y-10093500D01*
X19539100Y-9983500D02*
X19429100Y-10093500D01*
X19539100Y-10038500D02*
G75*
G03X19539100Y-10038500I-55000J0D01*
G01*
X17325000Y-6987150D02*
X17435000Y-7097150D01*
X17435000Y-6987150D02*
X17325000Y-7097150D01*
X17435000Y-7042150D02*
G75*
G03X17435000Y-7042150I-55000J0D01*
G01*
X17325000Y-7437150D02*
X17435000Y-7547150D01*
X17435000Y-7437150D02*
X17325000Y-7547150D01*
X17435000Y-7492150D02*
G75*
G03X17435000Y-7492150I-55000J0D01*
G01*
X17975000Y-6987150D02*
X18085000Y-7097150D01*
X18085000Y-6987150D02*
X17975000Y-7097150D01*
X18085000Y-7042150D02*
G75*
G03X18085000Y-7042150I-55000J0D01*
G01*
X17975000Y-7437150D02*
X18085000Y-7547150D01*
X18085000Y-7437150D02*
X17975000Y-7547150D01*
X18085000Y-7492150D02*
G75*
G03X18085000Y-7492150I-55000J0D01*
G01*
X20290400Y-14492800D02*
X20400400Y-14602800D01*
X20400400Y-14492800D02*
X20290400Y-14602800D01*
X20400400Y-14547800D02*
G75*
G03X20400400Y-14547800I-55000J0D01*
G01*
X20290400Y-14942800D02*
X20400400Y-15052800D01*
X20400400Y-14942800D02*
X20290400Y-15052800D01*
X20400400Y-14997800D02*
G75*
G03X20400400Y-14997800I-55000J0D01*
G01*
X20940400Y-14492800D02*
X21050400Y-14602800D01*
X21050400Y-14492800D02*
X20940400Y-14602800D01*
X21050400Y-14547800D02*
G75*
G03X21050400Y-14547800I-55000J0D01*
G01*
X20940400Y-14942800D02*
X21050400Y-15052800D01*
X21050400Y-14942800D02*
X20940400Y-15052800D01*
X21050400Y-14997800D02*
G75*
G03X21050400Y-14997800I-55000J0D01*
G01*
X20138000Y-6320400D02*
X20248000Y-6430400D01*
X20248000Y-6320400D02*
X20138000Y-6430400D01*
X20248000Y-6375400D02*
G75*
G03X20248000Y-6375400I-55000J0D01*
G01*
X20138000Y-6574400D02*
X20248000Y-6684400D01*
X20248000Y-6574400D02*
X20138000Y-6684400D01*
X20248000Y-6629400D02*
G75*
G03X20248000Y-6629400I-55000J0D01*
G01*
X20138000Y-6828400D02*
X20248000Y-6938400D01*
X20248000Y-6828400D02*
X20138000Y-6938400D01*
X20248000Y-6883400D02*
G75*
G03X20248000Y-6883400I-55000J0D01*
G01*
X20138000Y-7082400D02*
X20248000Y-7192400D01*
X20248000Y-7082400D02*
X20138000Y-7192400D01*
X20248000Y-7137400D02*
G75*
G03X20248000Y-7137400I-55000J0D01*
G01*
X20138000Y-7336400D02*
X20248000Y-7446400D01*
X20248000Y-7336400D02*
X20138000Y-7446400D01*
X20248000Y-7391400D02*
G75*
G03X20248000Y-7391400I-55000J0D01*
G01*
X20138000Y-7590400D02*
X20248000Y-7700400D01*
X20248000Y-7590400D02*
X20138000Y-7700400D01*
X20248000Y-7645400D02*
G75*
G03X20248000Y-7645400I-55000J0D01*
G01*
X18791800Y-8263500D02*
X18901800Y-8373500D01*
X18901800Y-8263500D02*
X18791800Y-8373500D01*
X18901800Y-8318500D02*
G75*
G03X18901800Y-8318500I-55000J0D01*
G01*
X20138000Y-7844400D02*
X20248000Y-7954400D01*
X20248000Y-7844400D02*
X20138000Y-7954400D01*
X20248000Y-7899400D02*
G75*
G03X20248000Y-7899400I-55000J0D01*
G01*
X20138000Y-8098400D02*
X20248000Y-8208400D01*
X20248000Y-8098400D02*
X20138000Y-8208400D01*
X20248000Y-8153400D02*
G75*
G03X20248000Y-8153400I-55000J0D01*
G01*
X20138000Y-8352400D02*
X20248000Y-8462400D01*
X20248000Y-8352400D02*
X20138000Y-8462400D01*
X20248000Y-8407400D02*
G75*
G03X20248000Y-8407400I-55000J0D01*
G01*
X20138000Y-8606400D02*
X20248000Y-8716400D01*
X20248000Y-8606400D02*
X20138000Y-8716400D01*
X20248000Y-8661400D02*
G75*
G03X20248000Y-8661400I-55000J0D01*
G01*
X20138000Y-8860400D02*
X20248000Y-8970400D01*
X20248000Y-8860400D02*
X20138000Y-8970400D01*
X20248000Y-8915400D02*
G75*
G03X20248000Y-8915400I-55000J0D01*
G01*
X20138000Y-9114400D02*
X20248000Y-9224400D01*
X20248000Y-9114400D02*
X20138000Y-9224400D01*
X20248000Y-9169400D02*
G75*
G03X20248000Y-9169400I-55000J0D01*
G01*
X20138000Y-9368400D02*
X20248000Y-9478400D01*
X20248000Y-9368400D02*
X20138000Y-9478400D01*
X20248000Y-9423400D02*
G75*
G03X20248000Y-9423400I-55000J0D01*
G01*
X20138000Y-9622400D02*
X20248000Y-9732400D01*
X20248000Y-9622400D02*
X20138000Y-9732400D01*
X20248000Y-9677400D02*
G75*
G03X20248000Y-9677400I-55000J0D01*
G01*
X20138000Y-9876400D02*
X20248000Y-9986400D01*
X20248000Y-9876400D02*
X20138000Y-9986400D01*
X20248000Y-9931400D02*
G75*
G03X20248000Y-9931400I-55000J0D01*
G01*
X20138000Y-10130400D02*
X20248000Y-10240400D01*
X20248000Y-10130400D02*
X20138000Y-10240400D01*
X20248000Y-10185400D02*
G75*
G03X20248000Y-10185400I-55000J0D01*
G01*
X15845400Y-9533500D02*
X15955400Y-9643500D01*
X15955400Y-9533500D02*
X15845400Y-9643500D01*
X15955400Y-9588500D02*
G75*
G03X15955400Y-9588500I-55000J0D01*
G01*
X15845400Y-9983500D02*
X15955400Y-10093500D01*
X15955400Y-9983500D02*
X15845400Y-10093500D01*
X15955400Y-10038500D02*
G75*
G03X15955400Y-10038500I-55000J0D01*
G01*
X16495400Y-9533500D02*
X16605400Y-9643500D01*
X16605400Y-9533500D02*
X16495400Y-9643500D01*
X16605400Y-9588500D02*
G75*
G03X16605400Y-9588500I-55000J0D01*
G01*
X16495400Y-9983500D02*
X16605400Y-10093500D01*
X16605400Y-9983500D02*
X16495400Y-10093500D01*
X16605400Y-10038500D02*
G75*
G03X16605400Y-10038500I-55000J0D01*
G01*
X8695300Y-14346800D02*
X8805300Y-14456800D01*
X8805300Y-14346800D02*
X8695300Y-14456800D01*
X8805300Y-14401800D02*
G75*
G03X8805300Y-14401800I-55000J0D01*
G01*
X8695300Y-14796800D02*
X8805300Y-14906800D01*
X8805300Y-14796800D02*
X8695300Y-14906800D01*
X8805300Y-14851800D02*
G75*
G03X8805300Y-14851800I-55000J0D01*
G01*
X9345300Y-14346800D02*
X9455300Y-14456800D01*
X9455300Y-14346800D02*
X9345300Y-14456800D01*
X9455300Y-14401800D02*
G75*
G03X9455300Y-14401800I-55000J0D01*
G01*
X9345300Y-14796800D02*
X9455300Y-14906800D01*
X9455300Y-14796800D02*
X9345300Y-14906800D01*
X9455300Y-14851800D02*
G75*
G03X9455300Y-14851800I-55000J0D01*
G01*
X15845400Y-6993500D02*
X15955400Y-7103500D01*
X15955400Y-6993500D02*
X15845400Y-7103500D01*
X15955400Y-7048500D02*
G75*
G03X15955400Y-7048500I-55000J0D01*
G01*
X21662000Y-6574400D02*
X21772000Y-6684400D01*
X21772000Y-6574400D02*
X21662000Y-6684400D01*
X21772000Y-6629400D02*
G75*
G03X21772000Y-6629400I-55000J0D01*
G01*
X20138000Y-10384400D02*
X20248000Y-10494400D01*
X20248000Y-10384400D02*
X20138000Y-10494400D01*
X20248000Y-10439400D02*
G75*
G03X20248000Y-10439400I-55000J0D01*
G01*
X20138000Y-10638400D02*
X20248000Y-10748400D01*
X20248000Y-10638400D02*
X20138000Y-10748400D01*
X20248000Y-10693400D02*
G75*
G03X20248000Y-10693400I-55000J0D01*
G01*
X20138000Y-10892400D02*
X20248000Y-11002400D01*
X20248000Y-10892400D02*
X20138000Y-11002400D01*
X20248000Y-10947400D02*
G75*
G03X20248000Y-10947400I-55000J0D01*
G01*
X20138000Y-11146400D02*
X20248000Y-11256400D01*
X20248000Y-11146400D02*
X20138000Y-11256400D01*
X20248000Y-11201400D02*
G75*
G03X20248000Y-11201400I-55000J0D01*
G01*
X20138000Y-11400400D02*
X20248000Y-11510400D01*
X20248000Y-11400400D02*
X20138000Y-11510400D01*
X20248000Y-11455400D02*
G75*
G03X20248000Y-11455400I-55000J0D01*
G01*
X20138000Y-11654400D02*
X20248000Y-11764400D01*
X20248000Y-11654400D02*
X20138000Y-11764400D01*
X20248000Y-11709400D02*
G75*
G03X20248000Y-11709400I-55000J0D01*
G01*
X20138000Y-11908400D02*
X20248000Y-12018400D01*
X20248000Y-11908400D02*
X20138000Y-12018400D01*
X20248000Y-11963400D02*
G75*
G03X20248000Y-11963400I-55000J0D01*
G01*
X20138000Y-12162400D02*
X20248000Y-12272400D01*
X20248000Y-12162400D02*
X20138000Y-12272400D01*
X20248000Y-12217400D02*
G75*
G03X20248000Y-12217400I-55000J0D01*
G01*
X20392000Y-9622400D02*
X20502000Y-9732400D01*
X20502000Y-9622400D02*
X20392000Y-9732400D01*
X20502000Y-9677400D02*
G75*
G03X20502000Y-9677400I-55000J0D01*
G01*
X20392000Y-10892400D02*
X20502000Y-11002400D01*
X20502000Y-10892400D02*
X20392000Y-11002400D01*
X20502000Y-10947400D02*
G75*
G03X20502000Y-10947400I-55000J0D01*
G01*
X20646000Y-9622400D02*
X20756000Y-9732400D01*
X20756000Y-9622400D02*
X20646000Y-9732400D01*
X20756000Y-9677400D02*
G75*
G03X20756000Y-9677400I-55000J0D01*
G01*
X20646000Y-10892400D02*
X20756000Y-11002400D01*
X20756000Y-10892400D02*
X20646000Y-11002400D01*
X20756000Y-10947400D02*
G75*
G03X20756000Y-10947400I-55000J0D01*
G01*
X20900000Y-9622400D02*
X21010000Y-9732400D01*
X21010000Y-9622400D02*
X20900000Y-9732400D01*
X21010000Y-9677400D02*
G75*
G03X21010000Y-9677400I-55000J0D01*
G01*
X20900000Y-10892400D02*
X21010000Y-11002400D01*
X21010000Y-10892400D02*
X20900000Y-11002400D01*
X21010000Y-10947400D02*
G75*
G03X21010000Y-10947400I-55000J0D01*
G01*
X21154000Y-9622400D02*
X21264000Y-9732400D01*
X21264000Y-9622400D02*
X21154000Y-9732400D01*
X21264000Y-9677400D02*
G75*
G03X21264000Y-9677400I-55000J0D01*
G01*
X21154000Y-10892400D02*
X21264000Y-11002400D01*
X21264000Y-10892400D02*
X21154000Y-11002400D01*
X21264000Y-10947400D02*
G75*
G03X21264000Y-10947400I-55000J0D01*
G01*
X21408000Y-9622400D02*
X21518000Y-9732400D01*
X21518000Y-9622400D02*
X21408000Y-9732400D01*
X21518000Y-9677400D02*
G75*
G03X21518000Y-9677400I-55000J0D01*
G01*
X21408000Y-10892400D02*
X21518000Y-11002400D01*
X21518000Y-10892400D02*
X21408000Y-11002400D01*
X21518000Y-10947400D02*
G75*
G03X21518000Y-10947400I-55000J0D01*
G01*
X21662000Y-6320400D02*
X21772000Y-6430400D01*
X21772000Y-6320400D02*
X21662000Y-6430400D01*
X21772000Y-6375400D02*
G75*
G03X21772000Y-6375400I-55000J0D01*
G01*
X21662000Y-6828400D02*
X21772000Y-6938400D01*
X21772000Y-6828400D02*
X21662000Y-6938400D01*
X21772000Y-6883400D02*
G75*
G03X21772000Y-6883400I-55000J0D01*
G01*
X21662000Y-7082400D02*
X21772000Y-7192400D01*
X21772000Y-7082400D02*
X21662000Y-7192400D01*
X21772000Y-7137400D02*
G75*
G03X21772000Y-7137400I-55000J0D01*
G01*
X21662000Y-7336400D02*
X21772000Y-7446400D01*
X21772000Y-7336400D02*
X21662000Y-7446400D01*
X21772000Y-7391400D02*
G75*
G03X21772000Y-7391400I-55000J0D01*
G01*
X21662000Y-7590400D02*
X21772000Y-7700400D01*
X21772000Y-7590400D02*
X21662000Y-7700400D01*
X21772000Y-7645400D02*
G75*
G03X21772000Y-7645400I-55000J0D01*
G01*
X21662000Y-7844400D02*
X21772000Y-7954400D01*
X21772000Y-7844400D02*
X21662000Y-7954400D01*
X21772000Y-7899400D02*
G75*
G03X21772000Y-7899400I-55000J0D01*
G01*
X21662000Y-8098400D02*
X21772000Y-8208400D01*
X21772000Y-8098400D02*
X21662000Y-8208400D01*
X21772000Y-8153400D02*
G75*
G03X21772000Y-8153400I-55000J0D01*
G01*
X21662000Y-8352400D02*
X21772000Y-8462400D01*
X21772000Y-8352400D02*
X21662000Y-8462400D01*
X21772000Y-8407400D02*
G75*
G03X21772000Y-8407400I-55000J0D01*
G01*
X21662000Y-8606400D02*
X21772000Y-8716400D01*
X21772000Y-8606400D02*
X21662000Y-8716400D01*
X21772000Y-8661400D02*
G75*
G03X21772000Y-8661400I-55000J0D01*
G01*
X21662000Y-8860400D02*
X21772000Y-8970400D01*
X21772000Y-8860400D02*
X21662000Y-8970400D01*
X21772000Y-8915400D02*
G75*
G03X21772000Y-8915400I-55000J0D01*
G01*
X21662000Y-9114400D02*
X21772000Y-9224400D01*
X21772000Y-9114400D02*
X21662000Y-9224400D01*
X21772000Y-9169400D02*
G75*
G03X21772000Y-9169400I-55000J0D01*
G01*
X21662000Y-9622400D02*
X21772000Y-9732400D01*
X21772000Y-9622400D02*
X21662000Y-9732400D01*
X21772000Y-9677400D02*
G75*
G03X21772000Y-9677400I-55000J0D01*
G01*
X17962200Y-9533500D02*
X18072200Y-9643500D01*
X18072200Y-9533500D02*
X17962200Y-9643500D01*
X18072200Y-9588500D02*
G75*
G03X18072200Y-9588500I-55000J0D01*
G01*
X17962200Y-9983500D02*
X18072200Y-10093500D01*
X18072200Y-9983500D02*
X17962200Y-10093500D01*
X18072200Y-10038500D02*
G75*
G03X18072200Y-10038500I-55000J0D01*
G01*
X21662000Y-9368400D02*
X21772000Y-9478400D01*
X21772000Y-9368400D02*
X21662000Y-9478400D01*
X21772000Y-9423400D02*
G75*
G03X21772000Y-9423400I-55000J0D01*
G01*
X17312200Y-9533500D02*
X17422200Y-9643500D01*
X17422200Y-9533500D02*
X17312200Y-9643500D01*
X17422200Y-9588500D02*
G75*
G03X17422200Y-9588500I-55000J0D01*
G01*
X21662000Y-9876400D02*
X21772000Y-9986400D01*
X21772000Y-9876400D02*
X21662000Y-9986400D01*
X21772000Y-9931400D02*
G75*
G03X21772000Y-9931400I-55000J0D01*
G01*
X21662000Y-10130400D02*
X21772000Y-10240400D01*
X21772000Y-10130400D02*
X21662000Y-10240400D01*
X21772000Y-10185400D02*
G75*
G03X21772000Y-10185400I-55000J0D01*
G01*
X21662000Y-10384400D02*
X21772000Y-10494400D01*
X21772000Y-10384400D02*
X21662000Y-10494400D01*
X21772000Y-10439400D02*
G75*
G03X21772000Y-10439400I-55000J0D01*
G01*
X21662000Y-10638400D02*
X21772000Y-10748400D01*
X21772000Y-10638400D02*
X21662000Y-10748400D01*
X21772000Y-10693400D02*
G75*
G03X21772000Y-10693400I-55000J0D01*
G01*
X17312200Y-9983500D02*
X17422200Y-10093500D01*
X17422200Y-9983500D02*
X17312200Y-10093500D01*
X17422200Y-10038500D02*
G75*
G03X17422200Y-10038500I-55000J0D01*
G01*
X21662000Y-10892400D02*
X21772000Y-11002400D01*
X21772000Y-10892400D02*
X21662000Y-11002400D01*
X21772000Y-10947400D02*
G75*
G03X21772000Y-10947400I-55000J0D01*
G01*
X21662000Y-11146400D02*
X21772000Y-11256400D01*
X21772000Y-11146400D02*
X21662000Y-11256400D01*
X21772000Y-11201400D02*
G75*
G03X21772000Y-11201400I-55000J0D01*
G01*
X21662000Y-11400400D02*
X21772000Y-11510400D01*
X21772000Y-11400400D02*
X21662000Y-11510400D01*
X21772000Y-11455400D02*
G75*
G03X21772000Y-11455400I-55000J0D01*
G01*
X21662000Y-11654400D02*
X21772000Y-11764400D01*
X21772000Y-11654400D02*
X21662000Y-11764400D01*
X21772000Y-11709400D02*
G75*
G03X21772000Y-11709400I-55000J0D01*
G01*
X21662000Y-11908400D02*
X21772000Y-12018400D01*
X21772000Y-11908400D02*
X21662000Y-12018400D01*
X21772000Y-11963400D02*
G75*
G03X21772000Y-11963400I-55000J0D01*
G01*
X21662000Y-12162400D02*
X21772000Y-12272400D01*
X21772000Y-12162400D02*
X21662000Y-12272400D01*
X21772000Y-12217400D02*
G75*
G03X21772000Y-12217400I-55000J0D01*
G01*
X17318600Y-8263500D02*
X17428600Y-8373500D01*
X17428600Y-8263500D02*
X17318600Y-8373500D01*
X17428600Y-8318500D02*
G75*
G03X17428600Y-8318500I-55000J0D01*
G01*
X17318600Y-8713500D02*
X17428600Y-8823500D01*
X17428600Y-8713500D02*
X17318600Y-8823500D01*
X17428600Y-8768500D02*
G75*
G03X17428600Y-8768500I-55000J0D01*
G01*
X15845400Y-7443500D02*
X15955400Y-7553500D01*
X15955400Y-7443500D02*
X15845400Y-7553500D01*
X15955400Y-7498500D02*
G75*
G03X15955400Y-7498500I-55000J0D01*
G01*
X16495400Y-6993500D02*
X16605400Y-7103500D01*
X16605400Y-6993500D02*
X16495400Y-7103500D01*
X16605400Y-7048500D02*
G75*
G03X16605400Y-7048500I-55000J0D01*
G01*
X16495400Y-7443500D02*
X16605400Y-7553500D01*
X16605400Y-7443500D02*
X16495400Y-7553500D01*
X16605400Y-7498500D02*
G75*
G03X16605400Y-7498500I-55000J0D01*
G01*
X17968600Y-8263500D02*
X18078600Y-8373500D01*
X18078600Y-8263500D02*
X17968600Y-8373500D01*
X18078600Y-8318500D02*
G75*
G03X18078600Y-8318500I-55000J0D01*
G01*
X17968600Y-8713500D02*
X18078600Y-8823500D01*
X18078600Y-8713500D02*
X17968600Y-8823500D01*
X18078600Y-8768500D02*
G75*
G03X18078600Y-8768500I-55000J0D01*
G01*
X8695300Y-11895700D02*
X8805300Y-12005700D01*
X8805300Y-11895700D02*
X8695300Y-12005700D01*
X8805300Y-11950700D02*
G75*
G03X8805300Y-11950700I-55000J0D01*
G01*
X8695300Y-12345700D02*
X8805300Y-12455700D01*
X8805300Y-12345700D02*
X8695300Y-12455700D01*
X8805300Y-12400700D02*
G75*
G03X8805300Y-12400700I-55000J0D01*
G01*
X9345300Y-11895700D02*
X9455300Y-12005700D01*
X9455300Y-11895700D02*
X9345300Y-12005700D01*
X9455300Y-11950700D02*
G75*
G03X9455300Y-11950700I-55000J0D01*
G01*
X9345300Y-12345700D02*
X9455300Y-12455700D01*
X9455300Y-12345700D02*
X9345300Y-12455700D01*
X9455300Y-12400700D02*
G75*
G03X9455300Y-12400700I-55000J0D01*
G01*
X10513000Y-14567000D02*
X10713000Y-14767000D01*
X10713000Y-14567000D02*
X10513000Y-14767000D01*
X10613000Y-14567000D02*
X10613000Y-14767000D01*
X10513000Y-14667000D02*
X10713000Y-14667000D01*
X11393000Y-14567000D02*
X11593000Y-14767000D01*
X11593000Y-14567000D02*
X11393000Y-14767000D01*
X11493000Y-14567000D02*
X11493000Y-14767000D01*
X11393000Y-14667000D02*
X11593000Y-14667000D01*
X10513000Y-7201000D02*
X10713000Y-7401000D01*
X10713000Y-7201000D02*
X10513000Y-7401000D01*
X10613000Y-7201000D02*
X10613000Y-7401000D01*
X10513000Y-7301000D02*
X10713000Y-7301000D01*
X11393000Y-7201000D02*
X11593000Y-7401000D01*
X11593000Y-7201000D02*
X11393000Y-7401000D01*
X11493000Y-7201000D02*
X11493000Y-7401000D01*
X11393000Y-7301000D02*
X11593000Y-7301000D01*
X17142400Y-13112800D02*
X17342400Y-13312800D01*
X17342400Y-13112800D02*
X17142400Y-13312800D01*
X17242400Y-13112800D02*
X17242400Y-13312800D01*
X17142400Y-13212800D02*
X17342400Y-13212800D01*
X18022400Y-13112800D02*
X18222400Y-13312800D01*
X18222400Y-13112800D02*
X18022400Y-13312800D01*
X18122400Y-13112800D02*
X18122400Y-13312800D01*
X18022400Y-13212800D02*
X18222400Y-13212800D01*
X13008600Y-14567000D02*
X13208600Y-14767000D01*
X13208600Y-14567000D02*
X13008600Y-14767000D01*
X13108600Y-14567000D02*
X13108600Y-14767000D01*
X13008600Y-14667000D02*
X13208600Y-14667000D01*
X13888600Y-14567000D02*
X14088600Y-14767000D01*
X14088600Y-14567000D02*
X13888600Y-14767000D01*
X13988600Y-14567000D02*
X13988600Y-14767000D01*
X13888600Y-14667000D02*
X14088600Y-14667000D01*
X12983200Y-12103200D02*
X13183200Y-12303200D01*
X13183200Y-12103200D02*
X12983200Y-12303200D01*
X13083200Y-12103200D02*
X13083200Y-12303200D01*
X12983200Y-12203200D02*
X13183200Y-12203200D01*
X13863200Y-12103200D02*
X14063200Y-12303200D01*
X14063200Y-12103200D02*
X13863200Y-12303200D01*
X13963200Y-12103200D02*
X13963200Y-12303200D01*
X13863200Y-12203200D02*
X14063200Y-12203200D01*
X13875800Y-7201000D02*
X14075800Y-7401000D01*
X14075800Y-7201000D02*
X13875800Y-7401000D01*
X13975800Y-7201000D02*
X13975800Y-7401000D01*
X13875800Y-7301000D02*
X14075800Y-7301000D01*
X10509000Y-12103200D02*
X10709000Y-12303200D01*
X10709000Y-12103200D02*
X10509000Y-12303200D01*
X10609000Y-12103200D02*
X10609000Y-12303200D01*
X10509000Y-12203200D02*
X10709000Y-12203200D01*
X11389000Y-12103200D02*
X11589000Y-12303200D01*
X11589000Y-12103200D02*
X11389000Y-12303200D01*
X11489000Y-12103200D02*
X11489000Y-12303200D01*
X11389000Y-12203200D02*
X11589000Y-12203200D01*
X12945000Y-9652100D02*
X13145000Y-9852100D01*
X13145000Y-9652100D02*
X12945000Y-9852100D01*
X13045000Y-9652100D02*
X13045000Y-9852100D01*
X12945000Y-9752100D02*
X13145000Y-9752100D01*
X13825000Y-9652100D02*
X14025000Y-9852100D01*
X14025000Y-9652100D02*
X13825000Y-9852100D01*
X13925000Y-9652100D02*
X13925000Y-9852100D01*
X13825000Y-9752100D02*
X14025000Y-9752100D01*
X12995800Y-7201000D02*
X13195800Y-7401000D01*
X13195800Y-7201000D02*
X12995800Y-7401000D01*
X13095800Y-7201000D02*
X13095800Y-7401000D01*
X12995800Y-7301000D02*
X13195800Y-7301000D01*
X10509000Y-9652100D02*
X10709000Y-9852100D01*
X10709000Y-9652100D02*
X10509000Y-9852100D01*
X10609000Y-9652100D02*
X10609000Y-9852100D01*
X10509000Y-9752100D02*
X10709000Y-9752100D01*
X11389000Y-9652100D02*
X11589000Y-9852100D01*
X11589000Y-9652100D02*
X11389000Y-9852100D01*
X11489000Y-9652100D02*
X11489000Y-9852100D01*
X11389000Y-9752100D02*
X11589000Y-9752100D01*
X22213200Y-15279000D02*
X22643200Y-15709000D01*
X22643200Y-15279000D02*
X22213200Y-15709000D01*
X22580229Y-15646029D02*
X22580229Y-15341971D01*
X22276171Y-15341971D01*
X22276171Y-15646029D01*
X22580229Y-15646029D01*
X14821800Y-10885000D02*
X15251800Y-11315000D01*
X15251800Y-10885000D02*
X14821800Y-11315000D01*
X15188829Y-11252029D02*
X15188829Y-10947971D01*
X14884771Y-10947971D01*
X14884771Y-11252029D01*
X15188829Y-11252029D01*
X22213200Y-6541400D02*
X22643200Y-6971400D01*
X22643200Y-6541400D02*
X22213200Y-6971400D01*
X22580229Y-6908429D02*
X22580229Y-6604371D01*
X22276171Y-6604371D01*
X22276171Y-6908429D01*
X22580229Y-6908429D01*
X7989200Y-10884800D02*
X8419200Y-11314800D01*
X8419200Y-10884800D02*
X7989200Y-11314800D01*
X8356229Y-11251829D02*
X8356229Y-10947771D01*
X8052171Y-10947771D01*
X8052171Y-11251829D01*
X8356229Y-11251829D01*
X14821800Y-6541400D02*
X15251800Y-6971400D01*
X15251800Y-6541400D02*
X14821800Y-6971400D01*
X15188829Y-6908429D02*
X15188829Y-6604371D01*
X14884771Y-6604371D01*
X14884771Y-6908429D01*
X15188829Y-6908429D01*
X14821800Y-15279000D02*
X15251800Y-15709000D01*
X15251800Y-15279000D02*
X14821800Y-15709000D01*
X15188829Y-15646029D02*
X15188829Y-15341971D01*
X14884771Y-15341971D01*
X14884771Y-15646029D01*
X15188829Y-15646029D01*
X7989200Y-15279000D02*
X8419200Y-15709000D01*
X8419200Y-15279000D02*
X7989200Y-15709000D01*
X8356229Y-15646029D02*
X8356229Y-15341971D01*
X8052171Y-15341971D01*
X8052171Y-15646029D01*
X8356229Y-15646029D01*
X7963800Y-6541400D02*
X8393800Y-6971400D01*
X8393800Y-6541400D02*
X7963800Y-6971400D01*
X8330829Y-6908429D02*
X8330829Y-6604371D01*
X8026771Y-6604371D01*
X8026771Y-6908429D01*
X8330829Y-6908429D01*
X22213200Y-10885000D02*
X22643200Y-11315000D01*
X22643200Y-10885000D02*
X22213200Y-11315000D01*
X22580229Y-11252029D02*
X22580229Y-10947971D01*
X22276171Y-10947971D01*
X22276171Y-11252029D01*
X22580229Y-11252029D01*
D12*
X7914128Y-16548914D02*
X7914128Y-16248914D01*
X7985557Y-16248914D01*
X8028414Y-16263200D01*
X8056986Y-16291771D01*
X8071271Y-16320343D01*
X8085557Y-16377486D01*
X8085557Y-16420343D01*
X8071271Y-16477486D01*
X8056986Y-16506057D01*
X8028414Y-16534629D01*
X7985557Y-16548914D01*
X7914128Y-16548914D01*
X8214128Y-16548914D02*
X8214128Y-16348914D01*
X8214128Y-16406057D02*
X8228414Y-16377486D01*
X8242700Y-16363200D01*
X8271271Y-16348914D01*
X8299843Y-16348914D01*
X8399843Y-16548914D02*
X8399843Y-16348914D01*
X8399843Y-16248914D02*
X8385557Y-16263200D01*
X8399843Y-16277486D01*
X8414128Y-16263200D01*
X8399843Y-16248914D01*
X8399843Y-16277486D01*
X8585557Y-16548914D02*
X8556986Y-16534629D01*
X8542700Y-16506057D01*
X8542700Y-16248914D01*
X8742700Y-16548914D02*
X8714128Y-16534629D01*
X8699843Y-16506057D01*
X8699843Y-16248914D01*
X9085557Y-16548914D02*
X9085557Y-16248914D01*
X9185557Y-16463200D01*
X9285557Y-16248914D01*
X9285557Y-16548914D01*
X9556986Y-16548914D02*
X9556986Y-16391771D01*
X9542700Y-16363200D01*
X9514128Y-16348914D01*
X9456986Y-16348914D01*
X9428414Y-16363200D01*
X9556986Y-16534629D02*
X9528414Y-16548914D01*
X9456986Y-16548914D01*
X9428414Y-16534629D01*
X9414128Y-16506057D01*
X9414128Y-16477486D01*
X9428414Y-16448914D01*
X9456986Y-16434629D01*
X9528414Y-16434629D01*
X9556986Y-16420343D01*
X9699843Y-16348914D02*
X9699843Y-16648914D01*
X9699843Y-16363200D02*
X9728414Y-16348914D01*
X9785557Y-16348914D01*
X9814128Y-16363200D01*
X9828414Y-16377486D01*
X9842700Y-16406057D01*
X9842700Y-16491771D01*
X9828414Y-16520343D01*
X9814128Y-16534629D01*
X9785557Y-16548914D01*
X9728414Y-16548914D01*
X9699843Y-16534629D01*
X9971271Y-16520343D02*
X9985557Y-16534629D01*
X9971271Y-16548914D01*
X9956986Y-16534629D01*
X9971271Y-16520343D01*
X9971271Y-16548914D01*
X9971271Y-16363200D02*
X9985557Y-16377486D01*
X9971271Y-16391771D01*
X9956986Y-16377486D01*
X9971271Y-16363200D01*
X9971271Y-16391771D01*
X7587700Y-17023200D02*
X7627700Y-17063200D01*
X7627700Y-17023200D02*
X7587700Y-17063200D01*
X7971271Y-16878914D02*
X7999843Y-16878914D01*
X8028414Y-16893200D01*
X8042700Y-16907486D01*
X8056986Y-16936057D01*
X8071271Y-16993200D01*
X8071271Y-17064629D01*
X8056986Y-17121772D01*
X8042700Y-17150343D01*
X8028414Y-17164629D01*
X7999843Y-17178914D01*
X7971271Y-17178914D01*
X7942700Y-17164629D01*
X7928414Y-17150343D01*
X7914128Y-17121772D01*
X7899843Y-17064629D01*
X7899843Y-16993200D01*
X7914128Y-16936057D01*
X7928414Y-16907486D01*
X7942700Y-16893200D01*
X7971271Y-16878914D01*
X8199843Y-17150343D02*
X8214128Y-17164629D01*
X8199843Y-17178914D01*
X8185557Y-17164629D01*
X8199843Y-17150343D01*
X8199843Y-17178914D01*
X8471271Y-16978914D02*
X8471271Y-17178914D01*
X8399843Y-16864629D02*
X8328414Y-17078914D01*
X8514128Y-17078914D01*
X8685557Y-16878914D02*
X8714128Y-16878914D01*
X8742700Y-16893200D01*
X8756986Y-16907486D01*
X8771271Y-16936057D01*
X8785557Y-16993200D01*
X8785557Y-17064629D01*
X8771271Y-17121772D01*
X8756986Y-17150343D01*
X8742700Y-17164629D01*
X8714128Y-17178914D01*
X8685557Y-17178914D01*
X8656986Y-17164629D01*
X8642700Y-17150343D01*
X8628414Y-17121772D01*
X8614128Y-17064629D01*
X8614128Y-16993200D01*
X8628414Y-16936057D01*
X8642700Y-16907486D01*
X8656986Y-16893200D01*
X8685557Y-16878914D01*
X8914128Y-17178914D02*
X8914128Y-16978914D01*
X8914128Y-17007486D02*
X8928414Y-16993200D01*
X8956986Y-16978914D01*
X8999843Y-16978914D01*
X9028414Y-16993200D01*
X9042700Y-17021772D01*
X9042700Y-17178914D01*
X9042700Y-17021772D02*
X9056986Y-16993200D01*
X9085557Y-16978914D01*
X9128414Y-16978914D01*
X9156986Y-16993200D01*
X9171271Y-17021772D01*
X9171271Y-17178914D01*
X9314128Y-17178914D02*
X9314128Y-16978914D01*
X9314128Y-17007486D02*
X9328414Y-16993200D01*
X9356986Y-16978914D01*
X9399843Y-16978914D01*
X9428414Y-16993200D01*
X9442700Y-17021772D01*
X9442700Y-17178914D01*
X9442700Y-17021772D02*
X9456986Y-16993200D01*
X9485557Y-16978914D01*
X9528414Y-16978914D01*
X9556986Y-16993200D01*
X9571271Y-17021772D01*
X9571271Y-17178914D01*
X10156986Y-16864629D02*
X9899843Y-17250343D01*
X10542700Y-16878914D02*
X10571271Y-16878914D01*
X10599843Y-16893200D01*
X10614128Y-16907486D01*
X10628414Y-16936057D01*
X10642700Y-16993200D01*
X10642700Y-17064629D01*
X10628414Y-17121772D01*
X10614128Y-17150343D01*
X10599843Y-17164629D01*
X10571271Y-17178914D01*
X10542700Y-17178914D01*
X10514128Y-17164629D01*
X10499843Y-17150343D01*
X10485557Y-17121772D01*
X10471271Y-17064629D01*
X10471271Y-16993200D01*
X10485557Y-16936057D01*
X10499843Y-16907486D01*
X10514128Y-16893200D01*
X10542700Y-16878914D01*
X10771271Y-17150343D02*
X10785557Y-17164629D01*
X10771271Y-17178914D01*
X10756986Y-17164629D01*
X10771271Y-17150343D01*
X10771271Y-17178914D01*
X10971271Y-16878914D02*
X10999843Y-16878914D01*
X11028414Y-16893200D01*
X11042700Y-16907486D01*
X11056986Y-16936057D01*
X11071271Y-16993200D01*
X11071271Y-17064629D01*
X11056986Y-17121772D01*
X11042700Y-17150343D01*
X11028414Y-17164629D01*
X10999843Y-17178914D01*
X10971271Y-17178914D01*
X10942700Y-17164629D01*
X10928414Y-17150343D01*
X10914128Y-17121772D01*
X10899843Y-17064629D01*
X10899843Y-16993200D01*
X10914128Y-16936057D01*
X10928414Y-16907486D01*
X10942700Y-16893200D01*
X10971271Y-16878914D01*
X11356986Y-17178914D02*
X11185557Y-17178914D01*
X11271271Y-17178914D02*
X11271271Y-16878914D01*
X11242700Y-16921772D01*
X11214128Y-16950343D01*
X11185557Y-16964629D01*
X11614128Y-16878914D02*
X11556986Y-16878914D01*
X11528414Y-16893200D01*
X11514128Y-16907486D01*
X11485557Y-16950343D01*
X11471271Y-17007486D01*
X11471271Y-17121772D01*
X11485557Y-17150343D01*
X11499843Y-17164629D01*
X11528414Y-17178914D01*
X11585557Y-17178914D01*
X11614128Y-17164629D01*
X11628414Y-17150343D01*
X11642700Y-17121772D01*
X11642700Y-17050343D01*
X11628414Y-17021772D01*
X11614128Y-17007486D01*
X11585557Y-16993200D01*
X11528414Y-16993200D01*
X11499843Y-17007486D01*
X11485557Y-17021772D01*
X11471271Y-17050343D01*
X11756986Y-16878914D02*
X11756986Y-16936057D01*
X11871271Y-16878914D02*
X11871271Y-16936057D01*
X12314128Y-17293200D02*
X12299843Y-17278914D01*
X12271271Y-17236057D01*
X12256986Y-17207486D01*
X12242700Y-17164629D01*
X12228414Y-17093200D01*
X12228414Y-17036057D01*
X12242700Y-16964629D01*
X12256986Y-16921772D01*
X12271271Y-16893200D01*
X12299843Y-16850343D01*
X12314128Y-16836057D01*
X12585557Y-17178914D02*
X12414128Y-17178914D01*
X12499843Y-17178914D02*
X12499843Y-16878914D01*
X12471271Y-16921772D01*
X12442700Y-16950343D01*
X12414128Y-16964629D01*
X12942700Y-17178914D02*
X12942700Y-16878914D01*
X13071271Y-17178914D02*
X13071271Y-17021772D01*
X13056986Y-16993200D01*
X13028414Y-16978914D01*
X12985557Y-16978914D01*
X12956986Y-16993200D01*
X12942700Y-17007486D01*
X13256986Y-17178914D02*
X13228414Y-17164629D01*
X13214128Y-17150343D01*
X13199843Y-17121772D01*
X13199843Y-17036057D01*
X13214128Y-17007486D01*
X13228414Y-16993200D01*
X13256986Y-16978914D01*
X13299843Y-16978914D01*
X13328414Y-16993200D01*
X13342700Y-17007486D01*
X13356986Y-17036057D01*
X13356986Y-17121772D01*
X13342700Y-17150343D01*
X13328414Y-17164629D01*
X13299843Y-17178914D01*
X13256986Y-17178914D01*
X13528414Y-17178914D02*
X13499843Y-17164629D01*
X13485557Y-17136057D01*
X13485557Y-16878914D01*
X13756986Y-17164629D02*
X13728414Y-17178914D01*
X13671271Y-17178914D01*
X13642700Y-17164629D01*
X13628414Y-17136057D01*
X13628414Y-17021772D01*
X13642700Y-16993200D01*
X13671271Y-16978914D01*
X13728414Y-16978914D01*
X13756986Y-16993200D01*
X13771271Y-17021772D01*
X13771271Y-17050343D01*
X13628414Y-17078914D01*
X13871271Y-17293200D02*
X13885557Y-17278914D01*
X13914128Y-17236057D01*
X13928414Y-17207486D01*
X13942700Y-17164629D01*
X13956986Y-17093200D01*
X13956986Y-17036057D01*
X13942700Y-16964629D01*
X13928414Y-16921772D01*
X13914128Y-16893200D01*
X13885557Y-16850343D01*
X13871271Y-16836057D01*
X7627700Y-17439200D02*
G75*
G03X7627700Y-17439200I-35000J0D01*
G01*
X7971271Y-17274914D02*
X7999843Y-17274914D01*
X8028414Y-17289200D01*
X8042700Y-17303486D01*
X8056986Y-17332057D01*
X8071271Y-17389200D01*
X8071271Y-17460629D01*
X8056986Y-17517772D01*
X8042700Y-17546343D01*
X8028414Y-17560629D01*
X7999843Y-17574914D01*
X7971271Y-17574914D01*
X7942700Y-17560629D01*
X7928414Y-17546343D01*
X7914128Y-17517772D01*
X7899843Y-17460629D01*
X7899843Y-17389200D01*
X7914128Y-17332057D01*
X7928414Y-17303486D01*
X7942700Y-17289200D01*
X7971271Y-17274914D01*
X8199843Y-17546343D02*
X8214128Y-17560629D01*
X8199843Y-17574914D01*
X8185557Y-17560629D01*
X8199843Y-17546343D01*
X8199843Y-17574914D01*
X8314128Y-17274914D02*
X8514128Y-17274914D01*
X8385557Y-17574914D01*
X8685557Y-17274914D02*
X8714128Y-17274914D01*
X8742700Y-17289200D01*
X8756986Y-17303486D01*
X8771271Y-17332057D01*
X8785557Y-17389200D01*
X8785557Y-17460629D01*
X8771271Y-17517772D01*
X8756986Y-17546343D01*
X8742700Y-17560629D01*
X8714128Y-17574914D01*
X8685557Y-17574914D01*
X8656986Y-17560629D01*
X8642700Y-17546343D01*
X8628414Y-17517772D01*
X8614128Y-17460629D01*
X8614128Y-17389200D01*
X8628414Y-17332057D01*
X8642700Y-17303486D01*
X8656986Y-17289200D01*
X8685557Y-17274914D01*
X8914128Y-17574914D02*
X8914128Y-17374914D01*
X8914128Y-17403486D02*
X8928414Y-17389200D01*
X8956986Y-17374914D01*
X8999843Y-17374914D01*
X9028414Y-17389200D01*
X9042700Y-17417772D01*
X9042700Y-17574914D01*
X9042700Y-17417772D02*
X9056986Y-17389200D01*
X9085557Y-17374914D01*
X9128414Y-17374914D01*
X9156986Y-17389200D01*
X9171271Y-17417772D01*
X9171271Y-17574914D01*
X9314128Y-17574914D02*
X9314128Y-17374914D01*
X9314128Y-17403486D02*
X9328414Y-17389200D01*
X9356986Y-17374914D01*
X9399843Y-17374914D01*
X9428414Y-17389200D01*
X9442700Y-17417772D01*
X9442700Y-17574914D01*
X9442700Y-17417772D02*
X9456986Y-17389200D01*
X9485557Y-17374914D01*
X9528414Y-17374914D01*
X9556986Y-17389200D01*
X9571271Y-17417772D01*
X9571271Y-17574914D01*
X10156986Y-17260629D02*
X9899843Y-17646343D01*
X10542700Y-17274914D02*
X10571271Y-17274914D01*
X10599843Y-17289200D01*
X10614128Y-17303486D01*
X10628414Y-17332057D01*
X10642700Y-17389200D01*
X10642700Y-17460629D01*
X10628414Y-17517772D01*
X10614128Y-17546343D01*
X10599843Y-17560629D01*
X10571271Y-17574914D01*
X10542700Y-17574914D01*
X10514128Y-17560629D01*
X10499843Y-17546343D01*
X10485557Y-17517772D01*
X10471271Y-17460629D01*
X10471271Y-17389200D01*
X10485557Y-17332057D01*
X10499843Y-17303486D01*
X10514128Y-17289200D01*
X10542700Y-17274914D01*
X10771271Y-17546343D02*
X10785557Y-17560629D01*
X10771271Y-17574914D01*
X10756986Y-17560629D01*
X10771271Y-17546343D01*
X10771271Y-17574914D01*
X10971271Y-17274914D02*
X10999843Y-17274914D01*
X11028414Y-17289200D01*
X11042700Y-17303486D01*
X11056986Y-17332057D01*
X11071271Y-17389200D01*
X11071271Y-17460629D01*
X11056986Y-17517772D01*
X11042700Y-17546343D01*
X11028414Y-17560629D01*
X10999843Y-17574914D01*
X10971271Y-17574914D01*
X10942700Y-17560629D01*
X10928414Y-17546343D01*
X10914128Y-17517772D01*
X10899843Y-17460629D01*
X10899843Y-17389200D01*
X10914128Y-17332057D01*
X10928414Y-17303486D01*
X10942700Y-17289200D01*
X10971271Y-17274914D01*
X11185557Y-17303486D02*
X11199843Y-17289200D01*
X11228414Y-17274914D01*
X11299843Y-17274914D01*
X11328414Y-17289200D01*
X11342700Y-17303486D01*
X11356986Y-17332057D01*
X11356986Y-17360629D01*
X11342700Y-17403486D01*
X11171271Y-17574914D01*
X11356986Y-17574914D01*
X11528414Y-17403486D02*
X11499843Y-17389200D01*
X11485557Y-17374914D01*
X11471271Y-17346343D01*
X11471271Y-17332057D01*
X11485557Y-17303486D01*
X11499843Y-17289200D01*
X11528414Y-17274914D01*
X11585557Y-17274914D01*
X11614128Y-17289200D01*
X11628414Y-17303486D01*
X11642700Y-17332057D01*
X11642700Y-17346343D01*
X11628414Y-17374914D01*
X11614128Y-17389200D01*
X11585557Y-17403486D01*
X11528414Y-17403486D01*
X11499843Y-17417772D01*
X11485557Y-17432057D01*
X11471271Y-17460629D01*
X11471271Y-17517772D01*
X11485557Y-17546343D01*
X11499843Y-17560629D01*
X11528414Y-17574914D01*
X11585557Y-17574914D01*
X11614128Y-17560629D01*
X11628414Y-17546343D01*
X11642700Y-17517772D01*
X11642700Y-17460629D01*
X11628414Y-17432057D01*
X11614128Y-17417772D01*
X11585557Y-17403486D01*
X11756986Y-17274914D02*
X11756986Y-17332057D01*
X11871271Y-17274914D02*
X11871271Y-17332057D01*
X12314128Y-17689200D02*
X12299843Y-17674914D01*
X12271271Y-17632057D01*
X12256986Y-17603486D01*
X12242700Y-17560629D01*
X12228414Y-17489200D01*
X12228414Y-17432057D01*
X12242700Y-17360629D01*
X12256986Y-17317772D01*
X12271271Y-17289200D01*
X12299843Y-17246343D01*
X12314128Y-17232057D01*
X12399843Y-17274914D02*
X12585557Y-17274914D01*
X12485557Y-17389200D01*
X12528414Y-17389200D01*
X12556986Y-17403486D01*
X12571271Y-17417772D01*
X12585557Y-17446343D01*
X12585557Y-17517772D01*
X12571271Y-17546343D01*
X12556986Y-17560629D01*
X12528414Y-17574914D01*
X12442700Y-17574914D01*
X12414128Y-17560629D01*
X12399843Y-17546343D01*
X12771271Y-17274914D02*
X12799843Y-17274914D01*
X12828414Y-17289200D01*
X12842700Y-17303486D01*
X12856986Y-17332057D01*
X12871271Y-17389200D01*
X12871271Y-17460629D01*
X12856986Y-17517772D01*
X12842700Y-17546343D01*
X12828414Y-17560629D01*
X12799843Y-17574914D01*
X12771271Y-17574914D01*
X12742700Y-17560629D01*
X12728414Y-17546343D01*
X12714128Y-17517772D01*
X12699843Y-17460629D01*
X12699843Y-17389200D01*
X12714128Y-17332057D01*
X12728414Y-17303486D01*
X12742700Y-17289200D01*
X12771271Y-17274914D01*
X13228414Y-17574914D02*
X13228414Y-17274914D01*
X13356986Y-17574914D02*
X13356986Y-17417772D01*
X13342700Y-17389200D01*
X13314128Y-17374914D01*
X13271271Y-17374914D01*
X13242700Y-17389200D01*
X13228414Y-17403486D01*
X13542700Y-17574914D02*
X13514128Y-17560629D01*
X13499843Y-17546343D01*
X13485557Y-17517772D01*
X13485557Y-17432057D01*
X13499843Y-17403486D01*
X13514128Y-17389200D01*
X13542700Y-17374914D01*
X13585557Y-17374914D01*
X13614128Y-17389200D01*
X13628414Y-17403486D01*
X13642700Y-17432057D01*
X13642700Y-17517772D01*
X13628414Y-17546343D01*
X13614128Y-17560629D01*
X13585557Y-17574914D01*
X13542700Y-17574914D01*
X13814128Y-17574914D02*
X13785557Y-17560629D01*
X13771271Y-17532057D01*
X13771271Y-17274914D01*
X14042700Y-17560629D02*
X14014128Y-17574914D01*
X13956986Y-17574914D01*
X13928414Y-17560629D01*
X13914128Y-17532057D01*
X13914128Y-17417772D01*
X13928414Y-17389200D01*
X13956986Y-17374914D01*
X14014128Y-17374914D01*
X14042700Y-17389200D01*
X14056986Y-17417772D01*
X14056986Y-17446343D01*
X13914128Y-17474914D01*
X14171271Y-17560629D02*
X14199843Y-17574914D01*
X14256986Y-17574914D01*
X14285557Y-17560629D01*
X14299843Y-17532057D01*
X14299843Y-17517772D01*
X14285557Y-17489200D01*
X14256986Y-17474914D01*
X14214128Y-17474914D01*
X14185557Y-17460629D01*
X14171271Y-17432057D01*
X14171271Y-17417772D01*
X14185557Y-17389200D01*
X14214128Y-17374914D01*
X14256986Y-17374914D01*
X14285557Y-17389200D01*
X14399843Y-17689200D02*
X14414128Y-17674914D01*
X14442700Y-17632057D01*
X14456986Y-17603486D01*
X14471271Y-17560629D01*
X14485557Y-17489200D01*
X14485557Y-17432057D01*
X14471271Y-17360629D01*
X14456986Y-17317772D01*
X14442700Y-17289200D01*
X14414128Y-17246343D01*
X14399843Y-17232057D01*
X7587700Y-17795200D02*
X7587700Y-17875200D01*
X7547700Y-17835200D02*
X7627700Y-17835200D01*
X7971271Y-17670914D02*
X7999843Y-17670914D01*
X8028414Y-17685200D01*
X8042700Y-17699486D01*
X8056986Y-17728057D01*
X8071271Y-17785200D01*
X8071271Y-17856629D01*
X8056986Y-17913772D01*
X8042700Y-17942343D01*
X8028414Y-17956629D01*
X7999843Y-17970914D01*
X7971271Y-17970914D01*
X7942700Y-17956629D01*
X7928414Y-17942343D01*
X7914128Y-17913772D01*
X7899843Y-17856629D01*
X7899843Y-17785200D01*
X7914128Y-17728057D01*
X7928414Y-17699486D01*
X7942700Y-17685200D01*
X7971271Y-17670914D01*
X8199843Y-17942343D02*
X8214128Y-17956629D01*
X8199843Y-17970914D01*
X8185557Y-17956629D01*
X8199843Y-17942343D01*
X8199843Y-17970914D01*
X8385557Y-17799486D02*
X8356986Y-17785200D01*
X8342700Y-17770914D01*
X8328414Y-17742343D01*
X8328414Y-17728057D01*
X8342700Y-17699486D01*
X8356986Y-17685200D01*
X8385557Y-17670914D01*
X8442700Y-17670914D01*
X8471271Y-17685200D01*
X8485557Y-17699486D01*
X8499843Y-17728057D01*
X8499843Y-17742343D01*
X8485557Y-17770914D01*
X8471271Y-17785200D01*
X8442700Y-17799486D01*
X8385557Y-17799486D01*
X8356986Y-17813772D01*
X8342700Y-17828057D01*
X8328414Y-17856629D01*
X8328414Y-17913772D01*
X8342700Y-17942343D01*
X8356986Y-17956629D01*
X8385557Y-17970914D01*
X8442700Y-17970914D01*
X8471271Y-17956629D01*
X8485557Y-17942343D01*
X8499843Y-17913772D01*
X8499843Y-17856629D01*
X8485557Y-17828057D01*
X8471271Y-17813772D01*
X8442700Y-17799486D01*
X8685557Y-17670914D02*
X8714128Y-17670914D01*
X8742700Y-17685200D01*
X8756986Y-17699486D01*
X8771271Y-17728057D01*
X8785557Y-17785200D01*
X8785557Y-17856629D01*
X8771271Y-17913772D01*
X8756986Y-17942343D01*
X8742700Y-17956629D01*
X8714128Y-17970914D01*
X8685557Y-17970914D01*
X8656986Y-17956629D01*
X8642700Y-17942343D01*
X8628414Y-17913772D01*
X8614128Y-17856629D01*
X8614128Y-17785200D01*
X8628414Y-17728057D01*
X8642700Y-17699486D01*
X8656986Y-17685200D01*
X8685557Y-17670914D01*
X8914128Y-17970914D02*
X8914128Y-17770914D01*
X8914128Y-17799486D02*
X8928414Y-17785200D01*
X8956986Y-17770914D01*
X8999843Y-17770914D01*
X9028414Y-17785200D01*
X9042700Y-17813772D01*
X9042700Y-17970914D01*
X9042700Y-17813772D02*
X9056986Y-17785200D01*
X9085557Y-17770914D01*
X9128414Y-17770914D01*
X9156986Y-17785200D01*
X9171271Y-17813772D01*
X9171271Y-17970914D01*
X9314128Y-17970914D02*
X9314128Y-17770914D01*
X9314128Y-17799486D02*
X9328414Y-17785200D01*
X9356986Y-17770914D01*
X9399843Y-17770914D01*
X9428414Y-17785200D01*
X9442700Y-17813772D01*
X9442700Y-17970914D01*
X9442700Y-17813772D02*
X9456986Y-17785200D01*
X9485557Y-17770914D01*
X9528414Y-17770914D01*
X9556986Y-17785200D01*
X9571271Y-17813772D01*
X9571271Y-17970914D01*
X10156986Y-17656629D02*
X9899843Y-18042343D01*
X10542700Y-17670914D02*
X10571271Y-17670914D01*
X10599843Y-17685200D01*
X10614128Y-17699486D01*
X10628414Y-17728057D01*
X10642700Y-17785200D01*
X10642700Y-17856629D01*
X10628414Y-17913772D01*
X10614128Y-17942343D01*
X10599843Y-17956629D01*
X10571271Y-17970914D01*
X10542700Y-17970914D01*
X10514128Y-17956629D01*
X10499843Y-17942343D01*
X10485557Y-17913772D01*
X10471271Y-17856629D01*
X10471271Y-17785200D01*
X10485557Y-17728057D01*
X10499843Y-17699486D01*
X10514128Y-17685200D01*
X10542700Y-17670914D01*
X10771271Y-17942343D02*
X10785557Y-17956629D01*
X10771271Y-17970914D01*
X10756986Y-17956629D01*
X10771271Y-17942343D01*
X10771271Y-17970914D01*
X10971271Y-17670914D02*
X10999843Y-17670914D01*
X11028414Y-17685200D01*
X11042700Y-17699486D01*
X11056986Y-17728057D01*
X11071271Y-17785200D01*
X11071271Y-17856629D01*
X11056986Y-17913772D01*
X11042700Y-17942343D01*
X11028414Y-17956629D01*
X10999843Y-17970914D01*
X10971271Y-17970914D01*
X10942700Y-17956629D01*
X10928414Y-17942343D01*
X10914128Y-17913772D01*
X10899843Y-17856629D01*
X10899843Y-17785200D01*
X10914128Y-17728057D01*
X10928414Y-17699486D01*
X10942700Y-17685200D01*
X10971271Y-17670914D01*
X11171271Y-17670914D02*
X11356986Y-17670914D01*
X11256986Y-17785200D01*
X11299843Y-17785200D01*
X11328414Y-17799486D01*
X11342700Y-17813772D01*
X11356986Y-17842343D01*
X11356986Y-17913772D01*
X11342700Y-17942343D01*
X11328414Y-17956629D01*
X11299843Y-17970914D01*
X11214128Y-17970914D01*
X11185557Y-17956629D01*
X11171271Y-17942343D01*
X11642700Y-17970914D02*
X11471271Y-17970914D01*
X11556986Y-17970914D02*
X11556986Y-17670914D01*
X11528414Y-17713772D01*
X11499843Y-17742343D01*
X11471271Y-17756629D01*
X11756986Y-17670914D02*
X11756986Y-17728057D01*
X11871271Y-17670914D02*
X11871271Y-17728057D01*
X12314128Y-18085200D02*
X12299843Y-18070914D01*
X12271271Y-18028057D01*
X12256986Y-17999486D01*
X12242700Y-17956629D01*
X12228414Y-17885200D01*
X12228414Y-17828057D01*
X12242700Y-17756629D01*
X12256986Y-17713772D01*
X12271271Y-17685200D01*
X12299843Y-17642343D01*
X12314128Y-17628057D01*
X12414128Y-17699486D02*
X12428414Y-17685200D01*
X12456986Y-17670914D01*
X12528414Y-17670914D01*
X12556986Y-17685200D01*
X12571271Y-17699486D01*
X12585557Y-17728057D01*
X12585557Y-17756629D01*
X12571271Y-17799486D01*
X12399843Y-17970914D01*
X12585557Y-17970914D01*
X12942700Y-17970914D02*
X12942700Y-17670914D01*
X13071271Y-17970914D02*
X13071271Y-17813772D01*
X13056986Y-17785200D01*
X13028414Y-17770914D01*
X12985557Y-17770914D01*
X12956986Y-17785200D01*
X12942700Y-17799486D01*
X13256986Y-17970914D02*
X13228414Y-17956629D01*
X13214128Y-17942343D01*
X13199843Y-17913772D01*
X13199843Y-17828057D01*
X13214128Y-17799486D01*
X13228414Y-17785200D01*
X13256986Y-17770914D01*
X13299843Y-17770914D01*
X13328414Y-17785200D01*
X13342700Y-17799486D01*
X13356986Y-17828057D01*
X13356986Y-17913772D01*
X13342700Y-17942343D01*
X13328414Y-17956629D01*
X13299843Y-17970914D01*
X13256986Y-17970914D01*
X13528414Y-17970914D02*
X13499843Y-17956629D01*
X13485557Y-17928057D01*
X13485557Y-17670914D01*
X13756986Y-17956629D02*
X13728414Y-17970914D01*
X13671271Y-17970914D01*
X13642700Y-17956629D01*
X13628414Y-17928057D01*
X13628414Y-17813772D01*
X13642700Y-17785200D01*
X13671271Y-17770914D01*
X13728414Y-17770914D01*
X13756986Y-17785200D01*
X13771271Y-17813772D01*
X13771271Y-17842343D01*
X13628414Y-17870914D01*
X13885557Y-17956629D02*
X13914128Y-17970914D01*
X13971271Y-17970914D01*
X13999843Y-17956629D01*
X14014128Y-17928057D01*
X14014128Y-17913772D01*
X13999843Y-17885200D01*
X13971271Y-17870914D01*
X13928414Y-17870914D01*
X13899843Y-17856629D01*
X13885557Y-17828057D01*
X13885557Y-17813772D01*
X13899843Y-17785200D01*
X13928414Y-17770914D01*
X13971271Y-17770914D01*
X13999843Y-17785200D01*
X14114128Y-18085200D02*
X14128414Y-18070914D01*
X14156986Y-18028057D01*
X14171271Y-17999486D01*
X14185557Y-17956629D01*
X14199843Y-17885200D01*
X14199843Y-17828057D01*
X14185557Y-17756629D01*
X14171271Y-17713772D01*
X14156986Y-17685200D01*
X14128414Y-17642343D01*
X14114128Y-17628057D01*
X7614520Y-18263020D02*
X7614520Y-18199380D01*
X7550880Y-18199380D01*
X7550880Y-18263020D01*
X7614520Y-18263020D01*
X7971271Y-18066914D02*
X7999843Y-18066914D01*
X8028414Y-18081200D01*
X8042700Y-18095486D01*
X8056986Y-18124057D01*
X8071271Y-18181200D01*
X8071271Y-18252629D01*
X8056986Y-18309772D01*
X8042700Y-18338343D01*
X8028414Y-18352629D01*
X7999843Y-18366914D01*
X7971271Y-18366914D01*
X7942700Y-18352629D01*
X7928414Y-18338343D01*
X7914128Y-18309772D01*
X7899843Y-18252629D01*
X7899843Y-18181200D01*
X7914128Y-18124057D01*
X7928414Y-18095486D01*
X7942700Y-18081200D01*
X7971271Y-18066914D01*
X8199843Y-18338343D02*
X8214128Y-18352629D01*
X8199843Y-18366914D01*
X8185557Y-18352629D01*
X8199843Y-18338343D01*
X8199843Y-18366914D01*
X8356986Y-18366914D02*
X8414128Y-18366914D01*
X8442700Y-18352629D01*
X8456986Y-18338343D01*
X8485557Y-18295486D01*
X8499843Y-18238343D01*
X8499843Y-18124057D01*
X8485557Y-18095486D01*
X8471271Y-18081200D01*
X8442700Y-18066914D01*
X8385557Y-18066914D01*
X8356986Y-18081200D01*
X8342700Y-18095486D01*
X8328414Y-18124057D01*
X8328414Y-18195486D01*
X8342700Y-18224057D01*
X8356986Y-18238343D01*
X8385557Y-18252629D01*
X8442700Y-18252629D01*
X8471271Y-18238343D01*
X8485557Y-18224057D01*
X8499843Y-18195486D01*
X8685557Y-18066914D02*
X8714128Y-18066914D01*
X8742700Y-18081200D01*
X8756986Y-18095486D01*
X8771271Y-18124057D01*
X8785557Y-18181200D01*
X8785557Y-18252629D01*
X8771271Y-18309772D01*
X8756986Y-18338343D01*
X8742700Y-18352629D01*
X8714128Y-18366914D01*
X8685557Y-18366914D01*
X8656986Y-18352629D01*
X8642700Y-18338343D01*
X8628414Y-18309772D01*
X8614128Y-18252629D01*
X8614128Y-18181200D01*
X8628414Y-18124057D01*
X8642700Y-18095486D01*
X8656986Y-18081200D01*
X8685557Y-18066914D01*
X8914128Y-18366914D02*
X8914128Y-18166914D01*
X8914128Y-18195486D02*
X8928414Y-18181200D01*
X8956986Y-18166914D01*
X8999843Y-18166914D01*
X9028414Y-18181200D01*
X9042700Y-18209772D01*
X9042700Y-18366914D01*
X9042700Y-18209772D02*
X9056986Y-18181200D01*
X9085557Y-18166914D01*
X9128414Y-18166914D01*
X9156986Y-18181200D01*
X9171271Y-18209772D01*
X9171271Y-18366914D01*
X9314128Y-18366914D02*
X9314128Y-18166914D01*
X9314128Y-18195486D02*
X9328414Y-18181200D01*
X9356986Y-18166914D01*
X9399843Y-18166914D01*
X9428414Y-18181200D01*
X9442700Y-18209772D01*
X9442700Y-18366914D01*
X9442700Y-18209772D02*
X9456986Y-18181200D01*
X9485557Y-18166914D01*
X9528414Y-18166914D01*
X9556986Y-18181200D01*
X9571271Y-18209772D01*
X9571271Y-18366914D01*
X10156986Y-18052629D02*
X9899843Y-18438343D01*
X10542700Y-18066914D02*
X10571271Y-18066914D01*
X10599843Y-18081200D01*
X10614128Y-18095486D01*
X10628414Y-18124057D01*
X10642700Y-18181200D01*
X10642700Y-18252629D01*
X10628414Y-18309772D01*
X10614128Y-18338343D01*
X10599843Y-18352629D01*
X10571271Y-18366914D01*
X10542700Y-18366914D01*
X10514128Y-18352629D01*
X10499843Y-18338343D01*
X10485557Y-18309772D01*
X10471271Y-18252629D01*
X10471271Y-18181200D01*
X10485557Y-18124057D01*
X10499843Y-18095486D01*
X10514128Y-18081200D01*
X10542700Y-18066914D01*
X10771271Y-18338343D02*
X10785557Y-18352629D01*
X10771271Y-18366914D01*
X10756986Y-18352629D01*
X10771271Y-18338343D01*
X10771271Y-18366914D01*
X10971271Y-18066914D02*
X10999843Y-18066914D01*
X11028414Y-18081200D01*
X11042700Y-18095486D01*
X11056986Y-18124057D01*
X11071271Y-18181200D01*
X11071271Y-18252629D01*
X11056986Y-18309772D01*
X11042700Y-18338343D01*
X11028414Y-18352629D01*
X10999843Y-18366914D01*
X10971271Y-18366914D01*
X10942700Y-18352629D01*
X10928414Y-18338343D01*
X10914128Y-18309772D01*
X10899843Y-18252629D01*
X10899843Y-18181200D01*
X10914128Y-18124057D01*
X10928414Y-18095486D01*
X10942700Y-18081200D01*
X10971271Y-18066914D01*
X11171271Y-18066914D02*
X11356986Y-18066914D01*
X11256986Y-18181200D01*
X11299843Y-18181200D01*
X11328414Y-18195486D01*
X11342700Y-18209772D01*
X11356986Y-18238343D01*
X11356986Y-18309772D01*
X11342700Y-18338343D01*
X11328414Y-18352629D01*
X11299843Y-18366914D01*
X11214128Y-18366914D01*
X11185557Y-18352629D01*
X11171271Y-18338343D01*
X11628414Y-18066914D02*
X11485557Y-18066914D01*
X11471271Y-18209772D01*
X11485557Y-18195486D01*
X11514128Y-18181200D01*
X11585557Y-18181200D01*
X11614128Y-18195486D01*
X11628414Y-18209772D01*
X11642700Y-18238343D01*
X11642700Y-18309772D01*
X11628414Y-18338343D01*
X11614128Y-18352629D01*
X11585557Y-18366914D01*
X11514128Y-18366914D01*
X11485557Y-18352629D01*
X11471271Y-18338343D01*
X11756986Y-18066914D02*
X11756986Y-18124057D01*
X11871271Y-18066914D02*
X11871271Y-18124057D01*
X12314128Y-18481200D02*
X12299843Y-18466914D01*
X12271271Y-18424057D01*
X12256986Y-18395486D01*
X12242700Y-18352629D01*
X12228414Y-18281200D01*
X12228414Y-18224057D01*
X12242700Y-18152629D01*
X12256986Y-18109772D01*
X12271271Y-18081200D01*
X12299843Y-18038343D01*
X12314128Y-18024057D01*
X12414128Y-18095486D02*
X12428414Y-18081200D01*
X12456986Y-18066914D01*
X12528414Y-18066914D01*
X12556986Y-18081200D01*
X12571271Y-18095486D01*
X12585557Y-18124057D01*
X12585557Y-18152629D01*
X12571271Y-18195486D01*
X12399843Y-18366914D01*
X12585557Y-18366914D01*
X12942700Y-18366914D02*
X12942700Y-18066914D01*
X13071271Y-18366914D02*
X13071271Y-18209772D01*
X13056986Y-18181200D01*
X13028414Y-18166914D01*
X12985557Y-18166914D01*
X12956986Y-18181200D01*
X12942700Y-18195486D01*
X13256986Y-18366914D02*
X13228414Y-18352629D01*
X13214128Y-18338343D01*
X13199843Y-18309772D01*
X13199843Y-18224057D01*
X13214128Y-18195486D01*
X13228414Y-18181200D01*
X13256986Y-18166914D01*
X13299843Y-18166914D01*
X13328414Y-18181200D01*
X13342700Y-18195486D01*
X13356986Y-18224057D01*
X13356986Y-18309772D01*
X13342700Y-18338343D01*
X13328414Y-18352629D01*
X13299843Y-18366914D01*
X13256986Y-18366914D01*
X13528414Y-18366914D02*
X13499843Y-18352629D01*
X13485557Y-18324057D01*
X13485557Y-18066914D01*
X13756986Y-18352629D02*
X13728414Y-18366914D01*
X13671271Y-18366914D01*
X13642700Y-18352629D01*
X13628414Y-18324057D01*
X13628414Y-18209772D01*
X13642700Y-18181200D01*
X13671271Y-18166914D01*
X13728414Y-18166914D01*
X13756986Y-18181200D01*
X13771271Y-18209772D01*
X13771271Y-18238343D01*
X13628414Y-18266914D01*
X13885557Y-18352629D02*
X13914128Y-18366914D01*
X13971271Y-18366914D01*
X13999843Y-18352629D01*
X14014128Y-18324057D01*
X14014128Y-18309772D01*
X13999843Y-18281200D01*
X13971271Y-18266914D01*
X13928414Y-18266914D01*
X13899843Y-18252629D01*
X13885557Y-18224057D01*
X13885557Y-18209772D01*
X13899843Y-18181200D01*
X13928414Y-18166914D01*
X13971271Y-18166914D01*
X13999843Y-18181200D01*
X14114128Y-18481200D02*
X14128414Y-18466914D01*
X14156986Y-18424057D01*
X14171271Y-18395486D01*
X14185557Y-18352629D01*
X14199843Y-18281200D01*
X14199843Y-18224057D01*
X14185557Y-18152629D01*
X14171271Y-18109772D01*
X14156986Y-18081200D01*
X14128414Y-18038343D01*
X14114128Y-18024057D01*
X7577700Y-18677200D02*
X7627700Y-18627200D01*
X7577700Y-18577200D01*
X7527700Y-18627200D01*
X7577700Y-18677200D01*
X8071271Y-18762914D02*
X7899843Y-18762914D01*
X7985557Y-18762914D02*
X7985557Y-18462914D01*
X7956986Y-18505772D01*
X7928414Y-18534343D01*
X7899843Y-18548629D01*
X8199843Y-18734343D02*
X8214128Y-18748629D01*
X8199843Y-18762914D01*
X8185557Y-18748629D01*
X8199843Y-18734343D01*
X8199843Y-18762914D01*
X8399843Y-18462914D02*
X8428414Y-18462914D01*
X8456986Y-18477200D01*
X8471271Y-18491486D01*
X8485557Y-18520057D01*
X8499843Y-18577200D01*
X8499843Y-18648629D01*
X8485557Y-18705772D01*
X8471271Y-18734343D01*
X8456986Y-18748629D01*
X8428414Y-18762914D01*
X8399843Y-18762914D01*
X8371271Y-18748629D01*
X8356986Y-18734343D01*
X8342700Y-18705772D01*
X8328414Y-18648629D01*
X8328414Y-18577200D01*
X8342700Y-18520057D01*
X8356986Y-18491486D01*
X8371271Y-18477200D01*
X8399843Y-18462914D01*
X8685557Y-18462914D02*
X8714128Y-18462914D01*
X8742700Y-18477200D01*
X8756986Y-18491486D01*
X8771271Y-18520057D01*
X8785557Y-18577200D01*
X8785557Y-18648629D01*
X8771271Y-18705772D01*
X8756986Y-18734343D01*
X8742700Y-18748629D01*
X8714128Y-18762914D01*
X8685557Y-18762914D01*
X8656986Y-18748629D01*
X8642700Y-18734343D01*
X8628414Y-18705772D01*
X8614128Y-18648629D01*
X8614128Y-18577200D01*
X8628414Y-18520057D01*
X8642700Y-18491486D01*
X8656986Y-18477200D01*
X8685557Y-18462914D01*
X8914128Y-18762914D02*
X8914128Y-18562914D01*
X8914128Y-18591486D02*
X8928414Y-18577200D01*
X8956986Y-18562914D01*
X8999843Y-18562914D01*
X9028414Y-18577200D01*
X9042700Y-18605772D01*
X9042700Y-18762914D01*
X9042700Y-18605772D02*
X9056986Y-18577200D01*
X9085557Y-18562914D01*
X9128414Y-18562914D01*
X9156986Y-18577200D01*
X9171271Y-18605772D01*
X9171271Y-18762914D01*
X9314128Y-18762914D02*
X9314128Y-18562914D01*
X9314128Y-18591486D02*
X9328414Y-18577200D01*
X9356986Y-18562914D01*
X9399843Y-18562914D01*
X9428414Y-18577200D01*
X9442700Y-18605772D01*
X9442700Y-18762914D01*
X9442700Y-18605772D02*
X9456986Y-18577200D01*
X9485557Y-18562914D01*
X9528414Y-18562914D01*
X9556986Y-18577200D01*
X9571271Y-18605772D01*
X9571271Y-18762914D01*
X10156986Y-18448629D02*
X9899843Y-18834343D01*
X10542700Y-18462914D02*
X10571271Y-18462914D01*
X10599843Y-18477200D01*
X10614128Y-18491486D01*
X10628414Y-18520057D01*
X10642700Y-18577200D01*
X10642700Y-18648629D01*
X10628414Y-18705772D01*
X10614128Y-18734343D01*
X10599843Y-18748629D01*
X10571271Y-18762914D01*
X10542700Y-18762914D01*
X10514128Y-18748629D01*
X10499843Y-18734343D01*
X10485557Y-18705772D01*
X10471271Y-18648629D01*
X10471271Y-18577200D01*
X10485557Y-18520057D01*
X10499843Y-18491486D01*
X10514128Y-18477200D01*
X10542700Y-18462914D01*
X10771271Y-18734343D02*
X10785557Y-18748629D01*
X10771271Y-18762914D01*
X10756986Y-18748629D01*
X10771271Y-18734343D01*
X10771271Y-18762914D01*
X10971271Y-18462914D02*
X10999843Y-18462914D01*
X11028414Y-18477200D01*
X11042700Y-18491486D01*
X11056986Y-18520057D01*
X11071271Y-18577200D01*
X11071271Y-18648629D01*
X11056986Y-18705772D01*
X11042700Y-18734343D01*
X11028414Y-18748629D01*
X10999843Y-18762914D01*
X10971271Y-18762914D01*
X10942700Y-18748629D01*
X10928414Y-18734343D01*
X10914128Y-18705772D01*
X10899843Y-18648629D01*
X10899843Y-18577200D01*
X10914128Y-18520057D01*
X10928414Y-18491486D01*
X10942700Y-18477200D01*
X10971271Y-18462914D01*
X11171271Y-18462914D02*
X11356986Y-18462914D01*
X11256986Y-18577200D01*
X11299843Y-18577200D01*
X11328414Y-18591486D01*
X11342700Y-18605772D01*
X11356986Y-18634343D01*
X11356986Y-18705772D01*
X11342700Y-18734343D01*
X11328414Y-18748629D01*
X11299843Y-18762914D01*
X11214128Y-18762914D01*
X11185557Y-18748629D01*
X11171271Y-18734343D01*
X11499843Y-18762914D02*
X11556986Y-18762914D01*
X11585557Y-18748629D01*
X11599843Y-18734343D01*
X11628414Y-18691486D01*
X11642700Y-18634343D01*
X11642700Y-18520057D01*
X11628414Y-18491486D01*
X11614128Y-18477200D01*
X11585557Y-18462914D01*
X11528414Y-18462914D01*
X11499843Y-18477200D01*
X11485557Y-18491486D01*
X11471271Y-18520057D01*
X11471271Y-18591486D01*
X11485557Y-18620057D01*
X11499843Y-18634343D01*
X11528414Y-18648629D01*
X11585557Y-18648629D01*
X11614128Y-18634343D01*
X11628414Y-18620057D01*
X11642700Y-18591486D01*
X11756986Y-18462914D02*
X11756986Y-18520057D01*
X11871271Y-18462914D02*
X11871271Y-18520057D01*
X12314128Y-18877200D02*
X12299843Y-18862914D01*
X12271271Y-18820057D01*
X12256986Y-18791486D01*
X12242700Y-18748629D01*
X12228414Y-18677200D01*
X12228414Y-18620057D01*
X12242700Y-18548629D01*
X12256986Y-18505772D01*
X12271271Y-18477200D01*
X12299843Y-18434343D01*
X12314128Y-18420057D01*
X12414128Y-18491486D02*
X12428414Y-18477200D01*
X12456986Y-18462914D01*
X12528414Y-18462914D01*
X12556986Y-18477200D01*
X12571271Y-18491486D01*
X12585557Y-18520057D01*
X12585557Y-18548629D01*
X12571271Y-18591486D01*
X12399843Y-18762914D01*
X12585557Y-18762914D01*
X12728414Y-18762914D02*
X12785557Y-18762914D01*
X12814128Y-18748629D01*
X12828414Y-18734343D01*
X12856986Y-18691486D01*
X12871271Y-18634343D01*
X12871271Y-18520057D01*
X12856986Y-18491486D01*
X12842700Y-18477200D01*
X12814128Y-18462914D01*
X12756986Y-18462914D01*
X12728414Y-18477200D01*
X12714128Y-18491486D01*
X12699843Y-18520057D01*
X12699843Y-18591486D01*
X12714128Y-18620057D01*
X12728414Y-18634343D01*
X12756986Y-18648629D01*
X12814128Y-18648629D01*
X12842700Y-18634343D01*
X12856986Y-18620057D01*
X12871271Y-18591486D01*
X13228414Y-18762914D02*
X13228414Y-18462914D01*
X13356986Y-18762914D02*
X13356986Y-18605772D01*
X13342700Y-18577200D01*
X13314128Y-18562914D01*
X13271271Y-18562914D01*
X13242700Y-18577200D01*
X13228414Y-18591486D01*
X13542700Y-18762914D02*
X13514128Y-18748629D01*
X13499843Y-18734343D01*
X13485557Y-18705772D01*
X13485557Y-18620057D01*
X13499843Y-18591486D01*
X13514128Y-18577200D01*
X13542700Y-18562914D01*
X13585557Y-18562914D01*
X13614128Y-18577200D01*
X13628414Y-18591486D01*
X13642700Y-18620057D01*
X13642700Y-18705772D01*
X13628414Y-18734343D01*
X13614128Y-18748629D01*
X13585557Y-18762914D01*
X13542700Y-18762914D01*
X13814128Y-18762914D02*
X13785557Y-18748629D01*
X13771271Y-18720057D01*
X13771271Y-18462914D01*
X14042700Y-18748629D02*
X14014128Y-18762914D01*
X13956986Y-18762914D01*
X13928414Y-18748629D01*
X13914128Y-18720057D01*
X13914128Y-18605772D01*
X13928414Y-18577200D01*
X13956986Y-18562914D01*
X14014128Y-18562914D01*
X14042700Y-18577200D01*
X14056986Y-18605772D01*
X14056986Y-18634343D01*
X13914128Y-18662914D01*
X14171271Y-18748629D02*
X14199843Y-18762914D01*
X14256986Y-18762914D01*
X14285557Y-18748629D01*
X14299843Y-18720057D01*
X14299843Y-18705772D01*
X14285557Y-18677200D01*
X14256986Y-18662914D01*
X14214128Y-18662914D01*
X14185557Y-18648629D01*
X14171271Y-18620057D01*
X14171271Y-18605772D01*
X14185557Y-18577200D01*
X14214128Y-18562914D01*
X14256986Y-18562914D01*
X14285557Y-18577200D01*
X14399843Y-18877200D02*
X14414128Y-18862914D01*
X14442700Y-18820057D01*
X14456986Y-18791486D01*
X14471271Y-18748629D01*
X14485557Y-18677200D01*
X14485557Y-18620057D01*
X14471271Y-18548629D01*
X14456986Y-18505772D01*
X14442700Y-18477200D01*
X14414128Y-18434343D01*
X14399843Y-18420057D01*
X7517700Y-18968200D02*
X7627700Y-19078200D01*
X7627700Y-18968200D02*
X7517700Y-19078200D01*
X7627700Y-19023200D02*
G75*
G03X7627700Y-19023200I-55000J0D01*
G01*
X8071271Y-19158914D02*
X7899843Y-19158914D01*
X7985557Y-19158914D02*
X7985557Y-18858914D01*
X7956986Y-18901772D01*
X7928414Y-18930343D01*
X7899843Y-18944629D01*
X8199843Y-19130343D02*
X8214128Y-19144629D01*
X8199843Y-19158914D01*
X8185557Y-19144629D01*
X8199843Y-19130343D01*
X8199843Y-19158914D01*
X8499843Y-19158914D02*
X8328414Y-19158914D01*
X8414128Y-19158914D02*
X8414128Y-18858914D01*
X8385557Y-18901772D01*
X8356986Y-18930343D01*
X8328414Y-18944629D01*
X8685557Y-18858914D02*
X8714128Y-18858914D01*
X8742700Y-18873200D01*
X8756986Y-18887486D01*
X8771271Y-18916057D01*
X8785557Y-18973200D01*
X8785557Y-19044629D01*
X8771271Y-19101772D01*
X8756986Y-19130343D01*
X8742700Y-19144629D01*
X8714128Y-19158914D01*
X8685557Y-19158914D01*
X8656986Y-19144629D01*
X8642700Y-19130343D01*
X8628414Y-19101772D01*
X8614128Y-19044629D01*
X8614128Y-18973200D01*
X8628414Y-18916057D01*
X8642700Y-18887486D01*
X8656986Y-18873200D01*
X8685557Y-18858914D01*
X8914128Y-19158914D02*
X8914128Y-18958914D01*
X8914128Y-18987486D02*
X8928414Y-18973200D01*
X8956986Y-18958914D01*
X8999843Y-18958914D01*
X9028414Y-18973200D01*
X9042700Y-19001772D01*
X9042700Y-19158914D01*
X9042700Y-19001772D02*
X9056986Y-18973200D01*
X9085557Y-18958914D01*
X9128414Y-18958914D01*
X9156986Y-18973200D01*
X9171271Y-19001772D01*
X9171271Y-19158914D01*
X9314128Y-19158914D02*
X9314128Y-18958914D01*
X9314128Y-18987486D02*
X9328414Y-18973200D01*
X9356986Y-18958914D01*
X9399843Y-18958914D01*
X9428414Y-18973200D01*
X9442700Y-19001772D01*
X9442700Y-19158914D01*
X9442700Y-19001772D02*
X9456986Y-18973200D01*
X9485557Y-18958914D01*
X9528414Y-18958914D01*
X9556986Y-18973200D01*
X9571271Y-19001772D01*
X9571271Y-19158914D01*
X10156986Y-18844629D02*
X9899843Y-19230343D01*
X10542700Y-18858914D02*
X10571271Y-18858914D01*
X10599843Y-18873200D01*
X10614128Y-18887486D01*
X10628414Y-18916057D01*
X10642700Y-18973200D01*
X10642700Y-19044629D01*
X10628414Y-19101772D01*
X10614128Y-19130343D01*
X10599843Y-19144629D01*
X10571271Y-19158914D01*
X10542700Y-19158914D01*
X10514128Y-19144629D01*
X10499843Y-19130343D01*
X10485557Y-19101772D01*
X10471271Y-19044629D01*
X10471271Y-18973200D01*
X10485557Y-18916057D01*
X10499843Y-18887486D01*
X10514128Y-18873200D01*
X10542700Y-18858914D01*
X10771271Y-19130343D02*
X10785557Y-19144629D01*
X10771271Y-19158914D01*
X10756986Y-19144629D01*
X10771271Y-19130343D01*
X10771271Y-19158914D01*
X10971271Y-18858914D02*
X10999843Y-18858914D01*
X11028414Y-18873200D01*
X11042700Y-18887486D01*
X11056986Y-18916057D01*
X11071271Y-18973200D01*
X11071271Y-19044629D01*
X11056986Y-19101772D01*
X11042700Y-19130343D01*
X11028414Y-19144629D01*
X10999843Y-19158914D01*
X10971271Y-19158914D01*
X10942700Y-19144629D01*
X10928414Y-19130343D01*
X10914128Y-19101772D01*
X10899843Y-19044629D01*
X10899843Y-18973200D01*
X10914128Y-18916057D01*
X10928414Y-18887486D01*
X10942700Y-18873200D01*
X10971271Y-18858914D01*
X11328414Y-18958914D02*
X11328414Y-19158914D01*
X11256986Y-18844629D02*
X11185557Y-19058914D01*
X11371271Y-19058914D01*
X11456986Y-18858914D02*
X11642700Y-18858914D01*
X11542700Y-18973200D01*
X11585557Y-18973200D01*
X11614128Y-18987486D01*
X11628414Y-19001772D01*
X11642700Y-19030343D01*
X11642700Y-19101772D01*
X11628414Y-19130343D01*
X11614128Y-19144629D01*
X11585557Y-19158914D01*
X11499843Y-19158914D01*
X11471271Y-19144629D01*
X11456986Y-19130343D01*
X11756986Y-18858914D02*
X11756986Y-18916057D01*
X11871271Y-18858914D02*
X11871271Y-18916057D01*
X12314128Y-19273200D02*
X12299843Y-19258914D01*
X12271271Y-19216057D01*
X12256986Y-19187486D01*
X12242700Y-19144629D01*
X12228414Y-19073200D01*
X12228414Y-19016057D01*
X12242700Y-18944629D01*
X12256986Y-18901772D01*
X12271271Y-18873200D01*
X12299843Y-18830343D01*
X12314128Y-18816057D01*
X12585557Y-19158914D02*
X12414128Y-19158914D01*
X12499843Y-19158914D02*
X12499843Y-18858914D01*
X12471271Y-18901772D01*
X12442700Y-18930343D01*
X12414128Y-18944629D01*
X12871271Y-19158914D02*
X12699843Y-19158914D01*
X12785557Y-19158914D02*
X12785557Y-18858914D01*
X12756986Y-18901772D01*
X12728414Y-18930343D01*
X12699843Y-18944629D01*
X13128414Y-18958914D02*
X13128414Y-19158914D01*
X13056986Y-18844629D02*
X12985557Y-19058914D01*
X13171271Y-19058914D01*
X13514128Y-19158914D02*
X13514128Y-18858914D01*
X13642700Y-19158914D02*
X13642700Y-19001772D01*
X13628414Y-18973200D01*
X13599843Y-18958914D01*
X13556986Y-18958914D01*
X13528414Y-18973200D01*
X13514128Y-18987486D01*
X13828414Y-19158914D02*
X13799843Y-19144629D01*
X13785557Y-19130343D01*
X13771271Y-19101772D01*
X13771271Y-19016057D01*
X13785557Y-18987486D01*
X13799843Y-18973200D01*
X13828414Y-18958914D01*
X13871271Y-18958914D01*
X13899843Y-18973200D01*
X13914128Y-18987486D01*
X13928414Y-19016057D01*
X13928414Y-19101772D01*
X13914128Y-19130343D01*
X13899843Y-19144629D01*
X13871271Y-19158914D01*
X13828414Y-19158914D01*
X14099843Y-19158914D02*
X14071271Y-19144629D01*
X14056986Y-19116057D01*
X14056986Y-18858914D01*
X14328414Y-19144629D02*
X14299843Y-19158914D01*
X14242700Y-19158914D01*
X14214128Y-19144629D01*
X14199843Y-19116057D01*
X14199843Y-19001772D01*
X14214128Y-18973200D01*
X14242700Y-18958914D01*
X14299843Y-18958914D01*
X14328414Y-18973200D01*
X14342700Y-19001772D01*
X14342700Y-19030343D01*
X14199843Y-19058914D01*
X14456986Y-19144629D02*
X14485557Y-19158914D01*
X14542700Y-19158914D01*
X14571271Y-19144629D01*
X14585557Y-19116057D01*
X14585557Y-19101772D01*
X14571271Y-19073200D01*
X14542700Y-19058914D01*
X14499843Y-19058914D01*
X14471271Y-19044629D01*
X14456986Y-19016057D01*
X14456986Y-19001772D01*
X14471271Y-18973200D01*
X14499843Y-18958914D01*
X14542700Y-18958914D01*
X14571271Y-18973200D01*
X14685557Y-19273200D02*
X14699843Y-19258914D01*
X14728414Y-19216057D01*
X14742700Y-19187486D01*
X14756986Y-19144629D01*
X14771271Y-19073200D01*
X14771271Y-19016057D01*
X14756986Y-18944629D01*
X14742700Y-18901772D01*
X14728414Y-18873200D01*
X14699843Y-18830343D01*
X14685557Y-18816057D01*
X7427700Y-19319200D02*
X7627700Y-19519200D01*
X7627700Y-19319200D02*
X7427700Y-19519200D01*
X7527700Y-19319200D02*
X7527700Y-19519200D01*
X7427700Y-19419200D02*
X7627700Y-19419200D01*
X7899843Y-19283486D02*
X7914128Y-19269200D01*
X7942700Y-19254914D01*
X8014128Y-19254914D01*
X8042700Y-19269200D01*
X8056986Y-19283486D01*
X8071271Y-19312057D01*
X8071271Y-19340629D01*
X8056986Y-19383486D01*
X7885557Y-19554914D01*
X8071271Y-19554914D01*
X8199843Y-19526343D02*
X8214128Y-19540629D01*
X8199843Y-19554914D01*
X8185557Y-19540629D01*
X8199843Y-19526343D01*
X8199843Y-19554914D01*
X8399843Y-19254914D02*
X8428414Y-19254914D01*
X8456986Y-19269200D01*
X8471271Y-19283486D01*
X8485557Y-19312057D01*
X8499843Y-19369200D01*
X8499843Y-19440629D01*
X8485557Y-19497772D01*
X8471271Y-19526343D01*
X8456986Y-19540629D01*
X8428414Y-19554914D01*
X8399843Y-19554914D01*
X8371271Y-19540629D01*
X8356986Y-19526343D01*
X8342700Y-19497772D01*
X8328414Y-19440629D01*
X8328414Y-19369200D01*
X8342700Y-19312057D01*
X8356986Y-19283486D01*
X8371271Y-19269200D01*
X8399843Y-19254914D01*
X8685557Y-19254914D02*
X8714128Y-19254914D01*
X8742700Y-19269200D01*
X8756986Y-19283486D01*
X8771271Y-19312057D01*
X8785557Y-19369200D01*
X8785557Y-19440629D01*
X8771271Y-19497772D01*
X8756986Y-19526343D01*
X8742700Y-19540629D01*
X8714128Y-19554914D01*
X8685557Y-19554914D01*
X8656986Y-19540629D01*
X8642700Y-19526343D01*
X8628414Y-19497772D01*
X8614128Y-19440629D01*
X8614128Y-19369200D01*
X8628414Y-19312057D01*
X8642700Y-19283486D01*
X8656986Y-19269200D01*
X8685557Y-19254914D01*
X8914128Y-19554914D02*
X8914128Y-19354914D01*
X8914128Y-19383486D02*
X8928414Y-19369200D01*
X8956986Y-19354914D01*
X8999843Y-19354914D01*
X9028414Y-19369200D01*
X9042700Y-19397772D01*
X9042700Y-19554914D01*
X9042700Y-19397772D02*
X9056986Y-19369200D01*
X9085557Y-19354914D01*
X9128414Y-19354914D01*
X9156986Y-19369200D01*
X9171271Y-19397772D01*
X9171271Y-19554914D01*
X9314128Y-19554914D02*
X9314128Y-19354914D01*
X9314128Y-19383486D02*
X9328414Y-19369200D01*
X9356986Y-19354914D01*
X9399843Y-19354914D01*
X9428414Y-19369200D01*
X9442700Y-19397772D01*
X9442700Y-19554914D01*
X9442700Y-19397772D02*
X9456986Y-19369200D01*
X9485557Y-19354914D01*
X9528414Y-19354914D01*
X9556986Y-19369200D01*
X9571271Y-19397772D01*
X9571271Y-19554914D01*
X10156986Y-19240629D02*
X9899843Y-19626343D01*
X10542700Y-19254914D02*
X10571271Y-19254914D01*
X10599843Y-19269200D01*
X10614128Y-19283486D01*
X10628414Y-19312057D01*
X10642700Y-19369200D01*
X10642700Y-19440629D01*
X10628414Y-19497772D01*
X10614128Y-19526343D01*
X10599843Y-19540629D01*
X10571271Y-19554914D01*
X10542700Y-19554914D01*
X10514128Y-19540629D01*
X10499843Y-19526343D01*
X10485557Y-19497772D01*
X10471271Y-19440629D01*
X10471271Y-19369200D01*
X10485557Y-19312057D01*
X10499843Y-19283486D01*
X10514128Y-19269200D01*
X10542700Y-19254914D01*
X10771271Y-19526343D02*
X10785557Y-19540629D01*
X10771271Y-19554914D01*
X10756986Y-19540629D01*
X10771271Y-19526343D01*
X10771271Y-19554914D01*
X10971271Y-19254914D02*
X10999843Y-19254914D01*
X11028414Y-19269200D01*
X11042700Y-19283486D01*
X11056986Y-19312057D01*
X11071271Y-19369200D01*
X11071271Y-19440629D01*
X11056986Y-19497772D01*
X11042700Y-19526343D01*
X11028414Y-19540629D01*
X10999843Y-19554914D01*
X10971271Y-19554914D01*
X10942700Y-19540629D01*
X10928414Y-19526343D01*
X10914128Y-19497772D01*
X10899843Y-19440629D01*
X10899843Y-19369200D01*
X10914128Y-19312057D01*
X10928414Y-19283486D01*
X10942700Y-19269200D01*
X10971271Y-19254914D01*
X11171271Y-19254914D02*
X11371271Y-19254914D01*
X11242700Y-19554914D01*
X11499843Y-19554914D02*
X11556986Y-19554914D01*
X11585557Y-19540629D01*
X11599843Y-19526343D01*
X11628414Y-19483486D01*
X11642700Y-19426343D01*
X11642700Y-19312057D01*
X11628414Y-19283486D01*
X11614128Y-19269200D01*
X11585557Y-19254914D01*
X11528414Y-19254914D01*
X11499843Y-19269200D01*
X11485557Y-19283486D01*
X11471271Y-19312057D01*
X11471271Y-19383486D01*
X11485557Y-19412057D01*
X11499843Y-19426343D01*
X11528414Y-19440629D01*
X11585557Y-19440629D01*
X11614128Y-19426343D01*
X11628414Y-19412057D01*
X11642700Y-19383486D01*
X11756986Y-19254914D02*
X11756986Y-19312057D01*
X11871271Y-19254914D02*
X11871271Y-19312057D01*
X12314128Y-19669200D02*
X12299843Y-19654914D01*
X12271271Y-19612057D01*
X12256986Y-19583486D01*
X12242700Y-19540629D01*
X12228414Y-19469200D01*
X12228414Y-19412057D01*
X12242700Y-19340629D01*
X12256986Y-19297772D01*
X12271271Y-19269200D01*
X12299843Y-19226343D01*
X12314128Y-19212057D01*
X12585557Y-19554914D02*
X12414128Y-19554914D01*
X12499843Y-19554914D02*
X12499843Y-19254914D01*
X12471271Y-19297772D01*
X12442700Y-19326343D01*
X12414128Y-19340629D01*
X12756986Y-19383486D02*
X12728414Y-19369200D01*
X12714128Y-19354914D01*
X12699843Y-19326343D01*
X12699843Y-19312057D01*
X12714128Y-19283486D01*
X12728414Y-19269200D01*
X12756986Y-19254914D01*
X12814128Y-19254914D01*
X12842700Y-19269200D01*
X12856986Y-19283486D01*
X12871271Y-19312057D01*
X12871271Y-19326343D01*
X12856986Y-19354914D01*
X12842700Y-19369200D01*
X12814128Y-19383486D01*
X12756986Y-19383486D01*
X12728414Y-19397772D01*
X12714128Y-19412057D01*
X12699843Y-19440629D01*
X12699843Y-19497772D01*
X12714128Y-19526343D01*
X12728414Y-19540629D01*
X12756986Y-19554914D01*
X12814128Y-19554914D01*
X12842700Y-19540629D01*
X12856986Y-19526343D01*
X12871271Y-19497772D01*
X12871271Y-19440629D01*
X12856986Y-19412057D01*
X12842700Y-19397772D01*
X12814128Y-19383486D01*
X13228414Y-19554914D02*
X13228414Y-19254914D01*
X13356986Y-19554914D02*
X13356986Y-19397772D01*
X13342700Y-19369200D01*
X13314128Y-19354914D01*
X13271271Y-19354914D01*
X13242700Y-19369200D01*
X13228414Y-19383486D01*
X13542700Y-19554914D02*
X13514128Y-19540629D01*
X13499843Y-19526343D01*
X13485557Y-19497772D01*
X13485557Y-19412057D01*
X13499843Y-19383486D01*
X13514128Y-19369200D01*
X13542700Y-19354914D01*
X13585557Y-19354914D01*
X13614128Y-19369200D01*
X13628414Y-19383486D01*
X13642700Y-19412057D01*
X13642700Y-19497772D01*
X13628414Y-19526343D01*
X13614128Y-19540629D01*
X13585557Y-19554914D01*
X13542700Y-19554914D01*
X13814128Y-19554914D02*
X13785557Y-19540629D01*
X13771271Y-19512057D01*
X13771271Y-19254914D01*
X14042700Y-19540629D02*
X14014128Y-19554914D01*
X13956986Y-19554914D01*
X13928414Y-19540629D01*
X13914128Y-19512057D01*
X13914128Y-19397772D01*
X13928414Y-19369200D01*
X13956986Y-19354914D01*
X14014128Y-19354914D01*
X14042700Y-19369200D01*
X14056986Y-19397772D01*
X14056986Y-19426343D01*
X13914128Y-19454914D01*
X14171271Y-19540629D02*
X14199843Y-19554914D01*
X14256986Y-19554914D01*
X14285557Y-19540629D01*
X14299843Y-19512057D01*
X14299843Y-19497772D01*
X14285557Y-19469200D01*
X14256986Y-19454914D01*
X14214128Y-19454914D01*
X14185557Y-19440629D01*
X14171271Y-19412057D01*
X14171271Y-19397772D01*
X14185557Y-19369200D01*
X14214128Y-19354914D01*
X14256986Y-19354914D01*
X14285557Y-19369200D01*
X14399843Y-19669200D02*
X14414128Y-19654914D01*
X14442700Y-19612057D01*
X14456986Y-19583486D01*
X14471271Y-19540629D01*
X14485557Y-19469200D01*
X14485557Y-19412057D01*
X14471271Y-19340629D01*
X14456986Y-19297772D01*
X14442700Y-19269200D01*
X14414128Y-19226343D01*
X14399843Y-19212057D01*
X14942700Y-19669200D02*
X14928414Y-19654914D01*
X14899843Y-19612057D01*
X14885557Y-19583486D01*
X14871271Y-19540629D01*
X14856986Y-19469200D01*
X14856986Y-19412057D01*
X14871271Y-19340629D01*
X14885557Y-19297772D01*
X14899843Y-19269200D01*
X14928414Y-19226343D01*
X14942700Y-19212057D01*
X15056986Y-19354914D02*
X15056986Y-19554914D01*
X15056986Y-19383486D02*
X15071271Y-19369200D01*
X15099843Y-19354914D01*
X15142700Y-19354914D01*
X15171271Y-19369200D01*
X15185557Y-19397772D01*
X15185557Y-19554914D01*
X15371271Y-19554914D02*
X15342700Y-19540629D01*
X15328414Y-19526343D01*
X15314128Y-19497772D01*
X15314128Y-19412057D01*
X15328414Y-19383486D01*
X15342700Y-19369200D01*
X15371271Y-19354914D01*
X15414128Y-19354914D01*
X15442700Y-19369200D01*
X15456986Y-19383486D01*
X15471271Y-19412057D01*
X15471271Y-19497772D01*
X15456986Y-19526343D01*
X15442700Y-19540629D01*
X15414128Y-19554914D01*
X15371271Y-19554914D01*
X15556986Y-19354914D02*
X15671271Y-19354914D01*
X15599843Y-19254914D02*
X15599843Y-19512057D01*
X15614128Y-19540629D01*
X15642700Y-19554914D01*
X15671271Y-19554914D01*
X15999843Y-19354914D02*
X15999843Y-19654914D01*
X15999843Y-19369200D02*
X16028414Y-19354914D01*
X16085557Y-19354914D01*
X16114128Y-19369200D01*
X16128414Y-19383486D01*
X16142700Y-19412057D01*
X16142700Y-19497772D01*
X16128414Y-19526343D01*
X16114128Y-19540629D01*
X16085557Y-19554914D01*
X16028414Y-19554914D01*
X15999843Y-19540629D01*
X16314128Y-19554914D02*
X16285557Y-19540629D01*
X16271271Y-19512057D01*
X16271271Y-19254914D01*
X16556986Y-19554914D02*
X16556986Y-19397772D01*
X16542700Y-19369200D01*
X16514128Y-19354914D01*
X16456986Y-19354914D01*
X16428414Y-19369200D01*
X16556986Y-19540629D02*
X16528414Y-19554914D01*
X16456986Y-19554914D01*
X16428414Y-19540629D01*
X16414128Y-19512057D01*
X16414128Y-19483486D01*
X16428414Y-19454914D01*
X16456986Y-19440629D01*
X16528414Y-19440629D01*
X16556986Y-19426343D01*
X16656986Y-19354914D02*
X16771271Y-19354914D01*
X16699843Y-19254914D02*
X16699843Y-19512057D01*
X16714128Y-19540629D01*
X16742700Y-19554914D01*
X16771271Y-19554914D01*
X16985557Y-19540629D02*
X16956986Y-19554914D01*
X16899843Y-19554914D01*
X16871271Y-19540629D01*
X16856986Y-19512057D01*
X16856986Y-19397772D01*
X16871271Y-19369200D01*
X16899843Y-19354914D01*
X16956986Y-19354914D01*
X16985557Y-19369200D01*
X16999843Y-19397772D01*
X16999843Y-19426343D01*
X16856986Y-19454914D01*
X17256986Y-19554914D02*
X17256986Y-19254914D01*
X17256986Y-19540629D02*
X17228414Y-19554914D01*
X17171271Y-19554914D01*
X17142700Y-19540629D01*
X17128414Y-19526343D01*
X17114128Y-19497772D01*
X17114128Y-19412057D01*
X17128414Y-19383486D01*
X17142700Y-19369200D01*
X17171271Y-19354914D01*
X17228414Y-19354914D01*
X17256986Y-19369200D01*
X17371271Y-19669200D02*
X17385557Y-19654914D01*
X17414128Y-19612057D01*
X17428414Y-19583486D01*
X17442700Y-19540629D01*
X17456986Y-19469200D01*
X17456986Y-19412057D01*
X17442700Y-19340629D01*
X17428414Y-19297772D01*
X17414128Y-19269200D01*
X17385557Y-19226343D01*
X17371271Y-19212057D01*
X7197700Y-19600200D02*
X7627700Y-20030200D01*
X7627700Y-19600200D02*
X7197700Y-20030200D01*
X7564729Y-19967230D02*
X7564729Y-19663171D01*
X7260670Y-19663171D01*
X7260670Y-19967230D01*
X7564729Y-19967230D01*
X8042700Y-19750914D02*
X8042700Y-19950914D01*
X7971271Y-19636629D02*
X7899843Y-19850914D01*
X8085557Y-19850914D01*
X8199843Y-19922343D02*
X8214128Y-19936629D01*
X8199843Y-19950914D01*
X8185557Y-19936629D01*
X8199843Y-19922343D01*
X8199843Y-19950914D01*
X8314128Y-19650914D02*
X8499843Y-19650914D01*
X8399843Y-19765200D01*
X8442700Y-19765200D01*
X8471271Y-19779486D01*
X8485557Y-19793772D01*
X8499843Y-19822343D01*
X8499843Y-19893772D01*
X8485557Y-19922343D01*
X8471271Y-19936629D01*
X8442700Y-19950914D01*
X8356986Y-19950914D01*
X8328414Y-19936629D01*
X8314128Y-19922343D01*
X8685557Y-19650914D02*
X8714128Y-19650914D01*
X8742700Y-19665200D01*
X8756986Y-19679486D01*
X8771271Y-19708057D01*
X8785557Y-19765200D01*
X8785557Y-19836629D01*
X8771271Y-19893772D01*
X8756986Y-19922343D01*
X8742700Y-19936629D01*
X8714128Y-19950914D01*
X8685557Y-19950914D01*
X8656986Y-19936629D01*
X8642700Y-19922343D01*
X8628414Y-19893772D01*
X8614128Y-19836629D01*
X8614128Y-19765200D01*
X8628414Y-19708057D01*
X8642700Y-19679486D01*
X8656986Y-19665200D01*
X8685557Y-19650914D01*
X8914128Y-19950914D02*
X8914128Y-19750914D01*
X8914128Y-19779486D02*
X8928414Y-19765200D01*
X8956986Y-19750914D01*
X8999843Y-19750914D01*
X9028414Y-19765200D01*
X9042700Y-19793772D01*
X9042700Y-19950914D01*
X9042700Y-19793772D02*
X9056986Y-19765200D01*
X9085557Y-19750914D01*
X9128414Y-19750914D01*
X9156986Y-19765200D01*
X9171271Y-19793772D01*
X9171271Y-19950914D01*
X9314128Y-19950914D02*
X9314128Y-19750914D01*
X9314128Y-19779486D02*
X9328414Y-19765200D01*
X9356986Y-19750914D01*
X9399843Y-19750914D01*
X9428414Y-19765200D01*
X9442700Y-19793772D01*
X9442700Y-19950914D01*
X9442700Y-19793772D02*
X9456986Y-19765200D01*
X9485557Y-19750914D01*
X9528414Y-19750914D01*
X9556986Y-19765200D01*
X9571271Y-19793772D01*
X9571271Y-19950914D01*
X10156986Y-19636629D02*
X9899843Y-20022343D01*
X10542700Y-19650914D02*
X10571271Y-19650914D01*
X10599843Y-19665200D01*
X10614128Y-19679486D01*
X10628414Y-19708057D01*
X10642700Y-19765200D01*
X10642700Y-19836629D01*
X10628414Y-19893772D01*
X10614128Y-19922343D01*
X10599843Y-19936629D01*
X10571271Y-19950914D01*
X10542700Y-19950914D01*
X10514128Y-19936629D01*
X10499843Y-19922343D01*
X10485557Y-19893772D01*
X10471271Y-19836629D01*
X10471271Y-19765200D01*
X10485557Y-19708057D01*
X10499843Y-19679486D01*
X10514128Y-19665200D01*
X10542700Y-19650914D01*
X10771271Y-19922343D02*
X10785557Y-19936629D01*
X10771271Y-19950914D01*
X10756986Y-19936629D01*
X10771271Y-19922343D01*
X10771271Y-19950914D01*
X11071271Y-19950914D02*
X10899843Y-19950914D01*
X10985557Y-19950914D02*
X10985557Y-19650914D01*
X10956986Y-19693772D01*
X10928414Y-19722343D01*
X10899843Y-19736629D01*
X11328414Y-19650914D02*
X11271271Y-19650914D01*
X11242700Y-19665200D01*
X11228414Y-19679486D01*
X11199843Y-19722343D01*
X11185557Y-19779486D01*
X11185557Y-19893772D01*
X11199843Y-19922343D01*
X11214128Y-19936629D01*
X11242700Y-19950914D01*
X11299843Y-19950914D01*
X11328414Y-19936629D01*
X11342700Y-19922343D01*
X11356986Y-19893772D01*
X11356986Y-19822343D01*
X11342700Y-19793772D01*
X11328414Y-19779486D01*
X11299843Y-19765200D01*
X11242700Y-19765200D01*
X11214128Y-19779486D01*
X11199843Y-19793772D01*
X11185557Y-19822343D01*
X11499843Y-19950914D02*
X11556986Y-19950914D01*
X11585557Y-19936629D01*
X11599843Y-19922343D01*
X11628414Y-19879486D01*
X11642700Y-19822343D01*
X11642700Y-19708057D01*
X11628414Y-19679486D01*
X11614128Y-19665200D01*
X11585557Y-19650914D01*
X11528414Y-19650914D01*
X11499843Y-19665200D01*
X11485557Y-19679486D01*
X11471271Y-19708057D01*
X11471271Y-19779486D01*
X11485557Y-19808057D01*
X11499843Y-19822343D01*
X11528414Y-19836629D01*
X11585557Y-19836629D01*
X11614128Y-19822343D01*
X11628414Y-19808057D01*
X11642700Y-19779486D01*
X11756986Y-19650914D02*
X11756986Y-19708057D01*
X11871271Y-19650914D02*
X11871271Y-19708057D01*
X12314128Y-20065200D02*
X12299843Y-20050914D01*
X12271271Y-20008057D01*
X12256986Y-19979486D01*
X12242700Y-19936629D01*
X12228414Y-19865200D01*
X12228414Y-19808057D01*
X12242700Y-19736629D01*
X12256986Y-19693772D01*
X12271271Y-19665200D01*
X12299843Y-19622343D01*
X12314128Y-19608057D01*
X12442700Y-19950914D02*
X12499843Y-19950914D01*
X12528414Y-19936629D01*
X12542700Y-19922343D01*
X12571271Y-19879486D01*
X12585557Y-19822343D01*
X12585557Y-19708057D01*
X12571271Y-19679486D01*
X12556986Y-19665200D01*
X12528414Y-19650914D01*
X12471271Y-19650914D01*
X12442700Y-19665200D01*
X12428414Y-19679486D01*
X12414128Y-19708057D01*
X12414128Y-19779486D01*
X12428414Y-19808057D01*
X12442700Y-19822343D01*
X12471271Y-19836629D01*
X12528414Y-19836629D01*
X12556986Y-19822343D01*
X12571271Y-19808057D01*
X12585557Y-19779486D01*
X12942700Y-19950914D02*
X12942700Y-19650914D01*
X13071271Y-19950914D02*
X13071271Y-19793772D01*
X13056986Y-19765200D01*
X13028414Y-19750914D01*
X12985557Y-19750914D01*
X12956986Y-19765200D01*
X12942700Y-19779486D01*
X13256986Y-19950914D02*
X13228414Y-19936629D01*
X13214128Y-19922343D01*
X13199843Y-19893772D01*
X13199843Y-19808057D01*
X13214128Y-19779486D01*
X13228414Y-19765200D01*
X13256986Y-19750914D01*
X13299843Y-19750914D01*
X13328414Y-19765200D01*
X13342700Y-19779486D01*
X13356986Y-19808057D01*
X13356986Y-19893772D01*
X13342700Y-19922343D01*
X13328414Y-19936629D01*
X13299843Y-19950914D01*
X13256986Y-19950914D01*
X13528414Y-19950914D02*
X13499843Y-19936629D01*
X13485557Y-19908057D01*
X13485557Y-19650914D01*
X13756986Y-19936629D02*
X13728414Y-19950914D01*
X13671271Y-19950914D01*
X13642700Y-19936629D01*
X13628414Y-19908057D01*
X13628414Y-19793772D01*
X13642700Y-19765200D01*
X13671271Y-19750914D01*
X13728414Y-19750914D01*
X13756986Y-19765200D01*
X13771271Y-19793772D01*
X13771271Y-19822343D01*
X13628414Y-19850914D01*
X13885557Y-19936629D02*
X13914128Y-19950914D01*
X13971271Y-19950914D01*
X13999843Y-19936629D01*
X14014128Y-19908057D01*
X14014128Y-19893772D01*
X13999843Y-19865200D01*
X13971271Y-19850914D01*
X13928414Y-19850914D01*
X13899843Y-19836629D01*
X13885557Y-19808057D01*
X13885557Y-19793772D01*
X13899843Y-19765200D01*
X13928414Y-19750914D01*
X13971271Y-19750914D01*
X13999843Y-19765200D01*
X14114128Y-20065200D02*
X14128414Y-20050914D01*
X14156986Y-20008057D01*
X14171271Y-19979486D01*
X14185557Y-19936629D01*
X14199843Y-19865200D01*
X14199843Y-19808057D01*
X14185557Y-19736629D01*
X14171271Y-19693772D01*
X14156986Y-19665200D01*
X14128414Y-19622343D01*
X14114128Y-19608057D01*
X14656986Y-20065200D02*
X14642700Y-20050914D01*
X14614128Y-20008057D01*
X14599843Y-19979486D01*
X14585557Y-19936629D01*
X14571271Y-19865200D01*
X14571271Y-19808057D01*
X14585557Y-19736629D01*
X14599843Y-19693772D01*
X14614128Y-19665200D01*
X14642700Y-19622343D01*
X14656986Y-19608057D01*
X14771271Y-19750914D02*
X14771271Y-19950914D01*
X14771271Y-19779486D02*
X14785557Y-19765200D01*
X14814128Y-19750914D01*
X14856986Y-19750914D01*
X14885557Y-19765200D01*
X14899843Y-19793772D01*
X14899843Y-19950914D01*
X15085557Y-19950914D02*
X15056986Y-19936629D01*
X15042700Y-19922343D01*
X15028414Y-19893772D01*
X15028414Y-19808057D01*
X15042700Y-19779486D01*
X15056986Y-19765200D01*
X15085557Y-19750914D01*
X15128414Y-19750914D01*
X15156986Y-19765200D01*
X15171271Y-19779486D01*
X15185557Y-19808057D01*
X15185557Y-19893772D01*
X15171271Y-19922343D01*
X15156986Y-19936629D01*
X15128414Y-19950914D01*
X15085557Y-19950914D01*
X15271271Y-19750914D02*
X15385557Y-19750914D01*
X15314128Y-19650914D02*
X15314128Y-19908057D01*
X15328414Y-19936629D01*
X15356986Y-19950914D01*
X15385557Y-19950914D01*
X15714128Y-19750914D02*
X15714128Y-20050914D01*
X15714128Y-19765200D02*
X15742700Y-19750914D01*
X15799843Y-19750914D01*
X15828414Y-19765200D01*
X15842700Y-19779486D01*
X15856986Y-19808057D01*
X15856986Y-19893772D01*
X15842700Y-19922343D01*
X15828414Y-19936629D01*
X15799843Y-19950914D01*
X15742700Y-19950914D01*
X15714128Y-19936629D01*
X16028414Y-19950914D02*
X15999843Y-19936629D01*
X15985557Y-19908057D01*
X15985557Y-19650914D01*
X16271271Y-19950914D02*
X16271271Y-19793772D01*
X16256986Y-19765200D01*
X16228414Y-19750914D01*
X16171271Y-19750914D01*
X16142700Y-19765200D01*
X16271271Y-19936629D02*
X16242700Y-19950914D01*
X16171271Y-19950914D01*
X16142700Y-19936629D01*
X16128414Y-19908057D01*
X16128414Y-19879486D01*
X16142700Y-19850914D01*
X16171271Y-19836629D01*
X16242700Y-19836629D01*
X16271271Y-19822343D01*
X16371271Y-19750914D02*
X16485557Y-19750914D01*
X16414128Y-19650914D02*
X16414128Y-19908057D01*
X16428414Y-19936629D01*
X16456986Y-19950914D01*
X16485557Y-19950914D01*
X16699843Y-19936629D02*
X16671271Y-19950914D01*
X16614128Y-19950914D01*
X16585557Y-19936629D01*
X16571271Y-19908057D01*
X16571271Y-19793772D01*
X16585557Y-19765200D01*
X16614128Y-19750914D01*
X16671271Y-19750914D01*
X16699843Y-19765200D01*
X16714128Y-19793772D01*
X16714128Y-19822343D01*
X16571271Y-19850914D01*
X16971271Y-19950914D02*
X16971271Y-19650914D01*
X16971271Y-19936629D02*
X16942700Y-19950914D01*
X16885557Y-19950914D01*
X16856986Y-19936629D01*
X16842700Y-19922343D01*
X16828414Y-19893772D01*
X16828414Y-19808057D01*
X16842700Y-19779486D01*
X16856986Y-19765200D01*
X16885557Y-19750914D01*
X16942700Y-19750914D01*
X16971271Y-19765200D01*
X17085557Y-20065200D02*
X17099843Y-20050914D01*
X17128414Y-20008057D01*
X17142700Y-19979486D01*
X17156986Y-19936629D01*
X17171271Y-19865200D01*
X17171271Y-19808057D01*
X17156986Y-19736629D01*
X17142700Y-19693772D01*
X17128414Y-19665200D01*
X17099843Y-19622343D01*
X17085557Y-19608057D01*
M02*
