G04 #@! TF.GenerationSoftware,KiCad,Pcbnew,(5.1.4-0-10_14)*
G04 #@! TF.CreationDate,2020-08-23T12:41:51+02:00*
G04 #@! TF.ProjectId,the_mvp,7468655f-6d76-4702-9e6b-696361645f70,1.0*
G04 #@! TF.SameCoordinates,Original*
G04 #@! TF.FileFunction,Copper,L1,Top*
G04 #@! TF.FilePolarity,Positive*
%FSLAX46Y46*%
G04 Gerber Fmt 4.6, Leading zero omitted, Abs format (unit mm)*
G04 Created by KiCad (PCBNEW (5.1.4-0-10_14)) date 2020-08-23 12:41:51*
%MOMM*%
%LPD*%
G04 APERTURE LIST*
%ADD10C,1.300000*%
%ADD11C,1.600000*%
%ADD12R,1.300000X1.300000*%
%ADD13R,1.600000X1.600000*%
%ADD14C,2.000000*%
%ADD15C,2.340000*%
%ADD16C,0.800000*%
%ADD17C,0.250000*%
G04 APERTURE END LIST*
D10*
X208788000Y-92234000D03*
X211328000Y-92234000D03*
D11*
X204978000Y-47244000D03*
X207518000Y-47244000D03*
X210058000Y-47244000D03*
X212598000Y-47244000D03*
X215138000Y-47244000D03*
D10*
X208876400Y-79994000D03*
X208876400Y-77994000D03*
X206876400Y-77994000D03*
X206876400Y-79994000D03*
X204876400Y-77994000D03*
D12*
X204876400Y-79994000D03*
D11*
X217678000Y-52324000D03*
X217678000Y-49784000D03*
X217678000Y-47244000D03*
X217678000Y-44704000D03*
X217678000Y-54864000D03*
X217678000Y-57404000D03*
X217678000Y-59944000D03*
X217678000Y-42164000D03*
X217678000Y-39624000D03*
X217678000Y-37084000D03*
X217678000Y-34544000D03*
X202438000Y-34544000D03*
X202438000Y-37084000D03*
X202438000Y-39624000D03*
X202438000Y-42164000D03*
X202438000Y-44704000D03*
X202438000Y-47244000D03*
X202438000Y-49784000D03*
X202438000Y-52324000D03*
X202438000Y-54864000D03*
X202438000Y-57404000D03*
X217678000Y-62484000D03*
X217678000Y-65024000D03*
X217678000Y-67564000D03*
X217678000Y-70104000D03*
X217678000Y-72644000D03*
X217678000Y-75184000D03*
X217678000Y-77724000D03*
X217678000Y-80264000D03*
X217678000Y-82804000D03*
X217678000Y-85344000D03*
X217678000Y-87884000D03*
X217678000Y-90424000D03*
D13*
X217678000Y-92964000D03*
D11*
X202438000Y-59944000D03*
X202438000Y-62484000D03*
X202438000Y-65024000D03*
X202438000Y-67564000D03*
X202438000Y-70104000D03*
X202438000Y-72644000D03*
X202438000Y-75184000D03*
X202438000Y-77724000D03*
X202438000Y-80264000D03*
X202438000Y-82804000D03*
X202438000Y-85344000D03*
X202438000Y-87884000D03*
X202438000Y-90424000D03*
X202438000Y-92964000D03*
D13*
X214627200Y-86664800D03*
D11*
X214627200Y-84124800D03*
X214627200Y-81584800D03*
X214627200Y-79044800D03*
X214627200Y-76504800D03*
X204978000Y-90424000D03*
D14*
X159408000Y-50546000D03*
X159408000Y-55046000D03*
X152908000Y-50546000D03*
X152908000Y-55046000D03*
X159408000Y-39878000D03*
X159408000Y-44378000D03*
X152908000Y-39878000D03*
X152908000Y-44378000D03*
X141882000Y-39878000D03*
X141882000Y-44378000D03*
X135382000Y-39878000D03*
X135382000Y-44378000D03*
D15*
X168402000Y-69596000D03*
X168402000Y-74596000D03*
X168402000Y-79596000D03*
X118364000Y-84328000D03*
X118364000Y-89328000D03*
X118364000Y-94328000D03*
X118364000Y-66040000D03*
X118364000Y-71040000D03*
X118364000Y-76040000D03*
X118364000Y-47498000D03*
X118364000Y-52498000D03*
X118364000Y-57498000D03*
X118364000Y-28956000D03*
X118364000Y-33956000D03*
X118364000Y-38956000D03*
X72390000Y-94615000D03*
X72390000Y-89615000D03*
X72390000Y-84615000D03*
X72390000Y-75565000D03*
X72390000Y-70565000D03*
X72390000Y-65565000D03*
X72390000Y-57150000D03*
X72390000Y-52150000D03*
X72390000Y-47150000D03*
X72390000Y-38735000D03*
X72390000Y-33735000D03*
X72390000Y-28735000D03*
D14*
X63500000Y-86614000D03*
X63500000Y-91114000D03*
X57000000Y-86614000D03*
X57000000Y-91114000D03*
X57000000Y-72390000D03*
X57000000Y-67890000D03*
X63500000Y-72390000D03*
X63500000Y-67890000D03*
X63396000Y-49530000D03*
X63396000Y-54030000D03*
X56896000Y-49530000D03*
X56896000Y-54030000D03*
X57000000Y-35052000D03*
X57000000Y-30552000D03*
X63500000Y-35052000D03*
X63500000Y-30552000D03*
X188618000Y-74930000D03*
X188618000Y-79430000D03*
X182118000Y-74930000D03*
X182118000Y-79430000D03*
X176680000Y-50546000D03*
X176680000Y-55046000D03*
X170180000Y-50546000D03*
X170180000Y-55046000D03*
X176934000Y-39878000D03*
X176934000Y-44378000D03*
X170434000Y-39878000D03*
X170434000Y-44378000D03*
X176934000Y-28702000D03*
X176934000Y-33202000D03*
X170434000Y-28702000D03*
X170434000Y-33202000D03*
X159408000Y-28702000D03*
X159408000Y-33202000D03*
X152908000Y-28702000D03*
X152908000Y-33202000D03*
X141628000Y-50546000D03*
X141628000Y-55046000D03*
X135128000Y-50546000D03*
X135128000Y-55046000D03*
X142136000Y-28702000D03*
X142136000Y-33202000D03*
X135636000Y-28702000D03*
X135636000Y-33202000D03*
D16*
X207352500Y-97624500D03*
X215099500Y-92417500D03*
X177800000Y-68580000D03*
X194056000Y-69088000D03*
X189738000Y-66548000D03*
X180594000Y-68834000D03*
X80010000Y-31242000D03*
X111252000Y-58166000D03*
X132842000Y-67310000D03*
X139700000Y-67310000D03*
X153924000Y-67818000D03*
D17*
X159408000Y-28702000D02*
X170434000Y-28702000D01*
X143550213Y-28702000D02*
X152908000Y-28702000D01*
X142136000Y-28702000D02*
X143550213Y-28702000D01*
X157993787Y-28702000D02*
X152908000Y-28702000D01*
X159408000Y-28702000D02*
X157993787Y-28702000D01*
X135636000Y-28702000D02*
X142136000Y-28702000D01*
X175934001Y-29701999D02*
X176934000Y-28702000D01*
X171433999Y-29701999D02*
X175934001Y-29701999D01*
X170434000Y-28702000D02*
X171433999Y-29701999D01*
X160822213Y-39878000D02*
X170434000Y-39878000D01*
X159408000Y-39878000D02*
X160822213Y-39878000D01*
X134382001Y-38878001D02*
X135382000Y-39878000D01*
X134310999Y-38806999D02*
X134382001Y-38878001D01*
X134310999Y-30027001D02*
X134310999Y-38806999D01*
X135636000Y-28702000D02*
X134310999Y-30027001D01*
X134056999Y-49474999D02*
X134128001Y-49546001D01*
X134128001Y-49546001D02*
X135128000Y-50546000D01*
X134056999Y-41203001D02*
X134056999Y-49474999D01*
X135382000Y-39878000D02*
X134056999Y-41203001D01*
X63500000Y-49426000D02*
X63396000Y-49530000D01*
X62500001Y-71390001D02*
X63500000Y-72390000D01*
X63500000Y-72390000D02*
X57000000Y-72390000D01*
X57000000Y-72390000D02*
X57000000Y-86614000D01*
X57999999Y-85614001D02*
X57000000Y-86614000D01*
X62500001Y-85614001D02*
X57999999Y-85614001D01*
X63500000Y-86614000D02*
X62500001Y-85614001D01*
X63500000Y-86614000D02*
X63500000Y-72390000D01*
X62396001Y-50529999D02*
X63396000Y-49530000D01*
X62070999Y-70960999D02*
X62070999Y-50855001D01*
X62070999Y-50855001D02*
X62396001Y-50529999D01*
X63500000Y-72390000D02*
X62070999Y-70960999D01*
X57000000Y-35052000D02*
X63500000Y-35052000D01*
X61724990Y-33276990D02*
X61724990Y-29729598D01*
X63500000Y-35052000D02*
X61724990Y-33276990D01*
X170434000Y-39878000D02*
X176934000Y-39878000D01*
X152296000Y-39878000D02*
X152908000Y-39878000D01*
X141628000Y-50546000D02*
X152296000Y-39878000D01*
X159408000Y-39878000D02*
X152908000Y-39878000D01*
X141628000Y-50546000D02*
X135128000Y-50546000D01*
X152908000Y-46378000D02*
X152908000Y-50546000D01*
X159408000Y-39878000D02*
X152908000Y-46378000D01*
X152908000Y-50546000D02*
X159408000Y-50546000D01*
X159512000Y-39878000D02*
X159408000Y-39878000D01*
X170180000Y-50546000D02*
X159512000Y-39878000D01*
X170180000Y-50546000D02*
X176680000Y-50546000D01*
X217678000Y-92964000D02*
X218728000Y-92964000D01*
X188618000Y-74930000D02*
X182118000Y-74930000D01*
X56896000Y-49530000D02*
X63396000Y-49530000D01*
X63396000Y-35156000D02*
X63500000Y-35052000D01*
X63396000Y-49530000D02*
X63396000Y-35156000D01*
X61724990Y-29729598D02*
X66301294Y-25153294D01*
X134128001Y-27702001D02*
X131579294Y-25153294D01*
X134636001Y-27702001D02*
X134128001Y-27702001D01*
X135636000Y-28702000D02*
X134636001Y-27702001D01*
X66301294Y-25153294D02*
X131579294Y-25153294D01*
X135382000Y-39878000D02*
X141882000Y-39878000D01*
X176934000Y-28702000D02*
X190754000Y-28702000D01*
X194111089Y-32059089D02*
X218130911Y-32059089D01*
X190754000Y-28702000D02*
X194111089Y-32059089D01*
X221813911Y-35742089D02*
X221813911Y-39298089D01*
X221813911Y-35742089D02*
X218130911Y-32059089D01*
X221886000Y-39370178D02*
X221886000Y-89806000D01*
X221813911Y-39298089D02*
X221886000Y-39370178D01*
X218728000Y-92964000D02*
X221886000Y-89806000D01*
X135636000Y-33202000D02*
X142136000Y-33202000D01*
X218477999Y-76924001D02*
X217678000Y-77724000D01*
X135382000Y-44378000D02*
X141882000Y-44378000D01*
X136542213Y-55046000D02*
X141628000Y-55046000D01*
X135128000Y-55046000D02*
X136542213Y-55046000D01*
X218440000Y-71882000D02*
X217678000Y-72644000D01*
X152908000Y-33202000D02*
X159408000Y-33202000D01*
X218803001Y-71518999D02*
X217678000Y-72644000D01*
X218803001Y-67023999D02*
X218803001Y-71518999D01*
X218218001Y-66438999D02*
X218803001Y-67023999D01*
X217427997Y-66438999D02*
X218218001Y-66438999D01*
X216552999Y-65564001D02*
X217427997Y-66438999D01*
X216552999Y-64483999D02*
X216552999Y-65564001D01*
X159408000Y-33202000D02*
X161766000Y-35560000D01*
X161766000Y-35560000D02*
X186548998Y-35560000D01*
X186548998Y-35560000D02*
X201897999Y-50909001D01*
X219772795Y-62292795D02*
X218166591Y-63898999D01*
X217137999Y-63898999D02*
X216552999Y-64483999D01*
X218166591Y-63898999D02*
X217137999Y-63898999D01*
X219772795Y-57833793D02*
X219772795Y-62292795D01*
X209498989Y-55828989D02*
X216864989Y-55828989D01*
X218218001Y-56278999D02*
X219772795Y-57833793D01*
X216864989Y-55828989D02*
X217314999Y-56278999D01*
X217314999Y-56278999D02*
X218218001Y-56278999D01*
X204579001Y-50909001D02*
X209498989Y-55828989D01*
X201897999Y-50909001D02*
X204579001Y-50909001D01*
X201897999Y-71229001D02*
X216552999Y-71229001D01*
X196143008Y-65474010D02*
X201897999Y-71229001D01*
X179736592Y-65474010D02*
X196143008Y-65474010D01*
X216552999Y-71229001D02*
X216878001Y-70903999D01*
X169119601Y-76091001D02*
X179736592Y-65474010D01*
X167684399Y-76091001D02*
X169119601Y-76091001D01*
X158082999Y-66489601D02*
X167684399Y-76091001D01*
X216878001Y-70903999D02*
X217678000Y-70104000D01*
X158082999Y-54409999D02*
X158082999Y-66489601D01*
X159408000Y-44378000D02*
X159408000Y-46886000D01*
X161491499Y-48969499D02*
X161491499Y-51001499D01*
X159408000Y-46886000D02*
X161491499Y-48969499D01*
X161491499Y-51001499D02*
X158082999Y-54409999D01*
X210820000Y-67564000D02*
X217678000Y-67564000D01*
X204614999Y-61358999D02*
X210820000Y-67564000D01*
X167135212Y-61358999D02*
X204614999Y-61358999D01*
X160822213Y-55046000D02*
X167135212Y-61358999D01*
X159408000Y-55046000D02*
X160822213Y-55046000D01*
X170434000Y-33202000D02*
X176934000Y-33202000D01*
X218218001Y-53738999D02*
X220599000Y-56119998D01*
X209694999Y-53738999D02*
X218218001Y-53738999D01*
X220599000Y-62103000D02*
X217678000Y-65024000D01*
X203563001Y-47607001D02*
X209694999Y-53738999D01*
X202074999Y-46118999D02*
X202978001Y-46118999D01*
X202978001Y-46118999D02*
X203563001Y-46703999D01*
X189158000Y-33202000D02*
X202074999Y-46118999D01*
X220599000Y-56119998D02*
X220599000Y-62103000D01*
X203563001Y-46703999D02*
X203563001Y-47607001D01*
X176934000Y-33202000D02*
X189158000Y-33202000D01*
X218477999Y-61684001D02*
X217678000Y-62484000D01*
X218803001Y-61358999D02*
X218477999Y-61684001D01*
X218803001Y-59403999D02*
X218803001Y-61358999D01*
X218218001Y-58818999D02*
X218803001Y-59403999D01*
X214649409Y-56278999D02*
X217189409Y-58818999D01*
X188834999Y-56278999D02*
X214649409Y-56278999D01*
X217189409Y-58818999D02*
X218218001Y-58818999D01*
X176934000Y-44378000D02*
X188834999Y-56278999D01*
X170434000Y-44378000D02*
X176934000Y-44378000D01*
X216263001Y-58529001D02*
X216878001Y-59144001D01*
X216878001Y-59144001D02*
X217678000Y-59944000D01*
X180163001Y-58529001D02*
X216263001Y-58529001D01*
X176680000Y-55046000D02*
X180163001Y-58529001D01*
X170180000Y-55046000D02*
X176680000Y-55046000D01*
X58414213Y-91114000D02*
X63500000Y-91114000D01*
X57000000Y-91114000D02*
X58414213Y-91114000D01*
X218803001Y-83929001D02*
X217678000Y-82804000D01*
X218218001Y-91549001D02*
X218803001Y-90964001D01*
X218803001Y-90964001D02*
X218803001Y-83929001D01*
X216552999Y-91903999D02*
X216907997Y-91549001D01*
X63500000Y-91114000D02*
X63500000Y-95758000D01*
X63500000Y-95758000D02*
X69138499Y-101396499D01*
X69138499Y-101396499D02*
X207060499Y-101396499D01*
X216907997Y-91549001D02*
X218218001Y-91549001D01*
X210551499Y-98094499D02*
X216552999Y-92092999D01*
X210362499Y-98094499D02*
X210551499Y-98094499D01*
X216552999Y-92092999D02*
X216552999Y-91903999D01*
X207060499Y-101396499D02*
X210362499Y-98094499D01*
X63500000Y-67890000D02*
X65096000Y-67890000D01*
X65096000Y-67890000D02*
X67564000Y-70358000D01*
X67564000Y-70358000D02*
X67564000Y-95758000D01*
X204393000Y-100584000D02*
X204558500Y-100418500D01*
X72390000Y-100584000D02*
X204393000Y-100584000D01*
X204558500Y-100418500D02*
X207352500Y-97624500D01*
X67564000Y-95758000D02*
X72390000Y-100584000D01*
X63396000Y-54030000D02*
X63396000Y-64666000D01*
X63396000Y-64666000D02*
X69342000Y-70612000D01*
X69342000Y-70612000D02*
X69342000Y-95504000D01*
X212775000Y-94742000D02*
X215099500Y-92417500D01*
X208788000Y-94742000D02*
X212775000Y-94742000D01*
X215138000Y-92379000D02*
X215138000Y-92202000D01*
X215099500Y-92417500D02*
X215138000Y-92379000D01*
X204343000Y-99187000D02*
X73025000Y-99187000D01*
X69342000Y-95504000D02*
X73025000Y-99187000D01*
X204343000Y-99187000D02*
X208788000Y-94742000D01*
X213614000Y-90424000D02*
X217678000Y-90424000D01*
X209804000Y-86614000D02*
X213614000Y-90424000D01*
X195072000Y-86614000D02*
X209804000Y-86614000D01*
X192876301Y-84418301D02*
X195072000Y-86614000D01*
X68178001Y-35230001D02*
X103883399Y-35230001D01*
X63500000Y-30552000D02*
X68178001Y-35230001D01*
X147610699Y-78957301D02*
X164882699Y-78957301D01*
X103883399Y-35230001D02*
X147610699Y-78957301D01*
X165739001Y-78100999D02*
X172343001Y-78100999D01*
X164882699Y-78957301D02*
X165739001Y-78100999D01*
X172343001Y-78100999D02*
X173490002Y-79248000D01*
X177111398Y-79248000D02*
X182281699Y-84418301D01*
X173490002Y-79248000D02*
X177111398Y-79248000D01*
X182281699Y-84418301D02*
X192876301Y-84418301D01*
X177974000Y-65024000D02*
X202438000Y-65024000D01*
X168402000Y-74596000D02*
X177974000Y-65024000D01*
X177800000Y-68580000D02*
X179070000Y-67310000D01*
X179070000Y-67310000D02*
X192278000Y-67310000D01*
X192278000Y-67310000D02*
X194056000Y-69088000D01*
X194056000Y-69088000D02*
X194056000Y-69088000D01*
X119533999Y-72209999D02*
X118364000Y-71040000D01*
X120215999Y-72209999D02*
X119533999Y-72209999D01*
X193802000Y-66548000D02*
X202438000Y-75184000D01*
X189738000Y-66548000D02*
X193802000Y-66548000D01*
X202438000Y-77724000D02*
X195326000Y-70612000D01*
X195326000Y-70612000D02*
X182372000Y-70612000D01*
X182372000Y-70612000D02*
X180594000Y-68834000D01*
X180594000Y-68834000D02*
X180340000Y-68834000D01*
X180594000Y-68834000D02*
X180594000Y-68834000D01*
X74883000Y-31242000D02*
X72390000Y-33735000D01*
X80010000Y-31242000D02*
X74883000Y-31242000D01*
X112079001Y-58993001D02*
X118429001Y-58993001D01*
X111252000Y-58166000D02*
X112079001Y-58993001D01*
X118429001Y-58993001D02*
X126746000Y-67310000D01*
X126746000Y-67310000D02*
X132842000Y-67310000D01*
X132842000Y-67310000D02*
X132842000Y-67310000D01*
X139700000Y-67310000D02*
X139700000Y-67310000D01*
X200274999Y-78100999D02*
X202438000Y-80264000D01*
X173867001Y-78100999D02*
X200274999Y-78100999D01*
X164469001Y-78100999D02*
X165354000Y-77216000D01*
X172982002Y-77216000D02*
X173867001Y-78100999D01*
X165354000Y-77216000D02*
X172982002Y-77216000D01*
X141224000Y-67310000D02*
X152014999Y-78100999D01*
X152014999Y-78100999D02*
X164469001Y-78100999D01*
X139700000Y-67310000D02*
X141224000Y-67310000D01*
X202358000Y-87804000D02*
X202438000Y-87884000D01*
X194484000Y-87804000D02*
X202358000Y-87804000D01*
X192960000Y-87804000D02*
X194484000Y-87804000D01*
X179610311Y-84868311D02*
X190024311Y-84868311D01*
X175507999Y-80765999D02*
X179610311Y-84868311D01*
X169571999Y-80765999D02*
X175507999Y-80765999D01*
X190024311Y-84868311D02*
X192960000Y-87804000D01*
X168402000Y-79596000D02*
X169571999Y-80765999D01*
X62174999Y-29915999D02*
X62863999Y-29226999D01*
X62174999Y-31188001D02*
X62174999Y-29915999D01*
X69721998Y-38735000D02*
X62174999Y-31188001D01*
X72390000Y-38735000D02*
X69721998Y-38735000D01*
X99695000Y-66040000D02*
X118364000Y-66040000D01*
X72390000Y-38735000D02*
X99695000Y-66040000D01*
X73885001Y-55654999D02*
X73559999Y-55980001D01*
X73885001Y-40230001D02*
X73885001Y-55654999D01*
X73559999Y-55980001D02*
X72390000Y-57150000D01*
X72390000Y-38735000D02*
X73885001Y-40230001D01*
X109601000Y-75565000D02*
X118364000Y-84328000D01*
X72390000Y-75565000D02*
X109601000Y-75565000D01*
X124460000Y-90424000D02*
X202438000Y-90424000D01*
X118364000Y-84328000D02*
X124460000Y-90424000D01*
X137058989Y-66192989D02*
X152298989Y-66192989D01*
X118364000Y-47498000D02*
X137058989Y-66192989D01*
X152298989Y-66192989D02*
X153924000Y-67818000D01*
X153924000Y-67818000D02*
X153924000Y-67818000D01*
X116868999Y-30451001D02*
X118364000Y-28956000D01*
X116868999Y-46002999D02*
X116868999Y-30451001D01*
X118364000Y-47498000D02*
X116868999Y-46002999D01*
X115062000Y-69342000D02*
X118364000Y-66040000D01*
X118364000Y-80010000D02*
X115062000Y-76708000D01*
X115062000Y-76708000D02*
X115062000Y-69342000D01*
X118364000Y-84328000D02*
X118364000Y-80010000D01*
X118364000Y-28956000D02*
X81280000Y-28956000D01*
X79563999Y-27239999D02*
X65757999Y-27239999D01*
X65757999Y-27239999D02*
X63770999Y-29226999D01*
X81280000Y-28956000D02*
X79563999Y-27239999D01*
X62863999Y-29226999D02*
X63770999Y-29226999D01*
X73559999Y-74395001D02*
X72390000Y-75565000D01*
X73914000Y-74041000D02*
X73559999Y-74395001D01*
X73914000Y-58674000D02*
X73914000Y-74041000D01*
X72390000Y-57150000D02*
X73914000Y-58674000D01*
X73559999Y-93445001D02*
X72390000Y-94615000D01*
X74358500Y-92646500D02*
X73559999Y-93445001D01*
X74358500Y-77533500D02*
X74358500Y-92646500D01*
X72390000Y-75565000D02*
X74358500Y-77533500D01*
X118364000Y-84328000D02*
X85852000Y-84328000D01*
X75565000Y-94615000D02*
X72390000Y-94615000D01*
X85852000Y-84328000D02*
X75565000Y-94615000D01*
M02*
