G04 #@! TF.GenerationSoftware,KiCad,Pcbnew,(5.1.4-0-10_14)*
G04 #@! TF.CreationDate,2020-08-23T12:41:51+02:00*
G04 #@! TF.ProjectId,the_mvp,7468655f-6d76-4702-9e6b-696361645f70,1.0*
G04 #@! TF.SameCoordinates,Original*
G04 #@! TF.FileFunction,Soldermask,Bot*
G04 #@! TF.FilePolarity,Negative*
%FSLAX46Y46*%
G04 Gerber Fmt 4.6, Leading zero omitted, Abs format (unit mm)*
G04 Created by KiCad (PCBNEW (5.1.4-0-10_14)) date 2020-08-23 12:41:51*
%MOMM*%
%LPD*%
G04 APERTURE LIST*
%ADD10C,0.100000*%
G04 APERTURE END LIST*
D10*
G36*
X72746153Y-93440922D02*
G01*
X72838194Y-93479047D01*
X72968359Y-93532963D01*
X73168342Y-93666587D01*
X73338413Y-93836658D01*
X73472037Y-94036641D01*
X73564078Y-94258848D01*
X73611000Y-94494741D01*
X73611000Y-94735259D01*
X73564078Y-94971152D01*
X73472037Y-95193359D01*
X73338413Y-95393342D01*
X73168342Y-95563413D01*
X72968359Y-95697037D01*
X72838194Y-95750953D01*
X72746153Y-95789078D01*
X72628205Y-95812539D01*
X72510259Y-95836000D01*
X72269741Y-95836000D01*
X72151795Y-95812539D01*
X72033847Y-95789078D01*
X71941806Y-95750953D01*
X71811641Y-95697037D01*
X71611658Y-95563413D01*
X71441587Y-95393342D01*
X71307963Y-95193359D01*
X71215922Y-94971152D01*
X71169000Y-94735259D01*
X71169000Y-94494741D01*
X71215922Y-94258848D01*
X71307963Y-94036641D01*
X71441587Y-93836658D01*
X71611658Y-93666587D01*
X71811641Y-93532963D01*
X71941806Y-93479047D01*
X72033847Y-93440922D01*
X72269741Y-93394000D01*
X72510259Y-93394000D01*
X72746153Y-93440922D01*
X72746153Y-93440922D01*
G37*
G36*
X118602205Y-93130461D02*
G01*
X118720153Y-93153922D01*
X118812194Y-93192047D01*
X118942359Y-93245963D01*
X119142342Y-93379587D01*
X119312413Y-93549658D01*
X119446037Y-93749641D01*
X119538078Y-93971848D01*
X119585000Y-94207741D01*
X119585000Y-94448259D01*
X119538078Y-94684152D01*
X119446037Y-94906359D01*
X119312413Y-95106342D01*
X119142342Y-95276413D01*
X118942359Y-95410037D01*
X118812194Y-95463953D01*
X118720153Y-95502078D01*
X118602205Y-95525539D01*
X118484259Y-95549000D01*
X118243741Y-95549000D01*
X118125795Y-95525539D01*
X118007847Y-95502078D01*
X117915806Y-95463953D01*
X117785641Y-95410037D01*
X117585658Y-95276413D01*
X117415587Y-95106342D01*
X117281963Y-94906359D01*
X117189922Y-94684152D01*
X117143000Y-94448259D01*
X117143000Y-94207741D01*
X117189922Y-93971848D01*
X117281963Y-93749641D01*
X117415587Y-93549658D01*
X117585658Y-93379587D01*
X117785641Y-93245963D01*
X117915806Y-93192047D01*
X118007847Y-93153922D01*
X118125795Y-93130461D01*
X118243741Y-93107000D01*
X118484259Y-93107000D01*
X118602205Y-93130461D01*
X118602205Y-93130461D01*
G37*
G36*
X218529000Y-93815000D02*
G01*
X216827000Y-93815000D01*
X216827000Y-92113000D01*
X218529000Y-92113000D01*
X218529000Y-93815000D01*
X218529000Y-93815000D01*
G37*
G36*
X202686228Y-92145703D02*
G01*
X202841100Y-92209853D01*
X202980481Y-92302985D01*
X203099015Y-92421519D01*
X203192147Y-92560900D01*
X203256297Y-92715772D01*
X203289000Y-92880184D01*
X203289000Y-93047816D01*
X203256297Y-93212228D01*
X203192147Y-93367100D01*
X203099015Y-93506481D01*
X202980481Y-93625015D01*
X202841100Y-93718147D01*
X202686228Y-93782297D01*
X202521816Y-93815000D01*
X202354184Y-93815000D01*
X202189772Y-93782297D01*
X202034900Y-93718147D01*
X201895519Y-93625015D01*
X201776985Y-93506481D01*
X201683853Y-93367100D01*
X201619703Y-93212228D01*
X201587000Y-93047816D01*
X201587000Y-92880184D01*
X201619703Y-92715772D01*
X201683853Y-92560900D01*
X201776985Y-92421519D01*
X201895519Y-92302985D01*
X202034900Y-92209853D01*
X202189772Y-92145703D01*
X202354184Y-92113000D01*
X202521816Y-92113000D01*
X202686228Y-92145703D01*
X202686228Y-92145703D01*
G37*
G36*
X208992473Y-91559938D02*
G01*
X209120049Y-91612782D01*
X209234859Y-91689495D01*
X209332505Y-91787141D01*
X209409218Y-91901951D01*
X209462062Y-92029527D01*
X209489000Y-92164956D01*
X209489000Y-92303044D01*
X209462062Y-92438473D01*
X209409218Y-92566049D01*
X209332505Y-92680859D01*
X209234859Y-92778505D01*
X209120049Y-92855218D01*
X208992473Y-92908062D01*
X208857044Y-92935000D01*
X208718956Y-92935000D01*
X208583527Y-92908062D01*
X208455951Y-92855218D01*
X208341141Y-92778505D01*
X208243495Y-92680859D01*
X208166782Y-92566049D01*
X208113938Y-92438473D01*
X208087000Y-92303044D01*
X208087000Y-92164956D01*
X208113938Y-92029527D01*
X208166782Y-91901951D01*
X208243495Y-91787141D01*
X208341141Y-91689495D01*
X208455951Y-91612782D01*
X208583527Y-91559938D01*
X208718956Y-91533000D01*
X208857044Y-91533000D01*
X208992473Y-91559938D01*
X208992473Y-91559938D01*
G37*
G36*
X211532473Y-91559938D02*
G01*
X211660049Y-91612782D01*
X211774859Y-91689495D01*
X211872505Y-91787141D01*
X211949218Y-91901951D01*
X212002062Y-92029527D01*
X212029000Y-92164956D01*
X212029000Y-92303044D01*
X212002062Y-92438473D01*
X211949218Y-92566049D01*
X211872505Y-92680859D01*
X211774859Y-92778505D01*
X211660049Y-92855218D01*
X211532473Y-92908062D01*
X211397044Y-92935000D01*
X211258956Y-92935000D01*
X211123527Y-92908062D01*
X210995951Y-92855218D01*
X210881141Y-92778505D01*
X210783495Y-92680859D01*
X210706782Y-92566049D01*
X210653938Y-92438473D01*
X210627000Y-92303044D01*
X210627000Y-92164956D01*
X210653938Y-92029527D01*
X210706782Y-91901951D01*
X210783495Y-91787141D01*
X210881141Y-91689495D01*
X210995951Y-91612782D01*
X211123527Y-91559938D01*
X211258956Y-91533000D01*
X211397044Y-91533000D01*
X211532473Y-91559938D01*
X211532473Y-91559938D01*
G37*
G36*
X57306564Y-90103389D02*
G01*
X57481310Y-90175771D01*
X57497835Y-90182616D01*
X57638212Y-90276413D01*
X57669973Y-90297635D01*
X57816365Y-90444027D01*
X57931385Y-90616167D01*
X58010611Y-90807436D01*
X58051000Y-91010484D01*
X58051000Y-91217516D01*
X58010611Y-91420564D01*
X57952880Y-91559939D01*
X57931384Y-91611835D01*
X57816365Y-91783973D01*
X57669973Y-91930365D01*
X57497835Y-92045384D01*
X57497834Y-92045385D01*
X57497833Y-92045385D01*
X57306564Y-92124611D01*
X57103516Y-92165000D01*
X56896484Y-92165000D01*
X56693436Y-92124611D01*
X56502167Y-92045385D01*
X56502166Y-92045385D01*
X56502165Y-92045384D01*
X56330027Y-91930365D01*
X56183635Y-91783973D01*
X56068616Y-91611835D01*
X56047120Y-91559939D01*
X55989389Y-91420564D01*
X55949000Y-91217516D01*
X55949000Y-91010484D01*
X55989389Y-90807436D01*
X56068615Y-90616167D01*
X56183635Y-90444027D01*
X56330027Y-90297635D01*
X56361788Y-90276413D01*
X56502165Y-90182616D01*
X56518690Y-90175771D01*
X56693436Y-90103389D01*
X56896484Y-90063000D01*
X57103516Y-90063000D01*
X57306564Y-90103389D01*
X57306564Y-90103389D01*
G37*
G36*
X63806564Y-90103389D02*
G01*
X63981310Y-90175771D01*
X63997835Y-90182616D01*
X64138212Y-90276413D01*
X64169973Y-90297635D01*
X64316365Y-90444027D01*
X64431385Y-90616167D01*
X64510611Y-90807436D01*
X64551000Y-91010484D01*
X64551000Y-91217516D01*
X64510611Y-91420564D01*
X64452880Y-91559939D01*
X64431384Y-91611835D01*
X64316365Y-91783973D01*
X64169973Y-91930365D01*
X63997835Y-92045384D01*
X63997834Y-92045385D01*
X63997833Y-92045385D01*
X63806564Y-92124611D01*
X63603516Y-92165000D01*
X63396484Y-92165000D01*
X63193436Y-92124611D01*
X63002167Y-92045385D01*
X63002166Y-92045385D01*
X63002165Y-92045384D01*
X62830027Y-91930365D01*
X62683635Y-91783973D01*
X62568616Y-91611835D01*
X62547120Y-91559939D01*
X62489389Y-91420564D01*
X62449000Y-91217516D01*
X62449000Y-91010484D01*
X62489389Y-90807436D01*
X62568615Y-90616167D01*
X62683635Y-90444027D01*
X62830027Y-90297635D01*
X62861788Y-90276413D01*
X63002165Y-90182616D01*
X63018690Y-90175771D01*
X63193436Y-90103389D01*
X63396484Y-90063000D01*
X63603516Y-90063000D01*
X63806564Y-90103389D01*
X63806564Y-90103389D01*
G37*
G36*
X205226228Y-89605703D02*
G01*
X205381100Y-89669853D01*
X205520481Y-89762985D01*
X205639015Y-89881519D01*
X205732147Y-90020900D01*
X205796297Y-90175772D01*
X205829000Y-90340184D01*
X205829000Y-90507816D01*
X205796297Y-90672228D01*
X205732147Y-90827100D01*
X205639015Y-90966481D01*
X205520481Y-91085015D01*
X205381100Y-91178147D01*
X205226228Y-91242297D01*
X205061816Y-91275000D01*
X204894184Y-91275000D01*
X204729772Y-91242297D01*
X204574900Y-91178147D01*
X204435519Y-91085015D01*
X204316985Y-90966481D01*
X204223853Y-90827100D01*
X204159703Y-90672228D01*
X204127000Y-90507816D01*
X204127000Y-90340184D01*
X204159703Y-90175772D01*
X204223853Y-90020900D01*
X204316985Y-89881519D01*
X204435519Y-89762985D01*
X204574900Y-89669853D01*
X204729772Y-89605703D01*
X204894184Y-89573000D01*
X205061816Y-89573000D01*
X205226228Y-89605703D01*
X205226228Y-89605703D01*
G37*
G36*
X217926228Y-89605703D02*
G01*
X218081100Y-89669853D01*
X218220481Y-89762985D01*
X218339015Y-89881519D01*
X218432147Y-90020900D01*
X218496297Y-90175772D01*
X218529000Y-90340184D01*
X218529000Y-90507816D01*
X218496297Y-90672228D01*
X218432147Y-90827100D01*
X218339015Y-90966481D01*
X218220481Y-91085015D01*
X218081100Y-91178147D01*
X217926228Y-91242297D01*
X217761816Y-91275000D01*
X217594184Y-91275000D01*
X217429772Y-91242297D01*
X217274900Y-91178147D01*
X217135519Y-91085015D01*
X217016985Y-90966481D01*
X216923853Y-90827100D01*
X216859703Y-90672228D01*
X216827000Y-90507816D01*
X216827000Y-90340184D01*
X216859703Y-90175772D01*
X216923853Y-90020900D01*
X217016985Y-89881519D01*
X217135519Y-89762985D01*
X217274900Y-89669853D01*
X217429772Y-89605703D01*
X217594184Y-89573000D01*
X217761816Y-89573000D01*
X217926228Y-89605703D01*
X217926228Y-89605703D01*
G37*
G36*
X202686228Y-89605703D02*
G01*
X202841100Y-89669853D01*
X202980481Y-89762985D01*
X203099015Y-89881519D01*
X203192147Y-90020900D01*
X203256297Y-90175772D01*
X203289000Y-90340184D01*
X203289000Y-90507816D01*
X203256297Y-90672228D01*
X203192147Y-90827100D01*
X203099015Y-90966481D01*
X202980481Y-91085015D01*
X202841100Y-91178147D01*
X202686228Y-91242297D01*
X202521816Y-91275000D01*
X202354184Y-91275000D01*
X202189772Y-91242297D01*
X202034900Y-91178147D01*
X201895519Y-91085015D01*
X201776985Y-90966481D01*
X201683853Y-90827100D01*
X201619703Y-90672228D01*
X201587000Y-90507816D01*
X201587000Y-90340184D01*
X201619703Y-90175772D01*
X201683853Y-90020900D01*
X201776985Y-89881519D01*
X201895519Y-89762985D01*
X202034900Y-89669853D01*
X202189772Y-89605703D01*
X202354184Y-89573000D01*
X202521816Y-89573000D01*
X202686228Y-89605703D01*
X202686228Y-89605703D01*
G37*
G36*
X72746153Y-88440922D02*
G01*
X72838194Y-88479047D01*
X72968359Y-88532963D01*
X73168342Y-88666587D01*
X73338413Y-88836658D01*
X73472037Y-89036641D01*
X73525953Y-89166806D01*
X73564078Y-89258847D01*
X73611000Y-89494742D01*
X73611000Y-89735258D01*
X73564078Y-89971153D01*
X73526033Y-90063000D01*
X73472037Y-90193359D01*
X73338413Y-90393342D01*
X73168342Y-90563413D01*
X72968359Y-90697037D01*
X72838194Y-90750953D01*
X72746153Y-90789078D01*
X72653865Y-90807435D01*
X72510259Y-90836000D01*
X72269741Y-90836000D01*
X72126135Y-90807435D01*
X72033847Y-90789078D01*
X71941806Y-90750953D01*
X71811641Y-90697037D01*
X71611658Y-90563413D01*
X71441587Y-90393342D01*
X71307963Y-90193359D01*
X71253967Y-90063000D01*
X71215922Y-89971153D01*
X71169000Y-89735258D01*
X71169000Y-89494742D01*
X71215922Y-89258847D01*
X71254047Y-89166806D01*
X71307963Y-89036641D01*
X71441587Y-88836658D01*
X71611658Y-88666587D01*
X71811641Y-88532963D01*
X71941806Y-88479047D01*
X72033847Y-88440922D01*
X72269741Y-88394000D01*
X72510259Y-88394000D01*
X72746153Y-88440922D01*
X72746153Y-88440922D01*
G37*
G36*
X118602205Y-88130461D02*
G01*
X118720153Y-88153922D01*
X118812194Y-88192047D01*
X118942359Y-88245963D01*
X119142342Y-88379587D01*
X119312413Y-88549658D01*
X119446037Y-88749641D01*
X119499953Y-88879806D01*
X119538078Y-88971847D01*
X119585000Y-89207742D01*
X119585000Y-89448258D01*
X119540923Y-89669852D01*
X119538078Y-89684152D01*
X119446037Y-89906359D01*
X119312413Y-90106342D01*
X119142342Y-90276413D01*
X118942359Y-90410037D01*
X118812194Y-90463953D01*
X118720153Y-90502078D01*
X118602205Y-90525539D01*
X118484259Y-90549000D01*
X118243741Y-90549000D01*
X118125795Y-90525539D01*
X118007847Y-90502078D01*
X117915806Y-90463953D01*
X117785641Y-90410037D01*
X117585658Y-90276413D01*
X117415587Y-90106342D01*
X117281963Y-89906359D01*
X117189922Y-89684152D01*
X117187078Y-89669852D01*
X117143000Y-89448258D01*
X117143000Y-89207742D01*
X117189922Y-88971847D01*
X117228047Y-88879806D01*
X117281963Y-88749641D01*
X117415587Y-88549658D01*
X117585658Y-88379587D01*
X117785641Y-88245963D01*
X117915806Y-88192047D01*
X118007847Y-88153922D01*
X118243741Y-88107000D01*
X118484259Y-88107000D01*
X118602205Y-88130461D01*
X118602205Y-88130461D01*
G37*
G36*
X202686228Y-87065703D02*
G01*
X202841100Y-87129853D01*
X202980481Y-87222985D01*
X203099015Y-87341519D01*
X203192147Y-87480900D01*
X203256297Y-87635772D01*
X203289000Y-87800184D01*
X203289000Y-87967816D01*
X203256297Y-88132228D01*
X203192147Y-88287100D01*
X203099015Y-88426481D01*
X202980481Y-88545015D01*
X202841100Y-88638147D01*
X202686228Y-88702297D01*
X202521816Y-88735000D01*
X202354184Y-88735000D01*
X202189772Y-88702297D01*
X202034900Y-88638147D01*
X201895519Y-88545015D01*
X201776985Y-88426481D01*
X201683853Y-88287100D01*
X201619703Y-88132228D01*
X201587000Y-87967816D01*
X201587000Y-87800184D01*
X201619703Y-87635772D01*
X201683853Y-87480900D01*
X201776985Y-87341519D01*
X201895519Y-87222985D01*
X202034900Y-87129853D01*
X202189772Y-87065703D01*
X202354184Y-87033000D01*
X202521816Y-87033000D01*
X202686228Y-87065703D01*
X202686228Y-87065703D01*
G37*
G36*
X217926228Y-87065703D02*
G01*
X218081100Y-87129853D01*
X218220481Y-87222985D01*
X218339015Y-87341519D01*
X218432147Y-87480900D01*
X218496297Y-87635772D01*
X218529000Y-87800184D01*
X218529000Y-87967816D01*
X218496297Y-88132228D01*
X218432147Y-88287100D01*
X218339015Y-88426481D01*
X218220481Y-88545015D01*
X218081100Y-88638147D01*
X217926228Y-88702297D01*
X217761816Y-88735000D01*
X217594184Y-88735000D01*
X217429772Y-88702297D01*
X217274900Y-88638147D01*
X217135519Y-88545015D01*
X217016985Y-88426481D01*
X216923853Y-88287100D01*
X216859703Y-88132228D01*
X216827000Y-87967816D01*
X216827000Y-87800184D01*
X216859703Y-87635772D01*
X216923853Y-87480900D01*
X217016985Y-87341519D01*
X217135519Y-87222985D01*
X217274900Y-87129853D01*
X217429772Y-87065703D01*
X217594184Y-87033000D01*
X217761816Y-87033000D01*
X217926228Y-87065703D01*
X217926228Y-87065703D01*
G37*
G36*
X63806564Y-85603389D02*
G01*
X63997833Y-85682615D01*
X63997835Y-85682616D01*
X64169973Y-85797635D01*
X64316365Y-85944027D01*
X64419345Y-86098147D01*
X64431385Y-86116167D01*
X64510611Y-86307436D01*
X64551000Y-86510484D01*
X64551000Y-86717516D01*
X64510611Y-86920564D01*
X64450492Y-87065705D01*
X64431384Y-87111835D01*
X64316365Y-87283973D01*
X64169973Y-87430365D01*
X63997835Y-87545384D01*
X63997834Y-87545385D01*
X63997833Y-87545385D01*
X63806564Y-87624611D01*
X63603516Y-87665000D01*
X63396484Y-87665000D01*
X63193436Y-87624611D01*
X63002167Y-87545385D01*
X63002166Y-87545385D01*
X63002165Y-87545384D01*
X62830027Y-87430365D01*
X62683635Y-87283973D01*
X62568616Y-87111835D01*
X62549508Y-87065705D01*
X62489389Y-86920564D01*
X62449000Y-86717516D01*
X62449000Y-86510484D01*
X62489389Y-86307436D01*
X62568615Y-86116167D01*
X62580656Y-86098147D01*
X62683635Y-85944027D01*
X62830027Y-85797635D01*
X63002165Y-85682616D01*
X63002167Y-85682615D01*
X63193436Y-85603389D01*
X63396484Y-85563000D01*
X63603516Y-85563000D01*
X63806564Y-85603389D01*
X63806564Y-85603389D01*
G37*
G36*
X57306564Y-85603389D02*
G01*
X57497833Y-85682615D01*
X57497835Y-85682616D01*
X57669973Y-85797635D01*
X57816365Y-85944027D01*
X57919345Y-86098147D01*
X57931385Y-86116167D01*
X58010611Y-86307436D01*
X58051000Y-86510484D01*
X58051000Y-86717516D01*
X58010611Y-86920564D01*
X57950492Y-87065705D01*
X57931384Y-87111835D01*
X57816365Y-87283973D01*
X57669973Y-87430365D01*
X57497835Y-87545384D01*
X57497834Y-87545385D01*
X57497833Y-87545385D01*
X57306564Y-87624611D01*
X57103516Y-87665000D01*
X56896484Y-87665000D01*
X56693436Y-87624611D01*
X56502167Y-87545385D01*
X56502166Y-87545385D01*
X56502165Y-87545384D01*
X56330027Y-87430365D01*
X56183635Y-87283973D01*
X56068616Y-87111835D01*
X56049508Y-87065705D01*
X55989389Y-86920564D01*
X55949000Y-86717516D01*
X55949000Y-86510484D01*
X55989389Y-86307436D01*
X56068615Y-86116167D01*
X56080656Y-86098147D01*
X56183635Y-85944027D01*
X56330027Y-85797635D01*
X56502165Y-85682616D01*
X56502167Y-85682615D01*
X56693436Y-85603389D01*
X56896484Y-85563000D01*
X57103516Y-85563000D01*
X57306564Y-85603389D01*
X57306564Y-85603389D01*
G37*
G36*
X215478200Y-87515800D02*
G01*
X213776200Y-87515800D01*
X213776200Y-85813800D01*
X215478200Y-85813800D01*
X215478200Y-87515800D01*
X215478200Y-87515800D01*
G37*
G36*
X217926228Y-84525703D02*
G01*
X218081100Y-84589853D01*
X218220481Y-84682985D01*
X218339015Y-84801519D01*
X218432147Y-84940900D01*
X218496297Y-85095772D01*
X218529000Y-85260184D01*
X218529000Y-85427816D01*
X218496297Y-85592228D01*
X218432147Y-85747100D01*
X218339015Y-85886481D01*
X218220481Y-86005015D01*
X218081100Y-86098147D01*
X217926228Y-86162297D01*
X217761816Y-86195000D01*
X217594184Y-86195000D01*
X217429772Y-86162297D01*
X217274900Y-86098147D01*
X217135519Y-86005015D01*
X217016985Y-85886481D01*
X216923853Y-85747100D01*
X216859703Y-85592228D01*
X216827000Y-85427816D01*
X216827000Y-85260184D01*
X216859703Y-85095772D01*
X216923853Y-84940900D01*
X217016985Y-84801519D01*
X217135519Y-84682985D01*
X217274900Y-84589853D01*
X217429772Y-84525703D01*
X217594184Y-84493000D01*
X217761816Y-84493000D01*
X217926228Y-84525703D01*
X217926228Y-84525703D01*
G37*
G36*
X202686228Y-84525703D02*
G01*
X202841100Y-84589853D01*
X202980481Y-84682985D01*
X203099015Y-84801519D01*
X203192147Y-84940900D01*
X203256297Y-85095772D01*
X203289000Y-85260184D01*
X203289000Y-85427816D01*
X203256297Y-85592228D01*
X203192147Y-85747100D01*
X203099015Y-85886481D01*
X202980481Y-86005015D01*
X202841100Y-86098147D01*
X202686228Y-86162297D01*
X202521816Y-86195000D01*
X202354184Y-86195000D01*
X202189772Y-86162297D01*
X202034900Y-86098147D01*
X201895519Y-86005015D01*
X201776985Y-85886481D01*
X201683853Y-85747100D01*
X201619703Y-85592228D01*
X201587000Y-85427816D01*
X201587000Y-85260184D01*
X201619703Y-85095772D01*
X201683853Y-84940900D01*
X201776985Y-84801519D01*
X201895519Y-84682985D01*
X202034900Y-84589853D01*
X202189772Y-84525703D01*
X202354184Y-84493000D01*
X202521816Y-84493000D01*
X202686228Y-84525703D01*
X202686228Y-84525703D01*
G37*
G36*
X72746153Y-83440922D02*
G01*
X72804318Y-83465015D01*
X72968359Y-83532963D01*
X73168342Y-83666587D01*
X73338413Y-83836658D01*
X73472037Y-84036641D01*
X73564078Y-84258848D01*
X73610654Y-84493000D01*
X73611000Y-84494742D01*
X73611000Y-84735258D01*
X73569659Y-84943097D01*
X73564078Y-84971152D01*
X73472037Y-85193359D01*
X73338413Y-85393342D01*
X73168342Y-85563413D01*
X72968359Y-85697037D01*
X72847503Y-85747097D01*
X72746153Y-85789078D01*
X72510259Y-85836000D01*
X72269741Y-85836000D01*
X72033847Y-85789078D01*
X71932497Y-85747097D01*
X71811641Y-85697037D01*
X71611658Y-85563413D01*
X71441587Y-85393342D01*
X71307963Y-85193359D01*
X71215922Y-84971152D01*
X71210342Y-84943097D01*
X71169000Y-84735258D01*
X71169000Y-84494742D01*
X71169347Y-84493000D01*
X71215922Y-84258848D01*
X71307963Y-84036641D01*
X71441587Y-83836658D01*
X71611658Y-83666587D01*
X71811641Y-83532963D01*
X71975682Y-83465015D01*
X72033847Y-83440922D01*
X72269741Y-83394000D01*
X72510259Y-83394000D01*
X72746153Y-83440922D01*
X72746153Y-83440922D01*
G37*
G36*
X118720153Y-83153922D02*
G01*
X118812194Y-83192047D01*
X118942359Y-83245963D01*
X119142342Y-83379587D01*
X119312413Y-83549658D01*
X119446037Y-83749641D01*
X119538078Y-83971848D01*
X119585000Y-84207741D01*
X119585000Y-84448259D01*
X119538078Y-84684152D01*
X119446037Y-84906359D01*
X119312413Y-85106342D01*
X119142342Y-85276413D01*
X118942359Y-85410037D01*
X118812194Y-85463953D01*
X118720153Y-85502078D01*
X118484259Y-85549000D01*
X118243741Y-85549000D01*
X118125795Y-85525539D01*
X118007847Y-85502078D01*
X117915806Y-85463953D01*
X117785641Y-85410037D01*
X117585658Y-85276413D01*
X117415587Y-85106342D01*
X117281963Y-84906359D01*
X117189922Y-84684152D01*
X117143000Y-84448259D01*
X117143000Y-84207741D01*
X117189922Y-83971848D01*
X117281963Y-83749641D01*
X117415587Y-83549658D01*
X117585658Y-83379587D01*
X117785641Y-83245963D01*
X117915806Y-83192047D01*
X118007847Y-83153922D01*
X118243741Y-83107000D01*
X118484259Y-83107000D01*
X118720153Y-83153922D01*
X118720153Y-83153922D01*
G37*
G36*
X214875428Y-83306503D02*
G01*
X215030300Y-83370653D01*
X215169681Y-83463785D01*
X215288215Y-83582319D01*
X215381347Y-83721700D01*
X215445497Y-83876572D01*
X215478200Y-84040984D01*
X215478200Y-84208616D01*
X215445497Y-84373028D01*
X215381347Y-84527900D01*
X215288215Y-84667281D01*
X215169681Y-84785815D01*
X215030300Y-84878947D01*
X214875428Y-84943097D01*
X214711016Y-84975800D01*
X214543384Y-84975800D01*
X214378972Y-84943097D01*
X214224100Y-84878947D01*
X214084719Y-84785815D01*
X213966185Y-84667281D01*
X213873053Y-84527900D01*
X213808903Y-84373028D01*
X213776200Y-84208616D01*
X213776200Y-84040984D01*
X213808903Y-83876572D01*
X213873053Y-83721700D01*
X213966185Y-83582319D01*
X214084719Y-83463785D01*
X214224100Y-83370653D01*
X214378972Y-83306503D01*
X214543384Y-83273800D01*
X214711016Y-83273800D01*
X214875428Y-83306503D01*
X214875428Y-83306503D01*
G37*
G36*
X217926228Y-81985703D02*
G01*
X218081100Y-82049853D01*
X218220481Y-82142985D01*
X218339015Y-82261519D01*
X218432147Y-82400900D01*
X218496297Y-82555772D01*
X218529000Y-82720184D01*
X218529000Y-82887816D01*
X218496297Y-83052228D01*
X218432147Y-83207100D01*
X218339015Y-83346481D01*
X218220481Y-83465015D01*
X218081100Y-83558147D01*
X217926228Y-83622297D01*
X217761816Y-83655000D01*
X217594184Y-83655000D01*
X217429772Y-83622297D01*
X217274900Y-83558147D01*
X217135519Y-83465015D01*
X217016985Y-83346481D01*
X216923853Y-83207100D01*
X216859703Y-83052228D01*
X216827000Y-82887816D01*
X216827000Y-82720184D01*
X216859703Y-82555772D01*
X216923853Y-82400900D01*
X217016985Y-82261519D01*
X217135519Y-82142985D01*
X217274900Y-82049853D01*
X217429772Y-81985703D01*
X217594184Y-81953000D01*
X217761816Y-81953000D01*
X217926228Y-81985703D01*
X217926228Y-81985703D01*
G37*
G36*
X202686228Y-81985703D02*
G01*
X202841100Y-82049853D01*
X202980481Y-82142985D01*
X203099015Y-82261519D01*
X203192147Y-82400900D01*
X203256297Y-82555772D01*
X203289000Y-82720184D01*
X203289000Y-82887816D01*
X203256297Y-83052228D01*
X203192147Y-83207100D01*
X203099015Y-83346481D01*
X202980481Y-83465015D01*
X202841100Y-83558147D01*
X202686228Y-83622297D01*
X202521816Y-83655000D01*
X202354184Y-83655000D01*
X202189772Y-83622297D01*
X202034900Y-83558147D01*
X201895519Y-83465015D01*
X201776985Y-83346481D01*
X201683853Y-83207100D01*
X201619703Y-83052228D01*
X201587000Y-82887816D01*
X201587000Y-82720184D01*
X201619703Y-82555772D01*
X201683853Y-82400900D01*
X201776985Y-82261519D01*
X201895519Y-82142985D01*
X202034900Y-82049853D01*
X202189772Y-81985703D01*
X202354184Y-81953000D01*
X202521816Y-81953000D01*
X202686228Y-81985703D01*
X202686228Y-81985703D01*
G37*
G36*
X214875428Y-80766503D02*
G01*
X215030300Y-80830653D01*
X215169681Y-80923785D01*
X215288215Y-81042319D01*
X215381347Y-81181700D01*
X215445497Y-81336572D01*
X215478200Y-81500984D01*
X215478200Y-81668616D01*
X215445497Y-81833028D01*
X215381347Y-81987900D01*
X215288215Y-82127281D01*
X215169681Y-82245815D01*
X215030300Y-82338947D01*
X214875428Y-82403097D01*
X214711016Y-82435800D01*
X214543384Y-82435800D01*
X214378972Y-82403097D01*
X214224100Y-82338947D01*
X214084719Y-82245815D01*
X213966185Y-82127281D01*
X213873053Y-81987900D01*
X213808903Y-81833028D01*
X213776200Y-81668616D01*
X213776200Y-81500984D01*
X213808903Y-81336572D01*
X213873053Y-81181700D01*
X213966185Y-81042319D01*
X214084719Y-80923785D01*
X214224100Y-80830653D01*
X214378972Y-80766503D01*
X214543384Y-80733800D01*
X214711016Y-80733800D01*
X214875428Y-80766503D01*
X214875428Y-80766503D01*
G37*
G36*
X217926228Y-79445703D02*
G01*
X218081100Y-79509853D01*
X218220481Y-79602985D01*
X218339015Y-79721519D01*
X218432147Y-79860900D01*
X218496297Y-80015772D01*
X218529000Y-80180184D01*
X218529000Y-80347816D01*
X218496297Y-80512228D01*
X218432147Y-80667100D01*
X218339015Y-80806481D01*
X218220481Y-80925015D01*
X218081100Y-81018147D01*
X217926228Y-81082297D01*
X217761816Y-81115000D01*
X217594184Y-81115000D01*
X217429772Y-81082297D01*
X217274900Y-81018147D01*
X217135519Y-80925015D01*
X217016985Y-80806481D01*
X216923853Y-80667100D01*
X216859703Y-80512228D01*
X216827000Y-80347816D01*
X216827000Y-80180184D01*
X216859703Y-80015772D01*
X216923853Y-79860900D01*
X217016985Y-79721519D01*
X217135519Y-79602985D01*
X217274900Y-79509853D01*
X217429772Y-79445703D01*
X217594184Y-79413000D01*
X217761816Y-79413000D01*
X217926228Y-79445703D01*
X217926228Y-79445703D01*
G37*
G36*
X202686228Y-79445703D02*
G01*
X202841100Y-79509853D01*
X202980481Y-79602985D01*
X203099015Y-79721519D01*
X203192147Y-79860900D01*
X203256297Y-80015772D01*
X203289000Y-80180184D01*
X203289000Y-80347816D01*
X203256297Y-80512228D01*
X203192147Y-80667100D01*
X203099015Y-80806481D01*
X202980481Y-80925015D01*
X202841100Y-81018147D01*
X202686228Y-81082297D01*
X202521816Y-81115000D01*
X202354184Y-81115000D01*
X202189772Y-81082297D01*
X202034900Y-81018147D01*
X201895519Y-80925015D01*
X201776985Y-80806481D01*
X201683853Y-80667100D01*
X201619703Y-80512228D01*
X201587000Y-80347816D01*
X201587000Y-80180184D01*
X201619703Y-80015772D01*
X201683853Y-79860900D01*
X201776985Y-79721519D01*
X201895519Y-79602985D01*
X202034900Y-79509853D01*
X202189772Y-79445703D01*
X202354184Y-79413000D01*
X202521816Y-79413000D01*
X202686228Y-79445703D01*
X202686228Y-79445703D01*
G37*
G36*
X168640205Y-78398461D02*
G01*
X168758153Y-78421922D01*
X168850194Y-78460047D01*
X168980359Y-78513963D01*
X169180342Y-78647587D01*
X169350413Y-78817658D01*
X169484037Y-79017641D01*
X169576078Y-79239848D01*
X169623000Y-79475741D01*
X169623000Y-79716259D01*
X169618961Y-79736564D01*
X169580916Y-79927833D01*
X169576078Y-79952152D01*
X169484037Y-80174359D01*
X169350413Y-80374342D01*
X169180342Y-80544413D01*
X168980359Y-80678037D01*
X168850194Y-80731953D01*
X168758153Y-80770078D01*
X168522259Y-80817000D01*
X168281741Y-80817000D01*
X168045847Y-80770078D01*
X167953806Y-80731953D01*
X167823641Y-80678037D01*
X167623658Y-80544413D01*
X167453587Y-80374342D01*
X167319963Y-80174359D01*
X167227922Y-79952152D01*
X167223085Y-79927833D01*
X167185039Y-79736564D01*
X167181000Y-79716259D01*
X167181000Y-79475741D01*
X167227922Y-79239848D01*
X167319963Y-79017641D01*
X167453587Y-78817658D01*
X167623658Y-78647587D01*
X167823641Y-78513963D01*
X167953806Y-78460047D01*
X168045847Y-78421922D01*
X168163795Y-78398461D01*
X168281741Y-78375000D01*
X168522259Y-78375000D01*
X168640205Y-78398461D01*
X168640205Y-78398461D01*
G37*
G36*
X209080873Y-79319938D02*
G01*
X209208449Y-79372782D01*
X209323259Y-79449495D01*
X209420905Y-79547141D01*
X209497618Y-79661951D01*
X209550462Y-79789527D01*
X209577400Y-79924956D01*
X209577400Y-80063044D01*
X209550462Y-80198473D01*
X209497618Y-80326049D01*
X209420905Y-80440859D01*
X209323259Y-80538505D01*
X209208449Y-80615218D01*
X209080873Y-80668062D01*
X208945444Y-80695000D01*
X208807356Y-80695000D01*
X208671927Y-80668062D01*
X208544351Y-80615218D01*
X208429541Y-80538505D01*
X208331895Y-80440859D01*
X208255182Y-80326049D01*
X208202338Y-80198473D01*
X208175400Y-80063044D01*
X208175400Y-79924956D01*
X208202338Y-79789527D01*
X208255182Y-79661951D01*
X208331895Y-79547141D01*
X208429541Y-79449495D01*
X208544351Y-79372782D01*
X208671927Y-79319938D01*
X208807356Y-79293000D01*
X208945444Y-79293000D01*
X209080873Y-79319938D01*
X209080873Y-79319938D01*
G37*
G36*
X207080873Y-79319938D02*
G01*
X207208449Y-79372782D01*
X207323259Y-79449495D01*
X207420905Y-79547141D01*
X207497618Y-79661951D01*
X207550462Y-79789527D01*
X207577400Y-79924956D01*
X207577400Y-80063044D01*
X207550462Y-80198473D01*
X207497618Y-80326049D01*
X207420905Y-80440859D01*
X207323259Y-80538505D01*
X207208449Y-80615218D01*
X207080873Y-80668062D01*
X206945444Y-80695000D01*
X206807356Y-80695000D01*
X206671927Y-80668062D01*
X206544351Y-80615218D01*
X206429541Y-80538505D01*
X206331895Y-80440859D01*
X206255182Y-80326049D01*
X206202338Y-80198473D01*
X206175400Y-80063044D01*
X206175400Y-79924956D01*
X206202338Y-79789527D01*
X206255182Y-79661951D01*
X206331895Y-79547141D01*
X206429541Y-79449495D01*
X206544351Y-79372782D01*
X206671927Y-79319938D01*
X206807356Y-79293000D01*
X206945444Y-79293000D01*
X207080873Y-79319938D01*
X207080873Y-79319938D01*
G37*
G36*
X205577400Y-80695000D02*
G01*
X204175400Y-80695000D01*
X204175400Y-79293000D01*
X205577400Y-79293000D01*
X205577400Y-80695000D01*
X205577400Y-80695000D01*
G37*
G36*
X188924564Y-78419389D02*
G01*
X189115833Y-78498615D01*
X189115835Y-78498616D01*
X189175533Y-78538505D01*
X189287973Y-78613635D01*
X189434365Y-78760027D01*
X189549385Y-78932167D01*
X189628611Y-79123436D01*
X189669000Y-79326484D01*
X189669000Y-79533516D01*
X189628611Y-79736564D01*
X189577109Y-79860900D01*
X189549384Y-79927835D01*
X189434365Y-80099973D01*
X189287973Y-80246365D01*
X189115835Y-80361384D01*
X189115834Y-80361385D01*
X189115833Y-80361385D01*
X188924564Y-80440611D01*
X188721516Y-80481000D01*
X188514484Y-80481000D01*
X188311436Y-80440611D01*
X188120167Y-80361385D01*
X188120166Y-80361385D01*
X188120165Y-80361384D01*
X187948027Y-80246365D01*
X187801635Y-80099973D01*
X187686616Y-79927835D01*
X187658891Y-79860900D01*
X187607389Y-79736564D01*
X187567000Y-79533516D01*
X187567000Y-79326484D01*
X187607389Y-79123436D01*
X187686615Y-78932167D01*
X187801635Y-78760027D01*
X187948027Y-78613635D01*
X188060467Y-78538505D01*
X188120165Y-78498616D01*
X188120167Y-78498615D01*
X188311436Y-78419389D01*
X188514484Y-78379000D01*
X188721516Y-78379000D01*
X188924564Y-78419389D01*
X188924564Y-78419389D01*
G37*
G36*
X182424564Y-78419389D02*
G01*
X182615833Y-78498615D01*
X182615835Y-78498616D01*
X182675533Y-78538505D01*
X182787973Y-78613635D01*
X182934365Y-78760027D01*
X183049385Y-78932167D01*
X183128611Y-79123436D01*
X183169000Y-79326484D01*
X183169000Y-79533516D01*
X183128611Y-79736564D01*
X183077109Y-79860900D01*
X183049384Y-79927835D01*
X182934365Y-80099973D01*
X182787973Y-80246365D01*
X182615835Y-80361384D01*
X182615834Y-80361385D01*
X182615833Y-80361385D01*
X182424564Y-80440611D01*
X182221516Y-80481000D01*
X182014484Y-80481000D01*
X181811436Y-80440611D01*
X181620167Y-80361385D01*
X181620166Y-80361385D01*
X181620165Y-80361384D01*
X181448027Y-80246365D01*
X181301635Y-80099973D01*
X181186616Y-79927835D01*
X181158891Y-79860900D01*
X181107389Y-79736564D01*
X181067000Y-79533516D01*
X181067000Y-79326484D01*
X181107389Y-79123436D01*
X181186615Y-78932167D01*
X181301635Y-78760027D01*
X181448027Y-78613635D01*
X181560467Y-78538505D01*
X181620165Y-78498616D01*
X181620167Y-78498615D01*
X181811436Y-78419389D01*
X182014484Y-78379000D01*
X182221516Y-78379000D01*
X182424564Y-78419389D01*
X182424564Y-78419389D01*
G37*
G36*
X214875428Y-78226503D02*
G01*
X215030300Y-78290653D01*
X215169681Y-78383785D01*
X215288215Y-78502319D01*
X215381347Y-78641700D01*
X215445497Y-78796572D01*
X215478200Y-78960984D01*
X215478200Y-79128616D01*
X215445497Y-79293028D01*
X215381347Y-79447900D01*
X215288215Y-79587281D01*
X215169681Y-79705815D01*
X215030300Y-79798947D01*
X214875428Y-79863097D01*
X214711016Y-79895800D01*
X214543384Y-79895800D01*
X214378972Y-79863097D01*
X214224100Y-79798947D01*
X214084719Y-79705815D01*
X213966185Y-79587281D01*
X213873053Y-79447900D01*
X213808903Y-79293028D01*
X213776200Y-79128616D01*
X213776200Y-78960984D01*
X213808903Y-78796572D01*
X213873053Y-78641700D01*
X213966185Y-78502319D01*
X214084719Y-78383785D01*
X214224100Y-78290653D01*
X214378972Y-78226503D01*
X214543384Y-78193800D01*
X214711016Y-78193800D01*
X214875428Y-78226503D01*
X214875428Y-78226503D01*
G37*
G36*
X209080873Y-77319938D02*
G01*
X209208449Y-77372782D01*
X209323259Y-77449495D01*
X209420905Y-77547141D01*
X209497618Y-77661951D01*
X209550462Y-77789527D01*
X209577400Y-77924956D01*
X209577400Y-78063044D01*
X209550462Y-78198473D01*
X209497618Y-78326049D01*
X209420905Y-78440859D01*
X209323259Y-78538505D01*
X209208449Y-78615218D01*
X209080873Y-78668062D01*
X208945444Y-78695000D01*
X208807356Y-78695000D01*
X208671927Y-78668062D01*
X208544351Y-78615218D01*
X208429541Y-78538505D01*
X208331895Y-78440859D01*
X208255182Y-78326049D01*
X208202338Y-78198473D01*
X208175400Y-78063044D01*
X208175400Y-77924956D01*
X208202338Y-77789527D01*
X208255182Y-77661951D01*
X208331895Y-77547141D01*
X208429541Y-77449495D01*
X208544351Y-77372782D01*
X208671927Y-77319938D01*
X208807356Y-77293000D01*
X208945444Y-77293000D01*
X209080873Y-77319938D01*
X209080873Y-77319938D01*
G37*
G36*
X207080873Y-77319938D02*
G01*
X207208449Y-77372782D01*
X207323259Y-77449495D01*
X207420905Y-77547141D01*
X207497618Y-77661951D01*
X207550462Y-77789527D01*
X207577400Y-77924956D01*
X207577400Y-78063044D01*
X207550462Y-78198473D01*
X207497618Y-78326049D01*
X207420905Y-78440859D01*
X207323259Y-78538505D01*
X207208449Y-78615218D01*
X207080873Y-78668062D01*
X206945444Y-78695000D01*
X206807356Y-78695000D01*
X206671927Y-78668062D01*
X206544351Y-78615218D01*
X206429541Y-78538505D01*
X206331895Y-78440859D01*
X206255182Y-78326049D01*
X206202338Y-78198473D01*
X206175400Y-78063044D01*
X206175400Y-77924956D01*
X206202338Y-77789527D01*
X206255182Y-77661951D01*
X206331895Y-77547141D01*
X206429541Y-77449495D01*
X206544351Y-77372782D01*
X206671927Y-77319938D01*
X206807356Y-77293000D01*
X206945444Y-77293000D01*
X207080873Y-77319938D01*
X207080873Y-77319938D01*
G37*
G36*
X205080873Y-77319938D02*
G01*
X205208449Y-77372782D01*
X205323259Y-77449495D01*
X205420905Y-77547141D01*
X205497618Y-77661951D01*
X205550462Y-77789527D01*
X205577400Y-77924956D01*
X205577400Y-78063044D01*
X205550462Y-78198473D01*
X205497618Y-78326049D01*
X205420905Y-78440859D01*
X205323259Y-78538505D01*
X205208449Y-78615218D01*
X205080873Y-78668062D01*
X204945444Y-78695000D01*
X204807356Y-78695000D01*
X204671927Y-78668062D01*
X204544351Y-78615218D01*
X204429541Y-78538505D01*
X204331895Y-78440859D01*
X204255182Y-78326049D01*
X204202338Y-78198473D01*
X204175400Y-78063044D01*
X204175400Y-77924956D01*
X204202338Y-77789527D01*
X204255182Y-77661951D01*
X204331895Y-77547141D01*
X204429541Y-77449495D01*
X204544351Y-77372782D01*
X204671927Y-77319938D01*
X204807356Y-77293000D01*
X204945444Y-77293000D01*
X205080873Y-77319938D01*
X205080873Y-77319938D01*
G37*
G36*
X217926228Y-76905703D02*
G01*
X218081100Y-76969853D01*
X218220481Y-77062985D01*
X218339015Y-77181519D01*
X218432147Y-77320900D01*
X218496297Y-77475772D01*
X218529000Y-77640184D01*
X218529000Y-77807816D01*
X218496297Y-77972228D01*
X218432147Y-78127100D01*
X218339015Y-78266481D01*
X218220481Y-78385015D01*
X218081100Y-78478147D01*
X217926228Y-78542297D01*
X217761816Y-78575000D01*
X217594184Y-78575000D01*
X217429772Y-78542297D01*
X217274900Y-78478147D01*
X217135519Y-78385015D01*
X217016985Y-78266481D01*
X216923853Y-78127100D01*
X216859703Y-77972228D01*
X216827000Y-77807816D01*
X216827000Y-77640184D01*
X216859703Y-77475772D01*
X216923853Y-77320900D01*
X217016985Y-77181519D01*
X217135519Y-77062985D01*
X217274900Y-76969853D01*
X217429772Y-76905703D01*
X217594184Y-76873000D01*
X217761816Y-76873000D01*
X217926228Y-76905703D01*
X217926228Y-76905703D01*
G37*
G36*
X202686228Y-76905703D02*
G01*
X202841100Y-76969853D01*
X202980481Y-77062985D01*
X203099015Y-77181519D01*
X203192147Y-77320900D01*
X203256297Y-77475772D01*
X203289000Y-77640184D01*
X203289000Y-77807816D01*
X203256297Y-77972228D01*
X203192147Y-78127100D01*
X203099015Y-78266481D01*
X202980481Y-78385015D01*
X202841100Y-78478147D01*
X202686228Y-78542297D01*
X202521816Y-78575000D01*
X202354184Y-78575000D01*
X202189772Y-78542297D01*
X202034900Y-78478147D01*
X201895519Y-78385015D01*
X201776985Y-78266481D01*
X201683853Y-78127100D01*
X201619703Y-77972228D01*
X201587000Y-77807816D01*
X201587000Y-77640184D01*
X201619703Y-77475772D01*
X201683853Y-77320900D01*
X201776985Y-77181519D01*
X201895519Y-77062985D01*
X202034900Y-76969853D01*
X202189772Y-76905703D01*
X202354184Y-76873000D01*
X202521816Y-76873000D01*
X202686228Y-76905703D01*
X202686228Y-76905703D01*
G37*
G36*
X214875428Y-75686503D02*
G01*
X215030300Y-75750653D01*
X215169681Y-75843785D01*
X215288215Y-75962319D01*
X215381347Y-76101700D01*
X215445497Y-76256572D01*
X215478200Y-76420984D01*
X215478200Y-76588616D01*
X215445497Y-76753028D01*
X215381347Y-76907900D01*
X215288215Y-77047281D01*
X215169681Y-77165815D01*
X215030300Y-77258947D01*
X214875428Y-77323097D01*
X214711016Y-77355800D01*
X214543384Y-77355800D01*
X214378972Y-77323097D01*
X214224100Y-77258947D01*
X214084719Y-77165815D01*
X213966185Y-77047281D01*
X213873053Y-76907900D01*
X213808903Y-76753028D01*
X213776200Y-76588616D01*
X213776200Y-76420984D01*
X213808903Y-76256572D01*
X213873053Y-76101700D01*
X213966185Y-75962319D01*
X214084719Y-75843785D01*
X214224100Y-75750653D01*
X214378972Y-75686503D01*
X214543384Y-75653800D01*
X214711016Y-75653800D01*
X214875428Y-75686503D01*
X214875428Y-75686503D01*
G37*
G36*
X118602205Y-74842461D02*
G01*
X118720153Y-74865922D01*
X118812194Y-74904047D01*
X118942359Y-74957963D01*
X119142342Y-75091587D01*
X119312413Y-75261658D01*
X119446037Y-75461641D01*
X119480322Y-75544413D01*
X119538078Y-75683847D01*
X119585000Y-75919742D01*
X119585000Y-76160258D01*
X119538078Y-76396153D01*
X119527792Y-76420985D01*
X119446037Y-76618359D01*
X119312413Y-76818342D01*
X119142342Y-76988413D01*
X118942359Y-77122037D01*
X118836669Y-77165815D01*
X118720153Y-77214078D01*
X118484259Y-77261000D01*
X118243741Y-77261000D01*
X118007847Y-77214078D01*
X117891331Y-77165815D01*
X117785641Y-77122037D01*
X117585658Y-76988413D01*
X117415587Y-76818342D01*
X117281963Y-76618359D01*
X117200208Y-76420985D01*
X117189922Y-76396153D01*
X117143000Y-76160258D01*
X117143000Y-75919742D01*
X117189922Y-75683847D01*
X117247678Y-75544413D01*
X117281963Y-75461641D01*
X117415587Y-75261658D01*
X117585658Y-75091587D01*
X117785641Y-74957963D01*
X117915806Y-74904047D01*
X118007847Y-74865922D01*
X118125795Y-74842461D01*
X118243741Y-74819000D01*
X118484259Y-74819000D01*
X118602205Y-74842461D01*
X118602205Y-74842461D01*
G37*
G36*
X72619367Y-74365703D02*
G01*
X72746153Y-74390922D01*
X72838194Y-74429047D01*
X72968359Y-74482963D01*
X73168342Y-74616587D01*
X73338413Y-74786658D01*
X73472037Y-74986641D01*
X73491452Y-75033514D01*
X73564078Y-75208847D01*
X73611000Y-75444741D01*
X73611000Y-75685259D01*
X73597992Y-75750653D01*
X73564078Y-75921153D01*
X73556018Y-75940611D01*
X73472037Y-76143359D01*
X73338413Y-76343342D01*
X73168342Y-76513413D01*
X72968359Y-76647037D01*
X72838194Y-76700953D01*
X72746153Y-76739078D01*
X72676021Y-76753028D01*
X72510259Y-76786000D01*
X72269741Y-76786000D01*
X72103979Y-76753028D01*
X72033847Y-76739078D01*
X71941806Y-76700953D01*
X71811641Y-76647037D01*
X71611658Y-76513413D01*
X71441587Y-76343342D01*
X71307963Y-76143359D01*
X71223982Y-75940611D01*
X71215922Y-75921153D01*
X71182008Y-75750653D01*
X71169000Y-75685259D01*
X71169000Y-75444741D01*
X71192461Y-75326795D01*
X71215922Y-75208847D01*
X71288548Y-75033514D01*
X71307963Y-74986641D01*
X71441587Y-74786658D01*
X71611658Y-74616587D01*
X71811641Y-74482963D01*
X71941806Y-74429047D01*
X72033847Y-74390922D01*
X72160633Y-74365703D01*
X72269741Y-74344000D01*
X72510259Y-74344000D01*
X72619367Y-74365703D01*
X72619367Y-74365703D01*
G37*
G36*
X202686228Y-74365703D02*
G01*
X202841100Y-74429853D01*
X202980481Y-74522985D01*
X203099015Y-74641519D01*
X203192147Y-74780900D01*
X203256297Y-74935772D01*
X203289000Y-75100184D01*
X203289000Y-75267816D01*
X203256297Y-75432228D01*
X203192147Y-75587100D01*
X203099015Y-75726481D01*
X202980481Y-75845015D01*
X202841100Y-75938147D01*
X202686228Y-76002297D01*
X202521816Y-76035000D01*
X202354184Y-76035000D01*
X202189772Y-76002297D01*
X202034900Y-75938147D01*
X201895519Y-75845015D01*
X201776985Y-75726481D01*
X201683853Y-75587100D01*
X201619703Y-75432228D01*
X201587000Y-75267816D01*
X201587000Y-75100184D01*
X201619703Y-74935772D01*
X201683853Y-74780900D01*
X201776985Y-74641519D01*
X201895519Y-74522985D01*
X202034900Y-74429853D01*
X202189772Y-74365703D01*
X202354184Y-74333000D01*
X202521816Y-74333000D01*
X202686228Y-74365703D01*
X202686228Y-74365703D01*
G37*
G36*
X217926228Y-74365703D02*
G01*
X218081100Y-74429853D01*
X218220481Y-74522985D01*
X218339015Y-74641519D01*
X218432147Y-74780900D01*
X218496297Y-74935772D01*
X218529000Y-75100184D01*
X218529000Y-75267816D01*
X218496297Y-75432228D01*
X218432147Y-75587100D01*
X218339015Y-75726481D01*
X218220481Y-75845015D01*
X218081100Y-75938147D01*
X217926228Y-76002297D01*
X217761816Y-76035000D01*
X217594184Y-76035000D01*
X217429772Y-76002297D01*
X217274900Y-75938147D01*
X217135519Y-75845015D01*
X217016985Y-75726481D01*
X216923853Y-75587100D01*
X216859703Y-75432228D01*
X216827000Y-75267816D01*
X216827000Y-75100184D01*
X216859703Y-74935772D01*
X216923853Y-74780900D01*
X217016985Y-74641519D01*
X217135519Y-74522985D01*
X217274900Y-74429853D01*
X217429772Y-74365703D01*
X217594184Y-74333000D01*
X217761816Y-74333000D01*
X217926228Y-74365703D01*
X217926228Y-74365703D01*
G37*
G36*
X182424564Y-73919389D02*
G01*
X182615833Y-73998615D01*
X182615835Y-73998616D01*
X182787973Y-74113635D01*
X182934365Y-74260027D01*
X183047839Y-74429852D01*
X183049385Y-74432167D01*
X183128611Y-74623436D01*
X183169000Y-74826484D01*
X183169000Y-75033516D01*
X183128611Y-75236564D01*
X183049385Y-75427833D01*
X183049384Y-75427835D01*
X182934365Y-75599973D01*
X182787973Y-75746365D01*
X182615835Y-75861384D01*
X182615834Y-75861385D01*
X182615833Y-75861385D01*
X182424564Y-75940611D01*
X182221516Y-75981000D01*
X182014484Y-75981000D01*
X181811436Y-75940611D01*
X181620167Y-75861385D01*
X181620166Y-75861385D01*
X181620165Y-75861384D01*
X181448027Y-75746365D01*
X181301635Y-75599973D01*
X181186616Y-75427835D01*
X181186615Y-75427833D01*
X181107389Y-75236564D01*
X181067000Y-75033516D01*
X181067000Y-74826484D01*
X181107389Y-74623436D01*
X181186615Y-74432167D01*
X181188162Y-74429852D01*
X181301635Y-74260027D01*
X181448027Y-74113635D01*
X181620165Y-73998616D01*
X181620167Y-73998615D01*
X181811436Y-73919389D01*
X182014484Y-73879000D01*
X182221516Y-73879000D01*
X182424564Y-73919389D01*
X182424564Y-73919389D01*
G37*
G36*
X188924564Y-73919389D02*
G01*
X189115833Y-73998615D01*
X189115835Y-73998616D01*
X189287973Y-74113635D01*
X189434365Y-74260027D01*
X189547839Y-74429852D01*
X189549385Y-74432167D01*
X189628611Y-74623436D01*
X189669000Y-74826484D01*
X189669000Y-75033516D01*
X189628611Y-75236564D01*
X189549385Y-75427833D01*
X189549384Y-75427835D01*
X189434365Y-75599973D01*
X189287973Y-75746365D01*
X189115835Y-75861384D01*
X189115834Y-75861385D01*
X189115833Y-75861385D01*
X188924564Y-75940611D01*
X188721516Y-75981000D01*
X188514484Y-75981000D01*
X188311436Y-75940611D01*
X188120167Y-75861385D01*
X188120166Y-75861385D01*
X188120165Y-75861384D01*
X187948027Y-75746365D01*
X187801635Y-75599973D01*
X187686616Y-75427835D01*
X187686615Y-75427833D01*
X187607389Y-75236564D01*
X187567000Y-75033516D01*
X187567000Y-74826484D01*
X187607389Y-74623436D01*
X187686615Y-74432167D01*
X187688162Y-74429852D01*
X187801635Y-74260027D01*
X187948027Y-74113635D01*
X188120165Y-73998616D01*
X188120167Y-73998615D01*
X188311436Y-73919389D01*
X188514484Y-73879000D01*
X188721516Y-73879000D01*
X188924564Y-73919389D01*
X188924564Y-73919389D01*
G37*
G36*
X168638627Y-73398147D02*
G01*
X168758153Y-73421922D01*
X168850194Y-73460047D01*
X168980359Y-73513963D01*
X169180342Y-73647587D01*
X169350413Y-73817658D01*
X169484037Y-74017641D01*
X169576078Y-74239848D01*
X169623000Y-74475741D01*
X169623000Y-74716259D01*
X169599539Y-74834206D01*
X169579337Y-74935771D01*
X169576078Y-74952152D01*
X169484037Y-75174359D01*
X169350413Y-75374342D01*
X169180342Y-75544413D01*
X168980359Y-75678037D01*
X168863407Y-75726480D01*
X168758153Y-75770078D01*
X168522259Y-75817000D01*
X168281741Y-75817000D01*
X168045847Y-75770078D01*
X167940593Y-75726480D01*
X167823641Y-75678037D01*
X167623658Y-75544413D01*
X167453587Y-75374342D01*
X167319963Y-75174359D01*
X167227922Y-74952152D01*
X167224664Y-74935771D01*
X167204461Y-74834206D01*
X167181000Y-74716259D01*
X167181000Y-74475741D01*
X167227922Y-74239848D01*
X167319963Y-74017641D01*
X167453587Y-73817658D01*
X167623658Y-73647587D01*
X167823641Y-73513963D01*
X167953806Y-73460047D01*
X168045847Y-73421922D01*
X168165373Y-73398147D01*
X168281741Y-73375000D01*
X168522259Y-73375000D01*
X168638627Y-73398147D01*
X168638627Y-73398147D01*
G37*
G36*
X217926228Y-71825703D02*
G01*
X218081100Y-71889853D01*
X218220481Y-71982985D01*
X218339015Y-72101519D01*
X218432147Y-72240900D01*
X218496297Y-72395772D01*
X218529000Y-72560184D01*
X218529000Y-72727816D01*
X218496297Y-72892228D01*
X218432147Y-73047100D01*
X218339015Y-73186481D01*
X218220481Y-73305015D01*
X218081100Y-73398147D01*
X217926228Y-73462297D01*
X217761816Y-73495000D01*
X217594184Y-73495000D01*
X217429772Y-73462297D01*
X217274900Y-73398147D01*
X217135519Y-73305015D01*
X217016985Y-73186481D01*
X216923853Y-73047100D01*
X216859703Y-72892228D01*
X216827000Y-72727816D01*
X216827000Y-72560184D01*
X216859703Y-72395772D01*
X216923853Y-72240900D01*
X217016985Y-72101519D01*
X217135519Y-71982985D01*
X217274900Y-71889853D01*
X217429772Y-71825703D01*
X217594184Y-71793000D01*
X217761816Y-71793000D01*
X217926228Y-71825703D01*
X217926228Y-71825703D01*
G37*
G36*
X202686228Y-71825703D02*
G01*
X202841100Y-71889853D01*
X202980481Y-71982985D01*
X203099015Y-72101519D01*
X203192147Y-72240900D01*
X203256297Y-72395772D01*
X203289000Y-72560184D01*
X203289000Y-72727816D01*
X203256297Y-72892228D01*
X203192147Y-73047100D01*
X203099015Y-73186481D01*
X202980481Y-73305015D01*
X202841100Y-73398147D01*
X202686228Y-73462297D01*
X202521816Y-73495000D01*
X202354184Y-73495000D01*
X202189772Y-73462297D01*
X202034900Y-73398147D01*
X201895519Y-73305015D01*
X201776985Y-73186481D01*
X201683853Y-73047100D01*
X201619703Y-72892228D01*
X201587000Y-72727816D01*
X201587000Y-72560184D01*
X201619703Y-72395772D01*
X201683853Y-72240900D01*
X201776985Y-72101519D01*
X201895519Y-71982985D01*
X202034900Y-71889853D01*
X202189772Y-71825703D01*
X202354184Y-71793000D01*
X202521816Y-71793000D01*
X202686228Y-71825703D01*
X202686228Y-71825703D01*
G37*
G36*
X63806564Y-71379389D02*
G01*
X63997833Y-71458615D01*
X63997835Y-71458616D01*
X64169973Y-71573635D01*
X64316365Y-71720027D01*
X64429839Y-71889852D01*
X64431385Y-71892167D01*
X64510611Y-72083436D01*
X64551000Y-72286484D01*
X64551000Y-72493516D01*
X64510611Y-72696564D01*
X64497666Y-72727815D01*
X64431384Y-72887835D01*
X64316365Y-73059973D01*
X64169973Y-73206365D01*
X63997835Y-73321384D01*
X63997834Y-73321385D01*
X63997833Y-73321385D01*
X63806564Y-73400611D01*
X63603516Y-73441000D01*
X63396484Y-73441000D01*
X63193436Y-73400611D01*
X63002167Y-73321385D01*
X63002166Y-73321385D01*
X63002165Y-73321384D01*
X62830027Y-73206365D01*
X62683635Y-73059973D01*
X62568616Y-72887835D01*
X62502334Y-72727815D01*
X62489389Y-72696564D01*
X62449000Y-72493516D01*
X62449000Y-72286484D01*
X62489389Y-72083436D01*
X62568615Y-71892167D01*
X62570162Y-71889852D01*
X62683635Y-71720027D01*
X62830027Y-71573635D01*
X63002165Y-71458616D01*
X63002167Y-71458615D01*
X63193436Y-71379389D01*
X63396484Y-71339000D01*
X63603516Y-71339000D01*
X63806564Y-71379389D01*
X63806564Y-71379389D01*
G37*
G36*
X57306564Y-71379389D02*
G01*
X57497833Y-71458615D01*
X57497835Y-71458616D01*
X57669973Y-71573635D01*
X57816365Y-71720027D01*
X57929839Y-71889852D01*
X57931385Y-71892167D01*
X58010611Y-72083436D01*
X58051000Y-72286484D01*
X58051000Y-72493516D01*
X58010611Y-72696564D01*
X57997666Y-72727815D01*
X57931384Y-72887835D01*
X57816365Y-73059973D01*
X57669973Y-73206365D01*
X57497835Y-73321384D01*
X57497834Y-73321385D01*
X57497833Y-73321385D01*
X57306564Y-73400611D01*
X57103516Y-73441000D01*
X56896484Y-73441000D01*
X56693436Y-73400611D01*
X56502167Y-73321385D01*
X56502166Y-73321385D01*
X56502165Y-73321384D01*
X56330027Y-73206365D01*
X56183635Y-73059973D01*
X56068616Y-72887835D01*
X56002334Y-72727815D01*
X55989389Y-72696564D01*
X55949000Y-72493516D01*
X55949000Y-72286484D01*
X55989389Y-72083436D01*
X56068615Y-71892167D01*
X56070162Y-71889852D01*
X56183635Y-71720027D01*
X56330027Y-71573635D01*
X56502165Y-71458616D01*
X56502167Y-71458615D01*
X56693436Y-71379389D01*
X56896484Y-71339000D01*
X57103516Y-71339000D01*
X57306564Y-71379389D01*
X57306564Y-71379389D01*
G37*
G36*
X118602205Y-69842461D02*
G01*
X118720153Y-69865922D01*
X118812194Y-69904047D01*
X118942359Y-69957963D01*
X119142342Y-70091587D01*
X119312413Y-70261658D01*
X119446037Y-70461641D01*
X119480322Y-70544413D01*
X119538078Y-70683847D01*
X119585000Y-70919742D01*
X119585000Y-71160258D01*
X119541413Y-71379389D01*
X119538078Y-71396152D01*
X119446037Y-71618359D01*
X119312413Y-71818342D01*
X119142342Y-71988413D01*
X118942359Y-72122037D01*
X118812194Y-72175953D01*
X118720153Y-72214078D01*
X118602205Y-72237539D01*
X118484259Y-72261000D01*
X118243741Y-72261000D01*
X118125795Y-72237539D01*
X118007847Y-72214078D01*
X117915806Y-72175953D01*
X117785641Y-72122037D01*
X117585658Y-71988413D01*
X117415587Y-71818342D01*
X117281963Y-71618359D01*
X117189922Y-71396152D01*
X117186588Y-71379389D01*
X117143000Y-71160258D01*
X117143000Y-70919742D01*
X117189922Y-70683847D01*
X117247678Y-70544413D01*
X117281963Y-70461641D01*
X117415587Y-70261658D01*
X117585658Y-70091587D01*
X117785641Y-69957963D01*
X117915806Y-69904047D01*
X118007847Y-69865922D01*
X118125795Y-69842461D01*
X118243741Y-69819000D01*
X118484259Y-69819000D01*
X118602205Y-69842461D01*
X118602205Y-69842461D01*
G37*
G36*
X72628205Y-69367461D02*
G01*
X72746153Y-69390922D01*
X72838194Y-69429047D01*
X72968359Y-69482963D01*
X73168342Y-69616587D01*
X73338413Y-69786658D01*
X73472037Y-69986641D01*
X73485931Y-70020184D01*
X73555367Y-70187816D01*
X73564078Y-70208848D01*
X73611000Y-70444741D01*
X73611000Y-70685259D01*
X73594128Y-70770078D01*
X73564359Y-70919742D01*
X73564078Y-70921152D01*
X73472037Y-71143359D01*
X73338413Y-71343342D01*
X73168342Y-71513413D01*
X72968359Y-71647037D01*
X72838194Y-71700953D01*
X72746153Y-71739078D01*
X72628205Y-71762539D01*
X72510259Y-71786000D01*
X72269741Y-71786000D01*
X72151795Y-71762539D01*
X72033847Y-71739078D01*
X71941806Y-71700953D01*
X71811641Y-71647037D01*
X71611658Y-71513413D01*
X71441587Y-71343342D01*
X71307963Y-71143359D01*
X71215922Y-70921152D01*
X71215642Y-70919742D01*
X71185872Y-70770078D01*
X71169000Y-70685259D01*
X71169000Y-70444741D01*
X71215922Y-70208848D01*
X71224634Y-70187816D01*
X71294069Y-70020184D01*
X71307963Y-69986641D01*
X71441587Y-69786658D01*
X71611658Y-69616587D01*
X71811641Y-69482963D01*
X71941806Y-69429047D01*
X72033847Y-69390922D01*
X72151795Y-69367461D01*
X72269741Y-69344000D01*
X72510259Y-69344000D01*
X72628205Y-69367461D01*
X72628205Y-69367461D01*
G37*
G36*
X202686228Y-69285703D02*
G01*
X202841100Y-69349853D01*
X202980481Y-69442985D01*
X203099015Y-69561519D01*
X203192147Y-69700900D01*
X203256297Y-69855772D01*
X203289000Y-70020184D01*
X203289000Y-70187816D01*
X203256297Y-70352228D01*
X203192147Y-70507100D01*
X203099015Y-70646481D01*
X202980481Y-70765015D01*
X202841100Y-70858147D01*
X202686228Y-70922297D01*
X202521816Y-70955000D01*
X202354184Y-70955000D01*
X202189772Y-70922297D01*
X202034900Y-70858147D01*
X201895519Y-70765015D01*
X201776985Y-70646481D01*
X201683853Y-70507100D01*
X201619703Y-70352228D01*
X201587000Y-70187816D01*
X201587000Y-70020184D01*
X201619703Y-69855772D01*
X201683853Y-69700900D01*
X201776985Y-69561519D01*
X201895519Y-69442985D01*
X202034900Y-69349853D01*
X202189772Y-69285703D01*
X202354184Y-69253000D01*
X202521816Y-69253000D01*
X202686228Y-69285703D01*
X202686228Y-69285703D01*
G37*
G36*
X217926228Y-69285703D02*
G01*
X218081100Y-69349853D01*
X218220481Y-69442985D01*
X218339015Y-69561519D01*
X218432147Y-69700900D01*
X218496297Y-69855772D01*
X218529000Y-70020184D01*
X218529000Y-70187816D01*
X218496297Y-70352228D01*
X218432147Y-70507100D01*
X218339015Y-70646481D01*
X218220481Y-70765015D01*
X218081100Y-70858147D01*
X217926228Y-70922297D01*
X217761816Y-70955000D01*
X217594184Y-70955000D01*
X217429772Y-70922297D01*
X217274900Y-70858147D01*
X217135519Y-70765015D01*
X217016985Y-70646481D01*
X216923853Y-70507100D01*
X216859703Y-70352228D01*
X216827000Y-70187816D01*
X216827000Y-70020184D01*
X216859703Y-69855772D01*
X216923853Y-69700900D01*
X217016985Y-69561519D01*
X217135519Y-69442985D01*
X217274900Y-69349853D01*
X217429772Y-69285703D01*
X217594184Y-69253000D01*
X217761816Y-69253000D01*
X217926228Y-69285703D01*
X217926228Y-69285703D01*
G37*
G36*
X168758153Y-68421922D02*
G01*
X168850194Y-68460047D01*
X168980359Y-68513963D01*
X169180342Y-68647587D01*
X169350413Y-68817658D01*
X169484037Y-69017641D01*
X169576078Y-69239848D01*
X169623000Y-69475741D01*
X169623000Y-69716259D01*
X169576078Y-69952152D01*
X169484037Y-70174359D01*
X169350413Y-70374342D01*
X169180342Y-70544413D01*
X168980359Y-70678037D01*
X168850194Y-70731953D01*
X168758153Y-70770078D01*
X168640205Y-70793539D01*
X168522259Y-70817000D01*
X168281741Y-70817000D01*
X168163795Y-70793539D01*
X168045847Y-70770078D01*
X167953806Y-70731953D01*
X167823641Y-70678037D01*
X167623658Y-70544413D01*
X167453587Y-70374342D01*
X167319963Y-70174359D01*
X167227922Y-69952152D01*
X167181000Y-69716259D01*
X167181000Y-69475741D01*
X167227922Y-69239848D01*
X167319963Y-69017641D01*
X167453587Y-68817658D01*
X167623658Y-68647587D01*
X167823641Y-68513963D01*
X167953806Y-68460047D01*
X168045847Y-68421922D01*
X168281741Y-68375000D01*
X168522259Y-68375000D01*
X168758153Y-68421922D01*
X168758153Y-68421922D01*
G37*
G36*
X57306564Y-66879389D02*
G01*
X57497833Y-66958615D01*
X57497835Y-66958616D01*
X57542429Y-66988413D01*
X57669973Y-67073635D01*
X57816365Y-67220027D01*
X57931385Y-67392167D01*
X58010611Y-67583436D01*
X58051000Y-67786484D01*
X58051000Y-67993516D01*
X58010611Y-68196564D01*
X57933679Y-68382295D01*
X57931384Y-68387835D01*
X57816365Y-68559973D01*
X57669973Y-68706365D01*
X57497835Y-68821384D01*
X57497834Y-68821385D01*
X57497833Y-68821385D01*
X57306564Y-68900611D01*
X57103516Y-68941000D01*
X56896484Y-68941000D01*
X56693436Y-68900611D01*
X56502167Y-68821385D01*
X56502166Y-68821385D01*
X56502165Y-68821384D01*
X56330027Y-68706365D01*
X56183635Y-68559973D01*
X56068616Y-68387835D01*
X56066321Y-68382295D01*
X55989389Y-68196564D01*
X55949000Y-67993516D01*
X55949000Y-67786484D01*
X55989389Y-67583436D01*
X56068615Y-67392167D01*
X56183635Y-67220027D01*
X56330027Y-67073635D01*
X56457571Y-66988413D01*
X56502165Y-66958616D01*
X56502167Y-66958615D01*
X56693436Y-66879389D01*
X56896484Y-66839000D01*
X57103516Y-66839000D01*
X57306564Y-66879389D01*
X57306564Y-66879389D01*
G37*
G36*
X63806564Y-66879389D02*
G01*
X63997833Y-66958615D01*
X63997835Y-66958616D01*
X64042429Y-66988413D01*
X64169973Y-67073635D01*
X64316365Y-67220027D01*
X64431385Y-67392167D01*
X64510611Y-67583436D01*
X64551000Y-67786484D01*
X64551000Y-67993516D01*
X64510611Y-68196564D01*
X64433679Y-68382295D01*
X64431384Y-68387835D01*
X64316365Y-68559973D01*
X64169973Y-68706365D01*
X63997835Y-68821384D01*
X63997834Y-68821385D01*
X63997833Y-68821385D01*
X63806564Y-68900611D01*
X63603516Y-68941000D01*
X63396484Y-68941000D01*
X63193436Y-68900611D01*
X63002167Y-68821385D01*
X63002166Y-68821385D01*
X63002165Y-68821384D01*
X62830027Y-68706365D01*
X62683635Y-68559973D01*
X62568616Y-68387835D01*
X62566321Y-68382295D01*
X62489389Y-68196564D01*
X62449000Y-67993516D01*
X62449000Y-67786484D01*
X62489389Y-67583436D01*
X62568615Y-67392167D01*
X62683635Y-67220027D01*
X62830027Y-67073635D01*
X62957571Y-66988413D01*
X63002165Y-66958616D01*
X63002167Y-66958615D01*
X63193436Y-66879389D01*
X63396484Y-66839000D01*
X63603516Y-66839000D01*
X63806564Y-66879389D01*
X63806564Y-66879389D01*
G37*
G36*
X217926228Y-66745703D02*
G01*
X218081100Y-66809853D01*
X218220481Y-66902985D01*
X218339015Y-67021519D01*
X218432147Y-67160900D01*
X218496297Y-67315772D01*
X218529000Y-67480184D01*
X218529000Y-67647816D01*
X218496297Y-67812228D01*
X218432147Y-67967100D01*
X218339015Y-68106481D01*
X218220481Y-68225015D01*
X218081100Y-68318147D01*
X217926228Y-68382297D01*
X217761816Y-68415000D01*
X217594184Y-68415000D01*
X217429772Y-68382297D01*
X217274900Y-68318147D01*
X217135519Y-68225015D01*
X217016985Y-68106481D01*
X216923853Y-67967100D01*
X216859703Y-67812228D01*
X216827000Y-67647816D01*
X216827000Y-67480184D01*
X216859703Y-67315772D01*
X216923853Y-67160900D01*
X217016985Y-67021519D01*
X217135519Y-66902985D01*
X217274900Y-66809853D01*
X217429772Y-66745703D01*
X217594184Y-66713000D01*
X217761816Y-66713000D01*
X217926228Y-66745703D01*
X217926228Y-66745703D01*
G37*
G36*
X202686228Y-66745703D02*
G01*
X202841100Y-66809853D01*
X202980481Y-66902985D01*
X203099015Y-67021519D01*
X203192147Y-67160900D01*
X203256297Y-67315772D01*
X203289000Y-67480184D01*
X203289000Y-67647816D01*
X203256297Y-67812228D01*
X203192147Y-67967100D01*
X203099015Y-68106481D01*
X202980481Y-68225015D01*
X202841100Y-68318147D01*
X202686228Y-68382297D01*
X202521816Y-68415000D01*
X202354184Y-68415000D01*
X202189772Y-68382297D01*
X202034900Y-68318147D01*
X201895519Y-68225015D01*
X201776985Y-68106481D01*
X201683853Y-67967100D01*
X201619703Y-67812228D01*
X201587000Y-67647816D01*
X201587000Y-67480184D01*
X201619703Y-67315772D01*
X201683853Y-67160900D01*
X201776985Y-67021519D01*
X201895519Y-66902985D01*
X202034900Y-66809853D01*
X202189772Y-66745703D01*
X202354184Y-66713000D01*
X202521816Y-66713000D01*
X202686228Y-66745703D01*
X202686228Y-66745703D01*
G37*
G36*
X118602205Y-64842461D02*
G01*
X118720153Y-64865922D01*
X118812194Y-64904047D01*
X118942359Y-64957963D01*
X119142342Y-65091587D01*
X119312413Y-65261658D01*
X119446037Y-65461641D01*
X119489463Y-65566480D01*
X119538078Y-65683847D01*
X119538359Y-65685259D01*
X119585000Y-65919741D01*
X119585000Y-66160259D01*
X119538078Y-66396152D01*
X119446037Y-66618359D01*
X119312413Y-66818342D01*
X119142342Y-66988413D01*
X118942359Y-67122037D01*
X118848535Y-67160900D01*
X118720153Y-67214078D01*
X118602205Y-67237539D01*
X118484259Y-67261000D01*
X118243741Y-67261000D01*
X118125795Y-67237539D01*
X118007847Y-67214078D01*
X117879465Y-67160900D01*
X117785641Y-67122037D01*
X117585658Y-66988413D01*
X117415587Y-66818342D01*
X117281963Y-66618359D01*
X117189922Y-66396152D01*
X117143000Y-66160259D01*
X117143000Y-65919741D01*
X117189641Y-65685259D01*
X117189922Y-65683847D01*
X117238537Y-65566480D01*
X117281963Y-65461641D01*
X117415587Y-65261658D01*
X117585658Y-65091587D01*
X117785641Y-64957963D01*
X117915806Y-64904047D01*
X118007847Y-64865922D01*
X118125795Y-64842461D01*
X118243741Y-64819000D01*
X118484259Y-64819000D01*
X118602205Y-64842461D01*
X118602205Y-64842461D01*
G37*
G36*
X72605703Y-64362985D02*
G01*
X72746153Y-64390922D01*
X72838194Y-64429047D01*
X72968359Y-64482963D01*
X73168342Y-64616587D01*
X73338413Y-64786658D01*
X73472037Y-64986641D01*
X73515507Y-65091587D01*
X73564078Y-65208847D01*
X73611000Y-65444742D01*
X73611000Y-65685258D01*
X73564359Y-65919742D01*
X73564078Y-65921152D01*
X73472037Y-66143359D01*
X73338413Y-66343342D01*
X73168342Y-66513413D01*
X72968359Y-66647037D01*
X72838194Y-66700953D01*
X72746153Y-66739078D01*
X72510259Y-66786000D01*
X72269741Y-66786000D01*
X72033847Y-66739078D01*
X71941806Y-66700953D01*
X71811641Y-66647037D01*
X71611658Y-66513413D01*
X71441587Y-66343342D01*
X71307963Y-66143359D01*
X71215922Y-65921152D01*
X71215642Y-65919742D01*
X71169000Y-65685258D01*
X71169000Y-65444742D01*
X71215922Y-65208847D01*
X71264493Y-65091587D01*
X71307963Y-64986641D01*
X71441587Y-64786658D01*
X71611658Y-64616587D01*
X71811641Y-64482963D01*
X71941806Y-64429047D01*
X72033847Y-64390922D01*
X72174297Y-64362985D01*
X72269741Y-64344000D01*
X72510259Y-64344000D01*
X72605703Y-64362985D01*
X72605703Y-64362985D01*
G37*
G36*
X202686228Y-64205703D02*
G01*
X202841100Y-64269853D01*
X202980481Y-64362985D01*
X203099015Y-64481519D01*
X203192147Y-64620900D01*
X203256297Y-64775772D01*
X203289000Y-64940184D01*
X203289000Y-65107816D01*
X203256297Y-65272228D01*
X203192147Y-65427100D01*
X203099015Y-65566481D01*
X202980481Y-65685015D01*
X202841100Y-65778147D01*
X202686228Y-65842297D01*
X202521816Y-65875000D01*
X202354184Y-65875000D01*
X202189772Y-65842297D01*
X202034900Y-65778147D01*
X201895519Y-65685015D01*
X201776985Y-65566481D01*
X201683853Y-65427100D01*
X201619703Y-65272228D01*
X201587000Y-65107816D01*
X201587000Y-64940184D01*
X201619703Y-64775772D01*
X201683853Y-64620900D01*
X201776985Y-64481519D01*
X201895519Y-64362985D01*
X202034900Y-64269853D01*
X202189772Y-64205703D01*
X202354184Y-64173000D01*
X202521816Y-64173000D01*
X202686228Y-64205703D01*
X202686228Y-64205703D01*
G37*
G36*
X217926228Y-64205703D02*
G01*
X218081100Y-64269853D01*
X218220481Y-64362985D01*
X218339015Y-64481519D01*
X218432147Y-64620900D01*
X218496297Y-64775772D01*
X218529000Y-64940184D01*
X218529000Y-65107816D01*
X218496297Y-65272228D01*
X218432147Y-65427100D01*
X218339015Y-65566481D01*
X218220481Y-65685015D01*
X218081100Y-65778147D01*
X217926228Y-65842297D01*
X217761816Y-65875000D01*
X217594184Y-65875000D01*
X217429772Y-65842297D01*
X217274900Y-65778147D01*
X217135519Y-65685015D01*
X217016985Y-65566481D01*
X216923853Y-65427100D01*
X216859703Y-65272228D01*
X216827000Y-65107816D01*
X216827000Y-64940184D01*
X216859703Y-64775772D01*
X216923853Y-64620900D01*
X217016985Y-64481519D01*
X217135519Y-64362985D01*
X217274900Y-64269853D01*
X217429772Y-64205703D01*
X217594184Y-64173000D01*
X217761816Y-64173000D01*
X217926228Y-64205703D01*
X217926228Y-64205703D01*
G37*
G36*
X217926228Y-61665703D02*
G01*
X218081100Y-61729853D01*
X218220481Y-61822985D01*
X218339015Y-61941519D01*
X218432147Y-62080900D01*
X218496297Y-62235772D01*
X218529000Y-62400184D01*
X218529000Y-62567816D01*
X218496297Y-62732228D01*
X218432147Y-62887100D01*
X218339015Y-63026481D01*
X218220481Y-63145015D01*
X218081100Y-63238147D01*
X217926228Y-63302297D01*
X217761816Y-63335000D01*
X217594184Y-63335000D01*
X217429772Y-63302297D01*
X217274900Y-63238147D01*
X217135519Y-63145015D01*
X217016985Y-63026481D01*
X216923853Y-62887100D01*
X216859703Y-62732228D01*
X216827000Y-62567816D01*
X216827000Y-62400184D01*
X216859703Y-62235772D01*
X216923853Y-62080900D01*
X217016985Y-61941519D01*
X217135519Y-61822985D01*
X217274900Y-61729853D01*
X217429772Y-61665703D01*
X217594184Y-61633000D01*
X217761816Y-61633000D01*
X217926228Y-61665703D01*
X217926228Y-61665703D01*
G37*
G36*
X202686228Y-61665703D02*
G01*
X202841100Y-61729853D01*
X202980481Y-61822985D01*
X203099015Y-61941519D01*
X203192147Y-62080900D01*
X203256297Y-62235772D01*
X203289000Y-62400184D01*
X203289000Y-62567816D01*
X203256297Y-62732228D01*
X203192147Y-62887100D01*
X203099015Y-63026481D01*
X202980481Y-63145015D01*
X202841100Y-63238147D01*
X202686228Y-63302297D01*
X202521816Y-63335000D01*
X202354184Y-63335000D01*
X202189772Y-63302297D01*
X202034900Y-63238147D01*
X201895519Y-63145015D01*
X201776985Y-63026481D01*
X201683853Y-62887100D01*
X201619703Y-62732228D01*
X201587000Y-62567816D01*
X201587000Y-62400184D01*
X201619703Y-62235772D01*
X201683853Y-62080900D01*
X201776985Y-61941519D01*
X201895519Y-61822985D01*
X202034900Y-61729853D01*
X202189772Y-61665703D01*
X202354184Y-61633000D01*
X202521816Y-61633000D01*
X202686228Y-61665703D01*
X202686228Y-61665703D01*
G37*
G36*
X202686228Y-59125703D02*
G01*
X202841100Y-59189853D01*
X202980481Y-59282985D01*
X203099015Y-59401519D01*
X203192147Y-59540900D01*
X203256297Y-59695772D01*
X203289000Y-59860184D01*
X203289000Y-60027816D01*
X203256297Y-60192228D01*
X203192147Y-60347100D01*
X203099015Y-60486481D01*
X202980481Y-60605015D01*
X202841100Y-60698147D01*
X202686228Y-60762297D01*
X202521816Y-60795000D01*
X202354184Y-60795000D01*
X202189772Y-60762297D01*
X202034900Y-60698147D01*
X201895519Y-60605015D01*
X201776985Y-60486481D01*
X201683853Y-60347100D01*
X201619703Y-60192228D01*
X201587000Y-60027816D01*
X201587000Y-59860184D01*
X201619703Y-59695772D01*
X201683853Y-59540900D01*
X201776985Y-59401519D01*
X201895519Y-59282985D01*
X202034900Y-59189853D01*
X202189772Y-59125703D01*
X202354184Y-59093000D01*
X202521816Y-59093000D01*
X202686228Y-59125703D01*
X202686228Y-59125703D01*
G37*
G36*
X217926228Y-59125703D02*
G01*
X218081100Y-59189853D01*
X218220481Y-59282985D01*
X218339015Y-59401519D01*
X218432147Y-59540900D01*
X218496297Y-59695772D01*
X218529000Y-59860184D01*
X218529000Y-60027816D01*
X218496297Y-60192228D01*
X218432147Y-60347100D01*
X218339015Y-60486481D01*
X218220481Y-60605015D01*
X218081100Y-60698147D01*
X217926228Y-60762297D01*
X217761816Y-60795000D01*
X217594184Y-60795000D01*
X217429772Y-60762297D01*
X217274900Y-60698147D01*
X217135519Y-60605015D01*
X217016985Y-60486481D01*
X216923853Y-60347100D01*
X216859703Y-60192228D01*
X216827000Y-60027816D01*
X216827000Y-59860184D01*
X216859703Y-59695772D01*
X216923853Y-59540900D01*
X217016985Y-59401519D01*
X217135519Y-59282985D01*
X217274900Y-59189853D01*
X217429772Y-59125703D01*
X217594184Y-59093000D01*
X217761816Y-59093000D01*
X217926228Y-59125703D01*
X217926228Y-59125703D01*
G37*
G36*
X118602205Y-56300461D02*
G01*
X118720153Y-56323922D01*
X118812194Y-56362047D01*
X118942359Y-56415963D01*
X119142342Y-56549587D01*
X119312413Y-56719658D01*
X119446037Y-56919641D01*
X119479697Y-57000903D01*
X119538078Y-57141847D01*
X119540848Y-57155772D01*
X119585000Y-57377741D01*
X119585000Y-57618259D01*
X119538078Y-57854152D01*
X119446037Y-58076359D01*
X119312413Y-58276342D01*
X119142342Y-58446413D01*
X118942359Y-58580037D01*
X118812194Y-58633953D01*
X118720153Y-58672078D01*
X118484259Y-58719000D01*
X118243741Y-58719000D01*
X118007847Y-58672078D01*
X117915806Y-58633953D01*
X117785641Y-58580037D01*
X117585658Y-58446413D01*
X117415587Y-58276342D01*
X117281963Y-58076359D01*
X117189922Y-57854152D01*
X117143000Y-57618259D01*
X117143000Y-57377741D01*
X117187152Y-57155772D01*
X117189922Y-57141847D01*
X117248303Y-57000903D01*
X117281963Y-56919641D01*
X117415587Y-56719658D01*
X117585658Y-56549587D01*
X117785641Y-56415963D01*
X117915806Y-56362047D01*
X118007847Y-56323922D01*
X118125795Y-56300461D01*
X118243741Y-56277000D01*
X118484259Y-56277000D01*
X118602205Y-56300461D01*
X118602205Y-56300461D01*
G37*
G36*
X72628205Y-55952461D02*
G01*
X72746153Y-55975922D01*
X72838194Y-56014047D01*
X72968359Y-56067963D01*
X73168342Y-56201587D01*
X73338413Y-56371658D01*
X73472037Y-56571641D01*
X73564078Y-56793848D01*
X73611000Y-57029741D01*
X73611000Y-57270259D01*
X73589620Y-57377742D01*
X73567726Y-57487815D01*
X73564078Y-57506152D01*
X73472037Y-57728359D01*
X73338413Y-57928342D01*
X73168342Y-58098413D01*
X72968359Y-58232037D01*
X72912921Y-58255000D01*
X72746153Y-58324078D01*
X72510259Y-58371000D01*
X72269741Y-58371000D01*
X72033847Y-58324078D01*
X71867079Y-58255000D01*
X71811641Y-58232037D01*
X71611658Y-58098413D01*
X71441587Y-57928342D01*
X71307963Y-57728359D01*
X71215922Y-57506152D01*
X71212275Y-57487815D01*
X71190380Y-57377742D01*
X71169000Y-57270259D01*
X71169000Y-57029741D01*
X71215922Y-56793848D01*
X71307963Y-56571641D01*
X71441587Y-56371658D01*
X71611658Y-56201587D01*
X71811641Y-56067963D01*
X71941806Y-56014047D01*
X72033847Y-55975922D01*
X72151795Y-55952461D01*
X72269741Y-55929000D01*
X72510259Y-55929000D01*
X72628205Y-55952461D01*
X72628205Y-55952461D01*
G37*
G36*
X217926228Y-56585703D02*
G01*
X218081100Y-56649853D01*
X218220481Y-56742985D01*
X218339015Y-56861519D01*
X218432147Y-57000900D01*
X218496297Y-57155772D01*
X218529000Y-57320184D01*
X218529000Y-57487816D01*
X218496297Y-57652228D01*
X218432147Y-57807100D01*
X218339015Y-57946481D01*
X218220481Y-58065015D01*
X218081100Y-58158147D01*
X217926228Y-58222297D01*
X217761816Y-58255000D01*
X217594184Y-58255000D01*
X217429772Y-58222297D01*
X217274900Y-58158147D01*
X217135519Y-58065015D01*
X217016985Y-57946481D01*
X216923853Y-57807100D01*
X216859703Y-57652228D01*
X216827000Y-57487816D01*
X216827000Y-57320184D01*
X216859703Y-57155772D01*
X216923853Y-57000900D01*
X217016985Y-56861519D01*
X217135519Y-56742985D01*
X217274900Y-56649853D01*
X217429772Y-56585703D01*
X217594184Y-56553000D01*
X217761816Y-56553000D01*
X217926228Y-56585703D01*
X217926228Y-56585703D01*
G37*
G36*
X202686228Y-56585703D02*
G01*
X202841100Y-56649853D01*
X202980481Y-56742985D01*
X203099015Y-56861519D01*
X203192147Y-57000900D01*
X203256297Y-57155772D01*
X203289000Y-57320184D01*
X203289000Y-57487816D01*
X203256297Y-57652228D01*
X203192147Y-57807100D01*
X203099015Y-57946481D01*
X202980481Y-58065015D01*
X202841100Y-58158147D01*
X202686228Y-58222297D01*
X202521816Y-58255000D01*
X202354184Y-58255000D01*
X202189772Y-58222297D01*
X202034900Y-58158147D01*
X201895519Y-58065015D01*
X201776985Y-57946481D01*
X201683853Y-57807100D01*
X201619703Y-57652228D01*
X201587000Y-57487816D01*
X201587000Y-57320184D01*
X201619703Y-57155772D01*
X201683853Y-57000900D01*
X201776985Y-56861519D01*
X201895519Y-56742985D01*
X202034900Y-56649853D01*
X202189772Y-56585703D01*
X202354184Y-56553000D01*
X202521816Y-56553000D01*
X202686228Y-56585703D01*
X202686228Y-56585703D01*
G37*
G36*
X159714564Y-54035389D02*
G01*
X159894334Y-54109852D01*
X159905835Y-54114616D01*
X160077973Y-54229635D01*
X160224365Y-54376027D01*
X160325799Y-54527833D01*
X160339385Y-54548167D01*
X160418611Y-54739436D01*
X160459000Y-54942484D01*
X160459000Y-55149516D01*
X160418611Y-55352564D01*
X160339385Y-55543833D01*
X160339384Y-55543835D01*
X160224365Y-55715973D01*
X160077973Y-55862365D01*
X159905835Y-55977384D01*
X159905834Y-55977385D01*
X159905833Y-55977385D01*
X159714564Y-56056611D01*
X159511516Y-56097000D01*
X159304484Y-56097000D01*
X159101436Y-56056611D01*
X158910167Y-55977385D01*
X158910166Y-55977385D01*
X158910165Y-55977384D01*
X158738027Y-55862365D01*
X158591635Y-55715973D01*
X158476616Y-55543835D01*
X158476615Y-55543833D01*
X158397389Y-55352564D01*
X158357000Y-55149516D01*
X158357000Y-54942484D01*
X158397389Y-54739436D01*
X158476615Y-54548167D01*
X158490202Y-54527833D01*
X158591635Y-54376027D01*
X158738027Y-54229635D01*
X158910165Y-54114616D01*
X158921666Y-54109852D01*
X159101436Y-54035389D01*
X159304484Y-53995000D01*
X159511516Y-53995000D01*
X159714564Y-54035389D01*
X159714564Y-54035389D01*
G37*
G36*
X153214564Y-54035389D02*
G01*
X153394334Y-54109852D01*
X153405835Y-54114616D01*
X153577973Y-54229635D01*
X153724365Y-54376027D01*
X153825799Y-54527833D01*
X153839385Y-54548167D01*
X153918611Y-54739436D01*
X153959000Y-54942484D01*
X153959000Y-55149516D01*
X153918611Y-55352564D01*
X153839385Y-55543833D01*
X153839384Y-55543835D01*
X153724365Y-55715973D01*
X153577973Y-55862365D01*
X153405835Y-55977384D01*
X153405834Y-55977385D01*
X153405833Y-55977385D01*
X153214564Y-56056611D01*
X153011516Y-56097000D01*
X152804484Y-56097000D01*
X152601436Y-56056611D01*
X152410167Y-55977385D01*
X152410166Y-55977385D01*
X152410165Y-55977384D01*
X152238027Y-55862365D01*
X152091635Y-55715973D01*
X151976616Y-55543835D01*
X151976615Y-55543833D01*
X151897389Y-55352564D01*
X151857000Y-55149516D01*
X151857000Y-54942484D01*
X151897389Y-54739436D01*
X151976615Y-54548167D01*
X151990202Y-54527833D01*
X152091635Y-54376027D01*
X152238027Y-54229635D01*
X152410165Y-54114616D01*
X152421666Y-54109852D01*
X152601436Y-54035389D01*
X152804484Y-53995000D01*
X153011516Y-53995000D01*
X153214564Y-54035389D01*
X153214564Y-54035389D01*
G37*
G36*
X176986564Y-54035389D02*
G01*
X177166334Y-54109852D01*
X177177835Y-54114616D01*
X177349973Y-54229635D01*
X177496365Y-54376027D01*
X177597799Y-54527833D01*
X177611385Y-54548167D01*
X177690611Y-54739436D01*
X177731000Y-54942484D01*
X177731000Y-55149516D01*
X177690611Y-55352564D01*
X177611385Y-55543833D01*
X177611384Y-55543835D01*
X177496365Y-55715973D01*
X177349973Y-55862365D01*
X177177835Y-55977384D01*
X177177834Y-55977385D01*
X177177833Y-55977385D01*
X176986564Y-56056611D01*
X176783516Y-56097000D01*
X176576484Y-56097000D01*
X176373436Y-56056611D01*
X176182167Y-55977385D01*
X176182166Y-55977385D01*
X176182165Y-55977384D01*
X176010027Y-55862365D01*
X175863635Y-55715973D01*
X175748616Y-55543835D01*
X175748615Y-55543833D01*
X175669389Y-55352564D01*
X175629000Y-55149516D01*
X175629000Y-54942484D01*
X175669389Y-54739436D01*
X175748615Y-54548167D01*
X175762202Y-54527833D01*
X175863635Y-54376027D01*
X176010027Y-54229635D01*
X176182165Y-54114616D01*
X176193666Y-54109852D01*
X176373436Y-54035389D01*
X176576484Y-53995000D01*
X176783516Y-53995000D01*
X176986564Y-54035389D01*
X176986564Y-54035389D01*
G37*
G36*
X170486564Y-54035389D02*
G01*
X170666334Y-54109852D01*
X170677835Y-54114616D01*
X170849973Y-54229635D01*
X170996365Y-54376027D01*
X171097799Y-54527833D01*
X171111385Y-54548167D01*
X171190611Y-54739436D01*
X171231000Y-54942484D01*
X171231000Y-55149516D01*
X171190611Y-55352564D01*
X171111385Y-55543833D01*
X171111384Y-55543835D01*
X170996365Y-55715973D01*
X170849973Y-55862365D01*
X170677835Y-55977384D01*
X170677834Y-55977385D01*
X170677833Y-55977385D01*
X170486564Y-56056611D01*
X170283516Y-56097000D01*
X170076484Y-56097000D01*
X169873436Y-56056611D01*
X169682167Y-55977385D01*
X169682166Y-55977385D01*
X169682165Y-55977384D01*
X169510027Y-55862365D01*
X169363635Y-55715973D01*
X169248616Y-55543835D01*
X169248615Y-55543833D01*
X169169389Y-55352564D01*
X169129000Y-55149516D01*
X169129000Y-54942484D01*
X169169389Y-54739436D01*
X169248615Y-54548167D01*
X169262202Y-54527833D01*
X169363635Y-54376027D01*
X169510027Y-54229635D01*
X169682165Y-54114616D01*
X169693666Y-54109852D01*
X169873436Y-54035389D01*
X170076484Y-53995000D01*
X170283516Y-53995000D01*
X170486564Y-54035389D01*
X170486564Y-54035389D01*
G37*
G36*
X141934564Y-54035389D02*
G01*
X142114334Y-54109852D01*
X142125835Y-54114616D01*
X142297973Y-54229635D01*
X142444365Y-54376027D01*
X142545799Y-54527833D01*
X142559385Y-54548167D01*
X142638611Y-54739436D01*
X142679000Y-54942484D01*
X142679000Y-55149516D01*
X142638611Y-55352564D01*
X142559385Y-55543833D01*
X142559384Y-55543835D01*
X142444365Y-55715973D01*
X142297973Y-55862365D01*
X142125835Y-55977384D01*
X142125834Y-55977385D01*
X142125833Y-55977385D01*
X141934564Y-56056611D01*
X141731516Y-56097000D01*
X141524484Y-56097000D01*
X141321436Y-56056611D01*
X141130167Y-55977385D01*
X141130166Y-55977385D01*
X141130165Y-55977384D01*
X140958027Y-55862365D01*
X140811635Y-55715973D01*
X140696616Y-55543835D01*
X140696615Y-55543833D01*
X140617389Y-55352564D01*
X140577000Y-55149516D01*
X140577000Y-54942484D01*
X140617389Y-54739436D01*
X140696615Y-54548167D01*
X140710202Y-54527833D01*
X140811635Y-54376027D01*
X140958027Y-54229635D01*
X141130165Y-54114616D01*
X141141666Y-54109852D01*
X141321436Y-54035389D01*
X141524484Y-53995000D01*
X141731516Y-53995000D01*
X141934564Y-54035389D01*
X141934564Y-54035389D01*
G37*
G36*
X135434564Y-54035389D02*
G01*
X135614334Y-54109852D01*
X135625835Y-54114616D01*
X135797973Y-54229635D01*
X135944365Y-54376027D01*
X136045799Y-54527833D01*
X136059385Y-54548167D01*
X136138611Y-54739436D01*
X136179000Y-54942484D01*
X136179000Y-55149516D01*
X136138611Y-55352564D01*
X136059385Y-55543833D01*
X136059384Y-55543835D01*
X135944365Y-55715973D01*
X135797973Y-55862365D01*
X135625835Y-55977384D01*
X135625834Y-55977385D01*
X135625833Y-55977385D01*
X135434564Y-56056611D01*
X135231516Y-56097000D01*
X135024484Y-56097000D01*
X134821436Y-56056611D01*
X134630167Y-55977385D01*
X134630166Y-55977385D01*
X134630165Y-55977384D01*
X134458027Y-55862365D01*
X134311635Y-55715973D01*
X134196616Y-55543835D01*
X134196615Y-55543833D01*
X134117389Y-55352564D01*
X134077000Y-55149516D01*
X134077000Y-54942484D01*
X134117389Y-54739436D01*
X134196615Y-54548167D01*
X134210202Y-54527833D01*
X134311635Y-54376027D01*
X134458027Y-54229635D01*
X134630165Y-54114616D01*
X134641666Y-54109852D01*
X134821436Y-54035389D01*
X135024484Y-53995000D01*
X135231516Y-53995000D01*
X135434564Y-54035389D01*
X135434564Y-54035389D01*
G37*
G36*
X217926228Y-54045703D02*
G01*
X218081100Y-54109853D01*
X218220481Y-54202985D01*
X218339015Y-54321519D01*
X218432147Y-54460900D01*
X218496297Y-54615772D01*
X218529000Y-54780184D01*
X218529000Y-54947816D01*
X218496297Y-55112228D01*
X218432147Y-55267100D01*
X218339015Y-55406481D01*
X218220481Y-55525015D01*
X218081100Y-55618147D01*
X217926228Y-55682297D01*
X217761816Y-55715000D01*
X217594184Y-55715000D01*
X217429772Y-55682297D01*
X217274900Y-55618147D01*
X217135519Y-55525015D01*
X217016985Y-55406481D01*
X216923853Y-55267100D01*
X216859703Y-55112228D01*
X216827000Y-54947816D01*
X216827000Y-54780184D01*
X216859703Y-54615772D01*
X216923853Y-54460900D01*
X217016985Y-54321519D01*
X217135519Y-54202985D01*
X217274900Y-54109853D01*
X217429772Y-54045703D01*
X217594184Y-54013000D01*
X217761816Y-54013000D01*
X217926228Y-54045703D01*
X217926228Y-54045703D01*
G37*
G36*
X202686228Y-54045703D02*
G01*
X202841100Y-54109853D01*
X202980481Y-54202985D01*
X203099015Y-54321519D01*
X203192147Y-54460900D01*
X203256297Y-54615772D01*
X203289000Y-54780184D01*
X203289000Y-54947816D01*
X203256297Y-55112228D01*
X203192147Y-55267100D01*
X203099015Y-55406481D01*
X202980481Y-55525015D01*
X202841100Y-55618147D01*
X202686228Y-55682297D01*
X202521816Y-55715000D01*
X202354184Y-55715000D01*
X202189772Y-55682297D01*
X202034900Y-55618147D01*
X201895519Y-55525015D01*
X201776985Y-55406481D01*
X201683853Y-55267100D01*
X201619703Y-55112228D01*
X201587000Y-54947816D01*
X201587000Y-54780184D01*
X201619703Y-54615772D01*
X201683853Y-54460900D01*
X201776985Y-54321519D01*
X201895519Y-54202985D01*
X202034900Y-54109853D01*
X202189772Y-54045703D01*
X202354184Y-54013000D01*
X202521816Y-54013000D01*
X202686228Y-54045703D01*
X202686228Y-54045703D01*
G37*
G36*
X57202564Y-53019389D02*
G01*
X57393345Y-53098413D01*
X57393835Y-53098616D01*
X57459205Y-53142295D01*
X57565973Y-53213635D01*
X57712365Y-53360027D01*
X57827385Y-53532167D01*
X57906611Y-53723436D01*
X57947000Y-53926484D01*
X57947000Y-54133516D01*
X57906611Y-54336564D01*
X57855109Y-54460900D01*
X57827384Y-54527835D01*
X57712365Y-54699973D01*
X57565973Y-54846365D01*
X57393835Y-54961384D01*
X57393834Y-54961385D01*
X57393833Y-54961385D01*
X57202564Y-55040611D01*
X56999516Y-55081000D01*
X56792484Y-55081000D01*
X56589436Y-55040611D01*
X56398167Y-54961385D01*
X56398166Y-54961385D01*
X56398165Y-54961384D01*
X56226027Y-54846365D01*
X56079635Y-54699973D01*
X55964616Y-54527835D01*
X55936891Y-54460900D01*
X55885389Y-54336564D01*
X55845000Y-54133516D01*
X55845000Y-53926484D01*
X55885389Y-53723436D01*
X55964615Y-53532167D01*
X56079635Y-53360027D01*
X56226027Y-53213635D01*
X56332795Y-53142295D01*
X56398165Y-53098616D01*
X56398655Y-53098413D01*
X56589436Y-53019389D01*
X56792484Y-52979000D01*
X56999516Y-52979000D01*
X57202564Y-53019389D01*
X57202564Y-53019389D01*
G37*
G36*
X63702564Y-53019389D02*
G01*
X63893345Y-53098413D01*
X63893835Y-53098616D01*
X63959205Y-53142295D01*
X64065973Y-53213635D01*
X64212365Y-53360027D01*
X64327385Y-53532167D01*
X64406611Y-53723436D01*
X64447000Y-53926484D01*
X64447000Y-54133516D01*
X64406611Y-54336564D01*
X64355109Y-54460900D01*
X64327384Y-54527835D01*
X64212365Y-54699973D01*
X64065973Y-54846365D01*
X63893835Y-54961384D01*
X63893834Y-54961385D01*
X63893833Y-54961385D01*
X63702564Y-55040611D01*
X63499516Y-55081000D01*
X63292484Y-55081000D01*
X63089436Y-55040611D01*
X62898167Y-54961385D01*
X62898166Y-54961385D01*
X62898165Y-54961384D01*
X62726027Y-54846365D01*
X62579635Y-54699973D01*
X62464616Y-54527835D01*
X62436891Y-54460900D01*
X62385389Y-54336564D01*
X62345000Y-54133516D01*
X62345000Y-53926484D01*
X62385389Y-53723436D01*
X62464615Y-53532167D01*
X62579635Y-53360027D01*
X62726027Y-53213635D01*
X62832795Y-53142295D01*
X62898165Y-53098616D01*
X62898655Y-53098413D01*
X63089436Y-53019389D01*
X63292484Y-52979000D01*
X63499516Y-52979000D01*
X63702564Y-53019389D01*
X63702564Y-53019389D01*
G37*
G36*
X118720153Y-51323922D02*
G01*
X118812194Y-51362047D01*
X118942359Y-51415963D01*
X119142342Y-51549587D01*
X119312413Y-51719658D01*
X119446037Y-51919641D01*
X119491642Y-52029741D01*
X119510709Y-52075772D01*
X119538078Y-52141848D01*
X119563621Y-52270259D01*
X119585000Y-52377742D01*
X119585000Y-52618258D01*
X119538078Y-52854153D01*
X119507348Y-52928342D01*
X119446037Y-53076359D01*
X119312413Y-53276342D01*
X119142342Y-53446413D01*
X118942359Y-53580037D01*
X118812194Y-53633953D01*
X118720153Y-53672078D01*
X118602205Y-53695539D01*
X118484259Y-53719000D01*
X118243741Y-53719000D01*
X118125795Y-53695539D01*
X118007847Y-53672078D01*
X117915806Y-53633953D01*
X117785641Y-53580037D01*
X117585658Y-53446413D01*
X117415587Y-53276342D01*
X117281963Y-53076359D01*
X117220652Y-52928342D01*
X117189922Y-52854153D01*
X117143000Y-52618258D01*
X117143000Y-52377742D01*
X117164380Y-52270259D01*
X117189922Y-52141848D01*
X117217292Y-52075772D01*
X117236358Y-52029741D01*
X117281963Y-51919641D01*
X117415587Y-51719658D01*
X117585658Y-51549587D01*
X117785641Y-51415963D01*
X117915806Y-51362047D01*
X118007847Y-51323922D01*
X118243741Y-51277000D01*
X118484259Y-51277000D01*
X118720153Y-51323922D01*
X118720153Y-51323922D01*
G37*
G36*
X72746153Y-50975922D02*
G01*
X72838194Y-51014047D01*
X72968359Y-51067963D01*
X73168342Y-51201587D01*
X73338413Y-51371658D01*
X73472037Y-51571641D01*
X73482541Y-51597000D01*
X73558972Y-51781519D01*
X73564078Y-51793848D01*
X73611000Y-52029741D01*
X73611000Y-52270259D01*
X73589620Y-52377742D01*
X73564078Y-52506153D01*
X73536708Y-52572229D01*
X73472037Y-52728359D01*
X73338413Y-52928342D01*
X73168342Y-53098413D01*
X72968359Y-53232037D01*
X72861397Y-53276342D01*
X72746153Y-53324078D01*
X72510259Y-53371000D01*
X72269741Y-53371000D01*
X72033847Y-53324078D01*
X71918603Y-53276342D01*
X71811641Y-53232037D01*
X71611658Y-53098413D01*
X71441587Y-52928342D01*
X71307963Y-52728359D01*
X71243292Y-52572229D01*
X71215922Y-52506153D01*
X71190380Y-52377742D01*
X71169000Y-52270259D01*
X71169000Y-52029741D01*
X71215922Y-51793848D01*
X71221029Y-51781519D01*
X71297459Y-51597000D01*
X71307963Y-51571641D01*
X71441587Y-51371658D01*
X71611658Y-51201587D01*
X71811641Y-51067963D01*
X71941806Y-51014047D01*
X72033847Y-50975922D01*
X72269741Y-50929000D01*
X72510259Y-50929000D01*
X72746153Y-50975922D01*
X72746153Y-50975922D01*
G37*
G36*
X202686228Y-51505703D02*
G01*
X202841100Y-51569853D01*
X202980481Y-51662985D01*
X203099015Y-51781519D01*
X203192147Y-51920900D01*
X203256297Y-52075772D01*
X203289000Y-52240184D01*
X203289000Y-52407816D01*
X203256297Y-52572228D01*
X203192147Y-52727100D01*
X203099015Y-52866481D01*
X202980481Y-52985015D01*
X202841100Y-53078147D01*
X202686228Y-53142297D01*
X202521816Y-53175000D01*
X202354184Y-53175000D01*
X202189772Y-53142297D01*
X202034900Y-53078147D01*
X201895519Y-52985015D01*
X201776985Y-52866481D01*
X201683853Y-52727100D01*
X201619703Y-52572228D01*
X201587000Y-52407816D01*
X201587000Y-52240184D01*
X201619703Y-52075772D01*
X201683853Y-51920900D01*
X201776985Y-51781519D01*
X201895519Y-51662985D01*
X202034900Y-51569853D01*
X202189772Y-51505703D01*
X202354184Y-51473000D01*
X202521816Y-51473000D01*
X202686228Y-51505703D01*
X202686228Y-51505703D01*
G37*
G36*
X217926228Y-51505703D02*
G01*
X218081100Y-51569853D01*
X218220481Y-51662985D01*
X218339015Y-51781519D01*
X218432147Y-51920900D01*
X218496297Y-52075772D01*
X218529000Y-52240184D01*
X218529000Y-52407816D01*
X218496297Y-52572228D01*
X218432147Y-52727100D01*
X218339015Y-52866481D01*
X218220481Y-52985015D01*
X218081100Y-53078147D01*
X217926228Y-53142297D01*
X217761816Y-53175000D01*
X217594184Y-53175000D01*
X217429772Y-53142297D01*
X217274900Y-53078147D01*
X217135519Y-52985015D01*
X217016985Y-52866481D01*
X216923853Y-52727100D01*
X216859703Y-52572228D01*
X216827000Y-52407816D01*
X216827000Y-52240184D01*
X216859703Y-52075772D01*
X216923853Y-51920900D01*
X217016985Y-51781519D01*
X217135519Y-51662985D01*
X217274900Y-51569853D01*
X217429772Y-51505703D01*
X217594184Y-51473000D01*
X217761816Y-51473000D01*
X217926228Y-51505703D01*
X217926228Y-51505703D01*
G37*
G36*
X176986564Y-49535389D02*
G01*
X177177833Y-49614615D01*
X177177835Y-49614616D01*
X177349973Y-49729635D01*
X177496365Y-49876027D01*
X177597799Y-50027833D01*
X177611385Y-50048167D01*
X177690611Y-50239436D01*
X177731000Y-50442484D01*
X177731000Y-50649516D01*
X177690611Y-50852564D01*
X177611385Y-51043833D01*
X177611384Y-51043835D01*
X177496365Y-51215973D01*
X177349973Y-51362365D01*
X177177835Y-51477384D01*
X177177834Y-51477385D01*
X177177833Y-51477385D01*
X176986564Y-51556611D01*
X176783516Y-51597000D01*
X176576484Y-51597000D01*
X176373436Y-51556611D01*
X176182167Y-51477385D01*
X176182166Y-51477385D01*
X176182165Y-51477384D01*
X176010027Y-51362365D01*
X175863635Y-51215973D01*
X175748616Y-51043835D01*
X175748615Y-51043833D01*
X175669389Y-50852564D01*
X175629000Y-50649516D01*
X175629000Y-50442484D01*
X175669389Y-50239436D01*
X175748615Y-50048167D01*
X175762202Y-50027833D01*
X175863635Y-49876027D01*
X176010027Y-49729635D01*
X176182165Y-49614616D01*
X176182167Y-49614615D01*
X176373436Y-49535389D01*
X176576484Y-49495000D01*
X176783516Y-49495000D01*
X176986564Y-49535389D01*
X176986564Y-49535389D01*
G37*
G36*
X170486564Y-49535389D02*
G01*
X170677833Y-49614615D01*
X170677835Y-49614616D01*
X170849973Y-49729635D01*
X170996365Y-49876027D01*
X171097799Y-50027833D01*
X171111385Y-50048167D01*
X171190611Y-50239436D01*
X171231000Y-50442484D01*
X171231000Y-50649516D01*
X171190611Y-50852564D01*
X171111385Y-51043833D01*
X171111384Y-51043835D01*
X170996365Y-51215973D01*
X170849973Y-51362365D01*
X170677835Y-51477384D01*
X170677834Y-51477385D01*
X170677833Y-51477385D01*
X170486564Y-51556611D01*
X170283516Y-51597000D01*
X170076484Y-51597000D01*
X169873436Y-51556611D01*
X169682167Y-51477385D01*
X169682166Y-51477385D01*
X169682165Y-51477384D01*
X169510027Y-51362365D01*
X169363635Y-51215973D01*
X169248616Y-51043835D01*
X169248615Y-51043833D01*
X169169389Y-50852564D01*
X169129000Y-50649516D01*
X169129000Y-50442484D01*
X169169389Y-50239436D01*
X169248615Y-50048167D01*
X169262202Y-50027833D01*
X169363635Y-49876027D01*
X169510027Y-49729635D01*
X169682165Y-49614616D01*
X169682167Y-49614615D01*
X169873436Y-49535389D01*
X170076484Y-49495000D01*
X170283516Y-49495000D01*
X170486564Y-49535389D01*
X170486564Y-49535389D01*
G37*
G36*
X159714564Y-49535389D02*
G01*
X159905833Y-49614615D01*
X159905835Y-49614616D01*
X160077973Y-49729635D01*
X160224365Y-49876027D01*
X160325799Y-50027833D01*
X160339385Y-50048167D01*
X160418611Y-50239436D01*
X160459000Y-50442484D01*
X160459000Y-50649516D01*
X160418611Y-50852564D01*
X160339385Y-51043833D01*
X160339384Y-51043835D01*
X160224365Y-51215973D01*
X160077973Y-51362365D01*
X159905835Y-51477384D01*
X159905834Y-51477385D01*
X159905833Y-51477385D01*
X159714564Y-51556611D01*
X159511516Y-51597000D01*
X159304484Y-51597000D01*
X159101436Y-51556611D01*
X158910167Y-51477385D01*
X158910166Y-51477385D01*
X158910165Y-51477384D01*
X158738027Y-51362365D01*
X158591635Y-51215973D01*
X158476616Y-51043835D01*
X158476615Y-51043833D01*
X158397389Y-50852564D01*
X158357000Y-50649516D01*
X158357000Y-50442484D01*
X158397389Y-50239436D01*
X158476615Y-50048167D01*
X158490202Y-50027833D01*
X158591635Y-49876027D01*
X158738027Y-49729635D01*
X158910165Y-49614616D01*
X158910167Y-49614615D01*
X159101436Y-49535389D01*
X159304484Y-49495000D01*
X159511516Y-49495000D01*
X159714564Y-49535389D01*
X159714564Y-49535389D01*
G37*
G36*
X135434564Y-49535389D02*
G01*
X135625833Y-49614615D01*
X135625835Y-49614616D01*
X135797973Y-49729635D01*
X135944365Y-49876027D01*
X136045799Y-50027833D01*
X136059385Y-50048167D01*
X136138611Y-50239436D01*
X136179000Y-50442484D01*
X136179000Y-50649516D01*
X136138611Y-50852564D01*
X136059385Y-51043833D01*
X136059384Y-51043835D01*
X135944365Y-51215973D01*
X135797973Y-51362365D01*
X135625835Y-51477384D01*
X135625834Y-51477385D01*
X135625833Y-51477385D01*
X135434564Y-51556611D01*
X135231516Y-51597000D01*
X135024484Y-51597000D01*
X134821436Y-51556611D01*
X134630167Y-51477385D01*
X134630166Y-51477385D01*
X134630165Y-51477384D01*
X134458027Y-51362365D01*
X134311635Y-51215973D01*
X134196616Y-51043835D01*
X134196615Y-51043833D01*
X134117389Y-50852564D01*
X134077000Y-50649516D01*
X134077000Y-50442484D01*
X134117389Y-50239436D01*
X134196615Y-50048167D01*
X134210202Y-50027833D01*
X134311635Y-49876027D01*
X134458027Y-49729635D01*
X134630165Y-49614616D01*
X134630167Y-49614615D01*
X134821436Y-49535389D01*
X135024484Y-49495000D01*
X135231516Y-49495000D01*
X135434564Y-49535389D01*
X135434564Y-49535389D01*
G37*
G36*
X153214564Y-49535389D02*
G01*
X153405833Y-49614615D01*
X153405835Y-49614616D01*
X153577973Y-49729635D01*
X153724365Y-49876027D01*
X153825799Y-50027833D01*
X153839385Y-50048167D01*
X153918611Y-50239436D01*
X153959000Y-50442484D01*
X153959000Y-50649516D01*
X153918611Y-50852564D01*
X153839385Y-51043833D01*
X153839384Y-51043835D01*
X153724365Y-51215973D01*
X153577973Y-51362365D01*
X153405835Y-51477384D01*
X153405834Y-51477385D01*
X153405833Y-51477385D01*
X153214564Y-51556611D01*
X153011516Y-51597000D01*
X152804484Y-51597000D01*
X152601436Y-51556611D01*
X152410167Y-51477385D01*
X152410166Y-51477385D01*
X152410165Y-51477384D01*
X152238027Y-51362365D01*
X152091635Y-51215973D01*
X151976616Y-51043835D01*
X151976615Y-51043833D01*
X151897389Y-50852564D01*
X151857000Y-50649516D01*
X151857000Y-50442484D01*
X151897389Y-50239436D01*
X151976615Y-50048167D01*
X151990202Y-50027833D01*
X152091635Y-49876027D01*
X152238027Y-49729635D01*
X152410165Y-49614616D01*
X152410167Y-49614615D01*
X152601436Y-49535389D01*
X152804484Y-49495000D01*
X153011516Y-49495000D01*
X153214564Y-49535389D01*
X153214564Y-49535389D01*
G37*
G36*
X141934564Y-49535389D02*
G01*
X142125833Y-49614615D01*
X142125835Y-49614616D01*
X142297973Y-49729635D01*
X142444365Y-49876027D01*
X142545799Y-50027833D01*
X142559385Y-50048167D01*
X142638611Y-50239436D01*
X142679000Y-50442484D01*
X142679000Y-50649516D01*
X142638611Y-50852564D01*
X142559385Y-51043833D01*
X142559384Y-51043835D01*
X142444365Y-51215973D01*
X142297973Y-51362365D01*
X142125835Y-51477384D01*
X142125834Y-51477385D01*
X142125833Y-51477385D01*
X141934564Y-51556611D01*
X141731516Y-51597000D01*
X141524484Y-51597000D01*
X141321436Y-51556611D01*
X141130167Y-51477385D01*
X141130166Y-51477385D01*
X141130165Y-51477384D01*
X140958027Y-51362365D01*
X140811635Y-51215973D01*
X140696616Y-51043835D01*
X140696615Y-51043833D01*
X140617389Y-50852564D01*
X140577000Y-50649516D01*
X140577000Y-50442484D01*
X140617389Y-50239436D01*
X140696615Y-50048167D01*
X140710202Y-50027833D01*
X140811635Y-49876027D01*
X140958027Y-49729635D01*
X141130165Y-49614616D01*
X141130167Y-49614615D01*
X141321436Y-49535389D01*
X141524484Y-49495000D01*
X141731516Y-49495000D01*
X141934564Y-49535389D01*
X141934564Y-49535389D01*
G37*
G36*
X217926228Y-48965703D02*
G01*
X218081100Y-49029853D01*
X218220481Y-49122985D01*
X218339015Y-49241519D01*
X218432147Y-49380900D01*
X218496297Y-49535772D01*
X218529000Y-49700184D01*
X218529000Y-49867816D01*
X218496297Y-50032228D01*
X218432147Y-50187100D01*
X218339015Y-50326481D01*
X218220481Y-50445015D01*
X218081100Y-50538147D01*
X217926228Y-50602297D01*
X217761816Y-50635000D01*
X217594184Y-50635000D01*
X217429772Y-50602297D01*
X217274900Y-50538147D01*
X217135519Y-50445015D01*
X217016985Y-50326481D01*
X216923853Y-50187100D01*
X216859703Y-50032228D01*
X216827000Y-49867816D01*
X216827000Y-49700184D01*
X216859703Y-49535772D01*
X216923853Y-49380900D01*
X217016985Y-49241519D01*
X217135519Y-49122985D01*
X217274900Y-49029853D01*
X217429772Y-48965703D01*
X217594184Y-48933000D01*
X217761816Y-48933000D01*
X217926228Y-48965703D01*
X217926228Y-48965703D01*
G37*
G36*
X202686228Y-48965703D02*
G01*
X202841100Y-49029853D01*
X202980481Y-49122985D01*
X203099015Y-49241519D01*
X203192147Y-49380900D01*
X203256297Y-49535772D01*
X203289000Y-49700184D01*
X203289000Y-49867816D01*
X203256297Y-50032228D01*
X203192147Y-50187100D01*
X203099015Y-50326481D01*
X202980481Y-50445015D01*
X202841100Y-50538147D01*
X202686228Y-50602297D01*
X202521816Y-50635000D01*
X202354184Y-50635000D01*
X202189772Y-50602297D01*
X202034900Y-50538147D01*
X201895519Y-50445015D01*
X201776985Y-50326481D01*
X201683853Y-50187100D01*
X201619703Y-50032228D01*
X201587000Y-49867816D01*
X201587000Y-49700184D01*
X201619703Y-49535772D01*
X201683853Y-49380900D01*
X201776985Y-49241519D01*
X201895519Y-49122985D01*
X202034900Y-49029853D01*
X202189772Y-48965703D01*
X202354184Y-48933000D01*
X202521816Y-48933000D01*
X202686228Y-48965703D01*
X202686228Y-48965703D01*
G37*
G36*
X57202564Y-48519389D02*
G01*
X57393833Y-48598615D01*
X57393835Y-48598616D01*
X57565973Y-48713635D01*
X57712365Y-48860027D01*
X57825839Y-49029852D01*
X57827385Y-49032167D01*
X57906611Y-49223436D01*
X57947000Y-49426484D01*
X57947000Y-49633516D01*
X57906611Y-49836564D01*
X57827385Y-50027833D01*
X57827384Y-50027835D01*
X57712365Y-50199973D01*
X57565973Y-50346365D01*
X57393835Y-50461384D01*
X57393834Y-50461385D01*
X57393833Y-50461385D01*
X57202564Y-50540611D01*
X56999516Y-50581000D01*
X56792484Y-50581000D01*
X56589436Y-50540611D01*
X56398167Y-50461385D01*
X56398166Y-50461385D01*
X56398165Y-50461384D01*
X56226027Y-50346365D01*
X56079635Y-50199973D01*
X55964616Y-50027835D01*
X55964615Y-50027833D01*
X55885389Y-49836564D01*
X55845000Y-49633516D01*
X55845000Y-49426484D01*
X55885389Y-49223436D01*
X55964615Y-49032167D01*
X55966162Y-49029852D01*
X56079635Y-48860027D01*
X56226027Y-48713635D01*
X56398165Y-48598616D01*
X56398167Y-48598615D01*
X56589436Y-48519389D01*
X56792484Y-48479000D01*
X56999516Y-48479000D01*
X57202564Y-48519389D01*
X57202564Y-48519389D01*
G37*
G36*
X63702564Y-48519389D02*
G01*
X63893833Y-48598615D01*
X63893835Y-48598616D01*
X64065973Y-48713635D01*
X64212365Y-48860027D01*
X64325839Y-49029852D01*
X64327385Y-49032167D01*
X64406611Y-49223436D01*
X64447000Y-49426484D01*
X64447000Y-49633516D01*
X64406611Y-49836564D01*
X64327385Y-50027833D01*
X64327384Y-50027835D01*
X64212365Y-50199973D01*
X64065973Y-50346365D01*
X63893835Y-50461384D01*
X63893834Y-50461385D01*
X63893833Y-50461385D01*
X63702564Y-50540611D01*
X63499516Y-50581000D01*
X63292484Y-50581000D01*
X63089436Y-50540611D01*
X62898167Y-50461385D01*
X62898166Y-50461385D01*
X62898165Y-50461384D01*
X62726027Y-50346365D01*
X62579635Y-50199973D01*
X62464616Y-50027835D01*
X62464615Y-50027833D01*
X62385389Y-49836564D01*
X62345000Y-49633516D01*
X62345000Y-49426484D01*
X62385389Y-49223436D01*
X62464615Y-49032167D01*
X62466162Y-49029852D01*
X62579635Y-48860027D01*
X62726027Y-48713635D01*
X62898165Y-48598616D01*
X62898167Y-48598615D01*
X63089436Y-48519389D01*
X63292484Y-48479000D01*
X63499516Y-48479000D01*
X63702564Y-48519389D01*
X63702564Y-48519389D01*
G37*
G36*
X118602205Y-46300461D02*
G01*
X118720153Y-46323922D01*
X118812194Y-46362047D01*
X118942359Y-46415963D01*
X119142342Y-46549587D01*
X119312413Y-46719658D01*
X119446037Y-46919641D01*
X119477571Y-46995771D01*
X119538078Y-47141847D01*
X119561539Y-47259795D01*
X119585000Y-47377741D01*
X119585000Y-47618259D01*
X119538078Y-47854152D01*
X119446037Y-48076359D01*
X119312413Y-48276342D01*
X119142342Y-48446413D01*
X118942359Y-48580037D01*
X118812194Y-48633953D01*
X118720153Y-48672078D01*
X118602205Y-48695539D01*
X118484259Y-48719000D01*
X118243741Y-48719000D01*
X118007847Y-48672078D01*
X117915806Y-48633953D01*
X117785641Y-48580037D01*
X117585658Y-48446413D01*
X117415587Y-48276342D01*
X117281963Y-48076359D01*
X117189922Y-47854152D01*
X117143000Y-47618259D01*
X117143000Y-47377741D01*
X117166461Y-47259795D01*
X117189922Y-47141847D01*
X117250429Y-46995771D01*
X117281963Y-46919641D01*
X117415587Y-46719658D01*
X117585658Y-46549587D01*
X117785641Y-46415963D01*
X117915806Y-46362047D01*
X118007847Y-46323922D01*
X118243741Y-46277000D01*
X118484259Y-46277000D01*
X118602205Y-46300461D01*
X118602205Y-46300461D01*
G37*
G36*
X72628205Y-45952461D02*
G01*
X72746153Y-45975922D01*
X72838194Y-46014047D01*
X72968359Y-46067963D01*
X73168342Y-46201587D01*
X73338413Y-46371658D01*
X73472037Y-46571641D01*
X73564078Y-46793848D01*
X73611000Y-47029741D01*
X73611000Y-47270259D01*
X73589620Y-47377742D01*
X73566848Y-47492229D01*
X73564078Y-47506152D01*
X73472037Y-47728359D01*
X73338413Y-47928342D01*
X73168342Y-48098413D01*
X72968359Y-48232037D01*
X72861397Y-48276342D01*
X72746153Y-48324078D01*
X72628205Y-48347539D01*
X72510259Y-48371000D01*
X72269741Y-48371000D01*
X72033847Y-48324078D01*
X71918603Y-48276342D01*
X71811641Y-48232037D01*
X71611658Y-48098413D01*
X71441587Y-47928342D01*
X71307963Y-47728359D01*
X71215922Y-47506152D01*
X71213153Y-47492229D01*
X71190380Y-47377742D01*
X71169000Y-47270259D01*
X71169000Y-47029741D01*
X71215922Y-46793848D01*
X71307963Y-46571641D01*
X71441587Y-46371658D01*
X71611658Y-46201587D01*
X71811641Y-46067963D01*
X71941806Y-46014047D01*
X72033847Y-45975922D01*
X72269741Y-45929000D01*
X72510259Y-45929000D01*
X72628205Y-45952461D01*
X72628205Y-45952461D01*
G37*
G36*
X202686228Y-46425703D02*
G01*
X202841100Y-46489853D01*
X202980481Y-46582985D01*
X203099015Y-46701519D01*
X203192147Y-46840900D01*
X203256297Y-46995772D01*
X203289000Y-47160184D01*
X203289000Y-47327816D01*
X203256297Y-47492228D01*
X203192147Y-47647100D01*
X203099015Y-47786481D01*
X202980481Y-47905015D01*
X202841100Y-47998147D01*
X202686228Y-48062297D01*
X202521816Y-48095000D01*
X202354184Y-48095000D01*
X202189772Y-48062297D01*
X202034900Y-47998147D01*
X201895519Y-47905015D01*
X201776985Y-47786481D01*
X201683853Y-47647100D01*
X201619703Y-47492228D01*
X201587000Y-47327816D01*
X201587000Y-47160184D01*
X201619703Y-46995772D01*
X201683853Y-46840900D01*
X201776985Y-46701519D01*
X201895519Y-46582985D01*
X202034900Y-46489853D01*
X202189772Y-46425703D01*
X202354184Y-46393000D01*
X202521816Y-46393000D01*
X202686228Y-46425703D01*
X202686228Y-46425703D01*
G37*
G36*
X205226228Y-46425703D02*
G01*
X205381100Y-46489853D01*
X205520481Y-46582985D01*
X205639015Y-46701519D01*
X205732147Y-46840900D01*
X205796297Y-46995772D01*
X205829000Y-47160184D01*
X205829000Y-47327816D01*
X205796297Y-47492228D01*
X205732147Y-47647100D01*
X205639015Y-47786481D01*
X205520481Y-47905015D01*
X205381100Y-47998147D01*
X205226228Y-48062297D01*
X205061816Y-48095000D01*
X204894184Y-48095000D01*
X204729772Y-48062297D01*
X204574900Y-47998147D01*
X204435519Y-47905015D01*
X204316985Y-47786481D01*
X204223853Y-47647100D01*
X204159703Y-47492228D01*
X204127000Y-47327816D01*
X204127000Y-47160184D01*
X204159703Y-46995772D01*
X204223853Y-46840900D01*
X204316985Y-46701519D01*
X204435519Y-46582985D01*
X204574900Y-46489853D01*
X204729772Y-46425703D01*
X204894184Y-46393000D01*
X205061816Y-46393000D01*
X205226228Y-46425703D01*
X205226228Y-46425703D01*
G37*
G36*
X207766228Y-46425703D02*
G01*
X207921100Y-46489853D01*
X208060481Y-46582985D01*
X208179015Y-46701519D01*
X208272147Y-46840900D01*
X208336297Y-46995772D01*
X208369000Y-47160184D01*
X208369000Y-47327816D01*
X208336297Y-47492228D01*
X208272147Y-47647100D01*
X208179015Y-47786481D01*
X208060481Y-47905015D01*
X207921100Y-47998147D01*
X207766228Y-48062297D01*
X207601816Y-48095000D01*
X207434184Y-48095000D01*
X207269772Y-48062297D01*
X207114900Y-47998147D01*
X206975519Y-47905015D01*
X206856985Y-47786481D01*
X206763853Y-47647100D01*
X206699703Y-47492228D01*
X206667000Y-47327816D01*
X206667000Y-47160184D01*
X206699703Y-46995772D01*
X206763853Y-46840900D01*
X206856985Y-46701519D01*
X206975519Y-46582985D01*
X207114900Y-46489853D01*
X207269772Y-46425703D01*
X207434184Y-46393000D01*
X207601816Y-46393000D01*
X207766228Y-46425703D01*
X207766228Y-46425703D01*
G37*
G36*
X217926228Y-46425703D02*
G01*
X218081100Y-46489853D01*
X218220481Y-46582985D01*
X218339015Y-46701519D01*
X218432147Y-46840900D01*
X218496297Y-46995772D01*
X218529000Y-47160184D01*
X218529000Y-47327816D01*
X218496297Y-47492228D01*
X218432147Y-47647100D01*
X218339015Y-47786481D01*
X218220481Y-47905015D01*
X218081100Y-47998147D01*
X217926228Y-48062297D01*
X217761816Y-48095000D01*
X217594184Y-48095000D01*
X217429772Y-48062297D01*
X217274900Y-47998147D01*
X217135519Y-47905015D01*
X217016985Y-47786481D01*
X216923853Y-47647100D01*
X216859703Y-47492228D01*
X216827000Y-47327816D01*
X216827000Y-47160184D01*
X216859703Y-46995772D01*
X216923853Y-46840900D01*
X217016985Y-46701519D01*
X217135519Y-46582985D01*
X217274900Y-46489853D01*
X217429772Y-46425703D01*
X217594184Y-46393000D01*
X217761816Y-46393000D01*
X217926228Y-46425703D01*
X217926228Y-46425703D01*
G37*
G36*
X215386228Y-46425703D02*
G01*
X215541100Y-46489853D01*
X215680481Y-46582985D01*
X215799015Y-46701519D01*
X215892147Y-46840900D01*
X215956297Y-46995772D01*
X215989000Y-47160184D01*
X215989000Y-47327816D01*
X215956297Y-47492228D01*
X215892147Y-47647100D01*
X215799015Y-47786481D01*
X215680481Y-47905015D01*
X215541100Y-47998147D01*
X215386228Y-48062297D01*
X215221816Y-48095000D01*
X215054184Y-48095000D01*
X214889772Y-48062297D01*
X214734900Y-47998147D01*
X214595519Y-47905015D01*
X214476985Y-47786481D01*
X214383853Y-47647100D01*
X214319703Y-47492228D01*
X214287000Y-47327816D01*
X214287000Y-47160184D01*
X214319703Y-46995772D01*
X214383853Y-46840900D01*
X214476985Y-46701519D01*
X214595519Y-46582985D01*
X214734900Y-46489853D01*
X214889772Y-46425703D01*
X215054184Y-46393000D01*
X215221816Y-46393000D01*
X215386228Y-46425703D01*
X215386228Y-46425703D01*
G37*
G36*
X212846228Y-46425703D02*
G01*
X213001100Y-46489853D01*
X213140481Y-46582985D01*
X213259015Y-46701519D01*
X213352147Y-46840900D01*
X213416297Y-46995772D01*
X213449000Y-47160184D01*
X213449000Y-47327816D01*
X213416297Y-47492228D01*
X213352147Y-47647100D01*
X213259015Y-47786481D01*
X213140481Y-47905015D01*
X213001100Y-47998147D01*
X212846228Y-48062297D01*
X212681816Y-48095000D01*
X212514184Y-48095000D01*
X212349772Y-48062297D01*
X212194900Y-47998147D01*
X212055519Y-47905015D01*
X211936985Y-47786481D01*
X211843853Y-47647100D01*
X211779703Y-47492228D01*
X211747000Y-47327816D01*
X211747000Y-47160184D01*
X211779703Y-46995772D01*
X211843853Y-46840900D01*
X211936985Y-46701519D01*
X212055519Y-46582985D01*
X212194900Y-46489853D01*
X212349772Y-46425703D01*
X212514184Y-46393000D01*
X212681816Y-46393000D01*
X212846228Y-46425703D01*
X212846228Y-46425703D01*
G37*
G36*
X210306228Y-46425703D02*
G01*
X210461100Y-46489853D01*
X210600481Y-46582985D01*
X210719015Y-46701519D01*
X210812147Y-46840900D01*
X210876297Y-46995772D01*
X210909000Y-47160184D01*
X210909000Y-47327816D01*
X210876297Y-47492228D01*
X210812147Y-47647100D01*
X210719015Y-47786481D01*
X210600481Y-47905015D01*
X210461100Y-47998147D01*
X210306228Y-48062297D01*
X210141816Y-48095000D01*
X209974184Y-48095000D01*
X209809772Y-48062297D01*
X209654900Y-47998147D01*
X209515519Y-47905015D01*
X209396985Y-47786481D01*
X209303853Y-47647100D01*
X209239703Y-47492228D01*
X209207000Y-47327816D01*
X209207000Y-47160184D01*
X209239703Y-46995772D01*
X209303853Y-46840900D01*
X209396985Y-46701519D01*
X209515519Y-46582985D01*
X209654900Y-46489853D01*
X209809772Y-46425703D01*
X209974184Y-46393000D01*
X210141816Y-46393000D01*
X210306228Y-46425703D01*
X210306228Y-46425703D01*
G37*
G36*
X217926228Y-43885703D02*
G01*
X218081100Y-43949853D01*
X218220481Y-44042985D01*
X218339015Y-44161519D01*
X218432147Y-44300900D01*
X218496297Y-44455772D01*
X218529000Y-44620184D01*
X218529000Y-44787816D01*
X218496297Y-44952228D01*
X218432147Y-45107100D01*
X218339015Y-45246481D01*
X218220481Y-45365015D01*
X218081100Y-45458147D01*
X217926228Y-45522297D01*
X217761816Y-45555000D01*
X217594184Y-45555000D01*
X217429772Y-45522297D01*
X217274900Y-45458147D01*
X217135519Y-45365015D01*
X217016985Y-45246481D01*
X216923853Y-45107100D01*
X216859703Y-44952228D01*
X216827000Y-44787816D01*
X216827000Y-44620184D01*
X216859703Y-44455772D01*
X216923853Y-44300900D01*
X217016985Y-44161519D01*
X217135519Y-44042985D01*
X217274900Y-43949853D01*
X217429772Y-43885703D01*
X217594184Y-43853000D01*
X217761816Y-43853000D01*
X217926228Y-43885703D01*
X217926228Y-43885703D01*
G37*
G36*
X202686228Y-43885703D02*
G01*
X202841100Y-43949853D01*
X202980481Y-44042985D01*
X203099015Y-44161519D01*
X203192147Y-44300900D01*
X203256297Y-44455772D01*
X203289000Y-44620184D01*
X203289000Y-44787816D01*
X203256297Y-44952228D01*
X203192147Y-45107100D01*
X203099015Y-45246481D01*
X202980481Y-45365015D01*
X202841100Y-45458147D01*
X202686228Y-45522297D01*
X202521816Y-45555000D01*
X202354184Y-45555000D01*
X202189772Y-45522297D01*
X202034900Y-45458147D01*
X201895519Y-45365015D01*
X201776985Y-45246481D01*
X201683853Y-45107100D01*
X201619703Y-44952228D01*
X201587000Y-44787816D01*
X201587000Y-44620184D01*
X201619703Y-44455772D01*
X201683853Y-44300900D01*
X201776985Y-44161519D01*
X201895519Y-44042985D01*
X202034900Y-43949853D01*
X202189772Y-43885703D01*
X202354184Y-43853000D01*
X202521816Y-43853000D01*
X202686228Y-43885703D01*
X202686228Y-43885703D01*
G37*
G36*
X135688564Y-43367389D02*
G01*
X135879833Y-43446615D01*
X135879835Y-43446616D01*
X136051973Y-43561635D01*
X136198365Y-43708027D01*
X136313385Y-43880167D01*
X136392611Y-44071436D01*
X136433000Y-44274484D01*
X136433000Y-44481516D01*
X136392611Y-44684564D01*
X136313385Y-44875833D01*
X136313384Y-44875835D01*
X136198365Y-45047973D01*
X136051973Y-45194365D01*
X135879835Y-45309384D01*
X135879834Y-45309385D01*
X135879833Y-45309385D01*
X135688564Y-45388611D01*
X135485516Y-45429000D01*
X135278484Y-45429000D01*
X135075436Y-45388611D01*
X134884167Y-45309385D01*
X134884166Y-45309385D01*
X134884165Y-45309384D01*
X134712027Y-45194365D01*
X134565635Y-45047973D01*
X134450616Y-44875835D01*
X134450615Y-44875833D01*
X134371389Y-44684564D01*
X134331000Y-44481516D01*
X134331000Y-44274484D01*
X134371389Y-44071436D01*
X134450615Y-43880167D01*
X134565635Y-43708027D01*
X134712027Y-43561635D01*
X134884165Y-43446616D01*
X134884167Y-43446615D01*
X135075436Y-43367389D01*
X135278484Y-43327000D01*
X135485516Y-43327000D01*
X135688564Y-43367389D01*
X135688564Y-43367389D01*
G37*
G36*
X177240564Y-43367389D02*
G01*
X177431833Y-43446615D01*
X177431835Y-43446616D01*
X177603973Y-43561635D01*
X177750365Y-43708027D01*
X177865385Y-43880167D01*
X177944611Y-44071436D01*
X177985000Y-44274484D01*
X177985000Y-44481516D01*
X177944611Y-44684564D01*
X177865385Y-44875833D01*
X177865384Y-44875835D01*
X177750365Y-45047973D01*
X177603973Y-45194365D01*
X177431835Y-45309384D01*
X177431834Y-45309385D01*
X177431833Y-45309385D01*
X177240564Y-45388611D01*
X177037516Y-45429000D01*
X176830484Y-45429000D01*
X176627436Y-45388611D01*
X176436167Y-45309385D01*
X176436166Y-45309385D01*
X176436165Y-45309384D01*
X176264027Y-45194365D01*
X176117635Y-45047973D01*
X176002616Y-44875835D01*
X176002615Y-44875833D01*
X175923389Y-44684564D01*
X175883000Y-44481516D01*
X175883000Y-44274484D01*
X175923389Y-44071436D01*
X176002615Y-43880167D01*
X176117635Y-43708027D01*
X176264027Y-43561635D01*
X176436165Y-43446616D01*
X176436167Y-43446615D01*
X176627436Y-43367389D01*
X176830484Y-43327000D01*
X177037516Y-43327000D01*
X177240564Y-43367389D01*
X177240564Y-43367389D01*
G37*
G36*
X142188564Y-43367389D02*
G01*
X142379833Y-43446615D01*
X142379835Y-43446616D01*
X142551973Y-43561635D01*
X142698365Y-43708027D01*
X142813385Y-43880167D01*
X142892611Y-44071436D01*
X142933000Y-44274484D01*
X142933000Y-44481516D01*
X142892611Y-44684564D01*
X142813385Y-44875833D01*
X142813384Y-44875835D01*
X142698365Y-45047973D01*
X142551973Y-45194365D01*
X142379835Y-45309384D01*
X142379834Y-45309385D01*
X142379833Y-45309385D01*
X142188564Y-45388611D01*
X141985516Y-45429000D01*
X141778484Y-45429000D01*
X141575436Y-45388611D01*
X141384167Y-45309385D01*
X141384166Y-45309385D01*
X141384165Y-45309384D01*
X141212027Y-45194365D01*
X141065635Y-45047973D01*
X140950616Y-44875835D01*
X140950615Y-44875833D01*
X140871389Y-44684564D01*
X140831000Y-44481516D01*
X140831000Y-44274484D01*
X140871389Y-44071436D01*
X140950615Y-43880167D01*
X141065635Y-43708027D01*
X141212027Y-43561635D01*
X141384165Y-43446616D01*
X141384167Y-43446615D01*
X141575436Y-43367389D01*
X141778484Y-43327000D01*
X141985516Y-43327000D01*
X142188564Y-43367389D01*
X142188564Y-43367389D01*
G37*
G36*
X153214564Y-43367389D02*
G01*
X153405833Y-43446615D01*
X153405835Y-43446616D01*
X153577973Y-43561635D01*
X153724365Y-43708027D01*
X153839385Y-43880167D01*
X153918611Y-44071436D01*
X153959000Y-44274484D01*
X153959000Y-44481516D01*
X153918611Y-44684564D01*
X153839385Y-44875833D01*
X153839384Y-44875835D01*
X153724365Y-45047973D01*
X153577973Y-45194365D01*
X153405835Y-45309384D01*
X153405834Y-45309385D01*
X153405833Y-45309385D01*
X153214564Y-45388611D01*
X153011516Y-45429000D01*
X152804484Y-45429000D01*
X152601436Y-45388611D01*
X152410167Y-45309385D01*
X152410166Y-45309385D01*
X152410165Y-45309384D01*
X152238027Y-45194365D01*
X152091635Y-45047973D01*
X151976616Y-44875835D01*
X151976615Y-44875833D01*
X151897389Y-44684564D01*
X151857000Y-44481516D01*
X151857000Y-44274484D01*
X151897389Y-44071436D01*
X151976615Y-43880167D01*
X152091635Y-43708027D01*
X152238027Y-43561635D01*
X152410165Y-43446616D01*
X152410167Y-43446615D01*
X152601436Y-43367389D01*
X152804484Y-43327000D01*
X153011516Y-43327000D01*
X153214564Y-43367389D01*
X153214564Y-43367389D01*
G37*
G36*
X159714564Y-43367389D02*
G01*
X159905833Y-43446615D01*
X159905835Y-43446616D01*
X160077973Y-43561635D01*
X160224365Y-43708027D01*
X160339385Y-43880167D01*
X160418611Y-44071436D01*
X160459000Y-44274484D01*
X160459000Y-44481516D01*
X160418611Y-44684564D01*
X160339385Y-44875833D01*
X160339384Y-44875835D01*
X160224365Y-45047973D01*
X160077973Y-45194365D01*
X159905835Y-45309384D01*
X159905834Y-45309385D01*
X159905833Y-45309385D01*
X159714564Y-45388611D01*
X159511516Y-45429000D01*
X159304484Y-45429000D01*
X159101436Y-45388611D01*
X158910167Y-45309385D01*
X158910166Y-45309385D01*
X158910165Y-45309384D01*
X158738027Y-45194365D01*
X158591635Y-45047973D01*
X158476616Y-44875835D01*
X158476615Y-44875833D01*
X158397389Y-44684564D01*
X158357000Y-44481516D01*
X158357000Y-44274484D01*
X158397389Y-44071436D01*
X158476615Y-43880167D01*
X158591635Y-43708027D01*
X158738027Y-43561635D01*
X158910165Y-43446616D01*
X158910167Y-43446615D01*
X159101436Y-43367389D01*
X159304484Y-43327000D01*
X159511516Y-43327000D01*
X159714564Y-43367389D01*
X159714564Y-43367389D01*
G37*
G36*
X170740564Y-43367389D02*
G01*
X170931833Y-43446615D01*
X170931835Y-43446616D01*
X171103973Y-43561635D01*
X171250365Y-43708027D01*
X171365385Y-43880167D01*
X171444611Y-44071436D01*
X171485000Y-44274484D01*
X171485000Y-44481516D01*
X171444611Y-44684564D01*
X171365385Y-44875833D01*
X171365384Y-44875835D01*
X171250365Y-45047973D01*
X171103973Y-45194365D01*
X170931835Y-45309384D01*
X170931834Y-45309385D01*
X170931833Y-45309385D01*
X170740564Y-45388611D01*
X170537516Y-45429000D01*
X170330484Y-45429000D01*
X170127436Y-45388611D01*
X169936167Y-45309385D01*
X169936166Y-45309385D01*
X169936165Y-45309384D01*
X169764027Y-45194365D01*
X169617635Y-45047973D01*
X169502616Y-44875835D01*
X169502615Y-44875833D01*
X169423389Y-44684564D01*
X169383000Y-44481516D01*
X169383000Y-44274484D01*
X169423389Y-44071436D01*
X169502615Y-43880167D01*
X169617635Y-43708027D01*
X169764027Y-43561635D01*
X169936165Y-43446616D01*
X169936167Y-43446615D01*
X170127436Y-43367389D01*
X170330484Y-43327000D01*
X170537516Y-43327000D01*
X170740564Y-43367389D01*
X170740564Y-43367389D01*
G37*
G36*
X217926228Y-41345703D02*
G01*
X218081100Y-41409853D01*
X218220481Y-41502985D01*
X218339015Y-41621519D01*
X218432147Y-41760900D01*
X218496297Y-41915772D01*
X218529000Y-42080184D01*
X218529000Y-42247816D01*
X218496297Y-42412228D01*
X218432147Y-42567100D01*
X218339015Y-42706481D01*
X218220481Y-42825015D01*
X218081100Y-42918147D01*
X217926228Y-42982297D01*
X217761816Y-43015000D01*
X217594184Y-43015000D01*
X217429772Y-42982297D01*
X217274900Y-42918147D01*
X217135519Y-42825015D01*
X217016985Y-42706481D01*
X216923853Y-42567100D01*
X216859703Y-42412228D01*
X216827000Y-42247816D01*
X216827000Y-42080184D01*
X216859703Y-41915772D01*
X216923853Y-41760900D01*
X217016985Y-41621519D01*
X217135519Y-41502985D01*
X217274900Y-41409853D01*
X217429772Y-41345703D01*
X217594184Y-41313000D01*
X217761816Y-41313000D01*
X217926228Y-41345703D01*
X217926228Y-41345703D01*
G37*
G36*
X202686228Y-41345703D02*
G01*
X202841100Y-41409853D01*
X202980481Y-41502985D01*
X203099015Y-41621519D01*
X203192147Y-41760900D01*
X203256297Y-41915772D01*
X203289000Y-42080184D01*
X203289000Y-42247816D01*
X203256297Y-42412228D01*
X203192147Y-42567100D01*
X203099015Y-42706481D01*
X202980481Y-42825015D01*
X202841100Y-42918147D01*
X202686228Y-42982297D01*
X202521816Y-43015000D01*
X202354184Y-43015000D01*
X202189772Y-42982297D01*
X202034900Y-42918147D01*
X201895519Y-42825015D01*
X201776985Y-42706481D01*
X201683853Y-42567100D01*
X201619703Y-42412228D01*
X201587000Y-42247816D01*
X201587000Y-42080184D01*
X201619703Y-41915772D01*
X201683853Y-41760900D01*
X201776985Y-41621519D01*
X201895519Y-41502985D01*
X202034900Y-41409853D01*
X202189772Y-41345703D01*
X202354184Y-41313000D01*
X202521816Y-41313000D01*
X202686228Y-41345703D01*
X202686228Y-41345703D01*
G37*
G36*
X135688564Y-38867389D02*
G01*
X135879833Y-38946615D01*
X135879835Y-38946616D01*
X136051973Y-39061635D01*
X136198365Y-39208027D01*
X136310449Y-39375772D01*
X136313385Y-39380167D01*
X136392611Y-39571436D01*
X136433000Y-39774484D01*
X136433000Y-39981516D01*
X136392611Y-40184564D01*
X136351003Y-40285015D01*
X136313384Y-40375835D01*
X136198365Y-40547973D01*
X136051973Y-40694365D01*
X135879835Y-40809384D01*
X135879834Y-40809385D01*
X135879833Y-40809385D01*
X135688564Y-40888611D01*
X135485516Y-40929000D01*
X135278484Y-40929000D01*
X135075436Y-40888611D01*
X134884167Y-40809385D01*
X134884166Y-40809385D01*
X134884165Y-40809384D01*
X134712027Y-40694365D01*
X134565635Y-40547973D01*
X134450616Y-40375835D01*
X134412997Y-40285015D01*
X134371389Y-40184564D01*
X134331000Y-39981516D01*
X134331000Y-39774484D01*
X134371389Y-39571436D01*
X134450615Y-39380167D01*
X134453552Y-39375772D01*
X134565635Y-39208027D01*
X134712027Y-39061635D01*
X134884165Y-38946616D01*
X134884167Y-38946615D01*
X135075436Y-38867389D01*
X135278484Y-38827000D01*
X135485516Y-38827000D01*
X135688564Y-38867389D01*
X135688564Y-38867389D01*
G37*
G36*
X142188564Y-38867389D02*
G01*
X142379833Y-38946615D01*
X142379835Y-38946616D01*
X142551973Y-39061635D01*
X142698365Y-39208027D01*
X142810449Y-39375772D01*
X142813385Y-39380167D01*
X142892611Y-39571436D01*
X142933000Y-39774484D01*
X142933000Y-39981516D01*
X142892611Y-40184564D01*
X142851003Y-40285015D01*
X142813384Y-40375835D01*
X142698365Y-40547973D01*
X142551973Y-40694365D01*
X142379835Y-40809384D01*
X142379834Y-40809385D01*
X142379833Y-40809385D01*
X142188564Y-40888611D01*
X141985516Y-40929000D01*
X141778484Y-40929000D01*
X141575436Y-40888611D01*
X141384167Y-40809385D01*
X141384166Y-40809385D01*
X141384165Y-40809384D01*
X141212027Y-40694365D01*
X141065635Y-40547973D01*
X140950616Y-40375835D01*
X140912997Y-40285015D01*
X140871389Y-40184564D01*
X140831000Y-39981516D01*
X140831000Y-39774484D01*
X140871389Y-39571436D01*
X140950615Y-39380167D01*
X140953552Y-39375772D01*
X141065635Y-39208027D01*
X141212027Y-39061635D01*
X141384165Y-38946616D01*
X141384167Y-38946615D01*
X141575436Y-38867389D01*
X141778484Y-38827000D01*
X141985516Y-38827000D01*
X142188564Y-38867389D01*
X142188564Y-38867389D01*
G37*
G36*
X153214564Y-38867389D02*
G01*
X153405833Y-38946615D01*
X153405835Y-38946616D01*
X153577973Y-39061635D01*
X153724365Y-39208027D01*
X153836449Y-39375772D01*
X153839385Y-39380167D01*
X153918611Y-39571436D01*
X153959000Y-39774484D01*
X153959000Y-39981516D01*
X153918611Y-40184564D01*
X153877003Y-40285015D01*
X153839384Y-40375835D01*
X153724365Y-40547973D01*
X153577973Y-40694365D01*
X153405835Y-40809384D01*
X153405834Y-40809385D01*
X153405833Y-40809385D01*
X153214564Y-40888611D01*
X153011516Y-40929000D01*
X152804484Y-40929000D01*
X152601436Y-40888611D01*
X152410167Y-40809385D01*
X152410166Y-40809385D01*
X152410165Y-40809384D01*
X152238027Y-40694365D01*
X152091635Y-40547973D01*
X151976616Y-40375835D01*
X151938997Y-40285015D01*
X151897389Y-40184564D01*
X151857000Y-39981516D01*
X151857000Y-39774484D01*
X151897389Y-39571436D01*
X151976615Y-39380167D01*
X151979552Y-39375772D01*
X152091635Y-39208027D01*
X152238027Y-39061635D01*
X152410165Y-38946616D01*
X152410167Y-38946615D01*
X152601436Y-38867389D01*
X152804484Y-38827000D01*
X153011516Y-38827000D01*
X153214564Y-38867389D01*
X153214564Y-38867389D01*
G37*
G36*
X159714564Y-38867389D02*
G01*
X159905833Y-38946615D01*
X159905835Y-38946616D01*
X160077973Y-39061635D01*
X160224365Y-39208027D01*
X160336449Y-39375772D01*
X160339385Y-39380167D01*
X160418611Y-39571436D01*
X160459000Y-39774484D01*
X160459000Y-39981516D01*
X160418611Y-40184564D01*
X160377003Y-40285015D01*
X160339384Y-40375835D01*
X160224365Y-40547973D01*
X160077973Y-40694365D01*
X159905835Y-40809384D01*
X159905834Y-40809385D01*
X159905833Y-40809385D01*
X159714564Y-40888611D01*
X159511516Y-40929000D01*
X159304484Y-40929000D01*
X159101436Y-40888611D01*
X158910167Y-40809385D01*
X158910166Y-40809385D01*
X158910165Y-40809384D01*
X158738027Y-40694365D01*
X158591635Y-40547973D01*
X158476616Y-40375835D01*
X158438997Y-40285015D01*
X158397389Y-40184564D01*
X158357000Y-39981516D01*
X158357000Y-39774484D01*
X158397389Y-39571436D01*
X158476615Y-39380167D01*
X158479552Y-39375772D01*
X158591635Y-39208027D01*
X158738027Y-39061635D01*
X158910165Y-38946616D01*
X158910167Y-38946615D01*
X159101436Y-38867389D01*
X159304484Y-38827000D01*
X159511516Y-38827000D01*
X159714564Y-38867389D01*
X159714564Y-38867389D01*
G37*
G36*
X177240564Y-38867389D02*
G01*
X177431833Y-38946615D01*
X177431835Y-38946616D01*
X177603973Y-39061635D01*
X177750365Y-39208027D01*
X177862449Y-39375772D01*
X177865385Y-39380167D01*
X177944611Y-39571436D01*
X177985000Y-39774484D01*
X177985000Y-39981516D01*
X177944611Y-40184564D01*
X177903003Y-40285015D01*
X177865384Y-40375835D01*
X177750365Y-40547973D01*
X177603973Y-40694365D01*
X177431835Y-40809384D01*
X177431834Y-40809385D01*
X177431833Y-40809385D01*
X177240564Y-40888611D01*
X177037516Y-40929000D01*
X176830484Y-40929000D01*
X176627436Y-40888611D01*
X176436167Y-40809385D01*
X176436166Y-40809385D01*
X176436165Y-40809384D01*
X176264027Y-40694365D01*
X176117635Y-40547973D01*
X176002616Y-40375835D01*
X175964997Y-40285015D01*
X175923389Y-40184564D01*
X175883000Y-39981516D01*
X175883000Y-39774484D01*
X175923389Y-39571436D01*
X176002615Y-39380167D01*
X176005552Y-39375772D01*
X176117635Y-39208027D01*
X176264027Y-39061635D01*
X176436165Y-38946616D01*
X176436167Y-38946615D01*
X176627436Y-38867389D01*
X176830484Y-38827000D01*
X177037516Y-38827000D01*
X177240564Y-38867389D01*
X177240564Y-38867389D01*
G37*
G36*
X170740564Y-38867389D02*
G01*
X170931833Y-38946615D01*
X170931835Y-38946616D01*
X171103973Y-39061635D01*
X171250365Y-39208027D01*
X171362449Y-39375772D01*
X171365385Y-39380167D01*
X171444611Y-39571436D01*
X171485000Y-39774484D01*
X171485000Y-39981516D01*
X171444611Y-40184564D01*
X171403003Y-40285015D01*
X171365384Y-40375835D01*
X171250365Y-40547973D01*
X171103973Y-40694365D01*
X170931835Y-40809384D01*
X170931834Y-40809385D01*
X170931833Y-40809385D01*
X170740564Y-40888611D01*
X170537516Y-40929000D01*
X170330484Y-40929000D01*
X170127436Y-40888611D01*
X169936167Y-40809385D01*
X169936166Y-40809385D01*
X169936165Y-40809384D01*
X169764027Y-40694365D01*
X169617635Y-40547973D01*
X169502616Y-40375835D01*
X169464997Y-40285015D01*
X169423389Y-40184564D01*
X169383000Y-39981516D01*
X169383000Y-39774484D01*
X169423389Y-39571436D01*
X169502615Y-39380167D01*
X169505552Y-39375772D01*
X169617635Y-39208027D01*
X169764027Y-39061635D01*
X169936165Y-38946616D01*
X169936167Y-38946615D01*
X170127436Y-38867389D01*
X170330484Y-38827000D01*
X170537516Y-38827000D01*
X170740564Y-38867389D01*
X170740564Y-38867389D01*
G37*
G36*
X217926228Y-38805703D02*
G01*
X218081100Y-38869853D01*
X218220481Y-38962985D01*
X218339015Y-39081519D01*
X218432147Y-39220900D01*
X218496297Y-39375772D01*
X218529000Y-39540184D01*
X218529000Y-39707816D01*
X218496297Y-39872228D01*
X218432147Y-40027100D01*
X218339015Y-40166481D01*
X218220481Y-40285015D01*
X218081100Y-40378147D01*
X217926228Y-40442297D01*
X217761816Y-40475000D01*
X217594184Y-40475000D01*
X217429772Y-40442297D01*
X217274900Y-40378147D01*
X217135519Y-40285015D01*
X217016985Y-40166481D01*
X216923853Y-40027100D01*
X216859703Y-39872228D01*
X216827000Y-39707816D01*
X216827000Y-39540184D01*
X216859703Y-39375772D01*
X216923853Y-39220900D01*
X217016985Y-39081519D01*
X217135519Y-38962985D01*
X217274900Y-38869853D01*
X217429772Y-38805703D01*
X217594184Y-38773000D01*
X217761816Y-38773000D01*
X217926228Y-38805703D01*
X217926228Y-38805703D01*
G37*
G36*
X202686228Y-38805703D02*
G01*
X202841100Y-38869853D01*
X202980481Y-38962985D01*
X203099015Y-39081519D01*
X203192147Y-39220900D01*
X203256297Y-39375772D01*
X203289000Y-39540184D01*
X203289000Y-39707816D01*
X203256297Y-39872228D01*
X203192147Y-40027100D01*
X203099015Y-40166481D01*
X202980481Y-40285015D01*
X202841100Y-40378147D01*
X202686228Y-40442297D01*
X202521816Y-40475000D01*
X202354184Y-40475000D01*
X202189772Y-40442297D01*
X202034900Y-40378147D01*
X201895519Y-40285015D01*
X201776985Y-40166481D01*
X201683853Y-40027100D01*
X201619703Y-39872228D01*
X201587000Y-39707816D01*
X201587000Y-39540184D01*
X201619703Y-39375772D01*
X201683853Y-39220900D01*
X201776985Y-39081519D01*
X201895519Y-38962985D01*
X202034900Y-38869853D01*
X202189772Y-38805703D01*
X202354184Y-38773000D01*
X202521816Y-38773000D01*
X202686228Y-38805703D01*
X202686228Y-38805703D01*
G37*
G36*
X118602205Y-37758461D02*
G01*
X118720153Y-37781922D01*
X118812194Y-37820047D01*
X118942359Y-37873963D01*
X119142342Y-38007587D01*
X119312413Y-38177658D01*
X119446037Y-38377641D01*
X119499953Y-38507806D01*
X119538078Y-38599847D01*
X119541041Y-38614742D01*
X119585000Y-38835741D01*
X119585000Y-39076259D01*
X119538078Y-39312152D01*
X119446037Y-39534359D01*
X119312413Y-39734342D01*
X119142342Y-39904413D01*
X118942359Y-40038037D01*
X118812194Y-40091953D01*
X118720153Y-40130078D01*
X118484259Y-40177000D01*
X118243741Y-40177000D01*
X118125795Y-40153539D01*
X118007847Y-40130078D01*
X117915806Y-40091953D01*
X117785641Y-40038037D01*
X117585658Y-39904413D01*
X117415587Y-39734342D01*
X117281963Y-39534359D01*
X117189922Y-39312152D01*
X117143000Y-39076259D01*
X117143000Y-38835741D01*
X117186959Y-38614742D01*
X117189922Y-38599847D01*
X117228047Y-38507806D01*
X117281963Y-38377641D01*
X117415587Y-38177658D01*
X117585658Y-38007587D01*
X117785641Y-37873963D01*
X117915806Y-37820047D01*
X118007847Y-37781922D01*
X118125795Y-37758461D01*
X118243741Y-37735000D01*
X118484259Y-37735000D01*
X118602205Y-37758461D01*
X118602205Y-37758461D01*
G37*
G36*
X72746153Y-37560922D02*
G01*
X72838194Y-37599047D01*
X72968359Y-37652963D01*
X73168342Y-37786587D01*
X73338413Y-37956658D01*
X73472037Y-38156641D01*
X73564078Y-38378848D01*
X73608038Y-38599848D01*
X73611000Y-38614742D01*
X73611000Y-38855258D01*
X73567041Y-39076259D01*
X73564078Y-39091152D01*
X73472037Y-39313359D01*
X73338413Y-39513342D01*
X73168342Y-39683413D01*
X72968359Y-39817037D01*
X72838194Y-39870953D01*
X72746153Y-39909078D01*
X72628205Y-39932539D01*
X72510259Y-39956000D01*
X72269741Y-39956000D01*
X72151795Y-39932539D01*
X72033847Y-39909078D01*
X71941806Y-39870953D01*
X71811641Y-39817037D01*
X71611658Y-39683413D01*
X71441587Y-39513342D01*
X71307963Y-39313359D01*
X71215922Y-39091152D01*
X71212960Y-39076259D01*
X71169000Y-38855258D01*
X71169000Y-38614742D01*
X71171963Y-38599848D01*
X71215922Y-38378848D01*
X71307963Y-38156641D01*
X71441587Y-37956658D01*
X71611658Y-37786587D01*
X71811641Y-37652963D01*
X71941806Y-37599047D01*
X72033847Y-37560922D01*
X72269741Y-37514000D01*
X72510259Y-37514000D01*
X72746153Y-37560922D01*
X72746153Y-37560922D01*
G37*
G36*
X217926228Y-36265703D02*
G01*
X218081100Y-36329853D01*
X218220481Y-36422985D01*
X218339015Y-36541519D01*
X218432147Y-36680900D01*
X218496297Y-36835772D01*
X218529000Y-37000184D01*
X218529000Y-37167816D01*
X218496297Y-37332228D01*
X218432147Y-37487100D01*
X218339015Y-37626481D01*
X218220481Y-37745015D01*
X218081100Y-37838147D01*
X217926228Y-37902297D01*
X217761816Y-37935000D01*
X217594184Y-37935000D01*
X217429772Y-37902297D01*
X217274900Y-37838147D01*
X217135519Y-37745015D01*
X217016985Y-37626481D01*
X216923853Y-37487100D01*
X216859703Y-37332228D01*
X216827000Y-37167816D01*
X216827000Y-37000184D01*
X216859703Y-36835772D01*
X216923853Y-36680900D01*
X217016985Y-36541519D01*
X217135519Y-36422985D01*
X217274900Y-36329853D01*
X217429772Y-36265703D01*
X217594184Y-36233000D01*
X217761816Y-36233000D01*
X217926228Y-36265703D01*
X217926228Y-36265703D01*
G37*
G36*
X202686228Y-36265703D02*
G01*
X202841100Y-36329853D01*
X202980481Y-36422985D01*
X203099015Y-36541519D01*
X203192147Y-36680900D01*
X203256297Y-36835772D01*
X203289000Y-37000184D01*
X203289000Y-37167816D01*
X203256297Y-37332228D01*
X203192147Y-37487100D01*
X203099015Y-37626481D01*
X202980481Y-37745015D01*
X202841100Y-37838147D01*
X202686228Y-37902297D01*
X202521816Y-37935000D01*
X202354184Y-37935000D01*
X202189772Y-37902297D01*
X202034900Y-37838147D01*
X201895519Y-37745015D01*
X201776985Y-37626481D01*
X201683853Y-37487100D01*
X201619703Y-37332228D01*
X201587000Y-37167816D01*
X201587000Y-37000184D01*
X201619703Y-36835772D01*
X201683853Y-36680900D01*
X201776985Y-36541519D01*
X201895519Y-36422985D01*
X202034900Y-36329853D01*
X202189772Y-36265703D01*
X202354184Y-36233000D01*
X202521816Y-36233000D01*
X202686228Y-36265703D01*
X202686228Y-36265703D01*
G37*
G36*
X63806564Y-34041389D02*
G01*
X63997833Y-34120615D01*
X63997835Y-34120616D01*
X64169973Y-34235635D01*
X64316365Y-34382027D01*
X64418151Y-34534360D01*
X64431385Y-34554167D01*
X64510611Y-34745436D01*
X64551000Y-34948484D01*
X64551000Y-35155516D01*
X64510611Y-35358564D01*
X64431385Y-35549833D01*
X64431384Y-35549835D01*
X64316365Y-35721973D01*
X64169973Y-35868365D01*
X63997835Y-35983384D01*
X63997834Y-35983385D01*
X63997833Y-35983385D01*
X63806564Y-36062611D01*
X63603516Y-36103000D01*
X63396484Y-36103000D01*
X63193436Y-36062611D01*
X63002167Y-35983385D01*
X63002166Y-35983385D01*
X63002165Y-35983384D01*
X62830027Y-35868365D01*
X62683635Y-35721973D01*
X62568616Y-35549835D01*
X62568615Y-35549833D01*
X62489389Y-35358564D01*
X62449000Y-35155516D01*
X62449000Y-34948484D01*
X62489389Y-34745436D01*
X62568615Y-34554167D01*
X62581850Y-34534360D01*
X62683635Y-34382027D01*
X62830027Y-34235635D01*
X63002165Y-34120616D01*
X63002167Y-34120615D01*
X63193436Y-34041389D01*
X63396484Y-34001000D01*
X63603516Y-34001000D01*
X63806564Y-34041389D01*
X63806564Y-34041389D01*
G37*
G36*
X57306564Y-34041389D02*
G01*
X57497833Y-34120615D01*
X57497835Y-34120616D01*
X57669973Y-34235635D01*
X57816365Y-34382027D01*
X57918151Y-34534360D01*
X57931385Y-34554167D01*
X58010611Y-34745436D01*
X58051000Y-34948484D01*
X58051000Y-35155516D01*
X58010611Y-35358564D01*
X57931385Y-35549833D01*
X57931384Y-35549835D01*
X57816365Y-35721973D01*
X57669973Y-35868365D01*
X57497835Y-35983384D01*
X57497834Y-35983385D01*
X57497833Y-35983385D01*
X57306564Y-36062611D01*
X57103516Y-36103000D01*
X56896484Y-36103000D01*
X56693436Y-36062611D01*
X56502167Y-35983385D01*
X56502166Y-35983385D01*
X56502165Y-35983384D01*
X56330027Y-35868365D01*
X56183635Y-35721973D01*
X56068616Y-35549835D01*
X56068615Y-35549833D01*
X55989389Y-35358564D01*
X55949000Y-35155516D01*
X55949000Y-34948484D01*
X55989389Y-34745436D01*
X56068615Y-34554167D01*
X56081850Y-34534360D01*
X56183635Y-34382027D01*
X56330027Y-34235635D01*
X56502165Y-34120616D01*
X56502167Y-34120615D01*
X56693436Y-34041389D01*
X56896484Y-34001000D01*
X57103516Y-34001000D01*
X57306564Y-34041389D01*
X57306564Y-34041389D01*
G37*
G36*
X217926228Y-33725703D02*
G01*
X218081100Y-33789853D01*
X218220481Y-33882985D01*
X218339015Y-34001519D01*
X218432147Y-34140900D01*
X218496297Y-34295772D01*
X218529000Y-34460184D01*
X218529000Y-34627816D01*
X218496297Y-34792228D01*
X218432147Y-34947100D01*
X218339015Y-35086481D01*
X218220481Y-35205015D01*
X218081100Y-35298147D01*
X217926228Y-35362297D01*
X217761816Y-35395000D01*
X217594184Y-35395000D01*
X217429772Y-35362297D01*
X217274900Y-35298147D01*
X217135519Y-35205015D01*
X217016985Y-35086481D01*
X216923853Y-34947100D01*
X216859703Y-34792228D01*
X216827000Y-34627816D01*
X216827000Y-34460184D01*
X216859703Y-34295772D01*
X216923853Y-34140900D01*
X217016985Y-34001519D01*
X217135519Y-33882985D01*
X217274900Y-33789853D01*
X217429772Y-33725703D01*
X217594184Y-33693000D01*
X217761816Y-33693000D01*
X217926228Y-33725703D01*
X217926228Y-33725703D01*
G37*
G36*
X202686228Y-33725703D02*
G01*
X202841100Y-33789853D01*
X202980481Y-33882985D01*
X203099015Y-34001519D01*
X203192147Y-34140900D01*
X203256297Y-34295772D01*
X203289000Y-34460184D01*
X203289000Y-34627816D01*
X203256297Y-34792228D01*
X203192147Y-34947100D01*
X203099015Y-35086481D01*
X202980481Y-35205015D01*
X202841100Y-35298147D01*
X202686228Y-35362297D01*
X202521816Y-35395000D01*
X202354184Y-35395000D01*
X202189772Y-35362297D01*
X202034900Y-35298147D01*
X201895519Y-35205015D01*
X201776985Y-35086481D01*
X201683853Y-34947100D01*
X201619703Y-34792228D01*
X201587000Y-34627816D01*
X201587000Y-34460184D01*
X201619703Y-34295772D01*
X201683853Y-34140900D01*
X201776985Y-34001519D01*
X201895519Y-33882985D01*
X202034900Y-33789853D01*
X202189772Y-33725703D01*
X202354184Y-33693000D01*
X202521816Y-33693000D01*
X202686228Y-33725703D01*
X202686228Y-33725703D01*
G37*
G36*
X118720153Y-32781922D02*
G01*
X118812194Y-32820047D01*
X118942359Y-32873963D01*
X119142342Y-33007587D01*
X119312413Y-33177658D01*
X119446037Y-33377641D01*
X119499953Y-33507806D01*
X119538078Y-33599847D01*
X119541041Y-33614742D01*
X119585000Y-33835741D01*
X119585000Y-34076259D01*
X119561539Y-34194205D01*
X119541337Y-34295771D01*
X119538078Y-34312152D01*
X119446037Y-34534359D01*
X119312413Y-34734342D01*
X119142342Y-34904413D01*
X118942359Y-35038037D01*
X118825407Y-35086480D01*
X118720153Y-35130078D01*
X118602205Y-35153539D01*
X118484259Y-35177000D01*
X118243741Y-35177000D01*
X118007847Y-35130078D01*
X117902593Y-35086480D01*
X117785641Y-35038037D01*
X117585658Y-34904413D01*
X117415587Y-34734342D01*
X117281963Y-34534359D01*
X117189922Y-34312152D01*
X117186664Y-34295771D01*
X117166461Y-34194205D01*
X117143000Y-34076259D01*
X117143000Y-33835741D01*
X117186959Y-33614742D01*
X117189922Y-33599847D01*
X117228047Y-33507806D01*
X117281963Y-33377641D01*
X117415587Y-33177658D01*
X117585658Y-33007587D01*
X117785641Y-32873963D01*
X117915806Y-32820047D01*
X118007847Y-32781922D01*
X118243741Y-32735000D01*
X118484259Y-32735000D01*
X118720153Y-32781922D01*
X118720153Y-32781922D01*
G37*
G36*
X72600887Y-32532027D02*
G01*
X72746153Y-32560922D01*
X72838194Y-32599047D01*
X72968359Y-32652963D01*
X73168342Y-32786587D01*
X73338413Y-32956658D01*
X73472037Y-33156641D01*
X73564078Y-33378848D01*
X73608038Y-33599848D01*
X73611000Y-33614742D01*
X73611000Y-33855258D01*
X73564078Y-34091153D01*
X73525953Y-34183194D01*
X73472037Y-34313359D01*
X73338413Y-34513342D01*
X73168342Y-34683413D01*
X72968359Y-34817037D01*
X72838194Y-34870953D01*
X72746153Y-34909078D01*
X72628205Y-34932539D01*
X72510259Y-34956000D01*
X72269741Y-34956000D01*
X72151795Y-34932539D01*
X72033847Y-34909078D01*
X71941806Y-34870953D01*
X71811641Y-34817037D01*
X71611658Y-34683413D01*
X71441587Y-34513342D01*
X71307963Y-34313359D01*
X71254047Y-34183194D01*
X71215922Y-34091153D01*
X71169000Y-33855258D01*
X71169000Y-33614742D01*
X71171963Y-33599848D01*
X71215922Y-33378848D01*
X71307963Y-33156641D01*
X71441587Y-32956658D01*
X71611658Y-32786587D01*
X71811641Y-32652963D01*
X71941806Y-32599047D01*
X72033847Y-32560922D01*
X72179113Y-32532027D01*
X72269741Y-32514000D01*
X72510259Y-32514000D01*
X72600887Y-32532027D01*
X72600887Y-32532027D01*
G37*
G36*
X153214564Y-32191389D02*
G01*
X153405833Y-32270615D01*
X153405835Y-32270616D01*
X153577973Y-32385635D01*
X153724365Y-32532027D01*
X153805173Y-32652964D01*
X153839385Y-32704167D01*
X153918611Y-32895436D01*
X153959000Y-33098484D01*
X153959000Y-33305516D01*
X153918611Y-33508564D01*
X153842215Y-33693000D01*
X153839384Y-33699835D01*
X153724365Y-33871973D01*
X153577973Y-34018365D01*
X153405835Y-34133384D01*
X153405834Y-34133385D01*
X153405833Y-34133385D01*
X153214564Y-34212611D01*
X153011516Y-34253000D01*
X152804484Y-34253000D01*
X152601436Y-34212611D01*
X152410167Y-34133385D01*
X152410166Y-34133385D01*
X152410165Y-34133384D01*
X152238027Y-34018365D01*
X152091635Y-33871973D01*
X151976616Y-33699835D01*
X151973785Y-33693000D01*
X151897389Y-33508564D01*
X151857000Y-33305516D01*
X151857000Y-33098484D01*
X151897389Y-32895436D01*
X151976615Y-32704167D01*
X152010828Y-32652964D01*
X152091635Y-32532027D01*
X152238027Y-32385635D01*
X152410165Y-32270616D01*
X152410167Y-32270615D01*
X152601436Y-32191389D01*
X152804484Y-32151000D01*
X153011516Y-32151000D01*
X153214564Y-32191389D01*
X153214564Y-32191389D01*
G37*
G36*
X159714564Y-32191389D02*
G01*
X159905833Y-32270615D01*
X159905835Y-32270616D01*
X160077973Y-32385635D01*
X160224365Y-32532027D01*
X160305173Y-32652964D01*
X160339385Y-32704167D01*
X160418611Y-32895436D01*
X160459000Y-33098484D01*
X160459000Y-33305516D01*
X160418611Y-33508564D01*
X160342215Y-33693000D01*
X160339384Y-33699835D01*
X160224365Y-33871973D01*
X160077973Y-34018365D01*
X159905835Y-34133384D01*
X159905834Y-34133385D01*
X159905833Y-34133385D01*
X159714564Y-34212611D01*
X159511516Y-34253000D01*
X159304484Y-34253000D01*
X159101436Y-34212611D01*
X158910167Y-34133385D01*
X158910166Y-34133385D01*
X158910165Y-34133384D01*
X158738027Y-34018365D01*
X158591635Y-33871973D01*
X158476616Y-33699835D01*
X158473785Y-33693000D01*
X158397389Y-33508564D01*
X158357000Y-33305516D01*
X158357000Y-33098484D01*
X158397389Y-32895436D01*
X158476615Y-32704167D01*
X158510828Y-32652964D01*
X158591635Y-32532027D01*
X158738027Y-32385635D01*
X158910165Y-32270616D01*
X158910167Y-32270615D01*
X159101436Y-32191389D01*
X159304484Y-32151000D01*
X159511516Y-32151000D01*
X159714564Y-32191389D01*
X159714564Y-32191389D01*
G37*
G36*
X142442564Y-32191389D02*
G01*
X142633833Y-32270615D01*
X142633835Y-32270616D01*
X142805973Y-32385635D01*
X142952365Y-32532027D01*
X143033173Y-32652964D01*
X143067385Y-32704167D01*
X143146611Y-32895436D01*
X143187000Y-33098484D01*
X143187000Y-33305516D01*
X143146611Y-33508564D01*
X143070215Y-33693000D01*
X143067384Y-33699835D01*
X142952365Y-33871973D01*
X142805973Y-34018365D01*
X142633835Y-34133384D01*
X142633834Y-34133385D01*
X142633833Y-34133385D01*
X142442564Y-34212611D01*
X142239516Y-34253000D01*
X142032484Y-34253000D01*
X141829436Y-34212611D01*
X141638167Y-34133385D01*
X141638166Y-34133385D01*
X141638165Y-34133384D01*
X141466027Y-34018365D01*
X141319635Y-33871973D01*
X141204616Y-33699835D01*
X141201785Y-33693000D01*
X141125389Y-33508564D01*
X141085000Y-33305516D01*
X141085000Y-33098484D01*
X141125389Y-32895436D01*
X141204615Y-32704167D01*
X141238828Y-32652964D01*
X141319635Y-32532027D01*
X141466027Y-32385635D01*
X141638165Y-32270616D01*
X141638167Y-32270615D01*
X141829436Y-32191389D01*
X142032484Y-32151000D01*
X142239516Y-32151000D01*
X142442564Y-32191389D01*
X142442564Y-32191389D01*
G37*
G36*
X135942564Y-32191389D02*
G01*
X136133833Y-32270615D01*
X136133835Y-32270616D01*
X136305973Y-32385635D01*
X136452365Y-32532027D01*
X136533173Y-32652964D01*
X136567385Y-32704167D01*
X136646611Y-32895436D01*
X136687000Y-33098484D01*
X136687000Y-33305516D01*
X136646611Y-33508564D01*
X136570215Y-33693000D01*
X136567384Y-33699835D01*
X136452365Y-33871973D01*
X136305973Y-34018365D01*
X136133835Y-34133384D01*
X136133834Y-34133385D01*
X136133833Y-34133385D01*
X135942564Y-34212611D01*
X135739516Y-34253000D01*
X135532484Y-34253000D01*
X135329436Y-34212611D01*
X135138167Y-34133385D01*
X135138166Y-34133385D01*
X135138165Y-34133384D01*
X134966027Y-34018365D01*
X134819635Y-33871973D01*
X134704616Y-33699835D01*
X134701785Y-33693000D01*
X134625389Y-33508564D01*
X134585000Y-33305516D01*
X134585000Y-33098484D01*
X134625389Y-32895436D01*
X134704615Y-32704167D01*
X134738828Y-32652964D01*
X134819635Y-32532027D01*
X134966027Y-32385635D01*
X135138165Y-32270616D01*
X135138167Y-32270615D01*
X135329436Y-32191389D01*
X135532484Y-32151000D01*
X135739516Y-32151000D01*
X135942564Y-32191389D01*
X135942564Y-32191389D01*
G37*
G36*
X177240564Y-32191389D02*
G01*
X177431833Y-32270615D01*
X177431835Y-32270616D01*
X177603973Y-32385635D01*
X177750365Y-32532027D01*
X177831173Y-32652964D01*
X177865385Y-32704167D01*
X177944611Y-32895436D01*
X177985000Y-33098484D01*
X177985000Y-33305516D01*
X177944611Y-33508564D01*
X177868215Y-33693000D01*
X177865384Y-33699835D01*
X177750365Y-33871973D01*
X177603973Y-34018365D01*
X177431835Y-34133384D01*
X177431834Y-34133385D01*
X177431833Y-34133385D01*
X177240564Y-34212611D01*
X177037516Y-34253000D01*
X176830484Y-34253000D01*
X176627436Y-34212611D01*
X176436167Y-34133385D01*
X176436166Y-34133385D01*
X176436165Y-34133384D01*
X176264027Y-34018365D01*
X176117635Y-33871973D01*
X176002616Y-33699835D01*
X175999785Y-33693000D01*
X175923389Y-33508564D01*
X175883000Y-33305516D01*
X175883000Y-33098484D01*
X175923389Y-32895436D01*
X176002615Y-32704167D01*
X176036828Y-32652964D01*
X176117635Y-32532027D01*
X176264027Y-32385635D01*
X176436165Y-32270616D01*
X176436167Y-32270615D01*
X176627436Y-32191389D01*
X176830484Y-32151000D01*
X177037516Y-32151000D01*
X177240564Y-32191389D01*
X177240564Y-32191389D01*
G37*
G36*
X170740564Y-32191389D02*
G01*
X170931833Y-32270615D01*
X170931835Y-32270616D01*
X171103973Y-32385635D01*
X171250365Y-32532027D01*
X171331173Y-32652964D01*
X171365385Y-32704167D01*
X171444611Y-32895436D01*
X171485000Y-33098484D01*
X171485000Y-33305516D01*
X171444611Y-33508564D01*
X171368215Y-33693000D01*
X171365384Y-33699835D01*
X171250365Y-33871973D01*
X171103973Y-34018365D01*
X170931835Y-34133384D01*
X170931834Y-34133385D01*
X170931833Y-34133385D01*
X170740564Y-34212611D01*
X170537516Y-34253000D01*
X170330484Y-34253000D01*
X170127436Y-34212611D01*
X169936167Y-34133385D01*
X169936166Y-34133385D01*
X169936165Y-34133384D01*
X169764027Y-34018365D01*
X169617635Y-33871973D01*
X169502616Y-33699835D01*
X169499785Y-33693000D01*
X169423389Y-33508564D01*
X169383000Y-33305516D01*
X169383000Y-33098484D01*
X169423389Y-32895436D01*
X169502615Y-32704167D01*
X169536828Y-32652964D01*
X169617635Y-32532027D01*
X169764027Y-32385635D01*
X169936165Y-32270616D01*
X169936167Y-32270615D01*
X170127436Y-32191389D01*
X170330484Y-32151000D01*
X170537516Y-32151000D01*
X170740564Y-32191389D01*
X170740564Y-32191389D01*
G37*
G36*
X57306564Y-29541389D02*
G01*
X57497833Y-29620615D01*
X57497835Y-29620616D01*
X57669973Y-29735635D01*
X57816365Y-29882027D01*
X57920608Y-30038037D01*
X57931385Y-30054167D01*
X58010611Y-30245436D01*
X58051000Y-30448484D01*
X58051000Y-30655516D01*
X58010611Y-30858564D01*
X57931385Y-31049833D01*
X57931384Y-31049835D01*
X57816365Y-31221973D01*
X57669973Y-31368365D01*
X57497835Y-31483384D01*
X57497834Y-31483385D01*
X57497833Y-31483385D01*
X57306564Y-31562611D01*
X57103516Y-31603000D01*
X56896484Y-31603000D01*
X56693436Y-31562611D01*
X56502167Y-31483385D01*
X56502166Y-31483385D01*
X56502165Y-31483384D01*
X56330027Y-31368365D01*
X56183635Y-31221973D01*
X56068616Y-31049835D01*
X56068615Y-31049833D01*
X55989389Y-30858564D01*
X55949000Y-30655516D01*
X55949000Y-30448484D01*
X55989389Y-30245436D01*
X56068615Y-30054167D01*
X56079393Y-30038037D01*
X56183635Y-29882027D01*
X56330027Y-29735635D01*
X56502165Y-29620616D01*
X56502167Y-29620615D01*
X56693436Y-29541389D01*
X56896484Y-29501000D01*
X57103516Y-29501000D01*
X57306564Y-29541389D01*
X57306564Y-29541389D01*
G37*
G36*
X63806564Y-29541389D02*
G01*
X63997833Y-29620615D01*
X63997835Y-29620616D01*
X64169973Y-29735635D01*
X64316365Y-29882027D01*
X64420608Y-30038037D01*
X64431385Y-30054167D01*
X64510611Y-30245436D01*
X64551000Y-30448484D01*
X64551000Y-30655516D01*
X64510611Y-30858564D01*
X64431385Y-31049833D01*
X64431384Y-31049835D01*
X64316365Y-31221973D01*
X64169973Y-31368365D01*
X63997835Y-31483384D01*
X63997834Y-31483385D01*
X63997833Y-31483385D01*
X63806564Y-31562611D01*
X63603516Y-31603000D01*
X63396484Y-31603000D01*
X63193436Y-31562611D01*
X63002167Y-31483385D01*
X63002166Y-31483385D01*
X63002165Y-31483384D01*
X62830027Y-31368365D01*
X62683635Y-31221973D01*
X62568616Y-31049835D01*
X62568615Y-31049833D01*
X62489389Y-30858564D01*
X62449000Y-30655516D01*
X62449000Y-30448484D01*
X62489389Y-30245436D01*
X62568615Y-30054167D01*
X62579393Y-30038037D01*
X62683635Y-29882027D01*
X62830027Y-29735635D01*
X63002165Y-29620616D01*
X63002167Y-29620615D01*
X63193436Y-29541389D01*
X63396484Y-29501000D01*
X63603516Y-29501000D01*
X63806564Y-29541389D01*
X63806564Y-29541389D01*
G37*
G36*
X118602205Y-27758461D02*
G01*
X118720153Y-27781922D01*
X118812194Y-27820047D01*
X118942359Y-27873963D01*
X119142342Y-28007587D01*
X119312413Y-28177658D01*
X119446037Y-28377641D01*
X119499953Y-28507806D01*
X119538078Y-28599847D01*
X119541041Y-28614742D01*
X119585000Y-28835741D01*
X119585000Y-29076259D01*
X119582037Y-29091153D01*
X119538078Y-29312153D01*
X119499953Y-29404194D01*
X119446037Y-29534359D01*
X119312413Y-29734342D01*
X119142342Y-29904413D01*
X118942359Y-30038037D01*
X118812194Y-30091953D01*
X118720153Y-30130078D01*
X118484259Y-30177000D01*
X118243741Y-30177000D01*
X118007847Y-30130078D01*
X117915806Y-30091953D01*
X117785641Y-30038037D01*
X117585658Y-29904413D01*
X117415587Y-29734342D01*
X117281963Y-29534359D01*
X117228047Y-29404194D01*
X117189922Y-29312153D01*
X117145963Y-29091153D01*
X117143000Y-29076259D01*
X117143000Y-28835741D01*
X117186959Y-28614742D01*
X117189922Y-28599847D01*
X117228047Y-28507806D01*
X117281963Y-28377641D01*
X117415587Y-28177658D01*
X117585658Y-28007587D01*
X117785641Y-27873963D01*
X117915806Y-27820047D01*
X118007847Y-27781922D01*
X118125795Y-27758461D01*
X118243741Y-27735000D01*
X118484259Y-27735000D01*
X118602205Y-27758461D01*
X118602205Y-27758461D01*
G37*
G36*
X72746153Y-27560922D02*
G01*
X72838194Y-27599047D01*
X72968359Y-27652963D01*
X73168342Y-27786587D01*
X73338413Y-27956658D01*
X73472037Y-28156641D01*
X73491722Y-28204165D01*
X73564078Y-28378847D01*
X73567378Y-28395436D01*
X73608038Y-28599848D01*
X73611000Y-28614742D01*
X73611000Y-28855258D01*
X73567041Y-29076259D01*
X73564078Y-29091152D01*
X73472037Y-29313359D01*
X73338413Y-29513342D01*
X73168342Y-29683413D01*
X72968359Y-29817037D01*
X72838194Y-29870953D01*
X72746153Y-29909078D01*
X72628205Y-29932539D01*
X72510259Y-29956000D01*
X72269741Y-29956000D01*
X72151795Y-29932539D01*
X72033847Y-29909078D01*
X71941806Y-29870953D01*
X71811641Y-29817037D01*
X71611658Y-29683413D01*
X71441587Y-29513342D01*
X71307963Y-29313359D01*
X71215922Y-29091152D01*
X71212960Y-29076259D01*
X71169000Y-28855258D01*
X71169000Y-28614742D01*
X71171963Y-28599848D01*
X71212622Y-28395436D01*
X71215922Y-28378847D01*
X71288278Y-28204165D01*
X71307963Y-28156641D01*
X71441587Y-27956658D01*
X71611658Y-27786587D01*
X71811641Y-27652963D01*
X71941806Y-27599047D01*
X72033847Y-27560922D01*
X72269741Y-27514000D01*
X72510259Y-27514000D01*
X72746153Y-27560922D01*
X72746153Y-27560922D01*
G37*
G36*
X135942564Y-27691389D02*
G01*
X136133833Y-27770615D01*
X136133835Y-27770616D01*
X136305973Y-27885635D01*
X136452365Y-28032027D01*
X136549673Y-28177658D01*
X136567385Y-28204167D01*
X136646611Y-28395436D01*
X136687000Y-28598484D01*
X136687000Y-28805516D01*
X136646611Y-29008564D01*
X136567385Y-29199833D01*
X136567384Y-29199835D01*
X136452365Y-29371973D01*
X136305973Y-29518365D01*
X136133835Y-29633384D01*
X136133834Y-29633385D01*
X136133833Y-29633385D01*
X135942564Y-29712611D01*
X135739516Y-29753000D01*
X135532484Y-29753000D01*
X135329436Y-29712611D01*
X135138167Y-29633385D01*
X135138166Y-29633385D01*
X135138165Y-29633384D01*
X134966027Y-29518365D01*
X134819635Y-29371973D01*
X134704616Y-29199835D01*
X134704615Y-29199833D01*
X134625389Y-29008564D01*
X134585000Y-28805516D01*
X134585000Y-28598484D01*
X134625389Y-28395436D01*
X134704615Y-28204167D01*
X134722328Y-28177658D01*
X134819635Y-28032027D01*
X134966027Y-27885635D01*
X135138165Y-27770616D01*
X135138167Y-27770615D01*
X135329436Y-27691389D01*
X135532484Y-27651000D01*
X135739516Y-27651000D01*
X135942564Y-27691389D01*
X135942564Y-27691389D01*
G37*
G36*
X170740564Y-27691389D02*
G01*
X170931833Y-27770615D01*
X170931835Y-27770616D01*
X171103973Y-27885635D01*
X171250365Y-28032027D01*
X171347673Y-28177658D01*
X171365385Y-28204167D01*
X171444611Y-28395436D01*
X171485000Y-28598484D01*
X171485000Y-28805516D01*
X171444611Y-29008564D01*
X171365385Y-29199833D01*
X171365384Y-29199835D01*
X171250365Y-29371973D01*
X171103973Y-29518365D01*
X170931835Y-29633384D01*
X170931834Y-29633385D01*
X170931833Y-29633385D01*
X170740564Y-29712611D01*
X170537516Y-29753000D01*
X170330484Y-29753000D01*
X170127436Y-29712611D01*
X169936167Y-29633385D01*
X169936166Y-29633385D01*
X169936165Y-29633384D01*
X169764027Y-29518365D01*
X169617635Y-29371973D01*
X169502616Y-29199835D01*
X169502615Y-29199833D01*
X169423389Y-29008564D01*
X169383000Y-28805516D01*
X169383000Y-28598484D01*
X169423389Y-28395436D01*
X169502615Y-28204167D01*
X169520328Y-28177658D01*
X169617635Y-28032027D01*
X169764027Y-27885635D01*
X169936165Y-27770616D01*
X169936167Y-27770615D01*
X170127436Y-27691389D01*
X170330484Y-27651000D01*
X170537516Y-27651000D01*
X170740564Y-27691389D01*
X170740564Y-27691389D01*
G37*
G36*
X142442564Y-27691389D02*
G01*
X142633833Y-27770615D01*
X142633835Y-27770616D01*
X142805973Y-27885635D01*
X142952365Y-28032027D01*
X143049673Y-28177658D01*
X143067385Y-28204167D01*
X143146611Y-28395436D01*
X143187000Y-28598484D01*
X143187000Y-28805516D01*
X143146611Y-29008564D01*
X143067385Y-29199833D01*
X143067384Y-29199835D01*
X142952365Y-29371973D01*
X142805973Y-29518365D01*
X142633835Y-29633384D01*
X142633834Y-29633385D01*
X142633833Y-29633385D01*
X142442564Y-29712611D01*
X142239516Y-29753000D01*
X142032484Y-29753000D01*
X141829436Y-29712611D01*
X141638167Y-29633385D01*
X141638166Y-29633385D01*
X141638165Y-29633384D01*
X141466027Y-29518365D01*
X141319635Y-29371973D01*
X141204616Y-29199835D01*
X141204615Y-29199833D01*
X141125389Y-29008564D01*
X141085000Y-28805516D01*
X141085000Y-28598484D01*
X141125389Y-28395436D01*
X141204615Y-28204167D01*
X141222328Y-28177658D01*
X141319635Y-28032027D01*
X141466027Y-27885635D01*
X141638165Y-27770616D01*
X141638167Y-27770615D01*
X141829436Y-27691389D01*
X142032484Y-27651000D01*
X142239516Y-27651000D01*
X142442564Y-27691389D01*
X142442564Y-27691389D01*
G37*
G36*
X159714564Y-27691389D02*
G01*
X159905833Y-27770615D01*
X159905835Y-27770616D01*
X160077973Y-27885635D01*
X160224365Y-28032027D01*
X160321673Y-28177658D01*
X160339385Y-28204167D01*
X160418611Y-28395436D01*
X160459000Y-28598484D01*
X160459000Y-28805516D01*
X160418611Y-29008564D01*
X160339385Y-29199833D01*
X160339384Y-29199835D01*
X160224365Y-29371973D01*
X160077973Y-29518365D01*
X159905835Y-29633384D01*
X159905834Y-29633385D01*
X159905833Y-29633385D01*
X159714564Y-29712611D01*
X159511516Y-29753000D01*
X159304484Y-29753000D01*
X159101436Y-29712611D01*
X158910167Y-29633385D01*
X158910166Y-29633385D01*
X158910165Y-29633384D01*
X158738027Y-29518365D01*
X158591635Y-29371973D01*
X158476616Y-29199835D01*
X158476615Y-29199833D01*
X158397389Y-29008564D01*
X158357000Y-28805516D01*
X158357000Y-28598484D01*
X158397389Y-28395436D01*
X158476615Y-28204167D01*
X158494328Y-28177658D01*
X158591635Y-28032027D01*
X158738027Y-27885635D01*
X158910165Y-27770616D01*
X158910167Y-27770615D01*
X159101436Y-27691389D01*
X159304484Y-27651000D01*
X159511516Y-27651000D01*
X159714564Y-27691389D01*
X159714564Y-27691389D01*
G37*
G36*
X153214564Y-27691389D02*
G01*
X153405833Y-27770615D01*
X153405835Y-27770616D01*
X153577973Y-27885635D01*
X153724365Y-28032027D01*
X153821673Y-28177658D01*
X153839385Y-28204167D01*
X153918611Y-28395436D01*
X153959000Y-28598484D01*
X153959000Y-28805516D01*
X153918611Y-29008564D01*
X153839385Y-29199833D01*
X153839384Y-29199835D01*
X153724365Y-29371973D01*
X153577973Y-29518365D01*
X153405835Y-29633384D01*
X153405834Y-29633385D01*
X153405833Y-29633385D01*
X153214564Y-29712611D01*
X153011516Y-29753000D01*
X152804484Y-29753000D01*
X152601436Y-29712611D01*
X152410167Y-29633385D01*
X152410166Y-29633385D01*
X152410165Y-29633384D01*
X152238027Y-29518365D01*
X152091635Y-29371973D01*
X151976616Y-29199835D01*
X151976615Y-29199833D01*
X151897389Y-29008564D01*
X151857000Y-28805516D01*
X151857000Y-28598484D01*
X151897389Y-28395436D01*
X151976615Y-28204167D01*
X151994328Y-28177658D01*
X152091635Y-28032027D01*
X152238027Y-27885635D01*
X152410165Y-27770616D01*
X152410167Y-27770615D01*
X152601436Y-27691389D01*
X152804484Y-27651000D01*
X153011516Y-27651000D01*
X153214564Y-27691389D01*
X153214564Y-27691389D01*
G37*
G36*
X177240564Y-27691389D02*
G01*
X177431833Y-27770615D01*
X177431835Y-27770616D01*
X177603973Y-27885635D01*
X177750365Y-28032027D01*
X177847673Y-28177658D01*
X177865385Y-28204167D01*
X177944611Y-28395436D01*
X177985000Y-28598484D01*
X177985000Y-28805516D01*
X177944611Y-29008564D01*
X177865385Y-29199833D01*
X177865384Y-29199835D01*
X177750365Y-29371973D01*
X177603973Y-29518365D01*
X177431835Y-29633384D01*
X177431834Y-29633385D01*
X177431833Y-29633385D01*
X177240564Y-29712611D01*
X177037516Y-29753000D01*
X176830484Y-29753000D01*
X176627436Y-29712611D01*
X176436167Y-29633385D01*
X176436166Y-29633385D01*
X176436165Y-29633384D01*
X176264027Y-29518365D01*
X176117635Y-29371973D01*
X176002616Y-29199835D01*
X176002615Y-29199833D01*
X175923389Y-29008564D01*
X175883000Y-28805516D01*
X175883000Y-28598484D01*
X175923389Y-28395436D01*
X176002615Y-28204167D01*
X176020328Y-28177658D01*
X176117635Y-28032027D01*
X176264027Y-27885635D01*
X176436165Y-27770616D01*
X176436167Y-27770615D01*
X176627436Y-27691389D01*
X176830484Y-27651000D01*
X177037516Y-27651000D01*
X177240564Y-27691389D01*
X177240564Y-27691389D01*
G37*
M02*
