G04 #@! TF.GenerationSoftware,KiCad,Pcbnew,(5.1.4-0-10_14)*
G04 #@! TF.CreationDate,2020-08-23T12:41:51+02:00*
G04 #@! TF.ProjectId,the_mvp,7468655f-6d76-4702-9e6b-696361645f70,1.0*
G04 #@! TF.SameCoordinates,Original*
G04 #@! TF.FileFunction,Copper,L2,Bot*
G04 #@! TF.FilePolarity,Positive*
%FSLAX46Y46*%
G04 Gerber Fmt 4.6, Leading zero omitted, Abs format (unit mm)*
G04 Created by KiCad (PCBNEW (5.1.4-0-10_14)) date 2020-08-23 12:41:51*
%MOMM*%
%LPD*%
G04 APERTURE LIST*
%ADD10C,1.300000*%
%ADD11C,1.600000*%
%ADD12R,1.300000X1.300000*%
%ADD13R,1.600000X1.600000*%
%ADD14C,2.000000*%
%ADD15C,2.340000*%
%ADD16C,0.800000*%
%ADD17C,0.250000*%
G04 APERTURE END LIST*
D10*
X208788000Y-92234000D03*
X211328000Y-92234000D03*
D11*
X204978000Y-47244000D03*
X207518000Y-47244000D03*
X210058000Y-47244000D03*
X212598000Y-47244000D03*
X215138000Y-47244000D03*
D10*
X208876400Y-79994000D03*
X208876400Y-77994000D03*
X206876400Y-77994000D03*
X206876400Y-79994000D03*
X204876400Y-77994000D03*
D12*
X204876400Y-79994000D03*
D11*
X217678000Y-52324000D03*
X217678000Y-49784000D03*
X217678000Y-47244000D03*
X217678000Y-44704000D03*
X217678000Y-54864000D03*
X217678000Y-57404000D03*
X217678000Y-59944000D03*
X217678000Y-42164000D03*
X217678000Y-39624000D03*
X217678000Y-37084000D03*
X217678000Y-34544000D03*
X202438000Y-34544000D03*
X202438000Y-37084000D03*
X202438000Y-39624000D03*
X202438000Y-42164000D03*
X202438000Y-44704000D03*
X202438000Y-47244000D03*
X202438000Y-49784000D03*
X202438000Y-52324000D03*
X202438000Y-54864000D03*
X202438000Y-57404000D03*
X217678000Y-62484000D03*
X217678000Y-65024000D03*
X217678000Y-67564000D03*
X217678000Y-70104000D03*
X217678000Y-72644000D03*
X217678000Y-75184000D03*
X217678000Y-77724000D03*
X217678000Y-80264000D03*
X217678000Y-82804000D03*
X217678000Y-85344000D03*
X217678000Y-87884000D03*
X217678000Y-90424000D03*
D13*
X217678000Y-92964000D03*
D11*
X202438000Y-59944000D03*
X202438000Y-62484000D03*
X202438000Y-65024000D03*
X202438000Y-67564000D03*
X202438000Y-70104000D03*
X202438000Y-72644000D03*
X202438000Y-75184000D03*
X202438000Y-77724000D03*
X202438000Y-80264000D03*
X202438000Y-82804000D03*
X202438000Y-85344000D03*
X202438000Y-87884000D03*
X202438000Y-90424000D03*
X202438000Y-92964000D03*
D13*
X214627200Y-86664800D03*
D11*
X214627200Y-84124800D03*
X214627200Y-81584800D03*
X214627200Y-79044800D03*
X214627200Y-76504800D03*
X204978000Y-90424000D03*
D14*
X159408000Y-50546000D03*
X159408000Y-55046000D03*
X152908000Y-50546000D03*
X152908000Y-55046000D03*
X159408000Y-39878000D03*
X159408000Y-44378000D03*
X152908000Y-39878000D03*
X152908000Y-44378000D03*
X141882000Y-39878000D03*
X141882000Y-44378000D03*
X135382000Y-39878000D03*
X135382000Y-44378000D03*
D15*
X168402000Y-69596000D03*
X168402000Y-74596000D03*
X168402000Y-79596000D03*
X118364000Y-84328000D03*
X118364000Y-89328000D03*
X118364000Y-94328000D03*
X118364000Y-66040000D03*
X118364000Y-71040000D03*
X118364000Y-76040000D03*
X118364000Y-47498000D03*
X118364000Y-52498000D03*
X118364000Y-57498000D03*
X118364000Y-28956000D03*
X118364000Y-33956000D03*
X118364000Y-38956000D03*
X72390000Y-94615000D03*
X72390000Y-89615000D03*
X72390000Y-84615000D03*
X72390000Y-75565000D03*
X72390000Y-70565000D03*
X72390000Y-65565000D03*
X72390000Y-57150000D03*
X72390000Y-52150000D03*
X72390000Y-47150000D03*
X72390000Y-38735000D03*
X72390000Y-33735000D03*
X72390000Y-28735000D03*
D14*
X63500000Y-86614000D03*
X63500000Y-91114000D03*
X57000000Y-86614000D03*
X57000000Y-91114000D03*
X57000000Y-72390000D03*
X57000000Y-67890000D03*
X63500000Y-72390000D03*
X63500000Y-67890000D03*
X63396000Y-49530000D03*
X63396000Y-54030000D03*
X56896000Y-49530000D03*
X56896000Y-54030000D03*
X57000000Y-35052000D03*
X57000000Y-30552000D03*
X63500000Y-35052000D03*
X63500000Y-30552000D03*
X188618000Y-74930000D03*
X188618000Y-79430000D03*
X182118000Y-74930000D03*
X182118000Y-79430000D03*
X176680000Y-50546000D03*
X176680000Y-55046000D03*
X170180000Y-50546000D03*
X170180000Y-55046000D03*
X176934000Y-39878000D03*
X176934000Y-44378000D03*
X170434000Y-39878000D03*
X170434000Y-44378000D03*
X176934000Y-28702000D03*
X176934000Y-33202000D03*
X170434000Y-28702000D03*
X170434000Y-33202000D03*
X159408000Y-28702000D03*
X159408000Y-33202000D03*
X152908000Y-28702000D03*
X152908000Y-33202000D03*
X141628000Y-50546000D03*
X141628000Y-55046000D03*
X135128000Y-50546000D03*
X135128000Y-55046000D03*
X142136000Y-28702000D03*
X142136000Y-33202000D03*
X135636000Y-28702000D03*
X135636000Y-33202000D03*
D16*
X207352500Y-97624500D03*
X215099500Y-92417500D03*
X177800000Y-68580000D03*
X194056000Y-69088000D03*
X189738000Y-66548000D03*
X180594000Y-68834000D03*
X80010000Y-31242000D03*
X111252000Y-58166000D03*
X132842000Y-67310000D03*
X139700000Y-67310000D03*
X153924000Y-67818000D03*
D17*
X182118000Y-55984000D02*
X176680000Y-50546000D01*
X182118000Y-74930000D02*
X182118000Y-55984000D01*
X151130000Y-35814000D02*
X151384000Y-35814000D01*
X144748000Y-35814000D02*
X142136000Y-33202000D01*
X151384000Y-35814000D02*
X144748000Y-35814000D01*
X160274000Y-35814000D02*
X151384000Y-35814000D01*
X217678000Y-80264000D02*
X219253011Y-78688989D01*
X202978001Y-51198999D02*
X201312999Y-51198999D01*
X219253011Y-67361011D02*
X218041001Y-66149001D01*
X215716501Y-64727503D02*
X215716501Y-63937499D01*
X217137999Y-66149001D02*
X215716501Y-64727503D01*
X160528000Y-36068000D02*
X160274000Y-35814000D01*
X186182000Y-36068000D02*
X160528000Y-36068000D01*
X215716501Y-63937499D02*
X202978001Y-51198999D01*
X218041001Y-66149001D02*
X217137999Y-66149001D01*
X219253011Y-78688989D02*
X219253011Y-67361011D01*
X201312999Y-51198999D02*
X186182000Y-36068000D01*
X218477999Y-76924001D02*
X217678000Y-77724000D01*
X218803001Y-76598999D02*
X218477999Y-76924001D01*
X218803001Y-74643999D02*
X218803001Y-76598999D01*
X217189409Y-74058999D02*
X218218001Y-74058999D01*
X142881999Y-43378001D02*
X143565999Y-43378001D01*
X202187997Y-53738999D02*
X202978001Y-53738999D01*
X215392000Y-66152998D02*
X215392000Y-72261590D01*
X202978001Y-53738999D02*
X215392000Y-66152998D01*
X150425990Y-36518010D02*
X184967008Y-36518010D01*
X184967008Y-36518010D02*
X202187997Y-53738999D01*
X215392000Y-72261590D02*
X217189409Y-74058999D01*
X141882000Y-44378000D02*
X142881999Y-43378001D01*
X218218001Y-74058999D02*
X218803001Y-74643999D01*
X143565999Y-43378001D02*
X150425990Y-36518010D01*
X216878001Y-74384001D02*
X217678000Y-75184000D01*
X202978001Y-56278999D02*
X214630000Y-67930998D01*
X214630000Y-72136000D02*
X216878001Y-74384001D01*
X201566999Y-56278999D02*
X202978001Y-56278999D01*
X182256020Y-36968020D02*
X201566999Y-56278999D01*
X150737980Y-36968020D02*
X182256020Y-36968020D01*
X214630000Y-67930998D02*
X214630000Y-72136000D01*
X147066000Y-49608000D02*
X147066000Y-40640000D01*
X147066000Y-40640000D02*
X150737980Y-36968020D01*
X141628000Y-55046000D02*
X147066000Y-49608000D01*
X152908000Y-44378000D02*
X159408000Y-44378000D01*
X152908000Y-55046000D02*
X159408000Y-55046000D01*
X188618000Y-79430000D02*
X196818999Y-71229001D01*
X182118000Y-79430000D02*
X188618000Y-79430000D01*
X216878001Y-86143999D02*
X217678000Y-85344000D01*
X216552999Y-86469001D02*
X216878001Y-86143999D01*
X216552999Y-88424001D02*
X216552999Y-86469001D01*
X207352500Y-97624500D02*
X216552999Y-88424001D01*
X57000000Y-67890000D02*
X63500000Y-67890000D01*
X217678000Y-88758998D02*
X217678000Y-87884000D01*
X215099500Y-91337498D02*
X217678000Y-88758998D01*
X215099500Y-92417500D02*
X215099500Y-91337498D01*
X62396001Y-55029999D02*
X63396000Y-54030000D01*
X57895999Y-55029999D02*
X62396001Y-55029999D01*
X56896000Y-54030000D02*
X57895999Y-55029999D01*
X57000000Y-30552000D02*
X63500000Y-30552000D01*
X119533999Y-88158001D02*
X132821999Y-88158001D01*
X118364000Y-89328000D02*
X119533999Y-88158001D01*
X194022998Y-67564000D02*
X201306630Y-67564000D01*
X185331997Y-76255001D02*
X194022998Y-67564000D01*
X201306630Y-67564000D02*
X202438000Y-67564000D01*
X144724999Y-76255001D02*
X185331997Y-76255001D01*
X132821999Y-88158001D02*
X144724999Y-76255001D01*
X119533999Y-72209999D02*
X170868001Y-72209999D01*
X118364000Y-71040000D02*
X119533999Y-72209999D01*
X170868001Y-72209999D02*
X174498000Y-68580000D01*
X174498000Y-68580000D02*
X177800000Y-68580000D01*
X177800000Y-68580000D02*
X177800000Y-68580000D01*
X201422000Y-69088000D02*
X202438000Y-70104000D01*
X194056000Y-69088000D02*
X201422000Y-69088000D01*
X119859001Y-53993001D02*
X119533999Y-53667999D01*
X119533999Y-53667999D02*
X118364000Y-52498000D01*
X119859001Y-58215601D02*
X119859001Y-53993001D01*
X116868999Y-90045601D02*
X116868999Y-61205603D01*
X116868999Y-61205603D02*
X119859001Y-58215601D01*
X119081601Y-90823001D02*
X117646399Y-90823001D01*
X119859001Y-90045601D02*
X119081601Y-90823001D01*
X131570809Y-90045601D02*
X119859001Y-90045601D01*
X144911399Y-76705011D02*
X131570809Y-90045601D01*
X176019011Y-76705011D02*
X144911399Y-76705011D01*
X117646399Y-90823001D02*
X116868999Y-90045601D01*
X188475002Y-81534000D02*
X180848000Y-81534000D01*
X180848000Y-81534000D02*
X176019011Y-76705011D01*
X197365002Y-72644000D02*
X188475002Y-81534000D01*
X202438000Y-72644000D02*
X197365002Y-72644000D01*
X129540000Y-45132000D02*
X129540000Y-53594000D01*
X118364000Y-33956000D02*
X129540000Y-45132000D01*
X129540000Y-53594000D02*
X139192000Y-63246000D01*
X176043999Y-49220999D02*
X177316001Y-49220999D01*
X177316001Y-49220999D02*
X189738000Y-61642998D01*
X175354999Y-56933009D02*
X175354999Y-49909999D01*
X175354999Y-49909999D02*
X176043999Y-49220999D01*
X169042008Y-63246000D02*
X175354999Y-56933009D01*
X139192000Y-63246000D02*
X169042008Y-63246000D01*
X189738000Y-61642998D02*
X189738000Y-66294000D01*
X189738000Y-66294000D02*
X189738000Y-66548000D01*
X189738000Y-66548000D02*
X189738000Y-66548000D01*
X176784000Y-65024000D02*
X138938000Y-65024000D01*
X180594000Y-68834000D02*
X176784000Y-65024000D01*
X119859001Y-38238399D02*
X113370602Y-31750000D01*
X119859001Y-45945001D02*
X119859001Y-38238399D01*
X138938000Y-65024000D02*
X119859001Y-45945001D01*
X113370602Y-31750000D02*
X80518000Y-31750000D01*
X80518000Y-31750000D02*
X80010000Y-31242000D01*
X80010000Y-31242000D02*
X80010000Y-31242000D01*
X111252000Y-58166000D02*
X111252000Y-58166000D01*
X132842000Y-67310000D02*
X139700000Y-67310000D01*
X73559999Y-53319999D02*
X72390000Y-52150000D01*
X95991999Y-53319999D02*
X73559999Y-53319999D01*
X100838000Y-58166000D02*
X95991999Y-53319999D01*
X111252000Y-58166000D02*
X100838000Y-58166000D01*
X203563001Y-85884001D02*
X203563001Y-83929001D01*
X202978001Y-86469001D02*
X203563001Y-85884001D01*
X203563001Y-83929001D02*
X202438000Y-82804000D01*
X191014030Y-96273010D02*
X200818039Y-86469001D01*
X70894999Y-90332601D02*
X76835408Y-96273010D01*
X70894999Y-88897399D02*
X70894999Y-90332601D01*
X73961000Y-85831398D02*
X70894999Y-88897399D01*
X200818039Y-86469001D02*
X202978001Y-86469001D01*
X73961000Y-70565000D02*
X73961000Y-85831398D01*
X76835408Y-96273010D02*
X191014030Y-96273010D01*
X72390000Y-70565000D02*
X73961000Y-70565000D01*
X74440001Y-91665001D02*
X72390000Y-89615000D01*
X77244999Y-91665001D02*
X74440001Y-91665001D01*
X81402999Y-95823001D02*
X77244999Y-91665001D01*
X202438000Y-85344000D02*
X201306630Y-85344000D01*
X190827629Y-95823001D02*
X81402999Y-95823001D01*
X201306630Y-85344000D02*
X190827629Y-95823001D01*
X168402000Y-79596000D02*
X167232001Y-80765999D01*
X121860001Y-90831999D02*
X118364000Y-94328000D01*
X117194001Y-58667999D02*
X118364000Y-57498000D01*
X113792000Y-62070000D02*
X117194001Y-58667999D01*
X113792000Y-89756000D02*
X113792000Y-62070000D01*
X118364000Y-94328000D02*
X113792000Y-89756000D01*
X117194001Y-40125999D02*
X118364000Y-38956000D01*
X116868999Y-40451001D02*
X117194001Y-40125999D01*
X116868999Y-56002999D02*
X116868999Y-40451001D01*
X118364000Y-57498000D02*
X116868999Y-56002999D01*
X82611000Y-38956000D02*
X72390000Y-28735000D01*
X118364000Y-38956000D02*
X82611000Y-38956000D01*
X71220001Y-29904999D02*
X72390000Y-28735000D01*
X69342000Y-31783000D02*
X71220001Y-29904999D01*
X69342000Y-44102000D02*
X69342000Y-31783000D01*
X72390000Y-47150000D02*
X69342000Y-44102000D01*
X71220001Y-64395001D02*
X72390000Y-65565000D01*
X70866000Y-48674000D02*
X70866000Y-64041000D01*
X70866000Y-64041000D02*
X71220001Y-64395001D01*
X72390000Y-47150000D02*
X70866000Y-48674000D01*
X70866000Y-67089000D02*
X70866000Y-83091000D01*
X71220001Y-83445001D02*
X72390000Y-84615000D01*
X70866000Y-83091000D02*
X71220001Y-83445001D01*
X72390000Y-65565000D02*
X70866000Y-67089000D01*
X142553999Y-80765999D02*
X132487999Y-90831999D01*
X167232001Y-80765999D02*
X142553999Y-80765999D01*
X132487999Y-90831999D02*
X121860001Y-90831999D01*
X155702000Y-69596000D02*
X168402000Y-69596000D01*
X153924000Y-67818000D02*
X155702000Y-69596000D01*
X196818999Y-71229001D02*
X203852999Y-71229001D01*
X203852999Y-63898999D02*
X202438000Y-62484000D01*
X203852999Y-71229001D02*
X203852999Y-63898999D01*
M02*
