G04 #@! TF.GenerationSoftware,KiCad,Pcbnew,(5.1.4-0-10_14)*
G04 #@! TF.CreationDate,2020-08-23T12:41:51+02:00*
G04 #@! TF.ProjectId,the_mvp,7468655f-6d76-4702-9e6b-696361645f70,1.0*
G04 #@! TF.SameCoordinates,Original*
G04 #@! TF.FileFunction,Legend,Bot*
G04 #@! TF.FilePolarity,Positive*
%FSLAX46Y46*%
G04 Gerber Fmt 4.6, Leading zero omitted, Abs format (unit mm)*
G04 Created by KiCad (PCBNEW (5.1.4-0-10_14)) date 2020-08-23 12:41:51*
%MOMM*%
%LPD*%
G04 APERTURE LIST*
%ADD10C,0.150000*%
%ADD11C,0.120000*%
G04 APERTURE END LIST*
D10*
X241789069Y-58125558D02*
X241836407Y-58030179D01*
X241883885Y-57982420D01*
X241978982Y-57934520D01*
X242026601Y-57934380D01*
X242121979Y-57981718D01*
X242169738Y-58029196D01*
X242217638Y-58124293D01*
X242218200Y-58314769D01*
X242170862Y-58410147D01*
X242123384Y-58457906D01*
X242028287Y-58505806D01*
X241980668Y-58505946D01*
X241885290Y-58458609D01*
X241837530Y-58411130D01*
X241789631Y-58316033D01*
X241789069Y-58125558D01*
X241741169Y-58030460D01*
X241693410Y-57982982D01*
X241598031Y-57935644D01*
X241407556Y-57936206D01*
X241312459Y-57984106D01*
X241264981Y-58031865D01*
X241217643Y-58127243D01*
X241218205Y-58317719D01*
X241266104Y-58412816D01*
X241313864Y-58460294D01*
X241409242Y-58507632D01*
X241599717Y-58507070D01*
X241694814Y-58459170D01*
X241742293Y-58411411D01*
X241789631Y-58316033D01*
X242221290Y-59362383D02*
X242220729Y-59171908D01*
X242172829Y-59076811D01*
X242125069Y-59029332D01*
X241981932Y-58934516D01*
X241791316Y-58887459D01*
X241410365Y-58888583D01*
X241315268Y-58936483D01*
X241267790Y-58984242D01*
X241220452Y-59079620D01*
X241221014Y-59270095D01*
X241268914Y-59365193D01*
X241316673Y-59412671D01*
X241412051Y-59460009D01*
X241650145Y-59459307D01*
X241745243Y-59411407D01*
X241792721Y-59363647D01*
X241840059Y-59268269D01*
X241839497Y-59077794D01*
X241791597Y-58982697D01*
X241743838Y-58935218D01*
X241648460Y-58887880D01*
X241270599Y-59936619D02*
X241222980Y-59936759D01*
X241127602Y-59889421D01*
X241079843Y-59841943D01*
X241225790Y-60889136D02*
X241224104Y-60317710D01*
X241224947Y-60603423D02*
X242224943Y-60600473D01*
X242081805Y-60505657D01*
X241986287Y-60410700D01*
X241938387Y-60315603D01*
X242227612Y-61505231D02*
X242227892Y-61600469D01*
X242180555Y-61695847D01*
X242133076Y-61743606D01*
X242037979Y-61791506D01*
X241847644Y-61839687D01*
X241609550Y-61840389D01*
X241418934Y-61793332D01*
X241323556Y-61745994D01*
X241275797Y-61698516D01*
X241227897Y-61603419D01*
X241227616Y-61508181D01*
X241274954Y-61412803D01*
X241322432Y-61365043D01*
X241417529Y-61317144D01*
X241607864Y-61268963D01*
X241845958Y-61268261D01*
X242036574Y-61315318D01*
X242131952Y-61362655D01*
X242179712Y-61410134D01*
X242227612Y-61505231D01*
X242231123Y-62695702D02*
X242230561Y-62505227D01*
X242182662Y-62410129D01*
X242134902Y-62362651D01*
X241991765Y-62267835D01*
X241801149Y-62220778D01*
X241420198Y-62221902D01*
X241325101Y-62269801D01*
X241277623Y-62317561D01*
X241230285Y-62412939D01*
X241230847Y-62603414D01*
X241278746Y-62698511D01*
X241326506Y-62745990D01*
X241421884Y-62793328D01*
X241659978Y-62792625D01*
X241755075Y-62744726D01*
X241802554Y-62696966D01*
X241849892Y-62601588D01*
X241849330Y-62411113D01*
X241801430Y-62316016D01*
X241753671Y-62268537D01*
X241658292Y-62221199D01*
X241234920Y-63984361D02*
X241901584Y-63982394D01*
X241806346Y-63982675D02*
X241854106Y-64030153D01*
X241902005Y-64125251D01*
X241902427Y-64268107D01*
X241855089Y-64363485D01*
X241759992Y-64411385D01*
X241236184Y-64412930D01*
X241759992Y-64411385D02*
X241855370Y-64458723D01*
X241903270Y-64553820D01*
X241903691Y-64696677D01*
X241856353Y-64792055D01*
X241761256Y-64839955D01*
X241237449Y-64841500D01*
X241238853Y-65317688D02*
X241905517Y-65315722D01*
X241810279Y-65316002D02*
X241858039Y-65363481D01*
X241905939Y-65458578D01*
X241906360Y-65601435D01*
X241859022Y-65696813D01*
X241763925Y-65744713D01*
X241240118Y-65746258D01*
X241763925Y-65744713D02*
X241859303Y-65792050D01*
X241907203Y-65887148D01*
X241907624Y-66030004D01*
X241860286Y-66125382D01*
X241765189Y-66173282D01*
X241241382Y-66174827D01*
D11*
X240284687Y-19029019D02*
X240538687Y-105135019D01*
X233172000Y-19050000D02*
X240871105Y-19027289D01*
X233426000Y-105156000D02*
X241125105Y-105133289D01*
X240538687Y-105135019D02*
X239948946Y-104010250D01*
X240538687Y-105135019D02*
X241121782Y-104006790D01*
X240284687Y-19029019D02*
X239701592Y-20157248D01*
X240284687Y-19029019D02*
X240874428Y-20153788D01*
D10*
X136541380Y-14676380D02*
X135969952Y-14676380D01*
X136255666Y-14676380D02*
X136255666Y-13676380D01*
X136160428Y-13819238D01*
X136065190Y-13914476D01*
X135969952Y-13962095D01*
X137112809Y-14104952D02*
X137017571Y-14057333D01*
X136969952Y-14009714D01*
X136922333Y-13914476D01*
X136922333Y-13866857D01*
X136969952Y-13771619D01*
X137017571Y-13724000D01*
X137112809Y-13676380D01*
X137303285Y-13676380D01*
X137398523Y-13724000D01*
X137446142Y-13771619D01*
X137493761Y-13866857D01*
X137493761Y-13914476D01*
X137446142Y-14009714D01*
X137398523Y-14057333D01*
X137303285Y-14104952D01*
X137112809Y-14104952D01*
X137017571Y-14152571D01*
X136969952Y-14200190D01*
X136922333Y-14295428D01*
X136922333Y-14485904D01*
X136969952Y-14581142D01*
X137017571Y-14628761D01*
X137112809Y-14676380D01*
X137303285Y-14676380D01*
X137398523Y-14628761D01*
X137446142Y-14581142D01*
X137493761Y-14485904D01*
X137493761Y-14295428D01*
X137446142Y-14200190D01*
X137398523Y-14152571D01*
X137303285Y-14104952D01*
X138398523Y-13676380D02*
X137922333Y-13676380D01*
X137874714Y-14152571D01*
X137922333Y-14104952D01*
X138017571Y-14057333D01*
X138255666Y-14057333D01*
X138350904Y-14104952D01*
X138398523Y-14152571D01*
X138446142Y-14247809D01*
X138446142Y-14485904D01*
X138398523Y-14581142D01*
X138350904Y-14628761D01*
X138255666Y-14676380D01*
X138017571Y-14676380D01*
X137922333Y-14628761D01*
X137874714Y-14581142D01*
X138922333Y-14628761D02*
X138922333Y-14676380D01*
X138874714Y-14771619D01*
X138827095Y-14819238D01*
X139874714Y-14676380D02*
X139303285Y-14676380D01*
X139589000Y-14676380D02*
X139589000Y-13676380D01*
X139493761Y-13819238D01*
X139398523Y-13914476D01*
X139303285Y-13962095D01*
X140731857Y-13676380D02*
X140541380Y-13676380D01*
X140446142Y-13724000D01*
X140398523Y-13771619D01*
X140303285Y-13914476D01*
X140255666Y-14104952D01*
X140255666Y-14485904D01*
X140303285Y-14581142D01*
X140350904Y-14628761D01*
X140446142Y-14676380D01*
X140636619Y-14676380D01*
X140731857Y-14628761D01*
X140779476Y-14581142D01*
X140827095Y-14485904D01*
X140827095Y-14247809D01*
X140779476Y-14152571D01*
X140731857Y-14104952D01*
X140636619Y-14057333D01*
X140446142Y-14057333D01*
X140350904Y-14104952D01*
X140303285Y-14152571D01*
X140255666Y-14247809D01*
X141684238Y-13676380D02*
X141493761Y-13676380D01*
X141398523Y-13724000D01*
X141350904Y-13771619D01*
X141255666Y-13914476D01*
X141208047Y-14104952D01*
X141208047Y-14485904D01*
X141255666Y-14581142D01*
X141303285Y-14628761D01*
X141398523Y-14676380D01*
X141589000Y-14676380D01*
X141684238Y-14628761D01*
X141731857Y-14581142D01*
X141779476Y-14485904D01*
X141779476Y-14247809D01*
X141731857Y-14152571D01*
X141684238Y-14104952D01*
X141589000Y-14057333D01*
X141398523Y-14057333D01*
X141303285Y-14104952D01*
X141255666Y-14152571D01*
X141208047Y-14247809D01*
X142969952Y-14676380D02*
X142969952Y-14009714D01*
X142969952Y-14104952D02*
X143017571Y-14057333D01*
X143112809Y-14009714D01*
X143255666Y-14009714D01*
X143350904Y-14057333D01*
X143398523Y-14152571D01*
X143398523Y-14676380D01*
X143398523Y-14152571D02*
X143446142Y-14057333D01*
X143541380Y-14009714D01*
X143684238Y-14009714D01*
X143779476Y-14057333D01*
X143827095Y-14152571D01*
X143827095Y-14676380D01*
X144303285Y-14676380D02*
X144303285Y-14009714D01*
X144303285Y-14104952D02*
X144350904Y-14057333D01*
X144446142Y-14009714D01*
X144589000Y-14009714D01*
X144684238Y-14057333D01*
X144731857Y-14152571D01*
X144731857Y-14676380D01*
X144731857Y-14152571D02*
X144779476Y-14057333D01*
X144874714Y-14009714D01*
X145017571Y-14009714D01*
X145112809Y-14057333D01*
X145160428Y-14152571D01*
X145160428Y-14676380D01*
D11*
X48006000Y-15494000D02*
X233172000Y-15494000D01*
X48006000Y-18796000D02*
X48006000Y-14907579D01*
X233172000Y-18796000D02*
X233172000Y-14907579D01*
X233172000Y-15494000D02*
X232045496Y-16080421D01*
X233172000Y-15494000D02*
X232045496Y-14907579D01*
X48006000Y-15494000D02*
X49132504Y-16080421D01*
X48006000Y-15494000D02*
X49132504Y-14907579D01*
M02*
