%TF.GenerationSoftware,KiCad,Pcbnew,(5.1.4-0-10_14)*%
%TF.CreationDate,2020-08-04T22:12:35+02:00*%
%TF.ProjectId,usb-teensy3.6_kicad,7573622d-7465-4656-9e73-79332e365f6b,rev?*%
%TF.SameCoordinates,Original*%
%TF.FileFunction,Copper,L2,Bot*%
%TF.FilePolarity,Positive*%
%FSLAX46Y46*%
G04 Gerber Fmt 4.6, Leading zero omitted, Abs format (unit mm)*
G04 Created by KiCad (PCBNEW (5.1.4-0-10_14)) date 2020-08-04 22:12:35*
%MOMM*%
%LPD*%
G04 APERTURE LIST*
%ADD10C,2.700000*%
%ADD11C,1.750000*%
%ADD12R,1.750000X1.750000*%
%ADD13C,1.600000*%
%ADD14R,1.600000X1.600000*%
%ADD15C,2.340000*%
%ADD16C,2.000000*%
%ADD17C,0.800000*%
%ADD18C,0.250000*%
G04 APERTURE END LIST*
D10*
X160155000Y-121590000D03*
X94955000Y-121590000D03*
X158955000Y-113190000D03*
X96155000Y-113190000D03*
D11*
X164305000Y-115640000D03*
X90805000Y-119140000D03*
D12*
X90805000Y-115640000D03*
D10*
X160155000Y-145650000D03*
X94955000Y-145650000D03*
X158955000Y-137250000D03*
X96155000Y-137250000D03*
D11*
X164305000Y-139700000D03*
X90805000Y-143200000D03*
D12*
X90805000Y-139700000D03*
D13*
X124285000Y-130810000D03*
X124285000Y-133350000D03*
X124285000Y-135890000D03*
X124285000Y-138430000D03*
X124285000Y-140970000D03*
X133985000Y-134620000D03*
X133985000Y-137160000D03*
X133985000Y-139700000D03*
X133985000Y-144780000D03*
X136525000Y-147320000D03*
X136525000Y-144780000D03*
X136525000Y-142240000D03*
X136525000Y-139700000D03*
X136525000Y-137160000D03*
X136525000Y-134620000D03*
X136525000Y-132080000D03*
X136525000Y-129540000D03*
X136525000Y-127000000D03*
X136525000Y-124460000D03*
X136525000Y-121920000D03*
X136525000Y-119380000D03*
X136525000Y-116840000D03*
X136525000Y-114300000D03*
X136525000Y-111760000D03*
X136525000Y-109220000D03*
D14*
X121285000Y-147320000D03*
D13*
X121285000Y-144780000D03*
X121285000Y-142240000D03*
X121285000Y-139700000D03*
X121285000Y-137160000D03*
X121285000Y-134620000D03*
X121285000Y-132080000D03*
X121285000Y-129540000D03*
X121285000Y-127000000D03*
X121285000Y-124460000D03*
X121285000Y-121920000D03*
X121285000Y-119380000D03*
X121285000Y-116840000D03*
X136525000Y-106680000D03*
X136525000Y-104140000D03*
X136525000Y-101600000D03*
X136525000Y-99060000D03*
X136525000Y-96520000D03*
X136525000Y-93980000D03*
X136525000Y-91440000D03*
X136525000Y-88900000D03*
X133985000Y-101600000D03*
X131445000Y-101600000D03*
X128905000Y-101600000D03*
X126365000Y-101600000D03*
X123825000Y-101600000D03*
X121285000Y-88900000D03*
X121285000Y-91440000D03*
X121285000Y-93980000D03*
X121285000Y-96520000D03*
X121285000Y-114300000D03*
X121285000Y-111760000D03*
X121285000Y-109220000D03*
X121285000Y-99060000D03*
X121285000Y-101600000D03*
X121285000Y-104140000D03*
X121285000Y-106680000D03*
D10*
X160155000Y-109490000D03*
X94955000Y-109490000D03*
X158955000Y-101090000D03*
X96155000Y-101090000D03*
D11*
X164305000Y-103540000D03*
X90805000Y-107040000D03*
D12*
X90805000Y-103540000D03*
D10*
X160155000Y-133690000D03*
X94955000Y-133690000D03*
X158955000Y-125290000D03*
X96155000Y-125290000D03*
D11*
X164305000Y-127740000D03*
X90805000Y-131240000D03*
D12*
X90805000Y-127740000D03*
D10*
X160790000Y-98025000D03*
X95590000Y-98025000D03*
X159590000Y-89625000D03*
X96790000Y-89625000D03*
D11*
X164940000Y-92075000D03*
X91440000Y-95575000D03*
D12*
X91440000Y-92075000D03*
D15*
X172720000Y-81915000D03*
X167720000Y-81915000D03*
X162720000Y-81915000D03*
D16*
X184935000Y-125730000D03*
X184935000Y-130230000D03*
X178435000Y-125730000D03*
X178435000Y-130230000D03*
X184935000Y-139065000D03*
X184935000Y-143565000D03*
X178435000Y-139065000D03*
X178435000Y-143565000D03*
D15*
X153670000Y-81915000D03*
X148670000Y-81915000D03*
X143670000Y-81915000D03*
X135175000Y-81755000D03*
X130175000Y-81755000D03*
X125175000Y-81755000D03*
X116205000Y-81755000D03*
X111205000Y-81755000D03*
X106205000Y-81755000D03*
X95885000Y-81915000D03*
X90885000Y-81915000D03*
X85885000Y-81915000D03*
D17*
X138430000Y-106680000D03*
X181610000Y-144780000D03*
X138430000Y-104140000D03*
X181555000Y-130230000D03*
D18*
X165179999Y-104414999D02*
X165179999Y-104695001D01*
X164305000Y-103540000D02*
X165179999Y-104414999D01*
X136525000Y-121920000D02*
X137160000Y-121920000D01*
X156658600Y-116655010D02*
X146683590Y-106680000D01*
X159198600Y-116655010D02*
X156658600Y-116655010D01*
X175075010Y-132530010D02*
X175073599Y-132530009D01*
X175073599Y-132530009D02*
X159198600Y-116655010D01*
X175895000Y-144780000D02*
X175895000Y-133350000D01*
X146683590Y-106680000D02*
X138430000Y-106680000D01*
X177165000Y-146050000D02*
X175895000Y-144780000D01*
X181610000Y-144780000D02*
X180340000Y-146050000D01*
X175895000Y-133350000D02*
X175075010Y-132530010D01*
X180340000Y-146050000D02*
X177165000Y-146050000D01*
X148590000Y-107950000D02*
X148590000Y-107950000D01*
X181555000Y-131390000D02*
X181555000Y-130230000D01*
X181610000Y-131445000D02*
X181555000Y-131390000D01*
X180975000Y-132080000D02*
X181610000Y-131445000D01*
X175260000Y-132080000D02*
X180975000Y-132080000D01*
X144780000Y-104140000D02*
X156845000Y-116205000D01*
X159385000Y-116205000D02*
X175260000Y-132080000D01*
X156845000Y-116205000D02*
X159385000Y-116205000D01*
X138430000Y-104140000D02*
X144780000Y-104140000D01*
M02*
