%TF.GenerationSoftware,KiCad,Pcbnew,(5.1.4-0-10_14)*%
%TF.CreationDate,2020-08-04T22:12:35+02:00*%
%TF.ProjectId,usb-teensy3.6_kicad,7573622d-7465-4656-9e73-79332e365f6b,rev?*%
%TF.SameCoordinates,Original*%
%TF.FileFunction,Copper,L1,Top*%
%TF.FilePolarity,Positive*%
%FSLAX46Y46*%
G04 Gerber Fmt 4.6, Leading zero omitted, Abs format (unit mm)*
G04 Created by KiCad (PCBNEW (5.1.4-0-10_14)) date 2020-08-04 22:12:35*
%MOMM*%
%LPD*%
G04 APERTURE LIST*
%ADD10C,0.381000*%
%ADD11C,2.700000*%
%ADD12C,1.750000*%
%ADD13R,1.750000X1.750000*%
%ADD14C,1.600000*%
%ADD15R,1.600000X1.600000*%
%ADD16C,2.340000*%
%ADD17C,2.000000*%
%ADD18C,0.800000*%
%ADD19C,0.250000*%
%ADD20C,1.000000*%
%ADD21C,0.254000*%
G04 APERTURE END LIST*
D10*
X201409440Y-141644700D02*
X200810000Y-141545640D01*
X201810760Y-141743760D02*
X201409440Y-141644700D01*
X202311140Y-142046020D02*
X201810760Y-141743760D01*
X202808980Y-142543860D02*
X202311140Y-142046020D01*
X203111240Y-143044240D02*
X202808980Y-142543860D01*
X203309360Y-143646220D02*
X203111240Y-143044240D01*
X203309360Y-144245660D02*
X203309360Y-143646220D01*
X203210300Y-144845100D02*
X203309360Y-144245660D01*
X202808980Y-145546140D02*
X203210300Y-144845100D01*
X202311140Y-146043980D02*
X202808980Y-145546140D01*
X201709160Y-146346240D02*
X202311140Y-146043980D01*
X201109720Y-146544360D02*
X201709160Y-146346240D01*
X200309620Y-146544360D02*
X201109720Y-146544360D01*
X199611120Y-146244640D02*
X200309620Y-146544360D01*
X199110740Y-145845860D02*
X199611120Y-146244640D01*
X198508760Y-145144820D02*
X199110740Y-145845860D01*
X198310640Y-144344720D02*
X198508760Y-145144820D01*
X198310640Y-143745280D02*
X198310640Y-144344720D01*
X198409700Y-143244900D02*
X198310640Y-143745280D01*
X198610360Y-142846120D02*
X198409700Y-143244900D01*
X199110740Y-142244140D02*
X198610360Y-142846120D01*
X199611120Y-141845360D02*
X199110740Y-142244140D01*
X200108960Y-141644700D02*
X199611120Y-141845360D01*
X200710940Y-141545640D02*
X200108960Y-141644700D01*
X200810000Y-141545640D02*
X200710940Y-141545640D01*
X200210560Y-145045760D02*
X200411220Y-144845100D01*
X199809240Y-145045760D02*
X200210560Y-145045760D01*
X199509520Y-144944160D02*
X199809240Y-145045760D01*
X199308860Y-144644440D02*
X199509520Y-144944160D01*
X199209800Y-144144060D02*
X199308860Y-144644440D01*
X199209800Y-143745280D02*
X199209800Y-144144060D01*
X199308860Y-143343960D02*
X199209800Y-143745280D01*
X199611120Y-143145840D02*
X199308860Y-143343960D01*
X200009900Y-143044240D02*
X199611120Y-143145840D01*
X200309620Y-143145840D02*
X200009900Y-143044240D01*
X200411220Y-143244900D02*
X200309620Y-143145840D01*
X202311140Y-145045760D02*
X202410200Y-144845100D01*
X202008880Y-145045760D02*
X202311140Y-145045760D01*
X201810760Y-145045760D02*
X202008880Y-145045760D01*
X201409440Y-144845100D02*
X201810760Y-145045760D01*
X201208780Y-144443780D02*
X201409440Y-144845100D01*
X201208780Y-144045000D02*
X201208780Y-144443780D01*
X201310380Y-143544620D02*
X201208780Y-144045000D01*
X201511040Y-143145840D02*
X201310380Y-143544620D01*
X201810760Y-143044240D02*
X201511040Y-143145840D01*
X202110480Y-143044240D02*
X201810760Y-143044240D01*
X202311140Y-143145840D02*
X202110480Y-143044240D01*
X202410200Y-143244900D02*
X202311140Y-143145840D01*
X207609440Y-141744700D02*
X207010000Y-141645640D01*
X208010760Y-141843760D02*
X207609440Y-141744700D01*
X208511140Y-142146020D02*
X208010760Y-141843760D01*
X209008980Y-142643860D02*
X208511140Y-142146020D01*
X209311240Y-143144240D02*
X209008980Y-142643860D01*
X209509360Y-143746220D02*
X209311240Y-143144240D01*
X209509360Y-144345660D02*
X209509360Y-143746220D01*
X209410300Y-144945100D02*
X209509360Y-144345660D01*
X209008980Y-145646140D02*
X209410300Y-144945100D01*
X208511140Y-146143980D02*
X209008980Y-145646140D01*
X207909160Y-146446240D02*
X208511140Y-146143980D01*
X207309720Y-146644360D02*
X207909160Y-146446240D01*
X206509620Y-146644360D02*
X207309720Y-146644360D01*
X205811120Y-146344640D02*
X206509620Y-146644360D01*
X205310740Y-145945860D02*
X205811120Y-146344640D01*
X204708760Y-145244820D02*
X205310740Y-145945860D01*
X204510640Y-144444720D02*
X204708760Y-145244820D01*
X204510640Y-143845280D02*
X204510640Y-144444720D01*
X204609700Y-143344900D02*
X204510640Y-143845280D01*
X204810360Y-142946120D02*
X204609700Y-143344900D01*
X205310740Y-142344140D02*
X204810360Y-142946120D01*
X205811120Y-141945360D02*
X205310740Y-142344140D01*
X206308960Y-141744700D02*
X205811120Y-141945360D01*
X206910940Y-141645640D02*
X206308960Y-141744700D01*
X207010000Y-141645640D02*
X206910940Y-141645640D01*
X207325666Y-142445740D02*
G75*
G03X207325666Y-142445740I-315666J0D01*
G01*
X206209900Y-144345660D02*
X206209900Y-143144240D01*
X207711040Y-144345660D02*
X206209900Y-144345660D01*
X207711040Y-143144240D02*
X207711040Y-144345660D01*
X206209900Y-143144240D02*
X207711040Y-143144240D01*
X206710280Y-145945860D02*
X207210660Y-145945860D01*
X206710280Y-144444720D02*
X206710280Y-145945860D01*
X207309720Y-145945860D02*
X207309720Y-144345660D01*
X207109060Y-145945860D02*
X207309720Y-145945860D01*
X207010000Y-144444720D02*
X207010000Y-145745200D01*
X206209900Y-144045940D02*
X207510380Y-144045940D01*
X207510380Y-143746220D02*
X206308960Y-143746220D01*
X206308960Y-143443960D02*
X207609440Y-143443960D01*
X207010000Y-142245080D02*
X207010000Y-142643860D01*
X213959440Y-141744700D02*
X213360000Y-141645640D01*
X214360760Y-141843760D02*
X213959440Y-141744700D01*
X214861140Y-142146020D02*
X214360760Y-141843760D01*
X215358980Y-142643860D02*
X214861140Y-142146020D01*
X215661240Y-143144240D02*
X215358980Y-142643860D01*
X215859360Y-143746220D02*
X215661240Y-143144240D01*
X215859360Y-144345660D02*
X215859360Y-143746220D01*
X215760300Y-144945100D02*
X215859360Y-144345660D01*
X215358980Y-145646140D02*
X215760300Y-144945100D01*
X214861140Y-146143980D02*
X215358980Y-145646140D01*
X214259160Y-146446240D02*
X214861140Y-146143980D01*
X213659720Y-146644360D02*
X214259160Y-146446240D01*
X212859620Y-146644360D02*
X213659720Y-146644360D01*
X212161120Y-146344640D02*
X212859620Y-146644360D01*
X211660740Y-145945860D02*
X212161120Y-146344640D01*
X211058760Y-145244820D02*
X211660740Y-145945860D01*
X210860640Y-144444720D02*
X211058760Y-145244820D01*
X210860640Y-143845280D02*
X210860640Y-144444720D01*
X210959700Y-143344900D02*
X210860640Y-143845280D01*
X211160360Y-142946120D02*
X210959700Y-143344900D01*
X211660740Y-142344140D02*
X211160360Y-142946120D01*
X212161120Y-141945360D02*
X211660740Y-142344140D01*
X212658960Y-141744700D02*
X212161120Y-141945360D01*
X213260940Y-141645640D02*
X212658960Y-141744700D01*
X213360000Y-141645640D02*
X213260940Y-141645640D01*
X214061040Y-143144240D02*
X214259160Y-142946120D01*
X213758780Y-143045180D02*
X214061040Y-143144240D01*
X213459060Y-142946120D02*
X213758780Y-143045180D01*
X213060280Y-143045180D02*
X213459060Y-142946120D01*
X212859620Y-143245840D02*
X213060280Y-143045180D01*
X212760560Y-143443960D02*
X212859620Y-143245840D01*
X212859620Y-143746220D02*
X212760560Y-143443960D01*
X213060280Y-143944340D02*
X212859620Y-143746220D01*
X213659720Y-144045940D02*
X213060280Y-143944340D01*
X214061040Y-144345660D02*
X213659720Y-144045940D01*
X214160100Y-144645380D02*
X214061040Y-144345660D01*
X214160100Y-144945100D02*
X214160100Y-144645380D01*
X214061040Y-145145760D02*
X214160100Y-144945100D01*
X213860380Y-145343880D02*
X214061040Y-145145760D01*
X213560660Y-145445480D02*
X213860380Y-145343880D01*
X212859620Y-145445480D02*
X213560660Y-145445480D01*
X212559900Y-145343880D02*
X212859620Y-145445480D01*
X212559900Y-145145760D02*
X212559900Y-145343880D01*
X212658960Y-145145760D02*
X212559900Y-145145760D01*
X213159340Y-145244820D02*
X212658960Y-145145760D01*
X213659720Y-145145760D02*
X213159340Y-145244820D01*
X213959440Y-144945100D02*
X213659720Y-145145760D01*
X213959440Y-144543780D02*
X213959440Y-144945100D01*
X213659720Y-144345660D02*
X213959440Y-144543780D01*
X212859620Y-144045940D02*
X213659720Y-144345660D01*
X212658960Y-143845280D02*
X212859620Y-144045940D01*
X212559900Y-143545560D02*
X212658960Y-143845280D01*
X212559900Y-143245840D02*
X212559900Y-143545560D01*
X212658960Y-143045180D02*
X212559900Y-143245840D01*
X212859620Y-142844520D02*
X212658960Y-143045180D01*
X213060280Y-142745460D02*
X212859620Y-142844520D01*
X213758780Y-142745460D02*
X213060280Y-142745460D01*
X214160100Y-142844520D02*
X213758780Y-142745460D01*
X214259160Y-142946120D02*
X214160100Y-142844520D01*
X211058760Y-143245840D02*
X215760300Y-144945100D01*
X210959700Y-143344900D02*
X215559640Y-145044160D01*
X213360000Y-142643860D02*
X213360000Y-142344140D01*
X213360000Y-145945860D02*
X213360000Y-145844260D01*
X213360000Y-145445480D02*
X213360000Y-145945860D01*
X219674440Y-141744700D02*
X219075000Y-141645640D01*
X220075760Y-141843760D02*
X219674440Y-141744700D01*
X220576140Y-142146020D02*
X220075760Y-141843760D01*
X221073980Y-142643860D02*
X220576140Y-142146020D01*
X221376240Y-143144240D02*
X221073980Y-142643860D01*
X221574360Y-143746220D02*
X221376240Y-143144240D01*
X221574360Y-144345660D02*
X221574360Y-143746220D01*
X221475300Y-144945100D02*
X221574360Y-144345660D01*
X221073980Y-145646140D02*
X221475300Y-144945100D01*
X220576140Y-146143980D02*
X221073980Y-145646140D01*
X219974160Y-146446240D02*
X220576140Y-146143980D01*
X219374720Y-146644360D02*
X219974160Y-146446240D01*
X218574620Y-146644360D02*
X219374720Y-146644360D01*
X217876120Y-146344640D02*
X218574620Y-146644360D01*
X217375740Y-145945860D02*
X217876120Y-146344640D01*
X216773760Y-145244820D02*
X217375740Y-145945860D01*
X216575640Y-144444720D02*
X216773760Y-145244820D01*
X216575640Y-143845280D02*
X216575640Y-144444720D01*
X216674700Y-143344900D02*
X216575640Y-143845280D01*
X216875360Y-142946120D02*
X216674700Y-143344900D01*
X217375740Y-142344140D02*
X216875360Y-142946120D01*
X217876120Y-141945360D02*
X217375740Y-142344140D01*
X218373960Y-141744700D02*
X217876120Y-141945360D01*
X218975940Y-141645640D02*
X218373960Y-141744700D01*
X219075000Y-141645640D02*
X218975940Y-141645640D01*
X218574620Y-142643860D02*
X218074240Y-142844520D01*
X218975940Y-142544800D02*
X218574620Y-142643860D01*
X219374720Y-142544800D02*
X218975940Y-142544800D01*
X219974160Y-142844520D02*
X219374720Y-142544800D01*
X220273880Y-143144240D02*
X219974160Y-142844520D01*
X220576140Y-143644620D02*
X220273880Y-143144240D01*
X220675200Y-144145000D02*
X220576140Y-143644620D01*
X220675200Y-144543780D02*
X220675200Y-144145000D01*
X220375480Y-145044160D02*
X220675200Y-144543780D01*
X219974160Y-145445480D02*
X220375480Y-145044160D01*
X219473780Y-145646140D02*
X219974160Y-145445480D01*
X218975940Y-145745200D02*
X219473780Y-145646140D01*
X218475560Y-145646140D02*
X218975940Y-145745200D01*
X217975180Y-145343880D02*
X218475560Y-145646140D01*
D11*
X160155000Y-121590000D03*
X94955000Y-121590000D03*
X158955000Y-113190000D03*
X96155000Y-113190000D03*
D12*
X164305000Y-115640000D03*
X90805000Y-119140000D03*
D13*
X90805000Y-115640000D03*
D11*
X160155000Y-145650000D03*
X94955000Y-145650000D03*
X158955000Y-137250000D03*
X96155000Y-137250000D03*
D12*
X164305000Y-139700000D03*
X90805000Y-143200000D03*
D13*
X90805000Y-139700000D03*
D14*
X124285000Y-130810000D03*
X124285000Y-133350000D03*
X124285000Y-135890000D03*
X124285000Y-138430000D03*
X124285000Y-140970000D03*
X133985000Y-134620000D03*
X133985000Y-137160000D03*
X133985000Y-139700000D03*
X133985000Y-144780000D03*
X136525000Y-147320000D03*
X136525000Y-144780000D03*
X136525000Y-142240000D03*
X136525000Y-139700000D03*
X136525000Y-137160000D03*
X136525000Y-134620000D03*
X136525000Y-132080000D03*
X136525000Y-129540000D03*
X136525000Y-127000000D03*
X136525000Y-124460000D03*
X136525000Y-121920000D03*
X136525000Y-119380000D03*
X136525000Y-116840000D03*
X136525000Y-114300000D03*
X136525000Y-111760000D03*
X136525000Y-109220000D03*
D15*
X121285000Y-147320000D03*
D14*
X121285000Y-144780000D03*
X121285000Y-142240000D03*
X121285000Y-139700000D03*
X121285000Y-137160000D03*
X121285000Y-134620000D03*
X121285000Y-132080000D03*
X121285000Y-129540000D03*
X121285000Y-127000000D03*
X121285000Y-124460000D03*
X121285000Y-121920000D03*
X121285000Y-119380000D03*
X121285000Y-116840000D03*
X136525000Y-106680000D03*
X136525000Y-104140000D03*
X136525000Y-101600000D03*
X136525000Y-99060000D03*
X136525000Y-96520000D03*
X136525000Y-93980000D03*
X136525000Y-91440000D03*
X136525000Y-88900000D03*
X133985000Y-101600000D03*
X131445000Y-101600000D03*
X128905000Y-101600000D03*
X126365000Y-101600000D03*
X123825000Y-101600000D03*
X121285000Y-88900000D03*
X121285000Y-91440000D03*
X121285000Y-93980000D03*
X121285000Y-96520000D03*
X121285000Y-114300000D03*
X121285000Y-111760000D03*
X121285000Y-109220000D03*
X121285000Y-99060000D03*
X121285000Y-101600000D03*
X121285000Y-104140000D03*
X121285000Y-106680000D03*
D11*
X160155000Y-109490000D03*
X94955000Y-109490000D03*
X158955000Y-101090000D03*
X96155000Y-101090000D03*
D12*
X164305000Y-103540000D03*
X90805000Y-107040000D03*
D13*
X90805000Y-103540000D03*
D11*
X160155000Y-133690000D03*
X94955000Y-133690000D03*
X158955000Y-125290000D03*
X96155000Y-125290000D03*
D12*
X164305000Y-127740000D03*
X90805000Y-131240000D03*
D13*
X90805000Y-127740000D03*
D11*
X160790000Y-98025000D03*
X95590000Y-98025000D03*
X159590000Y-89625000D03*
X96790000Y-89625000D03*
D12*
X164940000Y-92075000D03*
X91440000Y-95575000D03*
D13*
X91440000Y-92075000D03*
D16*
X172720000Y-81915000D03*
X167720000Y-81915000D03*
X162720000Y-81915000D03*
D17*
X184935000Y-125730000D03*
X184935000Y-130230000D03*
X178435000Y-125730000D03*
X178435000Y-130230000D03*
X184935000Y-139065000D03*
X184935000Y-143565000D03*
X178435000Y-139065000D03*
X178435000Y-143565000D03*
D16*
X153670000Y-81915000D03*
X148670000Y-81915000D03*
X143670000Y-81915000D03*
X135175000Y-81755000D03*
X130175000Y-81755000D03*
X125175000Y-81755000D03*
X116205000Y-81755000D03*
X111205000Y-81755000D03*
X106205000Y-81755000D03*
X95885000Y-81915000D03*
X90885000Y-81915000D03*
X85885000Y-81915000D03*
D18*
X138430000Y-106680000D03*
X181610000Y-144780000D03*
X138430000Y-104140000D03*
X181555000Y-130230000D03*
D19*
X141605000Y-85090000D02*
X142875000Y-86360000D01*
X164940000Y-92075000D02*
X164940000Y-102905000D01*
X164305000Y-103540000D02*
X164305000Y-115640000D01*
X164940000Y-102905000D02*
X164305000Y-103540000D01*
D20*
X178435000Y-139065000D02*
X184935000Y-139065000D01*
X178435000Y-125730000D02*
X184935000Y-125730000D01*
D19*
X136525000Y-106680000D02*
X138430000Y-106680000D01*
X179650000Y-144780000D02*
X181610000Y-144780000D01*
X183720000Y-144780000D02*
X184935000Y-143565000D01*
X178435000Y-143565000D02*
X179650000Y-144780000D01*
X181610000Y-144780000D02*
X183720000Y-144780000D01*
X178435000Y-130230000D02*
X181555000Y-130230000D01*
X138430000Y-104140000D02*
X136525000Y-104140000D01*
X181555000Y-130230000D02*
X184935000Y-130230000D01*
D20*
X86360000Y-95280000D02*
X86360000Y-96520000D01*
X91440000Y-92075000D02*
X89565000Y-92075000D01*
X89565000Y-92075000D02*
X86360000Y-95280000D01*
X86360000Y-96520000D02*
X86360000Y-86360000D01*
X86360000Y-106110000D02*
X86360000Y-107950000D01*
X90805000Y-103540000D02*
X88930000Y-103540000D01*
X86360000Y-107950000D02*
X86360000Y-96520000D01*
X88930000Y-103540000D02*
X86360000Y-106110000D01*
X86360000Y-118210000D02*
X86360000Y-120650000D01*
X88930000Y-115640000D02*
X86360000Y-118210000D01*
X86360000Y-120650000D02*
X86360000Y-107950000D01*
X90805000Y-115640000D02*
X88930000Y-115640000D01*
X88930000Y-127740000D02*
X86360000Y-130310000D01*
X86360000Y-130310000D02*
X86360000Y-130810000D01*
X90805000Y-127740000D02*
X88930000Y-127740000D01*
X86360000Y-130810000D02*
X86360000Y-120650000D01*
X86360000Y-142270000D02*
X86360000Y-143510000D01*
X88930000Y-139700000D02*
X86360000Y-142270000D01*
X86360000Y-143510000D02*
X86360000Y-130810000D01*
X90805000Y-139700000D02*
X88930000Y-139700000D01*
X86360000Y-144780000D02*
X86360000Y-143510000D01*
X86360000Y-86360000D02*
X88900000Y-83820000D01*
X93980000Y-80010000D02*
X95885000Y-81915000D01*
X115035001Y-80585001D02*
X116205000Y-81755000D01*
X114334999Y-79884999D02*
X115035001Y-80585001D01*
X110307399Y-79884999D02*
X114334999Y-79884999D01*
X109334999Y-82435001D02*
X109334999Y-80857399D01*
X108144999Y-83625001D02*
X109334999Y-82435001D01*
X100770001Y-83625001D02*
X108144999Y-83625001D01*
X97155000Y-80010000D02*
X100770001Y-83625001D01*
X109334999Y-80857399D02*
X110307399Y-79884999D01*
X93980000Y-80010000D02*
X97155000Y-80010000D01*
X133304999Y-79884999D02*
X135175000Y-81755000D01*
X127045001Y-82117397D02*
X129277399Y-79884999D01*
X129277399Y-79884999D02*
X133304999Y-79884999D01*
X125877602Y-83820000D02*
X127045001Y-82652601D01*
X121285000Y-83820000D02*
X125877602Y-83820000D01*
X117349999Y-79884999D02*
X121285000Y-83820000D01*
X127045001Y-82652601D02*
X127045001Y-82117397D01*
X114334999Y-79884999D02*
X117349999Y-79884999D01*
X139700000Y-83820000D02*
X135764999Y-79884999D01*
X135764999Y-79884999D02*
X133304999Y-79884999D01*
X144532602Y-83820000D02*
X139700000Y-83820000D01*
X151799999Y-80044999D02*
X147772399Y-80044999D01*
X146799999Y-81552603D02*
X144532602Y-83820000D01*
X147772399Y-80044999D02*
X146799999Y-81017399D01*
X146799999Y-81017399D02*
X146799999Y-81552603D01*
X153670000Y-81915000D02*
X151799999Y-80044999D01*
X151799999Y-80044999D02*
X154905001Y-80044999D01*
X154905001Y-80044999D02*
X158680002Y-83820000D01*
X158680002Y-83820000D02*
X163830000Y-83820000D01*
X170849999Y-80044999D02*
X171550001Y-80745001D01*
X166822399Y-80044999D02*
X170849999Y-80044999D01*
X171550001Y-80745001D02*
X172720000Y-81915000D01*
X165849999Y-81017399D02*
X166822399Y-80044999D01*
X165849999Y-81800001D02*
X165849999Y-81017399D01*
X163830000Y-83820000D02*
X165849999Y-81800001D01*
X90022398Y-80010000D02*
X90805000Y-80010000D01*
X89014999Y-81017399D02*
X90022398Y-80010000D01*
X89014999Y-81165001D02*
X89014999Y-81017399D01*
X88900000Y-81280000D02*
X89014999Y-81165001D01*
X88900000Y-83820000D02*
X88900000Y-81280000D01*
X90805000Y-80010000D02*
X93980000Y-80010000D01*
X136525000Y-147320000D02*
X136525000Y-149109990D01*
X90689990Y-149109990D02*
X90170000Y-148590000D01*
X136525000Y-149109990D02*
X90689990Y-149109990D01*
X90170000Y-148590000D02*
X86360000Y-144780000D01*
D19*
X140970000Y-109220000D02*
X136525000Y-109220000D01*
X142875000Y-107315000D02*
X140970000Y-109220000D01*
X142875000Y-88269230D02*
X142875000Y-107315000D01*
X141600770Y-86995000D02*
X142875000Y-88269230D01*
X114300000Y-86995000D02*
X141600770Y-86995000D01*
X105720000Y-95575000D02*
X114300000Y-86995000D01*
X91440000Y-95575000D02*
X105720000Y-95575000D01*
X135725001Y-116040001D02*
X136525000Y-116840000D01*
X135399999Y-115714999D02*
X135725001Y-116040001D01*
X106535001Y-115714999D02*
X135399999Y-115714999D01*
X97860002Y-107040000D02*
X106535001Y-115714999D01*
X90805000Y-107040000D02*
X97860002Y-107040000D01*
X135725001Y-118580001D02*
X136525000Y-119380000D01*
X135399999Y-118254999D02*
X135725001Y-118580001D01*
X91690001Y-118254999D02*
X135399999Y-118254999D01*
X90805000Y-119140000D02*
X91690001Y-118254999D01*
X92042436Y-131240000D02*
X90805000Y-131240000D01*
X93107436Y-130175000D02*
X92042436Y-131240000D01*
X108583590Y-130175000D02*
X93107436Y-130175000D01*
X113664295Y-125094295D02*
X108583590Y-130175000D01*
X116839295Y-125094295D02*
X113664295Y-125094295D01*
X118600001Y-123334999D02*
X116840000Y-125095000D01*
X116840000Y-125095000D02*
X116839295Y-125094295D01*
X135110001Y-123334999D02*
X118600001Y-123334999D01*
X136525000Y-121920000D02*
X135110001Y-123334999D01*
X135725001Y-125259999D02*
X136525000Y-124460000D01*
X135399999Y-125585001D02*
X135725001Y-125259999D01*
X113809999Y-125585001D02*
X135399999Y-125585001D01*
X98425000Y-140970000D02*
X113809999Y-125585001D01*
X92042436Y-143200000D02*
X94272436Y-140970000D01*
X94272436Y-140970000D02*
X98425000Y-140970000D01*
X90805000Y-143200000D02*
X92042436Y-143200000D01*
X140335000Y-127000000D02*
X136525000Y-127000000D01*
X143510000Y-123825000D02*
X140335000Y-127000000D01*
X143510000Y-88267820D02*
X143510000Y-123825000D01*
X141602180Y-86360000D02*
X143510000Y-88267820D01*
X95330000Y-86360000D02*
X141602180Y-86360000D01*
X90885000Y-81915000D02*
X95330000Y-86360000D01*
X115175000Y-85725000D02*
X115570000Y-85725000D01*
X111205000Y-81755000D02*
X115175000Y-85725000D01*
X140971410Y-85725000D02*
X115570000Y-85725000D01*
X140971410Y-85725000D02*
X140970000Y-85725000D01*
X136525000Y-129540000D02*
X141605000Y-129540000D01*
X142875000Y-129540000D02*
X144064970Y-128350030D01*
X141605000Y-129540000D02*
X142875000Y-129540000D01*
X144064970Y-128350030D02*
X144064970Y-88186380D01*
X144064970Y-88186380D02*
X141603590Y-85725000D01*
X141603590Y-85725000D02*
X140970000Y-85725000D01*
X130175000Y-81755000D02*
X133510000Y-85090000D01*
X133510000Y-85090000D02*
X141605000Y-85090000D01*
X136525000Y-132080000D02*
X141602180Y-132080000D01*
X141602180Y-132080000D02*
X144514980Y-129167200D01*
X144514980Y-87999980D02*
X142875000Y-86360000D01*
X144514980Y-129167200D02*
X144514980Y-87999980D01*
X139698590Y-134620000D02*
X144964990Y-129353600D01*
X148670000Y-81915000D02*
X148670000Y-95170000D01*
X148590000Y-95250000D02*
X148590000Y-95883590D01*
X148670000Y-95170000D02*
X148590000Y-95250000D01*
X148590000Y-95883590D02*
X145414295Y-99059295D01*
X145414295Y-99059295D02*
X144964990Y-99508600D01*
X144964989Y-129353601D02*
X139698590Y-134620000D01*
X144964990Y-99508600D02*
X144964989Y-129353601D01*
X139698590Y-134620000D02*
X136525000Y-134620000D01*
X163275000Y-86360000D02*
X167720000Y-81915000D01*
X137795000Y-137160000D02*
X145415000Y-129540000D01*
X158750000Y-86360000D02*
X163275000Y-86360000D01*
X136525000Y-137160000D02*
X137795000Y-137160000D01*
X145415000Y-99695000D02*
X158750000Y-86360000D01*
X145415000Y-129540000D02*
X145415000Y-99695000D01*
D21*
G36*
X180243660Y-129470000D02*
G01*
X179889909Y-129470000D01*
X179883918Y-129455537D01*
X179704987Y-129187748D01*
X179477252Y-128960013D01*
X179209463Y-128781082D01*
X178911912Y-128657832D01*
X178596033Y-128595000D01*
X178273967Y-128595000D01*
X177958088Y-128657832D01*
X177660537Y-128781082D01*
X177392748Y-128960013D01*
X177165013Y-129187748D01*
X176986082Y-129455537D01*
X176862832Y-129753088D01*
X176800000Y-130068967D01*
X176800000Y-130391033D01*
X176862832Y-130706912D01*
X176986082Y-131004463D01*
X177165013Y-131272252D01*
X177392748Y-131499987D01*
X177660537Y-131678918D01*
X177958088Y-131802168D01*
X178273967Y-131865000D01*
X178596033Y-131865000D01*
X178911912Y-131802168D01*
X179209463Y-131678918D01*
X179477252Y-131499987D01*
X179704987Y-131272252D01*
X179883918Y-131004463D01*
X179889909Y-130990000D01*
X180240010Y-130990000D01*
X180213277Y-142124323D01*
X179343791Y-142205837D01*
X179209463Y-142116082D01*
X178911912Y-141992832D01*
X178596033Y-141930000D01*
X178273967Y-141930000D01*
X177958088Y-141992832D01*
X177660537Y-142116082D01*
X177392748Y-142295013D01*
X177289317Y-142398444D01*
X161129010Y-143913473D01*
X161095250Y-143890915D01*
X160734003Y-143741282D01*
X160350505Y-143665000D01*
X159959495Y-143665000D01*
X159575997Y-143741282D01*
X159214750Y-143890915D01*
X158889636Y-144108149D01*
X158872792Y-144124993D01*
X139694055Y-145923000D01*
X137293998Y-145923000D01*
X137338097Y-145772702D01*
X136525000Y-144959605D01*
X135711903Y-145772702D01*
X135756002Y-145923000D01*
X135382000Y-145923000D01*
X135382000Y-145548998D01*
X135532298Y-145593097D01*
X136345395Y-144780000D01*
X136704605Y-144780000D01*
X137517702Y-145593097D01*
X137761671Y-145521514D01*
X137882571Y-145266004D01*
X137951300Y-144991816D01*
X137965217Y-144709488D01*
X137923787Y-144429870D01*
X137828603Y-144163708D01*
X137761671Y-144038486D01*
X137517702Y-143966903D01*
X136704605Y-144780000D01*
X136345395Y-144780000D01*
X135532298Y-143966903D01*
X135382000Y-144011002D01*
X135382000Y-143628252D01*
X135766630Y-143600778D01*
X135711903Y-143787298D01*
X136525000Y-144600395D01*
X137338097Y-143787298D01*
X137266514Y-143543329D01*
X137202008Y-143512806D01*
X137204727Y-143511680D01*
X137227555Y-143496427D01*
X161934048Y-141731677D01*
X161958588Y-141727478D01*
X161981837Y-141718572D01*
X162002902Y-141705301D01*
X162020973Y-141688176D01*
X162035355Y-141667855D01*
X162045497Y-141645118D01*
X162051008Y-141620839D01*
X162051961Y-141608154D01*
X162073374Y-140746240D01*
X163438365Y-140746240D01*
X163519025Y-140997868D01*
X163787329Y-141126267D01*
X164075526Y-141199855D01*
X164372543Y-141215804D01*
X164666963Y-141173501D01*
X164947474Y-141074572D01*
X165090975Y-140997868D01*
X165171635Y-140746240D01*
X164305000Y-139879605D01*
X163438365Y-140746240D01*
X162073374Y-140746240D01*
X162097690Y-139767543D01*
X162789196Y-139767543D01*
X162831499Y-140061963D01*
X162930428Y-140342474D01*
X163007132Y-140485975D01*
X163258760Y-140566635D01*
X164125395Y-139700000D01*
X164484605Y-139700000D01*
X165351240Y-140566635D01*
X165602868Y-140485975D01*
X165731267Y-140217671D01*
X165735673Y-140200413D01*
X177479192Y-140200413D01*
X177574956Y-140464814D01*
X177864571Y-140605704D01*
X178176108Y-140687384D01*
X178497595Y-140706718D01*
X178816675Y-140662961D01*
X179121088Y-140557795D01*
X179295044Y-140464814D01*
X179390808Y-140200413D01*
X178435000Y-139244605D01*
X177479192Y-140200413D01*
X165735673Y-140200413D01*
X165804855Y-139929474D01*
X165820804Y-139632457D01*
X165778501Y-139338037D01*
X165704284Y-139127595D01*
X176793282Y-139127595D01*
X176837039Y-139446675D01*
X176942205Y-139751088D01*
X177035186Y-139925044D01*
X177299587Y-140020808D01*
X178255395Y-139065000D01*
X178614605Y-139065000D01*
X179570413Y-140020808D01*
X179834814Y-139925044D01*
X179975704Y-139635429D01*
X180057384Y-139323892D01*
X180076718Y-139002405D01*
X180032961Y-138683325D01*
X179927795Y-138378912D01*
X179834814Y-138204956D01*
X179570413Y-138109192D01*
X178614605Y-139065000D01*
X178255395Y-139065000D01*
X177299587Y-138109192D01*
X177035186Y-138204956D01*
X176894296Y-138494571D01*
X176812616Y-138806108D01*
X176793282Y-139127595D01*
X165704284Y-139127595D01*
X165679572Y-139057526D01*
X165602868Y-138914025D01*
X165351240Y-138833365D01*
X164484605Y-139700000D01*
X164125395Y-139700000D01*
X163258760Y-138833365D01*
X163007132Y-138914025D01*
X162878733Y-139182329D01*
X162805145Y-139470526D01*
X162789196Y-139767543D01*
X162097690Y-139767543D01*
X162125361Y-138653760D01*
X163438365Y-138653760D01*
X164305000Y-139520395D01*
X165171635Y-138653760D01*
X165090975Y-138402132D01*
X164822671Y-138273733D01*
X164534474Y-138200145D01*
X164237457Y-138184196D01*
X163943037Y-138226499D01*
X163662526Y-138325428D01*
X163519025Y-138402132D01*
X163438365Y-138653760D01*
X162125361Y-138653760D01*
X162143352Y-137929587D01*
X177479192Y-137929587D01*
X178435000Y-138885395D01*
X179390808Y-137929587D01*
X179295044Y-137665186D01*
X179005429Y-137524296D01*
X178693892Y-137442616D01*
X178372405Y-137423282D01*
X178053325Y-137467039D01*
X177748912Y-137572205D01*
X177574956Y-137665186D01*
X177479192Y-137929587D01*
X162143352Y-137929587D01*
X162370516Y-128786240D01*
X163438365Y-128786240D01*
X163519025Y-129037868D01*
X163787329Y-129166267D01*
X164075526Y-129239855D01*
X164372543Y-129255804D01*
X164666963Y-129213501D01*
X164947474Y-129114572D01*
X165090975Y-129037868D01*
X165171635Y-128786240D01*
X164305000Y-127919605D01*
X163438365Y-128786240D01*
X162370516Y-128786240D01*
X162394832Y-127807543D01*
X162789196Y-127807543D01*
X162831499Y-128101963D01*
X162930428Y-128382474D01*
X163007132Y-128525975D01*
X163258760Y-128606635D01*
X164125395Y-127740000D01*
X164484605Y-127740000D01*
X165351240Y-128606635D01*
X165602868Y-128525975D01*
X165731267Y-128257671D01*
X165804855Y-127969474D01*
X165820804Y-127672457D01*
X165778501Y-127378037D01*
X165679572Y-127097526D01*
X165602868Y-126954025D01*
X165351240Y-126873365D01*
X164484605Y-127740000D01*
X164125395Y-127740000D01*
X163258760Y-126873365D01*
X163007132Y-126954025D01*
X162878733Y-127222329D01*
X162805145Y-127510526D01*
X162789196Y-127807543D01*
X162394832Y-127807543D01*
X162422503Y-126693760D01*
X163438365Y-126693760D01*
X164305000Y-127560395D01*
X164999982Y-126865413D01*
X177479192Y-126865413D01*
X177574956Y-127129814D01*
X177864571Y-127270704D01*
X178176108Y-127352384D01*
X178497595Y-127371718D01*
X178816675Y-127327961D01*
X179121088Y-127222795D01*
X179295044Y-127129814D01*
X179390808Y-126865413D01*
X178435000Y-125909605D01*
X177479192Y-126865413D01*
X164999982Y-126865413D01*
X165171635Y-126693760D01*
X165090975Y-126442132D01*
X164822671Y-126313733D01*
X164534474Y-126240145D01*
X164237457Y-126224196D01*
X163943037Y-126266499D01*
X163662526Y-126365428D01*
X163519025Y-126442132D01*
X163438365Y-126693760D01*
X162422503Y-126693760D01*
X162444892Y-125792595D01*
X176793282Y-125792595D01*
X176837039Y-126111675D01*
X176942205Y-126416088D01*
X177035186Y-126590044D01*
X177299587Y-126685808D01*
X178255395Y-125730000D01*
X178614605Y-125730000D01*
X179570413Y-126685808D01*
X179834814Y-126590044D01*
X179975704Y-126300429D01*
X180057384Y-125988892D01*
X180076718Y-125667405D01*
X180032961Y-125348325D01*
X179927795Y-125043912D01*
X179834814Y-124869956D01*
X179570413Y-124774192D01*
X178614605Y-125730000D01*
X178255395Y-125730000D01*
X177299587Y-124774192D01*
X177035186Y-124869956D01*
X176894296Y-125159571D01*
X176812616Y-125471108D01*
X176793282Y-125792595D01*
X162444892Y-125792595D01*
X162474656Y-124594587D01*
X177479192Y-124594587D01*
X178435000Y-125550395D01*
X179390808Y-124594587D01*
X179295044Y-124330186D01*
X179005429Y-124189296D01*
X178693892Y-124107616D01*
X178372405Y-124088282D01*
X178053325Y-124132039D01*
X177748912Y-124237205D01*
X177574956Y-124330186D01*
X177479192Y-124594587D01*
X162474656Y-124594587D01*
X162671137Y-116686240D01*
X163438365Y-116686240D01*
X163519025Y-116937868D01*
X163787329Y-117066267D01*
X164075526Y-117139855D01*
X164372543Y-117155804D01*
X164666963Y-117113501D01*
X164947474Y-117014572D01*
X165090975Y-116937868D01*
X165171635Y-116686240D01*
X164305000Y-115819605D01*
X163438365Y-116686240D01*
X162671137Y-116686240D01*
X162695453Y-115707543D01*
X162789196Y-115707543D01*
X162831499Y-116001963D01*
X162930428Y-116282474D01*
X163007132Y-116425975D01*
X163258760Y-116506635D01*
X164125395Y-115640000D01*
X164484605Y-115640000D01*
X165351240Y-116506635D01*
X165602868Y-116425975D01*
X165731267Y-116157671D01*
X165804855Y-115869474D01*
X165820804Y-115572457D01*
X165778501Y-115278037D01*
X165679572Y-114997526D01*
X165602868Y-114854025D01*
X165351240Y-114773365D01*
X164484605Y-115640000D01*
X164125395Y-115640000D01*
X163258760Y-114773365D01*
X163007132Y-114854025D01*
X162878733Y-115122329D01*
X162805145Y-115410526D01*
X162789196Y-115707543D01*
X162695453Y-115707543D01*
X162723124Y-114593760D01*
X163438365Y-114593760D01*
X164305000Y-115460395D01*
X165171635Y-114593760D01*
X165090975Y-114342132D01*
X164822671Y-114213733D01*
X164534474Y-114140145D01*
X164237457Y-114124196D01*
X163943037Y-114166499D01*
X163662526Y-114265428D01*
X163519025Y-114342132D01*
X163438365Y-114593760D01*
X162723124Y-114593760D01*
X162971759Y-104586240D01*
X163438365Y-104586240D01*
X163519025Y-104837868D01*
X163787329Y-104966267D01*
X164075526Y-105039855D01*
X164372543Y-105055804D01*
X164666963Y-105013501D01*
X164947474Y-104914572D01*
X165090975Y-104837868D01*
X165171635Y-104586240D01*
X164305000Y-103719605D01*
X163438365Y-104586240D01*
X162971759Y-104586240D01*
X162979510Y-104274299D01*
X163007132Y-104325975D01*
X163258760Y-104406635D01*
X164125395Y-103540000D01*
X164484605Y-103540000D01*
X165351240Y-104406635D01*
X165602868Y-104325975D01*
X165731267Y-104057671D01*
X165804855Y-103769474D01*
X165820804Y-103472457D01*
X165778501Y-103178037D01*
X165679572Y-102897526D01*
X165602868Y-102754025D01*
X165351240Y-102673365D01*
X164484605Y-103540000D01*
X164125395Y-103540000D01*
X163258760Y-102673365D01*
X163017362Y-102750746D01*
X163023746Y-102493760D01*
X163438365Y-102493760D01*
X164305000Y-103360395D01*
X165171635Y-102493760D01*
X165090975Y-102242132D01*
X164822671Y-102113733D01*
X164534474Y-102040145D01*
X164237457Y-102024196D01*
X163943037Y-102066499D01*
X163662526Y-102165428D01*
X163519025Y-102242132D01*
X163438365Y-102493760D01*
X163023746Y-102493760D01*
X163256603Y-93121240D01*
X164073365Y-93121240D01*
X164154025Y-93372868D01*
X164422329Y-93501267D01*
X164710526Y-93574855D01*
X165007543Y-93590804D01*
X165301963Y-93548501D01*
X165582474Y-93449572D01*
X165725975Y-93372868D01*
X165806635Y-93121240D01*
X164940000Y-92254605D01*
X164073365Y-93121240D01*
X163256603Y-93121240D01*
X163280919Y-92142543D01*
X163424196Y-92142543D01*
X163466499Y-92436963D01*
X163565428Y-92717474D01*
X163642132Y-92860975D01*
X163893760Y-92941635D01*
X164760395Y-92075000D01*
X165119605Y-92075000D01*
X165986240Y-92941635D01*
X166237868Y-92860975D01*
X166366267Y-92592671D01*
X166439855Y-92304474D01*
X166455804Y-92007457D01*
X166413501Y-91713037D01*
X166314572Y-91432526D01*
X166237868Y-91289025D01*
X165986240Y-91208365D01*
X165119605Y-92075000D01*
X164760395Y-92075000D01*
X163893760Y-91208365D01*
X163642132Y-91289025D01*
X163513733Y-91557329D01*
X163440145Y-91845526D01*
X163424196Y-92142543D01*
X163280919Y-92142543D01*
X163308591Y-91028760D01*
X164073365Y-91028760D01*
X164940000Y-91895395D01*
X165806635Y-91028760D01*
X165725975Y-90777132D01*
X165457671Y-90648733D01*
X165169474Y-90575145D01*
X164872457Y-90559196D01*
X164578037Y-90601499D01*
X164297526Y-90700428D01*
X164154025Y-90777132D01*
X164073365Y-91028760D01*
X163308591Y-91028760D01*
X163320157Y-90563251D01*
X174686677Y-84248518D01*
X174707150Y-84234352D01*
X174724467Y-84216465D01*
X174737961Y-84195542D01*
X174747114Y-84172390D01*
X174752000Y-84137500D01*
X174752000Y-78105000D01*
X174749560Y-78080224D01*
X174742333Y-78056399D01*
X174730597Y-78034443D01*
X174714803Y-78015197D01*
X174695557Y-77999403D01*
X174673601Y-77987667D01*
X174649776Y-77980440D01*
X174625000Y-77978000D01*
X163830000Y-77978000D01*
X163805224Y-77980440D01*
X163781399Y-77987667D01*
X163759443Y-77999403D01*
X163740197Y-78015197D01*
X163724403Y-78034443D01*
X163712667Y-78056399D01*
X163705440Y-78080224D01*
X163703000Y-78105000D01*
X163703000Y-80430595D01*
X163680725Y-80376611D01*
X163362140Y-80218743D01*
X163018878Y-80126062D01*
X162664131Y-80102127D01*
X162311530Y-80147861D01*
X161974627Y-80261505D01*
X161759275Y-80376611D01*
X161643003Y-80658398D01*
X162720000Y-81735395D01*
X162734143Y-81721253D01*
X162913748Y-81900858D01*
X162899605Y-81915000D01*
X162913748Y-81929143D01*
X162734143Y-82108748D01*
X162720000Y-82094605D01*
X162705858Y-82108748D01*
X162526253Y-81929143D01*
X162540395Y-81915000D01*
X161463398Y-80838003D01*
X161181611Y-80954275D01*
X161023743Y-81272860D01*
X160931062Y-81616122D01*
X160907127Y-81970869D01*
X160952861Y-82323470D01*
X161066505Y-82660373D01*
X161079668Y-82685000D01*
X160147000Y-82685000D01*
X160147000Y-78105000D01*
X160144560Y-78080224D01*
X160137333Y-78056399D01*
X160125597Y-78034443D01*
X160109803Y-78015197D01*
X160090557Y-77999403D01*
X160068601Y-77987667D01*
X160044776Y-77980440D01*
X160020000Y-77978000D01*
X144780000Y-77978000D01*
X144755224Y-77980440D01*
X144731399Y-77987667D01*
X144709443Y-77999403D01*
X144690197Y-78015197D01*
X144674403Y-78034443D01*
X144662667Y-78056399D01*
X144655440Y-78080224D01*
X144653000Y-78105000D01*
X144653000Y-80430595D01*
X144630725Y-80376611D01*
X144312140Y-80218743D01*
X143968878Y-80126062D01*
X143614131Y-80102127D01*
X143261530Y-80147861D01*
X142924627Y-80261505D01*
X142709275Y-80376611D01*
X142593003Y-80658398D01*
X143670000Y-81735395D01*
X143684143Y-81721253D01*
X143863748Y-81900858D01*
X143849605Y-81915000D01*
X143863748Y-81929143D01*
X143684143Y-82108748D01*
X143670000Y-82094605D01*
X143655858Y-82108748D01*
X143476253Y-81929143D01*
X143490395Y-81915000D01*
X142413398Y-80838003D01*
X142131611Y-80954275D01*
X141973743Y-81272860D01*
X141881062Y-81616122D01*
X141857127Y-81970869D01*
X141902861Y-82323470D01*
X142016505Y-82660373D01*
X142029668Y-82685000D01*
X141097000Y-82685000D01*
X141097000Y-78105000D01*
X141094560Y-78080224D01*
X141087333Y-78056399D01*
X141075597Y-78034443D01*
X141059803Y-78015197D01*
X141040557Y-77999403D01*
X141018601Y-77987667D01*
X140994776Y-77980440D01*
X140970000Y-77978000D01*
X126365000Y-77978000D01*
X126340224Y-77980440D01*
X126316399Y-77987667D01*
X126294443Y-77999403D01*
X126275197Y-78015197D01*
X126259403Y-78034443D01*
X126247667Y-78056399D01*
X126240440Y-78080224D01*
X126238000Y-78105000D01*
X126238000Y-80464476D01*
X126135725Y-80216611D01*
X125817140Y-80058743D01*
X125473878Y-79966062D01*
X125119131Y-79942127D01*
X124766530Y-79987861D01*
X124429627Y-80101505D01*
X124214275Y-80216611D01*
X124098003Y-80498398D01*
X125175000Y-81575395D01*
X125189143Y-81561253D01*
X125368748Y-81740858D01*
X125354605Y-81755000D01*
X125368748Y-81769143D01*
X125189143Y-81948748D01*
X125175000Y-81934605D01*
X125160858Y-81948748D01*
X124981253Y-81769143D01*
X124995395Y-81755000D01*
X123918398Y-80678003D01*
X123636611Y-80794275D01*
X123478743Y-81112860D01*
X123386062Y-81456122D01*
X123362127Y-81810869D01*
X123407861Y-82163470D01*
X123521505Y-82500373D01*
X123620188Y-82685000D01*
X122682000Y-82685000D01*
X122682000Y-78105000D01*
X122679560Y-78080224D01*
X122672333Y-78056399D01*
X122660597Y-78034443D01*
X122644803Y-78015197D01*
X122625557Y-77999403D01*
X122603601Y-77987667D01*
X122579776Y-77980440D01*
X122555000Y-77978000D01*
X107315000Y-77978000D01*
X107290224Y-77980440D01*
X107266399Y-77987667D01*
X107244443Y-77999403D01*
X107225197Y-78015197D01*
X107209403Y-78034443D01*
X107197667Y-78056399D01*
X107190440Y-78080224D01*
X107188000Y-78105000D01*
X107188000Y-80270595D01*
X107165725Y-80216611D01*
X106847140Y-80058743D01*
X106503878Y-79966062D01*
X106149131Y-79942127D01*
X105796530Y-79987861D01*
X105459627Y-80101505D01*
X105244275Y-80216611D01*
X105128003Y-80498398D01*
X106205000Y-81575395D01*
X106219143Y-81561253D01*
X106398748Y-81740858D01*
X106384605Y-81755000D01*
X106398748Y-81769143D01*
X106219143Y-81948748D01*
X106205000Y-81934605D01*
X106190858Y-81948748D01*
X106011253Y-81769143D01*
X106025395Y-81755000D01*
X104948398Y-80678003D01*
X104666611Y-80794275D01*
X104508743Y-81112860D01*
X104416062Y-81456122D01*
X104392127Y-81810869D01*
X104437861Y-82163470D01*
X104548006Y-82490001D01*
X103632000Y-82490001D01*
X103632000Y-78105000D01*
X103629560Y-78080224D01*
X103622333Y-78056399D01*
X103610597Y-78034443D01*
X103594803Y-78015197D01*
X103575557Y-77999403D01*
X103553601Y-77987667D01*
X103529776Y-77980440D01*
X103505000Y-77978000D01*
X87630000Y-77978000D01*
X87605224Y-77980440D01*
X87581399Y-77987667D01*
X87559443Y-77999403D01*
X87540197Y-78015197D01*
X87524403Y-78034443D01*
X87512667Y-78056399D01*
X87505440Y-78080224D01*
X87503000Y-78105000D01*
X87503000Y-81103219D01*
X87423389Y-80954275D01*
X87141602Y-80838003D01*
X86064605Y-81915000D01*
X86078748Y-81929143D01*
X85899143Y-82108748D01*
X85885000Y-82094605D01*
X85870858Y-82108748D01*
X85691253Y-81929143D01*
X85705395Y-81915000D01*
X84628398Y-80838003D01*
X84346611Y-80954275D01*
X84188743Y-81272860D01*
X84096062Y-81616122D01*
X84072127Y-81970869D01*
X84117861Y-82323470D01*
X84231505Y-82660373D01*
X84346611Y-82875725D01*
X84628396Y-82991996D01*
X84562392Y-83058000D01*
X83312000Y-83058000D01*
X83312000Y-80658398D01*
X84808003Y-80658398D01*
X85885000Y-81735395D01*
X86961997Y-80658398D01*
X86845725Y-80376611D01*
X86527140Y-80218743D01*
X86183878Y-80126062D01*
X85829131Y-80102127D01*
X85476530Y-80147861D01*
X85139627Y-80261505D01*
X84924275Y-80376611D01*
X84808003Y-80658398D01*
X83312000Y-80658398D01*
X83312000Y-76485440D01*
X167188550Y-76280195D01*
X167288115Y-76300000D01*
X168151885Y-76300000D01*
X168264688Y-76277562D01*
X180371444Y-76247937D01*
X180243660Y-129470000D01*
X180243660Y-129470000D01*
G37*
X180243660Y-129470000D02*
X179889909Y-129470000D01*
X179883918Y-129455537D01*
X179704987Y-129187748D01*
X179477252Y-128960013D01*
X179209463Y-128781082D01*
X178911912Y-128657832D01*
X178596033Y-128595000D01*
X178273967Y-128595000D01*
X177958088Y-128657832D01*
X177660537Y-128781082D01*
X177392748Y-128960013D01*
X177165013Y-129187748D01*
X176986082Y-129455537D01*
X176862832Y-129753088D01*
X176800000Y-130068967D01*
X176800000Y-130391033D01*
X176862832Y-130706912D01*
X176986082Y-131004463D01*
X177165013Y-131272252D01*
X177392748Y-131499987D01*
X177660537Y-131678918D01*
X177958088Y-131802168D01*
X178273967Y-131865000D01*
X178596033Y-131865000D01*
X178911912Y-131802168D01*
X179209463Y-131678918D01*
X179477252Y-131499987D01*
X179704987Y-131272252D01*
X179883918Y-131004463D01*
X179889909Y-130990000D01*
X180240010Y-130990000D01*
X180213277Y-142124323D01*
X179343791Y-142205837D01*
X179209463Y-142116082D01*
X178911912Y-141992832D01*
X178596033Y-141930000D01*
X178273967Y-141930000D01*
X177958088Y-141992832D01*
X177660537Y-142116082D01*
X177392748Y-142295013D01*
X177289317Y-142398444D01*
X161129010Y-143913473D01*
X161095250Y-143890915D01*
X160734003Y-143741282D01*
X160350505Y-143665000D01*
X159959495Y-143665000D01*
X159575997Y-143741282D01*
X159214750Y-143890915D01*
X158889636Y-144108149D01*
X158872792Y-144124993D01*
X139694055Y-145923000D01*
X137293998Y-145923000D01*
X137338097Y-145772702D01*
X136525000Y-144959605D01*
X135711903Y-145772702D01*
X135756002Y-145923000D01*
X135382000Y-145923000D01*
X135382000Y-145548998D01*
X135532298Y-145593097D01*
X136345395Y-144780000D01*
X136704605Y-144780000D01*
X137517702Y-145593097D01*
X137761671Y-145521514D01*
X137882571Y-145266004D01*
X137951300Y-144991816D01*
X137965217Y-144709488D01*
X137923787Y-144429870D01*
X137828603Y-144163708D01*
X137761671Y-144038486D01*
X137517702Y-143966903D01*
X136704605Y-144780000D01*
X136345395Y-144780000D01*
X135532298Y-143966903D01*
X135382000Y-144011002D01*
X135382000Y-143628252D01*
X135766630Y-143600778D01*
X135711903Y-143787298D01*
X136525000Y-144600395D01*
X137338097Y-143787298D01*
X137266514Y-143543329D01*
X137202008Y-143512806D01*
X137204727Y-143511680D01*
X137227555Y-143496427D01*
X161934048Y-141731677D01*
X161958588Y-141727478D01*
X161981837Y-141718572D01*
X162002902Y-141705301D01*
X162020973Y-141688176D01*
X162035355Y-141667855D01*
X162045497Y-141645118D01*
X162051008Y-141620839D01*
X162051961Y-141608154D01*
X162073374Y-140746240D01*
X163438365Y-140746240D01*
X163519025Y-140997868D01*
X163787329Y-141126267D01*
X164075526Y-141199855D01*
X164372543Y-141215804D01*
X164666963Y-141173501D01*
X164947474Y-141074572D01*
X165090975Y-140997868D01*
X165171635Y-140746240D01*
X164305000Y-139879605D01*
X163438365Y-140746240D01*
X162073374Y-140746240D01*
X162097690Y-139767543D01*
X162789196Y-139767543D01*
X162831499Y-140061963D01*
X162930428Y-140342474D01*
X163007132Y-140485975D01*
X163258760Y-140566635D01*
X164125395Y-139700000D01*
X164484605Y-139700000D01*
X165351240Y-140566635D01*
X165602868Y-140485975D01*
X165731267Y-140217671D01*
X165735673Y-140200413D01*
X177479192Y-140200413D01*
X177574956Y-140464814D01*
X177864571Y-140605704D01*
X178176108Y-140687384D01*
X178497595Y-140706718D01*
X178816675Y-140662961D01*
X179121088Y-140557795D01*
X179295044Y-140464814D01*
X179390808Y-140200413D01*
X178435000Y-139244605D01*
X177479192Y-140200413D01*
X165735673Y-140200413D01*
X165804855Y-139929474D01*
X165820804Y-139632457D01*
X165778501Y-139338037D01*
X165704284Y-139127595D01*
X176793282Y-139127595D01*
X176837039Y-139446675D01*
X176942205Y-139751088D01*
X177035186Y-139925044D01*
X177299587Y-140020808D01*
X178255395Y-139065000D01*
X178614605Y-139065000D01*
X179570413Y-140020808D01*
X179834814Y-139925044D01*
X179975704Y-139635429D01*
X180057384Y-139323892D01*
X180076718Y-139002405D01*
X180032961Y-138683325D01*
X179927795Y-138378912D01*
X179834814Y-138204956D01*
X179570413Y-138109192D01*
X178614605Y-139065000D01*
X178255395Y-139065000D01*
X177299587Y-138109192D01*
X177035186Y-138204956D01*
X176894296Y-138494571D01*
X176812616Y-138806108D01*
X176793282Y-139127595D01*
X165704284Y-139127595D01*
X165679572Y-139057526D01*
X165602868Y-138914025D01*
X165351240Y-138833365D01*
X164484605Y-139700000D01*
X164125395Y-139700000D01*
X163258760Y-138833365D01*
X163007132Y-138914025D01*
X162878733Y-139182329D01*
X162805145Y-139470526D01*
X162789196Y-139767543D01*
X162097690Y-139767543D01*
X162125361Y-138653760D01*
X163438365Y-138653760D01*
X164305000Y-139520395D01*
X165171635Y-138653760D01*
X165090975Y-138402132D01*
X164822671Y-138273733D01*
X164534474Y-138200145D01*
X164237457Y-138184196D01*
X163943037Y-138226499D01*
X163662526Y-138325428D01*
X163519025Y-138402132D01*
X163438365Y-138653760D01*
X162125361Y-138653760D01*
X162143352Y-137929587D01*
X177479192Y-137929587D01*
X178435000Y-138885395D01*
X179390808Y-137929587D01*
X179295044Y-137665186D01*
X179005429Y-137524296D01*
X178693892Y-137442616D01*
X178372405Y-137423282D01*
X178053325Y-137467039D01*
X177748912Y-137572205D01*
X177574956Y-137665186D01*
X177479192Y-137929587D01*
X162143352Y-137929587D01*
X162370516Y-128786240D01*
X163438365Y-128786240D01*
X163519025Y-129037868D01*
X163787329Y-129166267D01*
X164075526Y-129239855D01*
X164372543Y-129255804D01*
X164666963Y-129213501D01*
X164947474Y-129114572D01*
X165090975Y-129037868D01*
X165171635Y-128786240D01*
X164305000Y-127919605D01*
X163438365Y-128786240D01*
X162370516Y-128786240D01*
X162394832Y-127807543D01*
X162789196Y-127807543D01*
X162831499Y-128101963D01*
X162930428Y-128382474D01*
X163007132Y-128525975D01*
X163258760Y-128606635D01*
X164125395Y-127740000D01*
X164484605Y-127740000D01*
X165351240Y-128606635D01*
X165602868Y-128525975D01*
X165731267Y-128257671D01*
X165804855Y-127969474D01*
X165820804Y-127672457D01*
X165778501Y-127378037D01*
X165679572Y-127097526D01*
X165602868Y-126954025D01*
X165351240Y-126873365D01*
X164484605Y-127740000D01*
X164125395Y-127740000D01*
X163258760Y-126873365D01*
X163007132Y-126954025D01*
X162878733Y-127222329D01*
X162805145Y-127510526D01*
X162789196Y-127807543D01*
X162394832Y-127807543D01*
X162422503Y-126693760D01*
X163438365Y-126693760D01*
X164305000Y-127560395D01*
X164999982Y-126865413D01*
X177479192Y-126865413D01*
X177574956Y-127129814D01*
X177864571Y-127270704D01*
X178176108Y-127352384D01*
X178497595Y-127371718D01*
X178816675Y-127327961D01*
X179121088Y-127222795D01*
X179295044Y-127129814D01*
X179390808Y-126865413D01*
X178435000Y-125909605D01*
X177479192Y-126865413D01*
X164999982Y-126865413D01*
X165171635Y-126693760D01*
X165090975Y-126442132D01*
X164822671Y-126313733D01*
X164534474Y-126240145D01*
X164237457Y-126224196D01*
X163943037Y-126266499D01*
X163662526Y-126365428D01*
X163519025Y-126442132D01*
X163438365Y-126693760D01*
X162422503Y-126693760D01*
X162444892Y-125792595D01*
X176793282Y-125792595D01*
X176837039Y-126111675D01*
X176942205Y-126416088D01*
X177035186Y-126590044D01*
X177299587Y-126685808D01*
X178255395Y-125730000D01*
X178614605Y-125730000D01*
X179570413Y-126685808D01*
X179834814Y-126590044D01*
X179975704Y-126300429D01*
X180057384Y-125988892D01*
X180076718Y-125667405D01*
X180032961Y-125348325D01*
X179927795Y-125043912D01*
X179834814Y-124869956D01*
X179570413Y-124774192D01*
X178614605Y-125730000D01*
X178255395Y-125730000D01*
X177299587Y-124774192D01*
X177035186Y-124869956D01*
X176894296Y-125159571D01*
X176812616Y-125471108D01*
X176793282Y-125792595D01*
X162444892Y-125792595D01*
X162474656Y-124594587D01*
X177479192Y-124594587D01*
X178435000Y-125550395D01*
X179390808Y-124594587D01*
X179295044Y-124330186D01*
X179005429Y-124189296D01*
X178693892Y-124107616D01*
X178372405Y-124088282D01*
X178053325Y-124132039D01*
X177748912Y-124237205D01*
X177574956Y-124330186D01*
X177479192Y-124594587D01*
X162474656Y-124594587D01*
X162671137Y-116686240D01*
X163438365Y-116686240D01*
X163519025Y-116937868D01*
X163787329Y-117066267D01*
X164075526Y-117139855D01*
X164372543Y-117155804D01*
X164666963Y-117113501D01*
X164947474Y-117014572D01*
X165090975Y-116937868D01*
X165171635Y-116686240D01*
X164305000Y-115819605D01*
X163438365Y-116686240D01*
X162671137Y-116686240D01*
X162695453Y-115707543D01*
X162789196Y-115707543D01*
X162831499Y-116001963D01*
X162930428Y-116282474D01*
X163007132Y-116425975D01*
X163258760Y-116506635D01*
X164125395Y-115640000D01*
X164484605Y-115640000D01*
X165351240Y-116506635D01*
X165602868Y-116425975D01*
X165731267Y-116157671D01*
X165804855Y-115869474D01*
X165820804Y-115572457D01*
X165778501Y-115278037D01*
X165679572Y-114997526D01*
X165602868Y-114854025D01*
X165351240Y-114773365D01*
X164484605Y-115640000D01*
X164125395Y-115640000D01*
X163258760Y-114773365D01*
X163007132Y-114854025D01*
X162878733Y-115122329D01*
X162805145Y-115410526D01*
X162789196Y-115707543D01*
X162695453Y-115707543D01*
X162723124Y-114593760D01*
X163438365Y-114593760D01*
X164305000Y-115460395D01*
X165171635Y-114593760D01*
X165090975Y-114342132D01*
X164822671Y-114213733D01*
X164534474Y-114140145D01*
X164237457Y-114124196D01*
X163943037Y-114166499D01*
X163662526Y-114265428D01*
X163519025Y-114342132D01*
X163438365Y-114593760D01*
X162723124Y-114593760D01*
X162971759Y-104586240D01*
X163438365Y-104586240D01*
X163519025Y-104837868D01*
X163787329Y-104966267D01*
X164075526Y-105039855D01*
X164372543Y-105055804D01*
X164666963Y-105013501D01*
X164947474Y-104914572D01*
X165090975Y-104837868D01*
X165171635Y-104586240D01*
X164305000Y-103719605D01*
X163438365Y-104586240D01*
X162971759Y-104586240D01*
X162979510Y-104274299D01*
X163007132Y-104325975D01*
X163258760Y-104406635D01*
X164125395Y-103540000D01*
X164484605Y-103540000D01*
X165351240Y-104406635D01*
X165602868Y-104325975D01*
X165731267Y-104057671D01*
X165804855Y-103769474D01*
X165820804Y-103472457D01*
X165778501Y-103178037D01*
X165679572Y-102897526D01*
X165602868Y-102754025D01*
X165351240Y-102673365D01*
X164484605Y-103540000D01*
X164125395Y-103540000D01*
X163258760Y-102673365D01*
X163017362Y-102750746D01*
X163023746Y-102493760D01*
X163438365Y-102493760D01*
X164305000Y-103360395D01*
X165171635Y-102493760D01*
X165090975Y-102242132D01*
X164822671Y-102113733D01*
X164534474Y-102040145D01*
X164237457Y-102024196D01*
X163943037Y-102066499D01*
X163662526Y-102165428D01*
X163519025Y-102242132D01*
X163438365Y-102493760D01*
X163023746Y-102493760D01*
X163256603Y-93121240D01*
X164073365Y-93121240D01*
X164154025Y-93372868D01*
X164422329Y-93501267D01*
X164710526Y-93574855D01*
X165007543Y-93590804D01*
X165301963Y-93548501D01*
X165582474Y-93449572D01*
X165725975Y-93372868D01*
X165806635Y-93121240D01*
X164940000Y-92254605D01*
X164073365Y-93121240D01*
X163256603Y-93121240D01*
X163280919Y-92142543D01*
X163424196Y-92142543D01*
X163466499Y-92436963D01*
X163565428Y-92717474D01*
X163642132Y-92860975D01*
X163893760Y-92941635D01*
X164760395Y-92075000D01*
X165119605Y-92075000D01*
X165986240Y-92941635D01*
X166237868Y-92860975D01*
X166366267Y-92592671D01*
X166439855Y-92304474D01*
X166455804Y-92007457D01*
X166413501Y-91713037D01*
X166314572Y-91432526D01*
X166237868Y-91289025D01*
X165986240Y-91208365D01*
X165119605Y-92075000D01*
X164760395Y-92075000D01*
X163893760Y-91208365D01*
X163642132Y-91289025D01*
X163513733Y-91557329D01*
X163440145Y-91845526D01*
X163424196Y-92142543D01*
X163280919Y-92142543D01*
X163308591Y-91028760D01*
X164073365Y-91028760D01*
X164940000Y-91895395D01*
X165806635Y-91028760D01*
X165725975Y-90777132D01*
X165457671Y-90648733D01*
X165169474Y-90575145D01*
X164872457Y-90559196D01*
X164578037Y-90601499D01*
X164297526Y-90700428D01*
X164154025Y-90777132D01*
X164073365Y-91028760D01*
X163308591Y-91028760D01*
X163320157Y-90563251D01*
X174686677Y-84248518D01*
X174707150Y-84234352D01*
X174724467Y-84216465D01*
X174737961Y-84195542D01*
X174747114Y-84172390D01*
X174752000Y-84137500D01*
X174752000Y-78105000D01*
X174749560Y-78080224D01*
X174742333Y-78056399D01*
X174730597Y-78034443D01*
X174714803Y-78015197D01*
X174695557Y-77999403D01*
X174673601Y-77987667D01*
X174649776Y-77980440D01*
X174625000Y-77978000D01*
X163830000Y-77978000D01*
X163805224Y-77980440D01*
X163781399Y-77987667D01*
X163759443Y-77999403D01*
X163740197Y-78015197D01*
X163724403Y-78034443D01*
X163712667Y-78056399D01*
X163705440Y-78080224D01*
X163703000Y-78105000D01*
X163703000Y-80430595D01*
X163680725Y-80376611D01*
X163362140Y-80218743D01*
X163018878Y-80126062D01*
X162664131Y-80102127D01*
X162311530Y-80147861D01*
X161974627Y-80261505D01*
X161759275Y-80376611D01*
X161643003Y-80658398D01*
X162720000Y-81735395D01*
X162734143Y-81721253D01*
X162913748Y-81900858D01*
X162899605Y-81915000D01*
X162913748Y-81929143D01*
X162734143Y-82108748D01*
X162720000Y-82094605D01*
X162705858Y-82108748D01*
X162526253Y-81929143D01*
X162540395Y-81915000D01*
X161463398Y-80838003D01*
X161181611Y-80954275D01*
X161023743Y-81272860D01*
X160931062Y-81616122D01*
X160907127Y-81970869D01*
X160952861Y-82323470D01*
X161066505Y-82660373D01*
X161079668Y-82685000D01*
X160147000Y-82685000D01*
X160147000Y-78105000D01*
X160144560Y-78080224D01*
X160137333Y-78056399D01*
X160125597Y-78034443D01*
X160109803Y-78015197D01*
X160090557Y-77999403D01*
X160068601Y-77987667D01*
X160044776Y-77980440D01*
X160020000Y-77978000D01*
X144780000Y-77978000D01*
X144755224Y-77980440D01*
X144731399Y-77987667D01*
X144709443Y-77999403D01*
X144690197Y-78015197D01*
X144674403Y-78034443D01*
X144662667Y-78056399D01*
X144655440Y-78080224D01*
X144653000Y-78105000D01*
X144653000Y-80430595D01*
X144630725Y-80376611D01*
X144312140Y-80218743D01*
X143968878Y-80126062D01*
X143614131Y-80102127D01*
X143261530Y-80147861D01*
X142924627Y-80261505D01*
X142709275Y-80376611D01*
X142593003Y-80658398D01*
X143670000Y-81735395D01*
X143684143Y-81721253D01*
X143863748Y-81900858D01*
X143849605Y-81915000D01*
X143863748Y-81929143D01*
X143684143Y-82108748D01*
X143670000Y-82094605D01*
X143655858Y-82108748D01*
X143476253Y-81929143D01*
X143490395Y-81915000D01*
X142413398Y-80838003D01*
X142131611Y-80954275D01*
X141973743Y-81272860D01*
X141881062Y-81616122D01*
X141857127Y-81970869D01*
X141902861Y-82323470D01*
X142016505Y-82660373D01*
X142029668Y-82685000D01*
X141097000Y-82685000D01*
X141097000Y-78105000D01*
X141094560Y-78080224D01*
X141087333Y-78056399D01*
X141075597Y-78034443D01*
X141059803Y-78015197D01*
X141040557Y-77999403D01*
X141018601Y-77987667D01*
X140994776Y-77980440D01*
X140970000Y-77978000D01*
X126365000Y-77978000D01*
X126340224Y-77980440D01*
X126316399Y-77987667D01*
X126294443Y-77999403D01*
X126275197Y-78015197D01*
X126259403Y-78034443D01*
X126247667Y-78056399D01*
X126240440Y-78080224D01*
X126238000Y-78105000D01*
X126238000Y-80464476D01*
X126135725Y-80216611D01*
X125817140Y-80058743D01*
X125473878Y-79966062D01*
X125119131Y-79942127D01*
X124766530Y-79987861D01*
X124429627Y-80101505D01*
X124214275Y-80216611D01*
X124098003Y-80498398D01*
X125175000Y-81575395D01*
X125189143Y-81561253D01*
X125368748Y-81740858D01*
X125354605Y-81755000D01*
X125368748Y-81769143D01*
X125189143Y-81948748D01*
X125175000Y-81934605D01*
X125160858Y-81948748D01*
X124981253Y-81769143D01*
X124995395Y-81755000D01*
X123918398Y-80678003D01*
X123636611Y-80794275D01*
X123478743Y-81112860D01*
X123386062Y-81456122D01*
X123362127Y-81810869D01*
X123407861Y-82163470D01*
X123521505Y-82500373D01*
X123620188Y-82685000D01*
X122682000Y-82685000D01*
X122682000Y-78105000D01*
X122679560Y-78080224D01*
X122672333Y-78056399D01*
X122660597Y-78034443D01*
X122644803Y-78015197D01*
X122625557Y-77999403D01*
X122603601Y-77987667D01*
X122579776Y-77980440D01*
X122555000Y-77978000D01*
X107315000Y-77978000D01*
X107290224Y-77980440D01*
X107266399Y-77987667D01*
X107244443Y-77999403D01*
X107225197Y-78015197D01*
X107209403Y-78034443D01*
X107197667Y-78056399D01*
X107190440Y-78080224D01*
X107188000Y-78105000D01*
X107188000Y-80270595D01*
X107165725Y-80216611D01*
X106847140Y-80058743D01*
X106503878Y-79966062D01*
X106149131Y-79942127D01*
X105796530Y-79987861D01*
X105459627Y-80101505D01*
X105244275Y-80216611D01*
X105128003Y-80498398D01*
X106205000Y-81575395D01*
X106219143Y-81561253D01*
X106398748Y-81740858D01*
X106384605Y-81755000D01*
X106398748Y-81769143D01*
X106219143Y-81948748D01*
X106205000Y-81934605D01*
X106190858Y-81948748D01*
X106011253Y-81769143D01*
X106025395Y-81755000D01*
X104948398Y-80678003D01*
X104666611Y-80794275D01*
X104508743Y-81112860D01*
X104416062Y-81456122D01*
X104392127Y-81810869D01*
X104437861Y-82163470D01*
X104548006Y-82490001D01*
X103632000Y-82490001D01*
X103632000Y-78105000D01*
X103629560Y-78080224D01*
X103622333Y-78056399D01*
X103610597Y-78034443D01*
X103594803Y-78015197D01*
X103575557Y-77999403D01*
X103553601Y-77987667D01*
X103529776Y-77980440D01*
X103505000Y-77978000D01*
X87630000Y-77978000D01*
X87605224Y-77980440D01*
X87581399Y-77987667D01*
X87559443Y-77999403D01*
X87540197Y-78015197D01*
X87524403Y-78034443D01*
X87512667Y-78056399D01*
X87505440Y-78080224D01*
X87503000Y-78105000D01*
X87503000Y-81103219D01*
X87423389Y-80954275D01*
X87141602Y-80838003D01*
X86064605Y-81915000D01*
X86078748Y-81929143D01*
X85899143Y-82108748D01*
X85885000Y-82094605D01*
X85870858Y-82108748D01*
X85691253Y-81929143D01*
X85705395Y-81915000D01*
X84628398Y-80838003D01*
X84346611Y-80954275D01*
X84188743Y-81272860D01*
X84096062Y-81616122D01*
X84072127Y-81970869D01*
X84117861Y-82323470D01*
X84231505Y-82660373D01*
X84346611Y-82875725D01*
X84628396Y-82991996D01*
X84562392Y-83058000D01*
X83312000Y-83058000D01*
X83312000Y-80658398D01*
X84808003Y-80658398D01*
X85885000Y-81735395D01*
X86961997Y-80658398D01*
X86845725Y-80376611D01*
X86527140Y-80218743D01*
X86183878Y-80126062D01*
X85829131Y-80102127D01*
X85476530Y-80147861D01*
X85139627Y-80261505D01*
X84924275Y-80376611D01*
X84808003Y-80658398D01*
X83312000Y-80658398D01*
X83312000Y-76485440D01*
X167188550Y-76280195D01*
X167288115Y-76300000D01*
X168151885Y-76300000D01*
X168264688Y-76277562D01*
X180371444Y-76247937D01*
X180243660Y-129470000D01*
M02*
