%TF.GenerationSoftware,KiCad,Pcbnew,(5.1.4-0-10_14)*%
%TF.CreationDate,2020-08-02T00:19:04+02:00*%
%TF.ProjectId,usb-teensy3.6_kicad,7573622d-7465-4656-9e73-79332e365f6b,rev?*%
%TF.SameCoordinates,Original*%
%TF.FileFunction,Legend,Bot*%
%TF.FilePolarity,Positive*%
%FSLAX46Y46*%
G04 Gerber Fmt 4.6, Leading zero omitted, Abs format (unit mm)*
G04 Created by KiCad (PCBNEW (5.1.4-0-10_14)) date 2020-08-02 00:19:04*
%MOMM*%
%LPD*%
G04 APERTURE LIST*
%ADD10C,0.150000*%
%ADD11C,0.100000*%
G04 APERTURE END LIST*
D10*
X132715000Y-132080000D02*
X130175000Y-132080000D01*
X130175000Y-132080000D02*
X130175000Y-129540000D01*
X130175000Y-129540000D02*
X132715000Y-129540000D01*
X132715000Y-129540000D02*
X132715000Y-132080000D01*
X123825000Y-124460000D02*
X123825000Y-128270000D01*
X123825000Y-128270000D02*
X126365000Y-128270000D01*
X126365000Y-128270000D02*
X126365000Y-124460000D01*
X126365000Y-124460000D02*
X123825000Y-124460000D01*
X122555000Y-110490000D02*
X135255000Y-110490000D01*
X135255000Y-123190000D02*
X122555000Y-123190000D01*
X122555000Y-123190000D02*
X122555000Y-110490000D01*
X135255000Y-123190000D02*
X135255000Y-110490000D01*
X123825000Y-88900000D02*
X123825000Y-87630000D01*
X125095000Y-88900000D02*
X125095000Y-87630000D01*
X126365000Y-88900000D02*
X126365000Y-87630000D01*
X127635000Y-88900000D02*
X127635000Y-87630000D01*
X128905000Y-88900000D02*
X128905000Y-87630000D01*
X130175000Y-88900000D02*
X130175000Y-87630000D01*
X131445000Y-88900000D02*
X131445000Y-87630000D01*
X132715000Y-88900000D02*
X132715000Y-87630000D01*
X133985000Y-88900000D02*
X133985000Y-87630000D01*
X122555000Y-87630000D02*
X123825000Y-88900000D01*
X123825000Y-88900000D02*
X133985000Y-88900000D01*
X133985000Y-88900000D02*
X135255000Y-87630000D01*
X135255000Y-87630000D02*
X135255000Y-100330000D01*
X135255000Y-100330000D02*
X122555000Y-100330000D01*
X122555000Y-100330000D02*
X122555000Y-87630000D01*
X137795000Y-87630000D02*
X137795000Y-148590000D01*
X120015000Y-148590000D02*
X120015000Y-87630000D01*
X125095000Y-148590000D02*
X125095000Y-149860000D01*
X125095000Y-149860000D02*
X132715000Y-149860000D01*
X132715000Y-149860000D02*
X132715000Y-148590000D01*
X125095000Y-143510000D02*
X132715000Y-143510000D01*
X132715000Y-143510000D02*
X132715000Y-148590000D01*
X125095000Y-143510000D02*
X125095000Y-148590000D01*
X131445000Y-104140000D02*
X126365000Y-104140000D01*
X126365000Y-104140000D02*
X126365000Y-106680000D01*
X126365000Y-106680000D02*
X131445000Y-106680000D01*
X131445000Y-106680000D02*
X131445000Y-104140000D01*
X137795000Y-87630000D02*
X120015000Y-87630000D01*
X120015000Y-148590000D02*
X137795000Y-148590000D01*
D11*
G36*
X133858000Y-117094000D02*
G01*
X133604000Y-116840000D01*
X133350000Y-117221000D01*
X133604000Y-117475000D01*
X133858000Y-117094000D01*
G37*
X133858000Y-117094000D02*
X133604000Y-116840000D01*
X133350000Y-117221000D01*
X133604000Y-117475000D01*
X133858000Y-117094000D01*
G36*
X132334000Y-117348000D02*
G01*
X132080000Y-117094000D01*
X131826000Y-117475000D01*
X132080000Y-117729000D01*
X132334000Y-117348000D01*
G37*
X132334000Y-117348000D02*
X132080000Y-117094000D01*
X131826000Y-117475000D01*
X132080000Y-117729000D01*
X132334000Y-117348000D01*
G36*
X131572000Y-117475000D02*
G01*
X131318000Y-117221000D01*
X131064000Y-117602000D01*
X131318000Y-117856000D01*
X131572000Y-117475000D01*
G37*
X131572000Y-117475000D02*
X131318000Y-117221000D01*
X131064000Y-117602000D01*
X131318000Y-117856000D01*
X131572000Y-117475000D01*
G36*
X133096000Y-116332000D02*
G01*
X132842000Y-116078000D01*
X132588000Y-116459000D01*
X132842000Y-116713000D01*
X133096000Y-116332000D01*
G37*
X133096000Y-116332000D02*
X132842000Y-116078000D01*
X132588000Y-116459000D01*
X132842000Y-116713000D01*
X133096000Y-116332000D01*
G36*
X131953000Y-116967000D02*
G01*
X131699000Y-116713000D01*
X131445000Y-117094000D01*
X131699000Y-117348000D01*
X131953000Y-116967000D01*
G37*
X131953000Y-116967000D02*
X131699000Y-116713000D01*
X131445000Y-117094000D01*
X131699000Y-117348000D01*
X131953000Y-116967000D01*
G36*
X132334000Y-116459000D02*
G01*
X132080000Y-116205000D01*
X131826000Y-116586000D01*
X132080000Y-116840000D01*
X132334000Y-116459000D01*
G37*
X132334000Y-116459000D02*
X132080000Y-116205000D01*
X131826000Y-116586000D01*
X132080000Y-116840000D01*
X132334000Y-116459000D01*
G36*
X133477000Y-116713000D02*
G01*
X133223000Y-116459000D01*
X132969000Y-116840000D01*
X133223000Y-117094000D01*
X133477000Y-116713000D01*
G37*
X133477000Y-116713000D02*
X133223000Y-116459000D01*
X132969000Y-116840000D01*
X133223000Y-117094000D01*
X133477000Y-116713000D01*
G36*
X132715000Y-116840000D02*
G01*
X132461000Y-116586000D01*
X132207000Y-116967000D01*
X132461000Y-117221000D01*
X132715000Y-116840000D01*
G37*
X132715000Y-116840000D02*
X132461000Y-116586000D01*
X132207000Y-116967000D01*
X132461000Y-117221000D01*
X132715000Y-116840000D01*
D10*
X138517380Y-117348095D02*
X139326904Y-117348095D01*
X139422142Y-117395714D01*
X139469761Y-117443333D01*
X139517380Y-117538571D01*
X139517380Y-117729047D01*
X139469761Y-117824285D01*
X139422142Y-117871904D01*
X139326904Y-117919523D01*
X138517380Y-117919523D01*
X139517380Y-118919523D02*
X139517380Y-118348095D01*
X139517380Y-118633809D02*
X138517380Y-118633809D01*
X138660238Y-118538571D01*
X138755476Y-118443333D01*
X138803095Y-118348095D01*
X128078666Y-112240000D02*
X127378666Y-112240000D01*
X127878666Y-112473333D01*
X127378666Y-112706666D01*
X128078666Y-112706666D01*
X128078666Y-113040000D02*
X127378666Y-113040000D01*
X128078666Y-113440000D02*
X127678666Y-113140000D01*
X127378666Y-113440000D02*
X127778666Y-113040000D01*
X127378666Y-114040000D02*
X127378666Y-113906666D01*
X127412000Y-113840000D01*
X127445333Y-113806666D01*
X127545333Y-113740000D01*
X127678666Y-113706666D01*
X127945333Y-113706666D01*
X128012000Y-113740000D01*
X128045333Y-113773333D01*
X128078666Y-113840000D01*
X128078666Y-113973333D01*
X128045333Y-114040000D01*
X128012000Y-114073333D01*
X127945333Y-114106666D01*
X127778666Y-114106666D01*
X127712000Y-114073333D01*
X127678666Y-114040000D01*
X127645333Y-113973333D01*
X127645333Y-113840000D01*
X127678666Y-113773333D01*
X127712000Y-113740000D01*
X127778666Y-113706666D01*
X127612000Y-114706666D02*
X128078666Y-114706666D01*
X127345333Y-114540000D02*
X127845333Y-114373333D01*
X127845333Y-114806666D01*
X127712000Y-115306666D02*
X127712000Y-115073333D01*
X128078666Y-115073333D02*
X127378666Y-115073333D01*
X127378666Y-115406666D01*
X127378666Y-115606666D02*
X128078666Y-116073333D01*
X127378666Y-116073333D02*
X128078666Y-115606666D01*
X127378666Y-116673333D02*
X127378666Y-116340000D01*
X127712000Y-116306666D01*
X127678666Y-116340000D01*
X127645333Y-116406666D01*
X127645333Y-116573333D01*
X127678666Y-116640000D01*
X127712000Y-116673333D01*
X127778666Y-116706666D01*
X127945333Y-116706666D01*
X128012000Y-116673333D01*
X128045333Y-116640000D01*
X128078666Y-116573333D01*
X128078666Y-116406666D01*
X128045333Y-116340000D01*
X128012000Y-116306666D01*
X128078666Y-117373333D02*
X128078666Y-116973333D01*
X128078666Y-117173333D02*
X127378666Y-117173333D01*
X127478666Y-117106666D01*
X127545333Y-117040000D01*
X127578666Y-116973333D01*
X127445333Y-117640000D02*
X127412000Y-117673333D01*
X127378666Y-117740000D01*
X127378666Y-117906666D01*
X127412000Y-117973333D01*
X127445333Y-118006666D01*
X127512000Y-118040000D01*
X127578666Y-118040000D01*
X127678666Y-118006666D01*
X128078666Y-117606666D01*
X128078666Y-118040000D01*
X127378666Y-118240000D02*
X128078666Y-118473333D01*
X127378666Y-118706666D01*
X128078666Y-118940000D02*
X127378666Y-118940000D01*
X127878666Y-119173333D01*
X127378666Y-119406666D01*
X128078666Y-119406666D01*
X128078666Y-119740000D02*
X127378666Y-119740000D01*
X127378666Y-119906666D01*
X127412000Y-120006666D01*
X127478666Y-120073333D01*
X127545333Y-120106666D01*
X127678666Y-120140000D01*
X127778666Y-120140000D01*
X127912000Y-120106666D01*
X127978666Y-120073333D01*
X128045333Y-120006666D01*
X128078666Y-119906666D01*
X128078666Y-119740000D01*
X128078666Y-120806666D02*
X128078666Y-120406666D01*
X128078666Y-120606666D02*
X127378666Y-120606666D01*
X127478666Y-120540000D01*
X127545333Y-120473333D01*
X127578666Y-120406666D01*
X127445333Y-121073333D02*
X127412000Y-121106666D01*
X127378666Y-121173333D01*
X127378666Y-121340000D01*
X127412000Y-121406666D01*
X127445333Y-121440000D01*
X127512000Y-121473333D01*
X127578666Y-121473333D01*
X127678666Y-121440000D01*
X128078666Y-121040000D01*
X128078666Y-121473333D01*
X129221666Y-111790000D02*
X128521666Y-111790000D01*
X129021666Y-112023333D01*
X128521666Y-112256666D01*
X129221666Y-112256666D01*
X129221666Y-112590000D02*
X128521666Y-112590000D01*
X129221666Y-112990000D02*
X128821666Y-112690000D01*
X128521666Y-112990000D02*
X128921666Y-112590000D01*
X128521666Y-113590000D02*
X128521666Y-113456666D01*
X128555000Y-113390000D01*
X128588333Y-113356666D01*
X128688333Y-113290000D01*
X128821666Y-113256666D01*
X129088333Y-113256666D01*
X129155000Y-113290000D01*
X129188333Y-113323333D01*
X129221666Y-113390000D01*
X129221666Y-113523333D01*
X129188333Y-113590000D01*
X129155000Y-113623333D01*
X129088333Y-113656666D01*
X128921666Y-113656666D01*
X128855000Y-113623333D01*
X128821666Y-113590000D01*
X128788333Y-113523333D01*
X128788333Y-113390000D01*
X128821666Y-113323333D01*
X128855000Y-113290000D01*
X128921666Y-113256666D01*
X128521666Y-114256666D02*
X128521666Y-114123333D01*
X128555000Y-114056666D01*
X128588333Y-114023333D01*
X128688333Y-113956666D01*
X128821666Y-113923333D01*
X129088333Y-113923333D01*
X129155000Y-113956666D01*
X129188333Y-113990000D01*
X129221666Y-114056666D01*
X129221666Y-114190000D01*
X129188333Y-114256666D01*
X129155000Y-114290000D01*
X129088333Y-114323333D01*
X128921666Y-114323333D01*
X128855000Y-114290000D01*
X128821666Y-114256666D01*
X128788333Y-114190000D01*
X128788333Y-114056666D01*
X128821666Y-113990000D01*
X128855000Y-113956666D01*
X128921666Y-113923333D01*
X128855000Y-114856666D02*
X128855000Y-114623333D01*
X129221666Y-114623333D02*
X128521666Y-114623333D01*
X128521666Y-114956666D01*
X128521666Y-115156666D02*
X129221666Y-115623333D01*
X128521666Y-115623333D02*
X129221666Y-115156666D01*
X129221666Y-116256666D02*
X129221666Y-115856666D01*
X129221666Y-116056666D02*
X128521666Y-116056666D01*
X128621666Y-115990000D01*
X128688333Y-115923333D01*
X128721666Y-115856666D01*
X129221666Y-116556666D02*
X128521666Y-116556666D01*
X129021666Y-116790000D01*
X128521666Y-117023333D01*
X129221666Y-117023333D01*
X128855000Y-117590000D02*
X128888333Y-117690000D01*
X128921666Y-117723333D01*
X128988333Y-117756666D01*
X129088333Y-117756666D01*
X129155000Y-117723333D01*
X129188333Y-117690000D01*
X129221666Y-117623333D01*
X129221666Y-117356666D01*
X128521666Y-117356666D01*
X128521666Y-117590000D01*
X128555000Y-117656666D01*
X128588333Y-117690000D01*
X128655000Y-117723333D01*
X128721666Y-117723333D01*
X128788333Y-117690000D01*
X128821666Y-117656666D01*
X128855000Y-117590000D01*
X128855000Y-117356666D01*
X128521666Y-117956666D02*
X129221666Y-118190000D01*
X128521666Y-118423333D01*
X129221666Y-118656666D02*
X128521666Y-118656666D01*
X129021666Y-118890000D01*
X128521666Y-119123333D01*
X129221666Y-119123333D01*
X129221666Y-119456666D02*
X128521666Y-119456666D01*
X128521666Y-119623333D01*
X128555000Y-119723333D01*
X128621666Y-119790000D01*
X128688333Y-119823333D01*
X128821666Y-119856666D01*
X128921666Y-119856666D01*
X129055000Y-119823333D01*
X129121666Y-119790000D01*
X129188333Y-119723333D01*
X129221666Y-119623333D01*
X129221666Y-119456666D01*
X129221666Y-120523333D02*
X129221666Y-120123333D01*
X129221666Y-120323333D02*
X128521666Y-120323333D01*
X128621666Y-120256666D01*
X128688333Y-120190000D01*
X128721666Y-120123333D01*
X128821666Y-120923333D02*
X128788333Y-120856666D01*
X128755000Y-120823333D01*
X128688333Y-120790000D01*
X128655000Y-120790000D01*
X128588333Y-120823333D01*
X128555000Y-120856666D01*
X128521666Y-120923333D01*
X128521666Y-121056666D01*
X128555000Y-121123333D01*
X128588333Y-121156666D01*
X128655000Y-121190000D01*
X128688333Y-121190000D01*
X128755000Y-121156666D01*
X128788333Y-121123333D01*
X128821666Y-121056666D01*
X128821666Y-120923333D01*
X128855000Y-120856666D01*
X128888333Y-120823333D01*
X128955000Y-120790000D01*
X129088333Y-120790000D01*
X129155000Y-120823333D01*
X129188333Y-120856666D01*
X129221666Y-120923333D01*
X129221666Y-121056666D01*
X129188333Y-121123333D01*
X129155000Y-121156666D01*
X129088333Y-121190000D01*
X128955000Y-121190000D01*
X128888333Y-121156666D01*
X128855000Y-121123333D01*
X128821666Y-121056666D01*
X128488333Y-121990000D02*
X129388333Y-121390000D01*
M02*
