%TF.GenerationSoftware,KiCad,Pcbnew,(5.1.4-0-10_14)*%
%TF.CreationDate,2020-08-04T18:42:11+02:00*%
%TF.ProjectId,usb-teensy3.6_kicad,7573622d-7465-4656-9e73-79332e365f6b,rev?*%
%TF.SameCoordinates,Original*%
%TF.FileFunction,Soldermask,Bot*%
%TF.FilePolarity,Negative*%
%FSLAX46Y46*%
G04 Gerber Fmt 4.6, Leading zero omitted, Abs format (unit mm)*
G04 Created by KiCad (PCBNEW (5.1.4-0-10_14)) date 2020-08-04 18:42:11*
%MOMM*%
%LPD*%
G04 APERTURE LIST*
%ADD10C,1.600000*%
%ADD11R,1.600000X1.600000*%
%ADD12C,2.700000*%
%ADD13C,1.750000*%
%ADD14R,1.750000X1.750000*%
%ADD15C,7.500000*%
%ADD16C,2.340000*%
%ADD17C,2.000000*%
G04 APERTURE END LIST*
D10*
X124285000Y-130810000D03*
X124285000Y-133350000D03*
X124285000Y-135890000D03*
X124285000Y-138430000D03*
X124285000Y-140970000D03*
X133985000Y-134620000D03*
X133985000Y-137160000D03*
X133985000Y-139700000D03*
X133985000Y-144780000D03*
X136525000Y-147320000D03*
X136525000Y-144780000D03*
X136525000Y-142240000D03*
X136525000Y-139700000D03*
X136525000Y-137160000D03*
X136525000Y-134620000D03*
X136525000Y-132080000D03*
X136525000Y-129540000D03*
X136525000Y-127000000D03*
X136525000Y-124460000D03*
X136525000Y-121920000D03*
X136525000Y-119380000D03*
X136525000Y-116840000D03*
X136525000Y-114300000D03*
X136525000Y-111760000D03*
X136525000Y-109220000D03*
D11*
X121285000Y-147320000D03*
D10*
X121285000Y-144780000D03*
X121285000Y-142240000D03*
X121285000Y-139700000D03*
X121285000Y-137160000D03*
X121285000Y-134620000D03*
X121285000Y-132080000D03*
X121285000Y-129540000D03*
X121285000Y-127000000D03*
X121285000Y-124460000D03*
X121285000Y-121920000D03*
X121285000Y-119380000D03*
X121285000Y-116840000D03*
X136525000Y-106680000D03*
X136525000Y-104140000D03*
X136525000Y-101600000D03*
X136525000Y-99060000D03*
X136525000Y-96520000D03*
X136525000Y-93980000D03*
X136525000Y-91440000D03*
X136525000Y-88900000D03*
X133985000Y-101600000D03*
X131445000Y-101600000D03*
X128905000Y-101600000D03*
X126365000Y-101600000D03*
X123825000Y-101600000D03*
X121285000Y-88900000D03*
X121285000Y-91440000D03*
X121285000Y-93980000D03*
X121285000Y-96520000D03*
X121285000Y-114300000D03*
X121285000Y-111760000D03*
X121285000Y-109220000D03*
X121285000Y-99060000D03*
X121285000Y-101600000D03*
X121285000Y-104140000D03*
X121285000Y-106680000D03*
D12*
X160155000Y-109490000D03*
X94955000Y-109490000D03*
X158955000Y-101090000D03*
X96155000Y-101090000D03*
D13*
X164305000Y-103540000D03*
X90805000Y-107040000D03*
D14*
X90805000Y-103540000D03*
D12*
X160155000Y-121590000D03*
X94955000Y-121590000D03*
X158955000Y-113190000D03*
X96155000Y-113190000D03*
D13*
X164305000Y-115640000D03*
X90805000Y-119140000D03*
D14*
X90805000Y-115640000D03*
D12*
X160155000Y-133690000D03*
X94955000Y-133690000D03*
X158955000Y-125290000D03*
X96155000Y-125290000D03*
D13*
X164305000Y-127740000D03*
X90805000Y-131240000D03*
D14*
X90805000Y-127740000D03*
D12*
X160155000Y-145650000D03*
X94955000Y-145650000D03*
X158955000Y-137250000D03*
X96155000Y-137250000D03*
D13*
X164305000Y-139700000D03*
X90805000Y-143200000D03*
D14*
X90805000Y-139700000D03*
D15*
X167720000Y-71915000D03*
D16*
X172720000Y-81915000D03*
X167720000Y-81915000D03*
X162720000Y-81915000D03*
D17*
X184935000Y-125730000D03*
X184935000Y-130230000D03*
X178435000Y-125730000D03*
X178435000Y-130230000D03*
X184935000Y-139065000D03*
X184935000Y-143565000D03*
X178435000Y-139065000D03*
X178435000Y-143565000D03*
D15*
X148670000Y-71915000D03*
D16*
X153670000Y-81915000D03*
X148670000Y-81915000D03*
X143670000Y-81915000D03*
D15*
X130175000Y-71755000D03*
D16*
X135175000Y-81755000D03*
X130175000Y-81755000D03*
X125175000Y-81755000D03*
D15*
X111205000Y-71755000D03*
D16*
X116205000Y-81755000D03*
X111205000Y-81755000D03*
X106205000Y-81755000D03*
D15*
X90885000Y-71915000D03*
D16*
X95885000Y-81915000D03*
X90885000Y-81915000D03*
X85885000Y-81915000D03*
M02*
