M48
; DRILL file {KiCad (5.1.4-0-10_14)} date Dienstag, 04. August 2020 um 22:07:52
; FORMAT={-:-/ absolute / inch / decimal}
; #@! TF.CreationDate,2020-08-04T22:07:52+02:00
; #@! TF.GenerationSoftware,Kicad,Pcbnew,(5.1.4-0-10_14)
FMAT,2
INCH
T1C0.0157
T2C0.0433
T3C0.0472
T4C0.0512
T5C0.0669
T6C0.2953
%
G90
G05
T1
X5.45Y-4.1
X5.45Y-4.2
X7.1478Y-5.1272
X7.15Y-5.7
T2
X4.775Y-3.5
X4.775Y-3.6
X4.775Y-3.7
X4.775Y-3.8
X4.775Y-3.9
X4.775Y-4.0
X4.775Y-4.1
X4.775Y-4.2
X4.775Y-4.3
X4.775Y-4.4
X4.775Y-4.5
X4.775Y-4.6
X4.775Y-4.7
X4.775Y-4.8
X4.775Y-4.9
X4.775Y-5.0
X4.775Y-5.1
X4.775Y-5.2
X4.775Y-5.3
X4.775Y-5.4
X4.775Y-5.5
X4.775Y-5.6
X4.775Y-5.7
X4.775Y-5.8
X4.875Y-4.0
X4.8931Y-5.15
X4.8931Y-5.25
X4.8931Y-5.35
X4.8931Y-5.45
X4.8931Y-5.55
X4.975Y-4.0
X5.075Y-4.0
X5.175Y-4.0
X5.275Y-4.0
X5.275Y-5.3
X5.275Y-5.4
X5.275Y-5.5
X5.275Y-5.7
X5.375Y-3.5
X5.375Y-3.6
X5.375Y-3.7
X5.375Y-3.8
X5.375Y-3.9
X5.375Y-4.0
X5.375Y-4.1
X5.375Y-4.2
X5.375Y-4.3
X5.375Y-4.4
X5.375Y-4.5
X5.375Y-4.6
X5.375Y-4.7
X5.375Y-4.8
X5.375Y-4.9
X5.375Y-5.0
X5.375Y-5.1
X5.375Y-5.2
X5.375Y-5.3
X5.375Y-5.4
X5.375Y-5.5
X5.375Y-5.6
X5.375Y-5.7
X5.375Y-5.8
X7.025Y-5.475
X7.025Y-5.6522
X7.2809Y-5.475
X7.2809Y-5.6522
X7.025Y-4.95
X7.025Y-5.1272
X7.2809Y-4.95
X7.2809Y-5.1272
T3
X3.575Y-5.0291
X3.575Y-5.1669
X6.4687Y-5.0291
X3.575Y-4.5528
X3.575Y-4.6906
X6.4687Y-4.5528
X3.575Y-5.5
X3.575Y-5.6378
X6.4687Y-5.5
X3.575Y-4.0764
X3.575Y-4.2142
X6.4687Y-4.0764
X3.6Y-3.625
X3.6Y-3.7628
X6.4937Y-3.625
T4
X5.6563Y-3.225
X5.8531Y-3.225
X4.1813Y-3.2187
X4.3781Y-3.2187
X6.4063Y-3.225
X6.6031Y-3.225
X4.575Y-3.2187
X6.05Y-3.225
X6.8Y-3.225
X3.3813Y-3.225
X4.9281Y-3.2187
X5.125Y-3.2187
X5.3219Y-3.2187
X3.5781Y-3.225
X3.775Y-3.225
T5
X3.7384Y-4.3106
X6.2581Y-3.9799
X6.3053Y-4.3106
X3.7634Y-3.8593
X3.8106Y-3.5285
X6.2831Y-3.5285
X6.3303Y-3.8593
X3.7384Y-5.2634
X3.7856Y-4.9327
X6.2581Y-4.9327
X6.3053Y-5.2634
X3.7384Y-4.787
X3.7856Y-4.4563
X6.2581Y-4.4563
X6.3053Y-4.787
X3.7384Y-5.7343
X3.7856Y-5.4035
X6.2581Y-5.4035
X6.3053Y-5.7343
X3.7856Y-3.9799
T6
X5.8531Y-2.8313
X4.3781Y-2.825
X6.6031Y-2.8313
X5.125Y-2.825
X3.5781Y-2.8313
T0
M30
