<?xml version="1.0" standalone="no"?>
 <!DOCTYPE svg PUBLIC "-//W3C//DTD SVG 1.1//EN" 
 "http://www.w3.org/Graphics/SVG/1.1/DTD/svg11.dtd"> 
<svg xmlns="http://www.w3.org/2000/svg" version="1.1" 
    width="29.7002cm" height="21.0007cm" viewBox="0 0 116930 82680 ">
<title>SVG Picture created as usb-teensy3.6_kicad-F_SilkS.svg date 2020/08/01 04:07:02 </title>
  <desc>Picture generated by PCBNEW </desc>
<g style="fill:#000000; fill-opacity:1;stroke:#000000; stroke-opacity:1;
stroke-linecap:round; stroke-linejoin:round; "
 transform="translate(0 0) scale(1 1)">
</g>
<g style="fill:#000000; fill-opacity:0.0; 
stroke:#000000; stroke-width:-0.000393701; stroke-opacity:1; 
stroke-linecap:round; stroke-linejoin:round;">
</g>
<g style="fill:#000000; fill-opacity:0.0; 
stroke:#000000; stroke-width:39.3701; stroke-opacity:1; 
stroke-linecap:round; stroke-linejoin:round;">
</g>
<g style="fill:#000000; fill-opacity:0.0; 
stroke:#000000; stroke-width:59.0551; stroke-opacity:1; 
stroke-linecap:round; stroke-linejoin:round;">
<rect x="69685.9" y="65357.2" width="42519.7" height="12598.4" rx="0" />
</g>
<g style="fill:#000000; fill-opacity:0.0; 
stroke:#000000; stroke-width:39.3701; stroke-opacity:1; 
stroke-linecap:round; stroke-linejoin:round;">
</g>
<g style="fill:#000000; fill-opacity:0.0; 
stroke:#000000; stroke-width:59.0551; stroke-opacity:1; 
stroke-linecap:round; stroke-linejoin:round;">
<rect x="3937.01" y="3937.01" width="109056" height="74806" rx="0" />
</g>
<g style="fill:#000000; fill-opacity:0.0; 
stroke:#000000; stroke-width:39.3701; stroke-opacity:1; 
stroke-linecap:round; stroke-linejoin:round;">
</g>
<g style="fill:#000000; fill-opacity:0.0; 
stroke:#000000; stroke-width:59.0551; stroke-opacity:1; 
stroke-linecap:round; stroke-linejoin:round;">
<rect x="4724.41" y="4724.41" width="107481" height="73231.2" rx="0" />
</g>
<g style="fill:#000000; fill-opacity:0.0; 
stroke:#000000; stroke-width:39.3701; stroke-opacity:1; 
stroke-linecap:round; stroke-linejoin:round;">
</g>
<g style="fill:#000000; fill-opacity:0.0; 
stroke:#000000; stroke-width:59.0551; stroke-opacity:1; 
stroke-linecap:round; stroke-linejoin:round;">
<path d="M23622 4724
L23622 3937
" />
</g>
<g style="fill:#000000; fill-opacity:0.0; 
stroke:#000000; stroke-width:39.3701; stroke-opacity:1; 
stroke-linecap:round; stroke-linejoin:round;">
</g>
<g style="fill:#000000; fill-opacity:0.0; 
stroke:#000000; stroke-width:59.0551; stroke-opacity:1; 
stroke-linecap:round; stroke-linejoin:round;">
<path d="M43307 4724
L43307 3937
" />
</g>
<g style="fill:#000000; fill-opacity:0.0; 
stroke:#000000; stroke-width:39.3701; stroke-opacity:1; 
stroke-linecap:round; stroke-linejoin:round;">
</g>
<g style="fill:#000000; fill-opacity:0.0; 
stroke:#000000; stroke-width:59.0551; stroke-opacity:1; 
stroke-linecap:round; stroke-linejoin:round;">
<path d="M62992 4724
L62992 3937
" />
</g>
<g style="fill:#000000; fill-opacity:0.0; 
stroke:#000000; stroke-width:39.3701; stroke-opacity:1; 
stroke-linecap:round; stroke-linejoin:round;">
</g>
<g style="fill:#000000; fill-opacity:0.0; 
stroke:#000000; stroke-width:59.0551; stroke-opacity:1; 
stroke-linecap:round; stroke-linejoin:round;">
<path d="M82677 4724
L82677 3937
" />
</g>
<g style="fill:#000000; fill-opacity:0.0; 
stroke:#000000; stroke-width:39.3701; stroke-opacity:1; 
stroke-linecap:round; stroke-linejoin:round;">
</g>
<g style="fill:#000000; fill-opacity:0.0; 
stroke:#000000; stroke-width:59.0551; stroke-opacity:1; 
stroke-linecap:round; stroke-linejoin:round;">
<path d="M102362 4724
L102362 3937
" />
</g>
<g style="fill:#000000; fill-opacity:0.0; 
stroke:#000000; stroke-width:39.3701; stroke-opacity:1; 
stroke-linecap:round; stroke-linejoin:round;">
</g>
<g style="fill:#000000; fill-opacity:0.0; 
stroke:#000000; stroke-width:59.0551; stroke-opacity:1; 
stroke-linecap:round; stroke-linejoin:round;">
<path d="M14199 4562
L13906 4562
" />
<path d="M14052 4562
L14052 4050
L14004 4123
L13955 4172
L13906 4196
" />
</g>
<g style="fill:#000000; fill-opacity:0.0; 
stroke:#000000; stroke-width:39.3701; stroke-opacity:1; 
stroke-linecap:round; stroke-linejoin:round;">
</g>
<g style="fill:#000000; fill-opacity:0.0; 
stroke:#000000; stroke-width:59.0551; stroke-opacity:1; 
stroke-linecap:round; stroke-linejoin:round;">
<path d="M33591 4099
L33615 4074
L33664 4050
L33786 4050
L33835 4074
L33859 4099
L33884 4147
L33884 4196
L33859 4269
L33567 4562
L33884 4562
" />
</g>
<g style="fill:#000000; fill-opacity:0.0; 
stroke:#000000; stroke-width:39.3701; stroke-opacity:1; 
stroke-linecap:round; stroke-linejoin:round;">
</g>
<g style="fill:#000000; fill-opacity:0.0; 
stroke:#000000; stroke-width:59.0551; stroke-opacity:1; 
stroke-linecap:round; stroke-linejoin:round;">
<path d="M53252 4050
L53569 4050
L53398 4245
L53471 4245
L53520 4269
L53544 4294
L53569 4342
L53569 4464
L53544 4513
L53520 4537
L53471 4562
L53325 4562
L53276 4537
L53252 4513
" />
</g>
<g style="fill:#000000; fill-opacity:0.0; 
stroke:#000000; stroke-width:39.3701; stroke-opacity:1; 
stroke-linecap:round; stroke-linejoin:round;">
</g>
<g style="fill:#000000; fill-opacity:0.0; 
stroke:#000000; stroke-width:59.0551; stroke-opacity:1; 
stroke-linecap:round; stroke-linejoin:round;">
<path d="M73205 4221
L73205 4562
" />
<path d="M73083 4026
L72961 4391
L73278 4391
" />
</g>
<g style="fill:#000000; fill-opacity:0.0; 
stroke:#000000; stroke-width:39.3701; stroke-opacity:1; 
stroke-linecap:round; stroke-linejoin:round;">
</g>
<g style="fill:#000000; fill-opacity:0.0; 
stroke:#000000; stroke-width:59.0551; stroke-opacity:1; 
stroke-linecap:round; stroke-linejoin:round;">
<path d="M92914 4050
L92671 4050
L92646 4294
L92671 4269
L92719 4245
L92841 4245
L92890 4269
L92914 4294
L92939 4342
L92939 4464
L92914 4513
L92890 4537
L92841 4562
L92719 4562
L92671 4537
L92646 4513
" />
</g>
<g style="fill:#000000; fill-opacity:0.0; 
stroke:#000000; stroke-width:39.3701; stroke-opacity:1; 
stroke-linecap:round; stroke-linejoin:round;">
</g>
<g style="fill:#000000; fill-opacity:0.0; 
stroke:#000000; stroke-width:59.0551; stroke-opacity:1; 
stroke-linecap:round; stroke-linejoin:round;">
<path d="M112575 4050
L112477 4050
L112429 4074
L112404 4099
L112356 4172
L112331 4269
L112331 4464
L112356 4513
L112380 4537
L112429 4562
L112526 4562
L112575 4537
L112599 4513
L112624 4464
L112624 4342
L112599 4294
L112575 4269
L112526 4245
L112429 4245
L112380 4269
L112356 4294
L112331 4342
" />
</g>
<g style="fill:#000000; fill-opacity:0.0; 
stroke:#000000; stroke-width:39.3701; stroke-opacity:1; 
stroke-linecap:round; stroke-linejoin:round;">
</g>
<g style="fill:#000000; fill-opacity:0.0; 
stroke:#000000; stroke-width:59.0551; stroke-opacity:1; 
stroke-linecap:round; stroke-linejoin:round;">
<path d="M23622 77955
L23622 78742
" />
</g>
<g style="fill:#000000; fill-opacity:0.0; 
stroke:#000000; stroke-width:39.3701; stroke-opacity:1; 
stroke-linecap:round; stroke-linejoin:round;">
</g>
<g style="fill:#000000; fill-opacity:0.0; 
stroke:#000000; stroke-width:59.0551; stroke-opacity:1; 
stroke-linecap:round; stroke-linejoin:round;">
<path d="M43307 77955
L43307 78742
" />
</g>
<g style="fill:#000000; fill-opacity:0.0; 
stroke:#000000; stroke-width:39.3701; stroke-opacity:1; 
stroke-linecap:round; stroke-linejoin:round;">
</g>
<g style="fill:#000000; fill-opacity:0.0; 
stroke:#000000; stroke-width:59.0551; stroke-opacity:1; 
stroke-linecap:round; stroke-linejoin:round;">
<path d="M62992 77955
L62992 78742
" />
</g>
<g style="fill:#000000; fill-opacity:0.0; 
stroke:#000000; stroke-width:39.3701; stroke-opacity:1; 
stroke-linecap:round; stroke-linejoin:round;">
</g>
<g style="fill:#000000; fill-opacity:0.0; 
stroke:#000000; stroke-width:59.0551; stroke-opacity:1; 
stroke-linecap:round; stroke-linejoin:round;">
<path d="M82677 77955
L82677 78742
" />
</g>
<g style="fill:#000000; fill-opacity:0.0; 
stroke:#000000; stroke-width:39.3701; stroke-opacity:1; 
stroke-linecap:round; stroke-linejoin:round;">
</g>
<g style="fill:#000000; fill-opacity:0.0; 
stroke:#000000; stroke-width:59.0551; stroke-opacity:1; 
stroke-linecap:round; stroke-linejoin:round;">
<path d="M102362 77955
L102362 78742
" />
</g>
<g style="fill:#000000; fill-opacity:0.0; 
stroke:#000000; stroke-width:39.3701; stroke-opacity:1; 
stroke-linecap:round; stroke-linejoin:round;">
</g>
<g style="fill:#000000; fill-opacity:0.0; 
stroke:#000000; stroke-width:59.0551; stroke-opacity:1; 
stroke-linecap:round; stroke-linejoin:round;">
<path d="M14199 78580
L13906 78580
" />
<path d="M14052 78580
L14052 78069
L14004 78142
L13955 78190
L13906 78215
" />
</g>
<g style="fill:#000000; fill-opacity:0.0; 
stroke:#000000; stroke-width:39.3701; stroke-opacity:1; 
stroke-linecap:round; stroke-linejoin:round;">
</g>
<g style="fill:#000000; fill-opacity:0.0; 
stroke:#000000; stroke-width:59.0551; stroke-opacity:1; 
stroke-linecap:round; stroke-linejoin:round;">
<path d="M33591 78117
L33615 78093
L33664 78069
L33786 78069
L33835 78093
L33859 78117
L33884 78166
L33884 78215
L33859 78288
L33567 78580
L33884 78580
" />
</g>
<g style="fill:#000000; fill-opacity:0.0; 
stroke:#000000; stroke-width:39.3701; stroke-opacity:1; 
stroke-linecap:round; stroke-linejoin:round;">
</g>
<g style="fill:#000000; fill-opacity:0.0; 
stroke:#000000; stroke-width:59.0551; stroke-opacity:1; 
stroke-linecap:round; stroke-linejoin:round;">
<path d="M53252 78069
L53569 78069
L53398 78263
L53471 78263
L53520 78288
L53544 78312
L53569 78361
L53569 78483
L53544 78532
L53520 78556
L53471 78580
L53325 78580
L53276 78556
L53252 78532
" />
</g>
<g style="fill:#000000; fill-opacity:0.0; 
stroke:#000000; stroke-width:39.3701; stroke-opacity:1; 
stroke-linecap:round; stroke-linejoin:round;">
</g>
<g style="fill:#000000; fill-opacity:0.0; 
stroke:#000000; stroke-width:59.0551; stroke-opacity:1; 
stroke-linecap:round; stroke-linejoin:round;">
<path d="M73205 78239
L73205 78580
" />
<path d="M73083 78044
L72961 78410
L73278 78410
" />
</g>
<g style="fill:#000000; fill-opacity:0.0; 
stroke:#000000; stroke-width:39.3701; stroke-opacity:1; 
stroke-linecap:round; stroke-linejoin:round;">
</g>
<g style="fill:#000000; fill-opacity:0.0; 
stroke:#000000; stroke-width:59.0551; stroke-opacity:1; 
stroke-linecap:round; stroke-linejoin:round;">
<path d="M92914 78069
L92671 78069
L92646 78312
L92671 78288
L92719 78263
L92841 78263
L92890 78288
L92914 78312
L92939 78361
L92939 78483
L92914 78532
L92890 78556
L92841 78580
L92719 78580
L92671 78556
L92646 78532
" />
</g>
<g style="fill:#000000; fill-opacity:0.0; 
stroke:#000000; stroke-width:39.3701; stroke-opacity:1; 
stroke-linecap:round; stroke-linejoin:round;">
</g>
<g style="fill:#000000; fill-opacity:0.0; 
stroke:#000000; stroke-width:59.0551; stroke-opacity:1; 
stroke-linecap:round; stroke-linejoin:round;">
<path d="M112575 78069
L112477 78069
L112429 78093
L112404 78117
L112356 78190
L112331 78288
L112331 78483
L112356 78532
L112380 78556
L112429 78580
L112526 78580
L112575 78556
L112599 78532
L112624 78483
L112624 78361
L112599 78312
L112575 78288
L112526 78263
L112429 78263
L112380 78288
L112356 78312
L112331 78361
" />
</g>
<g style="fill:#000000; fill-opacity:0.0; 
stroke:#000000; stroke-width:39.3701; stroke-opacity:1; 
stroke-linecap:round; stroke-linejoin:round;">
</g>
<g style="fill:#000000; fill-opacity:0.0; 
stroke:#000000; stroke-width:59.0551; stroke-opacity:1; 
stroke-linecap:round; stroke-linejoin:round;">
<path d="M3937 23622
L4724 23622
" />
</g>
<g style="fill:#000000; fill-opacity:0.0; 
stroke:#000000; stroke-width:39.3701; stroke-opacity:1; 
stroke-linecap:round; stroke-linejoin:round;">
</g>
<g style="fill:#000000; fill-opacity:0.0; 
stroke:#000000; stroke-width:59.0551; stroke-opacity:1; 
stroke-linecap:round; stroke-linejoin:round;">
<path d="M3937 43307
L4724 43307
" />
</g>
<g style="fill:#000000; fill-opacity:0.0; 
stroke:#000000; stroke-width:39.3701; stroke-opacity:1; 
stroke-linecap:round; stroke-linejoin:round;">
</g>
<g style="fill:#000000; fill-opacity:0.0; 
stroke:#000000; stroke-width:59.0551; stroke-opacity:1; 
stroke-linecap:round; stroke-linejoin:round;">
<path d="M3937 62992
L4724 62992
" />
</g>
<g style="fill:#000000; fill-opacity:0.0; 
stroke:#000000; stroke-width:39.3701; stroke-opacity:1; 
stroke-linecap:round; stroke-linejoin:round;">
</g>
<g style="fill:#000000; fill-opacity:0.0; 
stroke:#000000; stroke-width:59.0551; stroke-opacity:1; 
stroke-linecap:round; stroke-linejoin:round;">
<path d="M4208 13864
L4452 13864
" />
<path d="M4160 14011
L4330 13499
L4501 14011
" />
</g>
<g style="fill:#000000; fill-opacity:0.0; 
stroke:#000000; stroke-width:39.3701; stroke-opacity:1; 
stroke-linecap:round; stroke-linejoin:round;">
</g>
<g style="fill:#000000; fill-opacity:0.0; 
stroke:#000000; stroke-width:59.0551; stroke-opacity:1; 
stroke-linecap:round; stroke-linejoin:round;">
<path d="M4367 33428
L4440 33452
L4464 33476
L4489 33525
L4489 33598
L4464 33647
L4440 33671
L4391 33696
L4196 33696
L4196 33184
L4367 33184
L4416 33208
L4440 33233
L4464 33281
L4464 33330
L4440 33379
L4416 33403
L4367 33428
L4196 33428
" />
</g>
<g style="fill:#000000; fill-opacity:0.0; 
stroke:#000000; stroke-width:39.3701; stroke-opacity:1; 
stroke-linecap:round; stroke-linejoin:round;">
</g>
<g style="fill:#000000; fill-opacity:0.0; 
stroke:#000000; stroke-width:59.0551; stroke-opacity:1; 
stroke-linecap:round; stroke-linejoin:round;">
<path d="M4489 53332
L4464 53356
L4391 53381
L4342 53381
L4269 53356
L4221 53308
L4196 53259
L4172 53161
L4172 53088
L4196 52991
L4221 52942
L4269 52893
L4342 52869
L4391 52869
L4464 52893
L4489 52918
" />
</g>
<g style="fill:#000000; fill-opacity:0.0; 
stroke:#000000; stroke-width:39.3701; stroke-opacity:1; 
stroke-linecap:round; stroke-linejoin:round;">
</g>
<g style="fill:#000000; fill-opacity:0.0; 
stroke:#000000; stroke-width:59.0551; stroke-opacity:1; 
stroke-linecap:round; stroke-linejoin:round;">
<path d="M4196 73066
L4196 72554
L4318 72554
L4391 72578
L4440 72627
L4464 72676
L4489 72773
L4489 72846
L4464 72944
L4440 72993
L4391 73041
L4318 73066
L4196 73066
" />
</g>
<g style="fill:#000000; fill-opacity:0.0; 
stroke:#000000; stroke-width:39.3701; stroke-opacity:1; 
stroke-linecap:round; stroke-linejoin:round;">
</g>
<g style="fill:#000000; fill-opacity:0.0; 
stroke:#000000; stroke-width:59.0551; stroke-opacity:1; 
stroke-linecap:round; stroke-linejoin:round;">
<path d="M112992 23622
L112205 23622
" />
</g>
<g style="fill:#000000; fill-opacity:0.0; 
stroke:#000000; stroke-width:39.3701; stroke-opacity:1; 
stroke-linecap:round; stroke-linejoin:round;">
</g>
<g style="fill:#000000; fill-opacity:0.0; 
stroke:#000000; stroke-width:59.0551; stroke-opacity:1; 
stroke-linecap:round; stroke-linejoin:round;">
<path d="M112992 43307
L112205 43307
" />
</g>
<g style="fill:#000000; fill-opacity:0.0; 
stroke:#000000; stroke-width:39.3701; stroke-opacity:1; 
stroke-linecap:round; stroke-linejoin:round;">
</g>
<g style="fill:#000000; fill-opacity:0.0; 
stroke:#000000; stroke-width:59.0551; stroke-opacity:1; 
stroke-linecap:round; stroke-linejoin:round;">
<path d="M112992 62992
L112205 62992
" />
</g>
<g style="fill:#000000; fill-opacity:0.0; 
stroke:#000000; stroke-width:39.3701; stroke-opacity:1; 
stroke-linecap:round; stroke-linejoin:round;">
</g>
<g style="fill:#000000; fill-opacity:0.0; 
stroke:#000000; stroke-width:59.0551; stroke-opacity:1; 
stroke-linecap:round; stroke-linejoin:round;">
<path d="M112477 13864
L112721 13864
" />
<path d="M112428 14011
L112599 13499
L112769 14011
" />
</g>
<g style="fill:#000000; fill-opacity:0.0; 
stroke:#000000; stroke-width:39.3701; stroke-opacity:1; 
stroke-linecap:round; stroke-linejoin:round;">
</g>
<g style="fill:#000000; fill-opacity:0.0; 
stroke:#000000; stroke-width:59.0551; stroke-opacity:1; 
stroke-linecap:round; stroke-linejoin:round;">
<path d="M112635 33428
L112708 33452
L112733 33476
L112757 33525
L112757 33598
L112733 33647
L112708 33671
L112660 33696
L112465 33696
L112465 33184
L112635 33184
L112684 33208
L112708 33233
L112733 33281
L112733 33330
L112708 33379
L112684 33403
L112635 33428
L112465 33428
" />
</g>
<g style="fill:#000000; fill-opacity:0.0; 
stroke:#000000; stroke-width:39.3701; stroke-opacity:1; 
stroke-linecap:round; stroke-linejoin:round;">
</g>
<g style="fill:#000000; fill-opacity:0.0; 
stroke:#000000; stroke-width:59.0551; stroke-opacity:1; 
stroke-linecap:round; stroke-linejoin:round;">
<path d="M112757 53332
L112733 53356
L112660 53381
L112611 53381
L112538 53356
L112489 53308
L112465 53259
L112440 53161
L112440 53088
L112465 52991
L112489 52942
L112538 52893
L112611 52869
L112660 52869
L112733 52893
L112757 52918
" />
</g>
<g style="fill:#000000; fill-opacity:0.0; 
stroke:#000000; stroke-width:39.3701; stroke-opacity:1; 
stroke-linecap:round; stroke-linejoin:round;">
</g>
<g style="fill:#000000; fill-opacity:0.0; 
stroke:#000000; stroke-width:59.0551; stroke-opacity:1; 
stroke-linecap:round; stroke-linejoin:round;">
<path d="M112465 73066
L112465 72554
L112587 72554
L112660 72578
L112708 72627
L112733 72676
L112757 72773
L112757 72846
L112733 72944
L112708 72993
L112660 73041
L112587 73066
L112465 73066
" />
</g>
<g style="fill:#000000; fill-opacity:0.0; 
stroke:#000000; stroke-width:39.3701; stroke-opacity:1; 
stroke-linecap:round; stroke-linejoin:round;">
</g>
<g style="fill:#000000; fill-opacity:0.0; 
stroke:#000000; stroke-width:59.0551; stroke-opacity:1; 
stroke-linecap:round; stroke-linejoin:round;">
<path d="M78911 76293
L78911 75703
L79051 75703
L79136 75731
L79192 75787
L79220 75843
L79248 75956
L79248 76040
L79220 76153
L79192 76209
L79136 76265
L79051 76293
L78911 76293
" />
<path d="M79754 76293
L79754 75984
L79726 75928
L79670 75899
L79557 75899
L79501 75928
" />
<path d="M79754 76265
L79698 76293
L79557 76293
L79501 76265
L79473 76209
L79473 76153
L79501 76096
L79557 76068
L79698 76068
L79754 76040
" />
<path d="M79951 75899
L80176 75899
" />
<path d="M80036 75703
L80036 76209
L80064 76265
L80120 76293
L80176 76293
" />
<path d="M80598 76265
L80542 76293
L80429 76293
L80373 76265
L80345 76209
L80345 75984
L80373 75928
L80429 75899
L80542 75899
L80598 75928
L80626 75984
L80626 76040
L80345 76096
" />
<path d="M80879 76237
L80907 76265
L80879 76293
L80851 76265
L80879 76237
L80879 76293
" />
<path d="M80879 75928
L80907 75956
L80879 75984
L80851 75956
L80879 75928
L80879 75984
" />
</g>
<g style="fill:#000000; fill-opacity:0.0; 
stroke:#000000; stroke-width:39.3701; stroke-opacity:1; 
stroke-linecap:round; stroke-linejoin:round;">
</g>
<g style="fill:#000000; fill-opacity:0.0; 
stroke:#000000; stroke-width:59.0551; stroke-opacity:1; 
stroke-linecap:round; stroke-linejoin:round;">
<path d="M69685 76577
L112205 76577
" />
</g>
<g style="fill:#000000; fill-opacity:0.0; 
stroke:#000000; stroke-width:39.3701; stroke-opacity:1; 
stroke-linecap:round; stroke-linejoin:round;">
</g>
<g style="fill:#000000; fill-opacity:0.0; 
stroke:#000000; stroke-width:59.0551; stroke-opacity:1; 
stroke-linecap:round; stroke-linejoin:round;">
<path d="M70249 77395
L70249 76805
" />
<path d="M70587 77395
L70334 77058
" />
<path d="M70587 76805
L70249 77142
" />
<path d="M70840 77395
L70840 77002
" />
<path d="M70840 76805
L70812 76833
L70840 76861
L70868 76833
L70840 76805
L70840 76861
" />
<path d="M71458 77339
L71430 77367
L71346 77395
L71290 77395
L71205 77367
L71149 77311
L71121 77255
L71093 77142
L71093 77058
L71121 76946
L71149 76889
L71205 76833
L71290 76805
L71346 76805
L71430 76833
L71458 76861
" />
<path d="M71965 77395
L71965 77086
L71937 77030
L71880 77002
L71768 77002
L71712 77030
" />
<path d="M71965 77367
L71908 77395
L71768 77395
L71712 77367
L71683 77311
L71683 77255
L71712 77199
L71768 77171
L71908 77171
L71965 77142
" />
<path d="M72499 77395
L72499 76805
" />
<path d="M72499 77367
L72443 77395
L72330 77395
L72274 77367
L72246 77339
L72218 77283
L72218 77114
L72246 77058
L72274 77030
L72330 77002
L72443 77002
L72499 77030
" />
<path d="M73230 77086
L73427 77086
" />
<path d="M73511 77395
L73230 77395
L73230 76805
L73511 76805
" />
<path d="M73764 77339
L73793 77367
L73764 77395
L73736 77367
L73764 77339
L73764 77395
" />
<path d="M74046 77395
L74046 76805
L74186 76805
L74271 76833
L74327 76889
L74355 76946
L74383 77058
L74383 77142
L74355 77255
L74327 77311
L74271 77367
L74186 77395
L74046 77395
" />
<path d="M74636 77339
L74664 77367
L74636 77395
L74608 77367
L74636 77339
L74636 77395
" />
<path d="M74889 77227
L75171 77227
" />
<path d="M74833 77395
L75030 76805
L75227 77395
" />
<path d="M75424 77339
L75452 77367
L75424 77395
L75395 77367
L75424 77339
L75424 77395
" />
<path d="M76605 77395
L76605 76805
" />
<path d="M76661 77171
L76830 77395
" />
<path d="M76830 77002
L76605 77227
" />
<path d="M77083 77395
L77083 77002
" />
<path d="M77083 76805
L77055 76833
L77083 76861
L77111 76833
L77083 76805
L77083 76861
" />
<path d="M77617 77367
L77561 77395
L77448 77395
L77392 77367
L77364 77339
L77336 77283
L77336 77114
L77364 77058
L77392 77030
L77448 77002
L77561 77002
L77617 77030
" />
<path d="M78123 77395
L78123 77086
L78095 77030
L78039 77002
L77926 77002
L77870 77030
" />
<path d="M78123 77367
L78067 77395
L77926 77395
L77870 77367
L77842 77311
L77842 77255
L77870 77199
L77926 77171
L78067 77171
L78123 77142
" />
<path d="M78658 77395
L78658 76805
" />
<path d="M78658 77367
L78601 77395
L78489 77395
L78433 77367
L78404 77339
L78376 77283
L78376 77114
L78404 77058
L78433 77030
L78489 77002
L78601 77002
L78658 77030
" />
<path d="M79557 77620
L79529 77592
L79473 77508
L79445 77452
L79417 77367
L79389 77227
L79389 77114
L79417 76974
L79445 76889
L79473 76833
L79529 76749
L79557 76721
" />
<path d="M80064 76805
L79782 76805
L79754 77086
L79782 77058
L79839 77030
L79979 77030
L80036 77058
L80064 77086
L80092 77142
L80092 77283
L80064 77339
L80036 77367
L79979 77395
L79839 77395
L79782 77367
L79754 77339
" />
<path d="M80345 77339
L80373 77367
L80345 77395
L80317 77367
L80345 77339
L80345 77395
" />
<path d="M80935 77395
L80598 77395
" />
<path d="M80767 77395
L80767 76805
L80710 76889
L80654 76946
L80598 76974
" />
<path d="M81188 77339
L81217 77367
L81188 77395
L81160 77367
L81188 77339
L81188 77395
" />
<path d="M81723 77002
L81723 77395
" />
<path d="M81582 76777
L81442 77199
L81807 77199
" />
<path d="M82032 77171
L82482 77171
" />
<path d="M82876 76805
L82932 76805
L82988 76833
L83016 76861
L83045 76917
L83073 77030
L83073 77171
L83045 77283
L83016 77339
L82988 77367
L82932 77395
L82876 77395
L82820 77367
L82791 77339
L82763 77283
L82735 77171
L82735 77030
L82763 76917
L82791 76861
L82820 76833
L82876 76805
" />
<path d="M83326 77171
L83776 77171
" />
<path d="M84366 77395
L84029 77395
" />
<path d="M84197 77395
L84197 76805
L84141 76889
L84085 76946
L84029 76974
" />
<path d="M84732 76805
L84788 76805
L84844 76833
L84872 76861
L84901 76917
L84929 77030
L84929 77171
L84901 77283
L84872 77339
L84844 77367
L84788 77395
L84732 77395
L84676 77367
L84647 77339
L84619 77283
L84591 77171
L84591 77030
L84619 76917
L84647 76861
L84676 76833
L84732 76805
" />
<path d="M85041 77452
L85491 77452
" />
<path d="M85941 77395
L85604 77395
" />
<path d="M85772 77395
L85772 76805
L85716 76889
L85660 76946
L85604 76974
" />
<path d="M86447 77002
L86447 77395
" />
<path d="M86307 76777
L86166 77199
L86532 77199
" />
<path d="M86700 77620
L86728 77592
L86785 77508
L86813 77452
L86841 77367
L86869 77227
L86869 77114
L86841 76974
L86813 76889
L86785 76833
L86728 76749
L86700 76721
" />
</g>
<g style="fill:#000000; fill-opacity:0.0; 
stroke:#000000; stroke-width:39.3701; stroke-opacity:1; 
stroke-linecap:round; stroke-linejoin:round;">
</g>
<g style="fill:#000000; fill-opacity:0.0; 
stroke:#000000; stroke-width:59.0551; stroke-opacity:1; 
stroke-linecap:round; stroke-linejoin:round;">
<path d="M69685 75396
L112205 75396
" />
</g>
<g style="fill:#000000; fill-opacity:0.0; 
stroke:#000000; stroke-width:39.3701; stroke-opacity:1; 
stroke-linecap:round; stroke-linejoin:round;">
</g>
<g style="fill:#000000; fill-opacity:0.0; 
stroke:#000000; stroke-width:118.11; stroke-opacity:1; 
stroke-linecap:round; stroke-linejoin:round;">
<path d="M104099 76293
L103902 76012
" />
<path d="M103761 76293
L103761 75703
L103986 75703
L104042 75731
L104070 75759
L104099 75815
L104099 75899
L104070 75956
L104042 75984
L103986 76012
L103761 76012
" />
<path d="M104577 76265
L104520 76293
L104408 76293
L104352 76265
L104323 76209
L104323 75984
L104352 75928
L104408 75899
L104520 75899
L104577 75928
L104605 75984
L104605 76040
L104323 76096
" />
<path d="M104802 75899
L104942 76293
L105083 75899
" />
<path d="M105308 76237
L105336 76265
L105308 76293
L105280 76265
L105308 76237
L105308 76293
" />
<path d="M105308 75928
L105336 75956
L105308 75984
L105280 75956
L105308 75928
L105308 75984
" />
</g>
<g style="fill:#000000; fill-opacity:0.0; 
stroke:#000000; stroke-width:39.3701; stroke-opacity:1; 
stroke-linecap:round; stroke-linejoin:round;">
</g>
<g style="fill:#000000; fill-opacity:0.0; 
stroke:#000000; stroke-width:59.0551; stroke-opacity:1; 
stroke-linecap:round; stroke-linejoin:round;">
<path d="M70221 76265
L70305 76293
L70446 76293
L70502 76265
L70530 76237
L70559 76181
L70559 76124
L70530 76068
L70502 76040
L70446 76012
L70334 75984
L70277 75956
L70249 75928
L70221 75871
L70221 75815
L70249 75759
L70277 75731
L70334 75703
L70474 75703
L70559 75731
" />
<path d="M70812 76293
L70812 75899
" />
<path d="M70812 75703
L70784 75731
L70812 75759
L70840 75731
L70812 75703
L70812 75759
" />
<path d="M71037 75899
L71346 75899
L71037 76293
L71346 76293
" />
<path d="M71796 76265
L71740 76293
L71627 76293
L71571 76265
L71543 76209
L71543 75984
L71571 75928
L71627 75899
L71740 75899
L71796 75928
L71824 75984
L71824 76040
L71543 76096
" />
<path d="M72077 76237
L72105 76265
L72077 76293
L72049 76265
L72077 76237
L72077 76293
" />
<path d="M72077 75928
L72105 75956
L72077 75984
L72049 75956
L72077 75928
L72077 75984
" />
<path d="M72780 76124
L73061 76124
" />
<path d="M72724 76293
L72921 75703
L73118 76293
" />
<path d="M73568 75899
L73568 76293
" />
<path d="M73427 75674
L73286 76096
L73652 76096
" />
</g>
<g style="fill:#000000; fill-opacity:0.0; 
stroke:#000000; stroke-width:39.3701; stroke-opacity:1; 
stroke-linecap:round; stroke-linejoin:round;">
</g>
<g style="fill:#000000; fill-opacity:0.0; 
stroke:#000000; stroke-width:59.0551; stroke-opacity:1; 
stroke-linecap:round; stroke-linejoin:round;">
<path d="M103714 77395
L103714 76805
" />
<path d="M104248 77395
L104248 76805
" />
<path d="M104248 77367
L104192 77395
L104079 77395
L104023 77367
L103995 77339
L103967 77283
L103967 77114
L103995 77058
L104023 77030
L104079 77002
L104192 77002
L104248 77030
" />
<path d="M104529 77339
L104557 77367
L104529 77395
L104501 77367
L104529 77339
L104529 77395
" />
<path d="M104529 77030
L104557 77058
L104529 77086
L104501 77058
L104529 77030
L104529 77086
" />
<path d="M105570 77395
L105232 77395
" />
<path d="M105401 77395
L105401 76805
L105345 76889
L105289 76946
L105232 76974
" />
<path d="M106245 76777
L105739 77536
" />
<path d="M106751 77395
L106413 77395
" />
<path d="M106582 77395
L106582 76805
L106526 76889
L106470 76946
L106413 76974
" />
</g>
<g style="fill:#000000; fill-opacity:0.0; 
stroke:#000000; stroke-width:39.3701; stroke-opacity:1; 
stroke-linecap:round; stroke-linejoin:round;">
</g>
<g style="fill:#000000; fill-opacity:0.0; 
stroke:#000000; stroke-width:59.0551; stroke-opacity:1; 
stroke-linecap:round; stroke-linejoin:round;">
<path d="M69685 73821
L112205 73821
" />
</g>
<g style="fill:#000000; fill-opacity:0.0; 
stroke:#000000; stroke-width:39.3701; stroke-opacity:1; 
stroke-linecap:round; stroke-linejoin:round;">
</g>
<g style="fill:#000000; fill-opacity:0.0; 
stroke:#000000; stroke-width:157.48; stroke-opacity:1; 
stroke-linecap:round; stroke-linejoin:round;">
<path d="M70360 74099
L70810 74099
" />
<path d="M70486 74886
L70585 74099
" />
<path d="M70974 74886
L71039 74361
" />
<path d="M71072 74099
L71030 74136
L71063 74174
L71105 74136
L71072 74099
L71063 74174
" />
<path d="M71302 74361
L71602 74361
" />
<path d="M71447 74099
L71363 74774
L71391 74849
L71461 74886
L71536 74886
" />
<path d="M71911 74886
L71841 74849
L71813 74774
L71897 74099
" />
<path d="M72516 74849
L72436 74886
L72286 74886
L72216 74849
L72187 74774
L72225 74474
L72272 74399
L72352 74361
L72501 74361
L72572 74399
L72600 74474
L72591 74549
L72206 74624
" />
<path d="M72895 74811
L72928 74849
L72886 74886
L72853 74849
L72895 74811
L72886 74886
" />
<path d="M72947 74399
L72980 74436
L72937 74474
L72905 74436
L72947 74399
L72937 74474
" />
</g>
<g style="fill:#000000; fill-opacity:0.0; 
stroke:#000000; stroke-width:39.3701; stroke-opacity:1; 
stroke-linecap:round; stroke-linejoin:round;">
</g>
<g style="fill:#000000; fill-opacity:0.0; 
stroke:#000000; stroke-width:59.0551; stroke-opacity:1; 
stroke-linecap:round; stroke-linejoin:round;">
<path d="M70446 73070
L70249 73070
" />
<path d="M70249 73380
L70249 72789
L70530 72789
" />
<path d="M70755 73380
L70755 72986
" />
<path d="M70755 72789
L70727 72817
L70755 72845
L70784 72817
L70755 72789
L70755 72845
" />
<path d="M71121 73380
L71065 73352
L71037 73295
L71037 72789
" />
<path d="M71571 73352
L71515 73380
L71402 73380
L71346 73352
L71318 73295
L71318 73070
L71346 73014
L71402 72986
L71515 72986
L71571 73014
L71599 73070
L71599 73127
L71318 73183
" />
<path d="M71852 73323
L71880 73352
L71852 73380
L71824 73352
L71852 73323
L71852 73380
" />
<path d="M71852 73014
L71880 73042
L71852 73070
L71824 73042
L71852 73014
L71852 73070
" />
<path d="M72836 72986
L72836 73380
" />
<path d="M72583 72986
L72583 73295
L72611 73352
L72668 73380
L72752 73380
L72808 73352
L72836 73323
" />
<path d="M73090 73352
L73146 73380
L73258 73380
L73314 73352
L73343 73295
L73343 73267
L73314 73211
L73258 73183
L73174 73183
L73118 73155
L73090 73099
L73090 73070
L73118 73014
L73174 72986
L73258 72986
L73314 73014
" />
<path d="M73596 73380
L73596 72789
" />
<path d="M73596 73014
L73652 72986
L73764 72986
L73821 73014
L73849 73042
L73877 73099
L73877 73267
L73849 73323
L73821 73352
L73764 73380
L73652 73380
L73596 73352
" />
<path d="M74130 73155
L74580 73155
" />
<path d="M74777 72986
L75002 72986
" />
<path d="M74861 72789
L74861 73295
L74889 73352
L74946 73380
L75002 73380
" />
<path d="M75424 73352
L75367 73380
L75255 73380
L75199 73352
L75171 73295
L75171 73070
L75199 73014
L75255 72986
L75367 72986
L75424 73014
L75452 73070
L75452 73127
L75171 73183
" />
<path d="M75930 73352
L75874 73380
L75761 73380
L75705 73352
L75677 73295
L75677 73070
L75705 73014
L75761 72986
L75874 72986
L75930 73014
L75958 73070
L75958 73127
L75677 73183
" />
<path d="M76211 72986
L76211 73380
" />
<path d="M76211 73042
L76239 73014
L76295 72986
L76380 72986
L76436 73014
L76464 73070
L76464 73380
" />
<path d="M76717 73352
L76773 73380
L76886 73380
L76942 73352
L76970 73295
L76970 73267
L76942 73211
L76886 73183
L76802 73183
L76745 73155
L76717 73099
L76717 73070
L76745 73014
L76802 72986
L76886 72986
L76942 73014
" />
<path d="M77167 72986
L77308 73380
" />
<path d="M77448 72986
L77308 73380
L77251 73520
L77223 73548
L77167 73577
" />
<path d="M77617 72789
L77983 72789
L77786 73014
L77870 73014
L77926 73042
L77955 73070
L77983 73127
L77983 73267
L77955 73323
L77926 73352
L77870 73380
L77701 73380
L77645 73352
L77617 73323
" />
<path d="M78236 73323
L78264 73352
L78236 73380
L78208 73352
L78236 73323
L78236 73380
" />
<path d="M78770 72789
L78658 72789
L78601 72817
L78573 72845
L78517 72930
L78489 73042
L78489 73267
L78517 73323
L78545 73352
L78601 73380
L78714 73380
L78770 73352
L78798 73323
L78826 73267
L78826 73127
L78798 73070
L78770 73042
L78714 73014
L78601 73014
L78545 73042
L78517 73070
L78489 73127
" />
<path d="M78939 73436
L79389 73436
" />
<path d="M79529 73380
L79529 72789
" />
<path d="M79586 73155
L79754 73380
" />
<path d="M79754 72986
L79529 73211
" />
<path d="M80007 73380
L80007 72986
" />
<path d="M80007 72789
L79979 72817
L80007 72845
L80036 72817
L80007 72789
L80007 72845
" />
<path d="M80542 73352
L80485 73380
L80373 73380
L80317 73352
L80289 73323
L80260 73267
L80260 73099
L80289 73042
L80317 73014
L80373 72986
L80485 72986
L80542 73014
" />
<path d="M81048 73380
L81048 73070
L81020 73014
L80964 72986
L80851 72986
L80795 73014
" />
<path d="M81048 73352
L80992 73380
L80851 73380
L80795 73352
L80767 73295
L80767 73239
L80795 73183
L80851 73155
L80992 73155
L81048 73127
" />
<path d="M81582 73380
L81582 72789
" />
<path d="M81582 73352
L81526 73380
L81413 73380
L81357 73352
L81329 73323
L81301 73267
L81301 73099
L81329 73042
L81357 73014
L81413 72986
L81526 72986
L81582 73014
" />
<path d="M81863 73323
L81892 73352
L81863 73380
L81835 73352
L81863 73323
L81863 73380
" />
<path d="M82145 73380
L82145 72789
" />
<path d="M82201 73155
L82370 73380
" />
<path d="M82370 72986
L82145 73211
" />
<path d="M82623 73380
L82623 72986
" />
<path d="M82623 72789
L82595 72817
L82623 72845
L82651 72817
L82623 72789
L82623 72845
" />
<path d="M83157 73352
L83101 73380
L82988 73380
L82932 73352
L82904 73323
L82876 73267
L82876 73099
L82904 73042
L82932 73014
L82988 72986
L83101 72986
L83157 73014
" />
<path d="M83663 73380
L83663 73070
L83635 73014
L83579 72986
L83466 72986
L83410 73014
" />
<path d="M83663 73352
L83607 73380
L83466 73380
L83410 73352
L83382 73295
L83382 73239
L83410 73183
L83466 73155
L83607 73155
L83663 73127
" />
<path d="M84197 73380
L84197 72789
" />
<path d="M84197 73352
L84141 73380
L84029 73380
L83973 73352
L83944 73323
L83916 73267
L83916 73099
L83944 73042
L83973 73014
L84029 72986
L84141 72986
L84197 73014
" />
<path d="M84338 73436
L84788 73436
" />
<path d="M84929 72986
L84929 73577
" />
<path d="M84929 73014
L84985 72986
L85097 72986
L85154 73014
L85182 73042
L85210 73099
L85210 73267
L85182 73323
L85154 73352
L85097 73380
L84985 73380
L84929 73352
" />
<path d="M85716 73352
L85660 73380
L85547 73380
L85491 73352
L85463 73323
L85435 73267
L85435 73099
L85463 73042
L85491 73014
L85547 72986
L85660 72986
L85716 73014
" />
<path d="M85969 73380
L85969 72789
" />
<path d="M85969 73014
L86025 72986
L86138 72986
L86194 73014
L86222 73042
L86250 73099
L86250 73267
L86222 73323
L86194 73352
L86138 73380
L86025 73380
L85969 73352
" />
</g>
<g style="fill:#000000; fill-opacity:0.0; 
stroke:#000000; stroke-width:39.3701; stroke-opacity:1; 
stroke-linecap:round; stroke-linejoin:round;">
</g>
<g style="fill:#000000; fill-opacity:0.0; 
stroke:#000000; stroke-width:59.0551; stroke-opacity:1; 
stroke-linecap:round; stroke-linejoin:round;">
<path d="M69685 71459
L112205 71459
" />
</g>
<g style="fill:#000000; fill-opacity:0.0; 
stroke:#000000; stroke-width:39.3701; stroke-opacity:1; 
stroke-linecap:round; stroke-linejoin:round;">
</g>
<g style="fill:#000000; fill-opacity:0.0; 
stroke:#000000; stroke-width:59.0551; stroke-opacity:1; 
stroke-linecap:round; stroke-linejoin:round;">
<path d="M70221 72289
L70305 72317
L70446 72317
L70502 72289
L70530 72260
L70559 72204
L70559 72148
L70530 72092
L70502 72064
L70446 72036
L70334 72007
L70277 71979
L70249 71951
L70221 71895
L70221 71839
L70249 71782
L70277 71754
L70334 71726
L70474 71726
L70559 71754
" />
<path d="M70812 72317
L70812 71726
" />
<path d="M71065 72317
L71065 72007
L71037 71951
L70980 71923
L70896 71923
L70840 71951
L70812 71979
" />
<path d="M71571 72289
L71515 72317
L71402 72317
L71346 72289
L71318 72232
L71318 72007
L71346 71951
L71402 71923
L71515 71923
L71571 71951
L71599 72007
L71599 72064
L71318 72120
" />
<path d="M72077 72289
L72021 72317
L71908 72317
L71852 72289
L71824 72232
L71824 72007
L71852 71951
L71908 71923
L72021 71923
L72077 71951
L72105 72007
L72105 72064
L71824 72120
" />
<path d="M72274 71923
L72499 71923
" />
<path d="M72358 71726
L72358 72232
L72386 72289
L72443 72317
L72499 72317
" />
<path d="M72696 72260
L72724 72289
L72696 72317
L72668 72289
L72696 72260
L72696 72317
" />
<path d="M72696 71951
L72724 71979
L72696 72007
L72668 71979
L72696 71951
L72696 72007
" />
</g>
<g style="fill:#000000; fill-opacity:0.0; 
stroke:#000000; stroke-width:39.3701; stroke-opacity:1; 
stroke-linecap:round; stroke-linejoin:round;">
</g>
<g style="fill:#000000; fill-opacity:0.0; 
stroke:#000000; stroke-width:59.0551; stroke-opacity:1; 
stroke-linecap:round; stroke-linejoin:round;">
<path d="M77559 75396
L77559 76577
" />
</g>
<g style="fill:#000000; fill-opacity:0.0; 
stroke:#000000; stroke-width:39.3701; stroke-opacity:1; 
stroke-linecap:round; stroke-linejoin:round;">
</g>
<g style="fill:#000000; fill-opacity:0.0; 
stroke:#000000; stroke-width:59.0551; stroke-opacity:1; 
stroke-linecap:round; stroke-linejoin:round;">
<path d="M102756 75396
L102756 77955
" />
</g>
<g style="fill:#000000; fill-opacity:0.0; 
stroke:#000000; stroke-width:59.0551; stroke-opacity:1; 
stroke-linecap:round; stroke-linejoin:round;">
<path d="M59023 15916
L59248 15916
" />
<path d="M59136 15916
L59136 15522
L59173 15578
L59211 15616
L59248 15635
" />
<path d="M58667 15522
L58854 15522
L58873 15710
L58854 15691
L58817 15672
L58723 15672
L58686 15691
L58667 15710
L58648 15747
L58648 15841
L58667 15878
L58686 15897
L58723 15916
L58817 15916
L58854 15897
L58873 15878
" />
<path d="M58311 15653
L58311 15916
" />
<path d="M58404 15503
L58498 15785
L58254 15785
" />
<path d="M58086 15897
L58086 15916
L58104 15953
L58123 15972
" />
<path d="M57898 15916
L57823 15916
L57786 15897
L57767 15878
L57729 15822
L57711 15747
L57711 15597
L57729 15560
L57748 15541
L57786 15522
L57861 15522
L57898 15541
L57917 15560
L57936 15597
L57936 15691
L57917 15728
L57898 15747
L57861 15766
L57786 15766
L57748 15747
L57729 15728
L57711 15691
" />
<path d="M57373 15653
L57373 15916
" />
<path d="M57467 15503
L57561 15785
L57317 15785
" />
<path d="M57092 15522
L57055 15522
L57017 15541
L56998 15560
L56980 15597
L56961 15672
L56961 15766
L56980 15841
L56998 15878
L57017 15897
L57055 15916
L57092 15916
L57130 15897
L57148 15878
L57167 15841
L57186 15766
L57186 15672
L57167 15597
L57148 15560
L57130 15541
L57092 15522
" />
<path d="M56492 15916
L56492 15653
" />
<path d="M56492 15691
L56473 15672
L56436 15653
L56380 15653
L56342 15672
L56323 15710
L56323 15916
" />
<path d="M56323 15710
L56305 15672
L56267 15653
L56211 15653
L56173 15672
L56155 15710
L56155 15916
" />
<path d="M55967 15916
L55967 15653
" />
<path d="M55967 15691
L55948 15672
L55911 15653
L55855 15653
L55817 15672
L55798 15710
L55798 15916
" />
<path d="M55798 15710
L55780 15672
L55742 15653
L55686 15653
L55648 15672
L55630 15710
L55630 15916
" />
<path d="M87930 16250
L26930 16250
" />
<path d="M87930 23250
L87930 16019
" />
<path d="M26930 23250
L26930 16019
" />
<path d="M26930 16250
L27373 16480
" />
<path d="M26930 16250
L27373 16019
" />
<path d="M87930 16250
L87486 16480
" />
<path d="M87930 16250
L87486 16019
" />
<path d="M24740 42843
L24740 42768
L24758 42731
L24777 42712
L24833 42674
L24908 42656
L25058 42656
L25096 42674
L25115 42693
L25133 42731
L25133 42806
L25115 42843
L25096 42862
L25058 42881
L24965 42881
L24927 42862
L24908 42843
L24890 42806
L24890 42731
L24908 42693
L24927 42674
L24965 42656
" />
<path d="M25133 42412
L25133 42374
L25115 42337
L25096 42318
L25058 42299
L24983 42281
L24890 42281
L24815 42299
L24777 42318
L24758 42337
L24740 42374
L24740 42412
L24758 42449
L24777 42468
L24815 42487
L24890 42506
L24983 42506
L25058 42487
L25096 42468
L25115 42449
L25133 42412
" />
<path d="M24758 42093
L24740 42093
L24702 42112
L24683 42131
" />
<path d="M24740 41718
L24740 41943
" />
<path d="M24740 41831
L25133 41831
L25077 41868
L25040 41906
L25021 41943
" />
<path d="M25133 41587
L25133 41324
L24740 41493
" />
<path d="M25133 41100
L25133 41062
L25115 41025
L25096 41006
L25058 40987
L24983 40968
L24890 40968
L24815 40987
L24777 41006
L24758 41025
L24740 41062
L24740 41100
L24758 41137
L24777 41156
L24815 41175
L24890 41193
L24983 41193
L25058 41175
L25096 41156
L25115 41137
L25133 41100
" />
<path d="M24740 40500
L25002 40500
" />
<path d="M24965 40500
L24983 40481
L25002 40443
L25002 40387
L24983 40350
L24946 40331
L24740 40331
" />
<path d="M24946 40331
L24983 40312
L25002 40275
L25002 40218
L24983 40181
L24946 40162
L24740 40162
" />
<path d="M24740 39975
L25002 39975
" />
<path d="M24965 39975
L24983 39956
L25002 39918
L25002 39862
L24983 39825
L24946 39806
L24740 39806
" />
<path d="M24946 39806
L24983 39787
L25002 39750
L25002 39693
L24983 39656
L24946 39637
L24740 39637
" />
<path d="M25430 59000
L25430 23500
" />
<path d="M26930 59000
L25199 59000
" />
<path d="M26930 23500
L25199 23500
" />
<path d="M25430 23500
L25199 23943
" />
<path d="M25430 23500
L25660 23943
" />
<path d="M25430 59000
L25199 58556
" />
<path d="M25430 59000
L25660 58556
" />
</g>
<g style="fill:#000000; fill-opacity:1.0; 
stroke:#000000; stroke-width:3.93701; stroke-opacity:1; 
stroke-linecap:round; stroke-linejoin:round;">
<path style="fill:#000000; fill-opacity:1.0; 
stroke:#000000; stroke-width:3.93701; stroke-opacity:1; 
stroke-linecap:round; stroke-linejoin:round;fill-rule:evenodd;"
d="M 38889,53164
38858,53164
38835,53164
38820,53165
38810,53167
38805,53169
38802,53172
38801,53176
38801,53177
38799,53186
38795,53205
38790,53231
38785,53262
38778,53297
38778,53298
38771,53332
38765,53362
38760,53386
38756,53402
38754,53410
38754,53410
38747,53413
38732,53419
38712,53426
38712,53426
38688,53436
38660,53447
38633,53459
38631,53459
38587,53479
38490,53413
38461,53393
38434,53375
38411,53360
38394,53349
38385,53344
38384,53343
38378,53345
38365,53354
38346,53370
38321,53394
38295,53419
38270,53444
38247,53467
38229,53486
38215,53500
38209,53508
38209,53508
38208,53514
38211,53522
38217,53536
38229,53555
38246,53580
38268,53614
38288,53643
38306,53670
38321,53691
38331,53707
38337,53715
38337,53716
38336,53724
38331,53739
38323,53758
38320,53764
38308,53792
38294,53824
38283,53851
38275,53871
38269,53887
38265,53895
38265,53895
38258,53896
38242,53899
38219,53903
38191,53908
38161,53914
38130,53920
38100,53926
38073,53931
38053,53935
38040,53938
38037,53939
38033,53940
38031,53945
38029,53953
38028,53966
38027,53986
38027,54014
38027,54051
38027,54067
38027,54192
38057,54197
38073,54201
38098,54205
38128,54211
38161,54217
38170,54219
38199,54224
38225,54230
38245,54235
38257,54239
38259,54240
38264,54248
38270,54264
38278,54285
38280,54290
38290,54317
38302,54348
38314,54376
38314,54376
38334,54420
38268,54518
38201,54616
38287,54701
38313,54727
38336,54749
38356,54767
38371,54780
38380,54786
38381,54787
38389,54784
38404,54775
38425,54762
38451,54745
38478,54727
38506,54708
38532,54691
38552,54678
38566,54670
38572,54667
38580,54669
38595,54676
38614,54685
38615,54687
38641,54699
38658,54705
38668,54705
38674,54700
38674,54700
38677,54693
38683,54677
38693,54652
38706,54621
38721,54585
38738,54544
38755,54504
38773,54461
38789,54420
38804,54384
38816,54354
38825,54331
38831,54315
38832,54310
38828,54303
38816,54293
38801,54281
38758,54245
38723,54204
38699,54158
38685,54108
38682,54056
38685,54032
38697,53982
38718,53938
38746,53901
38781,53870
38820,53846
38863,53829
38909,53821
38955,53821
39001,53830
39045,53848
39087,53876
39104,53892
39137,53933
39161,53977
39174,54024
39177,54072
39171,54120
39155,54166
39130,54210
39096,54250
39058,54281
39042,54293
39031,54304
39027,54310
39029,54316
39035,54332
39044,54356
39057,54387
39071,54424
39088,54465
39104,54504
39123,54548
39139,54589
39154,54625
39167,54655
39176,54679
39183,54694
39185,54700
39191,54705
39201,54705
39218,54699
39243,54687
39244,54687
39262,54677
39278,54670
39286,54667
39287,54667
39293,54670
39307,54678
39328,54691
39353,54708
39381,54727
39409,54746
39435,54762
39456,54775
39471,54784
39478,54787
39484,54783
39498,54772
39516,54755
39539,54734
39564,54709
39572,54701
39658,54615
39593,54520
39573,54491
39556,54464
39542,54443
39532,54427
39528,54419
39528,54418
39530,54411
39536,54395
39545,54374
39551,54361
39562,54334
39573,54308
39582,54285
39584,54278
39590,54260
39597,54246
39600,54240
39608,54237
39625,54232
39648,54227
39677,54221
39690,54219
39722,54213
39753,54207
39779,54202
39799,54198
39802,54197
39832,54192
39832,54067
39832,54026
39832,53994
39831,53972
39830,53957
39829,53947
39827,53942
39824,53939
39822,53939
39815,53937
39799,53934
39775,53929
39747,53924
39717,53918
39685,53912
39656,53906
39630,53901
39610,53898
39597,53896
39594,53895
39592,53890
39586,53877
39579,53858
39576,53851
39565,53822
39551,53791
39539,53764
39530,53744
39524,53727
39522,53717
39522,53716
39526,53709
39536,53695
39550,53674
39567,53649
39587,53620
39591,53614
39614,53580
39630,53554
39642,53535
39648,53522
39651,53514
39650,53508
39650,53508
39645,53501
39632,53488
39614,53469
39592,53446
39567,53422
39564,53419
39533,53388
39509,53366
39491,53352
39480,53344
39475,53343
39467,53347
39452,53357
39431,53371
39405,53388
39375,53408
39369,53413
39272,53479
39228,53459
39201,53448
39172,53436
39148,53427
39147,53426
39127,53419
39113,53413
39105,53410
39105,53410
39103,53403
39099,53387
39094,53364
39088,53334
39082,53301
39081,53298
39075,53263
39069,53232
39064,53206
39060,53187
39058,53177
39058,53177
39057,53172
39054,53169
39049,53167
39040,53165
39026,53165
39004,53164
38974,53164
38935,53164
38930,53164
38889,53164
Z" /> 
<path style="fill:#000000; fill-opacity:1.0; 
stroke:#000000; stroke-width:3.93701; stroke-opacity:1; 
stroke-linecap:round; stroke-linejoin:round;fill-rule:evenodd;"
d="M 37688,55024
37665,55039
37654,55052
37646,55076
37645,55095
37647,55120
37705,55146
37734,55159
37752,55170
37762,55179
37764,55188
37758,55197
37752,55204
37735,55214
37716,55215
37699,55207
37686,55191
37684,55185
37673,55167
37661,55160
37644,55153
37644,55178
37645,55194
37651,55209
37664,55225
37665,55227
37679,55241
37691,55249
37706,55252
37718,55254
37740,55254
37756,55250
37766,55245
37781,55233
37792,55220
37799,55204
37802,55182
37804,55152
37804,55136
37803,55118
37769,55118
37768,55128
37767,55130
37761,55127
37747,55122
37728,55113
37724,55112
37700,55099
37687,55089
37684,55079
37691,55069
37696,55064
37717,55055
37736,55057
37753,55068
37764,55087
37767,55102
37769,55118
37803,55118
37803,55101
37800,55074
37795,55055
37786,55041
37773,55030
37768,55026
37742,55017
37715,55016
37688,55024
Z" /> 
<path style="fill:#000000; fill-opacity:1.0; 
stroke:#000000; stroke-width:3.93701; stroke-opacity:1; 
stroke-linecap:round; stroke-linejoin:round;fill-rule:evenodd;"
d="M 37885,55021
37878,55024
37862,55037
37848,55055
37839,55075
37838,55085
37843,55099
37853,55106
37864,55110
37869,55111
37872,55105
37877,55092
37879,55087
37891,55067
37908,55057
37930,55057
37932,55057
37944,55063
37953,55074
37959,55092
37962,55117
37964,55153
37964,55171
37964,55201
37964,55221
37966,55234
37968,55241
37972,55245
37978,55248
37978,55249
37990,55253
37995,55255
37996,55250
37997,55235
37998,55212
37998,55184
37998,55164
37998,55124
37996,55093
37994,55071
37989,55054
37982,55042
37972,55033
37962,55026
37938,55018
37911,55016
37885,55021
Z" /> 
<path style="fill:#000000; fill-opacity:1.0; 
stroke:#000000; stroke-width:3.93701; stroke-opacity:1; 
stroke-linecap:round; stroke-linejoin:round;fill-rule:evenodd;"
d="M 38085,55020
38069,55027
38056,55036
38046,55046
38040,55059
38036,55077
38033,55102
38032,55135
38032,55157
38032,55242
38047,55249
38058,55253
38064,55255
38065,55250
38066,55236
38067,55215
38067,55198
38067,55174
38068,55155
38070,55143
38072,55141
38082,55143
38098,55150
38116,55159
38134,55168
38148,55177
38154,55182
38154,55183
38153,55193
38148,55204
38140,55212
38127,55215
38116,55214
38101,55214
38093,55218
38088,55227
38088,55229
38086,55242
38091,55251
38106,55254
38122,55255
38150,55250
38164,55242
38182,55224
38192,55202
38193,55179
38185,55157
38173,55144
38160,55136
38141,55127
38119,55117
38115,55115
38091,55105
38077,55095
38072,55086
38077,55075
38084,55067
38101,55056
38120,55056
38137,55064
38150,55079
38151,55083
38161,55098
38175,55109
38192,55118
38192,55093
38191,55077
38187,55064
38177,55051
38168,55041
38153,55027
38142,55019
38129,55016
38115,55015
38085,55020
Z" /> 
<path style="fill:#000000; fill-opacity:1.0; 
stroke:#000000; stroke-width:3.93701; stroke-opacity:1; 
stroke-linecap:round; stroke-linejoin:round;fill-rule:evenodd;"
d="M 38229,55021
38228,55036
38227,55059
38227,55087
38227,55118
38227,55220
38245,55238
38257,55249
38268,55254
38283,55254
38289,55253
38308,55251
38323,55249
38327,55249
38339,55250
38357,55252
38364,55253
38381,55254
38393,55251
38404,55242
38409,55238
38427,55220
38427,55028
38412,55022
38400,55017
38392,55015
38390,55021
38389,55036
38387,55059
38386,55089
38385,55114
38384,55212
38370,55214
38358,55213
38352,55209
38350,55200
38349,55183
38347,55159
38347,55129
38347,55114
38347,55028
38329,55021
38316,55017
38309,55015
38309,55015
38308,55021
38307,55036
38307,55058
38306,55087
38305,55114
38304,55212
38270,55212
38268,55122
38266,55033
38250,55024
38237,55018
38230,55015
38230,55015
38229,55021
Z" /> 
<path style="fill:#000000; fill-opacity:1.0; 
stroke:#000000; stroke-width:3.93701; stroke-opacity:1; 
stroke-linecap:round; stroke-linejoin:round;fill-rule:evenodd;"
d="M 38461,55063
38461,55105
38461,55138
38462,55163
38463,55181
38465,55193
38467,55203
38470,55210
38472,55214
38492,55236
38516,55250
38544,55255
38571,55250
38587,55242
38604,55228
38616,55211
38623,55188
38626,55157
38627,55135
38627,55134
38587,55134
38586,55159
38585,55176
38583,55187
38578,55195
38573,55201
38554,55213
38534,55214
38516,55204
38514,55203
38508,55196
38504,55188
38502,55176
38501,55157
38501,55136
38501,55110
38502,55092
38505,55081
38510,55073
38513,55068
38531,55057
38551,55056
38570,55065
38573,55068
38580,55075
38584,55083
38586,55095
38587,55114
38587,55134
38627,55134
38625,55099
38621,55072
38612,55052
38598,55036
38587,55028
38568,55019
38545,55015
38524,55016
38512,55021
38508,55022
38505,55017
38503,55005
38501,54986
38499,54965
38497,54952
38492,54945
38484,54940
38480,54938
38461,54930
38461,55063
Z" /> 
<path style="fill:#000000; fill-opacity:1.0; 
stroke:#000000; stroke-width:3.93701; stroke-opacity:1; 
stroke-linecap:round; stroke-linejoin:round;fill-rule:evenodd;"
d="M 38721,55017
38695,55027
38674,55044
38666,55056
38657,55077
38657,55093
38666,55104
38670,55106
38685,55111
38692,55110
38695,55100
38695,55095
38700,55076
38712,55062
38730,55056
38749,55058
38765,55066
38770,55071
38774,55077
38776,55086
38778,55100
38779,55120
38780,55150
38780,55160
38781,55192
38782,55215
38783,55230
38785,55239
38788,55244
38793,55247
38796,55249
38809,55254
38816,55255
38819,55250
38820,55234
38821,55207
38820,55168
38820,55162
38819,55127
38818,55102
38817,55084
38815,55071
38811,55062
38807,55054
38805,55051
38792,55036
38777,55025
38775,55024
38749,55016
38721,55017
Z" /> 
<path style="fill:#000000; fill-opacity:1.0; 
stroke:#000000; stroke-width:3.93701; stroke-opacity:1; 
stroke-linecap:round; stroke-linejoin:round;fill-rule:evenodd;"
d="M 38914,55018
38891,55026
38891,55026
38877,55036
38867,55048
38860,55064
38855,55085
38852,55113
38851,55151
38851,55156
38848,55237
38866,55246
38878,55252
38886,55255
38886,55255
38888,55250
38889,55236
38889,55215
38890,55198
38890,55170
38891,55153
38895,55145
38904,55144
38921,55151
38945,55162
38963,55172
38972,55180
38975,55189
38975,55189
38971,55205
38957,55213
38937,55214
38922,55214
38915,55218
38910,55228
38907,55241
38911,55249
38913,55250
38927,55254
38947,55255
38967,55252
38982,55247
39002,55230
39013,55206
39015,55187
39013,55171
39007,55157
38995,55145
38975,55133
38946,55119
38944,55119
38917,55106
38901,55096
38894,55087
38896,55078
38905,55068
38908,55065
38926,55056
38945,55056
38962,55065
38973,55082
38974,55086
38984,55102
38997,55110
39015,55118
39015,55098
39010,55068
38993,55042
38984,55033
38965,55021
38940,55016
38914,55018
Z" /> 
<path style="fill:#000000; fill-opacity:1.0; 
stroke:#000000; stroke-width:3.93701; stroke-opacity:1; 
stroke-linecap:round; stroke-linejoin:round;fill-rule:evenodd;"
d="M 39175,54978
39174,55002
39172,55015
39169,55021
39165,55022
39164,55021
39147,55016
39125,55016
39103,55021
39089,55028
39075,55039
39064,55052
39057,55068
39053,55089
39050,55117
39050,55155
39050,55162
39050,55243
39067,55249
39080,55253
39087,55255
39087,55255
39088,55250
39089,55235
39089,55213
39089,55185
39090,55168
39090,55134
39090,55110
39091,55094
39093,55083
39096,55076
39100,55070
39103,55068
39121,55057
39141,55056
39159,55065
39163,55068
39168,55074
39171,55082
39173,55092
39175,55108
39175,55131
39175,55162
39175,55243
39193,55249
39206,55253
39213,55255
39213,55255
39214,55250
39214,55234
39215,55210
39215,55179
39215,55143
39215,55102
39215,54946
39197,54938
39178,54930
39175,54978
Z" /> 
<path style="fill:#000000; fill-opacity:1.0; 
stroke:#000000; stroke-width:3.93701; stroke-opacity:1; 
stroke-linecap:round; stroke-linejoin:round;fill-rule:evenodd;"
d="M 39651,55010
39628,55025
39611,55047
39600,55075
39598,55095
39598,55104
39600,55110
39606,55116
39617,55123
39634,55131
39661,55143
39661,55143
39685,55154
39705,55164
39719,55172
39724,55176
39724,55176
39719,55185
39709,55195
39697,55202
39691,55204
39674,55199
39660,55186
39653,55173
39646,55162
39633,55151
39618,55141
39604,55136
39601,55135
39598,55140
39598,55153
39600,55170
39605,55188
39611,55203
39611,55204
39629,55229
39653,55247
39680,55255
39708,55254
39734,55243
39735,55242
39756,55223
39770,55198
39778,55166
39779,55157
39781,55113
39779,55093
39724,55093
39723,55106
39719,55109
39709,55107
39694,55100
39677,55092
39677,55092
39662,55084
39656,55079
39658,55074
39664,55067
39679,55057
39696,55056
39711,55063
39721,55077
39724,55093
39779,55093
39777,55079
39767,55051
39754,55032
39730,55012
39703,55003
39676,55002
39651,55010
Z" /> 
<path style="fill:#000000; fill-opacity:1.0; 
stroke:#000000; stroke-width:3.93701; stroke-opacity:1; 
stroke-linecap:round; stroke-linejoin:round;fill-rule:evenodd;"
d="M 40094,55006
40068,55020
40048,55043
40041,55057
40035,55079
40033,55107
40032,55137
40034,55167
40039,55192
40045,55210
40047,55214
40071,55237
40099,55251
40130,55255
40161,55249
40169,55245
40186,55233
40201,55218
40202,55216
40208,55206
40212,55196
40214,55183
40215,55163
40215,55136
40215,55130
40215,55128
40158,55128
40158,55154
40156,55171
40154,55182
40149,55190
40147,55192
40133,55202
40120,55202
40106,55193
40098,55184
40094,55171
40091,55150
40091,55148
40090,55110
40095,55082
40105,55064
40120,55056
40125,55055
40139,55057
40149,55065
40155,55080
40158,55103
40158,55128
40215,55128
40215,55100
40214,55079
40212,55065
40209,55055
40204,55045
40202,55044
40183,55020
40162,55007
40136,55002
40127,55001
40094,55006
Z" /> 
<path style="fill:#000000; fill-opacity:1.0; 
stroke:#000000; stroke-width:3.93701; stroke-opacity:1; 
stroke-linecap:round; stroke-linejoin:round;fill-rule:evenodd;"
d="M 39435,55008
39417,55019
39404,55030
39395,55041
39388,55054
39384,55072
39382,55096
39381,55129
39381,55152
39381,55239
39405,55250
39430,55260
39432,55166
39434,55131
39435,55105
39436,55087
39438,55076
39441,55069
39445,55064
39446,55063
39465,55056
39484,55059
39495,55067
39500,55072
39503,55080
39505,55091
39506,55107
39507,55132
39507,55158
39507,55190
39507,55213
39509,55228
39513,55238
39520,55245
39530,55250
39544,55255
39559,55261
39557,55159
39556,55123
39555,55096
39554,55077
39552,55063
39550,55053
39546,55046
39541,55039
39520,55017
39493,55005
39464,55002
39435,55008
Z" /> 
<path style="fill:#000000; fill-opacity:1.0; 
stroke:#000000; stroke-width:3.93701; stroke-opacity:1; 
stroke-linecap:round; stroke-linejoin:round;fill-rule:evenodd;"
d="M 39874,55005
39853,55016
39833,55036
39828,55044
39822,55053
39819,55064
39816,55078
39815,55098
39815,55125
39816,55162
39820,55190
39826,55210
39836,55226
39851,55239
39852,55240
39866,55247
39883,55251
39905,55252
39941,55252
39941,55287
39941,55306
39943,55318
39949,55324
39959,55330
39961,55331
39973,55337
39981,55340
39988,55341
39992,55337
39995,55327
39997,55311
39998,55287
39998,55255
39997,55212
39997,55200
39996,55156
39996,55127
39941,55127
39941,55151
39939,55167
39936,55178
39931,55186
39927,55190
39912,55201
39898,55202
39884,55193
39884,55192
39878,55185
39875,55175
39873,55160
39872,55136
39872,55131
39874,55098
39878,55076
39886,55062
39897,55056
39904,55055
39920,55058
39931,55068
39938,55085
39941,55112
39941,55127
39996,55127
39996,55122
39995,55096
39994,55077
39992,55064
39990,55055
39987,55048
39984,55042
39982,55039
39960,55018
39933,55005
39902,55002
39874,55005
Z" /> 
</g>
<g style="fill:#000000; fill-opacity:1.0; 
stroke:#000000; stroke-width:47.2441; stroke-opacity:1; 
stroke-linecap:round; stroke-linejoin:round;">
</g>
<g style="fill:#000000; fill-opacity:0.0; 
stroke:#000000; stroke-width:47.2441; stroke-opacity:1; 
stroke-linecap:round; stroke-linejoin:round;">
<path d="M54900 41452
L55195 41748
" />
<path d="M55195 41157
L54900 41452
" />
<path d="M54900 40862
L54900 42043
" />
<path d="M78522 41452
L78227 41748
" />
<path d="M78227 41157
L78522 41452
" />
<path d="M78522 40862
L78522 42043
" />
<path d="M78522 41452
L54900 41452
" />
<path d="M81839 40960
L81642 40763
" />
<path d="M81839 40566
L81839 40960
" />
<path d="M81642 40763
L81839 40566
" />
<path d="M51900 41087
L51900 43271
" />
<path d="M51900 39633
L51900 40439
" />
<path d="M81522 42465
L81522 43271
" />
<path d="M81522 41226
L81522 41818
" />
<path d="M81522 39633
L81522 40301
" />
<path d="M53232 43271
L51900 43271
" />
<path d="M78902 43271
L54520 43271
" />
<path d="M81522 43271
L80189 43271
" />
<path d="M53705 39633
L51900 39633
" />
<path d="M78429 39633
L54992 39633
" />
<path d="M81522 39633
L79717 39633
" />
<path d="M54900 46216
L55195 46511
" />
<path d="M55195 45921
L54900 46216
" />
<path d="M54900 45625
L54900 46807
" />
<path d="M78522 46216
L78227 46511
" />
<path d="M78227 45921
L78522 46216
" />
<path d="M78522 45625
L78522 46807
" />
<path d="M78522 46216
L54900 46216
" />
<path d="M81839 45724
L81642 45527
" />
<path d="M81839 45330
L81839 45724
" />
<path d="M81642 45527
L81839 45330
" />
<path d="M51900 45851
L51900 48035
" />
<path d="M51900 44397
L51900 45203
" />
<path d="M81522 47229
L81522 48035
" />
<path d="M81522 45990
L81522 46581
" />
<path d="M81522 44397
L81522 45064
" />
<path d="M53232 48035
L51900 48035
" />
<path d="M78902 48035
L54520 48035
" />
<path d="M81522 48035
L80189 48035
" />
<path d="M53705 44397
L51900 44397
" />
<path d="M78429 44397
L54992 44397
" />
<path d="M81522 44397
L79717 44397
" />
<path d="M54900 50980
L55195 51275
" />
<path d="M55195 50685
L54900 50980
" />
<path d="M54900 50389
L54900 51570
" />
<path d="M78522 50980
L78227 51275
" />
<path d="M78227 50685
L78522 50980
" />
<path d="M78522 50389
L78522 51570
" />
<path d="M78522 50980
L54900 50980
" />
<path d="M81839 50488
L81642 50291
" />
<path d="M81839 50094
L81839 50488
" />
<path d="M81642 50291
L81839 50094
" />
<path d="M51900 50615
L51900 52799
" />
<path d="M51900 49161
L51900 49967
" />
<path d="M81522 51993
L81522 52799
" />
<path d="M81522 50753
L81522 51345
" />
<path d="M81522 49161
L81522 49828
" />
<path d="M53232 52799
L51900 52799
" />
<path d="M78902 52799
L54520 52799
" />
<path d="M81522 52799
L80189 52799
" />
<path d="M53705 49161
L51900 49161
" />
<path d="M78429 49161
L54992 49161
" />
<path d="M81522 49161
L79717 49161
" />
<path d="M54900 55688
L55195 55984
" />
<path d="M55195 55393
L54900 55688
" />
<path d="M54900 55098
L54900 56279
" />
<path d="M78522 55688
L78227 55984
" />
<path d="M78227 55393
L78522 55688
" />
<path d="M78522 55098
L78522 56279
" />
<path d="M78522 55688
L54900 55688
" />
<path d="M81839 55196
L81642 55000
" />
<path d="M81839 54803
L81839 55196
" />
<path d="M81642 55000
L81839 54803
" />
<path d="M51900 55324
L51900 57507
" />
<path d="M51900 53870
L51900 54675
" />
<path d="M81522 56701
L81522 57507
" />
<path d="M81522 55462
L81522 56054
" />
<path d="M81522 53870
L81522 54537
" />
<path d="M53232 57507
L51900 57507
" />
<path d="M78902 57507
L54520 57507
" />
<path d="M81522 57507
L80189 57507
" />
<path d="M53705 53870
L51900 53870
" />
<path d="M78429 53870
L54992 53870
" />
<path d="M81522 53870
L79717 53870
" />
<path d="M54650 36938
L54945 37234
" />
<path d="M54945 36643
L54650 36938
" />
<path d="M54650 36348
L54650 37529
" />
<path d="M78272 36938
L77977 37234
" />
<path d="M77977 36643
L78272 36938
" />
<path d="M78272 36348
L78272 37529
" />
<path d="M78272 36938
L54650 36938
" />
<path d="M81589 36446
L81392 36250
" />
<path d="M81589 36053
L81589 36446
" />
<path d="M81392 36250
L81589 36053
" />
<path d="M51650 36574
L51650 38757
" />
<path d="M51650 35120
L51650 35925
" />
<path d="M81272 37951
L81272 38757
" />
<path d="M81272 36712
L81272 37304
" />
<path d="M81272 35120
L81272 35787
" />
<path d="M52982 38757
L51650 38757
" />
<path d="M78652 38757
L54270 38757
" />
<path d="M81272 38757
L79939 38757
" />
<path d="M53455 35120
L51650 35120
" />
<path d="M78179 35120
L54742 35120
" />
<path d="M81272 35120
L79467 35120
" />
<path d="M47701 32494
L47701 28312
" />
<path d="M48368 32494
L47701 32494
" />
<path d="M50337 32494
L49491 32494
" />
<path d="M52305 32494
L51459 32494
" />
<path d="M54095 32494
L53428 32494
" />
<path d="M54095 32494
L54095 28312
" />
<circle cx="50898.5" cy="28313" r="3196.85" /> 
<path d="M44022 50681
L44022 50090
" />
<path d="M44514 49106
L46286 49106
" />
<path d="M46778 50090
L46778 50681
" />
<path d="M46286 51665
L44514 51665
" />
<path d="M44022 55931
L44022 55340
" />
<path d="M44514 54356
L46286 54356
" />
<path d="M46778 55340
L46778 55931
" />
<path d="M46286 56915
L44514 56915
" />
<path d="M55201 32494
L55201 28312
" />
<path d="M55868 32494
L55201 32494
" />
<path d="M57837 32494
L56991 32494
" />
<path d="M59805 32494
L58959 32494
" />
<path d="M61595 32494
L60928 32494
" />
<path d="M61595 32494
L61595 28312
" />
<circle cx="58398.5" cy="28313" r="3196.85" /> 
<path d="M62483 32431
L62483 28250
" />
<path d="M63150 32431
L62483 32431
" />
<path d="M65118 32431
L64272 32431
" />
<path d="M67087 32431
L66241 32431
" />
<path d="M68876 32431
L68209 32431
" />
<path d="M68876 32431
L68876 28250
" />
<circle cx="65680" cy="28250" r="3196.85" /> 
<path d="M69951 32431
L69951 28250
" />
<path d="M70618 32431
L69951 32431
" />
<path d="M72587 32431
L71741 32431
" />
<path d="M74555 32431
L73709 32431
" />
<path d="M76345 32431
L75678 32431
" />
<path d="M76345 32431
L76345 28250
" />
<circle cx="73148.5" cy="28250" r="3196.85" /> 
<path d="M77951 32494
L77951 28312
" />
<path d="M78618 32494
L77951 32494
" />
<path d="M80587 32494
L79741 32494
" />
<path d="M82555 32494
L81709 32494
" />
<path d="M84345 32494
L83678 32494
" />
<path d="M84345 32494
L84345 28312
" />
<circle cx="81148.5" cy="28313" r="3196.85" /> 
</g>
<g style="fill:#000000; fill-opacity:0.0; 
stroke:#000000; stroke-width:59.0551; stroke-opacity:1; 
stroke-linecap:round; stroke-linejoin:round;">
<path d="M80914 40178
L81045 39990
" />
<path d="M81139 40178
L81139 39784
L80989 39784
L80951 39803
L80933 39821
L80914 39859
L80914 39915
L80933 39953
L80951 39971
L80989 39990
L81139 39990
" />
<path d="M80801 39784
L80670 40178
L80539 39784
" />
<path d="M80426 39821
L80408 39803
L80370 39784
L80276 39784
L80239 39803
L80220 39821
L80201 39859
L80201 39896
L80220 39953
L80445 40178
L80201 40178
" />
<path d="M80914 44928
L81045 44740
" />
<path d="M81139 44928
L81139 44534
L80989 44534
L80951 44553
L80933 44571
L80914 44609
L80914 44665
L80933 44703
L80951 44721
L80989 44740
L81139 44740
" />
<path d="M80801 44534
L80670 44928
L80539 44534
" />
<path d="M80445 44534
L80201 44534
L80333 44684
L80276 44684
L80239 44703
L80220 44721
L80201 44759
L80201 44853
L80220 44890
L80239 44909
L80276 44928
L80389 44928
L80426 44909
L80445 44890
" />
<path d="M80914 49678
L81045 49490
" />
<path d="M81139 49678
L81139 49284
L80989 49284
L80951 49303
L80933 49321
L80914 49359
L80914 49415
L80933 49453
L80951 49471
L80989 49490
L81139 49490
" />
<path d="M80801 49284
L80670 49678
L80539 49284
" />
<path d="M80239 49415
L80239 49678
" />
<path d="M80333 49265
L80426 49546
L80183 49546
" />
<path d="M80664 54428
L80795 54240
" />
<path d="M80889 54428
L80889 54034
L80739 54034
L80701 54053
L80683 54071
L80664 54109
L80664 54165
L80683 54203
L80701 54221
L80739 54240
L80889 54240
" />
<path d="M80551 54034
L80420 54428
L80289 54034
" />
<path d="M79970 54034
L80158 54034
L80176 54221
L80158 54203
L80120 54184
L80026 54184
L79989 54203
L79970 54221
L79951 54259
L79951 54353
L79970 54390
L79989 54409
L80026 54428
L80120 54428
L80158 54409
L80176 54390
" />
<path d="M80664 35678
L80795 35490
" />
<path d="M80889 35678
L80889 35284
L80739 35284
L80701 35303
L80683 35321
L80664 35359
L80664 35415
L80683 35453
L80701 35471
L80739 35490
L80889 35490
" />
<path d="M80551 35284
L80420 35678
L80289 35284
" />
<path d="M79951 35678
L80176 35678
" />
<path d="M80064 35678
L80064 35284
L80101 35340
L80139 35378
L80176 35396
" />
<path d="M48851 25678
L48983 25490
" />
<path d="M49076 25678
L49076 25284
L48926 25284
L48889 25303
L48870 25321
L48851 25359
L48851 25415
L48870 25453
L48889 25471
L48926 25490
L49076 25490
" />
<path d="M48739 25284
L48608 25678
L48476 25284
" />
<path d="M48139 25678
L48364 25678
" />
<path d="M48251 25678
L48251 25284
L48289 25340
L48326 25378
L48364 25396
" />
<path d="M47895 25284
L47858 25284
L47820 25303
L47801 25321
L47783 25359
L47764 25434
L47764 25528
L47783 25603
L47801 25640
L47820 25659
L47858 25678
L47895 25678
L47933 25659
L47951 25640
L47970 25603
L47989 25528
L47989 25434
L47970 25359
L47951 25321
L47933 25303
L47895 25284
" />
<path d="M45925 48871
L45869 48890
L45775 48890
L45737 48871
L45719 48853
L45700 48815
L45700 48778
L45719 48740
L45737 48721
L45775 48703
L45850 48684
L45887 48665
L45906 48646
L45925 48609
L45925 48571
L45906 48534
L45887 48515
L45850 48497
L45756 48497
L45700 48515
" />
<path d="M45569 48497
L45475 48890
L45400 48609
L45325 48890
L45231 48497
" />
<path d="M45100 48534
L45081 48515
L45044 48497
L44950 48497
L44913 48515
L44894 48534
L44875 48571
L44875 48609
L44894 48665
L45119 48890
L44875 48890
" />
<path d="M45925 54121
L45869 54140
L45775 54140
L45737 54121
L45719 54103
L45700 54065
L45700 54028
L45719 53990
L45737 53971
L45775 53953
L45850 53934
L45887 53915
L45906 53896
L45925 53859
L45925 53821
L45906 53784
L45887 53765
L45850 53747
L45756 53747
L45700 53765
" />
<path d="M45569 53747
L45475 54140
L45400 53859
L45325 54140
L45231 53747
" />
<path d="M44875 54140
L45100 54140
" />
<path d="M44988 54140
L44988 53747
L45025 53803
L45063 53840
L45100 53859
" />
<path d="M56164 25678
L56295 25490
" />
<path d="M56389 25678
L56389 25284
L56239 25284
L56201 25303
L56183 25321
L56164 25359
L56164 25415
L56183 25453
L56201 25471
L56239 25490
L56389 25490
" />
<path d="M56051 25284
L55920 25678
L55789 25284
" />
<path d="M55639 25678
L55564 25678
L55526 25659
L55508 25640
L55470 25584
L55451 25509
L55451 25359
L55470 25321
L55489 25303
L55526 25284
L55601 25284
L55639 25303
L55658 25321
L55676 25359
L55676 25453
L55658 25490
L55639 25509
L55601 25528
L55526 25528
L55489 25509
L55470 25490
L55451 25453
" />
<path d="M63414 25678
L63545 25490
" />
<path d="M63639 25678
L63639 25284
L63489 25284
L63451 25303
L63433 25321
L63414 25359
L63414 25415
L63433 25453
L63451 25471
L63489 25490
L63639 25490
" />
<path d="M63301 25284
L63170 25678
L63039 25284
" />
<path d="M62851 25453
L62889 25434
L62908 25415
L62926 25378
L62926 25359
L62908 25321
L62889 25303
L62851 25284
L62776 25284
L62739 25303
L62720 25321
L62701 25359
L62701 25378
L62720 25415
L62739 25434
L62776 25453
L62851 25453
L62889 25471
L62908 25490
L62926 25528
L62926 25603
L62908 25640
L62889 25659
L62851 25678
L62776 25678
L62739 25659
L62720 25640
L62701 25603
L62701 25528
L62720 25490
L62739 25471
L62776 25453
" />
<path d="M70664 25678
L70795 25490
" />
<path d="M70889 25678
L70889 25284
L70739 25284
L70701 25303
L70683 25321
L70664 25359
L70664 25415
L70683 25453
L70701 25471
L70739 25490
L70889 25490
" />
<path d="M70551 25284
L70420 25678
L70289 25284
" />
<path d="M70195 25284
L69933 25284
L70101 25678
" />
<path d="M78664 25678
L78795 25490
" />
<path d="M78889 25678
L78889 25284
L78739 25284
L78701 25303
L78683 25321
L78664 25359
L78664 25415
L78683 25453
L78701 25471
L78739 25490
L78889 25490
" />
<path d="M78551 25284
L78420 25678
L78289 25284
" />
<path d="M77989 25284
L78064 25284
L78101 25303
L78120 25321
L78158 25378
L78176 25453
L78176 25603
L78158 25640
L78139 25659
L78101 25678
L78026 25678
L77989 25659
L77970 25640
L77951 25603
L77951 25509
L77970 25471
L77989 25453
L78026 25434
L78101 25434
L78139 25453
L78158 25471
L78176 25509
" />
<g >
</g>
</g>
<g style="fill:#000000; fill-opacity:0.0; 
stroke:#000000; stroke-width:59.0551; stroke-opacity:1; 
stroke-linecap:round; stroke-linejoin:round;">
</g>
<g style="fill:#000000; fill-opacity:0.0; 
stroke:#000000; stroke-width:39.3701; stroke-opacity:1; 
stroke-linecap:round; stroke-linejoin:round;">
<path d="M87930 59000
L87930 23500
" />
<path d="M26930 59000
L87930 59000
" />
<path d="M26930 23500
L26930 59000
" />
<path d="M87930 23500
L26930 23500
" />
<g >
</g>
<g >
</g>
<g >
</g>
<g >
</g>
<g >
</g>
<g >
</g>
<g >
</g>
<g >
</g>
<g >
</g>
<g >
</g>
<g >
</g>
<g >
</g>
<g >
</g>
<g >
</g>
<g >
</g>
<g >
</g>
<g >
</g>
<g >
</g>
<g >
</g>
<g >
</g>
</g> 
</svg>
