<?xml version="1.0" standalone="no"?>
 <!DOCTYPE svg PUBLIC "-//W3C//DTD SVG 1.1//EN" 
 "http://www.w3.org/Graphics/SVG/1.1/DTD/svg11.dtd"> 
<svg xmlns="http://www.w3.org/2000/svg" version="1.1" 
    width="29.7002cm" height="21.0007cm" viewBox="0 0 116930 82680 ">
<title>SVG Picture created as usb-teensy3.6_kicad-F_Fab.svg date 2020/08/01 04:07:02 </title>
  <desc>Picture generated by PCBNEW </desc>
<g style="fill:#000000; fill-opacity:1;stroke:#000000; stroke-opacity:1;
stroke-linecap:round; stroke-linejoin:round; "
 transform="translate(0 0) scale(1 1)">
</g>
<g style="fill:#000000; fill-opacity:0.0; 
stroke:#000000; stroke-width:-0.000393701; stroke-opacity:1; 
stroke-linecap:round; stroke-linejoin:round;">
</g>
<g style="fill:#000000; fill-opacity:0.0; 
stroke:#000000; stroke-width:39.3701; stroke-opacity:1; 
stroke-linecap:round; stroke-linejoin:round;">
</g>
<g style="fill:#000000; fill-opacity:0.0; 
stroke:#000000; stroke-width:59.0551; stroke-opacity:1; 
stroke-linecap:round; stroke-linejoin:round;">
<rect x="69685.9" y="65357.2" width="42519.7" height="12598.4" rx="0" />
</g>
<g style="fill:#000000; fill-opacity:0.0; 
stroke:#000000; stroke-width:39.3701; stroke-opacity:1; 
stroke-linecap:round; stroke-linejoin:round;">
</g>
<g style="fill:#000000; fill-opacity:0.0; 
stroke:#000000; stroke-width:59.0551; stroke-opacity:1; 
stroke-linecap:round; stroke-linejoin:round;">
<rect x="3937.01" y="3937.01" width="109056" height="74806" rx="0" />
</g>
<g style="fill:#000000; fill-opacity:0.0; 
stroke:#000000; stroke-width:39.3701; stroke-opacity:1; 
stroke-linecap:round; stroke-linejoin:round;">
</g>
<g style="fill:#000000; fill-opacity:0.0; 
stroke:#000000; stroke-width:59.0551; stroke-opacity:1; 
stroke-linecap:round; stroke-linejoin:round;">
<rect x="4724.41" y="4724.41" width="107481" height="73231.2" rx="0" />
</g>
<g style="fill:#000000; fill-opacity:0.0; 
stroke:#000000; stroke-width:39.3701; stroke-opacity:1; 
stroke-linecap:round; stroke-linejoin:round;">
</g>
<g style="fill:#000000; fill-opacity:0.0; 
stroke:#000000; stroke-width:59.0551; stroke-opacity:1; 
stroke-linecap:round; stroke-linejoin:round;">
<path d="M23622 4724
L23622 3937
" />
</g>
<g style="fill:#000000; fill-opacity:0.0; 
stroke:#000000; stroke-width:39.3701; stroke-opacity:1; 
stroke-linecap:round; stroke-linejoin:round;">
</g>
<g style="fill:#000000; fill-opacity:0.0; 
stroke:#000000; stroke-width:59.0551; stroke-opacity:1; 
stroke-linecap:round; stroke-linejoin:round;">
<path d="M43307 4724
L43307 3937
" />
</g>
<g style="fill:#000000; fill-opacity:0.0; 
stroke:#000000; stroke-width:39.3701; stroke-opacity:1; 
stroke-linecap:round; stroke-linejoin:round;">
</g>
<g style="fill:#000000; fill-opacity:0.0; 
stroke:#000000; stroke-width:59.0551; stroke-opacity:1; 
stroke-linecap:round; stroke-linejoin:round;">
<path d="M62992 4724
L62992 3937
" />
</g>
<g style="fill:#000000; fill-opacity:0.0; 
stroke:#000000; stroke-width:39.3701; stroke-opacity:1; 
stroke-linecap:round; stroke-linejoin:round;">
</g>
<g style="fill:#000000; fill-opacity:0.0; 
stroke:#000000; stroke-width:59.0551; stroke-opacity:1; 
stroke-linecap:round; stroke-linejoin:round;">
<path d="M82677 4724
L82677 3937
" />
</g>
<g style="fill:#000000; fill-opacity:0.0; 
stroke:#000000; stroke-width:39.3701; stroke-opacity:1; 
stroke-linecap:round; stroke-linejoin:round;">
</g>
<g style="fill:#000000; fill-opacity:0.0; 
stroke:#000000; stroke-width:59.0551; stroke-opacity:1; 
stroke-linecap:round; stroke-linejoin:round;">
<path d="M102362 4724
L102362 3937
" />
</g>
<g style="fill:#000000; fill-opacity:0.0; 
stroke:#000000; stroke-width:39.3701; stroke-opacity:1; 
stroke-linecap:round; stroke-linejoin:round;">
</g>
<g style="fill:#000000; fill-opacity:0.0; 
stroke:#000000; stroke-width:59.0551; stroke-opacity:1; 
stroke-linecap:round; stroke-linejoin:round;">
<path d="M14199 4562
L13906 4562
" />
<path d="M14052 4562
L14052 4050
L14004 4123
L13955 4172
L13906 4196
" />
</g>
<g style="fill:#000000; fill-opacity:0.0; 
stroke:#000000; stroke-width:39.3701; stroke-opacity:1; 
stroke-linecap:round; stroke-linejoin:round;">
</g>
<g style="fill:#000000; fill-opacity:0.0; 
stroke:#000000; stroke-width:59.0551; stroke-opacity:1; 
stroke-linecap:round; stroke-linejoin:round;">
<path d="M33591 4099
L33615 4074
L33664 4050
L33786 4050
L33835 4074
L33859 4099
L33884 4147
L33884 4196
L33859 4269
L33567 4562
L33884 4562
" />
</g>
<g style="fill:#000000; fill-opacity:0.0; 
stroke:#000000; stroke-width:39.3701; stroke-opacity:1; 
stroke-linecap:round; stroke-linejoin:round;">
</g>
<g style="fill:#000000; fill-opacity:0.0; 
stroke:#000000; stroke-width:59.0551; stroke-opacity:1; 
stroke-linecap:round; stroke-linejoin:round;">
<path d="M53252 4050
L53569 4050
L53398 4245
L53471 4245
L53520 4269
L53544 4294
L53569 4342
L53569 4464
L53544 4513
L53520 4537
L53471 4562
L53325 4562
L53276 4537
L53252 4513
" />
</g>
<g style="fill:#000000; fill-opacity:0.0; 
stroke:#000000; stroke-width:39.3701; stroke-opacity:1; 
stroke-linecap:round; stroke-linejoin:round;">
</g>
<g style="fill:#000000; fill-opacity:0.0; 
stroke:#000000; stroke-width:59.0551; stroke-opacity:1; 
stroke-linecap:round; stroke-linejoin:round;">
<path d="M73205 4221
L73205 4562
" />
<path d="M73083 4026
L72961 4391
L73278 4391
" />
</g>
<g style="fill:#000000; fill-opacity:0.0; 
stroke:#000000; stroke-width:39.3701; stroke-opacity:1; 
stroke-linecap:round; stroke-linejoin:round;">
</g>
<g style="fill:#000000; fill-opacity:0.0; 
stroke:#000000; stroke-width:59.0551; stroke-opacity:1; 
stroke-linecap:round; stroke-linejoin:round;">
<path d="M92914 4050
L92671 4050
L92646 4294
L92671 4269
L92719 4245
L92841 4245
L92890 4269
L92914 4294
L92939 4342
L92939 4464
L92914 4513
L92890 4537
L92841 4562
L92719 4562
L92671 4537
L92646 4513
" />
</g>
<g style="fill:#000000; fill-opacity:0.0; 
stroke:#000000; stroke-width:39.3701; stroke-opacity:1; 
stroke-linecap:round; stroke-linejoin:round;">
</g>
<g style="fill:#000000; fill-opacity:0.0; 
stroke:#000000; stroke-width:59.0551; stroke-opacity:1; 
stroke-linecap:round; stroke-linejoin:round;">
<path d="M112575 4050
L112477 4050
L112429 4074
L112404 4099
L112356 4172
L112331 4269
L112331 4464
L112356 4513
L112380 4537
L112429 4562
L112526 4562
L112575 4537
L112599 4513
L112624 4464
L112624 4342
L112599 4294
L112575 4269
L112526 4245
L112429 4245
L112380 4269
L112356 4294
L112331 4342
" />
</g>
<g style="fill:#000000; fill-opacity:0.0; 
stroke:#000000; stroke-width:39.3701; stroke-opacity:1; 
stroke-linecap:round; stroke-linejoin:round;">
</g>
<g style="fill:#000000; fill-opacity:0.0; 
stroke:#000000; stroke-width:59.0551; stroke-opacity:1; 
stroke-linecap:round; stroke-linejoin:round;">
<path d="M23622 77955
L23622 78742
" />
</g>
<g style="fill:#000000; fill-opacity:0.0; 
stroke:#000000; stroke-width:39.3701; stroke-opacity:1; 
stroke-linecap:round; stroke-linejoin:round;">
</g>
<g style="fill:#000000; fill-opacity:0.0; 
stroke:#000000; stroke-width:59.0551; stroke-opacity:1; 
stroke-linecap:round; stroke-linejoin:round;">
<path d="M43307 77955
L43307 78742
" />
</g>
<g style="fill:#000000; fill-opacity:0.0; 
stroke:#000000; stroke-width:39.3701; stroke-opacity:1; 
stroke-linecap:round; stroke-linejoin:round;">
</g>
<g style="fill:#000000; fill-opacity:0.0; 
stroke:#000000; stroke-width:59.0551; stroke-opacity:1; 
stroke-linecap:round; stroke-linejoin:round;">
<path d="M62992 77955
L62992 78742
" />
</g>
<g style="fill:#000000; fill-opacity:0.0; 
stroke:#000000; stroke-width:39.3701; stroke-opacity:1; 
stroke-linecap:round; stroke-linejoin:round;">
</g>
<g style="fill:#000000; fill-opacity:0.0; 
stroke:#000000; stroke-width:59.0551; stroke-opacity:1; 
stroke-linecap:round; stroke-linejoin:round;">
<path d="M82677 77955
L82677 78742
" />
</g>
<g style="fill:#000000; fill-opacity:0.0; 
stroke:#000000; stroke-width:39.3701; stroke-opacity:1; 
stroke-linecap:round; stroke-linejoin:round;">
</g>
<g style="fill:#000000; fill-opacity:0.0; 
stroke:#000000; stroke-width:59.0551; stroke-opacity:1; 
stroke-linecap:round; stroke-linejoin:round;">
<path d="M102362 77955
L102362 78742
" />
</g>
<g style="fill:#000000; fill-opacity:0.0; 
stroke:#000000; stroke-width:39.3701; stroke-opacity:1; 
stroke-linecap:round; stroke-linejoin:round;">
</g>
<g style="fill:#000000; fill-opacity:0.0; 
stroke:#000000; stroke-width:59.0551; stroke-opacity:1; 
stroke-linecap:round; stroke-linejoin:round;">
<path d="M14199 78580
L13906 78580
" />
<path d="M14052 78580
L14052 78069
L14004 78142
L13955 78190
L13906 78215
" />
</g>
<g style="fill:#000000; fill-opacity:0.0; 
stroke:#000000; stroke-width:39.3701; stroke-opacity:1; 
stroke-linecap:round; stroke-linejoin:round;">
</g>
<g style="fill:#000000; fill-opacity:0.0; 
stroke:#000000; stroke-width:59.0551; stroke-opacity:1; 
stroke-linecap:round; stroke-linejoin:round;">
<path d="M33591 78117
L33615 78093
L33664 78069
L33786 78069
L33835 78093
L33859 78117
L33884 78166
L33884 78215
L33859 78288
L33567 78580
L33884 78580
" />
</g>
<g style="fill:#000000; fill-opacity:0.0; 
stroke:#000000; stroke-width:39.3701; stroke-opacity:1; 
stroke-linecap:round; stroke-linejoin:round;">
</g>
<g style="fill:#000000; fill-opacity:0.0; 
stroke:#000000; stroke-width:59.0551; stroke-opacity:1; 
stroke-linecap:round; stroke-linejoin:round;">
<path d="M53252 78069
L53569 78069
L53398 78263
L53471 78263
L53520 78288
L53544 78312
L53569 78361
L53569 78483
L53544 78532
L53520 78556
L53471 78580
L53325 78580
L53276 78556
L53252 78532
" />
</g>
<g style="fill:#000000; fill-opacity:0.0; 
stroke:#000000; stroke-width:39.3701; stroke-opacity:1; 
stroke-linecap:round; stroke-linejoin:round;">
</g>
<g style="fill:#000000; fill-opacity:0.0; 
stroke:#000000; stroke-width:59.0551; stroke-opacity:1; 
stroke-linecap:round; stroke-linejoin:round;">
<path d="M73205 78239
L73205 78580
" />
<path d="M73083 78044
L72961 78410
L73278 78410
" />
</g>
<g style="fill:#000000; fill-opacity:0.0; 
stroke:#000000; stroke-width:39.3701; stroke-opacity:1; 
stroke-linecap:round; stroke-linejoin:round;">
</g>
<g style="fill:#000000; fill-opacity:0.0; 
stroke:#000000; stroke-width:59.0551; stroke-opacity:1; 
stroke-linecap:round; stroke-linejoin:round;">
<path d="M92914 78069
L92671 78069
L92646 78312
L92671 78288
L92719 78263
L92841 78263
L92890 78288
L92914 78312
L92939 78361
L92939 78483
L92914 78532
L92890 78556
L92841 78580
L92719 78580
L92671 78556
L92646 78532
" />
</g>
<g style="fill:#000000; fill-opacity:0.0; 
stroke:#000000; stroke-width:39.3701; stroke-opacity:1; 
stroke-linecap:round; stroke-linejoin:round;">
</g>
<g style="fill:#000000; fill-opacity:0.0; 
stroke:#000000; stroke-width:59.0551; stroke-opacity:1; 
stroke-linecap:round; stroke-linejoin:round;">
<path d="M112575 78069
L112477 78069
L112429 78093
L112404 78117
L112356 78190
L112331 78288
L112331 78483
L112356 78532
L112380 78556
L112429 78580
L112526 78580
L112575 78556
L112599 78532
L112624 78483
L112624 78361
L112599 78312
L112575 78288
L112526 78263
L112429 78263
L112380 78288
L112356 78312
L112331 78361
" />
</g>
<g style="fill:#000000; fill-opacity:0.0; 
stroke:#000000; stroke-width:39.3701; stroke-opacity:1; 
stroke-linecap:round; stroke-linejoin:round;">
</g>
<g style="fill:#000000; fill-opacity:0.0; 
stroke:#000000; stroke-width:59.0551; stroke-opacity:1; 
stroke-linecap:round; stroke-linejoin:round;">
<path d="M3937 23622
L4724 23622
" />
</g>
<g style="fill:#000000; fill-opacity:0.0; 
stroke:#000000; stroke-width:39.3701; stroke-opacity:1; 
stroke-linecap:round; stroke-linejoin:round;">
</g>
<g style="fill:#000000; fill-opacity:0.0; 
stroke:#000000; stroke-width:59.0551; stroke-opacity:1; 
stroke-linecap:round; stroke-linejoin:round;">
<path d="M3937 43307
L4724 43307
" />
</g>
<g style="fill:#000000; fill-opacity:0.0; 
stroke:#000000; stroke-width:39.3701; stroke-opacity:1; 
stroke-linecap:round; stroke-linejoin:round;">
</g>
<g style="fill:#000000; fill-opacity:0.0; 
stroke:#000000; stroke-width:59.0551; stroke-opacity:1; 
stroke-linecap:round; stroke-linejoin:round;">
<path d="M3937 62992
L4724 62992
" />
</g>
<g style="fill:#000000; fill-opacity:0.0; 
stroke:#000000; stroke-width:39.3701; stroke-opacity:1; 
stroke-linecap:round; stroke-linejoin:round;">
</g>
<g style="fill:#000000; fill-opacity:0.0; 
stroke:#000000; stroke-width:59.0551; stroke-opacity:1; 
stroke-linecap:round; stroke-linejoin:round;">
<path d="M4208 13864
L4452 13864
" />
<path d="M4160 14011
L4330 13499
L4501 14011
" />
</g>
<g style="fill:#000000; fill-opacity:0.0; 
stroke:#000000; stroke-width:39.3701; stroke-opacity:1; 
stroke-linecap:round; stroke-linejoin:round;">
</g>
<g style="fill:#000000; fill-opacity:0.0; 
stroke:#000000; stroke-width:59.0551; stroke-opacity:1; 
stroke-linecap:round; stroke-linejoin:round;">
<path d="M4367 33428
L4440 33452
L4464 33476
L4489 33525
L4489 33598
L4464 33647
L4440 33671
L4391 33696
L4196 33696
L4196 33184
L4367 33184
L4416 33208
L4440 33233
L4464 33281
L4464 33330
L4440 33379
L4416 33403
L4367 33428
L4196 33428
" />
</g>
<g style="fill:#000000; fill-opacity:0.0; 
stroke:#000000; stroke-width:39.3701; stroke-opacity:1; 
stroke-linecap:round; stroke-linejoin:round;">
</g>
<g style="fill:#000000; fill-opacity:0.0; 
stroke:#000000; stroke-width:59.0551; stroke-opacity:1; 
stroke-linecap:round; stroke-linejoin:round;">
<path d="M4489 53332
L4464 53356
L4391 53381
L4342 53381
L4269 53356
L4221 53308
L4196 53259
L4172 53161
L4172 53088
L4196 52991
L4221 52942
L4269 52893
L4342 52869
L4391 52869
L4464 52893
L4489 52918
" />
</g>
<g style="fill:#000000; fill-opacity:0.0; 
stroke:#000000; stroke-width:39.3701; stroke-opacity:1; 
stroke-linecap:round; stroke-linejoin:round;">
</g>
<g style="fill:#000000; fill-opacity:0.0; 
stroke:#000000; stroke-width:59.0551; stroke-opacity:1; 
stroke-linecap:round; stroke-linejoin:round;">
<path d="M4196 73066
L4196 72554
L4318 72554
L4391 72578
L4440 72627
L4464 72676
L4489 72773
L4489 72846
L4464 72944
L4440 72993
L4391 73041
L4318 73066
L4196 73066
" />
</g>
<g style="fill:#000000; fill-opacity:0.0; 
stroke:#000000; stroke-width:39.3701; stroke-opacity:1; 
stroke-linecap:round; stroke-linejoin:round;">
</g>
<g style="fill:#000000; fill-opacity:0.0; 
stroke:#000000; stroke-width:59.0551; stroke-opacity:1; 
stroke-linecap:round; stroke-linejoin:round;">
<path d="M112992 23622
L112205 23622
" />
</g>
<g style="fill:#000000; fill-opacity:0.0; 
stroke:#000000; stroke-width:39.3701; stroke-opacity:1; 
stroke-linecap:round; stroke-linejoin:round;">
</g>
<g style="fill:#000000; fill-opacity:0.0; 
stroke:#000000; stroke-width:59.0551; stroke-opacity:1; 
stroke-linecap:round; stroke-linejoin:round;">
<path d="M112992 43307
L112205 43307
" />
</g>
<g style="fill:#000000; fill-opacity:0.0; 
stroke:#000000; stroke-width:39.3701; stroke-opacity:1; 
stroke-linecap:round; stroke-linejoin:round;">
</g>
<g style="fill:#000000; fill-opacity:0.0; 
stroke:#000000; stroke-width:59.0551; stroke-opacity:1; 
stroke-linecap:round; stroke-linejoin:round;">
<path d="M112992 62992
L112205 62992
" />
</g>
<g style="fill:#000000; fill-opacity:0.0; 
stroke:#000000; stroke-width:39.3701; stroke-opacity:1; 
stroke-linecap:round; stroke-linejoin:round;">
</g>
<g style="fill:#000000; fill-opacity:0.0; 
stroke:#000000; stroke-width:59.0551; stroke-opacity:1; 
stroke-linecap:round; stroke-linejoin:round;">
<path d="M112477 13864
L112721 13864
" />
<path d="M112428 14011
L112599 13499
L112769 14011
" />
</g>
<g style="fill:#000000; fill-opacity:0.0; 
stroke:#000000; stroke-width:39.3701; stroke-opacity:1; 
stroke-linecap:round; stroke-linejoin:round;">
</g>
<g style="fill:#000000; fill-opacity:0.0; 
stroke:#000000; stroke-width:59.0551; stroke-opacity:1; 
stroke-linecap:round; stroke-linejoin:round;">
<path d="M112635 33428
L112708 33452
L112733 33476
L112757 33525
L112757 33598
L112733 33647
L112708 33671
L112660 33696
L112465 33696
L112465 33184
L112635 33184
L112684 33208
L112708 33233
L112733 33281
L112733 33330
L112708 33379
L112684 33403
L112635 33428
L112465 33428
" />
</g>
<g style="fill:#000000; fill-opacity:0.0; 
stroke:#000000; stroke-width:39.3701; stroke-opacity:1; 
stroke-linecap:round; stroke-linejoin:round;">
</g>
<g style="fill:#000000; fill-opacity:0.0; 
stroke:#000000; stroke-width:59.0551; stroke-opacity:1; 
stroke-linecap:round; stroke-linejoin:round;">
<path d="M112757 53332
L112733 53356
L112660 53381
L112611 53381
L112538 53356
L112489 53308
L112465 53259
L112440 53161
L112440 53088
L112465 52991
L112489 52942
L112538 52893
L112611 52869
L112660 52869
L112733 52893
L112757 52918
" />
</g>
<g style="fill:#000000; fill-opacity:0.0; 
stroke:#000000; stroke-width:39.3701; stroke-opacity:1; 
stroke-linecap:round; stroke-linejoin:round;">
</g>
<g style="fill:#000000; fill-opacity:0.0; 
stroke:#000000; stroke-width:59.0551; stroke-opacity:1; 
stroke-linecap:round; stroke-linejoin:round;">
<path d="M112465 73066
L112465 72554
L112587 72554
L112660 72578
L112708 72627
L112733 72676
L112757 72773
L112757 72846
L112733 72944
L112708 72993
L112660 73041
L112587 73066
L112465 73066
" />
</g>
<g style="fill:#000000; fill-opacity:0.0; 
stroke:#000000; stroke-width:39.3701; stroke-opacity:1; 
stroke-linecap:round; stroke-linejoin:round;">
</g>
<g style="fill:#000000; fill-opacity:0.0; 
stroke:#000000; stroke-width:59.0551; stroke-opacity:1; 
stroke-linecap:round; stroke-linejoin:round;">
<path d="M78911 76293
L78911 75703
L79051 75703
L79136 75731
L79192 75787
L79220 75843
L79248 75956
L79248 76040
L79220 76153
L79192 76209
L79136 76265
L79051 76293
L78911 76293
" />
<path d="M79754 76293
L79754 75984
L79726 75928
L79670 75899
L79557 75899
L79501 75928
" />
<path d="M79754 76265
L79698 76293
L79557 76293
L79501 76265
L79473 76209
L79473 76153
L79501 76096
L79557 76068
L79698 76068
L79754 76040
" />
<path d="M79951 75899
L80176 75899
" />
<path d="M80036 75703
L80036 76209
L80064 76265
L80120 76293
L80176 76293
" />
<path d="M80598 76265
L80542 76293
L80429 76293
L80373 76265
L80345 76209
L80345 75984
L80373 75928
L80429 75899
L80542 75899
L80598 75928
L80626 75984
L80626 76040
L80345 76096
" />
<path d="M80879 76237
L80907 76265
L80879 76293
L80851 76265
L80879 76237
L80879 76293
" />
<path d="M80879 75928
L80907 75956
L80879 75984
L80851 75956
L80879 75928
L80879 75984
" />
</g>
<g style="fill:#000000; fill-opacity:0.0; 
stroke:#000000; stroke-width:39.3701; stroke-opacity:1; 
stroke-linecap:round; stroke-linejoin:round;">
</g>
<g style="fill:#000000; fill-opacity:0.0; 
stroke:#000000; stroke-width:59.0551; stroke-opacity:1; 
stroke-linecap:round; stroke-linejoin:round;">
<path d="M69685 76577
L112205 76577
" />
</g>
<g style="fill:#000000; fill-opacity:0.0; 
stroke:#000000; stroke-width:39.3701; stroke-opacity:1; 
stroke-linecap:round; stroke-linejoin:round;">
</g>
<g style="fill:#000000; fill-opacity:0.0; 
stroke:#000000; stroke-width:59.0551; stroke-opacity:1; 
stroke-linecap:round; stroke-linejoin:round;">
<path d="M70249 77395
L70249 76805
" />
<path d="M70587 77395
L70334 77058
" />
<path d="M70587 76805
L70249 77142
" />
<path d="M70840 77395
L70840 77002
" />
<path d="M70840 76805
L70812 76833
L70840 76861
L70868 76833
L70840 76805
L70840 76861
" />
<path d="M71458 77339
L71430 77367
L71346 77395
L71290 77395
L71205 77367
L71149 77311
L71121 77255
L71093 77142
L71093 77058
L71121 76946
L71149 76889
L71205 76833
L71290 76805
L71346 76805
L71430 76833
L71458 76861
" />
<path d="M71965 77395
L71965 77086
L71937 77030
L71880 77002
L71768 77002
L71712 77030
" />
<path d="M71965 77367
L71908 77395
L71768 77395
L71712 77367
L71683 77311
L71683 77255
L71712 77199
L71768 77171
L71908 77171
L71965 77142
" />
<path d="M72499 77395
L72499 76805
" />
<path d="M72499 77367
L72443 77395
L72330 77395
L72274 77367
L72246 77339
L72218 77283
L72218 77114
L72246 77058
L72274 77030
L72330 77002
L72443 77002
L72499 77030
" />
<path d="M73230 77086
L73427 77086
" />
<path d="M73511 77395
L73230 77395
L73230 76805
L73511 76805
" />
<path d="M73764 77339
L73793 77367
L73764 77395
L73736 77367
L73764 77339
L73764 77395
" />
<path d="M74046 77395
L74046 76805
L74186 76805
L74271 76833
L74327 76889
L74355 76946
L74383 77058
L74383 77142
L74355 77255
L74327 77311
L74271 77367
L74186 77395
L74046 77395
" />
<path d="M74636 77339
L74664 77367
L74636 77395
L74608 77367
L74636 77339
L74636 77395
" />
<path d="M74889 77227
L75171 77227
" />
<path d="M74833 77395
L75030 76805
L75227 77395
" />
<path d="M75424 77339
L75452 77367
L75424 77395
L75395 77367
L75424 77339
L75424 77395
" />
<path d="M76605 77395
L76605 76805
" />
<path d="M76661 77171
L76830 77395
" />
<path d="M76830 77002
L76605 77227
" />
<path d="M77083 77395
L77083 77002
" />
<path d="M77083 76805
L77055 76833
L77083 76861
L77111 76833
L77083 76805
L77083 76861
" />
<path d="M77617 77367
L77561 77395
L77448 77395
L77392 77367
L77364 77339
L77336 77283
L77336 77114
L77364 77058
L77392 77030
L77448 77002
L77561 77002
L77617 77030
" />
<path d="M78123 77395
L78123 77086
L78095 77030
L78039 77002
L77926 77002
L77870 77030
" />
<path d="M78123 77367
L78067 77395
L77926 77395
L77870 77367
L77842 77311
L77842 77255
L77870 77199
L77926 77171
L78067 77171
L78123 77142
" />
<path d="M78658 77395
L78658 76805
" />
<path d="M78658 77367
L78601 77395
L78489 77395
L78433 77367
L78404 77339
L78376 77283
L78376 77114
L78404 77058
L78433 77030
L78489 77002
L78601 77002
L78658 77030
" />
<path d="M79557 77620
L79529 77592
L79473 77508
L79445 77452
L79417 77367
L79389 77227
L79389 77114
L79417 76974
L79445 76889
L79473 76833
L79529 76749
L79557 76721
" />
<path d="M80064 76805
L79782 76805
L79754 77086
L79782 77058
L79839 77030
L79979 77030
L80036 77058
L80064 77086
L80092 77142
L80092 77283
L80064 77339
L80036 77367
L79979 77395
L79839 77395
L79782 77367
L79754 77339
" />
<path d="M80345 77339
L80373 77367
L80345 77395
L80317 77367
L80345 77339
L80345 77395
" />
<path d="M80935 77395
L80598 77395
" />
<path d="M80767 77395
L80767 76805
L80710 76889
L80654 76946
L80598 76974
" />
<path d="M81188 77339
L81217 77367
L81188 77395
L81160 77367
L81188 77339
L81188 77395
" />
<path d="M81723 77002
L81723 77395
" />
<path d="M81582 76777
L81442 77199
L81807 77199
" />
<path d="M82032 77171
L82482 77171
" />
<path d="M82876 76805
L82932 76805
L82988 76833
L83016 76861
L83045 76917
L83073 77030
L83073 77171
L83045 77283
L83016 77339
L82988 77367
L82932 77395
L82876 77395
L82820 77367
L82791 77339
L82763 77283
L82735 77171
L82735 77030
L82763 76917
L82791 76861
L82820 76833
L82876 76805
" />
<path d="M83326 77171
L83776 77171
" />
<path d="M84366 77395
L84029 77395
" />
<path d="M84197 77395
L84197 76805
L84141 76889
L84085 76946
L84029 76974
" />
<path d="M84732 76805
L84788 76805
L84844 76833
L84872 76861
L84901 76917
L84929 77030
L84929 77171
L84901 77283
L84872 77339
L84844 77367
L84788 77395
L84732 77395
L84676 77367
L84647 77339
L84619 77283
L84591 77171
L84591 77030
L84619 76917
L84647 76861
L84676 76833
L84732 76805
" />
<path d="M85041 77452
L85491 77452
" />
<path d="M85941 77395
L85604 77395
" />
<path d="M85772 77395
L85772 76805
L85716 76889
L85660 76946
L85604 76974
" />
<path d="M86447 77002
L86447 77395
" />
<path d="M86307 76777
L86166 77199
L86532 77199
" />
<path d="M86700 77620
L86728 77592
L86785 77508
L86813 77452
L86841 77367
L86869 77227
L86869 77114
L86841 76974
L86813 76889
L86785 76833
L86728 76749
L86700 76721
" />
</g>
<g style="fill:#000000; fill-opacity:0.0; 
stroke:#000000; stroke-width:39.3701; stroke-opacity:1; 
stroke-linecap:round; stroke-linejoin:round;">
</g>
<g style="fill:#000000; fill-opacity:0.0; 
stroke:#000000; stroke-width:59.0551; stroke-opacity:1; 
stroke-linecap:round; stroke-linejoin:round;">
<path d="M69685 75396
L112205 75396
" />
</g>
<g style="fill:#000000; fill-opacity:0.0; 
stroke:#000000; stroke-width:39.3701; stroke-opacity:1; 
stroke-linecap:round; stroke-linejoin:round;">
</g>
<g style="fill:#000000; fill-opacity:0.0; 
stroke:#000000; stroke-width:118.11; stroke-opacity:1; 
stroke-linecap:round; stroke-linejoin:round;">
<path d="M104099 76293
L103902 76012
" />
<path d="M103761 76293
L103761 75703
L103986 75703
L104042 75731
L104070 75759
L104099 75815
L104099 75899
L104070 75956
L104042 75984
L103986 76012
L103761 76012
" />
<path d="M104577 76265
L104520 76293
L104408 76293
L104352 76265
L104323 76209
L104323 75984
L104352 75928
L104408 75899
L104520 75899
L104577 75928
L104605 75984
L104605 76040
L104323 76096
" />
<path d="M104802 75899
L104942 76293
L105083 75899
" />
<path d="M105308 76237
L105336 76265
L105308 76293
L105280 76265
L105308 76237
L105308 76293
" />
<path d="M105308 75928
L105336 75956
L105308 75984
L105280 75956
L105308 75928
L105308 75984
" />
</g>
<g style="fill:#000000; fill-opacity:0.0; 
stroke:#000000; stroke-width:39.3701; stroke-opacity:1; 
stroke-linecap:round; stroke-linejoin:round;">
</g>
<g style="fill:#000000; fill-opacity:0.0; 
stroke:#000000; stroke-width:59.0551; stroke-opacity:1; 
stroke-linecap:round; stroke-linejoin:round;">
<path d="M70221 76265
L70305 76293
L70446 76293
L70502 76265
L70530 76237
L70559 76181
L70559 76124
L70530 76068
L70502 76040
L70446 76012
L70334 75984
L70277 75956
L70249 75928
L70221 75871
L70221 75815
L70249 75759
L70277 75731
L70334 75703
L70474 75703
L70559 75731
" />
<path d="M70812 76293
L70812 75899
" />
<path d="M70812 75703
L70784 75731
L70812 75759
L70840 75731
L70812 75703
L70812 75759
" />
<path d="M71037 75899
L71346 75899
L71037 76293
L71346 76293
" />
<path d="M71796 76265
L71740 76293
L71627 76293
L71571 76265
L71543 76209
L71543 75984
L71571 75928
L71627 75899
L71740 75899
L71796 75928
L71824 75984
L71824 76040
L71543 76096
" />
<path d="M72077 76237
L72105 76265
L72077 76293
L72049 76265
L72077 76237
L72077 76293
" />
<path d="M72077 75928
L72105 75956
L72077 75984
L72049 75956
L72077 75928
L72077 75984
" />
<path d="M72780 76124
L73061 76124
" />
<path d="M72724 76293
L72921 75703
L73118 76293
" />
<path d="M73568 75899
L73568 76293
" />
<path d="M73427 75674
L73286 76096
L73652 76096
" />
</g>
<g style="fill:#000000; fill-opacity:0.0; 
stroke:#000000; stroke-width:39.3701; stroke-opacity:1; 
stroke-linecap:round; stroke-linejoin:round;">
</g>
<g style="fill:#000000; fill-opacity:0.0; 
stroke:#000000; stroke-width:59.0551; stroke-opacity:1; 
stroke-linecap:round; stroke-linejoin:round;">
<path d="M103714 77395
L103714 76805
" />
<path d="M104248 77395
L104248 76805
" />
<path d="M104248 77367
L104192 77395
L104079 77395
L104023 77367
L103995 77339
L103967 77283
L103967 77114
L103995 77058
L104023 77030
L104079 77002
L104192 77002
L104248 77030
" />
<path d="M104529 77339
L104557 77367
L104529 77395
L104501 77367
L104529 77339
L104529 77395
" />
<path d="M104529 77030
L104557 77058
L104529 77086
L104501 77058
L104529 77030
L104529 77086
" />
<path d="M105570 77395
L105232 77395
" />
<path d="M105401 77395
L105401 76805
L105345 76889
L105289 76946
L105232 76974
" />
<path d="M106245 76777
L105739 77536
" />
<path d="M106751 77395
L106413 77395
" />
<path d="M106582 77395
L106582 76805
L106526 76889
L106470 76946
L106413 76974
" />
</g>
<g style="fill:#000000; fill-opacity:0.0; 
stroke:#000000; stroke-width:39.3701; stroke-opacity:1; 
stroke-linecap:round; stroke-linejoin:round;">
</g>
<g style="fill:#000000; fill-opacity:0.0; 
stroke:#000000; stroke-width:59.0551; stroke-opacity:1; 
stroke-linecap:round; stroke-linejoin:round;">
<path d="M69685 73821
L112205 73821
" />
</g>
<g style="fill:#000000; fill-opacity:0.0; 
stroke:#000000; stroke-width:39.3701; stroke-opacity:1; 
stroke-linecap:round; stroke-linejoin:round;">
</g>
<g style="fill:#000000; fill-opacity:0.0; 
stroke:#000000; stroke-width:157.48; stroke-opacity:1; 
stroke-linecap:round; stroke-linejoin:round;">
<path d="M70360 74099
L70810 74099
" />
<path d="M70486 74886
L70585 74099
" />
<path d="M70974 74886
L71039 74361
" />
<path d="M71072 74099
L71030 74136
L71063 74174
L71105 74136
L71072 74099
L71063 74174
" />
<path d="M71302 74361
L71602 74361
" />
<path d="M71447 74099
L71363 74774
L71391 74849
L71461 74886
L71536 74886
" />
<path d="M71911 74886
L71841 74849
L71813 74774
L71897 74099
" />
<path d="M72516 74849
L72436 74886
L72286 74886
L72216 74849
L72187 74774
L72225 74474
L72272 74399
L72352 74361
L72501 74361
L72572 74399
L72600 74474
L72591 74549
L72206 74624
" />
<path d="M72895 74811
L72928 74849
L72886 74886
L72853 74849
L72895 74811
L72886 74886
" />
<path d="M72947 74399
L72980 74436
L72937 74474
L72905 74436
L72947 74399
L72937 74474
" />
</g>
<g style="fill:#000000; fill-opacity:0.0; 
stroke:#000000; stroke-width:39.3701; stroke-opacity:1; 
stroke-linecap:round; stroke-linejoin:round;">
</g>
<g style="fill:#000000; fill-opacity:0.0; 
stroke:#000000; stroke-width:59.0551; stroke-opacity:1; 
stroke-linecap:round; stroke-linejoin:round;">
<path d="M70446 73070
L70249 73070
" />
<path d="M70249 73380
L70249 72789
L70530 72789
" />
<path d="M70755 73380
L70755 72986
" />
<path d="M70755 72789
L70727 72817
L70755 72845
L70784 72817
L70755 72789
L70755 72845
" />
<path d="M71121 73380
L71065 73352
L71037 73295
L71037 72789
" />
<path d="M71571 73352
L71515 73380
L71402 73380
L71346 73352
L71318 73295
L71318 73070
L71346 73014
L71402 72986
L71515 72986
L71571 73014
L71599 73070
L71599 73127
L71318 73183
" />
<path d="M71852 73323
L71880 73352
L71852 73380
L71824 73352
L71852 73323
L71852 73380
" />
<path d="M71852 73014
L71880 73042
L71852 73070
L71824 73042
L71852 73014
L71852 73070
" />
<path d="M72836 72986
L72836 73380
" />
<path d="M72583 72986
L72583 73295
L72611 73352
L72668 73380
L72752 73380
L72808 73352
L72836 73323
" />
<path d="M73090 73352
L73146 73380
L73258 73380
L73314 73352
L73343 73295
L73343 73267
L73314 73211
L73258 73183
L73174 73183
L73118 73155
L73090 73099
L73090 73070
L73118 73014
L73174 72986
L73258 72986
L73314 73014
" />
<path d="M73596 73380
L73596 72789
" />
<path d="M73596 73014
L73652 72986
L73764 72986
L73821 73014
L73849 73042
L73877 73099
L73877 73267
L73849 73323
L73821 73352
L73764 73380
L73652 73380
L73596 73352
" />
<path d="M74130 73155
L74580 73155
" />
<path d="M74777 72986
L75002 72986
" />
<path d="M74861 72789
L74861 73295
L74889 73352
L74946 73380
L75002 73380
" />
<path d="M75424 73352
L75367 73380
L75255 73380
L75199 73352
L75171 73295
L75171 73070
L75199 73014
L75255 72986
L75367 72986
L75424 73014
L75452 73070
L75452 73127
L75171 73183
" />
<path d="M75930 73352
L75874 73380
L75761 73380
L75705 73352
L75677 73295
L75677 73070
L75705 73014
L75761 72986
L75874 72986
L75930 73014
L75958 73070
L75958 73127
L75677 73183
" />
<path d="M76211 72986
L76211 73380
" />
<path d="M76211 73042
L76239 73014
L76295 72986
L76380 72986
L76436 73014
L76464 73070
L76464 73380
" />
<path d="M76717 73352
L76773 73380
L76886 73380
L76942 73352
L76970 73295
L76970 73267
L76942 73211
L76886 73183
L76802 73183
L76745 73155
L76717 73099
L76717 73070
L76745 73014
L76802 72986
L76886 72986
L76942 73014
" />
<path d="M77167 72986
L77308 73380
" />
<path d="M77448 72986
L77308 73380
L77251 73520
L77223 73548
L77167 73577
" />
<path d="M77617 72789
L77983 72789
L77786 73014
L77870 73014
L77926 73042
L77955 73070
L77983 73127
L77983 73267
L77955 73323
L77926 73352
L77870 73380
L77701 73380
L77645 73352
L77617 73323
" />
<path d="M78236 73323
L78264 73352
L78236 73380
L78208 73352
L78236 73323
L78236 73380
" />
<path d="M78770 72789
L78658 72789
L78601 72817
L78573 72845
L78517 72930
L78489 73042
L78489 73267
L78517 73323
L78545 73352
L78601 73380
L78714 73380
L78770 73352
L78798 73323
L78826 73267
L78826 73127
L78798 73070
L78770 73042
L78714 73014
L78601 73014
L78545 73042
L78517 73070
L78489 73127
" />
<path d="M78939 73436
L79389 73436
" />
<path d="M79529 73380
L79529 72789
" />
<path d="M79586 73155
L79754 73380
" />
<path d="M79754 72986
L79529 73211
" />
<path d="M80007 73380
L80007 72986
" />
<path d="M80007 72789
L79979 72817
L80007 72845
L80036 72817
L80007 72789
L80007 72845
" />
<path d="M80542 73352
L80485 73380
L80373 73380
L80317 73352
L80289 73323
L80260 73267
L80260 73099
L80289 73042
L80317 73014
L80373 72986
L80485 72986
L80542 73014
" />
<path d="M81048 73380
L81048 73070
L81020 73014
L80964 72986
L80851 72986
L80795 73014
" />
<path d="M81048 73352
L80992 73380
L80851 73380
L80795 73352
L80767 73295
L80767 73239
L80795 73183
L80851 73155
L80992 73155
L81048 73127
" />
<path d="M81582 73380
L81582 72789
" />
<path d="M81582 73352
L81526 73380
L81413 73380
L81357 73352
L81329 73323
L81301 73267
L81301 73099
L81329 73042
L81357 73014
L81413 72986
L81526 72986
L81582 73014
" />
<path d="M81863 73323
L81892 73352
L81863 73380
L81835 73352
L81863 73323
L81863 73380
" />
<path d="M82145 73380
L82145 72789
" />
<path d="M82201 73155
L82370 73380
" />
<path d="M82370 72986
L82145 73211
" />
<path d="M82623 73380
L82623 72986
" />
<path d="M82623 72789
L82595 72817
L82623 72845
L82651 72817
L82623 72789
L82623 72845
" />
<path d="M83157 73352
L83101 73380
L82988 73380
L82932 73352
L82904 73323
L82876 73267
L82876 73099
L82904 73042
L82932 73014
L82988 72986
L83101 72986
L83157 73014
" />
<path d="M83663 73380
L83663 73070
L83635 73014
L83579 72986
L83466 72986
L83410 73014
" />
<path d="M83663 73352
L83607 73380
L83466 73380
L83410 73352
L83382 73295
L83382 73239
L83410 73183
L83466 73155
L83607 73155
L83663 73127
" />
<path d="M84197 73380
L84197 72789
" />
<path d="M84197 73352
L84141 73380
L84029 73380
L83973 73352
L83944 73323
L83916 73267
L83916 73099
L83944 73042
L83973 73014
L84029 72986
L84141 72986
L84197 73014
" />
<path d="M84338 73436
L84788 73436
" />
<path d="M84929 72986
L84929 73577
" />
<path d="M84929 73014
L84985 72986
L85097 72986
L85154 73014
L85182 73042
L85210 73099
L85210 73267
L85182 73323
L85154 73352
L85097 73380
L84985 73380
L84929 73352
" />
<path d="M85716 73352
L85660 73380
L85547 73380
L85491 73352
L85463 73323
L85435 73267
L85435 73099
L85463 73042
L85491 73014
L85547 72986
L85660 72986
L85716 73014
" />
<path d="M85969 73380
L85969 72789
" />
<path d="M85969 73014
L86025 72986
L86138 72986
L86194 73014
L86222 73042
L86250 73099
L86250 73267
L86222 73323
L86194 73352
L86138 73380
L86025 73380
L85969 73352
" />
</g>
<g style="fill:#000000; fill-opacity:0.0; 
stroke:#000000; stroke-width:39.3701; stroke-opacity:1; 
stroke-linecap:round; stroke-linejoin:round;">
</g>
<g style="fill:#000000; fill-opacity:0.0; 
stroke:#000000; stroke-width:59.0551; stroke-opacity:1; 
stroke-linecap:round; stroke-linejoin:round;">
<path d="M69685 71459
L112205 71459
" />
</g>
<g style="fill:#000000; fill-opacity:0.0; 
stroke:#000000; stroke-width:39.3701; stroke-opacity:1; 
stroke-linecap:round; stroke-linejoin:round;">
</g>
<g style="fill:#000000; fill-opacity:0.0; 
stroke:#000000; stroke-width:59.0551; stroke-opacity:1; 
stroke-linecap:round; stroke-linejoin:round;">
<path d="M70221 72289
L70305 72317
L70446 72317
L70502 72289
L70530 72260
L70559 72204
L70559 72148
L70530 72092
L70502 72064
L70446 72036
L70334 72007
L70277 71979
L70249 71951
L70221 71895
L70221 71839
L70249 71782
L70277 71754
L70334 71726
L70474 71726
L70559 71754
" />
<path d="M70812 72317
L70812 71726
" />
<path d="M71065 72317
L71065 72007
L71037 71951
L70980 71923
L70896 71923
L70840 71951
L70812 71979
" />
<path d="M71571 72289
L71515 72317
L71402 72317
L71346 72289
L71318 72232
L71318 72007
L71346 71951
L71402 71923
L71515 71923
L71571 71951
L71599 72007
L71599 72064
L71318 72120
" />
<path d="M72077 72289
L72021 72317
L71908 72317
L71852 72289
L71824 72232
L71824 72007
L71852 71951
L71908 71923
L72021 71923
L72077 71951
L72105 72007
L72105 72064
L71824 72120
" />
<path d="M72274 71923
L72499 71923
" />
<path d="M72358 71726
L72358 72232
L72386 72289
L72443 72317
L72499 72317
" />
<path d="M72696 72260
L72724 72289
L72696 72317
L72668 72289
L72696 72260
L72696 72317
" />
<path d="M72696 71951
L72724 71979
L72696 72007
L72668 71979
L72696 71951
L72696 72007
" />
</g>
<g style="fill:#000000; fill-opacity:0.0; 
stroke:#000000; stroke-width:39.3701; stroke-opacity:1; 
stroke-linecap:round; stroke-linejoin:round;">
</g>
<g style="fill:#000000; fill-opacity:0.0; 
stroke:#000000; stroke-width:59.0551; stroke-opacity:1; 
stroke-linecap:round; stroke-linejoin:round;">
<path d="M77559 75396
L77559 76577
" />
</g>
<g style="fill:#000000; fill-opacity:0.0; 
stroke:#000000; stroke-width:39.3701; stroke-opacity:1; 
stroke-linecap:round; stroke-linejoin:round;">
</g>
<g style="fill:#000000; fill-opacity:0.0; 
stroke:#000000; stroke-width:59.0551; stroke-opacity:1; 
stroke-linecap:round; stroke-linejoin:round;">
<path d="M102756 75396
L102756 77955
" />
</g>
<g style="fill:#000000; fill-opacity:0.0; 
stroke:#000000; stroke-width:39.3701; stroke-opacity:1; 
stroke-linecap:round; stroke-linejoin:round;">
<path d="M81475 40074
L81081 39681
" />
<path d="M81475 43224
L81475 40074
" />
<path d="M51947 43224
L81475 43224
" />
<path d="M51947 39681
L51947 43224
" />
<path d="M81081 39681
L51947 39681
" />
<circle cx="52735.1" cy="41452.8" r="393.701" /> 
<circle cx="80687.9" cy="41452.8" r="393.701" /> 
<path d="M81475 44838
L81081 44444
" />
<path d="M81475 47988
L81475 44838
" />
<path d="M51947 47988
L81475 47988
" />
<path d="M51947 44444
L51947 47988
" />
<path d="M81081 44444
L51947 44444
" />
<circle cx="52735.1" cy="46216.5" r="393.701" /> 
<circle cx="80687.9" cy="46216.5" r="393.701" /> 
<path d="M81475 49602
L81081 49208
" />
<path d="M81475 52751
L81475 49602
" />
<path d="M51947 52751
L81475 52751
" />
<path d="M51947 49208
L51947 52751
" />
<path d="M81081 49208
L51947 49208
" />
<circle cx="52735.1" cy="50980.3" r="393.701" /> 
<circle cx="80687.9" cy="50980.3" r="393.701" /> 
<path d="M81475 54311
L81081 53917
" />
<path d="M81475 57460
L81475 54311
" />
<path d="M51947 57460
L81475 57460
" />
<path d="M51947 53917
L51947 57460
" />
<path d="M81081 53917
L51947 53917
" />
<circle cx="52735.1" cy="55689" r="393.701" /> 
<circle cx="80687.9" cy="55689" r="393.701" /> 
<path d="M81225 35561
L80831 35167
" />
<path d="M81225 38710
L81225 35561
" />
<path d="M51697 38710
L81225 38710
" />
<path d="M51697 35167
L51697 38710
" />
<path d="M80831 35167
L51697 35167
" />
<circle cx="52485.1" cy="36939" r="393.701" /> 
<circle cx="80437.9" cy="36939" r="393.701" /> 
<path d="M47748 32446
L47748 28312
" />
<path d="M54048 32446
L47748 32446
" />
<path d="M54048 28312
L54048 32446
" />
<circle cx="50898.5" cy="28313" r="3149.61" /> 
<circle cx="45400.5" cy="50385.8" r="793.529" /> 
<path d="M46581 49204
L45400 49204
" />
<path d="M46581 51566
L46581 49204
" />
<path d="M44219 51566
L46581 51566
" />
<path d="M44219 49204
L44219 51566
" />
<path d="M45400 49204
L44219 49204
" />
<circle cx="45400.5" cy="55635.8" r="793.529" /> 
<path d="M46581 54454
L45400 54454
" />
<path d="M46581 56816
L46581 54454
" />
<path d="M44219 56816
L46581 56816
" />
<path d="M44219 54454
L44219 56816
" />
<path d="M45400 54454
L44219 54454
" />
<path d="M55248 32446
L55248 28312
" />
<path d="M61548 32446
L55248 32446
" />
<path d="M61548 28312
L61548 32446
" />
<circle cx="58398.5" cy="28313" r="3149.61" /> 
<path d="M62530 32383
L62530 28250
" />
<path d="M68829 32383
L62530 32383
" />
<path d="M68829 28250
L68829 32383
" />
<circle cx="65680" cy="28250" r="3149.61" /> 
<path d="M69998 32383
L69998 28250
" />
<path d="M76298 32383
L69998 32383
" />
<path d="M76298 28250
L76298 32383
" />
<circle cx="73148.5" cy="28250" r="3149.61" /> 
<path d="M77998 32446
L77998 28312
" />
<path d="M84298 32446
L77998 32446
" />
<path d="M84298 28312
L84298 32446
" />
<circle cx="81148.5" cy="28313" r="3149.61" /> 
<g >
</g>
<g >
</g>
<g >
</g>
<g >
</g>
<g >
</g>
<g >
</g>
<g >
</g>
<g >
</g>
<g >
</g>
<g >
</g>
<g >
</g>
<g >
</g>
<g >
</g>
<g >
</g>
<g >
</g>
<g >
</g>
<g >
</g>
<g >
</g>
<g >
</g>
</g>
<g style="fill:#000000; fill-opacity:0.0; 
stroke:#000000; stroke-width:39.3701; stroke-opacity:1; 
stroke-linecap:round; stroke-linejoin:round;">
</g>
<g style="fill:#000000; fill-opacity:0.0; 
stroke:#000000; stroke-width:59.0551; stroke-opacity:1; 
stroke-linecap:round; stroke-linejoin:round;">
<path d="M78076 42928
L78301 42928
" />
<path d="M78189 42928
L78189 42534
L78226 42590
L78264 42628
L78301 42646
" />
<path d="M77833 42534
L77795 42534
L77758 42553
L77739 42571
L77720 42609
L77701 42684
L77701 42778
L77720 42853
L77739 42890
L77758 42909
L77795 42928
L77833 42928
L77870 42909
L77889 42890
L77908 42853
L77926 42778
L77926 42684
L77908 42609
L77889 42571
L77870 42553
L77833 42534
" />
<path d="M77533 42928
L77533 42534
" />
<path d="M77495 42778
L77383 42928
" />
<path d="M77383 42665
L77533 42815
" />
<path d="M76933 42909
L76895 42928
L76820 42928
L76783 42909
L76764 42871
L76764 42853
L76783 42815
L76820 42796
L76876 42796
L76914 42778
L76933 42740
L76933 42721
L76914 42684
L76876 42665
L76820 42665
L76783 42684
" />
<path d="M76539 42928
L76576 42909
L76595 42871
L76595 42534
" />
<path d="M80914 40178
L81045 39990
" />
<path d="M81139 40178
L81139 39784
L80989 39784
L80951 39803
L80933 39821
L80914 39859
L80914 39915
L80933 39953
L80951 39971
L80989 39990
L81139 39990
" />
<path d="M80801 39784
L80670 40178
L80539 39784
" />
<path d="M80426 39821
L80408 39803
L80370 39784
L80276 39784
L80239 39803
L80220 39821
L80201 39859
L80201 39896
L80220 39953
L80445 40178
L80201 40178
" />
<path d="M78076 47678
L78301 47678
" />
<path d="M78189 47678
L78189 47284
L78226 47340
L78264 47378
L78301 47396
" />
<path d="M77833 47284
L77795 47284
L77758 47303
L77739 47321
L77720 47359
L77701 47434
L77701 47528
L77720 47603
L77739 47640
L77758 47659
L77795 47678
L77833 47678
L77870 47659
L77889 47640
L77908 47603
L77926 47528
L77926 47434
L77908 47359
L77889 47321
L77870 47303
L77833 47284
" />
<path d="M77533 47678
L77533 47284
" />
<path d="M77495 47528
L77383 47678
" />
<path d="M77383 47415
L77533 47565
" />
<path d="M76933 47659
L76895 47678
L76820 47678
L76783 47659
L76764 47621
L76764 47603
L76783 47565
L76820 47546
L76876 47546
L76914 47528
L76933 47490
L76933 47471
L76914 47434
L76876 47415
L76820 47415
L76783 47434
" />
<path d="M76539 47678
L76576 47659
L76595 47621
L76595 47284
" />
<path d="M80914 44928
L81045 44740
" />
<path d="M81139 44928
L81139 44534
L80989 44534
L80951 44553
L80933 44571
L80914 44609
L80914 44665
L80933 44703
L80951 44721
L80989 44740
L81139 44740
" />
<path d="M80801 44534
L80670 44928
L80539 44534
" />
<path d="M80445 44534
L80201 44534
L80333 44684
L80276 44684
L80239 44703
L80220 44721
L80201 44759
L80201 44853
L80220 44890
L80239 44909
L80276 44928
L80389 44928
L80426 44909
L80445 44890
" />
<path d="M78576 52428
L78801 52428
" />
<path d="M78689 52428
L78689 52034
L78726 52090
L78764 52128
L78801 52146
" />
<path d="M78333 52034
L78295 52034
L78258 52053
L78239 52071
L78220 52109
L78201 52184
L78201 52278
L78220 52353
L78239 52390
L78258 52409
L78295 52428
L78333 52428
L78370 52409
L78389 52390
L78408 52353
L78426 52278
L78426 52184
L78408 52109
L78389 52071
L78370 52053
L78333 52034
" />
<path d="M78033 52428
L78033 52034
" />
<path d="M77995 52278
L77883 52428
" />
<path d="M77883 52165
L78033 52315
" />
<path d="M77433 52409
L77395 52428
L77320 52428
L77283 52409
L77264 52371
L77264 52353
L77283 52315
L77320 52296
L77376 52296
L77414 52278
L77433 52240
L77433 52221
L77414 52184
L77376 52165
L77320 52165
L77283 52184
" />
<path d="M77039 52428
L77076 52409
L77095 52371
L77095 52034
" />
<path d="M80914 49678
L81045 49490
" />
<path d="M81139 49678
L81139 49284
L80989 49284
L80951 49303
L80933 49321
L80914 49359
L80914 49415
L80933 49453
L80951 49471
L80989 49490
L81139 49490
" />
<path d="M80801 49284
L80670 49678
L80539 49284
" />
<path d="M80239 49415
L80239 49678
" />
<path d="M80333 49265
L80426 49546
L80183 49546
" />
<path d="M67326 58428
L67551 58428
" />
<path d="M67439 58428
L67439 58034
L67476 58090
L67514 58128
L67551 58146
" />
<path d="M67083 58034
L67045 58034
L67008 58053
L66989 58071
L66970 58109
L66951 58184
L66951 58278
L66970 58353
L66989 58390
L67008 58409
L67045 58428
L67083 58428
L67120 58409
L67139 58390
L67158 58353
L67176 58278
L67176 58184
L67158 58109
L67139 58071
L67120 58053
L67083 58034
" />
<path d="M66783 58428
L66783 58034
" />
<path d="M66745 58278
L66633 58428
" />
<path d="M66633 58165
L66783 58315
" />
<path d="M66183 58409
L66145 58428
L66070 58428
L66033 58409
L66014 58371
L66014 58353
L66033 58315
L66070 58296
L66126 58296
L66164 58278
L66183 58240
L66183 58221
L66164 58184
L66126 58165
L66070 58165
L66033 58184
" />
<path d="M65789 58428
L65826 58409
L65845 58371
L65845 58034
" />
<path d="M80664 54428
L80795 54240
" />
<path d="M80889 54428
L80889 54034
L80739 54034
L80701 54053
L80683 54071
L80664 54109
L80664 54165
L80683 54203
L80701 54221
L80739 54240
L80889 54240
" />
<path d="M80551 54034
L80420 54428
L80289 54034
" />
<path d="M79970 54034
L80158 54034
L80176 54221
L80158 54203
L80120 54184
L80026 54184
L79989 54203
L79970 54221
L79951 54259
L79951 54353
L79970 54390
L79989 54409
L80026 54428
L80120 54428
L80158 54409
L80176 54390
" />
<path d="M78326 38428
L78551 38428
" />
<path d="M78439 38428
L78439 38034
L78476 38090
L78514 38128
L78551 38146
" />
<path d="M78083 38034
L78045 38034
L78008 38053
L77989 38071
L77970 38109
L77951 38184
L77951 38278
L77970 38353
L77989 38390
L78008 38409
L78045 38428
L78083 38428
L78120 38409
L78139 38390
L78158 38353
L78176 38278
L78176 38184
L78158 38109
L78139 38071
L78120 38053
L78083 38034
" />
<path d="M77783 38428
L77783 38034
" />
<path d="M77745 38278
L77633 38428
" />
<path d="M77633 38165
L77783 38315
" />
<path d="M77183 38409
L77145 38428
L77070 38428
L77033 38409
L77014 38371
L77014 38353
L77033 38315
L77070 38296
L77126 38296
L77164 38278
L77183 38240
L77183 38221
L77164 38184
L77126 38165
L77070 38165
L77033 38184
" />
<path d="M76789 38428
L76826 38409
L76845 38371
L76845 38034
" />
<path d="M80664 35678
L80795 35490
" />
<path d="M80889 35678
L80889 35284
L80739 35284
L80701 35303
L80683 35321
L80664 35359
L80664 35415
L80683 35453
L80701 35471
L80739 35490
L80889 35490
" />
<path d="M80551 35284
L80420 35678
L80289 35284
" />
<path d="M79951 35678
L80176 35678
" />
<path d="M80064 35678
L80064 35284
L80101 35340
L80139 35378
L80176 35396
" />
<path d="M48001 30934
L48001 31159
" />
<path d="M48001 31046
L48395 31046
L48339 31084
L48301 31121
L48283 31159
" />
<path d="M48395 30690
L48395 30653
L48376 30615
L48358 30596
L48320 30578
L48245 30559
L48151 30559
L48076 30578
L48039 30596
L48020 30615
L48001 30653
L48001 30690
L48020 30728
L48039 30746
L48076 30765
L48151 30784
L48245 30784
L48320 30765
L48358 30746
L48376 30728
L48395 30690
" />
<path d="M48001 30390
L48395 30390
" />
<path d="M48151 30353
L48001 30240
" />
<path d="M48264 30240
L48114 30390
" />
<path d="M48001 29771
L48264 29771
" />
<path d="M48189 29771
L48226 29753
L48245 29734
L48264 29696
L48264 29659
" />
<path d="M48001 29471
L48020 29509
L48039 29528
L48076 29546
L48189 29546
L48226 29528
L48245 29509
L48264 29471
L48264 29415
L48245 29378
L48226 29359
L48189 29340
L48076 29340
L48039 29359
L48020 29378
L48001 29415
L48001 29471
" />
<path d="M51320 32231
L51451 32043
" />
<path d="M51545 32231
L51545 31837
L51395 31837
L51357 31856
L51339 31875
L51320 31912
L51320 31968
L51339 32006
L51357 32025
L51395 32043
L51545 32043
" />
<path d="M51207 31837
L51076 32231
L50945 31837
" />
<path d="M50607 32231
L50832 32231
" />
<path d="M50720 32231
L50720 31837
L50757 31893
L50795 31931
L50832 31950
" />
<path d="M50364 31837
L50326 31837
L50289 31856
L50270 31875
L50251 31912
L50232 31987
L50232 32081
L50251 32156
L50270 32193
L50289 32212
L50326 32231
L50364 32231
L50401 32212
L50420 32193
L50439 32156
L50457 32081
L50457 31987
L50439 31912
L50420 31875
L50401 31856
L50364 31837
" />
<path d="M45954 48909
L45898 48928
L45804 48928
L45767 48909
L45748 48890
L45729 48853
L45729 48815
L45748 48778
L45767 48759
L45804 48740
L45879 48721
L45917 48703
L45936 48684
L45954 48646
L45954 48609
L45936 48571
L45917 48553
L45879 48534
L45786 48534
L45729 48553
" />
<path d="M45598 48534
L45504 48928
L45430 48646
L45355 48928
L45261 48534
" />
<path d="M45130 48571
L45111 48553
L45073 48534
L44980 48534
L44942 48553
L44923 48571
L44905 48609
L44905 48646
L44923 48703
L45148 48928
L44905 48928
" />
<path d="M45925 54159
L45869 54178
L45775 54178
L45737 54159
L45719 54140
L45700 54103
L45700 54065
L45719 54028
L45737 54009
L45775 53990
L45850 53971
L45887 53953
L45906 53934
L45925 53896
L45925 53859
L45906 53821
L45887 53803
L45850 53784
L45756 53784
L45700 53803
" />
<path d="M45569 53784
L45475 54178
L45400 53896
L45325 54178
L45231 53784
" />
<path d="M44875 54178
L45100 54178
" />
<path d="M44988 54178
L44988 53784
L45025 53840
L45063 53878
L45100 53896
" />
<path d="M55501 31184
L55501 31409
" />
<path d="M55501 31296
L55895 31296
L55839 31334
L55801 31371
L55783 31409
" />
<path d="M55895 30940
L55895 30903
L55876 30865
L55858 30846
L55820 30828
L55745 30809
L55651 30809
L55576 30828
L55539 30846
L55520 30865
L55501 30903
L55501 30940
L55520 30978
L55539 30996
L55576 31015
L55651 31034
L55745 31034
L55820 31015
L55858 30996
L55876 30978
L55895 30940
" />
<path d="M55501 30640
L55895 30640
" />
<path d="M55651 30603
L55501 30490
" />
<path d="M55764 30490
L55614 30640
" />
<path d="M55501 30021
L55764 30021
" />
<path d="M55689 30021
L55726 30003
L55745 29984
L55764 29946
L55764 29909
" />
<path d="M55501 29721
L55520 29759
L55539 29778
L55576 29796
L55689 29796
L55726 29778
L55745 29759
L55764 29721
L55764 29665
L55745 29628
L55726 29609
L55689 29590
L55576 29590
L55539 29609
L55520 29628
L55501 29665
L55501 29721
" />
<path d="M58632 32231
L58764 32043
" />
<path d="M58857 32231
L58857 31837
L58707 31837
L58670 31856
L58651 31875
L58632 31912
L58632 31968
L58651 32006
L58670 32025
L58707 32043
L58857 32043
" />
<path d="M58520 31837
L58389 32231
L58257 31837
" />
<path d="M58107 32231
L58032 32231
L57995 32212
L57976 32193
L57939 32137
L57920 32062
L57920 31912
L57939 31875
L57957 31856
L57995 31837
L58070 31837
L58107 31856
L58126 31875
L58145 31912
L58145 32006
L58126 32043
L58107 32062
L58070 32081
L57995 32081
L57957 32062
L57939 32043
L57920 32006
" />
<path d="M55501 30684
L55501 30909
" />
<path d="M55501 30796
L55895 30796
L55839 30834
L55801 30871
L55783 30909
" />
<path d="M55895 30440
L55895 30403
L55876 30365
L55858 30346
L55820 30328
L55745 30309
L55651 30309
L55576 30328
L55539 30346
L55520 30365
L55501 30403
L55501 30440
L55520 30478
L55539 30496
L55576 30515
L55651 30534
L55745 30534
L55820 30515
L55858 30496
L55876 30478
L55895 30440
" />
<path d="M55501 30140
L55895 30140
" />
<path d="M55651 30103
L55501 29990
" />
<path d="M55764 29990
L55614 30140
" />
<path d="M55501 29521
L55764 29521
" />
<path d="M55689 29521
L55726 29503
L55745 29484
L55764 29446
L55764 29409
" />
<path d="M55501 29221
L55520 29259
L55539 29278
L55576 29296
L55689 29296
L55726 29278
L55745 29259
L55764 29221
L55764 29165
L55745 29128
L55726 29109
L55689 29090
L55576 29090
L55539 29109
L55520 29128
L55501 29165
L55501 29221
" />
<path d="M63414 25678
L63545 25490
" />
<path d="M63639 25678
L63639 25284
L63489 25284
L63451 25303
L63433 25321
L63414 25359
L63414 25415
L63433 25453
L63451 25471
L63489 25490
L63639 25490
" />
<path d="M63301 25284
L63170 25678
L63039 25284
" />
<path d="M62851 25453
L62889 25434
L62908 25415
L62926 25378
L62926 25359
L62908 25321
L62889 25303
L62851 25284
L62776 25284
L62739 25303
L62720 25321
L62701 25359
L62701 25378
L62720 25415
L62739 25434
L62776 25453
L62851 25453
L62889 25471
L62908 25490
L62926 25528
L62926 25603
L62908 25640
L62889 25659
L62851 25678
L62776 25678
L62739 25659
L62720 25640
L62701 25603
L62701 25528
L62720 25490
L62739 25471
L62776 25453
" />
<path d="M62751 30684
L62751 30909
" />
<path d="M62751 30796
L63145 30796
L63089 30834
L63051 30871
L63033 30909
" />
<path d="M63145 30440
L63145 30403
L63126 30365
L63108 30346
L63070 30328
L62995 30309
L62901 30309
L62826 30328
L62789 30346
L62770 30365
L62751 30403
L62751 30440
L62770 30478
L62789 30496
L62826 30515
L62901 30534
L62995 30534
L63070 30515
L63108 30496
L63126 30478
L63145 30440
" />
<path d="M62751 30140
L63145 30140
" />
<path d="M62901 30103
L62751 29990
" />
<path d="M63014 29990
L62864 30140
" />
<path d="M62751 29521
L63014 29521
" />
<path d="M62939 29521
L62976 29503
L62995 29484
L63014 29446
L63014 29409
" />
<path d="M62751 29221
L62770 29259
L62789 29278
L62826 29296
L62939 29296
L62976 29278
L62995 29259
L63014 29221
L63014 29165
L62995 29128
L62976 29109
L62939 29090
L62826 29090
L62789 29109
L62770 29128
L62751 29165
L62751 29221
" />
<path d="M73382 32168
L73514 31980
" />
<path d="M73607 32168
L73607 31774
L73457 31774
L73420 31793
L73401 31812
L73382 31849
L73382 31905
L73401 31943
L73420 31962
L73457 31980
L73607 31980
" />
<path d="M73270 31774
L73139 32168
L73007 31774
" />
<path d="M72914 31774
L72651 31774
L72820 32168
" />
<path d="M78251 30684
L78251 30909
" />
<path d="M78251 30796
L78645 30796
L78589 30834
L78551 30871
L78533 30909
" />
<path d="M78645 30440
L78645 30403
L78626 30365
L78608 30346
L78570 30328
L78495 30309
L78401 30309
L78326 30328
L78289 30346
L78270 30365
L78251 30403
L78251 30440
L78270 30478
L78289 30496
L78326 30515
L78401 30534
L78495 30534
L78570 30515
L78608 30496
L78626 30478
L78645 30440
" />
<path d="M78251 30140
L78645 30140
" />
<path d="M78401 30103
L78251 29990
" />
<path d="M78514 29990
L78364 30140
" />
<path d="M78251 29521
L78514 29521
" />
<path d="M78439 29521
L78476 29503
L78495 29484
L78514 29446
L78514 29409
" />
<path d="M78251 29221
L78270 29259
L78289 29278
L78326 29296
L78439 29296
L78476 29278
L78495 29259
L78514 29221
L78514 29165
L78495 29128
L78476 29109
L78439 29090
L78326 29090
L78289 29109
L78270 29128
L78251 29165
L78251 29221
" />
<path d="M81382 32231
L81514 32043
" />
<path d="M81607 32231
L81607 31837
L81457 31837
L81420 31856
L81401 31875
L81382 31912
L81382 31968
L81401 32006
L81420 32025
L81457 32043
L81607 32043
" />
<path d="M81270 31837
L81139 32231
L81007 31837
" />
<path d="M80707 31837
L80782 31837
L80820 31856
L80839 31875
L80876 31931
L80895 32006
L80895 32156
L80876 32193
L80857 32212
L80820 32231
L80745 32231
L80707 32212
L80689 32193
L80670 32156
L80670 32062
L80689 32025
L80707 32006
L80745 31987
L80820 31987
L80857 32006
L80876 32025
L80895 32062
" />
<g >
</g>
</g>
<g style="fill:#000000; fill-opacity:0.0; 
stroke:#000000; stroke-width:59.0551; stroke-opacity:1; 
stroke-linecap:round; stroke-linejoin:round;">
</g>
<g style="fill:#000000; fill-opacity:0.0; 
stroke:#000000; stroke-width:39.3701; stroke-opacity:1; 
stroke-linecap:round; stroke-linejoin:round;">
<path d="M87930 59000
L87930 23500
" />
<path d="M26930 59000
L87930 59000
" />
<path d="M26930 23500
L26930 59000
" />
<path d="M87930 23500
L26930 23500
" />
<g >
</g>
<g >
</g>
<g >
</g>
<g >
</g>
<g >
</g>
<g >
</g>
<g >
</g>
<g >
</g>
<g >
</g>
<g >
</g>
<g >
</g>
<g >
</g>
<g >
</g>
<g >
</g>
<g >
</g>
<g >
</g>
<g >
</g>
<g >
</g>
<g >
</g>
<g >
</g>
</g> 
</svg>
